<?xml version="1.0" encoding="UTF-8"?><svg id="a" xmlns="http://www.w3.org/2000/svg" viewBox="0 0 2000 2000"><line x1="500.01" y1="38.97" x2="500.01" y2="50.47" style="fill:none; stroke:#bcbec0; stroke-miterlimit:10; stroke-width:8px;"/><line x1="500.01" y1="73.35" x2="500.01" y2="1938.06" style="fill:none; stroke:#bcbec0; stroke-dasharray:22.88 22.88; stroke-miterlimit:10; stroke-width:8px;"/><line x1="500.01" y1="1949.5" x2="500.01" y2="1961" style="fill:none; stroke:#bcbec0; stroke-miterlimit:10; stroke-width:8px;"/><line x1="1000.01" y1="38.97" x2="1000.01" y2="50.47" style="fill:none; stroke:#bcbec0; stroke-miterlimit:10; stroke-width:8px;"/><line x1="1000.01" y1="73.35" x2="1000.01" y2="1938.06" style="fill:none; stroke:#bcbec0; stroke-dasharray:22.88 22.88; stroke-miterlimit:10; stroke-width:8px;"/><line x1="1000.01" y1="1949.5" x2="1000.01" y2="1961" style="fill:none; stroke:#bcbec0; stroke-miterlimit:10; stroke-width:8px;"/><line x1="1500" y1="38.97" x2="1500" y2="50.47" style="fill:none; stroke:#bcbec0; stroke-miterlimit:10; stroke-width:8px;"/><line x1="1500" y1="73.35" x2="1500" y2="1938.06" style="fill:none; stroke:#bcbec0; stroke-dasharray:22.88 22.88; stroke-miterlimit:10; stroke-width:8px;"/><line x1="1500" y1="1949.5" x2="1500" y2="1961" style="fill:none; stroke:#bcbec0; stroke-miterlimit:10; stroke-width:8px;"/><line x1="38.99" y1="499.99" x2="50.49" y2="499.99" style="fill:none; stroke:#bcbec0; stroke-miterlimit:10; stroke-width:8px;"/><line x1="73.37" y1="499.99" x2="1938.08" y2="499.99" style="fill:none; stroke:#bcbec0; stroke-dasharray:22.88 22.88; stroke-miterlimit:10; stroke-width:8px;"/><line x1="1949.52" y1="499.99" x2="1961.02" y2="499.99" style="fill:none; stroke:#bcbec0; stroke-miterlimit:10; stroke-width:8px;"/><line x1="1961.02" y1="999.99" x2="1949.52" y2="999.99" style="fill:none; stroke:#bcbec0; stroke-miterlimit:10; stroke-width:8px;"/><line x1="1926.64" y1="999.99" x2="61.93" y2="999.99" style="fill:none; stroke:#bcbec0; stroke-dasharray:22.88 22.88; stroke-miterlimit:10; stroke-width:8px;"/><line x1="50.49" y1="999.99" x2="38.99" y2="999.99" style="fill:none; stroke:#bcbec0; stroke-miterlimit:10; stroke-width:8px;"/><line x1="1961.02" y1="1499.99" x2="1949.52" y2="1499.99" style="fill:none; stroke:#bcbec0; stroke-miterlimit:10; stroke-width:8px;"/><line x1="1926.64" y1="1499.99" x2="61.93" y2="1499.99" style="fill:none; stroke:#bcbec0; stroke-dasharray:22.88 22.88; stroke-miterlimit:10; stroke-width:8px;"/><line x1="50.49" y1="1499.99" x2="38.99" y2="1499.99" style="fill:none; stroke:#bcbec0; stroke-miterlimit:10; stroke-width:8px;"/><path d="M1914.02,1741.22h-54.84c-4.33,0-7.85-3.51-7.85-7.85v-54.84c0-4.33,3.51-7.85,7.85-7.85h54.84c4.33,0,7.85,3.51,7.85,7.85v54.84c0,4.33-3.51,7.85-7.85,7.85ZM1920.84,1638.2l-28.02-47.29c-2.8-4.73-9.65-4.73-12.45,0l-28.02,47.29c-2.86,4.82.62,10.93,6.23,10.93h56.03c5.61,0,9.08-6.1,6.23-10.93ZM1886.6,1833.31c19.48,0,35.26-15.79,35.26-35.26s-15.79-35.26-35.26-35.26-35.26,15.79-35.26,35.26,15.79,35.26,35.26,35.26ZM1921.87,1890.14c0-19.48-15.79-35.26-35.26-35.26s-35.26,15.79-35.26,35.26,15.79,35.26,35.26,35.26,35.26-15.79,35.26-35.26ZM1911.54,1822.98l-49.84-49.84" style="fill:none; stroke:#bcbec0; stroke-miterlimit:10; stroke-width:5px;"/><path d="M1863.85,1723.16c.39-.54.77-1.4.23-2.18-.25-.35-.56-.83.14-2.18M1868.66,1714.74c-1.35,2.6-.75,3.52-.27,4.21,1.06,1.5.31,3.17-.44,4.21M1873.09,1711.4c-1.89,3.63-1.05,4.92-.37,5.88,1.48,2.09.44,4.43-.61,5.88M1877.33,1713.9c-1.49,2.86-.82,3.88-.29,4.63,1.16,1.65.34,3.49-.48,4.63M1881.69,1712.42c-1.72,3.31-.95,4.5-.34,5.37,1.35,1.91.4,4.04-.56,5.37M1886.04,1711.4c-1.89,3.63-1.05,4.92-.37,5.88,1.48,2.09.44,4.43-.61,5.88M1890.28,1713.9c-1.49,2.86-.82,3.88-.29,4.63,1.16,1.65.34,3.49-.48,4.63M1894.63,1712.77c-1.67,3.21-.92,4.35-.33,5.2,1.3,1.85.39,3.91-.54,5.2M1898.9,1714.24c-1.43,2.75-.79,3.73-.28,4.46,1.12,1.59.33,3.36-.46,4.46M1903.14,1716.58c-1.06,2.03-.58,2.75-.21,3.29.83,1.17.24,2.48-.34,3.29M1907.34,1719.13c-.65,1.24-.36,1.69-.13,2.01.51.72.15,1.52-.21,2.01M1887.1,1895.44c2.38,4.18,6.32,7.36,11.03,8.74.45.13.54.72.18,1.01-3.21,2.58-7.27,4.14-11.71,4.14s-8.5-1.56-11.71-4.14c-.36-.29-.27-.88.18-1.01,4.71-1.38,8.65-4.55,11.03-8.74.22-.38.78-.38.99,0ZM1913.77,1911.56c-2.03-1.76-4.24-3.33-6.59-4.67,2.41-3.78,3.82-8.28,3.82-13.1,0-9.29-5.2-17.37-12.84-21.49h0c5.56-5.41-4.59-5.09-4.59-5.09-.43-8.43-5.28-1.28-5.28-1.28-2.23-7.18-5.89-.07-6.06,3.86h0c-11.39,2.05-20.03,12.02-20.03,24,0,4.82,1.4,9.31,3.82,13.1-2.35,1.34-4.56,2.91-6.59,4.67M1883.35,1804.69h-5.93c-1.04,0-2.01-.53-2.57-1.4l-6.71-10.38c-.73-1.12-2.47-.61-2.47.73v19.61" style="fill:none; stroke:#bcbec0; stroke-linecap:round; stroke-linejoin:round; stroke-width:2px;"/><path d="M1503.97,659.68l-14-10v-98.96l-40.75-40.74h-98.96l-10-14h114.76l48.95,48.95v114.76ZM496.03,659.68l14-10v-98.96s40.75-40.74,40.75-40.74h98.96s10-14,10-14h-114.76s-48.95,48.95-48.95,48.95v114.76ZM496.03,1455.08l48.95,48.95h114.76s-10-14-10-14h-98.96s-40.75-40.74-40.75-40.74v-98.96s-14-10-14-10v114.76ZM1503.97,1340.32l-14,10v98.96s-40.75,40.74-40.75,40.74h-98.96s-10,14-10,14h114.76s48.95-48.95,48.95-48.95v-114.76ZM245.17,1961.02l28.26,36.27h-18.98l-28.26-36.27h18.98ZM52.39,1977.16l-28.26-28.26v-153.48l-9.09-7.08v-78.02l-11.04-8.6v247.18l35.52,48.39h195.99l-15.68-20.13H52.39ZM257.1,1961.02l28.26,36.27h18.98l-28.26-36.27h-18.98ZM288,1961.02l28.26,36.27h18.98l-28.26-36.27h-18.98ZM27.13,1564.4l-23.13-18.02v40.24l23.13,18.02v-40.24ZM27.13,1617.6l-23.13-18.02v40.24l23.13,18.02v-40.24ZM4,1693.01l23.13,18.02v-40.24l-23.13-18.02v40.24ZM15.04,1543.36V456.64l-11.04,8.6v1069.5l11.04,8.6ZM1754.83,1961.02l-28.26,36.27h18.98l28.26-36.27h-18.98ZM1723.92,1961.02l-28.26,36.27h18.98l28.26-36.27h-18.98ZM1693.02,1961.02l-28.26,36.27h18.98l28.26-36.27h-18.98ZM1669.77,1961.02h-151.37l-8.26,10.6h-143.63l-11.56,14.84h-709.91l-11.56-14.84h-143.63l-8.26-10.6h-151.37l28.26,36.27h1283.02l28.26-36.27ZM1972.87,1604.65l23.13-18.02v-40.24l-23.13,18.02v40.24ZM1972.87,1657.84l23.13-18.02v-40.24l-23.13,18.02v40.24ZM1972.87,1711.03l23.13-18.02v-40.24l-23.13,18.02v40.24ZM1984.96,1788.35l-9.09,7.08v153.48l-28.26,28.26h-167.43l-15.68,20.13h195.99l35.52-48.39v-247.18l-11.04,8.6v78.02ZM1773.81,38.98l-28.26-36.27h-18.98l28.26,36.27h18.98ZM1742.9,38.98l-28.26-36.27h-18.98l28.26,36.27h18.98ZM1712,38.98l-28.26-36.27h-18.98l28.26,36.27h18.98ZM1972.87,435.6l23.13,18.02v-40.24l-23.13-18.02v40.24ZM1972.87,382.4l23.13,18.02v-40.24l-23.13-18.02v40.24ZM1972.87,329.21l23.13,18.02v-40.24l-23.13-18.02v40.24ZM1984.96,1543.36l11.04-8.6V465.25l-11.04-8.6v1086.71ZM1960.48,2.71h-195.99l15.68,20.13h167.43l28.26,28.26v153.48l9.09,7.08v78.02l11.04,8.6V51.1l-35.52-48.39ZM245.17,38.98l28.26-36.27h-18.98l-28.26,36.27h18.98ZM276.08,38.98l28.26-36.27h-18.98l-28.26,36.27h18.98ZM306.98,38.98l28.26-36.27h-18.98l-28.26,36.27h18.98ZM481.59,38.98l8.26-10.6h143.63l11.56-14.84h709.91l11.56,14.84h143.63l8.26,10.6h151.37l-28.26-36.27H358.49l-28.26,36.27h151.37ZM4,453.62l23.13-18.02v-40.24l-23.13,18.02v40.24ZM27.13,342.16l-23.13,18.02v40.24l23.13-18.02v-40.24ZM27.13,288.97l-23.13,18.02v40.24l23.13-18.02v-40.24ZM15.04,211.65l9.09-7.08V51.1l28.26-28.26h167.43l15.68-20.13H39.52L4,51.1v247.18l11.04-8.6v-78.02ZM1890.18,1604.42l-1.08,20.9c-.23,3.14-4.77,3.13-5,0,0,0-1.08-20.9-1.08-20.9-.07-4.98,7.23-4.98,7.16,0h0ZM1886.6,1633.48c-1.92,0-3.48,1.56-3.48,3.48s1.56,3.48,3.48,3.48,3.48-1.56,3.48-3.48-1.56-3.48-3.48-3.48ZM1912.45,1732.26h-52.45v-6.58h52.45v6.58ZM1915.94,1686.06l-11.24,4.86c-2.52,1.09-5.36,1.16-7.93.22l-28.97-10.68c-.55-.2-1.14.21-1.14.8v.73c0,1.14.61,2.19,1.61,2.75l5.11,2.88-11.05.45c-.66.03-1.04.77-.67,1.32l.78,1.15c.59.86,1.57,1.38,2.61,1.38h14.01l-18.19,4.55c-.83.21-1.14,1.21-.59,1.86l.86,1c.74.86,1.88,1.24,2.99,1l15.95-3.41c1.55-.33,3.16-.03,4.49.85l6.03,3.98-7.07-.7c-2.17-.21-4.31.61-5.77,2.22l-.13.14c-.5.55-.2,1.44.53,1.58l16.31,3.02c3.42.63,6.95.12,10.05-1.46l11.42-5.83v-14.65ZM1875.37,1893.23c0,2.68-1.37,4.85-3.06,4.85s-3.06-2.17-3.06-4.85,1.37-4.85,3.06-4.85,3.06,2.17,3.06,4.85ZM1872.81,1890.59c-.65,0-1.18.73-1.18,1.63s.53,1.63,1.18,1.63,1.18-.73,1.18-1.63-.53-1.63-1.18-1.63ZM1903.97,1893.23c0,2.68-1.37,4.85-3.06,4.85s-3.06-2.17-3.06-4.85,1.37-4.85,3.06-4.85,3.06,2.17,3.06,4.85ZM1900.39,1890.59c-.65,0-1.18.73-1.18,1.63s.53,1.63,1.18,1.63,1.18-.73,1.18-1.63-.53-1.63-1.18-1.63ZM1879.34,1783.18c4.19-2.34,9.58-1.73,13.15,1.83,4.3-4.3,11.28-4.3,15.58,0,4.3,4.3,4.3,11.28,0,15.58l-5.66,5.66-23.07-23.07ZM1873.68,1792.72c-.02,2.84,1.05,5.7,3.22,7.87l15.58,15.58,2.32-2.32-21.13-21.12ZM1865.67,1810.48c-1.43,0-2.59,1.16-2.59,2.59s1.16,2.59,2.59,2.59,2.59-1.16,2.59-2.59-1.16-2.59-2.59-2.59ZM165.97,1756.24h-70.47l20.13,20.13h40.27l10.07,10.07-10.06,10.06h-30.21l-20.13-20.13v60.4s20.13-20.13,20.13-20.13h30.21l10.06,10.06h0s-10.06,10.07-10.06,10.07h-40.27l-30.2,30.2h30.21s10.06-10.06,10.06-10.06h0s40.27,0,40.27,0l20.12-20.12v-20.14l-10.06-10.06,20.13-20.13-30.2-30.2ZM256.45,1756.24h-80.53l20.13,20.13h50.33s10.07,10.07,10.07,10.07v30.2l20.13,20.13v-60.4l-20.13-20.13ZM256.45,1826.71h0s-30.2,0-30.2,0h0s10.07,10.07,10.07,10.07h-20.14v-30.2l-10.07-10.07h-10.06v50.34l10.06,10.06h50.34s10.07,10.07,10.07,10.07h30.2l-40.27-40.26ZM117.91,1896.48h-14.36l4.1,4.1h8.21l2.05,2.05-2.05,2.05h-6.16l-4.1-4.1v12.31s4.1-4.1,4.1-4.1h6.16l2.05,2.05h0s-2.05,2.05-2.05,2.05h-8.21l-6.15,6.15h6.16s2.05-2.05,2.05-2.05h0s8.21,0,8.21,0l4.1-4.1v-4.11l-2.05-2.05,4.1-4.1-6.15-6.15ZM221.16,1896.48h-16.41l4.1,4.1h10.26s2.05,2.05,2.05,2.05v6.15l4.1,4.1v-12.31l-4.1-4.1ZM221.16,1910.84h0s-6.15,0-6.15,0h0s2.05,2.05,2.05,2.05h-4.1v-6.15l-2.05-2.05h-2.05v10.26l2.05,2.05h10.26s2.05,2.05,2.05,2.05h6.15l-8.21-8.21ZM163.3,1914.9v-8.14s-2-2.05-2-2.05l2.18-2.08h4.03l-.06,16.4-4.14-4.12ZM163.38,1896.5c.79.79,1.23,1.23,2.02,2.02v2.05h-4.05c-.8-.8-3.28-3.26-4.07-4.06h6.1ZM262.37,1896.5l2.04,2.06-.02,14.36,4.11-.03,4.13,4.16-10.25-.05-2.04-2.03v-14.34l-4.1-4.12h6.14ZM276.8,1900.54l-.04,12.36,6.1,6.15-6.13-.02-8.21-8.17h4.1s.01-12.32.01-12.32l2.07-2.03,6.17-.02-4.08,4.06Z" style="fill:#bcbec0;"/></svg>