<?xml version="1.0" encoding="UTF-8"?><svg id="a" xmlns="http://www.w3.org/2000/svg" viewBox="0 0 2430 2200"><path d="M1479.42,1388.36c2.33,2.37,5.39,3.67,8.72,3.69s6.41-1.22,8.78-3.55c2.37-2.33,3.67-5.39,3.69-8.72.03-3.32-1.22-6.41-3.55-8.78l-49.92-50.71c-3.64-3.69-8.71-4.73-13.51-2.77-4.79,1.96-7.68,6.27-7.68,11.45v143.02c0,3.33,1.27,6.4,3.62,8.75,2.35,2.35,5.42,3.62,8.75,3.62,3.33,0,6.4-1.27,8.75-3.62,2.35-2.35,3.62-5.42,3.62-8.75v-112.81l28.74,29.19ZM1566.73,1328.96v112.81l-28.78-29.24c-2.33-2.37-5.39-3.67-8.72-3.69-3.32-.03-6.41,1.22-8.78,3.55-2.37,2.33-3.67,5.39-3.69,8.72-.03,3.32,1.22,6.41,3.55,8.78l49.97,50.76c3.64,3.69,8.71,4.73,13.51,2.77,4.79-1.96,7.68-6.27,7.68-11.45v-143.02c0-3.33-1.27-6.4-3.62-8.75-2.35-2.35-5.42-3.62-8.75-3.62s-6.4,1.27-8.75,3.62c-2.35,2.35-3.62,5.42-3.62,8.75ZM1307.66,1316.59c-49.14,0-83.88,34.74-83.88,83.88s34.74,83.88,83.88,83.88,83.88-34.74,83.88-83.88-34.74-83.88-83.88-83.88ZM1307.66,1459.61c-34.64,0-59.14-24.5-59.14-59.14s24.5-59.14,59.14-59.14,59.14,24.5,59.14,59.14-24.5,59.14-59.14,59.14ZM1780.02,1459.61h-140.05c-3.33,0-6.4,1.27-8.75,3.62-2.35,2.35-3.62,5.42-3.62,8.75,0,3.33,1.27,6.4,3.62,8.75s5.42,3.62,8.75,3.62h140.05c3.33,0,6.4-1.27,8.75-3.62,2.35-2.35,3.62-5.42,3.62-8.75,0-3.33-1.27-6.4-3.62-8.75-2.35-2.35-5.42-3.62-8.75-3.62ZM1780.02,1388.1h-140.05c-3.33,0-6.4,1.27-8.75,3.62-2.35,2.35-3.62,5.42-3.62,8.75,0,3.33,1.27,6.4,3.62,8.75,2.35,2.35,5.42,3.62,8.75,3.62h140.05c3.33,0,6.4-1.27,8.75-3.62s3.62-5.42,3.62-8.75c0-3.33-1.27-6.4-3.62-8.75-2.35-2.35-5.42-3.62-8.75-3.62ZM1780.02,1316.59h-140.05c-3.33,0-6.4,1.27-8.75,3.62-2.35,2.35-3.62,5.42-3.62,8.75,0,3.33,1.27,6.4,3.62,8.75,2.35,2.35,5.42,3.62,8.75,3.62h140.05c3.33,0,6.4-1.27,8.75-3.62,2.35-2.35,3.62-5.42,3.62-8.75,0-3.33-1.27-6.4-3.62-8.75-2.35-2.35-5.42-3.62-8.75-3.62ZM1181.72,1328.96h24.74c0,42.68-27.82,75.05-70.02,81.46v61.56c0,3.33-1.27,6.4-3.62,8.75-2.35,2.35-5.42,3.62-8.75,3.62-3.33,0-6.4-1.27-8.75-3.62-2.35-2.35-3.62-5.42-3.62-8.75v-61.56c-42.2-6.41-70.02-38.78-70.02-81.46,8.25,0,16.5,0,24.74,0,0,33.77,23.88,57.65,57.65,57.65,33.77,0,57.65-23.88,57.65-57.65ZM790.03,1459.61h-140.05c-3.33,0-6.4,1.27-8.75,3.62-2.35,2.35-3.62,5.42-3.62,8.75,0,3.33,1.27,6.4,3.62,8.75,2.35,2.35,5.42,3.62,8.75,3.62h140.05c3.33,0,6.4-1.27,8.75-3.62,2.35-2.35,3.62-5.42,3.62-8.75,0-3.33-1.27-6.4-3.62-8.75-2.35-2.35-5.42-3.62-8.75-3.62ZM790.03,1341.34c3.33,0,6.4-1.27,8.75-3.62,2.35-2.35,3.62-5.42,3.62-8.75,0-3.33-1.27-6.4-3.62-8.75-2.35-2.35-5.42-3.62-8.75-3.62h-140.05c-3.33,0-6.4,1.27-8.75,3.62-2.35,2.35-3.62,5.42-3.62,8.75,0,3.33,1.27,6.4,3.62,8.75,2.35,2.35,5.42,3.62,8.75,3.62h140.05ZM790.03,1412.84c3.33,0,6.4-1.27,8.75-3.62,2.35-2.35,3.62-5.42,3.62-8.75,0-3.33-1.27-6.4-3.62-8.75-2.35-2.35-5.42-3.62-8.75-3.62h-140.05c-3.33,0-6.4,1.27-8.75,3.62s-3.62,5.42-3.62,8.75c0,3.33,1.27,6.4,3.62,8.75,2.35,2.35,5.42,3.62,8.75,3.62h140.05M989.14,1400.47c15.29-13.78,20.09-33.79,12.71-53.01-7.38-19.21-24.34-30.87-44.93-30.87h-107.26c-3.33,0-6.4,1.27-8.75,3.62-2.35,2.35-3.62,5.42-3.62,8.75v143.02c0,3.33,1.27,6.4,3.62,8.75,2.35,2.35,5.42,3.62,8.75,3.62s6.4-1.27,8.75-3.62c2.35-2.35,3.62-5.42,3.62-8.75v-59.14h94.89c6.28,0,12.09,2.4,16.53,6.85,4.44,4.44,6.85,10.25,6.85,16.53v35.75c0,3.33,1.27,6.4,3.62,8.75,2.35,2.35,5.42,3.62,8.75,3.62s6.4-1.27,8.75-3.62c2.35-2.35,3.62-5.42,3.62-8.75v-35.75c0-13.84-5.63-26.49-15.91-35.75ZM973.46,1381.25c-4.44,4.44-10.25,6.85-16.53,6.85h-94.89v-46.76h94.89c6.28,0,12.09,2.4,16.53,6.85,4.44,4.44,6.85,10.25,6.85,16.53s-2.4,12.09-6.85,16.53ZM1406.27,886.99l74.78-44.88v265.01l-266.05,141.85v-84.75l191.27-101.98v-175.26ZM1023.73,868.3l174.24-92.9-79.47-42.37-169.54,90.4v283.7l250.02,133.31v-84.75l-175.24-93.43v-193.95ZM1406.27,868.3h0s74.78-44.87,74.78-44.87l-266.05-141.85-79.47,42.37,79.47,42.37,191.27,101.98ZM1215,861.89l-99.39,52.99,94.51,50.39-94.51,50.39,99.39,52.99,99.39-52.99-94.51-50.39,94.51-50.39-99.39-52.99Z" style="fill:#bcbec0; opacity:.25;"/></svg>