<?xml version="1.0" encoding="UTF-8"?><svg id="a" xmlns="http://www.w3.org/2000/svg" viewBox="0 0 2000 2000"><path d="M1105.62,1947.37c.93.95,2.15,1.46,3.48,1.47s2.56-.49,3.51-1.42,1.46-2.15,1.47-3.48c.01-1.33-.49-2.56-1.42-3.51l-19.94-20.26c-1.45-1.47-3.48-1.89-5.39-1.11s-3.07,2.5-3.07,4.57v57.13c0,1.33.51,2.56,1.45,3.49s2.17,1.45,3.49,1.45c1.33,0,2.56-.51,3.49-1.45.94-.94,1.45-2.17,1.45-3.49v-45.06l11.48,11.66ZM1140.5,1923.65v45.06l-11.5-11.68c-.93-.95-2.15-1.46-3.48-1.47s-2.56.49-3.51,1.42-1.46,2.15-1.47,3.48.49,2.56,1.42,3.51l19.96,20.28c1.45,1.47,3.48,1.89,5.39,1.11,1.92-.78,3.07-2.5,3.07-4.57v-57.13c0-1.33-.51-2.56-1.45-3.49-.94-.94-2.17-1.45-3.49-1.45-1.33,0-2.56.51-3.49,1.45s-1.45,2.17-1.45,3.49ZM1037.01,1918.71c-19.63,0-33.51,13.88-33.51,33.51s13.88,33.51,33.51,33.51,33.51-13.88,33.51-33.51-13.88-33.51-33.51-33.51ZM1037.01,1975.83c-13.84,0-23.62-9.78-23.62-23.62s9.78-23.62,23.62-23.62,23.62,9.78,23.62,23.62-9.78,23.62-23.62,23.62ZM1225.69,1975.83h-55.94c-1.33,0-2.56.51-3.49,1.45-.94.94-1.45,2.17-1.45,3.49,0,1.33.51,2.56,1.45,3.49.94.94,2.17,1.45,3.49,1.45h55.94c1.33,0,2.56-.51,3.49-1.45s1.45-2.17,1.45-3.49-.51-2.56-1.45-3.49-2.17-1.45-3.49-1.45ZM1225.69,1947.27h-55.94c-1.33,0-2.56.51-3.49,1.45s-1.45,2.17-1.45,3.49c0,1.33.51,2.56,1.45,3.49.94.94,2.17,1.45,3.49,1.45h55.94c1.33,0,2.56-.51,3.49-1.45.94-.94,1.45-2.17,1.45-3.49s-.51-2.56-1.45-3.49c-.94-.94-2.17-1.45-3.49-1.45ZM1225.69,1918.71h-55.94c-1.33,0-2.56.51-3.49,1.45s-1.45,2.17-1.45,3.49c0,1.33.51,2.56,1.45,3.49.94.94,2.17,1.45,3.49,1.45h55.94c1.33,0,2.56-.51,3.49-1.45s1.45-2.17,1.45-3.49-.51-2.56-1.45-3.49-2.17-1.45-3.49-1.45ZM986.71,1923.65h9.88c0,17.05-11.11,29.98-27.97,32.54v24.59c0,1.33-.51,2.56-1.45,3.49-.94.94-2.17,1.45-3.49,1.45-1.33,0-2.56-.51-3.49-1.45s-1.45-2.17-1.45-3.49v-24.59c-16.86-2.56-27.97-15.49-27.97-32.54,3.29,0,6.59,0,9.88,0,0,13.49,9.54,23.03,23.03,23.03,13.49,0,23.03-9.54,23.03-23.03ZM830.25,1975.83h-55.94c-1.33,0-2.56.51-3.49,1.45-.94.94-1.45,2.17-1.45,3.49s.51,2.56,1.45,3.49,2.17,1.45,3.49,1.45h55.94c1.33,0,2.56-.51,3.49-1.45s1.45-2.17,1.45-3.49-.51-2.56-1.45-3.49-2.17-1.45-3.49-1.45ZM830.25,1928.59c1.33,0,2.56-.51,3.49-1.45s1.45-2.17,1.45-3.49-.51-2.56-1.45-3.49-2.17-1.45-3.49-1.45h-55.94c-1.33,0-2.56.51-3.49,1.45s-1.45,2.17-1.45,3.49.51,2.56,1.45,3.49,2.17,1.45,3.49,1.45h55.94ZM830.25,1957.15c1.33,0,2.56-.51,3.49-1.45s1.45-2.17,1.45-3.49-.51-2.56-1.45-3.49c-.94-.94-2.17-1.45-3.49-1.45h-55.94c-1.33,0-2.56.51-3.49,1.45s-1.45,2.17-1.45,3.49.51,2.56,1.45,3.49,2.17,1.45,3.49,1.45h55.94M909.78,1952.21c6.11-5.5,8.03-13.5,5.08-21.17-2.95-7.68-9.72-12.33-17.95-12.33h-42.85c-1.33,0-2.56.51-3.49,1.45-.94.94-1.45,2.17-1.45,3.49v57.13c0,1.33.51,2.56,1.45,3.49.94.94,2.17,1.45,3.49,1.45s2.56-.51,3.49-1.45c.94-.94,1.45-2.17,1.45-3.49v-23.62h37.9c2.51,0,4.83.96,6.6,2.74,1.77,1.78,2.74,4.09,2.74,6.6v14.28c0,1.33.51,2.56,1.45,3.49.94.94,2.17,1.45,3.49,1.45s2.56-.51,3.49-1.45c.94-.94,1.45-2.17,1.45-3.49v-14.28c0-5.53-2.25-10.58-6.36-14.28ZM903.52,1944.53c-1.77,1.78-4.09,2.74-6.6,2.74h-37.9v-18.68h37.9c2.51,0,4.83.96,6.6,2.74,1.77,1.77,2.74,4.09,2.74,6.6s-.96,4.83-2.74,6.6Z" style="fill:#ff6b35; opacity:.7;"/></svg>