<?xml version="1.0" encoding="UTF-8"?><svg id="a" xmlns="http://www.w3.org/2000/svg" viewBox="0 0 4096 4096"><path d="M2091.17,3900.73h-31.36v-12.13c-19.45,21.9-77.13,16.12-79.98-13.74-2.83-29.61,24.96-34.73,48.31-36.05,9.54-.54,29.11,0,29.11,0,.33-4.52-.57-9.28-3.48-12.8-12.56-15.15-43.49-8.36-58.23.65-1.13-2.76-11.93-19.95-11.2-20.99,7.67-4.16,16.19-7.68,24.79-9.44,37.08-7.6,79.59-2.78,82.07,42.87,1.09,20.18-.87,41.35-.03,61.63h0ZM2057.25,3856.68h-22.15c-14.92,0-17.78,2.72-19.12,3.83-6.25,5.15-4.45,15.82,2.87,19.48,9.15,4.57,23.02,3.13,31.32-2.6,1.4-.97,7.08-6.75,7.08-8.25v-12.45h0ZM2122.52,3795.39v69.26c0,33.33,54.59,54.5,87.03,23.94v12.13h32v-105.33h-33.28v55.86c0,9.26-7.2,19.73-15.81,23.17-11.04,4.41-36.66,1.45-36.66-18.06v-60.96h-33.28ZM2393.22,3900.73v-69.26c0-33.33-54.59-54.5-87.03-23.94v-12.13h-32v105.33h33.28v-55.86c0-9.26,7.2-19.73,15.81-23.17,11.04-4.41,36.66-1.45,36.66,18.06v60.96h33.28ZM1625.29,3755.18v145.55h33.28v-145.55h-33.28ZM1835.19,3755.18v145.55h33.28v-55.86c0-19.59,21.92-29.39,38.92-24.14,8.29,2.56,14.84,12.34,14.84,20.95v59.05h33.28v-64.79c-.59-40.91-53.81-55.68-87.03-30.33v-50.43h-33.29ZM2699.43,3763.47c34.69,1.74,69.6,21.2,75.04,57.94,7.3,49.27-32.8,77.09-77.6,79.31h-75.83v-137.25h78.39ZM2656.23,3875.19h30.71c18.62,0,28.37-4.32,32.57-6.77,18.98-11.07,25.36-34.92,16.61-54.74-7.55-17.1-28.41-25.33-46.81-25.33l-33.09.03v86.82h.01ZM2479.61,3763.47v24.9h66.46l-31.9,32.88v20.11c24.94,0,31.19,1.48,33.72,2.43,14.88,5.57,14.63,24.44.2,30.45-14.53,6.05-35.25,2.76-49.61-2.87-4.51-1.77-8.75-4.29-13.1-6.39l-12.75,22.75c35.25,20.93,90.33,21.89,111.62-2.95,19.94-23.27,2-61.32-32.42-65.16l35.3-36.67v-19.47h-107.52ZM1700.39,3887.08c-21.44-18.14-24.32-50.84-6.01-72.23,30.91-36.11,110.15-25.91,116.97,26.34,7.61,58.25-73.06,77.97-110.97,45.89h.01ZM1772.23,3866.02c3.25-4.64,5.36-11.63,5.41-17.31.41-43.25-68.41-39.75-61.33,5.58,4,25.63,41.76,31.97,55.92,11.73h0ZM1320.68,3763.47l74.58-.03c35.64.61,67.54,25.31,56.43,64-4.32,15.03-16.87,22.08-29.72,28.75l33.74,44.53h-36.8l-29.12-38.3h-33.92v38.3h-35.2v-137.25h.01ZM1390.52,3788.37h-34.65v49.15h34.98c18.26,0,28.72-8.44,28.72-24.58,0-13.27-12.61-24.58-29.05-24.58h0ZM1587.31,3812.85c13.96,14.72,17.58,38.97,8.85,57.22-22.11,46.27-110.57,42.22-122.9-8.89-15.49-64.21,76.11-88.35,114.04-48.33h.01ZM1536.13,3817.98c-41.93.33-41.52,63.93,5,59.76,35.53-3.19,35.04-60.07-5-59.76Z" style="fill:#bcbec0;"/><path d="M1168.03,2048v-703.97h351.99v351.99h351.99v-351.99h351.99v351.99h351.99v-351.99h351.99v703.97h-1759.95ZM1402.69,2517.32h1290.62v234.66h-1290.62v-234.66h0ZM1168.03,2165.33h1759.94l-234.66,234.66h-1290.62c-78.22-78.22-156.44-156.44-234.66-234.66Z" style="fill:#17b75a;"/></svg>