<?xml version="1.0" encoding="UTF-8"?><svg id="a" xmlns="http://www.w3.org/2000/svg" viewBox="0 0 768 768"><path d="M370.03,315.01c-1.05.49-1.67,1.22-3.13,3.65-.65,1.11-1.46,2.43-1.81,2.97-.32.54-.68,1.16-.78,1.38-.08.22-.43.76-.73,1.22-.32.43-.7,1.05-.86,1.35-.92,1.7-1.57,2.75-1.89,3.13-.22.22-.38.51-.38.59,0,.11-.54,1.03-1.22,2.08s-1.22,1.97-1.22,2.08c0,.08-.16.38-.38.59-.32.38-.73,1.05-1.89,3.13-.16.3-.62,1.03-1.03,1.62-.38.59-1,1.59-1.32,2.21-.35.62-2.11,3.51-3.89,6.43-1.78,2.94-3.43,5.67-3.67,6.08-.22.43-.65,1.11-.95,1.54-.27.41-.65,1-.81,1.3-1.13,2.03-1.57,2.75-1.89,3.13-.22.22-.38.51-.38.59,0,.11-.54,1.03-1.22,2.08s-1.22,1.97-1.22,2.05-.3.54-.65,1c-.35.49-.92,1.4-1.3,2.08-.35.68-.95,1.7-1.35,2.3-.38.59-1,1.59-1.32,2.21-.51.89-6.7,11.07-9.34,15.42-.35.57-.81,1.38-1.05,1.86s-.59,1-.81,1.19c-.22.16-.38.41-.38.54s-.54,1.08-1.22,2.13-1.22,1.97-1.22,2.05-.27.54-.59,1c-.35.49-.76,1.11-.92,1.4-.27.51-3.08,5.18-3.62,6.08-.14.22-.76,1.24-1.38,2.3-.62,1.03-1.49,2.4-1.92,3.02l-.78,1.16h-3.48c-3.05,0-3.62.08-4.51.57-1.46.81-1.54.92-2.35,2.43-.92,1.81-.92,3.27.03,5.1.59,1.13,1.05,1.57,2.19,2.19,1.43.76,1.46.76,6.32.73,5.43-.03,6.91-.3,8.1-1.51.59-.62,4.7-7.13,6.48-10.31.3-.51.68-1.13.86-1.35.3-.41.49-.7,1.57-2.67.3-.54.7-1.16.92-1.4.22-.22.38-.49.38-.59,0-.08.84-1.49,1.84-3.08s2.13-3.46,2.48-4.13c.38-.68.81-1.4.97-1.62.19-.22.62-.92.95-1.51.51-.89,7.37-12.2,10.15-16.79.35-.54.81-1.38,1.05-1.86s.59-1,.81-1.19c.22-.16.38-.41.38-.54s.54-1.08,1.22-2.13,1.22-1.94,1.22-2.03.54-.97,1.22-2.03,1.22-2,1.22-2.13.16-.38.38-.54c.22-.19.57-.7.81-1.19s.7-1.32,1.05-1.86c2.7-4.43,9.59-15.82,9.94-16.42.22-.43.65-1.11.95-1.54.27-.41.65-1,.81-1.3,1.03-1.86,1.54-2.75,1.81-3.08.35-.41.84-1.22,1.32-2.19.19-.38.62-1.05.95-1.51.35-.46.62-.97.62-1.16,0-.86.65.03,1.38,1.86.43,1.11.78,2.03.76,2.03s.38,1.13.7,2.03c.22.51.76,1.97,1.24,3.24s1.03,2.67,1.24,3.16c.19.46.35.97.35,1.13,0,.24.57,1.67,1.08,2.73.16.35,0,.97-.78,2.84-.14.3-.62,1.62-1.11,2.97-1.16,3.24-1.46,4.05-2.16,5.81-.32.81-.62,1.59-.68,1.76-.03.14-.14.51-.24.81-.54,1.4-1.05,2.78-1.4,3.59-.22.49-.38,1-.38,1.16s-.16.68-.38,1.13c-.41.92-5.62,14.88-5.78,15.58-.19.62-.16,1.94.03,2.78.3,1.43.19,1.27,12.39,14.45,1.84,1.97,3.7,4.08,4.13,4.67,1,1.3,2.11,1.92,3.46,1.92,1.22.03,2.13-.81,7.29-6.51,1.67-1.84,4.67-5.1,6.67-7.29,5.37-5.81,5.62-6.18,5.86-8.42.08-.92-.05-1.73-.54-2.97-.38-.95-.76-1.97-.86-2.27-.14-.3-.24-.68-.27-.81-.05-.16-.49-1.38-1.03-2.7-.97-2.57-2.19-5.86-2.21-6.08-.03-.08-.22-.57-.46-1.11s-.51-1.27-.59-1.62c-.11-.35-.35-1.08-.57-1.59-.35-.92-.73-1.89-.81-2.16-.05-.19-.38-1.03-.86-2.3-.22-.59-.57-1.49-.78-1.97s-.38-1-.38-1.16-.16-.68-.38-1.13c-.38-.89-.97-2.4-1.62-4.19-.22-.54-.7-1.86-1.08-2.94-.54-1.43-.68-2.05-.46-2.43.22-.41.46-.97.7-1.7.03-.08.11-.32.22-.54.08-.22.41-1.13.7-2.03.32-.89.68-1.86.81-2.16.22-.46.54-1.3.7-1.76.03-.08.11-.32.22-.54.08-.22.41-1.13.7-2.03.32-.89.68-1.86.81-2.16.22-.49.57-1.35.7-1.76.03-.08.14-.49.27-.89.27-.97.59-.84,1.32.49.32.59.89,1.57,1.3,2.16.38.59,1,1.59,1.32,2.19.35.62,1.92,3.21,3.48,5.78s3.13,5.16,3.48,5.78c.32.59.95,1.59,1.32,2.19.41.59,1,1.62,1.35,2.3.38.68.95,1.59,1.3,2.08.35.46.65.92.65,1s.54,1,1.22,2.05,1.22,1.97,1.22,2.08c0,.08.16.38.38.59.32.38.76,1.11,1.89,3.13.16.3.54.89.81,1.3.3.43.73,1.11.95,1.54.35.59,7.24,11.99,9.94,16.42.35.54.81,1.38,1.05,1.86s.59,1,.81,1.19c.22.16.38.41.38.54s.54,1.08,1.22,2.13,1.22,1.97,1.22,2.08c0,.08.27.54.62,1s.92,1.38,1.3,2.05c.35.68.89,1.57,1.22,2.03.32.43.65,1,.73,1.22.11.22.46.84.78,1.38,1.78,2.84,6.4,10.48,7.07,11.69.43.76,1.03,1.73,1.35,2.19.32.43.89,1.4,1.24,2.13,1.13,2.24,2.81,3.89,4.4,4.35,1.78.49,10.37.54,11.48.05,2.35-1,4.02-3.62,3.73-5.78-.16-1.3-.51-2.03-1.51-3.13-1.27-1.46-2-1.67-6.05-1.81l-3.75-.14-.51-.89c-.59-1.08-.49-.89-5.89-9.77-2.46-4.05-4.64-7.67-4.86-8.07-.49-.81-3.38-5.59-3.86-6.35-1.81-2.92-2.62-4.24-2.62-4.4,0-.08-.16-.38-.38-.59-.32-.38-.76-1.11-1.89-3.13-.16-.3-.54-.89-.81-1.3-.3-.43-.73-1.11-.95-1.54-.24-.41-2.43-4.05-4.89-8.1-2.46-4.02-4.75-7.83-5.1-8.45-.86-1.54-3.48-5.83-4.1-6.72-.3-.41-.51-.81-.51-.92,0-.08-.27-.54-.59-1-.35-.49-.78-1.13-.95-1.46-.19-.35-.51-.89-.68-1.24-.19-.32-.59-.97-.92-1.4-.3-.46-.65-1-.73-1.22-.11-.22-.46-.84-.78-1.4-.35-.54-2.43-3.94-4.62-7.56-2.19-3.59-4.1-6.75-4.24-6.97s-.73-1.19-1.27-2.13c-.57-.95-1.3-2.16-1.65-2.7-.32-.54-.84-1.4-1.13-1.92s-.7-1.19-.89-1.46c-.16-.3-.73-1.16-1.19-1.94-1.7-2.75-5.21-3.35-7.16-1.24-.41.43-1.32,2.4-2.19,4.78-.81,2.21-1.65,4.4-1.84,4.86-.19.43-.35.86-.38.95s-.11.32-.22.54c-.08.22-.41,1.13-.7,2.03-.32.89-.68,1.86-.81,2.16-.32.7-.62,1.54-.7,1.89-.08.3-1,2.62-1.65,4.13-.46,1.03-.81.95-1.05-.3-.11-.46-.27-1-.38-1.13-.08-.16-.16-.32-.19-.41-.03-.14-.11-.41-.81-2.24-.22-.54-.54-1.46-.76-2.03-.51-1.32-.78-2.05-.84-2.21-.03-.08-.14-.38-.24-.68s-.38-.97-.57-1.49-.54-1.43-.76-2.03c-.62-1.62-.81-2.13-.86-2.43-.05-.16-.59-1.59-1.24-3.19-.89-2.3-1.35-3.08-2.05-3.62-1.11-.84-3.27-1.08-4.54-.51ZM384.64,363.31c.16.81.68,2.16,1.22,3.21.14.27.24.62.24.81.03.19.24.84.54,1.43s.51,1.22.54,1.4c0,.19.16.73.38,1.22.32.76.62,1.51.84,2.11.03.08.14.38.24.68,1.43,3.78,2.03,5.43,2.05,5.67,0,.08.24.68.54,1.35s.54,1.27.54,1.35c.05.35.32,1.16.65,1.76.3.62.27.81-.22,1.54-.86,1.3-8.07,8.86-8.42,8.86-.19,0-.7-.49-1.19-1.08-.46-.59-1.67-1.94-2.65-2.97-4.59-4.81-4.97-5.27-4.78-5.75.11-.24.22-.59.24-.73.05-.16.16-.46.24-.68.35-.84,2.13-5.54,2.19-5.81.05-.16.22-.65.41-1.08.16-.46.51-1.35.76-2.03.22-.68.59-1.62.81-2.13.22-.49.43-1.05.49-1.22.03-.16.14-.54.24-.84.43-1.16.92-2.48,1.32-3.51.43-1.16.78-2.08.86-2.3.08-.24.46-1.19.76-1.94.38-.89.86-.59,1.16.68ZM403.24,403.46c-.59.14-1.27.27-1.49.35-.22.05-.92.22-1.54.32-1.22.22-1.35.32-6.97,7.02-1.13,1.32-2.97,3.54-4.13,4.89-1.13,1.35-3.11,3.7-4.37,5.24-6.7,8.05-10.96,13.04-14.04,16.39-1.57,1.7-2.97,3.32-3.11,3.62-.16.3-1.86,2.11-3.78,4.05-4.97,5-7.61,6.7-10.42,6.72-2.67,0-3.73-1.57-3.35-4.97.19-1.97.35-2.13,2.24-2.43.65-.08,1.38-.27,1.62-.41s1.49-.62,2.73-1.11c4.51-1.76,8.1-4.35,9.23-6.67.38-.78.65-1.89.7-2.73.05-1.35-.03-1.51-.97-2.46-1.16-1.16-2.43-1.49-4.7-1.22-2.62.3-5.1,1.32-7.88,3.19-1.78,1.22-7.18,6.48-7.99,7.83-.84,1.38-8.37,8.78-10.07,9.91-2.46,1.62-3.94,1.32-3.56-.73.24-1.16.65-1.94,2.92-5.24,3.7-5.45,4.16-6.13,4.59-7.05,1.19-2.48,1.46-3.94,1.03-5.51-.35-1.3-1.08-2.11-2.24-2.54-.62-.24-1.05-.16-2.57.51-1.59.73-2.38,1.38-6.45,5.56-2.57,2.59-4.67,4.67-4.67,4.59,0-.05.32-.76.7-1.54.89-1.76,1.19-2.86,1.35-5.1.14-1.54.08-1.86-.49-2.7-1.24-1.84-3.65-1.84-6.32,0-1.57,1.11-5.16,4.73-7.07,7.16-.84,1.03-1.54,1.94-1.59,2s-.16.05-.24-.05c-.08-.08.03-.49.24-.92.38-.68.62-1.24.89-2.11,1.19-3.54.46-6.83-1.59-7.32-1.16-.27-1.67-.19-3.43.59-1.19.54-2.35,1.57-5.75,5.05-4.29,4.35-6.08,6.56-5.67,6.94.38.38,1.4-.22,1.97-1.13.84-1.4,8.53-9.02,9.75-9.64,1.32-.7,2.19-.73,2.75-.08.41.43.38.59-.41,2.08-.46.89-3.35,5.43-6.45,10.07-3.11,4.67-5.64,8.59-5.64,8.75,0,.19.7.24,2.24.11,1.22-.11,2.43-.19,2.67-.19.27,0,.73-.38,1.08-.84.57-.81,1.57-2.03,5.94-7.32,2.92-3.54,8.15-9.18,10.04-10.88,1.92-1.73,3.62-2.59,4.29-2.21,1.08.59.35,2.3-3.43,7.91-1.27,1.89-2.32,3.48-2.32,3.56s-.35.59-.81,1.16c-.43.57-.81,1.11-.81,1.22s-.38.65-.81,1.22c-.46.57-.81,1.11-.81,1.22s-.35.65-.81,1.22c-.43.57-.81,1.11-.81,1.22s-.35.65-.81,1.22c-.43.57-.81,1.16-.81,1.32,0,.32,1.78.38,3.94.14,1.24-.16,1.49-.3,2.3-1.38.51-.68,1.67-2.11,2.62-3.19.92-1.11,1.67-2.08,1.67-2.19,0-.08.84-1.11,1.84-2.24s2.16-2.51,2.59-3.08c1.35-1.84,7.99-8.29,9.13-8.86,2.08-1.05,3.11-.03,1.73,1.78-.38.49-.7.97-.7,1.08,0,.08-.7,1-1.54,2.03-2.86,3.43-4.59,5.97-5.29,7.78-.68,1.73-.59,5.24.16,6.78.89,1.78,2.67,2.51,4.37,1.78,1.94-.84,6.97-5.29,10.56-9.37l1.59-1.81v2.48c0,4.27,1.49,7.21,4.24,8.48,1.78.81,5,.57,7.02-.54,2.92-1.59,8.69-6.78,11.04-9.96.51-.68,1.78-2.21,2.81-3.4,2.57-2.92,3.29-3.19,1.38-.46-1.35,1.89-3.75,6.78-4.08,8.26-.65,2.89.27,5.4,2.3,6.26.89.35,2.67.41,3.51.05,2.38-.95,8.24-6.24,11.93-10.8,3.46-4.24,6.35-6.86,4.16-3.78-1.35,1.92-3.75,6.78-4.08,8.26-.43,1.84-.14,4.05.65,5.02,1.43,1.76,3.7,2.05,6.1.86,1.73-.86,5.75-4.46,8.83-7.91,2.32-2.59,3.38-3.4,2.62-2-.22.38-.27,1.57-.16,3.43.11,2.46.24,3.08.89,4.32,2.3,4.4,7.53,3.67,13.34-1.86l1.76-1.67,1.89-.05c1.05-.03,2.03-.14,2.16-.22.16-.08.62-.22,1.05-.32,1.94-.49,4.13-2.38,8.26-7.26,1.54-1.84,2.16-2.38,2.16-1.94,0,.08-.54.97-1.22,2.03s-1.22,1.94-1.22,2.03c0,.05-.38.73-.84,1.51-.43.76-1.11,2.27-1.46,3.35-.59,1.84-.62,2.11-.3,3.62.51,2.54,2.21,3.97,4.43,3.7,2.16-.24,4.05-1.43,7.24-4.54l3.02-2.94.08,2.27c.08,1.86.22,2.43.78,3.21,1.22,1.81,2.67,2.27,5.4,1.7,2.48-.51,4.29-1.54,8.78-4.97,1.46-1.11,1.67-1.19,3.48-1.24,3.19-.14,4.67-.81,7.26-3.4,1.73-1.73,2.24-2.67,1.43-2.67-.22,0-1.16.78-2.11,1.73-2.08,2.08-4.08,3.16-5.91,3.19-.73.03-1.4-.05-1.51-.14-.08-.11.14-.54.51-.95,1.19-1.24,3.38-4.54,4.37-6.45,1.4-2.81,1.54-3.19,1.7-5.29.11-1.38.05-1.67-.49-2.24-.59-.65-1.62-.84-2.54-.49-.73.3-1.46,2.13-1.76,4.48-.46,3.89-1.08,6.02-2.43,8.32-.43.76-.81,1.49-.81,1.62,0,.16-1.19,1.46-2.65,2.92-3.11,3.08-5.37,4.4-7.97,4.59-1.35.11-1.65.03-2.24-.51-.35-.32-.65-.89-.65-1.24,0-.81,1.16-3.21,2.78-5.7.7-1.08,1.27-2,1.27-2.05s.65-1.08,1.43-2.27c1.97-2.97,1.92-2.89,3.46-5.45.76-1.27,1.62-2.59,1.89-2.94.95-1.19.73-1.32-1.97-1.3l-2.46.03-1.24,1.92c-.68,1.03-1.3,2-1.38,2.16-.08.14-.76,1.16-1.49,2.27-.76,1.11-1.49,2.24-1.65,2.51-1.08,1.84-5.37,6.8-8.02,9.32-3.29,3.11-6.1,4.16-7.07,2.67-.35-.51-.38-.78-.14-1.22.16-.32.22-.57.14-.57-.11,0,.08-.35.38-.78.32-.43.57-.86.57-.97,0-.19,2.7-4.78,3.51-5.94.38-.54,1.92-3.05,2.57-4.13.16-.27.54-.86.89-1.32.32-.46.59-.92.59-1.03s.38-.65.81-1.22c.46-.57.81-1.11.81-1.22,0-.14.3-.62.68-1.11,1.08-1.4.97-1.49-1.94-1.35l-2.65.11-4.02,4.13c-2.21,2.3-4.64,4.94-5.43,5.91s-1.84,2.13-2.35,2.59c-1.84,1.62-5.16,2.81-6.24,2.21-.49-.24-.49-.27,0-.84,1.22-1.38,3.16-5.05,3.46-6.53.57-2.81.16-5.21-1.11-6.62-1.49-1.62-3.67-2.08-6.72-1.38-3.62.86-8.88,4.64-12.42,8.96-2.59,3.16-9.86,10.45-11.61,11.64-2.13,1.46-3.89,1.73-4.59.68-.38-.59-.41-.86-.16-1.62.41-1.16,1.11-2.57,1.86-3.62.32-.46.59-.92.59-1.03,0-.08.3-.57.68-1.05s.68-.95.68-1.03.65-1.13,1.43-2.3c.76-1.19,1.54-2.32,1.67-2.57.16-.24.89-1.32,1.62-2.43.76-1.08,1.4-2.11,1.49-2.24.08-.16,2.21-3.38,4.73-7.16,2.54-3.78,4.64-7.02,4.7-7.16.05-.16.46-.7.86-1.24.43-.54.78-1.08.78-1.19s.38-.65.81-1.22c.46-.57.81-1.11.81-1.22s.38-.65.81-1.22c.46-.57.81-1.11.81-1.22s.38-.65.81-1.22c.46-.57.81-1.11.81-1.22s.38-.65.81-1.22c.46-.57.81-1.11.81-1.22s.38-.65.81-1.22c.46-.57.81-1.11.81-1.24,0-.11.19-.43.46-.7.59-.68.43-.73-1.13-.46-.73.14-1.65.3-2.03.38-1.32.22-1.84.54-2.75,1.76-.51.68-1,1.4-1.11,1.62s-.84,1.32-1.67,2.43c-1.84,2.51-2.75,3.83-4.78,6.75-.86,1.27-2.19,3.13-2.94,4.19-.73,1.03-1.78,2.51-2.3,3.29-.51.76-1.11,1.54-1.32,1.7-.22.19-.41.46-.41.62,0,.14-.43.78-.95,1.43-.51.62-.95,1.22-.95,1.32,0,.22-4,4.81-7.4,8.48-1.46,1.57-2.92,3.29-3.27,3.81-.86,1.3-8.05,8.32-9.8,9.59-1.89,1.32-3.78,1.62-4.46.65-.27-.38-.38-.86-.27-1.3.24-1.11,1.16-3.05,1.86-4,.35-.46.65-.92.65-1,0-.3,1.76-2.81,3.78-5.45,1.11-1.43,2.38-3.13,2.81-3.73.43-.62,1.08-1.49,1.49-1.97.38-.46,1.3-1.67,2.05-2.7.73-1,1.86-2.46,2.48-3.24.65-.76,1.16-1.46,1.16-1.59,0-.11.54-.84,1.22-1.62.68-.76,1.22-1.49,1.22-1.62,0-.11.54-.84,1.22-1.62.68-.76,1.22-1.49,1.22-1.59,0-.08.57-.86,1.3-1.76.7-.86,1.81-2.32,2.48-3.24.68-.89,1.76-2.35,2.43-3.24s1.76-2.35,2.43-3.24,1.78-2.35,2.51-3.27c.7-.89,1.27-1.76,1.27-1.89s-.03-.22-.05-.22c-.05.03-.57.14-1.16.24ZM363.58,431.7c.73,1.08.16,3-1.54,5.29-.76,1-1.46,1.84-1.57,1.84-.08,0-.81.51-1.59,1.16-2.32,1.92-7.1,4.05-7.72,3.43-.41-.41,2.16-5.05,4.05-7.29,3.73-4.43,7.18-6.26,8.37-4.43ZM422.01,431.79c1.73,1.19,2,3.43.86,7.18-1.08,3.59-4.89,8.67-8.15,10.91-3.43,2.35-4.78,2.67-6.18,1.49-.81-.68-.81-.73-.73-2.62.22-3.94,2.32-8.45,6.08-12.96,1.92-2.3,3.7-3.75,5.35-4.35,1.13-.43,1.78-.35,2.78.35Z" style="fill:blue;"/></svg>