<?xml version="1.0" encoding="UTF-8"?><svg id="a" xmlns="http://www.w3.org/2000/svg" viewBox="0 0 5000 5000"><path d="M4990,10v4980H10V10h4980M5000,0H0v5000h5000V0h0Z" style="fill:#f1f2f2;"/><path d="M706.55,4561.53c-8.91,0-17.18,4.82-21.58,12.57l-99.63,175.55c-4.34,7.65-4.29,17.13.14,24.74,4.43,7.6,12.65,12.33,21.45,12.33h199.26c8.8,0,17.02-4.73,21.45-12.33,4.43-7.61,4.48-17.09.14-24.74l-99.63-175.55c-4.4-7.75-12.67-12.57-21.58-12.57h0ZM163.28,4531.49c25.71,32.74,17.57,68.12.56,95.51-17.96,28.91-25.87,73.39-2.48,97.75M205.73,4531.49c25.71,32.74,17.57,68.12.56,95.51-17.96,28.91-25.87,73.39-2.48,97.75M248.19,4531.49c25.71,32.74,17.57,68.12.56,95.51-17.96,28.91-25.87,73.39-2.48,97.75M290.64,4531.49c25.71,32.74,17.57,68.12.56,95.51-17.96,28.91-25.87,73.39-2.48,97.75M333.09,4531.49c25.71,32.74,17.57,68.12.56,95.51-17.96,28.91-25.87,73.39-2.48,97.75M375.54,4531.49c25.71,32.74,17.57,68.12.56,95.51-17.96,28.91-25.87,73.39-2.48,97.75" style="fill:none; stroke:#bcbec0; stroke-linecap:round; stroke-miterlimit:10; stroke-width:18.33px;"/><path d="M719.61,4631.8l-3.94,76.23c0,5.04-4.08,9.12-9.12,9.12s-9.12-4.08-9.12-9.12l-3.94-76.23c-.32-7.21,5.27-13.32,12.48-13.64,7.21-.32,13.32,5.27,13.64,12.48.02.38.02.77,0,1.15ZM706.55,4725.61c-7.73,0-14,6.27-14,14s6.27,14,14,14,14-6.27,14-14c0-7.73-6.27-14-14-14h0,0ZM430.81,4785.64v-19.88c0-4.43-3.59-8.03-8.03-8.03H117.8c-4.43,0-8.03,3.59-8.03,8.03v19.88c0,4.43,3.59,8.03,8.03,8.03h304.98c4.43,0,8.03-3.59,8.03-8.03ZM109.78,4891.86v-51.6h10.42v20.31h20.41v-20.31h10.42v51.6h-10.42v-22.56h-20.41v22.56h-10.42ZM159.47,4866.38c-.52-15.44,9.29-27.49,24.95-27,7.6,0,13.68,2.36,18.25,7.07,4.56,4.72,6.85,11.27,6.85,19.67.2,15.82-9.27,26.68-24.95,26.61-15.7.1-25.28-10.59-25.09-26.36ZM170.2,4866.03c0,5.84,1.35,10.27,4.05,13.29,5.02,6.01,15.49,6.04,20.5.04,5.26-5.17,5.35-21.49.11-26.7-2.59-2.91-6.04-4.36-10.33-4.36-9.94.18-14.42,7.42-14.32,17.74ZM229.04,4891.86v-42.87h-15.31v-8.73h41v8.73h-15.28v42.87h-10.42ZM278.41,4875.07l10.14-.99c1.18,6.58,4.67,9.86,11.26,9.89,3.36,0,5.88-.71,7.58-2.13,2.59-2.05,3.47-5.6,1.48-8.09-3.25-2.92-5.69-2.63-12.09-4.49-5.58-1.38-9.5-3.09-11.76-5.1-5.22-4.48-6.28-12.08-2.52-17.76,5.75-9.13,24.19-8.81,31.22-2.76,3.27,2.84,4.99,6.63,5.16,11.37l-10.42.46c-.99-5.57-3.79-7.41-9.47-7.46-4.08.13-8.5.96-8.76,5.07.35,4.31,4.89,4.84,11.12,6.58,8.22,2.23,12.81,2.93,16.95,8.96,4.57,7.38,1.35,19.11-7.37,22.28-6.99,3.05-20.99,2.56-26.26-2.64-3.5-3.02-5.59-7.41-6.27-13.18ZM328.84,4840.27h10.42v27.95c.33,7.36-.83,9.75,3.57,13.71,4.65,3.47,15.41,2.53,16.28-4.35.88-4.92.3-31.48.46-37.31,0,0,10.42,0,10.42,0-.28,7.94.69,33.77-.85,40.23-1.99,9.01-9.92,12.39-19.11,12.25-7.97-.07-12.8-1.14-17.25-6.14-1.48-1.82-2.45-3.73-2.92-5.72-.68-2.96-1.02-7.32-1.02-13.09v-27.52ZM380.79,4891.86v-51.6h21.93c5.51,0,9.52.46,12.02,1.39,5.26,1.91,8.32,7.43,8.25,13.07-.04,8.3-5.19,13.2-13.62,14.36,5.96,3.64,7.03,5.8,11.51,12.71,0,0,6.3,10.07,6.3,10.07h-12.46c-2.68-3.89-10.75-16.42-13.02-18.81-2.7-3.06-6.23-2.7-10.49-2.73,0,0,0,21.54,0,21.54h-10.42ZM391.2,4862.09c3.9-.02,15.29.19,17.07-.63,4.15-1.14,5.16-7.26,2.59-10.26-.93-1.07-2.23-1.74-3.92-2.02-.84-.12-3.38-.18-7.6-.18h-8.13v13.09ZM432.66,4891.86v-51.6h35.37v8.73h-24.95v12.21h21.54v8.73h-21.54v21.93h-10.42ZM518.95,4891.86h-11.33l-4.5-11.72h-20.62l-4.26,11.72h-11.05l20.1-51.6h11.02l20.66,51.6ZM499.77,4871.45l-7.11-19.15-6.97,19.15h14.08ZM557.28,4872.89l10.1,3.2c-1.55,5.63-4.12,9.81-7.73,12.55-3.6,2.73-8.17,4.1-13.71,4.1-14.64.02-23.79-11.32-23.51-26.22-.23-15.77,8.62-27.13,24.14-27.14,10.46.1,17.89,4.94,20.66,15.1,0,0-10.31,2.46-10.31,2.46-1.67-9.43-14.52-11.48-20.18-4.54-2.38,2.75-3.57,7.19-3.57,13.34,0,6.52,1.17,11.17,3.52,13.94,3.75,4.76,11.75,5.67,16.3,1.51,1.99-1.76,3.43-4.53,4.29-8.31ZM576.1,4891.86v-51.6h38.26v8.73h-27.84v11.44h25.9v8.69h-25.9v14.04h28.82v8.69h-39.24ZM643.74,4840.27h19.04c7.96.08,12.53.67,17.6,5.74,9.04,9.43,9.08,31.48-.49,40.65-4.36,4-9.67,5.24-16.54,5.21,0,0-19.6,0-19.6,0v-51.6ZM654.16,4848.99v34.17h7.78c6.88.04,11.26-.82,13.23-7.62,1.57-6.43,2.22-18.74-2.96-23.63-4.22-3.98-11.4-2.65-18.06-2.92ZM693.5,4866.38c-.52-15.44,9.29-27.49,24.95-27,7.6,0,13.68,2.36,18.25,7.07,4.56,4.72,6.85,11.27,6.85,19.67.2,15.82-9.27,26.68-24.95,26.61-15.7.1-25.28-10.59-25.09-26.36ZM704.23,4866.03c0,5.84,1.35,10.27,4.05,13.29,5.02,6.01,15.49,6.04,20.5.04,5.26-5.17,5.35-21.49.11-26.7-2.59-2.91-6.04-4.36-10.33-4.36-9.94.18-14.42,7.42-14.32,17.74ZM771.38,4891.86v-51.6h10.14l21.12,34.46v-34.46h9.68v51.6h-10.45l-20.8-33.65v33.65h-9.68ZM821,4866.38c-.52-15.44,9.29-27.49,24.95-27,7.6,0,13.68,2.36,18.25,7.07,4.56,4.72,6.85,11.27,6.85,19.67.2,15.82-9.27,26.68-24.95,26.61-15.7.1-25.28-10.59-25.09-26.36ZM831.73,4866.03c0,5.84,1.35,10.27,4.05,13.29,5.02,6.01,15.49,6.04,20.5.04,5.26-5.17,5.35-21.49.11-26.7-2.59-2.91-6.04-4.36-10.33-4.36-9.94.18-14.42,7.42-14.32,17.74ZM890.58,4891.86v-42.87h-15.31v-8.73h41v8.73h-15.28v42.87h-10.42ZM954.2,4891.86v-42.87h-15.31v-8.73h41v8.73h-15.28v42.87h-10.42ZM982.98,4866.38c-.52-15.44,9.29-27.49,24.95-27,7.6,0,13.68,2.36,18.25,7.07,4.56,4.72,6.85,11.27,6.85,19.67.2,15.82-9.27,26.68-24.95,26.61-15.7.1-25.28-10.59-25.09-26.36ZM993.72,4866.03c0,5.84,1.35,10.27,4.05,13.29,5.02,6.01,15.49,6.04,20.5.04,5.26-5.17,5.35-21.49.11-26.7-2.59-2.91-6.04-4.36-10.33-4.36-9.94.18-14.42,7.42-14.32,17.74ZM1040.88,4840.27h10.42v27.95c.33,7.36-.83,9.75,3.57,13.71,4.65,3.47,15.41,2.53,16.28-4.35.88-4.92.3-31.48.46-37.31,0,0,10.42,0,10.42,0-.28,7.94.69,33.77-.85,40.23-1.99,9.01-9.92,12.39-19.11,12.25-7.97-.07-12.8-1.14-17.25-6.14-1.48-1.82-2.45-3.73-2.92-5.72-.68-2.96-1.02-7.32-1.02-13.09v-27.52ZM1125.8,4872.89l10.1,3.2c-1.55,5.63-4.12,9.81-7.73,12.55-3.6,2.73-8.17,4.1-13.71,4.1-14.64.02-23.79-11.32-23.51-26.22-.23-15.77,8.62-27.13,24.14-27.14,10.46.1,17.89,4.94,20.66,15.1,0,0-10.31,2.46-10.31,2.46-1.67-9.43-14.52-11.48-20.18-4.54-2.38,2.75-3.57,7.19-3.57,13.34,0,6.52,1.17,11.17,3.52,13.94,3.75,4.76,11.75,5.67,16.3,1.51,1.99-1.76,3.43-4.53,4.29-8.31ZM1144.66,4891.86v-51.6h10.42v20.31h20.41v-20.31h10.42v51.6h-10.42v-22.56h-20.41v22.56h-10.42ZM1200.26,4878.56l-2.57-26.18v-12.11h10.7v12.11l-2.53,26.18h-5.6ZM1198.11,4891.86v-9.89h9.89v9.89h-9.89ZM4262.77,4797.79c24.48.59,29.92,21.55,30.2,47.53-.3,25.87-5.68,46.92-30.2,47.46-24.5-1.02-30.09-20.57-30.2-47.65.3-25.77,5.72-46.81,30.2-47.34ZM4262.77,4812.57c-12.24.27-11.14,19.12-11.55,32.74.34,13.97-.56,32.34,11.55,32.68,12.22-.27,11.14-19.04,11.55-32.68-.33-13.97.54-32.36-11.55-32.74ZM4335.56,4797.79c24.48.59,29.92,21.55,30.2,47.53-.3,25.87-5.68,46.92-30.2,47.46-24.5-1.02-30.09-20.57-30.2-47.65.3-25.77,5.72-46.81,30.2-47.34ZM4335.56,4812.57c-12.24.27-11.14,19.12-11.55,32.74.34,13.97-.56,32.34,11.55,32.68,12.22-.27,11.14-19.04,11.55-32.68-.33-13.97.54-32.36-11.55-32.74ZM4370.86,4891.19l24.3-34.71-23.29-32.68h21.76l11.93,18.53,12.56-18.53h20.94l-22.84,31.92,24.94,35.47h-21.89l-13.7-20.88-13.83,20.88h-20.88ZM4546.14,4797.79c24.48.59,29.92,21.55,30.2,47.53-.3,25.87-5.68,46.92-30.2,47.46-24.5-1.02-30.09-20.57-30.2-47.65.3-25.77,5.72-46.81,30.2-47.34ZM4546.14,4812.57c-12.24.27-11.14,19.12-11.55,32.74.34,13.97-.56,32.34,11.55,32.68,12.22-.27,11.14-19.04,11.55-32.68-.33-13.97.54-32.36-11.55-32.74ZM4618.94,4797.79c24.48.59,29.92,21.55,30.2,47.53-.3,25.87-5.68,46.92-30.2,47.46-24.5-1.02-30.09-20.57-30.2-47.65.3-25.77,5.72-46.81,30.2-47.34ZM4618.94,4812.57c-12.24.27-11.14,19.12-11.55,32.74.34,13.97-.56,32.34,11.55,32.68,12.22-.27,11.14-19.04,11.55-32.68-.33-13.97.54-32.36-11.55-32.74ZM4661.46,4823.8h16.43v9.2c10.13-13.5,31.69-15.2,40.04,0,7.98-10.5,22.03-13.86,33.12-7.71,8.19,5.35,9.45,11.52,9.52,22.81,0,0,0,43.08,0,43.08h-17.83v-38.52c0-6.68-.61-11-1.84-12.94-5-7.43-17.36-3.15-19.42,5.17-2.61,7.28-1.07,37.52-1.46,46.29,0,0-17.83,0-17.83,0v-36.93c0-6.56-.32-10.79-.95-12.69-1.84-6.85-10.82-6.85-15.8-3.43-6.29,4.83-5.8,10.53-6.15,20.31,0,0,0,32.74,0,32.74h-17.83v-67.39ZM4769.73,4823.8h16.43v9.2c10.13-13.5,31.69-15.2,40.04,0,7.98-10.5,22.03-13.86,33.12-7.71,8.19,5.35,9.45,11.52,9.52,22.81,0,0,0,43.08,0,43.08h-17.83v-38.52c0-6.68-.61-11-1.84-12.94-5-7.43-17.36-3.15-19.42,5.17-2.61,7.28-1.07,37.52-1.46,46.29,0,0-17.83,0-17.83,0v-36.93c0-6.56-.32-10.79-.95-12.69-1.84-6.85-10.82-6.85-15.8-3.43-6.29,4.83-5.8,10.53-6.15,20.31,0,0,0,32.74,0,32.74h-17.83v-67.39ZM4158.36,4867.39l17.68-1.83c.51,4,2,7.17,4.48,9.51,2.49,2.34,5.35,3.51,8.59,3.51,3.71,0,6.84-1.51,9.41-4.52,2.57-3.01,3.85-7.55,3.85-13.61,0-5.68-1.27-9.95-3.82-12.79-2.55-2.84-5.86-4.26-9.95-4.26-5.09,0-9.66,2.25-13.7,6.76l-14.4-2.09,9.1-48.19h46.93v16.61h-33.47l-2.78,15.73c3.96-1.98,8-2.97,12.13-2.97,7.87,0,14.55,2.86,20.02,8.59,5.47,5.73,8.21,13.16,8.21,22.29,0,7.62-2.21,14.42-6.63,20.4-6.02,8.17-14.38,12.25-25.07,12.25-8.55,0-15.52-2.3-20.91-6.89-5.39-4.59-8.61-10.76-9.66-18.5ZM4442.14,4867.39l17.68-1.83c.51,4,2,7.17,4.48,9.51,2.49,2.34,5.35,3.51,8.59,3.51,3.71,0,6.84-1.51,9.41-4.52,2.57-3.01,3.85-7.55,3.85-13.61,0-5.68-1.27-9.95-3.82-12.79-2.55-2.84-5.86-4.26-9.95-4.26-5.09,0-9.66,2.25-13.7,6.76l-14.4-2.09,9.1-48.19h46.93v16.61h-33.47l-2.78,15.73c3.96-1.98,8-2.97,12.13-2.97,7.87,0,14.55,2.86,20.02,8.59,5.47,5.73,8.21,13.16,8.21,22.29,0,7.62-2.21,14.42-6.63,20.4-6.02,8.17-14.38,12.25-25.07,12.25-8.55,0-15.52-2.3-20.91-6.89-5.39-4.59-8.61-10.76-9.66-18.5ZM1923.81,4772.58l-35.53-7.24c-3.42,15.83-11.96,30.86-21.44,38.74-17.39,15.09-46.92,15.36-66.74,3.01-22.95-14.32-28.06-41.75-28.51-69.57.35-23.58,5.85-50.74,26.28-64.82,16.28-12.37,50.04-14.51,66.8-1.18,8.05,6.06,16.34,19.05,20.69,32.7l35.18-7.1c-10.02-41.79-42.4-68.01-86.01-67.39-89.69.66-119.15,89.73-89.27,164.04,16.39,37.92,46.1,54.96,88.85,54.85,45.4.09,78.37-28.19,89.69-76.04ZM2095.56,4643.66c-38.26-23.38-96.69-17.38-126.33,15.94-30.03,29.91-37.52,93.41-16.3,134.82,24.26,52.07,91.91,68.59,140.97,41.12,66.74-36.15,67.1-154.05,1.67-191.88ZM2106.62,4739.31c0,24.63-6.13,43.79-18.22,56.94-22.49,26.15-69.03,26.32-91.81.18-26.11-24.5-23.03-95.27.63-115.83,20.29-20.44,54.88-24.09,78.94-8.78,22.5,14.47,30.34,39.82,30.46,67.49ZM2273.7,4795.08l-54.03-161.91s-48.72,0-48.72,0v212h35.61v-147.3l50.04,147.3h31.15l50.34-145v145h35.61v-212h-44.41l-55.6,161.91ZM2564.8,4707.26l33.44-9.17c-3.41-14.91-9.49-29.98-17.42-39.61-28.23-34.73-89.97-35.65-126.98-15.76-66.99,36.36-68.32,157.87,1.35,192.58,46.19,24.17,102.44,14.06,145.03-20.81v-82.31l-95.47.15v33.54h59.44v30.45c-24.87,18.56-60.77,24.87-89.72,10.02-25.41-13.1-33.49-38.04-33.68-67.86.27-29.19,10.12-59.16,39.04-70.84,15.03-6.4,39.91-7.36,55.77-.28,16.89,7.32,21.83,18.45,29.18,39.9ZM2757.02,4750.55c29.2-7.07,47.77-27.8,47.81-57.3.26-22.7-12.68-46.31-34.03-54.3-10.04-3.89-24.07-5.78-42.87-5.78h-94.55v212h36.58v-89.78c7.34.14,34.94-.51,39.92.84,10.09,2.81,15.17,7.32,23.02,17.14,10.64,13.13,36.62,55.35,47.23,71.8,0,0,45.32,0,45.32,0l-40.02-62.61c-7.18-11.05-18.13-24.36-28.39-32.01ZM2762.83,4708.73c-8.42,12.4-22.97,13.31-40.28,13.68,0,0-52.6,0-52.6,0v-57.06h59.08c13.68,0,23.65,2.69,29.63,8,10.13,8.47,11.46,24.45,4.17,35.38ZM2986.61,4643.66c-38.26-23.38-96.69-17.38-126.33,15.94-30.03,29.91-37.52,93.41-16.3,134.82,24.26,52.07,91.91,68.59,140.97,41.12,66.74-36.15,67.1-154.05,1.67-191.88ZM2997.67,4739.31c0,24.63-6.13,43.79-18.22,56.94-22.49,26.15-69.03,26.32-91.81.18-26.11-24.5-23.03-95.27.63-115.83,20.29-20.44,54.88-24.09,78.94-8.78,22.5,14.47,30.34,39.82,30.46,67.49ZM3278.61,4633.18l-37.36,153.22-41.53-153.22h-39.71l-43.33,155.54c1.55.6-35.93-155.54-35.93-155.54h-37.73s56.25,212,56.25,212h34.81l45.28-162.75,45.03,162.75h33.27l58.13-212h-37.19Z" style="fill:#bcbec0;"/></svg>