<?xml version="1.0" encoding="UTF-8"?><svg id="a" xmlns="http://www.w3.org/2000/svg" viewBox="0 0 3000 3000"><path d="M2994,6v2988H6V6h2988M3000,0H0v3000h3000V0h0Z" style="fill:#f1f2f2;"/><path d="M423.93,2736.92c-5.35,0-10.31,2.89-12.95,7.54l-59.78,105.33c-2.61,4.59-2.57,10.28.08,14.84,2.66,4.56,7.59,7.4,12.87,7.4h119.56c5.28,0,10.21-2.84,12.87-7.4,2.66-4.56,2.69-10.25.08-14.84l-59.78-105.33c-2.64-4.65-7.6-7.54-12.95-7.54h0ZM97.97,2718.89c15.43,19.65,10.54,40.87.34,57.31-10.77,17.35-15.52,44.03-1.49,58.65M123.44,2718.89c15.43,19.65,10.54,40.87.34,57.31-10.77,17.35-15.52,44.03-1.49,58.65M148.91,2718.89c15.43,19.65,10.54,40.87.34,57.31-10.77,17.35-15.52,44.03-1.49,58.65M174.38,2718.89c15.43,19.65,10.54,40.87.34,57.31-10.77,17.35-15.52,44.03-1.49,58.65M199.85,2718.89c15.43,19.65,10.54,40.87.34,57.31-10.77,17.35-15.52,44.03-1.49,58.65M225.33,2718.89c15.43,19.65,10.54,40.87.34,57.31-10.77,17.35-15.52,44.03-1.49,58.65" style="fill:none; stroke:#bcbec0; stroke-linecap:round; stroke-miterlimit:10; stroke-width:11px;"/><path d="M431.76,2779.08l-2.36,45.74c0,3.02-2.45,5.47-5.47,5.47s-5.47-2.45-5.47-5.47l-2.37-45.74c-.19-4.33,3.16-7.99,7.49-8.18,4.33-.19,7.99,3.16,8.18,7.49.01.23.01.46,0,.69ZM423.93,2835.37c-4.64,0-8.4,3.76-8.4,8.4s3.76,8.4,8.4,8.4,8.4-3.76,8.4-8.4c0-4.64-3.76-8.4-8.4-8.4h0,0ZM258.48,2871.38v-11.93c0-2.66-2.16-4.82-4.82-4.82H70.68c-2.66,0-4.82,2.16-4.82,4.82v11.93c0,2.66,2.16,4.82,4.82,4.82h182.99c2.66,0,4.82-2.16,4.82-4.82ZM65.87,2935.12v-30.96h6.25v12.18h12.25v-12.18h6.25v30.96h-6.25v-13.54h-12.25v13.54h-6.25ZM95.68,2919.83c-.31-9.27,5.58-16.49,14.97-16.2,4.56,0,8.21,1.42,10.95,4.24,2.74,2.83,4.11,6.76,4.11,11.8.12,9.49-5.56,16.01-14.97,15.96-9.42.06-15.17-6.35-15.06-15.82ZM102.12,2919.62c0,3.51.81,6.16,2.43,7.97,3.01,3.61,9.29,3.63,12.3.02,3.16-3.1,3.21-12.9.06-16.02-1.56-1.75-3.62-2.62-6.2-2.62-5.97.11-8.65,4.45-8.59,10.64ZM137.43,2935.12v-25.72h-9.19v-5.24h24.6v5.24h-9.17v25.72h-6.25ZM167.05,2925.04l6.08-.59c.71,3.95,2.8,5.91,6.76,5.93,2.01,0,3.53-.43,4.55-1.28,1.55-1.23,2.08-3.36.89-4.86-1.95-1.75-3.42-1.58-7.25-2.69-3.35-.83-5.7-1.85-7.05-3.06-3.13-2.69-3.77-7.25-1.51-10.65,3.45-5.48,14.51-5.28,18.73-1.66,1.96,1.7,2.99,3.98,3.09,6.82l-6.25.27c-.59-3.34-2.27-4.45-5.68-4.48-2.45.08-5.1.58-5.26,3.04.21,2.58,2.94,2.9,6.67,3.95,4.93,1.34,7.69,1.76,10.17,5.37,2.74,4.43.81,11.47-4.42,13.37-4.19,1.83-12.59,1.53-15.75-1.58-2.1-1.81-3.35-4.45-3.76-7.91ZM197.31,2904.16h6.25v16.77c.2,4.42-.5,5.85,2.14,8.22,2.79,2.08,9.24,1.52,9.77-2.61.53-2.95.18-18.89.27-22.38,0,0,6.25,0,6.25,0-.17,4.76.41,20.26-.51,24.14-1.19,5.4-5.95,7.43-11.47,7.35-4.78-.04-7.68-.68-10.35-3.68-.89-1.09-1.47-2.24-1.75-3.43-.41-1.77-.61-4.39-.61-7.86v-16.51ZM228.47,2935.12v-30.96h13.16c3.31,0,5.71.28,7.21.83,3.16,1.15,4.99,4.46,4.95,7.84-.02,4.98-3.11,7.92-8.17,8.62,3.57,2.19,4.22,3.48,6.91,7.62,0,0,3.78,6.04,3.78,6.04h-7.48c-1.61-2.33-6.45-9.85-7.81-11.29-1.62-1.84-3.74-1.62-6.29-1.64,0,0,0,12.92,0,12.92h-6.25ZM234.72,2917.25c2.34-.01,9.17.11,10.24-.38,2.49-.69,3.1-4.36,1.55-6.16-.56-.64-1.34-1.05-2.35-1.21-.51-.07-2.03-.11-4.56-.11h-4.88v7.86ZM259.6,2935.12v-30.96h21.22v5.24h-14.97v7.33h12.92v5.24h-12.92v13.16h-6.25ZM311.37,2935.12h-6.8l-2.7-7.03h-12.37l-2.56,7.03h-6.63l12.06-30.96h6.61l12.4,30.96ZM299.86,2922.87l-4.27-11.49-4.18,11.49h8.45ZM334.37,2923.73l6.06,1.92c-.93,3.38-2.47,5.89-4.64,7.53-2.16,1.64-4.9,2.46-8.22,2.46-8.78.01-14.27-6.79-14.11-15.73-.14-9.46,5.17-16.28,14.49-16.28,6.27.06,10.73,2.97,12.4,9.06,0,0-6.19,1.48-6.19,1.48-1-5.66-8.71-6.89-12.11-2.72-1.43,1.65-2.14,4.32-2.14,8,0,3.91.7,6.7,2.11,8.36,2.25,2.86,7.05,3.4,9.78.91,1.2-1.06,2.06-2.72,2.58-4.98ZM345.66,2935.12v-30.96h22.95v5.24h-16.7v6.86h15.54v5.22h-15.54v8.43h17.29v5.22h-23.55ZM386.24,2904.16h11.42c4.77.05,7.52.4,10.56,3.44,5.43,5.66,5.45,18.89-.3,24.39-2.61,2.4-5.8,3.15-9.93,3.12,0,0-11.76,0-11.76,0v-30.96ZM392.49,2909.4v20.5h4.67c4.13.02,6.75-.49,7.94-4.57.94-3.86,1.33-11.24-1.77-14.18-2.53-2.39-6.84-1.59-10.83-1.75ZM416.1,2919.83c-.31-9.27,5.58-16.49,14.97-16.2,4.56,0,8.21,1.42,10.95,4.24,2.74,2.83,4.11,6.76,4.11,11.8.12,9.49-5.56,16.01-14.97,15.96-9.42.06-15.17-6.35-15.06-15.82ZM422.54,2919.62c0,3.51.81,6.16,2.43,7.97,3.01,3.61,9.29,3.63,12.3.02,3.16-3.1,3.21-12.9.06-16.02-1.56-1.75-3.62-2.62-6.2-2.62-5.97.11-8.65,4.45-8.59,10.64ZM462.83,2935.12v-30.96h6.08l12.67,20.67v-20.67h5.81v30.96h-6.27l-12.48-20.19v20.19h-5.81ZM492.6,2919.83c-.31-9.27,5.58-16.49,14.97-16.2,4.56,0,8.21,1.42,10.95,4.24,2.74,2.83,4.11,6.76,4.11,11.8.12,9.49-5.56,16.01-14.97,15.96-9.42.06-15.17-6.35-15.06-15.82ZM499.04,2919.62c0,3.51.81,6.16,2.43,7.97,3.01,3.61,9.29,3.63,12.3.02,3.16-3.1,3.21-12.9.06-16.02-1.56-1.75-3.62-2.62-6.2-2.62-5.97.11-8.65,4.45-8.59,10.64ZM534.35,2935.12v-25.72h-9.19v-5.24h24.6v5.24h-9.17v25.72h-6.25ZM572.52,2935.12v-25.72h-9.19v-5.24h24.6v5.24h-9.17v25.72h-6.25ZM589.79,2919.83c-.31-9.27,5.58-16.49,14.97-16.2,4.56,0,8.21,1.42,10.95,4.24,2.74,2.83,4.11,6.76,4.11,11.8.12,9.49-5.56,16.01-14.97,15.96-9.42.06-15.17-6.35-15.06-15.82ZM596.23,2919.62c0,3.51.81,6.16,2.43,7.97,3.01,3.61,9.29,3.63,12.3.02,3.16-3.1,3.21-12.9.06-16.02-1.56-1.75-3.62-2.62-6.2-2.62-5.97.11-8.65,4.45-8.59,10.64ZM624.53,2904.16h6.25v16.77c.2,4.42-.5,5.85,2.14,8.22,2.79,2.08,9.24,1.52,9.77-2.61.53-2.95.18-18.89.27-22.38,0,0,6.25,0,6.25,0-.17,4.76.41,20.26-.51,24.14-1.19,5.4-5.95,7.43-11.47,7.35-4.78-.04-7.68-.68-10.35-3.68-.89-1.09-1.47-2.24-1.75-3.43-.41-1.77-.61-4.39-.61-7.86v-16.51ZM675.48,2923.73l6.06,1.92c-.93,3.38-2.47,5.89-4.64,7.53-2.16,1.64-4.9,2.46-8.22,2.46-8.78.01-14.27-6.79-14.11-15.73-.14-9.46,5.17-16.28,14.49-16.28,6.27.06,10.73,2.97,12.4,9.06,0,0-6.19,1.48-6.19,1.48-1-5.66-8.71-6.89-12.11-2.72-1.43,1.65-2.14,4.32-2.14,8,0,3.91.7,6.7,2.11,8.36,2.25,2.86,7.05,3.4,9.78.91,1.2-1.06,2.06-2.72,2.58-4.98ZM686.79,2935.12v-30.96h6.25v12.18h12.25v-12.18h6.25v30.96h-6.25v-13.54h-12.25v13.54h-6.25ZM720.16,2927.13l-1.54-15.71v-7.26h6.42v7.26l-1.52,15.71h-3.36ZM718.87,2935.12v-5.93h5.93v5.93h-5.93ZM2495.52,2919.9l10.36-1.26c.53,4.71,3.33,8.11,7.92,8.15,7.62.17,10.15-10.71,5.67-15.69-2.81-3.06-6.27-2.63-10.2-1.56,0,0,1.18-8.72,1.18-8.72,5.11.2,8.86-2.21,8.91-7.2.3-5.89-6.96-8.13-10.81-4.26-1.29,1.27-2.08,3.12-2.36,5.56l-9.86-1.68c1.33-6.21,3.37-10.21,8.89-12.85,6.49-3.09,16.27-2.1,20.96,3.29,2.61,2.74,3.92,5.84,3.92,9.29,0,4.9-2.68,8.81-8.03,11.73,3.2.68,5.75,2.22,7.67,4.61,4.9,6.12,3.26,15.93-2.49,21.17-3.58,3.45-8.03,5.18-13.36,5.18-9.68.15-17.36-6.21-18.35-15.76ZM2557.66,2878.67c14.69.36,17.95,12.93,18.12,28.52-.18,15.52-3.41,28.15-18.12,28.48-14.7-.61-18.05-12.34-18.12-28.59.18-15.46,3.43-28.09,18.12-28.4ZM2557.66,2887.54c-7.35.16-6.68,11.47-6.93,19.65.2,8.38-.34,19.41,6.93,19.61,7.33-.16,6.68-11.43,6.93-19.61-.2-8.38.33-19.42-6.93-19.65ZM2601.34,2878.67c14.69.36,17.95,12.93,18.12,28.52-.18,15.52-3.41,28.15-18.12,28.48-14.7-.61-18.05-12.34-18.12-28.59.18-15.46,3.43-28.09,18.12-28.4ZM2601.34,2887.54c-7.35.16-6.68,11.47-6.93,19.65.2,8.38-.34,19.41,6.93,19.61,7.33-.16,6.68-11.43,6.93-19.61-.2-8.38.33-19.42-6.93-19.65ZM2622.51,2934.71l14.58-20.83-13.97-19.61h13.06l7.16,11.12,7.54-11.12h12.56l-13.71,19.15,14.96,21.28h-13.13l-8.22-12.53-8.3,12.53h-12.53ZM2665.55,2919.9l10.36-1.26c.53,4.71,3.33,8.11,7.92,8.15,7.62.17,10.15-10.71,5.67-15.69-2.81-3.06-6.27-2.63-10.2-1.56,0,0,1.18-8.72,1.18-8.72,5.11.2,8.86-2.21,8.91-7.2.3-5.89-6.96-8.13-10.81-4.26-1.29,1.27-2.08,3.12-2.36,5.56l-9.86-1.68c1.33-6.21,3.37-10.21,8.89-12.85,6.49-3.09,16.27-2.1,20.96,3.29,2.61,2.74,3.92,5.84,3.92,9.29,0,4.9-2.68,8.81-8.03,11.73,3.2.68,5.75,2.22,7.67,4.61,4.9,6.12,3.26,15.93-2.49,21.17-3.58,3.45-8.03,5.18-13.36,5.18-9.68.15-17.36-6.21-18.35-15.76ZM2727.69,2878.67c14.69.36,17.95,12.93,18.12,28.52-.18,15.52-3.41,28.15-18.12,28.48-14.7-.61-18.05-12.34-18.12-28.59.18-15.46,3.43-28.09,18.12-28.4ZM2727.69,2887.54c-7.35.16-6.68,11.47-6.93,19.65.2,8.38-.34,19.41,6.93,19.61,7.33-.16,6.68-11.43,6.93-19.61-.2-8.38.33-19.42-6.93-19.65ZM2771.36,2878.67c14.69.36,17.95,12.93,18.12,28.52-.18,15.52-3.41,28.15-18.12,28.48-14.7-.61-18.05-12.34-18.12-28.59.18-15.46,3.43-28.09,18.12-28.4ZM2771.36,2887.54c-7.35.16-6.68,11.47-6.93,19.65.2,8.38-.34,19.41,6.93,19.61,7.33-.16,6.68-11.43,6.93-19.61-.2-8.38.33-19.42-6.93-19.65ZM2796.88,2894.28h9.86v5.52c6.08-8.1,19.01-9.12,24.02,0,4.79-6.3,13.22-8.31,19.87-4.63,4.91,3.21,5.67,6.91,5.71,13.69,0,0,0,25.85,0,25.85h-10.7v-23.11c0-4.01-.37-6.6-1.1-7.77-3-4.46-10.42-1.89-11.65,3.1-1.56,4.37-.64,22.51-.88,27.77,0,0-10.7,0-10.7,0v-22.16c0-3.93-.19-6.47-.57-7.61-1.11-4.11-6.49-4.11-9.48-2.06-3.77,2.9-3.48,6.32-3.69,12.18,0,0,0,19.64,0,19.64h-10.7v-40.43ZM2861.84,2894.28h9.86v5.52c6.08-8.1,19.01-9.12,24.02,0,4.79-6.3,13.22-8.31,19.87-4.63,4.91,3.21,5.67,6.91,5.71,13.69,0,0,0,25.85,0,25.85h-10.7v-23.11c0-4.01-.37-6.6-1.1-7.77-3-4.46-10.42-1.89-11.65,3.1-1.56,4.37-.64,22.51-.88,27.77,0,0-10.7,0-10.7,0v-22.16c0-3.93-.19-6.47-.57-7.61-1.11-4.11-6.49-4.11-9.48-2.06-3.77,2.9-3.48,6.32-3.69,12.18,0,0,0,19.64,0,19.64h-10.7v-40.43ZM1153.7,2863.49l-21.3-4.34c-2.05,9.49-7.17,18.5-12.85,23.23-10.43,9.05-28.13,9.21-40.01,1.81-13.76-8.58-16.82-25.03-17.09-41.71.21-14.14,3.51-30.42,15.76-38.86,9.76-7.41,30-8.7,40.05-.71,4.83,3.63,9.79,11.42,12.4,19.61l21.09-4.26c-6.01-25.05-25.42-40.78-51.57-40.41-53.77.4-71.44,53.8-53.52,98.35,9.83,22.73,27.64,32.95,53.27,32.89,27.22.05,46.98-16.9,53.77-45.59ZM1256.68,2786.2c-22.94-14.02-57.97-10.42-75.74,9.56-18.01,17.93-22.49,56.01-9.77,80.83,14.54,31.22,55.1,41.12,84.52,24.65,40.01-21.67,40.23-92.36,1-115.04ZM1263.3,2843.55c0,14.77-3.67,26.25-10.92,34.14-13.48,15.68-41.39,15.78-55.05.11-15.66-14.69-13.81-57.12.38-69.45,12.17-12.26,32.91-14.44,47.33-5.26,13.49,8.67,18.19,23.88,18.26,40.46ZM1363.48,2876.98l-32.39-97.07s-29.21,0-29.21,0v127.11h21.35v-88.31l30,88.31h18.67l30.18-86.94v86.94h21.35v-127.11h-26.63l-33.34,97.07ZM1538.01,2824.33l20.05-5.5c-2.04-8.94-5.69-17.98-10.44-23.75-16.93-20.82-53.94-21.37-76.13-9.45-40.17,21.8-40.96,94.65.81,115.46,27.69,14.49,61.42,8.43,86.96-12.48v-49.35l-57.24.09v20.11h35.64v18.26c-14.91,11.13-36.43,14.91-53.79,6.01-15.24-7.85-20.08-22.81-20.19-40.69.16-17.5,6.07-35.47,23.41-42.47,9.01-3.83,23.93-4.41,33.44-.17,10.13,4.39,13.09,11.06,17.49,23.92ZM1653.26,2850.29c17.51-4.24,28.64-16.67,28.66-34.35.16-13.61-7.6-27.77-20.4-32.55-6.02-2.33-14.43-3.47-25.7-3.47h-56.69v127.11h21.93v-53.83c4.4.08,20.95-.31,23.94.51,6.05,1.69,9.09,4.39,13.8,10.27,6.38,7.87,21.95,33.18,28.32,43.05,0,0,27.17,0,27.17,0l-23.99-37.54c-4.31-6.63-10.87-14.6-17.02-19.19ZM1656.74,2825.21c-5.05,7.43-13.77,7.98-24.15,8.2,0,0-31.53,0-31.53,0v-34.21h35.42c8.2,0,14.18,1.61,17.77,4.8,6.07,5.08,6.87,14.66,2.5,21.22ZM1790.91,2786.2c-22.94-14.02-57.97-10.42-75.74,9.56-18.01,17.93-22.49,56.01-9.77,80.83,14.54,31.22,55.1,41.12,84.52,24.65,40.01-21.67,40.23-92.36,1-115.04ZM1797.54,2843.55c0,14.77-3.67,26.25-10.92,34.14-13.48,15.68-41.39,15.78-55.05.11-15.66-14.69-13.81-57.12.38-69.45,12.17-12.26,32.91-14.44,47.33-5.26,13.49,8.67,18.19,23.88,18.26,40.46ZM1965.98,2779.91l-22.4,91.86-24.9-91.86h-23.81l-25.98,93.25c.93.36-21.54-93.25-21.54-93.25h-22.62s33.73,127.11,33.73,127.11h20.87l27.15-97.58,27,97.58h19.95l34.85-127.11h-22.3Z" style="fill:#bcbec0;"/></svg>