<?xml version="1.0" encoding="UTF-8"?><svg id="a" xmlns="http://www.w3.org/2000/svg" viewBox="0 0 1912 2000"><path d="M1420.51,1081.05c-2.31-2.65-9.9-5.22-18.44-8.75-8.54-3.53-18.17-7.94-24.6-14.37-12.74-12.81-15.05-30.32-5.97-45.94,4.54-7.83,12.67-14.61,20.12-20.26,7.41-5.66,14.07-10.18,15.66-13.31,1.58-3.2,1.88-6.57,1.04-9.68-.84-3.11-2.78-5.91-5.74-7.89-2.92-1.93-10.94-2.48-20.17-3.59-9.23-1.17-19.7-2.93-27.56-7.44-15.63-9.05-22.42-25.35-17.66-42.83,2.32-8.73,8.63-17.58,14.49-25.11,5.88-7.5,11.32-13.72,12.01-17.19.72-3.47.12-6.82-1.49-9.63-1.62-2.77-4.22-4.95-7.57-6.1-3.38-1.13-11.38.6-20.77,2.04-18.84,3.26-37.31,2.46-49.53-13.12-12.07-16.28-7.65-34.1.69-51.86,4.05-9.03,8.05-16.65,7.81-20.18-.25-3.55-1.69-6.63-3.95-8.9-2.28-2.31-5.35-3.7-8.88-3.95-3.56-.24-11.21,3.75-20.21,7.8-17.85,8.31-35.65,12.69-51.85.57-15.62-12.16-16.34-30.86-13.06-49.53,1.44-9.38,3.2-17.42,2.06-20.77-1.16-3.35-3.32-5.98-6.09-7.59-2.79-1.59-6.13-2.21-9.63-1.52-3.47.72-9.68,6.16-17.22,12.04-7.57,5.86-16.38,12.13-25.1,14.47-17.54,4.72-33.74-2.07-42.81-17.72-4.51-7.9-6.28-18.32-7.41-27.57-1.14-9.2-1.62-17.24-3.6-20.17-1.98-2.95-4.78-4.9-7.83-5.78-3.1-.79-6.55-.5-9.71,1.05-3.17,1.59-7.69,8.24-13.33,15.63-10.88,15.1-25.19,27.79-44.36,25.29-19.26-2.66-29.53-18.5-36.19-35.84-3.53-8.58-6.1-16.13-8.76-18.46-5.31-4.7-12.84-4.7-18.17-.03-2.65,2.36-5.23,9.89-8.76,18.46-3.49,8.58-7.94,18.17-14.34,24.57-12.79,12.84-30.3,15.13-45.94,6.01-7.83-4.51-14.64-12.65-20.3-20.08-5.65-7.41-10.12-14.11-13.32-15.66-6.32-3.17-13.59-1.18-17.55,4.69-1.94,2.96-2.45,10.94-3.57,20.18-1.14,9.23-2.93,19.67-7.42,27.52-9.06,15.65-25.36,22.39-42.83,17.69-8.73-2.36-17.57-8.63-25.11-14.52-7.54-5.86-13.72-11.32-17.21-12.01-3.47-.72-6.82-.13-9.63,1.49-2.78,1.58-4.96,4.21-6.13,7.59-1.11,3.35.62,11.39,2.06,20.74,1.44,9.42,2.58,20.12.25,28.88-4.7,17.44-18.68,28.2-36.8,28.15-9.03,0-19.4-4.12-28.41-8.15-9.01-4.04-16.65-8.04-20.18-7.8-7.08.43-12.38,5.74-12.86,12.82-.24,3.53,3.77,11.19,7.81,20.18,4.03,9.03,8.13,19.43,8.13,28.46.02,18.08-10.78,32.07-28.22,36.76-8.76,2.3-19.48,1.17-28.88-.3-9.35-1.43-17.39-3.2-20.77-2.03-6.68,2.25-10.47,8.73-9.08,15.72.72,3.48,6.16,9.69,12.01,17.22,5.86,7.54,12.14,16.35,14.5,25.11,4.66,17.42-2.07,33.8-17.75,42.78-7.84,4.51-18.29,6.3-27.52,7.41-9.24,1.14-17.28,1.61-20.21,3.59-5.9,3.96-7.83,11.17-4.71,17.54,1.58,3.17,8.24,7.69,15.66,13.33,7.37,5.66,15.53,12.46,20.08,20.3,9.02,15.7,6.74,33.14-6.08,45.93-6.39,6.4-15.98,10.85-24.56,14.35-8.58,3.52-16.14,6.06-18.51,8.73-2.36,2.69-3.5,5.88-3.5,9.08-.02,3.23,1.14,6.42,3.5,9.08,2.34,2.67,9.9,5.24,18.47,8.79,8.58,3.5,18.14,7.95,24.54,14.35,12.82,12.77,15.11,30.25,6.03,45.93-4.54,7.8-12.7,14.65-20.12,20.27-7.41,5.61-14.07,10.13-15.66,13.3-3.13,6.42-1.21,13.57,4.7,17.57,2.95,1.94,10.96,2.45,20.17,3.62,9.23,1.11,19.7,2.9,27.52,7.41,15.67,9.03,22.41,25.36,17.7,42.8-2.34,8.77-8.64,17.6-14.5,25.11-5.88,7.54-11.36,13.72-12.04,17.22-1.43,6.92,2.41,13.49,9.05,15.72,3.39,1.17,11.43-.56,20.81-2,9.35-1.46,20.11-2.6,28.84-.27,17.52,4.71,28.23,18.66,28.18,36.8-.03,9.03-4.12,19.42-8.16,28.45-4.06,8.97-8.04,16.62-7.84,20.14.45,7.1,5.75,12.4,12.83,12.86,3.55.24,11.17-3.74,20.2-7.77,9-4.04,19.4-8.16,28.42-8.16,18.12.04,32.11,10.69,36.76,28.24,2.31,8.73,1.17,19.45-.27,28.81-1.43,9.41-3.2,17.42-2.08,20.8,1.16,3.35,3.34,5.95,6.13,7.59,2.78,1.59,6.15,2.18,9.62,1.49,3.47-.68,9.68-6.12,17.21-12.01,7.55-5.86,16.39-12.16,25.15-14.49,17.46-4.64,33.76,2.07,42.76,17.79,4.52,7.83,6.31,18.28,7.42,27.51,1.14,9.24,1.61,17.25,3.59,20.21,3.9,5.88,11.2,7.81,17.52,4.66,3.2-1.56,7.69-8.24,13.35-15.63,5.65-7.37,12.47-15.54,20.3-20.08,15.71-9.01,33.11-6.73,45.93,6.06,6.37,6.4,10.82,15.99,14.32,24.6,3.5,8.58,6.1,16.13,8.76,18.46,5.31,4.71,12.81,4.7,18.14.03,2.66-2.33,5.26-9.92,8.78-18.5,6.65-17.36,17.05-33.23,36.26-35.76,19.3-2.51,33.4,10.31,44.32,25.29,5.65,7.42,10.13,14.08,13.3,15.66,3.2,1.59,6.57,1.86,9.68,1.05,3.11-.85,5.89-2.79,7.86-5.71,1.98-2.96,2.48-10.97,3.63-20.2,1.13-9.24,2.9-19.7,7.41-27.53,9.07-15.67,25.36-22.41,42.83-17.69,8.77,2.33,17.6,8.64,25.1,14.52,7.54,5.9,13.72,11.34,17.22,12.02,3.47.71,6.82.09,9.6-1.5,2.78-1.61,4.99-4.22,6.13-7.56,1.13-3.35-.6-11.41-2.04-20.8-3.29-18.9-2.53-37.22,13.13-49.5,16.05-12.07,34.27-7.74,51.86.69,8.98,4.04,16.64,8.01,20.17,7.8,3.52-.24,6.63-1.71,8.9-3.98,2.24-2.23,3.75-5.35,3.95-8.87.2-3.53-3.74-11.19-7.8-20.21-8.34-17.74-12.66-35.76-.57-51.85,12.07-15.56,30.91-16.35,49.53-13.03,9.35,1.44,17.39,3.17,20.77,2.06,3.35-1.14,5.98-3.35,7.6-6.13,1.58-2.77,2.18-6.13,1.48-9.6-.71-3.49-6.15-9.75-12.01-17.24-12-14.76-20.67-31.44-13.24-49.68,7.4-17.86,25.62-23.82,44.02-25.64,9.2-1.1,17.25-1.61,20.2-3.59,2.93-1.93,4.91-4.76,5.74-7.83.84-3.11.5-6.49-1.05-9.69-1.58-3.2-8.24-7.68-15.63-13.32-7.42-5.65-15.56-12.5-20.12-20.32-9.03-15.67-6.71-33.15,6.1-45.91,6.4-6.37,16.03-10.82,24.57-14.35,8.58-3.49,16.15-6.07,18.47-8.73,4.71-5.34,4.69-12.84,0-18.17ZM570.1,1112.73c-12.66-.02-22.95-10.28-22.95-23.01,1.2-30.37,44.74-30.36,45.9.06,0,12.65-10.32,22.95-22.95,22.95ZM1212.54,801.06c22.32-20.85,53.14,10.07,32.43,32.44-4.45,4.42-10.34,6.72-16.23,6.72-20.17-.03-30.67-24.68-16.2-39.16ZM955.95,681.48c12.71,0,22.95,10.26,22.95,22.95-1.18,30.44-44.73,30.42-45.91,0,0-12.69,10.25-22.95,22.96-22.95ZM666.9,800.83c22.35-20.69,53.09,10.19,32.43,32.52-4.52,4.42-10.31,6.73-16.23,6.73-20.18.06-30.63-24.86-16.2-39.25ZM699.63,1379.71c-4.51,4.51-10.4,6.72-16.3,6.72-20.21-.03-31.85-25.19-16.97-40.03,22.22-20.82,54.11,11,33.27,33.31ZM956.34,1498.89c-12.7,0-22.95-10.25-23.01-22.95,1.12-30.36,44.75-30.53,45.97-.1,0,12.7-10.31,22.95-22.95,23.05ZM1245.27,1379.07c-4.52,4.51-10.4,6.72-16.3,6.72-20.07.12-30.66-24.85-16.22-39.15,22.3-20.77,53.12,10.19,32.51,32.43ZM1197.63,1331.96c-127.11,132.62-357.01,132.65-484.15,0-132.63-127.16-132.63-357.01-.03-484.18,127.18-132.64,357.04-132.65,484.24-.03,133.47,133.5,133.45,350.7-.06,484.21ZM1364.55,1090.03c0,12.65-10.25,22.86-22.95,22.95-30.42-1.23-30.46-44.72,0-45.9,12.73-.1,23.01,10.3,22.95,22.95ZM1068.57,1243.41h.27s.04.02.06.06c0,0-.33-.06-.33-.06ZM1124.07,921.36c-149.63-149.17-406.69-43.16-406.71,168.52-2.63,128.24,109.96,240.81,238.21,238.2,211.66-.06,317.69-257.09,168.5-406.72ZM1156.05,1124.54c-9.02,12.15-26.99,17.93-41.06,11.48-5.89-2.84-10.46-7.83-14.44-12.4-4.4-4.95-9.84-12.55-13.9-17.82-3.93-5.06-9.13-12.53-13.47-17.1-1.69-1.63-2.91-1.94-4.07-1.94-6.69.44-12.59,4.64-19.11,9.54-5.22,4.14-10.51,9.12-15.26,14.29,8.75,7.81,17.46,15.96,24.26,25.93,6.1,8.67,10.6,20.79,8.1,31.96-.86,3.97-2.34,7.47-4.34,10.76,0,0-1.29,2.39-1.29,2.39-3.47,6.37-6.74,12.76-9.37,19.19-4.18,10.17-9.84,25.97-.54,33.94,4.4,3.93,11.11,6.89,17.3,8.65,2.47.12,5-.34,7.38-1.12,6.15-2.08,10.92-7.16,13.42-13.09,5.76-12.21-3.33-20.81-15.53-20.42-2.88.17-5.59.42-8.25,1.41-1.88.98-4.19.29-5.29-1.59-1.34-2.13-.33-5.12,2.04-5.83,10.97-5.27,25.67-2.28,33.14,7.5,5.22,7.05,4.48,16.61.78,24.09-4.05,9.29-12.49,16.78-22.61,18.98-2.18.34-4.28.79-6.54.69,0,0-.24,0-.24,0,0,0-.45-.09-.45-.09-26.74-5.81-38.18-19.18-34.34-46.8.34-11.49,17.58-49.2-3.65-54.74,0,0-.03-.05-.12-.05-2.16-.69-37.66-10.67-85.09,33.48-14.89,13.69,10.05,35.26,10.05,35.26,9.6,10.21,27.76,24.76,25.93,40.5-1.44,13.91-12.25,26.27-25.52,30.13-10.87,3.07-22.29-1.28-29.65-9.39-8.41-8.37-9.9-20.73-2.61-30.25,2.51-3.5,5.83-6.3,9.62-8.31,3.65-1.97,7.93-3.17,12.47-2.75.9-.02,1.91.32,2.66,1.04,1.37,1.41,1.41,3.6.12,4.87-.89.87-2.16,1.14-3.26.8-2.8-.45-6.03.33-8.9,1.84-5.54,2.88-10.33,8.75-10.52,15.08-.4,9.5,9.76,17.71,18.31,19.23,5.36.88,11-.99,15.28-4.28.44-.41,1.34-.96,1.59-1.37,0,0-.15.21-.15.21,0,0,.54-.5.54-.5,4.55-4.22,7.85-10.37,8.07-16.51.02-2.47-.6-4.37-1.97-6.63-5.72-8.38-14.83-14.54-23.01-21.24-4.56-3.48-11.91-9.27-16.3-12.8-21.36-18.39-5.78-49.34,5.41-68.44.74-.8-32.98,15.56-45.63,17.16-6.96,1.72-14.36,2.22-21.55,1.34-5.39-.62-10.87-2.38-16.07-3.65-6.92-1.53-13.52-3.05-20.25-2.63-4.56.18-7.85,1.64-12.4,3.5-1.69.67-3.56,1.26-5.31,1.91-4.94,2.09-9.1,6.64-11.49,11.72-2.22,5.84-2.38,13.72,1.02,18.88,3.89,6.29,14.39,10.3,21.58,9.56,13.16-1.49,16.24-19.53,9.18-29.29-1.16-1.04-.98-3.05.35-4.45,1.45-1.39,3.53-1.46,4.66-.15,3.98,4.45,6.19,10.05,6.79,15.82,1.69,22.68-16.76,34.06-37.3,26.3-17.68-5.86-24.24-22.82-19.58-40.38,3.08-9.14,9.36-17.18,18.32-21.78.61-.31,1.66-.8,2.28-1.05,3.7-1.51,6.45-3.31,10.69-4.99,5.68-2.34,12.34-3.12,18.36-3.08,8.91.18,17.03,1.58,25.53,3.11,1.76.24,3.58.49,5.35.57,12.74.4,24.8-5.7,34.14-14.23,3.58-2.81,6.74-5.97,8.31-8.9,2.51-4.64,2.9-6.38.3-6.73-2.16-.24-6.37.48-13.16,1.29-6.08.76-12.24,1.44-18.26,2.08-12.54.95-27.04,5.12-38.49-3.2-5.96-4.02-9.52-10.88-11.17-17.48-2.78-9.68-6.78-19.2-11.39-27.97-4.25-7.97-9.55-14.15-18.71-14.89-13.24-1.05-25.37,8.65-23.73,22.81.24,2.54,1.03,5.26,1.98,7.71,2.18,5.49,7.5,8.52,13.69,8.28,8.9-.04,18.21-6.3,19.01-15.56,1.64-4.1,7.8-1.9,6.45,2.21-2.84,21.79-36.61,29.92-46.86,9.2-7.29-14.77-3.95-31.49,10.22-40.79,11.19-6.95,26.83-7.64,37.81.6,9.8,7.46,14.59,17.63,19.85,27.82,2.36,4.81,4.54,9.59,7.17,14.22,1.37,2.63,2.19,3.86,3.32,4.93,3.52,3.37,7.73,4.74,12.67,5.24,7.04.75,14.5-3.28,20.12-7.72,0,0,4.64-2.87,8.76-8.81-8.18-15.24-9.65-32.79-4.21-47.82-3.77-4.54-7.47-9.3-10.82-14.44-9.44-13.98-16.99-33.9-8.34-50.27,3.23-6.73,5.62-15.31,5.76-22.21.38-4.99-.92-7.04-3.47-11.06-10.06-12.96-32.55-16.36-37.54,3.15-1.8,5.36-2.4,11.86,2.73,15.43,5.96,4.41,16.57,3.9,22.83.14,1.04-.69,2.68-.44,3.83.65,1.25,1.3,1.44,3.38.14,4.39-4.28,3.81-9.73,5.66-15.28,6.34-20.13,1.96-31.08-12.33-25.43-31.86,5.68-22.03,28.39-28.09,47.4-18.26,6.82,3.44,12.41,8.34,16.58,15.06,7.46,10.37,3.72,24.11,1.59,34.94-.82,4.09-1.67,8.35-2.21,12.49-.67,9.19,6.22,17,13,23.19,2.83,2.45,5.86,4.85,9.03,7.03,20.8-13.78,50.03-11.09,71.01,7.19,9.13-5.85,16.87-16.49,20.9-26.65,2.67-8.09,1.15-14.7-5.11-20.26,0,0-1.92-1.92-1.92-1.92-7.89-7.84-16.16-14.18-25.28-21.04-6.75-5.09-14.59-11.84-15.31-21.46-2.11-18.41,12.25-38.19,31.41-38.61,8.98-.02,17.76,4.12,23.92,10.25,10.58,10.61,7.32,27.11-3.62,36.07-3.35,2.73-7.54,4.87-12.23,5.2l-.06-.08c-.17.08-.35.05-.54.05-1.73.15-3.22-1.29-3.34-3.17-.12-2,1.47-3.63,3.31-3.55,2.88-.33,5.71-1.91,8.08-4.05,6.81-6.11,9.39-17.42,2-24-10.04-8.45-23.33-9.08-31.47,2.16-3.82,5.28-6.08,12.45-4.63,18.81.45,2,1.41,3.29,2.93,4.9,1.96,2.01,4.81,4.04,7.79,6.1,10.93,7.18,22.54,15.37,32.28,24.54,9.75,8.89,11.07,21.95,9,34.04-1.92,12.37-6.82,23.84-12.33,34.89-10.52,30.46,22.79-4.36,28.45-12.73,4.88-6.59,8.38-13.39,10.13-21.07.86-3.8,2.5-12.4,3.25-16.23,1.29-6.41,2.92-15.86,4.91-22.21,3.27-11.76,12.49-21.98,23.85-26.33,3.87-1.62,7.53-2.79,11.71-3.64,9.11.67,17.87,4.48,23.88,11.51,8.54,9.84,12.22,27.16,2.03,37.06-9.39,8.95-27.44,10.71-37.51,1.76-3.54-3.6,1.02-8.33,4.76-4.84,1.99,2.1,5.34,3.41,8.81,3.98,12.21,1.68,25.85-4.96,23.4-19.08-1.36-8.8-6.7-16.89-15.16-20.27-2.96-1.38-6.29-2.15-9.56-2.39-1.36.33-2.93.85-4.36,1.35-6.04,2.29-12.17,5.53-16.2,10.49-2.95,3.92-5.05,8.06-6,12.98-2.01,9.91-1.85,21.4-1.77,31.89,0,0,.12,5.49.12,5.49-.01,10.49-3.26,21.07-7.39,30.25-6.87,15.16-16.35,28.59-26.65,41.42,15.8-9.02,37.94-19.67,56.34-11.26,5.29,2.4,9.92,7.11,12.5,11.92,1.4,3.07,3.63,6.98,5.26,9.96,4.89,9.07,10.33,20.16,15.66,28.58,5.55,8.76,10.85,13.62,21.73,12.13,18.09-2.95,26.54-18.99,15.73-35.45-5.94-8.56-17.85-7.18-24.93-.78-2.39,2.04-4.15,4.67-4.79,7.39-.47,2.59-3.96,3.75-5.8,1.76-1.05-.98-1.26-2.6-.62-3.84,2.62-8.46,9.8-14.02,17.87-16.54,8.68-2.58,18.54.06,24.09,7.54,8.01,10.18,9.94,25.9,1.73,36.62ZM1262.23,965.24c-66.89-168.24-264.14-251-431.29-182.01-273.67,111.51-273.69,501.78,0,613.31,78.81,32.2,170.41,32.2,249.23,0,168.29-66.94,250.96-264.07,182.06-431.29ZM1262.22,1050.96l-37.89,4.79c-.42-3.21-.87-6.37-1.41-9.56l37.72-6.19c.57,3.65,1.1,7.29,1.58,10.97ZM1253.61,1007.74l-36.88,10.04c-.86-3.07-1.73-6.19-2.68-9.23l36.43-11.44c1.07,3.53,2.16,7.07,3.13,10.64ZM1238.91,966.11l-35.01,15.26c-1.28-2.96-2.63-5.91-4.04-8.85l34.46-16.5c1.59,3.38,3.09,6.7,4.58,10.08ZM1205.16,1089.88c-.12,221.77-269.33,332.81-426.15,176.57-96.72-92.77-96.77-260.37-.03-353.13,156.82-156.3,426.14-45.29,426.18,176.56ZM1218.49,927.04l-32.51,20.06c-1.71-2.76-3.44-5.47-5.27-8.1l31.74-21.29c2.09,3.05,4.1,6.16,6.04,9.33ZM1192.61,891.26l-29.29,24.51c-2.06-2.48-4.19-4.91-6.3-7.29l28.36-25.58c2.42,2.72,4.85,5.56,7.24,8.36ZM1141.36,867.02l12.4-14.56c2.96,2.51,5.58,4.76,8.16,7.12l-25.49,28.43c-2.28-2.04-4.57-4.03-6.97-6.03l11.9-14.95ZM1117.84,826.62c3.1,1.91,6.15,3.88,9.26,5.93l-21.14,31.78c-2.73-1.79-5.44-3.52-8.19-5.22l20.06-32.49ZM1078.7,806.2c3.38,1.44,6.7,2.95,10.05,4.54l-16.41,34.49c-2.9-1.36-5.85-2.72-8.78-4l15.15-35.03ZM1037.13,791.61c3.55.96,7.05,2.01,10.55,3.11l-11.34,36.47c-3.05-.99-6.15-1.88-9.23-2.68l10.02-36.89ZM993.88,783.13c3.65.45,7.27.96,10.91,1.56l-6.03,37.68c-3.18-.5-6.37-.96-9.56-1.33l4.69-37.9ZM960.89,780.79l-.57,38.2c-3.22-.05-6.48-.03-9.71.02l-.72-38.15c3.65-.13,7.32-.11,11-.07ZM916.9,783.22l4.78,37.89c-3.2.43-6.4.84-9.6,1.38l-6.07-37.72c3.59-.57,7.26-1.12,10.88-1.56ZM873.67,791.8l10.08,36.82c-3.11.87-6.23,1.77-9.3,2.73l-11.36-36.43c3.5-1.14,7.02-2.13,10.57-3.11ZM832.1,806.42l15.15,35.08c-2.95,1.27-5.91,2.61-8.81,3.97l-16.43-34.48c3.37-1.59,6.69-3.11,10.1-4.57ZM792.94,826.82l20.05,32.53c-2.72,1.7-5.46,3.44-8.13,5.23l-21.22-31.74c3.05-2.06,6.15-4.07,9.3-6.01ZM757.13,852.68l24.54,29.29c-2.48,2.06-4.93,4.18-7.32,6.33l-25.55-28.36c2.74-2.52,5.5-4.92,8.33-7.27ZM718.4,891.48c2.3-2.75,4.64-5.51,7.02-8.16l28.42,25.53c-2.09,2.32-4.12,4.71-6.18,7.14l-.62.72-10.77-9.96-18.06-15.08.18-.18ZM698.41,918.11l31.74,21.25c-1.79,2.68-3.52,5.38-5.23,8.13l-32.49-20.12c1.95-3.11,3.92-6.22,5.98-9.26ZM676.56,956.44l34.49,16.49c-1.41,2.89-2.75,5.81-4.04,8.78l-34.99-15.22c1.43-3.38,2.96-6.72,4.54-10.05ZM660.45,997.52l36.47,11.36c-.92,3.01-1.81,6.13-2.69,9.23l-36.84-10.05c.96-3.52,2-7.05,3.07-10.54ZM650.38,1040.41l37.72,6.03c-.48,3.17-.96,6.37-1.34,9.53l-37.94-4.65c.48-3.66.99-7.3,1.56-10.92ZM646.56,1084.23l38.16.71c-.06,3.26-.06,6.46,0,9.68l-38.16.7c-.1-3.71-.1-7.37,0-11.09ZM648.89,1128.25l37.89-4.72c.39,3.2.87,6.4,1.37,9.56l-37.71,6.1c-.6-3.65-1.12-7.27-1.56-10.94ZM657.4,1171.5l36.85-10.02c.9,3.08,1.77,6.23,2.73,9.26l-36.47,11.36c-1.11-3.52-2.13-7.04-3.11-10.61ZM672.02,1213.1l35.06-15.14c1.26,2.95,2.6,5.87,4,8.83l-34.49,16.39c-1.61-3.33-3.11-6.68-4.57-10.09ZM692.4,1252.22l32.51-20c1.71,2.76,3.44,5.44,5.23,8.17l-31.77,21.18c-2.05-3.04-4.03-6.17-5.97-9.35ZM718.22,1288.09l29.29-24.51c2.06,2.48,4.19,4.91,6.33,7.29l-28.42,25.56c-2.42-2.75-4.83-5.53-7.2-8.34ZM757.85,1327.57c-3.22-2.59-6.15-5.19-9-7.74,0,0,25.46-28.45,25.46-28.45,2.7,2.37,5.41,4.76,8.19,7.05,0,0-24.66,29.13-24.66,29.13ZM793.75,1353.4c-3.07-1.94-6.18-3.92-9.26-5.94l21.1-31.84c2.72,1.81,5.41,3.55,8.18,5.2l-20.02,32.58ZM832.88,1373.73c-3.35-1.45-6.7-2.96-10.02-4.52l16.35-34.52c2.93,1.37,5.86,2.69,8.85,3.98l-15.18,35.06ZM874.54,1388.24c-3.55-.96-7.08-1.97-10.61-3.04l11.29-36.5c3.05.96,6.13,1.81,9.24,2.66l-9.93,36.87ZM917.76,1396.68c-3.62-.45-7.29-.96-10.87-1.57l5.95-37.7c3.2.53,6.37.98,9.56,1.34l-4.64,37.93ZM950.75,1398.92l.57-38.2c3.2.05,6.46.05,9.66-.03l.79,38.18c-3.67.08-7.35.11-11.02.05ZM994.75,1396.43l-4.87-37.87c3.23-.42,6.42-.85,9.62-1.41l6.15,37.69c-3.61.6-7.26,1.15-10.9,1.59ZM1037.97,1387.79l-10.13-36.81c3.1-.87,6.18-1.79,9.3-2.75l11.44,36.45c-3.52,1.11-7.05,2.13-10.61,3.1ZM1079.55,1373.09l-15.23-35.04c2.91-1.29,5.9-2.59,8.77-3.99l16.5,34.47c-3.28,1.58-6.67,3.09-10.04,4.56ZM1118.61,1352.62l-20.08-32.49c2.76-1.66,5.46-3.45,8.16-5.23l21.28,31.71c-3.1,2.06-6.22,4.1-9.35,6.01ZM1154.41,1326.7l-24.56-29.22c2.45-2.1,4.87-4.19,7.26-6.37l25.61,28.36c-2.72,2.49-5.53,4.86-8.31,7.22ZM1193.03,1287.95c-2.47,2.95-4.72,5.52-6.97,8.06l-28.51-25.43c2-2.24,3.98-4.49,5.88-6.83l29.9,23.84-.3.35ZM1212.99,1261.16l-31.73-21.2c1.79-2.68,3.52-5.37,5.2-8.13l32.48,20.06c-1.91,3.15-3.88,6.2-5.95,9.26ZM1234.78,1222.85l-34.46-16.48c1.38-2.9,2.68-5.82,3.97-8.75l35.04,15.14c-1.41,3.39-2.96,6.73-4.55,10.09ZM1250.83,1181.73l-36.45-11.25c.92-3.1,1.81-6.22,2.65-9.33l36.88,10.03c-.96,3.52-1.98,7.02-3.08,10.55ZM1260.84,1138.77l-37.75-5.91c.55-3.18.96-6.38,1.35-9.6l37.89,4.66c-.41,3.65-.92,7.28-1.49,10.85ZM1226.44,1094.33c.06-3.2.06-6.43,0-9.63l38.17-.8c.09,3.67.09,7.39,0,11.07l-38.17-.63ZM168.11,1936.69c3.93-.09,6.75,3.27,6.67,7.08,0,0,0,49.11,0,49.11,0,2-.6,3.67-1.84,5.05-1.25,1.37-2.87,2.06-4.83,2.06,0,0-160.74,0-160.74,0-4.76,0-7.08-2.39-7.08-7.11,0,0,0-246.32,0-246.32,0-4.68,2.33-7.07,7.08-7.07h51.34c4.69,0,7.06,2.39,7.06,7.07v183.45c0,1.98.68,3.56,2.05,4.82,1.35,1.25,3.03,1.85,5.02,1.85h95.26ZM464.83,1741.56c-1.34-1.38-3.05-2.07-5.02-2.07,0,0-51.71,0-51.71,0-3.88-.09-7.16,3.19-7.08,7.08,0,0,0,183.45,0,183.45,0,1.98-.62,3.67-1.85,5-1.22,1.36-2.87,2.05-4.84,2.05,0,0-73.68,0-73.68,0-3.87.08-7.15-3.17-7.05-7.05,0,0,0-183.45,0-183.45.09-3.88-3.23-7.17-7.08-7.08,0,0-51.34,0-51.34,0-3.89-.09-7.15,3.22-7.08,7.08,0,0,0,203.16,0,203.16,0,2,.25,4.23.75,6.69.47,2.51,1.25,4.61,2.23,6.37,0,0,34.23,34.22,34.23,34.22,3.34,1.93,9.21,2.99,13.03,2.98,0,0,117.93,0,117.93,0,3.8,0,10.1-1.04,13.42-2.98,0,0,34.23-34.22,34.23-34.22.74-1.52,1.34-3.38,1.85-5.59.5-2.24.75-4.37.75-6.34,0,0,.35,0,.35,0,0,0,0-204.28,0-204.28,0-2-.69-3.64-2.03-5.01M635.44,1936.69c-3.84.08-7.16-2.72-7.06-6.67,0,0,0-183.45,0-183.45,0-4.68-2.36-7.07-7.08-7.07h-51.34c-4.72,0-7.05,2.39-7.05,7.07v246.32c0,4.71,2.33,7.11,7.05,7.11,0,0,160.74,0,160.74,0,3.94.08,6.78-3.26,6.7-7.11,0,0,0-49.11,0-49.11,0-1.98-.6-3.64-1.86-5.02-1.26-1.37-2.87-2.06-4.84-2.06h-95.25ZM1009.43,1746.58c.06-3.87-3.23-7.16-7.08-7.08,0,0-182.7,0-182.7,0-2.01,0-3.68.69-5.01,2.07-1.38,1.36-2.07,3.01-2.07,5.01,0,0,0,44.29,0,44.29-.07,3.87,3.2,7.13,7.08,7.06,0,0,118.69,0,118.69,0l-123.53,136.2c-2.46,2.79-4.53,8.48-4.49,12.24,0,0,0,46.51,0,46.51,0,4.72,2.39,7.12,7.08,7.12,0,0,184.95,0,184.95,0,1.98,0,3.65-.7,4.99-2.06,1.37-1.37,2.09-3.06,2.09-5.06v-44.27c0-1.96-.72-3.64-2.09-5.01-1.34-1.38-3.02-2.04-4.99-2.04h-118.71l120.96-136.19c1.19-1.5,2.34-3.36,3.32-5.57,1.02-2.23,1.52-4.35,1.52-6.32v-46.9ZM1164.93,1892.43h100.1v50.62h-100.1v-50.62ZM1164.93,1796.08h100.1v46.5h-100.1v-46.5ZM1321.58,1776.7s-34.22-34.22-34.22-34.22c-1.76-.74-3.91-1.44-6.52-2.06-2.63-.6-4.91-.92-6.88-.92h-161.11c-3.89-.09-7.16,3.2-7.08,7.07,0,0,0,246.31,0,246.31,0,4.72,2.36,7.12,7.08,7.12,0,0,161.11,0,161.11,0,1.98,0,4.25-.27,6.88-.78,2.61-.47,4.76-1.26,6.52-2.21l34.22-34.22c1.44-3.4,3.03-9.26,2.99-13.05,0,0,0-43.88,0-43.88,0-2-.52-4.19-1.5-6.52-.99-2.36-2.11-4.3-3.34-5.76l-15.24-18.62c-2.58-2.39-2.85-8.13-.4-10.79,0,0,15.99-20.47,15.99-20.47,1.26-1.46,2.3-3.38,3.17-5.78.87-2.32,1.32-4.51,1.32-6.51v-41.32c.04-3.7-1.55-10.03-2.99-13.39M1484.16,1802.8h87.45v134.29h-87.45v-134.29ZM1634.53,1776.7s-34.25-34.22-34.25-34.22c-1.73-.74-3.91-1.44-6.52-2.06-2.57-.6-4.91-.92-6.88-.92h-117.96c-1.96,0-4.21.32-6.7.92-2.48.62-4.56,1.32-6.3,2.06,0,0-34.24,34.22-34.24,34.22-1.96,3.32-2.97,9.25-2.96,13.03,0,0,0,160,0,160-.01,3.85,1.02,9.7,2.96,13.05,0,0,34.24,34.22,34.24,34.22,3.31,1.95,9.23,2.99,13,2.99,0,0,117.96,0,117.96,0,3.78,0,10.1-1.06,13.4-2.99,0,0,34.25-34.22,34.25-34.22.75-1.76,1.41-3.85,2.04-6.37.62-2.45.96-4.69.96-6.69v-160c.05-3.72-1.56-9.66-2.99-13.03M1911.72,1746.57c.09-3.89-3.22-7.16-7.05-7.08,0,0-184.95,0-184.95,0-4.72,0-7.06,2.4-7.06,7.08v49.14c-.09,3.84,3.23,7.16,7.06,7.07,0,0,52.87,0,52.87,0,1.94,0,3.59.61,4.81,1.84,1.22,1.21,1.86,2.87,1.86,4.84v183.42c-.08,3.92,3.16,7.19,7.08,7.11,0,0,51.71,0,51.71,0,3.95.08,6.75-3.25,6.69-7.11,0,0,0-183.42,0-183.42,0-1.98.69-3.63,2.04-4.84,1.4-1.22,3.07-1.84,5.05-1.84h52.85c3.82.08,7.14-3.24,7.05-7.07,0,0,0-49.14,0-49.14ZM1911.62,1654.82H.28L955.99,0l955.63,1654.82ZM730.42,484.64h451.13l-225.57-390.58-225.57,390.58ZM532.61,1606.91l-225.17-389.89-225.18,389.89h450.35ZM1322.32,1606.91l253.67-439.19-366.76-635.18h-506.46l-368.16,637.45,252.32,436.93h735.39ZM1376.66,1606.91h453.02l-226.52-392.2-226.5,392.2ZM1488.85,1544.65h228.54l-114.27-197.86-114.27,197.86ZM1603.12,1298.85l155.77,269.77h-311.57l155.8-269.77M193.38,1544.65h228.53l-114.26-197.86-114.27,197.86ZM307.65,1298.85l155.77,269.77H151.88l155.77-269.77M841.73,419.42h228.53l-114.27-197.86-114.26,197.86ZM955.99,173.62l155.8,269.76h-311.57l155.77-269.76" style="fill:#c0d730; opacity:.25;"/></svg>