<?xml version="1.0" encoding="UTF-8"?><svg id="a" xmlns="http://www.w3.org/2000/svg" viewBox="0 0 2000 2000"><path d="M1334.72,1058.4c-1.66-1.91-7.13-3.76-13.29-6.3-6.16-2.54-13.1-5.72-17.73-10.36-9.18-9.23-10.84-21.85-4.3-33.11,3.27-5.64,9.13-10.53,14.5-14.6,5.34-4.08,10.14-7.33,11.29-9.59,1.14-2.3,1.35-4.73.75-6.98-.6-2.24-2-4.26-4.14-5.69-2.1-1.39-7.88-1.79-14.53-2.58-6.65-.84-14.19-2.11-19.86-5.36-11.26-6.52-16.16-18.27-12.72-30.86,1.67-6.29,6.22-12.67,10.44-18.09,4.24-5.41,8.16-9.89,8.66-12.38.52-2.5.08-4.91-1.08-6.94-1.17-2-3.04-3.57-5.45-4.39-2.44-.81-8.2.43-14.97,1.47-13.57,2.35-26.89,1.77-35.69-9.45-8.7-11.73-5.51-24.57.5-37.37,2.92-6.51,5.8-12,5.63-14.54-.18-2.56-1.21-4.78-2.85-6.41-1.64-1.66-3.85-2.67-6.4-2.85-2.57-.17-8.08,2.7-14.57,5.62-12.86,5.99-25.69,9.14-37.36.41-11.25-8.76-11.77-22.24-9.41-35.69,1.04-6.76,2.3-12.55,1.48-14.97-.84-2.41-2.39-4.31-4.39-5.47-2.01-1.14-4.42-1.59-6.94-1.1-2.5.52-6.98,4.44-12.41,8.68-5.45,4.22-11.8,8.74-18.08,10.43-12.64,3.4-24.31-1.49-30.85-12.77-3.25-5.69-4.53-13.2-5.34-19.86-.82-6.63-1.17-12.42-2.59-14.53-1.42-2.13-3.44-3.53-5.64-4.16-2.24-.57-4.72-.36-7,.76-2.28,1.14-5.54,5.94-9.61,11.26-7.84,10.88-18.15,20.03-31.96,18.22-13.88-1.92-21.28-13.33-26.07-25.83-2.55-6.18-4.39-11.63-6.31-13.3-3.83-3.38-9.25-3.39-13.1-.02-1.91,1.7-3.77,7.12-6.31,13.3-2.51,6.18-5.72,13.1-10.33,17.71-9.22,9.25-21.83,10.9-33.11,4.33-5.64-3.25-10.55-9.11-14.63-14.47-4.07-5.34-7.29-10.16-9.6-11.29-4.55-2.29-9.79-.85-12.65,3.38-1.4,2.13-1.76,7.88-2.58,14.54-.82,6.65-2.11,14.17-5.34,19.83-6.53,11.27-18.27,16.13-30.86,12.75-6.29-1.7-12.66-6.22-18.09-10.47-5.43-4.22-9.89-8.16-12.4-8.66-2.5-.52-4.91-.09-6.94,1.08-2,1.14-3.57,3.03-4.42,5.47-.8,2.41.45,8.21,1.49,14.94,1.04,6.79,1.86,14.5.18,20.81-3.38,12.57-13.46,20.32-26.52,20.28-6.51,0-13.98-2.97-20.48-5.87-6.49-2.91-12-5.79-14.54-5.62-5.1.31-8.92,4.13-9.27,9.24-.17,2.54,2.72,8.06,5.63,14.54,2.9,6.51,5.86,14,5.86,20.51.01,13.03-7.77,23.11-20.34,26.49-6.31,1.66-14.04.84-20.81-.22-6.74-1.03-12.53-2.31-14.97-1.46-4.82,1.62-7.55,6.29-6.54,11.32.52,2.51,4.44,6.98,8.66,12.41,4.22,5.43,8.75,11.78,10.45,18.09,3.36,12.55-1.49,24.36-12.79,30.82-5.65,3.25-13.18,4.54-19.83,5.34-6.66.82-12.45,1.16-14.57,2.58-4.25,2.85-5.64,8.05-3.4,12.64,1.14,2.28,5.94,5.54,11.29,9.61,5.31,4.08,11.19,8.98,14.47,14.63,6.5,11.31,4.86,23.88-4.38,33.1-4.6,4.61-11.52,7.82-17.7,10.34-6.18,2.54-11.63,4.37-13.34,6.29-1.7,1.94-2.52,4.24-2.52,6.54-.02,2.33.82,4.63,2.52,6.54,1.69,1.93,7.13,3.77,13.31,6.34,6.18,2.52,13.07,5.73,17.68,10.34,9.24,9.2,10.89,21.8,4.35,33.1-3.27,5.62-9.15,10.56-14.5,14.6-5.34,4.05-10.14,7.3-11.29,9.58-2.26,4.62-.87,9.78,3.39,12.66,2.13,1.4,7.9,1.76,14.53,2.61,6.65.8,14.19,2.09,19.83,5.34,11.29,6.5,16.15,18.27,12.76,30.84-1.69,6.32-6.23,12.69-10.45,18.09-4.24,5.43-8.18,9.89-8.68,12.41-1.03,4.99,1.73,9.72,6.52,11.32,2.44.84,8.24-.4,15-1.44,6.74-1.05,14.49-1.87,20.78-.19,12.63,3.39,20.34,13.44,20.3,26.52-.02,6.51-2.97,13.99-5.88,20.5-2.92,6.47-5.79,11.97-5.65,14.51.33,5.12,4.15,8.94,9.24,9.27,2.56.17,8.05-2.69,14.56-5.6,6.48-2.91,13.98-5.88,20.48-5.88,13.05.03,23.14,7.71,26.49,20.35,1.66,6.29.84,14.02-.19,20.76-1.03,6.78-2.31,12.55-1.5,14.99.84,2.41,2.41,4.29,4.42,5.47,2,1.14,4.43,1.57,6.93,1.08,2.5-.49,6.98-4.41,12.4-8.66,5.44-4.22,11.81-8.76,18.12-10.44,12.58-3.34,24.33,1.49,30.81,12.82,3.26,5.64,4.55,13.17,5.35,19.83.82,6.66,1.16,12.43,2.58,14.57,2.81,4.24,8.07,5.63,12.62,3.36,2.31-1.12,5.54-5.94,9.62-11.26,4.07-5.31,8.99-11.2,14.63-14.47,11.32-6.49,23.86-4.85,33.1,4.37,4.59,4.61,7.8,11.53,10.32,17.73,2.52,6.18,4.39,11.63,6.31,13.3,3.82,3.39,9.23,3.39,13.07.02,1.92-1.68,3.79-7.15,6.33-13.33,4.8-12.51,12.28-23.94,26.13-25.77,13.91-1.81,24.07,7.43,31.94,18.22,4.07,5.34,7.3,10.15,9.58,11.29,2.31,1.14,4.73,1.34,6.98.76,2.24-.61,4.25-2.01,5.66-4.12,1.42-2.13,1.79-7.91,2.61-14.56.81-6.66,2.09-14.19,5.34-19.84,6.53-11.29,18.27-16.15,30.86-12.75,6.32,1.68,12.69,6.23,18.08,10.47,5.43,4.25,9.89,8.17,12.41,8.66,2.5.51,4.91.06,6.92-1.08,2-1.16,3.6-3.04,4.42-5.45.81-2.41-.43-8.22-1.47-14.99-2.37-13.62-1.82-26.82,9.46-35.67,11.57-8.7,24.69-5.57,37.37.5,6.47,2.91,11.99,5.77,14.53,5.62,2.54-.17,4.78-1.23,6.41-2.87,1.62-1.61,2.7-3.85,2.85-6.39.15-2.54-2.69-8.06-5.62-14.57-6.01-12.78-9.12-25.77-.41-37.36,8.7-11.21,22.28-11.78,35.69-9.39,6.74,1.04,12.53,2.28,14.97,1.48,2.41-.82,4.31-2.41,5.48-4.42,1.14-2,1.57-4.42,1.07-6.92-.51-2.51-4.43-7.02-8.66-12.42-8.65-10.63-14.89-22.66-9.54-35.8,5.33-12.87,18.46-17.16,31.72-18.48,6.63-.79,12.43-1.16,14.56-2.58,2.11-1.39,3.53-3.43,4.14-5.64.6-2.24.36-4.68-.76-6.98-1.14-2.31-5.94-5.53-11.26-9.6-5.34-4.07-11.22-9-14.5-14.64-6.5-11.29-4.83-23.89,4.39-33.08,4.61-4.59,11.55-7.8,17.71-10.34,6.18-2.51,11.63-4.37,13.31-6.29,3.39-3.85,3.38-9.25,0-13.1ZM721.93,1081.23c-9.12-.01-16.54-7.41-16.54-16.58.87-21.89,32.24-21.88,33.08.05,0,9.11-7.43,16.54-16.54,16.54ZM1184.86,856.65c16.09-15.03,38.29,7.26,23.37,23.38-3.21,3.19-7.45,4.84-11.7,4.84-14.53-.02-22.1-17.78-11.67-28.22ZM999.97,770.48c9.16,0,16.54,7.39,16.54,16.54-.85,21.93-32.23,21.92-33.08,0,0-9.14,7.39-16.54,16.55-16.54ZM791.68,856.48c16.11-14.91,38.26,7.34,23.37,23.43-3.26,3.19-7.43,4.85-11.7,4.85-14.54.04-22.07-17.91-11.67-28.28ZM815.27,1273.61c-3.25,3.25-7.5,4.84-11.74,4.84-14.56-.02-22.95-18.15-12.23-28.84,16.01-15,38.99,7.93,23.97,24ZM1000.25,1359.5c-9.15,0-16.54-7.39-16.58-16.54.81-21.88,32.25-22,33.12-.07,0,9.15-7.43,16.54-16.54,16.61ZM1208.44,1273.16c-3.26,3.25-7.5,4.84-11.74,4.84-14.46.09-22.09-17.91-11.69-28.21,16.07-14.96,38.28,7.34,23.43,23.37ZM1174.11,1239.21c-91.6,95.57-257.25,95.58-348.87,0-95.57-91.63-95.57-257.26-.02-348.89,91.64-95.58,257.28-95.59,348.94-.02,96.18,96.2,96.16,252.71-.05,348.91ZM1294.4,1064.87c0,9.11-7.39,16.48-16.54,16.54-21.92-.89-21.95-32.22,0-33.08,9.17-.07,16.58,7.42,16.54,16.54ZM1081.11,1175.4h.19s.03.01.05.05l-.24-.05ZM1121.11,943.33c-107.82-107.49-293.05-31.1-293.07,121.44-1.89,92.41,79.23,173.53,171.65,171.64,152.52-.05,228.93-185.26,121.42-293.08ZM1144.16,1089.74c-6.5,8.76-19.45,12.92-29.59,8.27-4.24-2.05-7.54-5.64-10.4-8.93-3.17-3.57-7.09-9.04-10.02-12.84-2.83-3.65-6.58-9.03-9.71-12.32-1.21-1.18-2.1-1.4-2.93-1.4-4.82.32-9.07,3.34-13.77,6.88-3.76,2.98-7.57,6.57-11,10.3,6.3,5.62,12.58,11.5,17.48,18.69,4.39,6.25,7.64,14.98,5.84,23.03-.62,2.86-1.69,5.38-3.12,7.75,0,0-.93,1.72-.93,1.72-2.5,4.59-4.86,9.2-6.75,13.83-3.01,7.33-7.09,18.71-.39,24.46,3.17,2.83,8,4.96,12.46,6.24,1.78.09,3.6-.24,5.32-.81,4.43-1.5,7.87-5.16,9.67-9.43,4.15-8.8-2.4-14.99-11.19-14.71-2.07.12-4.03.3-5.95,1.01-1.35.7-3.02.21-3.81-1.14-.96-1.54-.24-3.69,1.47-4.2,7.9-3.8,18.49-1.64,23.88,5.41,3.76,5.08,3.23,11.97.56,17.36-2.92,6.7-9,12.09-16.29,13.68-1.57.24-3.08.57-4.71.5,0,0-.17,0-.17,0l-.32-.06c-19.27-4.19-27.51-13.82-24.74-33.73.25-8.28,12.67-35.45-2.63-39.44,0,0-.02-.04-.09-.04-1.55-.49-27.13-7.69-61.32,24.13-10.73,9.86,7.24,25.41,7.24,25.41,6.92,7.36,20,17.84,18.69,29.18-1.04,10.02-8.83,18.93-18.39,21.71-7.83,2.21-16.06-.92-21.36-6.77-6.06-6.03-7.13-14.94-1.88-21.8,1.81-2.52,4.2-4.54,6.93-5.99,2.63-1.42,5.72-2.28,8.99-1.98.65-.02,1.38.23,1.92.75.99,1.01,1.01,2.59.08,3.51-.64.63-1.55.82-2.35.58-2.02-.32-4.35.24-6.41,1.32-4,2.07-7.44,6.3-7.58,10.87-.29,6.85,7.03,12.76,13.2,13.85,3.86.63,7.93-.72,11.01-3.09.32-.3.96-.69,1.14-.99,0,0-.11.15-.11.15l.39-.36c3.28-3.04,5.66-7.47,5.82-11.9.02-1.78-.43-3.15-1.42-4.78-4.12-6.04-10.68-10.48-16.58-15.31-3.29-2.51-8.58-6.68-11.74-9.22-15.39-13.25-4.17-35.55,3.9-49.32.53-.58-23.76,11.21-32.88,12.37-5.02,1.24-10.35,1.6-15.53.97-3.88-.44-7.83-1.72-11.58-2.63-4.99-1.1-9.74-2.2-14.59-1.9-3.28.13-5.65,1.18-8.93,2.52-1.22.49-2.57.91-3.83,1.38-3.56,1.5-6.56,4.78-8.28,8.45-1.6,4.21-1.71,9.89.73,13.61,2.8,4.53,10.37,7.42,15.55,6.89,9.48-1.07,11.71-14.07,6.61-21.11-.84-.75-.71-2.2.26-3.21,1.04-1,2.54-1.05,3.36-.11,2.87,3.21,4.46,7.24,4.9,11.4,1.22,16.34-12.08,24.54-26.88,18.95-12.74-4.23-17.47-16.44-14.11-29.1,2.22-6.58,6.74-12.38,13.2-15.69.44-.22,1.2-.58,1.64-.76,2.66-1.09,4.65-2.38,7.7-3.6,4.09-1.69,8.89-2.25,13.23-2.22,6.42.13,12.27,1.14,18.39,2.24,1.27.17,2.58.35,3.85.41,9.18.29,17.87-4.11,24.6-10.26,2.58-2.03,4.86-4.3,5.99-6.41,1.81-3.34,2.09-4.59.22-4.85-1.55-.17-4.59.35-9.48.93-4.38.55-8.82,1.04-13.16,1.5-9.03.68-19.49,3.69-27.74-2.31-4.29-2.89-6.86-7.84-8.05-12.59-2-6.98-4.88-13.84-8.21-20.16-3.06-5.74-6.88-10.19-13.48-10.73-9.54-.76-18.28,6.23-17.1,16.44.17,1.83.74,3.79,1.42,5.55,1.57,3.96,5.41,6.14,9.86,5.96,6.41-.03,13.12-4.54,13.7-11.22,1.18-2.95,5.62-1.37,4.65,1.59-2.05,15.7-26.38,21.56-33.76,6.63-5.25-10.64-2.85-22.69,7.36-29.39,8.07-5.01,19.33-5.51,27.24.43,7.06,5.38,10.51,12.7,14.3,20.05,1.7,3.47,3.27,6.91,5.17,10.25.99,1.9,1.58,2.78,2.39,3.55,2.53,2.43,5.57,3.41,9.13,3.77,5.07.54,10.45-2.37,14.5-5.56,0,0,3.34-2.07,6.31-6.35-5.89-10.98-6.95-23.63-3.03-34.46-2.72-3.27-5.38-6.7-7.8-10.4-6.8-10.07-12.25-24.43-6.01-36.22,2.33-4.85,4.05-11.03,4.15-16,.27-3.59-.66-5.07-2.5-7.97-7.25-9.34-23.46-11.79-27.05,2.27-1.3,3.86-1.73,8.54,1.96,11.12,4.29,3.18,11.94,2.81,16.45.1.75-.5,1.93-.32,2.76.47.9.94,1.03,2.44.1,3.16-3.08,2.75-7.01,4.08-11.01,4.57-14.51,1.41-22.4-8.89-18.32-22.96,4.1-15.87,20.46-20.24,34.16-13.16,4.92,2.48,8.94,6.01,11.95,10.85,5.38,7.47,2.68,17.38,1.14,25.18-.59,2.95-1.2,6.02-1.59,9-.48,6.62,4.48,12.25,9.37,16.71,2.04,1.76,4.22,3.5,6.51,5.07,14.99-9.93,36.05-7.99,51.17,5.18,6.58-4.21,12.16-11.88,15.06-19.21,1.93-5.83.83-10.59-3.68-14.6,0,0-1.38-1.38-1.38-1.38-5.69-5.65-11.65-10.22-18.22-15.16-4.86-3.67-10.51-8.53-11.03-15.46-1.52-13.27,8.82-27.52,22.63-27.82,6.47-.01,12.8,2.97,17.23,7.39,7.62,7.64,5.28,19.53-2.61,25.99-2.41,1.96-5.43,3.51-8.81,3.74l-.05-.05c-.12.05-.26.04-.39.04-1.25.11-2.32-.93-2.41-2.28-.08-1.44,1.06-2.62,2.38-2.56,2.07-.24,4.12-1.38,5.82-2.92,4.91-4.41,6.77-12.55,1.44-17.3-7.24-6.09-16.81-6.54-22.68,1.55-2.75,3.8-4.38,8.97-3.33,13.55.32,1.44,1.01,2.37,2.11,3.53,1.42,1.45,3.47,2.91,5.62,4.39,7.88,5.17,16.24,11.07,23.26,17.68,7.03,6.41,7.98,15.82,6.48,24.53-1.39,8.91-4.91,17.18-8.89,25.14-7.58,21.95,16.42-3.14,20.5-9.17,3.52-4.75,6.04-9.65,7.3-15.18.62-2.74,1.8-8.93,2.34-11.7.93-4.62,2.1-11.43,3.53-16,2.36-8.47,9-15.84,17.19-18.97,2.79-1.17,5.43-2.01,8.44-2.62,6.56.49,12.87,3.23,17.21,8.29,6.15,7.09,8.81,19.57,1.46,26.7-6.77,6.45-19.77,7.72-27.03,1.27-2.55-2.6.73-6,3.43-3.49,1.43,1.51,3.85,2.46,6.35,2.87,8.8,1.21,18.63-3.57,16.86-13.75-.98-6.34-4.83-12.17-10.92-14.6-2.14-1-4.53-1.55-6.89-1.73-.98.24-2.11.61-3.14.97-4.35,1.65-8.77,3.98-11.67,7.56-2.12,2.83-3.64,5.81-4.32,9.35-1.45,7.14-1.33,15.42-1.28,22.98,0,0,.09,3.95.09,3.95,0,7.56-2.35,15.18-5.32,21.8-4.95,10.93-11.78,20.6-19.21,29.85,11.38-6.5,27.34-14.18,40.59-8.11,3.81,1.73,7.15,5.12,9,8.59,1.01,2.21,2.61,5.03,3.79,7.18,3.52,6.54,7.45,14.52,11.29,20.59,4,6.31,7.82,9.81,15.66,8.74,13.04-2.13,19.12-13.68,11.33-25.54-4.28-6.17-12.86-5.17-17.96-.56-1.73,1.47-2.99,3.36-3.45,5.32-.34,1.87-2.85,2.7-4.18,1.27-.76-.7-.9-1.87-.45-2.77,1.89-6.09,7.06-10.1,12.88-11.92,6.25-1.86,13.36.04,17.36,5.43,5.77,7.34,7.17,18.66,1.25,26.38ZM1220.66,974.95c-48.2-121.23-190.33-180.87-310.78-131.16-197.2,80.35-197.22,361.57,0,441.94,56.79,23.2,122.8,23.2,179.59,0,121.27-48.24,180.84-190.29,131.19-310.78ZM1220.65,1036.72l-27.31,3.45c-.3-2.31-.63-4.59-1.01-6.89l27.18-4.46c.41,2.63.79,5.25,1.14,7.91ZM1214.45,1005.58l-26.58,7.23c-.62-2.21-1.25-4.46-1.93-6.65l26.25-8.25c.77,2.54,1.55,5.1,2.26,7.67ZM1203.86,975.58l-25.22,11c-.92-2.13-1.9-4.26-2.91-6.37l24.83-11.89c1.14,2.44,2.23,4.83,3.3,7.26ZM1179.54,1064.77c-.09,159.8-194.08,239.82-307.08,127.23-69.7-66.85-69.73-187.62-.02-254.46,113-112.63,307.07-32.63,307.1,127.23ZM1189.15,947.43l-23.43,14.46c-1.23-1.99-2.48-3.95-3.8-5.84l22.87-15.34c1.51,2.2,2.95,4.44,4.35,6.72ZM1170.5,921.65l-21.11,17.66c-1.49-1.79-3.02-3.53-4.54-5.25l20.44-18.43c1.74,1.96,3.5,4.01,5.21,6.03ZM1133.56,904.18l8.93-10.49c2.13,1.81,4.02,3.43,5.88,5.13l-18.37,20.48c-1.64-1.47-3.3-2.9-5.02-4.35l8.58-10.78ZM1116.62,875.06c2.24,1.38,4.43,2.79,6.68,4.27l-15.23,22.9c-1.96-1.29-3.92-2.54-5.9-3.76l14.46-23.41ZM1088.41,860.35c2.44,1.04,4.83,2.13,7.24,3.27l-11.83,24.85c-2.09-.98-4.22-1.96-6.33-2.89l10.91-25.24ZM1058.46,849.84c2.56.69,5.08,1.45,7.6,2.24l-8.17,26.28c-2.2-.71-4.43-1.35-6.65-1.93l7.22-26.59ZM1027.3,843.73c2.63.32,5.24.69,7.86,1.12l-4.35,27.15c-2.29-.36-4.59-.69-6.89-.96l3.38-27.31ZM1003.52,842.04l-.41,27.53c-2.32-.04-4.67-.02-7,.02l-.52-27.49c2.63-.09,5.28-.08,7.93-.05ZM971.82,843.79l3.44,27.31c-2.31.31-4.61.6-6.92,1l-4.37-27.18c2.58-.41,5.23-.8,7.84-1.12ZM940.67,849.97l7.26,26.53c-2.24.63-4.49,1.28-6.7,1.96l-8.18-26.25c2.52-.82,5.06-1.53,7.62-2.24ZM910.72,860.51l10.91,25.28c-2.13.91-4.26,1.88-6.35,2.86l-11.84-24.85c2.43-1.14,4.82-2.24,7.28-3.3ZM882.5,875.21l14.45,23.44c-1.96,1.22-3.94,2.48-5.86,3.77l-15.29-22.87c2.2-1.49,4.43-2.93,6.7-4.33ZM856.7,893.85l17.68,21.11c-1.79,1.49-3.55,3.01-5.28,4.56l-18.41-20.44c1.97-1.82,3.96-3.54,6-5.24ZM828.79,921.8c1.66-1.98,3.34-3.97,5.06-5.88l20.48,18.39c-1.51,1.67-2.97,3.4-4.46,5.14l-.45.52-7.76-7.18-13.01-10.87.13-.13ZM814.38,940.99l22.87,15.32c-1.29,1.93-2.54,3.88-3.77,5.86l-23.41-14.5c1.41-2.24,2.82-4.48,4.31-6.68ZM798.64,968.61l24.85,11.88c-1.01,2.08-1.98,4.18-2.91,6.33l-25.22-10.97c1.03-2.44,2.13-4.84,3.27-7.24ZM787.03,998.22l26.28,8.18c-.67,2.17-1.31,4.42-1.94,6.65l-26.55-7.24c.69-2.54,1.44-5.08,2.21-7.6ZM779.77,1029.12l27.18,4.35c-.35,2.28-.69,4.59-.97,6.87l-27.34-3.35c.35-2.64.71-5.26,1.12-7.87ZM777.02,1060.69l27.5.51c-.05,2.35-.05,4.66,0,6.98l-27.5.5c-.07-2.68-.07-5.31,0-7.99ZM778.7,1092.41l27.31-3.4c.28,2.31.63,4.61.99,6.89l-27.17,4.39c-.43-2.63-.8-5.24-1.12-7.88ZM784.83,1123.58l26.55-7.22c.65,2.22,1.28,4.49,1.96,6.68l-26.28,8.18c-.8-2.54-1.53-5.07-2.24-7.64ZM795.37,1153.55l25.26-10.91c.91,2.13,1.87,4.23,2.89,6.37l-24.85,11.81c-1.16-2.4-2.24-4.81-3.3-7.27ZM810.06,1181.75l23.43-14.41c1.23,1.99,2.48,3.92,3.77,5.89l-22.9,15.26c-1.48-2.19-2.9-4.45-4.3-6.74ZM828.66,1207.59l21.11-17.66c1.49,1.79,3.02,3.53,4.56,5.25l-20.48,18.42c-1.74-1.98-3.48-3.98-5.19-6.01ZM857.22,1236.04c-2.32-1.87-4.43-3.74-6.48-5.58,0,0,18.35-20.5,18.35-20.5,1.94,1.71,3.9,3.43,5.9,5.08,0,0-17.77,20.99-17.77,20.99ZM883.08,1254.65c-2.21-1.4-4.46-2.82-6.68-4.28l15.21-22.94c1.96,1.31,3.9,2.56,5.89,3.74l-14.43,23.48ZM911.28,1269.3c-2.41-1.04-4.83-2.13-7.22-3.26l11.78-24.88c2.11.99,4.22,1.94,6.37,2.87l-10.94,25.26ZM941.3,1279.76c-2.56-.69-5.11-1.42-7.64-2.19l8.14-26.3c2.2.69,4.42,1.31,6.66,1.92l-7.15,26.57ZM972.44,1285.84c-2.61-.32-5.25-.69-7.84-1.13l4.29-27.17c2.31.38,4.59.7,6.89.97l-3.34,27.33ZM996.22,1287.46l.41-27.53c2.31.04,4.66.04,6.96-.02l.57,27.51c-2.65.05-5.3.08-7.94.04ZM1027.93,1285.66l-3.51-27.29c2.33-.3,4.63-.61,6.93-1.01l4.43,27.16c-2.6.43-5.23.83-7.85,1.14ZM1059.07,1279.43l-7.3-26.52c2.24-.63,4.46-1.29,6.7-1.98l8.25,26.27c-2.54.8-5.08,1.53-7.64,2.24ZM1089.03,1268.85l-10.98-25.25c2.1-.93,4.25-1.86,6.32-2.88l11.89,24.84c-2.37,1.14-4.8,2.23-7.23,3.29ZM1117.17,1254.09l-14.47-23.41c1.99-1.2,3.94-2.48,5.88-3.77l15.33,22.85c-2.24,1.49-4.48,2.95-6.74,4.33ZM1142.97,1235.41l-17.7-21.06c1.76-1.52,3.51-3.02,5.23-4.59l18.46,20.44c-1.96,1.79-3.98,3.5-5.99,5.21ZM1170.8,1207.49c-1.78,2.13-3.4,3.98-5.02,5.81l-20.54-18.32c1.44-1.62,2.87-3.23,4.24-4.92l21.54,17.18-.22.26ZM1185.18,1188.19l-22.87-15.28c1.29-1.93,2.54-3.87,3.74-5.86l23.41,14.46c-1.38,2.27-2.79,4.47-4.29,6.68ZM1200.88,1160.58l-24.83-11.87c1-2.09,1.93-4.19,2.86-6.3l25.25,10.91c-1.01,2.44-2.13,4.85-3.28,7.27ZM1212.45,1130.95l-26.27-8.11c.67-2.24,1.31-4.48,1.91-6.72l26.58,7.22c-.69,2.54-1.42,5.06-2.22,7.6ZM1219.66,1099.99l-27.2-4.26c.39-2.29.69-4.59.97-6.92l27.31,3.36c-.29,2.63-.67,5.24-1.08,7.82ZM1194.87,1067.97c.05-2.31.05-4.63,0-6.94l27.51-.58c.06,2.65.06,5.32,0,7.98l-27.51-.46ZM432.26,1674.96c2.83-.07,4.86,2.36,4.8,5.11,0,0,0,35.39,0,35.39,0,1.44-.43,2.65-1.32,3.64-.9.99-2.07,1.49-3.48,1.49h-115.83c-3.43,0-5.11-1.72-5.11-5.12v-177.49c0-3.37,1.68-5.1,5.11-5.1h37c3.38,0,5.09,1.72,5.09,5.1v132.19c0,1.42.49,2.57,1.48,3.47.97.9,2.18,1.33,3.62,1.33h68.64ZM646.07,1534.36c-.97-1-2.2-1.49-3.62-1.49h-37.26c-2.8-.06-5.16,2.3-5.11,5.11,0,0,0,132.19,0,132.19,0,1.42-.45,2.65-1.33,3.6-.88.98-2.07,1.48-3.49,1.48h-53.09c-2.79.06-5.15-2.28-5.08-5.08,0,0,0-132.19,0-132.19.06-2.79-2.33-5.16-5.11-5.11,0,0-37,0-37,0-2.8-.06-5.15,2.32-5.11,5.11v146.4c0,1.44.18,3.05.54,4.82.34,1.81.9,3.32,1.61,4.59l24.67,24.66c2.4,1.39,6.64,2.15,9.39,2.15,0,0,84.98,0,84.98,0,2.74,0,7.28-.75,9.67-2.15,0,0,24.67-24.66,24.67-24.66.53-1.1.97-2.44,1.33-4.03.36-1.62.54-3.15.54-4.57h.26v-147.2c0-1.44-.5-2.62-1.46-3.61M769.01,1674.96c-2.77.06-5.16-1.96-5.09-4.8,0,0,0-132.19,0-132.19,0-3.37-1.7-5.1-5.11-5.1h-37c-3.4,0-5.08,1.72-5.08,5.1v177.49c0,3.4,1.68,5.12,5.08,5.12h115.83c2.84.06,4.89-2.35,4.83-5.12,0,0,0-35.39,0-35.39,0-1.42-.43-2.62-1.34-3.62-.91-.99-2.07-1.49-3.49-1.49h-68.63ZM1038.5,1537.97c.04-2.79-2.33-5.16-5.11-5.11,0,0-131.65,0-131.65,0-1.45,0-2.65.5-3.61,1.49-1,.98-1.49,2.17-1.49,3.61v31.92c-.05,2.79,2.3,5.14,5.11,5.09h85.53s-89.02,98.14-89.02,98.14c-1.77,2.01-3.26,6.11-3.23,8.82,0,0,0,33.52,0,33.52,0,3.4,1.72,5.13,5.11,5.13h133.27c1.42,0,2.63-.5,3.6-1.49.99-.99,1.51-2.2,1.51-3.64v-31.9c0-1.42-.52-2.62-1.51-3.61-.97-1-2.17-1.47-3.6-1.47h-85.54l87.16-98.14c.86-1.08,1.69-2.42,2.39-4.01.73-1.61,1.1-3.13,1.1-4.56v-33.79ZM1150.55,1643.07h72.13v36.48h-72.13v-36.48ZM1150.55,1573.64h72.13v33.51h-72.13v-33.51ZM1263.43,1559.68l-24.66-24.66c-1.27-.53-2.82-1.04-4.7-1.49-1.9-.43-3.53-.67-4.96-.67h-116.1c-2.8-.06-5.16,2.31-5.11,5.1v177.49c0,3.4,1.7,5.13,5.11,5.13h116.1c1.42,0,3.06-.19,4.96-.56,1.88-.34,3.43-.91,4.7-1.59l24.66-24.66c1.04-2.45,2.19-6.67,2.16-9.41v-31.62c0-1.44-.37-3.02-1.08-4.7-.71-1.7-1.52-3.1-2.41-4.15l-10.98-13.42c-1.86-1.72-2.05-5.86-.29-7.77,0,0,11.53-14.75,11.53-14.75.91-1.05,1.66-2.44,2.28-4.16.63-1.67.95-3.25.95-4.69v-29.77c.03-2.67-1.12-7.23-2.16-9.65M1380.59,1578.48h63.02v96.77h-63.02v-96.77ZM1488.94,1559.68l-24.68-24.66c-1.25-.53-2.82-1.04-4.7-1.49-1.85-.43-3.53-.67-4.96-.67h-85c-1.42,0-3.03.23-4.83.67-1.79.45-3.29.95-4.54,1.49l-24.68,24.66c-1.41,2.39-2.14,6.67-2.13,9.39,0,0,0,115.29,0,115.29,0,2.78.73,6.99,2.13,9.41,0,0,24.68,24.66,24.68,24.66,2.39,1.4,6.65,2.15,9.37,2.16,0,0,85,0,85,0,2.73,0,7.28-.76,9.65-2.16l24.68-24.66c.54-1.27,1.01-2.78,1.47-4.59.45-1.76.69-3.38.69-4.82v-115.29c.04-2.68-1.13-6.96-2.16-9.39M1688.68,1537.97c.07-2.8-2.32-5.16-5.08-5.11,0,0-133.27,0-133.27,0-3.4,0-5.09,1.73-5.09,5.11v35.41c-.06,2.77,2.33,5.16,5.09,5.1,0,0,38.1,0,38.1,0,1.4,0,2.58.44,3.47,1.32.88.87,1.34,2.07,1.34,3.49v132.17c-.05,2.82,2.28,5.18,5.11,5.12,0,0,37.26,0,37.26,0,2.85.06,4.87-2.34,4.82-5.12,0,0,0-132.17,0-132.17,0-1.42.5-2.61,1.47-3.49,1.01-.88,2.21-1.32,3.64-1.32h38.08c2.75.06,5.15-2.33,5.08-5.1,0,0,0-35.41,0-35.41ZM1688.61,1471.85H311.32L999.99,279.42l688.61,1192.44ZM837.45,628.64h325.08l-162.54-281.44-162.54,281.44ZM694.91,1437.33l-162.25-280.95-162.26,280.95h324.51ZM1263.96,1437.33l182.79-316.48-264.28-457.7h-364.94l-265.29,459.34,181.81,314.84h529.91ZM1303.12,1437.33h326.44l-163.23-282.61-163.21,282.61ZM1383.97,1392.46h164.68l-82.34-142.57-82.34,142.57ZM1466.31,1215.35l112.24,194.39h-224.51l112.27-194.39M450.47,1392.46h164.67l-82.33-142.57-82.34,142.57ZM532.81,1215.35l112.24,194.39h-224.49l112.24-194.39M917.66,581.65h164.67l-82.34-142.57-82.33,142.57ZM999.99,404.53l112.27,194.38h-224.51l112.24-194.38" style="fill:#c0d730; opacity:.25;"/><rect width="146.61" height="1999.99" style="fill:#d63232; opacity:.5;"/><path d="M39.37,1816.51h48.01c17.44,0,27.04,10.46,27.04,27.67s-9.6,27.67-27.04,27.67h-48.01M68.61,1787.18c-7.73-7.78-15.45-16.2-15.45-27.55,0-9.82,5.85-14.92,15.45-14.92h45.81M53.16,1787.18h61.26M65.86,1718.06c-8.39-4.21-12.69-10.59-12.69-21.43,0-14.79,8.83-19.77,19.54-19.77h26.49c4.53,0,11.15-.13,15.23-.51M100.07,1676.87c8.06,7.01,14.35,15.56,14.35,26.53,0,12.12-7.51,17.73-15.56,17.73-12.58,0-18.43-10.71-18.43-36.47v-7.78M53.16,1658.5l60.71-26.65v-.51l-60.71-26.27M65.86,1587.98c-8.39-4.21-12.69-10.59-12.69-21.43,0-14.79,8.83-19.77,19.54-19.77h26.49c4.53,0,11.15-.13,15.23-.51M100.07,1546.79c8.06,7.01,14.35,15.56,14.35,26.53,0,12.12-7.51,17.73-15.56,17.73-12.58,0-18.43-10.71-18.43-36.47v-7.78M39.59,1518.22h-3.07M114.42,1518.22h-61.26M32.19,1488.25h70.42c7.95,0,11.81-3.7,11.81-10.97,0-1.66-.22-3.06-.44-3.95M65.86,1455.6c-8.39-4.21-12.69-10.59-12.69-21.43,0-14.79,8.83-19.77,19.54-19.77h26.49c4.53,0,11.15-.13,15.23-.51M100.07,1414.41c8.06,7.01,14.35,15.56,14.35,26.53,0,12.12-7.51,17.73-15.56,17.73-12.58,0-18.43-10.71-18.43-36.47v-7.78M67.95,1386.1c-10.6-6.89-14.79-15.43-14.79-24.74,0-15.56,11.92-24.1,30.46-24.1,16.23,0,30.79,6.89,30.79,24.23,0,10.84-5.74,19.13-15.12,24.61M114.42,1386.1H32.19M32.19,1313.66h70.42c7.95,0,11.81-3.7,11.81-10.97,0-1.66-.22-3.06-.44-3.95M80.76,1283.82v-48.97c-12.36,0-27.59,4.72-27.59,23.21,0,15.94,11.48,26.02,30.9,26.02,17.55,0,30.35-8.16,30.35-26.4,0-11.99-5.63-18.62-12.14-21.81M59.12,1187.02v-33.54M41.57,1174.27h59.93c9.05,0,12.91-4.46,12.91-12.37,0-4.34-1.21-7.91-2.98-10.2M53.16,1111.52c0,20.92,18.87,26.14,30.9,26.14,14.9,0,30.35-7.91,30.35-26.27s-15.45-26.27-30.35-26.27c-12.03,0-30.9,5.23-30.9,26.14M102.39,1030.92c7.28-3.57,12.03-12.5,12.03-24.23,0-15.18-8.17-24.36-17.99-24.36-22.19,0-18.87,46.8-40.07,46.8-8.72,0-17-7.91-17-23.47,0-10.97,4.19-17.73,9.93-20.79M80.76,964.22v-48.97c-12.36,0-27.59,4.72-27.59,23.21,0,15.94,11.48,26.02,30.9,26.02,17.55,0,30.35-8.16,30.35-26.4,0-11.99-5.63-18.62-12.14-21.81M64.75,852.76c-5.96,2.81-11.59,9.31-11.59,19.9,0,16.07,12.8,25.38,31.35,25.38s29.91-8.93,29.91-25.51c0-9.95-4.19-15.43-10.82-19.9M53.16,809.27c0,20.92,18.87,26.14,30.9,26.14,14.9,0,30.35-7.91,30.35-26.27s-15.45-26.27-30.35-26.27c-12.03,0-30.9,5.23-30.9,26.14M68.61,758.64c-7.73-7.78-15.45-16.2-15.45-27.55,0-9.82,5.85-14.92,15.45-14.92h45.81M53.16,758.64h61.26M99.3,643.74c9.38,5.48,15.12,13.77,15.12,24.61,0,17.34-14.57,24.23-30.79,24.23-18.54,0-30.46-8.54-30.46-24.1,0-9.31,4.19-17.85,14.79-24.74M114.42,643.74H32.19M75.13,577.42v-43.87M40.47,531.38v46.04h72.85v-46.04M114.42,465.07l-61.26,47.83M114.42,516.08l-61.26-49.48M59.12,454.87v-33.54M41.57,442.11h59.93c9.05,0,12.91-4.46,12.91-12.37,0-4.34-1.21-7.91-2.98-10.2M53.16,373.88c0,7.78,6.4,16.2,15.45,25.25M53.16,399.13h61.26M53.16,314.07h61.26M53.16,355.9h44.7c10.71,0,16.56-6.38,16.56-16.2,0-11.35-7.95-20.53-15.45-25.63M99.3,240.99c9.38,5.48,15.12,13.77,15.12,24.61,0,17.34-14.57,24.23-30.79,24.23-18.54,0-30.46-8.54-30.46-24.1,0-9.31,4.19-17.85,14.79-24.74M114.42,240.99H32.19M80.76,216.51v-48.97c-12.36,0-27.59,4.72-27.59,23.21,0,15.94,11.48,26.02,30.9,26.02,17.55,0,30.35-8.16,30.35-26.4,0-11.99-5.63-18.62-12.14-21.81M53.16,118.69c0,7.78,6.4,16.2,15.45,25.25M53.16,143.94h61.26" style="fill:none; opacity:.5; stroke:#fff; stroke-linecap:round; stroke-linejoin:round; stroke-width:7px;"/></svg>