<?xml version="1.0" encoding="UTF-8"?><svg id="a" xmlns="http://www.w3.org/2000/svg" viewBox="0 0 2500 2600"><path d="M1286.6,2386.82v-25.91c.93,0,62.41,0,92.98,0,5.63,0,7.06-2.41,7.09-6.82,0-3.55-1.01-6.16-6.69-6.16l-60.76-.03c-17.68-.04-31.22-13.94-30.8-31.55.37-15.42,13.06-29.08,28.55-29.41,23.1-.48,46.21-.12,69.51-.12v25.46c-.9,0-45.26-.03-65.48.06-2.62,0-4.15,1.92-4.15,4.91,0,2.43,1.83,4.7,4.74,4.7,20.14-.07,40.29-.04,60.43-.04,18.6,0,31.43,13.05,31.68,31.67.16,11.67-3.64,21.19-13.32,28.02-4.84,3.42-10.31,5.25-16.23,5.26-32.02.06-96.6-.04-97.56-.04ZM1185.22,2311.71v-24.81h-105.21v99.81h29.3v-38.37h48.39v-26.98h-48.35v-9.65h75.87ZM1419.91,2286.88c0,24.46-.12,50.02.05,74.48.1,13.88,11.93,25.42,25.92,25.51,19.1.11,38.19.2,57.29-.04,10.59-.14,18.39-5.35,23.33-14.75,2.64-5.02,2.67-11.74,2.67-17.9,0,0-23.21-17.77-24.02-18.3,0,4.03,0,7.71,0,11.39-.01,6.88-3.86,10.75-10.7,10.75-13,0-26,0-38.99,0-7.19,0-10.99-3.78-10.99-10.95,0-19.17,0-59.22,0-60.18h-24.56ZM1277.69,2386.73v-25.85h-54.4v-73.99h-27.73v99.84h82.13ZM1529.18,2286.88l-24.02-.13c0,12.63-.03,26.6.06,39.03l24.19,18.57v-22.29h0c19,19.02,41.99,41.49,60.95,60.54,0,0,32.82-.04,34.59-.04l-95.78-95.69ZM1624.89,2367.29v-80.43h-80.47c26.86,26.85,53.71,53.69,80.47,80.43Z" style="fill:#bcbec0;"/><path d="M977.11,2346.64h-56.27v-25.68h56.27v25.68ZM927.33,2349.17v7.76l18.18,19.67h6.92l18.18-19.67v-7.76h-43.28ZM977.11,2310.62h-56.27v5.47h56.27v-5.47ZM977.11,2301.6h-56.27v5.47h56.27v-5.47ZM977.11,2292.57h-56.27v5.47h56.27v-5.47ZM977.11,2283.55h-56.27v5.47h56.27v-5.47ZM1022.91,2252.91l-27.75,21.3-18.04,4.54h-56.27l-18.04-4.54-27.75-21.3,10-7.01,21.58,23.54,26.82-9.71h31.09l26.82,9.71,21.58-23.54,10,7.01ZM980.27,2272.31l-16.02-8.65h-30.56l-16.02,8.65,2.48,1.44h57.63l2.48-1.44ZM1008.67,2241.52l-18.22,22.54-27.05-8.66h-28.84l-27.05,8.66-18.22-22.54s8.67-10.33,28.16-16.57l-17.92-13.37,11.93-8.59,17.05,19.17c6.06-1.14,12.86-1.85,20.47-1.85s14.42.7,20.47,1.85l17.05-19.17,11.93,8.59-17.92,13.37c19.49,6.24,28.16,16.57,28.16,16.57ZM922.82,2237.83c0-2.41-1.95-4.36-4.36-4.36s-4.36,1.95-4.36,4.36,1.95,4.36,4.36,4.36,4.36-1.95,4.36-4.36ZM983.85,2237.83c0-2.41-1.95-4.36-4.36-4.36s-4.36,1.95-4.36,4.36,1.95,4.36,4.36,4.36,4.36-1.95,4.36-4.36Z" style="fill:#bcbec0;"/><path d="M946.07,2380.65c31.04,0,106.21,2.09,106.21,6.27,0,5.11-48.99,8.04-87.35,12.19-131.52,14.22-105.58,18.6.93,9.63,144.87-12.19,128.91-1.14,7.43,12.65-102.26,11.61-120.9,13.23,33.31,13.23" style="fill:none; stroke:#bcbec0; stroke-miterlimit:10; stroke-width:5.4px;"/></svg>