<?xml version="1.0" encoding="UTF-8"?><svg id="a" xmlns="http://www.w3.org/2000/svg" viewBox="0 0 3200 3200"><path d="M1514.29,3143.61v-33.5c1.2,0,80.68,0,120.22,0,7.28,0,9.13-3.12,9.17-8.82,0-4.59-1.31-7.96-8.65-7.96l-78.55-.04c-22.86-.05-40.37-18.03-39.82-40.79.48-19.93,16.88-37.6,36.91-38.02,29.86-.62,59.75-.16,89.86-.16v32.92c-1.16,0-58.51-.04-84.66.07-3.38,0-5.36,2.48-5.36,6.35,0,3.14,2.37,6.08,6.13,6.08,26.04-.08,52.09-.06,78.13-.05,24.04,0,40.64,16.87,40.96,40.94.2,15.08-4.71,27.4-17.22,36.22-6.26,4.42-13.33,6.79-20.99,6.8-41.4.08-124.89-.06-126.13-.06ZM1383.22,3046.51v-32.07h-136.02v129.04h37.88v-49.61h62.56v-34.88h-62.51v-12.48h98.09ZM1686.65,3014.4c0,31.62-.15,64.67.07,96.3.13,17.94,15.43,32.87,33.51,32.98,24.69.15,49.38.26,74.06-.05,13.7-.18,23.78-6.91,30.17-19.07,3.41-6.49,3.45-15.18,3.45-23.15,0,0-30.01-22.98-31.05-23.65,0,5.21,0,9.96,0,14.72-.02,8.89-4.99,13.9-13.84,13.9-16.8.01-33.61,0-50.41,0-9.3,0-14.2-4.89-14.21-14.16,0-24.78,0-76.56,0-77.81h-31.75ZM1502.78,3143.5v-33.43h-70.33v-95.66h-35.86v129.08h106.18ZM1827.91,3014.4l-31.05-.16c0,16.33-.04,34.39.08,50.46l31.28,24.01v-28.82h0c24.56,24.58,54.29,53.64,78.8,78.28,0,0,42.43-.05,44.73-.05l-123.83-123.71ZM1951.66,3118.38v-103.98h-104.04c34.73,34.71,69.44,69.41,104.04,103.98Z" style="fill:#bcbec0;"/></svg>