<?xml version="1.0" encoding="UTF-8"?><svg id="a" xmlns="http://www.w3.org/2000/svg" viewBox="0 0 2700 2700"><path d="M1389.53,2469.76v-27.99c1,0,67.4,0,100.42,0,6.08,0,7.62-2.6,7.66-7.37,0-3.83-1.09-6.65-7.23-6.65l-65.62-.03c-19.1-.04-33.72-15.06-33.27-34.07.4-16.65,14.1-31.41,30.84-31.76,24.95-.52,49.91-.13,75.07-.13v27.5c-.97,0-48.88-.03-70.72.06-2.83,0-4.48,2.07-4.48,5.3,0,2.62,1.98,5.08,5.12,5.08,21.76-.07,43.51-.05,65.27-.04,20.09,0,33.95,14.09,34.22,34.2.17,12.6-3.93,22.89-14.38,30.26-5.23,3.69-11.14,5.67-17.53,5.68-34.58.06-104.33-.05-105.36-.05ZM1280.03,2388.64v-26.79h-113.63v107.8h31.65v-41.44h52.26v-29.14h-52.22v-10.42h81.94ZM1533.51,2361.83c0,26.42-.13,54.03.06,80.44.1,14.99,12.89,27.46,28,27.55,20.62.12,41.25.22,61.87-.04,11.44-.15,19.86-5.77,25.2-15.93,2.85-5.42,2.88-12.68,2.88-19.34,0,0-25.07-19.2-25.94-19.76,0,4.35,0,8.32,0,12.3-.01,7.43-4.17,11.61-11.56,11.61-14.04,0-28.08,0-42.11,0-7.77,0-11.87-4.08-11.87-11.83,0-20.7,0-63.95,0-65h-26.52ZM1379.91,2469.66v-27.92h-58.75v-79.91h-29.95v107.83h88.7ZM1651.51,2361.83l-25.94-.14c0,13.64-.03,28.73.07,42.15l26.13,20.06v-24.07h0c20.52,20.54,45.35,44.81,65.83,65.39,0,0,35.44-.04,37.36-.04l-103.45-103.35ZM1754.89,2448.68v-86.86h-86.91c29.01,29,58.01,57.98,86.91,86.86Z" style="fill:#bcbec0;"/><path d="M1055.28,2426.37h-60.77v-27.74h60.77v27.74ZM1001.52,2429.1v8.38l19.64,21.24h7.47l19.64-21.24v-8.38h-46.75ZM1055.28,2387.47h-60.77v5.9h60.77v-5.9ZM1055.28,2377.72h-60.77v5.9h60.77v-5.9ZM1055.28,2367.98h-60.77v5.9h60.77v-5.9ZM1055.28,2358.24h-60.77v5.9h60.77v-5.9ZM1104.74,2325.14l-29.97,23.01-19.49,4.9h-60.77l-19.49-4.9-29.97-23.01,10.8-7.57,23.3,25.42,28.96-10.48h33.57l28.96,10.48,23.3-25.42,10.8,7.57ZM1058.69,2346.1l-17.3-9.34h-33l-17.3,9.34,2.68,1.56h62.24l2.68-1.56ZM1089.36,2312.85l-19.68,24.34-29.21-9.35h-31.14l-29.21,9.35-19.68-24.34s9.37-11.15,30.42-17.89l-19.36-14.44,12.88-9.27,18.41,20.7c6.54-1.24,13.89-2,22.11-2s15.57.76,22.11,2l18.41-20.7,12.88,9.27-19.36,14.44c21.05,6.74,30.42,17.89,30.42,17.89ZM996.65,2308.85c0-2.6-2.11-4.71-4.71-4.71s-4.71,2.11-4.71,4.71,2.11,4.71,4.71,4.71,4.71-2.11,4.71-4.71ZM1062.56,2308.85c0-2.6-2.11-4.71-4.71-4.71s-4.71,2.11-4.71,4.71,2.11,4.71,4.71,4.71,4.71-2.11,4.71-4.71Z" style="fill:#bcbec0;"/><path d="M1021.75,2463.1c33.53,0,114.71,2.26,114.71,6.77,0,5.52-52.91,8.68-94.34,13.16-142.04,15.36-114.03,20.08,1,10.41,156.45-13.16,139.23-1.23,8.02,13.66-110.45,12.54-130.57,14.29,35.98,14.29" style="fill:none; stroke:#bcbec0; stroke-miterlimit:10; stroke-width:5.83px;"/></svg>