<?xml version="1.0" encoding="UTF-8"?><svg id="a" xmlns="http://www.w3.org/2000/svg" viewBox="0 0 2400 2400"><path d="M1235.14,2195.34v-24.88c.89,0,59.91,0,89.27,0,5.41,0,6.78-2.32,6.81-6.55,0-3.41-.97-5.91-6.42-5.91l-58.33-.03c-16.98-.03-29.97-13.39-29.57-30.29.35-14.8,12.54-27.92,27.41-28.23,22.17-.46,44.37-.12,66.73-.12v24.44c-.86,0-43.45-.03-62.87.05-2.51,0-3.98,1.84-3.98,4.71,0,2.33,1.76,4.51,4.55,4.51,19.34-.06,38.68-.04,58.02-.03,17.85,0,30.17,12.52,30.41,30.4.15,11.2-3.5,20.35-12.78,26.9-4.65,3.28-9.9,5.04-15.58,5.05-30.74.06-92.74-.04-93.66-.04ZM1137.81,2123.24v-23.81h-101v95.82h28.13v-36.84h46.46v-25.9h-46.42v-9.27h72.84ZM1363.12,2099.4c0,23.48-.11,48.02.05,71.5.09,13.32,11.46,24.41,24.88,24.49,18.33.11,36.67.2,55-.04,10.17-.13,17.65-5.13,22.4-14.16,2.53-4.82,2.56-11.27,2.56-17.19,0,0-22.28-17.06-23.06-17.56,0,3.87,0,7.4,0,10.93-.01,6.6-3.71,10.32-10.28,10.32-12.48,0-24.96,0-37.43,0-6.91,0-10.55-3.63-10.55-10.52,0-18.4,0-56.85,0-57.78h-23.57ZM1226.59,2195.26v-24.82h-52.22v-71.03h-26.63v95.85h78.85ZM1468.01,2099.4l-23.06-.12c0,12.13-.03,25.53.06,37.47l23.22,17.83v-21.4h0c18.24,18.25,40.31,39.83,58.51,58.12,0,0,31.5-.04,33.21-.04l-91.95-91.86ZM1559.9,2176.6v-77.21h-77.25c25.79,25.78,51.56,51.54,77.25,77.21Z" style="fill:#bcbec0;"/><path d="M938.02,2156.77h-54.02v-24.65h54.02v24.65ZM890.24,2159.2v7.45l17.45,18.88h6.64l17.46-18.88v-7.45h-41.55ZM938.02,2122.19h-54.02v5.25h54.02v-5.25ZM938.02,2113.53h-54.02v5.25h54.02v-5.25ZM938.02,2104.87h-54.02v5.25h54.02v-5.25ZM938.02,2096.21h-54.02v5.25h54.02v-5.25ZM981.99,2066.79l-26.64,20.45-17.32,4.36h-54.02l-17.32-4.36-26.64-20.45,9.6-6.73,20.71,22.6,25.74-9.32h29.84l25.74,9.32,20.71-22.6,9.6,6.73ZM941.06,2085.42l-15.38-8.31h-29.33l-15.38,8.31,2.38,1.38h55.33l2.38-1.38ZM968.32,2055.86l-17.49,21.63-25.97-8.31h-27.68l-25.97,8.31-17.49-21.63s8.32-9.91,27.04-15.9l-17.21-12.83,11.45-8.24,16.37,18.4c5.81-1.1,12.35-1.77,19.65-1.77s13.84.68,19.65,1.77l16.37-18.4,11.45,8.24-17.21,12.83c18.71,5.99,27.04,15.9,27.04,15.9ZM885.91,2052.32c0-2.31-1.87-4.19-4.19-4.19s-4.19,1.87-4.19,4.19,1.87,4.19,4.19,4.19,4.19-1.87,4.19-4.19ZM944.49,2052.32c0-2.31-1.87-4.19-4.19-4.19s-4.19,1.87-4.19,4.19,1.87,4.19,4.19,4.19,4.19-1.87,4.19-4.19Z" style="fill:#bcbec0;"/><path d="M908.22,2189.42c29.8,0,101.96,2.01,101.96,6.02,0,4.9-47.03,7.72-83.85,11.7-126.26,13.65-101.36,17.85.89,9.25,139.07-11.7,123.76-1.09,7.13,12.15-98.17,11.14-116.06,12.7,31.98,12.7" style="fill:none; stroke:#bcbec0; stroke-miterlimit:10; stroke-width:5.18px;"/></svg>