<?xml version="1.0" encoding="UTF-8"?><svg id="a" xmlns="http://www.w3.org/2000/svg" viewBox="0 0 2000 2000"><path d="M1029.28,1829.45v-20.73c.74,0,49.93,0,74.39,0,4.5,0,5.65-1.93,5.67-5.46,0-2.84-.81-4.92-5.35-4.92l-48.61-.03c-14.15-.03-24.98-11.15-24.64-25.24.3-12.33,10.45-23.27,22.84-23.52,18.48-.38,36.97-.1,55.61-.1v20.37c-.72,0-36.21-.02-52.39.04-2.09,0-3.32,1.54-3.32,3.93,0,1.94,1.46,3.76,3.79,3.76,16.12-.05,32.23-.03,48.35-.03,14.88,0,25.15,10.44,25.35,25.34.13,9.33-2.91,16.95-10.65,22.42-3.87,2.73-8.25,4.2-12.99,4.21-25.62.05-77.28-.03-78.05-.03ZM948.17,1769.37v-19.85h-84.17v79.85h23.44v-30.7h38.71v-21.59h-38.68v-7.72h60.7ZM1135.93,1749.5c0,19.57-.09,40.02.04,59.59.08,11.1,9.55,20.34,20.74,20.4,15.28.09,30.56.16,45.83-.03,8.47-.11,14.71-4.28,18.67-11.8,2.11-4.01,2.13-9.39,2.13-14.32,0,0-18.57-14.22-19.21-14.64,0,3.22,0,6.17,0,9.11-.01,5.5-3.09,8.6-8.56,8.6-10.4,0-20.8,0-31.2,0-5.75,0-8.79-3.02-8.79-8.76,0-15.33,0-47.37,0-48.15h-19.65ZM1022.16,1829.38v-20.68h-43.52v-59.19h-22.19v79.87h65.71ZM1223.34,1749.5l-19.21-.1c0,10.11-.02,21.28.05,31.22l19.35,14.86v-17.83h0c15.2,15.21,33.59,33.19,48.76,48.44,0,0,26.25-.03,27.68-.03l-76.63-76.55ZM1299.92,1813.84v-64.34h-64.38c21.49,21.48,42.97,42.95,64.38,64.34Z" style="fill:#bcbec0;"/><path d="M781.69,1797.31h-45.02v-20.55h45.02v20.55ZM741.87,1799.33v6.21l14.55,15.73h5.53l14.55-15.73v-6.21h-34.63ZM781.69,1768.49h-45.02v4.37h45.02v-4.37ZM781.69,1761.28h-45.02v4.37h45.02v-4.37ZM781.69,1754.06h-45.02v4.37h45.02v-4.37ZM781.69,1746.84h-45.02v4.37h45.02v-4.37ZM818.32,1722.33l-22.2,17.04-14.43,3.63h-45.02l-14.43-3.63-22.2-17.04,8-5.61,17.26,18.83,21.45-7.77h24.87l21.45,7.77,17.26-18.83,8,5.61ZM784.22,1737.85l-12.82-6.92h-24.44l-12.82,6.92,1.99,1.15h46.11l1.99-1.15ZM806.93,1713.22l-14.58,18.03-21.64-6.93h-23.07l-21.64,6.93-14.58-18.03s6.94-8.26,22.53-13.25l-14.34-10.69,9.54-6.87,13.64,15.33c4.85-.91,10.29-1.48,16.38-1.48s11.53.56,16.38,1.48l13.64-15.33,9.54,6.87-14.34,10.69c15.59,4.99,22.53,13.25,22.53,13.25ZM738.26,1710.26c0-1.93-1.56-3.49-3.49-3.49s-3.49,1.56-3.49,3.49,1.56,3.49,3.49,3.49,3.49-1.56,3.49-3.49ZM787.08,1710.26c0-1.93-1.56-3.49-3.49-3.49s-3.49,1.56-3.49,3.49,1.56,3.49,3.49,3.49,3.49-1.56,3.49-3.49Z" style="fill:#bcbec0;"/><path d="M756.85,1824.52c24.83,0,84.97,1.67,84.97,5.01,0,4.09-39.19,6.43-69.88,9.75-105.21,11.38-84.47,14.88.74,7.71,115.89-9.75,103.13-.91,5.94,10.12-81.81,9.29-96.72,10.59,26.65,10.59" style="fill:none; stroke:#bcbec0; stroke-miterlimit:10; stroke-width:4.32px;"/></svg>