<?xml version="1.0" encoding="UTF-8"?><svg id="a" xmlns="http://www.w3.org/2000/svg" viewBox="0 0 935.43 935.43"><path d="M224.49,296.25c9.62,0,15.89,4.27,19.9,7.71,4.02,3.44,115.76,107.46,124.94,116.13,9.18,8.66,29.61,8.66,39.26-.76,9.65-9.42,114.38-107.01,121.94-113.71,7.56-6.7,13.34-9.37,24.43-9.37h101.89l-272.96,254.78L111.86,296.25h112.62ZM6.71,900.39l22.28,20.09,22.35-20.09h-8.34c-.91,0-1.38.21-2,.74-.62.53-9.2,8.22-9.99,8.96-.79.74-2.46.74-3.22.06-.75-.68-9.9-8.88-10.23-9.16-.33-.27-.84-.61-1.63-.61H6.71Z" style="fill:red; fill-rule:evenodd; opacity:.75;"/><path d="M297.03,297.75h149.03c4.55,0,6.42,3.35,3.59,5.98s-63.43,60.01-68.58,64.89c-5.15,4.89-12.76,4.89-18.9-.86-6.14-5.75-66.62-61.8-68.87-64.38-2.24-2.59-.68-5.63,3.72-5.63h0ZM441.75,604.11c16.16,15.45,26.88,25.37,32.14,29.75,7.9,6.57,26.73,8.54,38.57-2.73,11.83-11.27,283.96-264.73,302.72-283.01,18.76-18.29,3.35-51.61-19.5-51.61h-23.98l-329.95,307.61ZM21.88,900.51c-.36,0-.49.24-.3.44.18.2,5.14,4.62,5.64,5.08.5.45,1.13.45,1.55.07.42-.39,5.38-4.91,5.62-5.12s.08-.47-.29-.47h-12.21,0ZM33.73,924.66c1.32,1.22,2.2,2,2.63,2.35.65.52,2.19.67,3.16-.22.97-.89,23.25-20.87,24.79-22.31,1.54-1.44.27-4.07-1.6-4.07h-1.96l-27.02,24.25Z" style="fill:#a0a0a0; fill-rule:evenodd; opacity:.75;"/><path d="M656.85,296.25l114.85.25-329.95,307.61-57.86-53.08,272.96-254.78ZM33.73,924.66l27.02-24.25-9.41-.02-22.35,20.09,4.74,4.18Z" style="fill:#f9f9f9; fill-rule:evenodd; opacity:.75;"/><path d="M72,893.43h2v40h-2v-40ZM252.11,906.25c-.2-.82-.57-1.55-1.13-2.21s-1.39-1.21-2.52-1.66-2.39-.68-3.82-.68c-1.74,0-3.23.33-4.45.98s-2.04,1.52-2.45,2.6-.62,2.71-.62,4.88v8.25c0,1.67.13,2.88.38,3.64s.69,1.49,1.3,2.18,1.43,1.2,2.45,1.53,2.31.49,3.86.49c1.18,0,2.24-.16,3.19-.47s1.76-.82,2.44-1.53,1.12-1.48,1.33-2.29.32-2.12.32-3.91v-7.89c0-1.79-.1-3.1-.3-3.91ZM245.93,919.9c0,1.16-.07,1.9-.22,2.23s-.46.5-.95.5-.79-.14-.94-.42-.22-1.11-.22-2.48v-11.54c0-1.22.08-1.99.23-2.33s.47-.5.95-.5.8.16.94.47.2,1.1.2,2.36v11.71ZM234.5,910.8c.4-.59.59-1.54.59-2.86,0-1.95-.55-3.48-1.65-4.58-1.1-1.1-3.2-1.65-6.29-1.65-2.47,0-4.27.4-5.4,1.19s-1.7,2.32-1.7,4.57v2.01h6.48v-1.94c0-.9.08-1.5.25-1.77s.47-.42.92-.42c.4,0,.69.13.87.39s.28.81.28,1.63v1.31c0,.77-.08,1.33-.24,1.69s-.42.59-.79.7-1.31.16-2.85.16v3.43c1.26.02,2.11.09,2.55.23s.77.41.99.82.34,1.08.34,1.98v1.63c0,1.48-.08,2.39-.24,2.74s-.49.53-.99.53c-.46,0-.76-.14-.89-.42s-.2-.93-.2-1.95v-3.84h-6.48v1.87c0,2.25.18,3.82.55,4.73s1.14,1.68,2.31,2.31,2.78.94,4.83.94c1.81,0,3.29-.27,4.44-.81,1.15-.54,1.97-1.33,2.44-2.37.47-1.04.71-2.49.71-4.37,0-2.53-.24-4.14-.72-4.82-.48-.69-1.21-1.18-2.2-1.48.99-.49,1.69-1.02,2.08-1.61ZM217.42,910.8c.4-.59.59-1.54.59-2.86,0-1.95-.55-3.48-1.65-4.58-1.1-1.1-3.2-1.65-6.29-1.65-2.47,0-4.27.4-5.4,1.19-1.13.79-1.7,2.32-1.7,4.57v2.01h6.48v-1.94c0-.9.08-1.5.25-1.77s.47-.42.92-.42c.4,0,.69.13.87.39s.28.81.28,1.63v1.31c0,.77-.08,1.33-.24,1.69s-.42.59-.79.7-1.31.16-2.85.16v3.43c1.26.02,2.11.09,2.55.23s.77.41.99.82.34,1.08.34,1.98v1.63c0,1.48-.08,2.39-.24,2.74s-.49.53-.99.53c-.46,0-.76-.14-.89-.42s-.2-.93-.2-1.95v-3.84h-6.48v1.87c0,2.25.18,3.82.55,4.73s1.14,1.68,2.31,2.31,2.78.94,4.83.94c1.81,0,3.29-.27,4.44-.81,1.15-.54,1.97-1.33,2.44-2.37.47-1.04.71-2.49.71-4.37,0-2.53-.24-4.14-.72-4.82-.48-.69-1.21-1.18-2.2-1.48.99-.49,1.69-1.02,2.08-1.61ZM175.13,901.91l-1.08,5.42h7.37l-3.7,18.6h6.77l3.7-18.6h7.37l1.08-5.42h-21.51ZM126.04,907.29h-16.58l-.97,4.86h8.13l-10.4,9.97-.76,3.81h17.15l.97-4.86h-8.67l10.36-9.93.77-3.86ZM103.79,901.91l-9.74,15.53-3.55-15.53h-6.95l5.5,24.03h6.62l15.06-24.03h-6.95ZM146.79,913.53c2.42,1.03,3.57,3.02,3.2,5.82-.62,4.66-5.46,6.56-11.21,6.58h-12.94s4.78-24.03,4.78-24.03h12.64c4.83,0,8.36,2.16,7.8,6.4-.34,2.58-1.94,4.24-4.27,5.22ZM140.69,916.35h-6.25l-.94,4.72h6.25c2.14,0,3.24-1.09,3.44-2.24.28-1.61-.72-2.48-2.5-2.48ZM141.45,906.77h-5.11l-.94,4.72h5.11c2.14,0,3.24-1.09,3.44-2.24.28-1.61-.72-2.48-2.5-2.48ZM163.9,907.02c-6.6,0-10.75,4.16-11.37,9.45s2.65,9.73,9.6,9.73,10.8-4.23,11.42-9.51-2.79-9.66-9.65-9.66ZM166.93,916.72c-.34,2.4-1.87,4.23-4.38,4.23-2.76,0-3.76-2.07-3.42-4.48s1.85-4.24,4.43-4.24,3.7,2.09,3.36,4.5Z" style="fill:#b3b3b3;"/></svg>