<?xml version="1.0" encoding="UTF-8"?><svg id="a" xmlns="http://www.w3.org/2000/svg" viewBox="0 0 666.14 666.14"><path d="M168.71,226.74c6.4,0,10.56,2.73,13.23,4.94,2.67,2.2,76.97,68.79,83.07,74.33,6.11,5.54,19.68,5.54,26.1-.49,6.42-6.03,76.05-68.49,81.08-72.78,5.03-4.29,8.87-6,16.24-6h67.75l-181.49,163.08L93.83,226.74h74.88ZM6.71,631.1l22.28,20.09,22.35-20.09h-8.34c-.91,0-1.38.21-2,.74-.62.53-9.2,8.22-9.99,8.96-.79.74-2.46.74-3.22.06-.75-.68-9.9-8.88-10.23-9.16-.33-.27-.84-.61-1.63-.61H6.71Z" style="fill:red; fill-rule:evenodd; opacity:.75;"/><path d="M216.95,227.7h99.09c3.03,0,4.27,2.14,2.39,3.83s-42.17,38.41-45.6,41.54c-3.43,3.13-8.48,3.13-12.56-.55-4.08-3.68-44.3-39.56-45.79-41.21-1.49-1.66-.45-3.6,2.47-3.6h0ZM313.17,423.8c10.75,9.89,17.87,16.24,21.37,19.04,5.25,4.21,17.77,5.46,25.64-1.75,7.87-7.21,188.8-169.45,201.28-181.16,12.47-11.71,2.23-33.04-12.96-33.04h-15.94l-219.38,196.9ZM21.88,631.22c-.36,0-.49.24-.3.44.18.2,5.14,4.62,5.64,5.08.5.45,1.13.45,1.55.07.42-.39,5.38-4.91,5.62-5.12s.08-.47-.29-.47h-12.21,0ZM33.73,655.37c1.32,1.22,2.2,2,2.63,2.35.65.52,2.19.67,3.16-.22.97-.89,23.25-20.87,24.79-22.31,1.54-1.44.27-4.07-1.6-4.07h-1.96l-27.02,24.25Z" style="fill:#a0a0a0; fill-rule:evenodd; opacity:.75;"/><path d="M274.7,389.83l181.49-163.08,76.36.16-219.38,196.9-38.47-33.98ZM33.73,655.37l27.02-24.25-9.41-.02-22.35,20.09,4.74,4.18Z" style="fill:#f9f9f9; fill-rule:evenodd; opacity:.75;"/><path d="M72,624.14h2v40h-2v-40ZM213.23,653.77c4.18-4.96,6.69-8.2,7.54-9.73.86-1.53,1.29-2.98,1.29-4.35,0-1.8-.76-3.29-2.28-4.46-1.51-1.18-3.75-1.77-6.71-1.77-1.51,0-2.81.19-3.89.58s-1.96.95-2.63,1.7c-.68.75-1.1,1.51-1.27,2.29-.17.77-.26,1.82-.26,3.16v.87h6.67v-2.28c0-1.05.14-1.76.41-2.11.28-.35.71-.53,1.27-.53s.98.16,1.25.49c.28.32.42.8.42,1.45,0,.85-.46,2.03-1.38,3.55-.91,1.51-3.79,5.45-8.64,11.81v3.42h16.38v-4.08h-8.16ZM238.03,644.36c1.13-.49,1.92-1.02,2.37-1.61.45-.59.67-1.55.67-2.88,0-1.96-.63-3.49-1.88-4.59-1.25-1.1-3.63-1.65-7.14-1.65-2.81,0-4.85.4-6.14,1.2-1.29.79-1.93,2.31-1.93,4.58v2.02h7.36v-1.94c0-.91.09-1.5.27-1.77.19-.28.55-.42,1.06-.42.45,0,.78.13.98.39.22.26.33.81.33,1.64v1.32c0,.77-.09,1.34-.27,1.7s-.48.59-.89.7c-.41.11-1.49.16-3.24.16v3.44c1.43.02,2.4.1,2.9.23.5.13.87.4,1.13.82.26.42.38,1.08.38,1.99v1.64c0,1.48-.09,2.4-.27,2.75s-.56.53-1.13.53c-.52,0-.86-.14-1.02-.41-.15-.28-.22-.94-.22-1.96v-3.84h-7.36v1.87c0,2.25.21,3.84.62,4.75.43.91,1.3,1.68,2.62,2.31,1.34.62,3.17.94,5.5.94,2.05,0,3.73-.27,5.05-.8,1.31-.55,2.23-1.34,2.77-2.37.53-1.04.8-2.5.8-4.39,0-2.53-.27-4.14-.82-4.82-.55-.69-1.38-1.19-2.5-1.49h0ZM244.3,634.09l-.31,11.93h7.29c0-.69.03-1.13.09-1.32.07-.19.22-.38.46-.54.23-.17.52-.25.86-.25.53,0,.92.16,1.15.48.23.32.35.93.35,1.81v4.69c-.02,1.65-.05,2.58-.07,2.79-.01.21-.13.41-.36.6-.22.19-.51.28-.87.28-.79,0-1.25-.32-1.38-.96s-.2-1.73-.2-3.26v-1.48h-7.36v1.29c0,2.2.3,3.83.91,4.88.61,1.05,1.63,1.85,3.08,2.38,1.45.53,3.12.79,5.01.79,1.69,0,3.12-.18,4.28-.53,1.18-.36,2.1-.87,2.75-1.54.66-.67,1.08-1.4,1.28-2.18.21-.79.31-2.02.31-3.7v-3.38c0-2.59-.52-4.34-1.57-5.25-1.03-.92-2.56-1.37-4.59-1.37-1.8,0-3.27.54-4.41,1.62v-4.02h9.13v-3.79h-15.8ZM177.99,633.83l-1.08,5.42h7.37l-3.7,18.6h6.77l3.7-18.6h7.37l1.08-5.42h-21.51ZM128.14,643.07l-10.36,9.93h8.67l-.97,4.86h-17.15l.76-3.81,10.4-9.97h-8.13l.97-4.86h16.58l-.77,3.86ZM113.6,633.83l-15.06,24.03h-6.62l-5.5-24.03h6.95l3.55,15.53,9.74-15.53h6.95ZM153.93,640.23c.56-4.24-2.97-6.4-7.8-6.4h-12.64l-4.78,24.03h12.94c5.75-.02,10.59-1.93,11.21-6.58.37-2.8-.78-4.8-3.2-5.82,2.33-.98,3.93-2.65,4.27-5.22ZM146.06,650.76c-.2,1.14-1.3,2.24-3.44,2.24h-6.25s.94-4.72.94-4.72h6.25c1.78,0,2.78.87,2.5,2.48ZM146.82,641.18c-.2,1.14-1.3,2.24-3.44,2.24h-5.11l.94-4.72h5.11c1.78,0,2.78.87,2.5,2.48ZM176.41,648.6c-.61,5.29-4.82,9.51-11.42,9.51-6.95,0-10.22-4.44-9.6-9.73s4.76-9.45,11.37-9.45,10.27,4.38,9.65,9.66ZM166.44,644.15c-2.58,0-4.09,1.84-4.43,4.24s.66,4.48,3.42,4.48c2.5,0,4.04-1.82,4.38-4.23s-.74-4.5-3.36-4.5Z" style="fill:#b3b3b3;"/></svg>