<?xml version="1.0" encoding="UTF-8"?><svg id="a" xmlns="http://www.w3.org/2000/svg" viewBox="0 0 666.14 666.14"><path d="M333.14,144.81l-163.06,94.25v188.11l163.11,94.17,162.87-94.03v-188.44l-162.92-94.06h0ZM316.73,493.09l-85.58-49.41v-75.49l-15.93-9.2v75.29l-28.81-16.63v-150.18l85.27,49.28v75.32l16.47,9.51v-75.17l28.59,16.5v150.18h0ZM202.66,238.99l130.29-75.59,130.4,75.29-28.22,16.29-65.27-37.68-16.46,9.5,65.42,37.77-41.09,23.72-65.16-37.62-16.11,9.3,65.46,37.79-28.73,16.59-130.54-75.37h0ZM479.69,417.79l-130.17,75.16v-150.22l130.15-75.32v56.28l-64.97,37.51v37.82l16.19-9.35v-18.85l48.8-28.18v75.15Z" style="fill:#00bc00; opacity:.2;"/></svg>