<?xml version="1.0" encoding="UTF-8"?><svg id="a" xmlns="http://www.w3.org/2000/svg" viewBox="0 0 200 200"><path d="M8.18,191.64l1.06-3.19,1.06,3.19h-2.17.05ZM10.36,185.91h-2.22l-3.28,9.06h2.22l.6-1.76h3.19l.6,1.76h2.22l-3.28-9.06h-.05ZM64.95,188.26h-2.22l-1.99,2.45v-4.85h-2.08v9.06h2.08v-2.5l1.99,2.5h2.4l-2.77-3.47,2.59-3.24v.05ZM28.38,188.26h-2.22l-1.99,2.45v-4.85h-2.08v9.06h2.08v-2.5l1.99,2.5h2.4l-2.77-3.47,2.59-3.24v.05ZM45.53,189.84s-.18-.05-.23,0l-1.25,1.25s-.05.18,0,.23l1.25,1.25s.18.05.23,0l1.25-1.25s.05-.18,0-.23l-1.25-1.25ZM44.93,189.19l-2.13-2.13-1.16-1.16h-.92v9.06h2.08v-4.95l.69.69s.18.05.23,0l1.25-1.25s.05-.18,0-.23M49.23,185.91l-1.16,1.16-2.13,2.13s-.05.18,0,.23l1.25,1.2s.18.05.23,0l.69-.69v4.95h2.08v-9.06h-.92l-.05.09ZM68,189.93c.69,0,1.25.46,1.43,1.06h-2.82c.18-.6.74-1.06,1.43-1.06M71.28,192.24s.05-.42.05-.6c0-1.85-1.48-3.33-3.33-3.33s-3.33,1.48-3.33,3.33,1.48,3.33,3.33,3.33c1.43,0,2.68-.92,3.14-2.17h-1.94c-.28.37-.69.6-1.16.6-.69,0-1.29-.46-1.43-1.11h4.72l-.05-.05ZM30,190.99c.18-.6.74-1.06,1.43-1.06s1.25.46,1.43,1.06h-2.87ZM31.44,188.31c-1.85,0-3.33,1.48-3.33,3.33s1.48,3.33,3.33,3.33c1.43,0,2.68-.92,3.14-2.17h-1.94c-.28.37-.69.6-1.16.6-.69,0-1.29-.46-1.43-1.11h4.72s.05-.42.05-.6c0-1.85-1.48-3.33-3.33-3.33M18.4,188.49c-.74,0-1.34.28-1.85.74v-.92h-2.08v6.66h2.08v-3.47h0c0-.74.51-1.34,1.29-1.34s1.25.6,1.29,1.34h0v3.47h2.08v-3.51h0c0-1.62-1.16-2.91-2.77-2.91M54.18,193.07c-.79,0-1.48-.65-1.48-1.48s.65-1.48,1.48-1.48,1.48.65,1.48,1.48-.65,1.48-1.48,1.48M55.7,188.96c-.37-.46-1.06-.69-1.71-.69h-.09c-1.66.09-2.91,1.57-2.91,3.33,0,1.48.92,2.77,2.22,3.19.28.09.55.14.83.14.65,0,1.29-.18,1.66-.65v.69h2.08v-6.66h-2.08v.69-.05ZM37.68,189.23v-.92h-2.08v6.66h2.08v-3.47h0c0-.74.46-1.34,1.29-1.34.42,0,.65.05.92.14v-1.9h-.37c-.74,0-1.34.37-1.85.83" style="fill:#3adb67; opacity:.75;"/><rect width="200" height="200" style="fill:none; opacity:.75; stroke:#3adb67; stroke-miterlimit:10;"/></svg>