<?xml version="1.0" encoding="UTF-8"?><svg id="a" xmlns="http://www.w3.org/2000/svg" viewBox="0 0 2000 2000"><path id="b" d="M2000,0v2000H0" style="fill:none; stroke:#bcbec0; stroke-miterlimit:11.34; stroke-width:8px;"/><path d="M1246.9,1925.25v-104.11h37.39l4.55-6.86-4.86,3.68h-4.63s13.33-13.25,19.87-19.72c6.23,6.23,19.64,19.56,19.64,19.56l-4.63-.08-5.33-3.29,4.04,6.62,38.06.04v104.11h-104.07l-.04.04ZM1340.78,1878.53l-29.71-51.27c-.63-1.14-1.29-1.65-2.67-1.65-6.27.08-12.54.08-18.81,0-1.37,0-2.04.47-2.7,1.61l-29.63,51.31c-1.33-.78-2.55-1.49-3.88-2.23,9.76-16.89,19.44-33.67,29.16-50.53h-31.12v94.94h95.05v-94.94h-31.01c9.84,17.01,19.48,33.75,29.2,50.56-1.41.78-2.59,1.45-3.8,2.16l-.08.04ZM1307.54,1821.18c-2.98-5.1-5.72-9.84-8.58-14.78-2.9,5.06-5.64,9.84-8.51,14.78h17.09ZM1330.28,1928.62c-10.5,10.5-20.89,20.89-31.16,31.12-10.27-10.31-20.7-20.74-31.12-31.12h62.28ZM1218.13,1878.92c8.47-8.51,17.01-17.05,25.48-25.6v51.07c-8.58-8.58-17.13-17.17-25.48-25.48ZM1354.26,1904.24v-50.8c8.43,8.47,16.97,17.05,25.36,25.52-8.15,8.11-16.74,16.66-25.36,25.28h0Z" style="fill:#d4aa00;"/><path d="M1449.47,1820.99c9.84,0,14.74,4.9,14.74,14.74s-4.9,14.66-14.74,14.66h-26.81v19.05l-8.62,3.45v-51.9h35.43ZM1455.59,1835.65c.77-4.35-3.41-8.53-7.76-7.76,0,0-25.16,0-25.16,0v15.6h25.16c4.4.76,8.53-3.41,7.76-7.84ZM1512.03,1839.17c2.86,2.31,4.27,5.29,4.23,9.02v11.68c.14,7.42-7.32,13.02-14.35,12.86,0,0-21.56,0-21.56,0-7.13.22-14.5-5.51-14.42-12.94,0,0,0-11.6,0-11.6-.14-7.38,7.2-13.12,14.27-12.94,0,0,21.79,0,21.79,0,3.88-.04,7.21,1.25,10.03,3.92ZM1506.7,1858.15v-8.47c0-1.92-.71-3.57-2.12-4.86-1.53-1.57-3.37-2.31-5.57-2.2h-15.76c-3.96-.32-7.85,3.13-7.76,7.13,0,0,0,8.31,0,8.31-.02,4.06,3.76,7.34,7.76,7.13,0,0,15.76,0,15.76,0,3.93.29,7.75-3.07,7.68-7.06ZM1558.52,1853.76c6.44,6.62,1.76,19.62-7.92,19.13,0,0-30.34,0-30.34,0l2.04-6.43h26.5c1.22,0,2.23-.43,3.06-1.33,2.46-2.51.86-7.74-2.9-7.6,0,0-18.58,0-18.58,0-9.55.62-14.45-12.37-7.84-18.81,2.08-2.35,4.7-3.49,7.84-3.37h27.91l-1.96,6.35h-23.68c-5.37-.02-5.18,9.02.16,8.78,0,0,17.8,0,17.8,0,3.14-.12,5.76.98,7.92,3.29ZM1575.3,1872.88h-9.96v-37.63h9.96v37.63ZM1573.81,1829.53c-4.74,4.48-11.53-2.31-7.06-7.06,4.67-4.65,11.71,2.4,7.06,7.06ZM1603.99,1865.83h11.21l-2.35,6.98h-13.17c-6.84.81-13.33-4.56-12.46-11.6,0,0,0-19.36,0-19.36h-9.02l2.2-6.59h6.82v-8.15s10.35-6.19,10.35-6.19v14.35s14.66,0,14.66,0l-2.2,6.59h-12.46v17.8c-.29,3.63,2.67,6.79,6.43,6.19ZM1638.17,1835.33h14.11l-2.74,7.92h-6.82c-7.67-.19-14.46,6.6-14.27,14.27,0,0,0,15.44,0,15.44h-10.19v-37.63h10.35l-.08,6.66c2.09-3.45,5.33-6.81,9.64-6.66ZM1698.46,1839.17c2.86,2.31,4.27,5.29,4.23,9.02v11.68c.14,7.42-7.32,13.02-14.35,12.86,0,0-21.56,0-21.56,0-7.13.22-14.5-5.51-14.42-12.94,0,0,0-11.6,0-11.6-.14-7.38,7.2-13.12,14.27-12.94,0,0,21.79,0,21.79,0,3.88-.04,7.21,1.25,10.03,3.92ZM1693.12,1858.15v-8.47c0-1.92-.71-3.57-2.12-4.86-1.53-1.57-3.37-2.31-5.57-2.2h-15.76c-3.96-.32-7.85,3.13-7.76,7.13,0,0,0,8.31,0,8.31-.02,4.06,3.76,7.34,7.76,7.13,0,0,15.76,0,15.76,0,3.93.29,7.75-3.07,7.68-7.06ZM1746.59,1839.64c2.63,2.94,3.96,6.35,4.08,10.27v22.97h-9.8v-22.42c.12-2.16-.63-3.96-2.2-5.41-2.6-2.79-7.43-1.92-10.82-2.04-6.14-.05-11.3,5.41-11.05,11.52,0,0,0,18.34,0,18.34h-9.72v-29.87l9.8-7.76v6.66c2.23-3.47,4.68-6.74,9.25-6.66,0,0,9.88,0,9.88,0,3.97-.39,7.93,1.47,10.58,4.39ZM1825.06,1824.44l10.27-3.45-24.3,51.9h-8.62l-24.22-51.9,10.27,3.45,18.27,39.28s18.34-39.28,18.34-39.28ZM1878.45,1872.88h-42.88s2.82-8.78,2.82-8.78h35.75c1.88.04,3.49-.59,4.86-1.96,4.14-3.87.83-11.35-4.86-10.82,0,0-23.13,0-23.13,0l2.59-6.51h18.81c8.77.09,8.8-12.8,0-12.7,0,0-36.22,0-36.22,0l2.74-8.07h38.57c6.9-.54,13.8,5.34,13.41,12.46.38,5.27-3.38,9.37-7.68,11.84,14.05,5.29,10.02,24.86-4.78,24.54ZM1895.38,1871.86v-5.57c-.02-.6.42-1.03,1.02-1.02,0,0,6.04,0,6.04,0,.27,0,.51.12.71.31.63-.09.19,5.25.31,6.27.02.6-.42,1.03-1.02,1.02,0,0-6.04,0-6.04,0-.67,0-1.02-.35-1.02-1.02ZM1962.49,1872.88h-55.74v-13.72c-.12-8.23,7.66-14.76,15.68-14.58,0,0,25.09,0,25.09,0,5.32.41,8.65-6.86,4.55-10.43-1.25-1.25-2.78-1.84-4.55-1.8h-38.02s2.82-8.31,2.82-8.31h37.39c4.43-.27,8.23,1.14,11.37,4.23,9.77,8.89,1.62,26.19-11.37,25.01,0,0-25.48,0-25.48,0-3.29-.04-6.49,2.68-6.43,6.11,0,0,0,4.86,0,4.86h47.59s-2.9,8.62-2.9,8.62ZM1478.4,1920.23h-6.66v-23.05l-9.02,2.74-1.72-4.98,12.97-4h4.47c-.05-.02.08,29.49-.04,29.28ZM1508.54,1920.23h-19.01c-2.27.08-4.23-.67-5.84-2.27-3.99-3.92-2.18-10.55,2.9-12.5,0,0-1.22-.86-1.22-.86-6.28-4.16-2.8-14.31,4.74-13.64,0,0,17.8,0,17.8,0,8.69-.2,10.97,10.46,3.53,14.58,0,0,1.33.67,1.33.67,7.14,3.68,3.5,14.56-4.23,14.03ZM1505.92,1907.46h-13.68c-3.39-.21-5.34,4.11-2.9,6.51.78.78,1.72,1.18,2.86,1.22h13.8c5.33.05,5.22-8.05-.08-7.72ZM1504.94,1895.66h-11.76c-1.1-.08-2.04.31-2.86,1.1-2.47,2.29-.42,6.64,2.86,6.47,0,0,11.76,0,11.76,0,5.23.03,5.28-7.69,0-7.57ZM1544.53,1920.23h-14.42c-5.38.44-10.75-3.94-10.62-9.45,0,0,0-10.39,0-10.39-.16-5.59,5.27-9.86,10.62-9.45,0,0,14.42,0,14.42,0,5.34-.41,10.83,3.78,10.62,9.37,0,0,0,10.58,0,10.58.15,5.47-5.38,9.9-10.62,9.33ZM1542.37,1895.93h-10.07c-3.15-.11-6.2,2.26-6.11,5.53,0,0,0,8.04,0,8.04-.25,3.28,3.06,5.66,6.11,5.53,0,0,10.07,0,10.07,0,1.65,0,3.14-.47,4.39-1.57,1.22-1.06,1.8-2.43,1.72-4.04v-7.96c.28-3.27-3.04-5.9-6.11-5.53ZM1584.74,1897.66l-10.5,11.29,10.5,11.29h-7.13l-6.9-7.49-6.9,7.49h-7.13l10.5-11.29-10.5-11.29h7.13l6.9,7.45,6.9-7.45h7.13ZM1604.38,1920.23h-6.66v-23.05l-9.02,2.74-1.72-4.98,12.97-4h4.47c-.05-.02.08,29.49-.04,29.28ZM1634.52,1920.23h-19.01c-2.27.08-4.23-.67-5.84-2.27-3.99-3.91-2.18-10.55,2.9-12.5,0,0-1.22-.86-1.22-.86-6.28-4.16-2.8-14.31,4.74-13.64,0,0,17.8,0,17.8,0,8.69-.19,10.97,10.46,3.53,14.58,0,0,1.33.67,1.33.67,7.14,3.68,3.5,14.56-4.23,14.03ZM1631.9,1907.46h-13.68c-3.39-.21-5.34,4.11-2.9,6.51.78.78,1.72,1.18,2.86,1.22h13.8c5.33.05,5.22-8.05-.08-7.72ZM1630.92,1895.66h-11.76c-1.1-.08-2.04.31-2.86,1.1-2.47,2.29-.42,6.64,2.86,6.47,0,0,11.76,0,11.76,0,5.23.03,5.28-7.69,0-7.57ZM1670.51,1920.23h-14.42c-5.38.44-10.75-3.94-10.62-9.45,0,0,0-10.39,0-10.39-.16-5.59,5.27-9.86,10.62-9.45,0,0,14.42,0,14.42,0,5.34-.41,10.83,3.78,10.62,9.37,0,0,0,10.58,0,10.58.15,5.47-5.38,9.9-10.62,9.33ZM1668.35,1895.93h-10.07c-3.15-.11-6.2,2.26-6.11,5.53,0,0,0,8.04,0,8.04-.25,3.28,3.06,5.66,6.11,5.53,0,0,10.07,0,10.07,0,1.65,0,3.14-.47,4.39-1.57,1.22-1.06,1.8-2.43,1.72-4.04v-7.96c.28-3.27-3.04-5.9-6.11-5.53ZM1710.72,1897.66l-10.5,11.29,10.5,11.29h-7.13l-6.9-7.49-6.9,7.49h-7.13l10.5-11.29-10.5-11.29h7.13l6.9,7.45,6.9-7.45h7.13ZM1730.32,1920.23h-6.66v-23.05l-9.02,2.74-1.72-4.98,12.97-4h4.47c-.05-.02.08,29.49-.04,29.28ZM1759.6,1920.23h-15.29c-3.02.16-5.61-.78-7.76-2.86-1.92-1.8-2.86-4-2.86-6.59v-10.39c-.2-5.58,5.23-9.86,10.54-9.45,0,0,21.72,0,21.72,0l-1.69,4.98h-18.11c-3-.23-5.88,2.19-5.72,5.29,0,0,0,1.96,0,1.96h19.21c12.31-.12,12.01,17.31-.04,17.05ZM1740.4,1908.16v3.45c-.07,1.98,1.76,3.47,3.65,3.49,0,0,14.42,0,14.42,0,4.7.13,4.77-7.12,0-6.9,0-.02-18.27.06-18.07-.04ZM1794.06,1920.23h-24.07l1.72-5.25h21.32c1.18,0,2.16-.35,2.98-1.18,2.52-2.41.51-7.01-2.98-6.74,0,0-22.66,0-22.66,0v-16.15h31.59l-1.72,4.94h-23.24v6.11h17.09c12.95-.25,12.74,18.55-.04,18.27ZM1848.23,1900.16c1.72,1.49,2.59,3.41,2.59,5.72v14.35h-5.84v-13.44c0-1.29-.43-2.35-1.37-3.25-1.68-1.9-5.89-1.04-8.11-1.22-2.2,0-4.03,1.9-3.96,4.12,0,0,0,13.8,0,13.8h-5.88v-13.44c.21-2.5-2.24-4.67-4.7-4.47,0,0-2.16,0-2.16,0-3.67-.07-6.79,3.28-6.62,6.94,0,0,0,11.01,0,11.01h-5.84v-17.91l5.88-4.66v4c1.28-2.1,2.86-3.99,5.53-4,3.72.08,8.72-.75,11.29,2.63,0,0,.67.74.67.74l.63-.78c.94-1.62,2.79-2.57,4.63-2.59,3.93.15,10.51-.92,13.29,2.47ZM1895.62,1900.16c1.72,1.49,2.59,3.41,2.59,5.72v14.35h-5.84v-13.44c0-1.29-.43-2.35-1.37-3.25-1.68-1.9-5.89-1.04-8.11-1.22-2.2,0-4.03,1.9-3.96,4.12,0,0,0,13.8,0,13.8h-5.88v-13.44c.21-2.5-2.24-4.67-4.7-4.47,0,0-2.16,0-2.16,0-3.67-.07-6.79,3.28-6.62,6.94,0,0,0,11.01,0,11.01h-5.84v-17.91l5.88-4.66v4c1.28-2.1,2.86-3.99,5.53-4,3.72.08,8.72-.75,11.29,2.63,0,0,.67.74.67.74l.63-.78c.94-1.62,2.79-2.57,4.63-2.59,3.93.15,10.51-.92,13.29,2.47Z" style="fill:#bcbec0;"/></svg>