<?xml version="1.0" encoding="UTF-8"?><svg id="a" xmlns="http://www.w3.org/2000/svg" viewBox="0 0 3240 2000"><line id="b" x1="1600" x2="1600" y2="2000" style="fill:none; stroke:#55c2ff; stroke-dasharray:20 10; stroke-width:3px;"/><line id="c" x1="1500" x2="1500" y2="2000" style="fill:none; stroke:#ff4a4a; stroke-dasharray:20 10; stroke-width:3px;"/><path d="M120,0v2000H0V0h120ZM3240,0h-120v2000h120V0Z" style="fill:#575757;"/><path d="M2879.66,1806.08h6.42v85.9h-6.42v-85.9h0ZM2943.32,1857.06c0,21-19.37,26.15-30.74,13.61l4.63-4.96c7.91,8.78,19.11,5.89,19.11-8.89v-39.53h7v39.78ZM2976.68,1876.42h-6.84v-52.38h-9.64l4.2-6.75h12.27v59.13h0ZM2485.18,1828.64c12.83,0,23.24,10.39,23.24,23.24v22.83h-9.3v-22.83c0-7.71-6.24-13.95-13.94-13.95s-13.95,6.24-13.95,13.95v22.83h-9.3v-22.83c0-12.84,10.41-23.24,23.25-23.24ZM2535.68,1865.81c7.71,0,13.95-6.23,13.95-13.93s-6.24-13.95-13.95-13.95-13.94,6.24-13.94,13.95,6.25,13.93,13.94,13.93M2558.92,1830.08v44.62h-9.3v-4.24c-3.88,2.91-8.71,4.64-13.95,4.64-12.83,0-23.25-10.39-23.25-23.24s10.41-23.24,23.25-23.24c5.24,0,10.07,1.74,13.95,4.64v-3.2h9.3ZM2588.86,1865.81c7.71,0,13.95-6.23,13.95-13.93s-6.24-13.95-13.95-13.95-13.94,6.24-13.94,13.95,6.25,13.93,13.94,13.93M2588.86,1828.64c12.84,0,23.25,10.39,23.25,23.24s-10.41,23.24-23.25,23.24c-5.23,0-10.05-1.74-13.94-4.64v23.85h-9.3v-42.44c0-12.84,10.41-23.24,23.24-23.24ZM2712.82,1870.47c10.27,0,18.6-8.34,18.6-18.59s-8.33-18.59-18.6-18.59-18.58,8.32-18.58,18.59,8.31,18.59,18.58,18.59M2736.06,1830.08v44.62h-4.64v-8.9c-4.25,5.65-11,9.3-18.6,9.3-12.83,0-23.24-10.39-23.24-23.24s10.41-23.24,23.24-23.24c7.6,0,14.35,3.66,18.6,9.29v-7.84h4.64ZM2686.38,1846.96c-.15-10.16-8.41-18.32-18.59-18.32-7.01,0-13.09,3.86-16.27,9.58-3.18-5.72-9.26-9.58-16.27-9.58-10.17,0-18.43,8.17-18.59,18.32v27.74s4.64,0,4.64,0v-27.49c0-7.69,6.24-13.93,13.95-13.93s13.94,6.24,13.94,13.93v27.49h4.65v-27.49c0-7.69,6.24-13.93,13.94-13.93s13.95,6.24,13.95,13.93v27.49h4.64v-27.74h0ZM2787.61,1835.76c-8.21,4.75-11.43,14.8-7.83,23.32l31.94-18.46c-5.57-7.37-15.9-9.59-24.11-4.87ZM2782.1,1863.12c5.57,7.37,15.9,9.59,24.11,4.85,5.07-2.91,8.23-7.88,9.07-13.23l4.88-2.81c-.03,8.01-4.19,15.77-11.62,20.07-11.12,6.43-25.32,2.6-31.75-8.51-6.42-11.11-2.6-25.33,8.51-31.74,11.12-6.43,26.86-2.6,32.81,10.58l-36,20.79ZM2777.19,1828.64h-6.57l-23.18,23.17v-43.17h-4.65v66.07h4.65v-16.31l3.32-3.33,19.64,19.65h6.57l-22.92-22.93,23.14-23.13ZM2825.13,1851.87v22.83h4.65v-22.83c0-10.27,8.32-18.59,18.59-18.59v-4.64c-12.83,0-23.24,10.39-23.24,23.24ZM2434.49,1846.58c-4.07-.71-6.65-3.06-6.27-5.05.55-2.86,4.96-3.61,10.92-3.79,7.97-.24,14.56,2.5,14.56,2.5,0,0,2.45-5.72,3.37-7.89-7.03-3.23-14.35-3.96-17.85-3.96-12.17,0-21.52,6.48-21.52,13.76,0,7.89,9.36,12.98,18.39,13.85,7.36.7,11.89,3.44,11.63,6.02-.23,2.28-4.02,3.42-8.21,3.62-3.63.17-10.63.03-17.97-2.72-.53,1.26-2.53,5.97-3.38,7.99,1.86.94,11.25,5.14,23.46,3.98,11.52-1.07,18.38-8.61,17.55-14.71-1.62-11.98-17.58-12.35-24.69-13.59Z" style="fill:#bcbec0;"/><path d="M1326.39,1980.48v-30.33h.18l12.8,28.98h.18l12.8-28.98h.18v30.33M1365.16,1949.93h-.09M1365.12,1980.48v-30.55M1408.93,1965.02h.76c7.2,0,13.03,5.83,13.03,13.03v2.43M1406.28,1965.02h8.31c4.4,0,8.13-2.7,8.13-7.32,0-3.91-2.65-7.32-8.67-7.32h-7.77v30.1M1380.35,1965.02h.76c7.2,0,13.03,5.83,13.03,13.03v2.43M1377.7,1965.02h8.31c4.4,0,8.13-2.7,8.13-7.32,0-3.91-2.65-7.32-8.67-7.32h-7.77v30.1M1466.14,1965.02h.76c7.2,0,13.03,5.83,13.03,13.03v2.43M1463.48,1965.02h8.31c4.4,0,8.13-2.7,8.13-7.32,0-3.91-2.65-7.32-8.67-7.32h-7.77v30.1M1450.86,1972.26v-13.66c0-4.54-3.68-8.22-8.22-8.22h0c-4.54,0-8.22,3.68-8.22,8.22v13.66c0,4.54,3.68,8.22,8.22,8.22h0c4.54,0,8.22-3.68,8.22-8.22Z" style="fill:none; stroke:#ff4a4a; stroke-linecap:square; stroke-miterlimit:10; stroke-width:3px;"/><path d="M1677.21,1964.8h8.31c4.4,0,8.13-2.7,8.13-7.32,0-3.91-2.65-7.32-8.67-7.32h-7.77v30.1M1713.44,1965.2v15.05M1664.58,1972.03v-13.66c0-4.54-3.68-8.22-8.22-8.22h0c-4.54,0-8.22,3.68-8.22,8.22v13.66c0,4.54,3.68,8.22,8.22,8.22h0c4.54,0,8.22-3.68,8.22-8.22ZM1705.22,1950.15v6.81c0,4.54,3.68,8.22,8.22,8.22h0c4.54,0,8.22-3.68,8.22-8.22v-6.81M1636.44,1958.38c0-4.54-3.68-8.22-8.22-8.22h0c-4.54,0-8.22,3.68-8.22,8.22v13.66c0,4.54,3.68,8.22,8.22,8.22h0c4.54,0,8.22-3.68,8.22-8.22" style="fill:none; stroke:#55c2ff; stroke-linecap:square; stroke-miterlimit:10; stroke-width:3px;"/></svg>