<?xml version="1.0" encoding="UTF-8"?><svg id="a" xmlns="http://www.w3.org/2000/svg" viewBox="0 0 2700 2700"><path d="M937.97,1286.36c35.75,0,64.75,28.96,64.75,64.75v63.61h-25.9v-63.61c0-21.47-17.39-38.87-38.85-38.87s-38.86,17.4-38.86,38.87v63.61h-25.92v-63.61c0-35.79,29.01-64.75,64.79-64.75ZM1078.7,1389.94c21.48,0,38.86-17.35,38.86-38.82s-17.39-38.87-38.86-38.87-38.85,17.4-38.85,38.87,17.41,38.82,38.85,38.82M1143.46,1290.39v124.33h-25.9v-11.8c-10.81,8.11-24.27,12.94-38.86,12.94-35.75,0-64.77-28.96-64.77-64.75s29.02-64.75,64.77-64.75c14.59,0,28.05,4.83,38.86,12.94v-8.91h25.9ZM1226.88,1389.94c21.48,0,38.86-17.35,38.86-38.82s-17.38-38.87-38.86-38.87-38.85,17.4-38.85,38.87,17.41,38.82,38.85,38.82M1226.88,1286.36c35.79,0,64.79,28.96,64.79,64.75s-29,64.75-64.79,64.75c-14.57,0-28.01-4.83-38.85-12.94v66.46h-25.9v-118.26c0-35.79,29-64.75,64.75-64.75ZM1572.29,1402.92c28.61,0,51.83-23.23,51.83-51.81s-23.22-51.81-51.83-51.81-51.79,23.18-51.79,51.81,23.16,51.81,51.79,51.81M1637.06,1290.39v124.33h-12.94v-24.79c-11.83,15.74-30.64,25.93-51.83,25.93-35.75,0-64.75-28.96-64.75-64.75s29-64.75,64.75-64.75c21.18,0,40,10.19,51.83,25.88v-21.85h12.94ZM1498.63,1337.42c-.43-28.3-23.44-51.05-51.8-51.05-19.52,0-36.48,10.76-45.33,26.69-8.85-15.93-25.81-26.69-45.32-26.69-28.35,0-51.36,22.75-51.79,51.05l-.04,77.31h12.96v-76.6c0-21.42,17.39-38.82,38.87-38.82s38.85,17.4,38.85,38.82v76.6h12.96v-76.6c0-21.42,17.39-38.82,38.85-38.82s38.88,17.4,38.88,38.82v76.6h12.94v-77.31h-.02ZM1780.71,1306.23c-22.89,13.22-31.85,41.24-21.83,64.99l89-51.43c-15.53-20.52-44.29-26.73-67.18-13.56ZM1765.34,1382.45c15.53,20.52,44.31,26.73,67.18,13.51,14.13-8.11,22.94-21.95,25.27-36.88l13.59-7.82c-.08,22.33-11.67,43.94-32.38,55.93-30.98,17.92-70.57,7.25-88.47-23.7-17.89-30.95-7.26-70.58,23.7-88.45,30.98-17.92,74.84-7.25,91.43,29.48l-100.32,57.92ZM1751.66,1286.36h-18.31l-64.6,64.56v-120.3h-12.96v184.11h12.96v-45.46l9.26-9.29,54.73,54.75h18.31l-63.88-63.9,64.49-64.46ZM1885.25,1351.11v63.61h12.96v-63.61c0-28.63,23.18-51.81,51.79-51.81v-12.94c-35.75,0-64.75,28.96-64.75,64.75ZM796.73,1336.37c-11.35-1.99-18.53-8.53-17.48-14.08,1.54-7.96,13.83-10.05,30.44-10.57,22.22-.66,40.58,6.97,40.58,6.97,0,0,6.82-15.93,9.4-21.99-19.59-9.01-39.99-11.04-49.73-11.04-33.9,0-59.95,18.06-59.95,38.35,0,21.99,26.09,36.17,51.25,38.58,20.52,1.94,33.14,9.58,32.4,16.78-.64,6.35-11.2,9.53-22.89,10.1-10.11.47-29.61.09-50.08-7.58-1.48,3.51-7.06,16.64-9.43,22.28,5.19,2.61,31.35,14.32,65.36,11.09,32.09-2.99,51.22-23.98,48.9-41-4.52-33.37-48.99-34.41-68.79-37.87Z" style="fill:#bcbec0; opacity:.75;"/></svg>