<?xml version="1.0" encoding="UTF-8"?><svg id="a" xmlns="http://www.w3.org/2000/svg" viewBox="0 0 4000 4000"><rect x="700" y="700" width="2600" height="2600" rx="50" ry="50" style="fill:none; stroke:#d1d1d3; stroke-width:1px;"/><rect id="b" width="4000" height="4000" style="fill:none; stroke:#d1d1d3; stroke-width:2.5px;"/><line x1="250" y1="100" x2="250" y2="4000" style="fill:none; stroke:#d1d1d3; stroke-dasharray:200; stroke-width:1px;"/><line x1="3750" y1="100" x2="3750" y2="3600" style="fill:none; stroke:#d1d1d3; stroke-dasharray:200; stroke-width:1px;"/><path d="M3558.32,3734.89h-31.8l-6.6,26.1h-9.4l29.5-112h4.8l29.6,112h-9.3l-6.6-26.1h-.2ZM3528.92,3725.29h27l-13.6-52.73-13.5,52.73h.1ZM3605.42,3690.09c-7.3,0-12.6,6.9-12.5,13.9v57h-8.6v-80h2.9l4.7,8.1c3.8-5.8,10.1-9.7,17.1-9.7h5.1v10.7h-8.7ZM3651.62,3760.89c-11,.1-19.2-10.4-19-21v-49.8h-12.9v-9.1h12.9v-19.2l8.6-1.6v20.8h18.2v9.1h-18.2v50.2c-.1,5.8,4.3,11.6,10.4,11.5h7.8v9.1h-7.8ZM3677.42,3661.79v-12.8h10v12.8h-10ZM3678.12,3760.99v-80h8.6v80h-8.6ZM3817.82,3760.99l-4.8-8c-2,2.9-4.4,5.2-7.4,6.9-34.6,16.1-47.2-41.9-11.8-45.2h18.2c-.3-6.3,1.5-17.3-3.6-22.2-3.3-4.1-9-4.3-13.9-4.1-7.3,0-12.6,6.9-12.5,13.9v2.9l-8.6-1.6c0-14.1,8.8-24.4,21.1-24.3,10.6-1.2,20.8,3.9,24.5,14.4,3.2,4.5,1.1,60.9,1.7,67.2h-2.9v.1ZM3812.02,3722.19c-4.2,0-19.9-1-23.1,1.1-9.1,4.3-10,19-4,26.1,2.3,2.5,5.4,4.1,8.9,4.1,19.11,0,18.2-15.77,18.2-31.3ZM3877.32,3760.99v-58.6c0-9.28-6.28-16.65-18.11-14.6-7.69,1.49-12.69,7.6-12.59,14.6v58.6h-8.6v-80h2.9l4.7,8.1c19.81-20.82,40.4-5.2,40.4,13.8v58.1h-8.7ZM3493.44,3826.24c13.87,0,25.12,11.24,25.12,25.12v24.68h-10.05v-24.68c0-8.33-6.74-15.08-15.07-15.08s-15.08,6.75-15.08,15.08v24.68h-10.06v-24.68c0-13.88,11.26-25.12,25.13-25.12ZM3548.03,3866.41c8.33,0,15.08-6.73,15.08-15.06s-6.74-15.08-15.08-15.08-15.07,6.75-15.07,15.08,6.75,15.06,15.07,15.06M3573.15,3827.8v48.23h-10.05v-4.58c-4.19,3.14-9.42,5.02-15.08,5.02-13.87,0-25.13-11.24-25.13-25.12s11.26-25.12,25.13-25.12c5.66,0,10.88,1.88,15.08,5.02v-3.46h10.05ZM3605.51,3866.41c8.33,0,15.08-6.73,15.08-15.06s-6.74-15.08-15.08-15.08-15.07,6.75-15.07,15.08,6.75,15.06,15.07,15.06M3605.51,3826.24c13.88,0,25.13,11.24,25.13,25.12s-11.25,25.12-25.13,25.12c-5.65,0-10.87-1.88-15.07-5.02v25.78h-10.05v-45.88c0-13.88,11.25-25.12,25.12-25.12ZM3739.5,3871.45c11.1,0,20.11-9.01,20.11-20.1s-9.01-20.1-20.11-20.1-20.09,8.99-20.09,20.1,8.98,20.1,20.09,20.1M3764.63,3827.8v48.23h-5.02v-9.62c-4.59,6.1-11.89,10.06-20.11,10.06-13.87,0-25.12-11.24-25.12-25.12s11.25-25.12,25.12-25.12c8.22,0,15.52,3.95,20.11,10.04v-8.48h5.02ZM3710.93,3846.04c-.17-10.98-9.09-19.8-20.1-19.8-7.57,0-14.15,4.17-17.58,10.35-3.43-6.18-10.01-10.35-17.58-10.35-11,0-19.93,8.83-20.09,19.8v29.99s5.01,0,5.01,0v-29.72c0-8.31,6.74-15.06,15.08-15.06s15.07,6.75,15.07,15.06v29.72h5.03v-29.72c0-8.31,6.74-15.06,15.07-15.06s15.08,6.75,15.08,15.06v29.72h5.02v-29.99h0ZM3820.35,3833.94c-8.88,5.13-12.35,16-8.47,25.21l34.53-19.95c-6.03-7.96-17.18-10.37-26.06-5.26ZM3814.39,3863.51c6.03,7.96,17.19,10.37,26.06,5.24,5.48-3.14,8.9-8.51,9.8-14.31l5.27-3.03c-.03,8.66-4.53,17.05-12.56,21.7-12.02,6.95-27.37,2.81-34.32-9.19-6.94-12.01-2.82-27.38,9.19-34.31,12.02-6.95,29.03-2.81,35.47,11.44l-38.92,22.47ZM3809.08,3826.24h-7.1l-25.06,25.04v-46.67h-5.03v71.42h5.03v-17.63l3.59-3.6,21.23,21.24h7.1l-24.78-24.79,25.02-25.01ZM3860.91,3851.35v24.68h5.03v-24.68c0-11.11,8.99-20.1,20.09-20.1v-5.02c-13.87,0-25.12,11.24-25.12,25.12ZM3438.64,3845.64c-4.4-.77-7.19-3.31-6.78-5.46.6-3.09,5.37-3.9,11.81-4.1,8.62-.26,15.74,2.7,15.74,2.7,0,0,2.64-6.18,3.65-8.53-7.6-3.49-15.51-4.28-19.29-4.28-13.15,0-23.26,7.01-23.26,14.88,0,8.53,10.12,14.03,19.88,14.97,7.96.75,12.86,3.71,12.57,6.51-.25,2.46-4.35,3.7-8.88,3.92-3.92.18-11.49.04-19.43-2.94-.58,1.36-2.74,6.45-3.66,8.64,2.01,1.01,12.16,5.55,25.36,4.3,12.45-1.16,19.87-9.3,18.97-15.91-1.75-12.95-19.01-13.35-26.68-14.69ZM3756.3,3740.72c.31,12.1-10.01,22.08-21.93,21.9-4.55.02-9.98.33-14.14-1.84-8.25-3.77-13.61-12.59-13.58-21.71,0,0,0-3.21,0-3.21l8.68-1.56v5.32c-.04,5.48,3.31,10.61,8.25,12.83,2.83,1.59,7.68.98,10.79,1.09,10.74-.03,16.53-10.2,11.63-19.4-2.42-3.93-6.41-6.07-10.82-7.63-4.78-1.66-9.94-3.11-14.6-5.2-8.14-3.5-12.77-10.7-12.51-20.03-.3-11.87,9.32-22.12,21.22-21.9,0,0,5.08,0,5.08,0,12.3-.12,21.48,11.69,21.22,23.54,0,0,0,.31,0,.31l-8.68,1.56v-2.43c.15-7.02-5.26-13.99-12.55-13.92-2.9.11-7.32-.36-9.98.86-7.33,2.48-9.66,12.12-5.96,18.26,2.45,3.81,6.46,5.89,10.82,7.43,4.8,1.66,9.88,3.25,14.52,5.44,8.12,3.65,12.77,10.89,12.52,20.26Z" style="fill:#bcbec0;"/></svg>