<?xml version="1.0" encoding="UTF-8"?><svg id="a" xmlns="http://www.w3.org/2000/svg" viewBox="0 0 3200 3500"><path d="M2813.5,213.93h-3.16c-5.17,0-9.36-4.19-9.36-9.36v-24.87c0-5.17,4.19-9.36,9.36-9.36h3.16c5.17,0,9.36,4.19,9.36,9.36v24.87c0,5.17-4.19,9.36-9.36,9.36ZM2954.99,202.7v1.87c0,5.17,4.19,9.36,9.36,9.36h3.16c5.17,0,9.36-4.19,9.36-9.36v-1.74c0-3.55-2.09-6.77-5.34-8.21l-11.19-4.96c-3.25-1.44-5.34-4.66-5.34-8.21v-1.74c0-5.17,4.19-9.36,9.36-9.36h3.16c5.17,0,9.36,4.19,9.36,9.36v1.87M3159.59,173.94v32.53c0,3.84,3.11,6.95,6.95,6.95h3.44M2898.21,192.77v-1.64c0-4.25-3.44-7.69-7.69-7.69h-2.83c-4.25,0-7.69,3.44-7.69,7.69v15.12c0,4.25,3.44,7.69,7.69,7.69h2.83c4.25,0,7.69-3.44,7.69-7.69v-1.64M3169.98,183.44h-18.28M2816.25,224.6l-4.84-10.72M2866.82,181.23v35.02M3143.11,181.23v35.02M2910.7,168.01v48.24M2866.82,168.01v5.28M3143.11,168.01v5.28M3062.28,181.23v47.24M3108.88,168.01v48.24M2928.42,181.44v2l-12.5,15.25,12.5,15.25v2.31M2985.73,181.81l9.84,32.37h.04s8.9-30.8,8.9-30.8h.09s9.33,30.8,9.33,30.8h.04s9.38-32.37,9.38-32.37M3130.83,168.01v2.33l-16.47,21.79,16.47,21.79v2.31M3071.96,213.93h.87c4.23,0,7.66-3.43,7.66-7.66v-15.18c0-4.23-3.43-7.66-7.66-7.66h-.87c-5.34,0-9.68,4.33-9.68,9.68v11.14c0,5.34,4.33,9.68,9.68,9.68ZM2853.73,216.25v-35.02M2835.52,181.23v25.05c0,4.23,3.43,7.66,7.66,7.66h.87c5.34,0,9.68-4.33,9.68-9.68v-23.03M3050.44,216.25v-18.33M3050.44,197.92h-10.41c-4.31,0-7.8,3.49-7.8,7.8v.38c0,4.33,3.51,7.84,7.84,7.84h.51c5.44,0,9.86-4.41,9.86-9.86v-12.82c0-4.31-3.5-7.81-7.81-7.81h-2.28c-4.31,0-7.81,3.5-7.81,7.81v.36" style="fill:none; stroke:#ff4a4a; stroke-miterlimit:10; stroke-width:5px;"/><path d="M3159.37,52.4v32.53c0,3.84,3.11,6.95,6.95,6.95h3.44M3005.92,71.23v-1.64c0-4.25-3.44-7.69-7.68-7.69h-2.83c-4.24,0-7.68,3.44-7.68,7.69v15.12c0,4.25,3.44,7.69,7.68,7.69h2.83c4.24,0,7.68-3.44,7.68-7.69v-1.64M3169.75,62h-18.26M3019.04,59.69v35.02M3142.91,59.69v35.02M3080.63,59.69v13.09c0,4.04-3.27,7.31-7.31,7.31h-3.57c-4.04,0-7.31-3.27-7.31-7.31v-3.09c0-4.25,3.44-7.69,7.68-7.69h.83c5.34,0,9.68,4.34,9.68,9.69M2938.93,94.71v-35.02M3019.04,46.47v5.28M3142.91,46.47v5.28M3108.72,46.47v48.24M3130.64,46.47v2.33l-16.45,21.79,16.45,21.79v2.31M3070.57,90.5c-4,0-7.24,3.24-7.24,7.24h0c0,4,3.24,7.24,7.24,7.24h2.82c4,0,7.24-3.24,7.24-7.24h0c0-4-3.24-7.24-7.24-7.24h-2.82ZM3069.75,80.1h-1.88c-2.87,0-5.2,2.33-5.2,5.2h0c0,2.87,2.33,5.2,5.2,5.2h2.7M2918.66,91.78h-12.22v-22.46h12.22c5.29,0,9.58,4.29,9.58,9.58v3.29c0,5.29-4.29,9.58-9.58,9.58ZM2918.66,69.32h-12.22v-19.91h12.22c5.29,0,9.58,4.29,9.58,9.58v.75c0,5.29-4.29,9.58-9.58,9.58ZM2949.43,61.9h-2.83c-4.24,0-7.68,3.44-7.68,7.69v25.12M2975.96,94.71v-18.33M2975.95,76.38h-10.4c-4.3,0-7.79,3.49-7.79,7.8v.38c0,4.33,3.51,7.84,7.83,7.84h.51c5.44,0,9.85-4.41,9.85-9.86v-12.82c0-4.31-3.49-7.81-7.8-7.81h-2.28c-4.31,0-7.8,3.5-7.8,7.81v.36M3032.18,59.69v35.02M3050.37,94.71v-25.05c0-4.23-3.42-7.66-7.65-7.66h-.87c-5.34,0-9.67,4.33-9.67,9.68v23.03" style="fill:none; stroke:#00a7db; stroke-miterlimit:10; stroke-width:5px;"/><line id="b" y1="150" x2="3200" y2="150" style="fill:none; stroke:#ff4a4a; stroke-dasharray:20 10; stroke-width:3px;"/><line id="c" y1="120" x2="3200" y2="120" style="fill:none; stroke:#00a7db; stroke-dasharray:20 10; stroke-width:3px;"/><line id="d" y1="270" x2="3196.65" y2="270" style="fill:none; stroke:#f1f2f2; stroke-dasharray:19.99 9.99; stroke-width:1px;"/><path d="M2863.47,3234.89h-31.8l-6.6,26.1h-9.4l29.5-112h4.8l29.6,112h-9.3l-6.6-26.1h-.2ZM2834.07,3225.19h27l-13.6-52.71-13.5,52.71h.1ZM3014.07,3234.99c-.4,38-55.5,36.2-53.7-1.7h9c0,12.68,6.7,19.8,16.1,19.7,7.9,1,15.5-3.3,18.2-11,2.3-4.5.9-23.6,1.3-28.7,0-4.7-1.7-9.2-4.7-12.7-3.6-4.4-9.3-5.7-14.8-5.3-9.4,0-16.3,8.9-16.1,18h-9l5.7-64.4h43v9.6h-34.5l-3.3,34.4c12-13.4,35.5-7.3,40.8,9.6,3.3,6.8,1.5,25,1.9,32.5h.1ZM3085.87,3234.99c.3,13.8-10.3,27.6-24.7,27.5-8.1.6-16.4-1.7-21.8-8-4.7-5.2-7.3-12.2-7.2-19.5v-60.2c-.7-30.2,40.9-38.7,51.8-10.7,3.7,5.8,1.3,63.3,1.9,70.9h0ZM3076.87,3174.89c.6-19.8-27.3-25.2-34.3-7-2.5,1.3-.8,63.5-1.3,67.2-.2,9,6.7,18.1,16.1,18,5.5.4,11.2-.8,14.8-5.3,3-3.4,4.7-8,4.7-12.7v-60.2ZM2693.5,3326.24c13.87,0,25.12,11.24,25.12,25.12v24.68h-10.05v-24.68c0-8.33-6.74-15.08-15.07-15.08s-15.08,6.75-15.08,15.08v24.68h-10.06v-24.68c0-13.88,11.26-25.12,25.13-25.12ZM2748.09,3366.41c8.33,0,15.08-6.73,15.08-15.06s-6.74-15.08-15.08-15.08-15.07,6.75-15.07,15.08,6.75,15.06,15.07,15.06M2773.22,3327.8v48.23h-10.05v-4.58c-4.19,3.14-9.42,5.02-15.08,5.02-13.87,0-25.13-11.24-25.13-25.12s11.26-25.12,25.13-25.12c5.66,0,10.88,1.88,15.08,5.02v-3.46h10.05ZM2805.57,3366.41c8.33,0,15.08-6.73,15.08-15.06s-6.74-15.08-15.08-15.08-15.07,6.75-15.07,15.08,6.75,15.06,15.07,15.06M2805.57,3326.24c13.88,0,25.13,11.24,25.13,25.12s-11.25,25.12-25.13,25.12c-5.65,0-10.87-1.88-15.07-5.02v25.78h-10.05v-45.88c0-13.88,11.25-25.12,25.12-25.12ZM2939.57,3371.45c11.1,0,20.11-9.01,20.11-20.1s-9.01-20.1-20.11-20.1-20.09,8.99-20.09,20.1,8.98,20.1,20.09,20.1M2964.69,3327.8v48.23h-5.02v-9.62c-4.59,6.1-11.89,10.06-20.11,10.06-13.87,0-25.12-11.24-25.12-25.12s11.25-25.12,25.12-25.12c8.22,0,15.52,3.95,20.11,10.04v-8.48h5.02ZM2911,3346.04c-.17-10.98-9.09-19.8-20.1-19.8-7.57,0-14.15,4.17-17.58,10.35-3.43-6.18-10.01-10.35-17.58-10.35-11,0-19.93,8.83-20.09,19.8v29.99s5.01,0,5.01,0v-29.72c0-8.31,6.74-15.06,15.08-15.06s15.07,6.75,15.07,15.06v29.72h5.03v-29.72c0-8.31,6.74-15.06,15.07-15.06s15.08,6.75,15.08,15.06v29.72h5.02v-29.99h0ZM3020.42,3333.94c-8.88,5.13-12.35,16-8.47,25.21l34.53-19.95c-6.03-7.96-17.18-10.37-26.06-5.26ZM3014.46,3363.51c6.03,7.96,17.19,10.37,26.06,5.24,5.48-3.14,8.9-8.51,9.8-14.31l5.27-3.03c-.03,8.66-4.53,17.05-12.56,21.7-12.02,6.95-27.37,2.81-34.32-9.19-6.94-12.01-2.82-27.38,9.19-34.31,12.02-6.95,29.03-2.81,35.47,11.44l-38.92,22.47ZM3009.15,3326.24h-7.1l-25.06,25.04v-46.67h-5.03v71.42h5.03v-17.63l3.59-3.6,21.23,21.24h7.1l-24.78-24.79,25.02-25.01ZM3060.97,3351.35v24.68h5.03v-24.68c0-11.11,8.99-20.1,20.09-20.1v-5.02c-13.87,0-25.12,11.24-25.12,25.12ZM2638.71,3345.64c-4.4-.77-7.19-3.31-6.78-5.46.6-3.09,5.37-3.9,11.81-4.1,8.62-.26,15.74,2.7,15.74,2.7,0,0,2.64-6.18,3.65-8.53-7.6-3.49-15.51-4.28-19.29-4.28-13.15,0-23.26,7.01-23.26,14.88,0,8.53,10.12,14.03,19.88,14.97,7.96.75,12.86,3.71,12.57,6.51-.25,2.46-4.35,3.7-8.88,3.92-3.92.18-11.49.04-19.43-2.94-.58,1.36-2.74,6.45-3.66,8.64,2.01,1.01,12.16,5.55,25.36,4.3,12.45-1.16,19.87-9.3,18.97-15.91-1.75-12.95-19.01-13.35-26.68-14.69ZM2942.65,3234.97c.3,13.79-10.29,27.58-24.69,27.48-11.79,1.3-23.09-5.4-27.08-16.79-1.7-4.1-2.1-8.99-1.9-13.59l8.99-1.6c0,3.6-.2,8.2,1.2,11.39,2.4,6.2,8.1,10.99,14.89,10.99,5.5.4,11.19-.8,14.79-5.3,5.5-5.4,4.8-14.89,4.7-21.99.2-8.99-6.7-17.99-16.09-17.89h-6.7v-9.59c3.8,0,9.59.5,12.99-1.4,10.49-4.9,11.49-19.09,8.49-28.98-3.5-10.09-15.19-13.39-24.49-9.49-8,3.6-10.59,12.79-9.79,20.99l-8.99-1.6c-.1-4.6.2-9.49,1.9-13.59,5.4-15.19,22.49-20.59,36.68-14.59,10.89,5.1,15.99,17.49,15.09,29.18,0,9.69-4.7,19.29-13.09,24.39,11.19,6.3,13.99,19.99,13.09,31.88v.1Z" style="fill:#bcbec0;"/></svg>