<?xml version="1.0" encoding="UTF-8"?><svg id="a" xmlns="http://www.w3.org/2000/svg" viewBox="0 0 2000 2000"><path d="M0,0h2000v2001H0V0ZM1990,10.01s-107.5,0-107.5,0c-67.22,25.2-43.2,85.56-45.51,139.56-5.27,76.58-89.35,107.43-131.39,161.69-23.35,30.15-31.88,60.11-47.43,93.62-36.2,78.05-97.33,84.02-164.49,36.16-74.74-53.27-43.24-133.03,22-176.71,35.84-24,69.74-26.31,109.53-37.49,69.76-19.6,135.43-77.1,112.28-156.79-17.07-58.78-73.59-63.86-126.03-60.07-104.03,7.5-106.42,118.86-159.49,182.6-27.72,33.29-59.01,53.53-77.44,95.61-16.36,37.36-15.67,89.77-39.7,120.36-62.3,79.27-184.23-.62-152.84-92.89,32-94.08,187.8-130.19,215.78-215.33,13.58-41.34-13.88-85.82-57.38-90.18-20.12-2.02-60.48-1.61-79.39,4.37-65.27,20.65-63.04,79.76-83.24,132.82-19.96,52.43-66.78,90.66-93.92,140.15-66.51,121.29,37.28,168.79,114.19,237.28,47.92,42.67,73.2,90.95,97.16,149.91,43.04,105.94-98.9,134.64-133.35,58.38-9.93-21.99-8.04-43.97-10.96-67.08-13.29-105.49-102.07-119.96-155.69-195.41-63.84-89.84-23.75-199.51,36.86-278.91,31.39-41.12,89.48-92.48,55.38-149.54-20.31-33.99-53.88-34.98-89.96-32.13-39.03,3.08-67.93,37.47-73.33,74.71-4.54,31.26-.71,62.43-6.45,94.6-16.82,94.31-98.71,163.29-69.18,266.95,15.07,52.89,58.37,92.37,101.18,123.88,45.61,33.58,117.19,67.58,112.3,134.73-4.98,68.33-84.31,80.07-137.98,65.04-76.31-21.36-58.05-94.5-81.83-150.24-27.17-63.69-78.68-76.96-118.69-123.37-73.42-85.17,36.83-193.12,75.04-267.13,26.07-50.49,46.23-133.88,12.29-184.43-32.29-48.09-107.94-47.55-139.62,1.01-29.32,44.93-10.05,100.51-8.15,149.84,2.69,69.94-25.05,151.51-87.12,189.06-37.29,22.55-83.31,29.94-120.59,51.43-72.16,41.6-56.52,131.21,9.75,169.68,80.66,46.83,156.81-28.22,237.18,1.82,86.68,32.4,86.06,159.04-15.77,165.83-96.11,6.41-162.92-19.07-243.16-66.85-52.48-31.25-121.56-91.89-130.21-155.87-4.34-32.12,4.41-106.2,18.02-135.8,24.06-52.31,90.22-65.86,138.22-88.83,73.12-34.99,103.43-79.86,95.64-163.44-8.51-91.31-49.88-147.83-145.51-152.57-104.49-5.18-213.11,3.9-318.03-.05C-5.06,14.57-14.65,146.29,95.63,160.95c114.34,15.2,183.2-66.78,289.86-58.89,65.73,4.86,100.54,73.74,55.03,125.06-28.35,31.97-118.76,63.64-161.02,65.01-69.83,2.26-154.99-50.85-217.69-34.71-21.97,5.65-48.95,28.83-51.69,52.34-4.19,35.97-.37,71.97,33.59,91.24,49.48,28.09,88.51-18.02,137.84-1.84,42.35,13.89,55.74,62.06,38.64,100.76-20.89,47.26-71.87,51.06-114.14,68.89C-10.21,617.86,11.56,703.1,10.02,810.89c13.47,102.45,150.41,79.05,139.71-22.72-2.38-22.65-15.77-45.8-17.71-68.33-3.5-40.67,16.79-76.8,58.75-84.26,55.88-9.93,81.48,44.57,112.72,78.78,43.55,47.7,80.62,62.47,132.43,95.62,33.39,21.37,59.79,51.42,64.09,92.46,3.51,32.98,8.04,73.89-14.03,101.53-21.14,25.95-53.27,32.08-83.65,18.71-56.23-24.75-77.75-98.21-141.94-107.11-47.75-6.62-83.32,28.06-124.87,42.92-44.43,15.9-99.96,11.35-121.28,63.75-5.66,13.92-5.6,42.43-4.27,57.83,1.43,16.54,14.16,32.85,28.37,40.65,86.09,40.57,137.26-119.43,275.69-43.71,36.64,18.78,87.74,46.03,117.99,73.04,28.66,25.59,51.43,60.92,89.4,73.58,36.44,13.25,80.62,16.35,107.55,47.52,67.72,79.79-60.86,189.17-137.45,128.51-32.48-25.72-50.7-86.38-74.71-122.35-35.21-52.76-108.8-111.38-175.35-108.78-43.23,1.69-123.58,40.41-158.78,66.26-140.06,102.85-54.01,338.06,121.81,325.97,44.96-3.09,96.99-25.07,88.39-79.41-13.66-86.32-137.78-37.57-154.44-121.62-13.35-67.37,73.54-102.29,127.77-87.82,41.36,11.04,64.88,45.01,84.96,80.08,14.39,25.14,29.57,52.42,43,78.04,28.84,55.01,40.79,111.15-4.2,162.23-51.73,58.73-176.9,58.33-250.18,70.85-92.59,15.82-126.11,76.04-129.78,165.3,3.03,34.52-4.12,76.3.07,109.96,5.07,40.72,57.68,60.68,88.45,31.63,25.29-23.89,16.9-61.55,20.6-92.45,15.1-126.05,117.79-144.27,225.33-144.66,94.27-.34,134.82,3.26,188.56-81.56,29.57-46.67,44.28-101.82,81.46-143.61,20.46-23,65.85-61.71,94.74-71.29,58.13-19.28,118.26,26.78,98.06,89.1-17.81,54.95-93.08,85.58-136.2,118.86-52.99,40.89-77.67,93.86-117.69,144.38-85.48,107.91-184.56,12.92-288.18,45.84-81.33,25.84-73.61,149.3,12.3,156.35,27.09,2.22,60.56-.09,87.94-1.03,61.45-2.09,113.07-6.12,166.46-39.56,72.6-45.47,97.48-118.05,149.11-180.98,59.36-72.35,150.93-98.59,199.15-181.94,45.57-78.77,45.4-158.39-35.86-211.59-29.62-19.39-72.42-25.44-92.73-55.3-22.88-33.63-4.59-78.25,33.41-89.47,17.32-5.11,32.16-3.45,49.46-3.45,57.22.02,119.54-3.2,176.09-.09,59.94,3.3,92.51,39.4,88.45,99.58-4.47,66.34-45.09,110.31-74.51,165.57-30.17,56.68-40.62,114.75-78.66,168.42-40.17,56.66-78.43,78.21-132.13,117.93-41.67,30.82-110.23,89.53-101.41,147.12,12.41,81.07,125.22,80.13,175.2,35.76,38.87-34.5,36.18-90.48,54.04-136.03,18.91-48.22,60.01-78.82,88.11-120.95,36.94-55.38,50.12-117.87,80.85-175.24,23.12-43.18,59.39-84.09,71.03-132.03,13.31-54.82-3.64-123.82,52.57-157.51,27.84-16.69,85.01-19.42,113.59-3.75,57.29,31.4,31.65,101.64,6.5,145.92-20.84,36.69-47.79,53.34-78.19,79.85-91.41,79.73-104.11,208.02-172.17,302.98-35.54,49.59-92.17,93.38-86.85,161.3,2.58,32.92,31.62,61.95,64.5,64.53,57.25,4.49,91.55-17.21,107.25-72.86,17.87-63.34,21.4-128.07,44.01-192.08,16.99-48.09,55.05-140.04,87.76-177.33,66.38-75.7,181.96-4.66,141.69,89.73-27.21,63.78-92.32,106.84-131.99,162.09-32.24,44.91-62.9,117.75-20.16,165.87,27.12,30.54,82.84,33.96,114.89,9.95,39.82-29.84,33.26-84.5,42.4-128.67,13.68-66.09,48.51-109.16,76.55-167.54,33.15-69.04,50.04-151.15,116.83-198.27,64.29-45.36,129.57,22.63,82.29,83.33-13.01,16.7-33.86,32.23-48.48,48.54-34.67,38.67-51.47,83.89-74.96,129.1-30.13,57.97-108.27,178.54-39,234.07,22.84,18.31,68.79,20.16,92.79,3.84,74.27-49.31-1-222,115.19-333.97,51.73-50.44,115.73-18.58,112.54,52.57-3.8,84.72-76.62,112.31-94.76,184.33-11.44,45.43,6.42,93.92,55.08,105.4,17.96,4.24,64.81,3.61,81.9-3.37,25.69-10.5,43.57-35.91,46.72-63.31l.06-268.16c-1.71-15.92-4.73-31.15-11.18-45.84-22.32-50.78-77.94-65.73-108.08-108.98-70.57-101.28,64.85-171.53,103.4-250.17,16.22-33.1,19.45-80.77,15.81-117.23-4.22-42.32-51.29-65.2-89.02-47.06-49.48,23.79-40.09,87.7-48.29,132.78-10.51,57.76-55.81,118.29-110.72,140.35-42.86,17.22-84.24,14.74-125.49,41.53-39.74,25.81-64.62,82.09-121.26,64.33-38.28-12-49.05-50.36-39.71-86.32,13.47-51.92,36.3-94.54,41.49-150.59,4.58-49.39-3.09-100.14,1.02-148.06,7.42-86.52,118.17-87.52,135.5-8.53,8.86,40.38-13.16,76.77-6.24,116.3,10.83,61.88,85.93,81.88,120.14,26.7,16.15-26.04,15.39-58.75,20.9-88.14,12.47-66.52,44.45-110.45,109.72-132.34,30.85-10.35,67.62-11.93,92-36.02,26.43-26.11,29.7-80.53-.03-105.11-49.1-40.6-104.55,19.16-143.7,46.35-78.74,54.69-126.94,71.3-218.67,29.06-40.43-18.62-64.88-37.96-86.81-77.23-18.91-33.85-27.51-58.54-52.85-90.19-38.95-48.65-81.99-94.26-105.46-153.62-23.17-58.6,20.13-110.05,80.73-88.77,44.92,15.77,73.37,54.96,84.07,99.98,13.01,54.72,14.61,80.05,45.26,129.8,54.44,88.37,111.95,123.84,209.33,64.53,186.56-114.12,217.62-141.78,208.13-369.15-4.08-58.36-67.89-78-111.51-41.45-78.51,65.78-16.53,164.07-49.67,242.45-18.87,44.64-75.42,91.21-126.22,83.55-59.35-8.95-90.43-82.81-73.34-136.14,13.65-42.61,52.36-60.34,79.74-91.31,37.2-42.07,43.51-100.58,80.46-142.61,18.11-20.6,44.32-41.02,68.84-53.19,65.29-32.41,126.3-45.5,131.67-133.4,0,0,0-160.57,0-160.57ZM728.35,1157.31h0l-6.74,39.36h-11.22l6.78-39.56c1.26-7.37.61-12.45-1.98-15.53-2.78-3.3-7.48-3.68-10.77-3.68-12.07,0-20.9,14.62-21.77,19.68l-6.7,39.09h-10.98l11.61-67.75h10.98l-1.03,6.03c2.79-2.42,9.91-7.55,20.03-7.55,7.52,0,13.81,2.54,17.7,7.16,4.42,5.24,5.8,12.89,4.11,22.75ZM769.43,1103.89h-11.22l-4.29,25.04h-11.37l-1.71,9.97h11.37l-9.9,57.78h11.22l9.9-57.78h13.06l1.71-9.97h-13.06l4.29-25.04ZM660.08,1126.72c4.56.13,8.96-3.81,9.63-8.18,1.24-8.02-7.66-11.1-13.24-6-5.38,4.48-4.35,14.08,3.61,14.18ZM644.55,1127.52c-13.87,0-20.35,7.45-20.35,7.45l1.03-6.05h-10.98l-11.61,67.75h10.98l6.7-39.09c.95-5.52,8.35-19.62,22.22-19.62l2-10.44ZM590.8,1137.34c12.03,14.86,5.83,38.5-8.73,50.52-13.59,12.51-37.36,15.71-48.52-.4,0,0-5.87,34.25-5.87,34.25,0,0-10.98,0-10.98,0l15.9-92.79h10.98s-1.5,8.78-1.5,8.78c14.33-13.35,36.72-15.82,48.72-.37ZM537.4,1162.22c-4.25,24.4,21.7,32.85,38.11,17.67,9.9-8.66,14.21-24.55,5.84-35.12-3.82-4.95-9.08-7.47-15.63-7.47-12.85-.16-26.54,11.65-28.32,24.92ZM641.92,1196.68h11.23l11.61-67.75h-11.23l-11.61,67.75ZM1045.63,1112.53c-4.64-5.73-14.17-.83-15,5.8-.87,4.29,2.36,8.54,6.88,8.38,6.77.35,12.82-8.79,8.13-14.18ZM1126.23,1128.93l-9.49,55.39c-1.77,10.36-6.22,18.83-13.22,25.18-10.38,9.95-32.03,13.33-44.09,4.58-4.14-3.1-7.5-7.78-9.98-13.91l10.14-4.55c3.75,8.83,10.18,13.12,19.65,13.12,11.69.13,22.4-9.17,25.55-20.75-23.07,21.8-59.51,7.59-54.06-25.46,3.99-27.94,42.6-50.28,62.99-24.67,0,0,1.53-8.92,1.53-8.92h10.98ZM1110.06,1162.03c1.22-7.11-.21-13.07-4.24-17.72-8.81-10.31-24.01-8.5-33.71.54-10.16,8.68-14.41,24.52-6.32,35.12,3.74,4.95,9.08,7.46,15.87,7.46,13.99.2,26.28-11.65,28.4-25.41ZM1019.34,1196.68h11.23l11.61-67.75h-11.23l-11.61,67.75ZM848.38,1112.53c-4.64-5.73-14.17-.83-15.01,5.8-.86,4.29,2.36,8.54,6.88,8.38,6.77.35,12.82-8.79,8.13-14.18ZM822.1,1196.68h11.23l11.61-67.75h-11.23l-11.61,67.75ZM882.65,1103.89h-11.22l-4.29,25.04h-11.37l-1.71,9.97h11.37l-9.9,57.78h11.22l9.9-57.78h13.06l1.71-9.97h-13.06l4.29-25.04ZM1004.59,1137.83c18.92,23.77-6.16,61.67-34.59,61.04-9.28,0-16.65-3.64-22.51-11.12,0,0-1.53,8.92-1.53,8.92,0,0-10.98,0-10.98,0,0,0,15.9-92.79,15.9-92.79,0,0,10.98,0,10.98,0,0,0-5.84,34.1-5.84,34.1,13.49-13.47,36.92-15.22,48.57-.15ZM951.16,1163.57c-1.22,7.11.21,13.07,4.24,17.72,8.81,10.31,24.01,8.5,33.71-.55,10.16-8.68,14.41-24.52,6.32-35.12-3.74-4.95-9.08-7.46-15.87-7.46-14.01-.21-26.29,11.68-28.4,25.41ZM1504.31,986.96c0,14.23-11.49,25.76-25.65,25.76s-25.65-11.53-25.65-25.76,11.49-25.76,25.65-25.76,25.65,11.53,25.65,25.76ZM985.69,912.86c-.33,41.12,37.04,69.68,76.52,64.62,52.19-2.26,78.05-64.73,47.85-105.56-37.56-53.51-124.43-23.8-124.37,40.94ZM1121.22,827.47c.02-6.82.1-6.91,7.03-6.93h16.42c5.45.03,5.86.42,5.89,5.82l-.07,138.65c-.08,13.13-.46,26.31-2.71,39.31-6.41,36.91-32.38,62.56-69.76,68.55-48.05,8.83-99.75-7.93-118.43-56.57-1.09-2.56-.71-3.95,2.4-3.92h23.95c2.25-.02,3.44,1.16,4.54,2.94,13.16,21.33,32.68,31.11,57.06,32.25,33.71,2.29,64.53-13.36,72.61-50.62,2.28-10.53,2.72-22.49,2.72-22.49-20.76,23.11-52.06,34.02-82.73,30.44-75.14-6.3-110.14-101.29-59.31-156.07,33.06-38.91,108.9-40.36,140.58-3.14l-.17-18.25ZM533.7,911.39c-1.76,42.88,38.12,72.22,77.92,65.91,50.93-3.54,75.47-64.21,46.65-104.6-36.51-54.21-124.78-25.09-124.58,38.71v-.02ZM669.13,975.54c-37.61,40.25-104.25,40.36-140.43-.8-54.65-60.6-10.07-157.1,69.38-158.79,28.05-.84,51.02,10.53,71.08,31.52,0-7.94.2-14.62-.08-21.25-.17-4.26,1.22-5.93,5.53-5.73,6.35.27,12.71.15,19.08.05,3.22-.06,4.41,1.28,4.41,4.56-.1,51.91.1,103.81-.31,155.7.99,40.64-19.64,78.57-60.55,89.11-49.66,15.08-110.52-1.54-129.99-53.69-1.15-2.72-.56-3.86,2.44-3.84,7.85.05,15.68.07,23.53,0,2.39-.03,3.83,1.05,5.02,2.97,13.68,22.15,34.07,31.62,59.3,32.34,30.55,1.44,65.93-12.17,69.79-46.36,1.13-8.2,1.7-16.62,1.79-25.79ZM1321.93,894.05c4.96,0,5-.18,3.6-5.07-12.84-44.51-66.72-55.05-97.62-35.07-13.02,8.43-20.55,21.14-25.87,35.42-1.65,4.43-1.48,4.71,3.32,4.71h116.57ZM1204.71,920.33c-8.14,0-8.1,0-6.93,8.08,6.3,54.89,70.26,77.91,111.37,41.77,7.27-6.73,13.44-14.33,18.18-23.03,1.62-2.99,3.09-3.77,6.19-2.04l17.36,9.03c1.98,1.02,3.09,2.19,1.75,4.56-13.59,24.08-30.94,44.25-58.46,51.81-32.18,8.84-63.03,5.78-89.85-16.03-22.42-18.22-34.74-42.12-36.42-71.52-7.63-86.74,91.45-141.17,158.11-83.76,20.89,19.01,30.47,43.15,32.49,70.93.54,6.35-2.16,10.32-8.68,10.19l-145.11.02ZM803.65,847.52c5.18-4.97,9.14-9.33,13.73-13,42.33-36.08,119.62-12.43,119.62,51.32l.73,116.7c0,5.93-.07,5.97-5.97,5.99h-16.42q-6.44,0-6.45-6.38c0-32.15-.02-64.29-.02-96.45.48-38.55-13.33-69.2-56.48-61.13-24.55,4.56-44.68,28.65-47.05,53.82-2.5,26.59-2.48,88.2-2.45,105.88,0,2.36-1.91,4.27-4.27,4.27,0,0-19.89-.02-19.89-.02-2.62,0-3.92-.9-3.92-3.97v-176.3c0-5.15,2.62-7.72,7.85-7.72s10.94.12,16.42-.03c3.47-.09,4.72,1.35,4.63,4.8-.19,6.95.02,13.99-.07,22.23ZM1396.67,839.8c17.02-24.01,34.39-30.28,59.46-17.32,1.95,1.01,1.8,2.44.8,4.09l-11.55,19.14c-.92,1.52-1.9,2.32-3.96,1.8-14.91-3.8-22.98-.42-31.21,12.84-7.32,11.81-10.6,24.88-11.74,38.59-2.86,34.32-1.45,68.7-1.77,103.07-.06,6.49-.03,6.49-6.32,6.5l-18.18.08c-3.97,0-5.04-2.21-5.04-5.27v-176.23c0-6.29.25-6.51,6.53-6.53l18.63-.03c3.19,0,4.41,1.24,4.41,4.54l-.05,14.75v-.02ZM749.48,914.88v87.43c0,6.14-.06,6.18-6.25,6.19-6.21,0-12.42-.12-18.63.05-3.19.07-4.72-1.09-4.54-4.39.08-1.49,0-118.68,0-175.77,0-5.24,2.62-7.85,7.88-7.85s10.35-.02,15.51,0c5.83.03,6.03.19,6.03,6.01v88.33ZM745.4,770.05c3.06,0,4.1.96,4.08,3.87-.06,7.15-.06,14.32,0,21.47.03,2.9-1.35,3.91-4.08,3.89-7.08-.08-14.16-.12-21.24.02-3.15.05-4.13-1.47-4.11-4.36.06-6.85.09-13.72,0-20.57-.04-3.31,1.44-4.34,4.56-4.34l20.79.02Z" style="opacity:.12;"/></svg>