<?xml version="1.0" encoding="UTF-8"?><svg id="a" xmlns="http://www.w3.org/2000/svg" viewBox="0 0 2800 2500"><path d="M2313.77,2421.6c0,9.9-4.99,12.82-12.45,12.82h-8.31v-25.64h8.31c7.46,0,12.45,2.14,12.45,12.82ZM2308.78,2421.6c0-7.13-2.88-8.72-7.68-8.72h-3.25v17.36h3.25c4.95,0,7.68-1.88,7.68-8.64ZM2317.24,2424.45c0-8.05,3.51-10.34,9.57-10.34s9.6,2.29,9.6,10.34-3.51,10.34-9.6,10.34-9.57-2.29-9.57-10.34ZM2331.64,2424.45c0-5.17-1.22-6.8-4.84-6.8s-4.8,1.63-4.8,6.8,1.22,6.76,4.8,6.76,4.84-1.59,4.84-6.76ZM2366.73,2420.75v13.67h-4.62v-12.37c0-2.81-.63-4.1-3.44-4.1-2.36,0-4.06.66-4.88,3.18v13.3h-4.62v-19.95h4.62v2.51c1.15-2.07,3.55-2.88,6.28-2.88,5.06,0,6.65,2.44,6.65,6.65ZM2370.64,2424.45c0-8.05,3.51-10.34,9.57-10.34s9.6,2.29,9.6,10.34-3.51,10.34-9.6,10.34-9.57-2.29-9.57-10.34ZM2385.05,2424.45c0-5.17-1.22-6.8-4.84-6.8s-4.8,1.63-4.8,6.8,1.22,6.76,4.8,6.76,4.84-1.59,4.84-6.76ZM2398.78,2418.17v9.6c0,2.59.44,3.21,2.47,3.21.7,0,1.26-.04,1.81-.19v3.66c-.78.11-1.63.18-2.47.18-4.77,0-6.43-1.26-6.43-6.5v-9.97h-2.77v-3.69h2.77v-4.73h4.62v4.73h4.4v3.69h-4.4ZM2419.76,2418.17v9.6c0,2.59.44,3.21,2.47,3.21.7,0,1.26-.04,1.81-.19v3.66c-.78.11-1.63.18-2.47.18-4.77,0-6.43-1.26-6.43-6.5v-9.97h-2.77v-3.69h2.77v-4.73h4.62v4.73h4.4v3.69h-4.4ZM2425.97,2424.45c0-8.05,3.51-10.34,9.57-10.34s9.6,2.29,9.6,10.34-3.51,10.34-9.6,10.34-9.57-2.29-9.57-10.34ZM2440.37,2424.45c0-5.17-1.22-6.8-4.84-6.8s-4.8,1.63-4.8,6.8,1.22,6.76,4.8,6.76,4.84-1.59,4.84-6.76ZM2466.41,2414.47v19.95h-4.14l-.41-2.55c-1.15,2.14-3.4,2.92-6.17,2.92-5.02,0-6.69-2.44-6.69-6.61v-13.7h4.62v12.37c0,2.77.63,4.1,3.47,4.1,2.22,0,3.91-.63,4.69-3.18v-13.3h4.62ZM2506.71,2420.75v13.67h-4.62v-12.37c0-2.81-.67-4.1-3.44-4.1-2.33,0-4.14.7-4.88,3.29v13.19h-4.62v-28.07h4.62v10.71c1.11-2.11,3.55-2.96,6.28-2.96,5.06,0,6.65,2.44,6.65,6.65ZM2547.46,2408.78h5.06l4.29,19.91,4.36-17.25h5.62l4.47,17.25,4.1-19.91h4.99l-5.95,25.64h-6.1l-4.36-17.18-4.73,17.18h-6.06l-5.69-25.64ZM2598.65,2420.49v13.93h-4.1l-.48-2.55c-.96,1.7-3.47,2.92-6.65,2.92-4.54,0-6.83-2.07-6.83-6.02,0-4.69,2.92-6.35,8.09-6.35h5.36v-.89c0-2.4-.81-3.55-4.51-3.55-1.4,0-2.88.15-4.29.41v-3.95c1.51-.22,3.32-.33,4.77-.33,6.54,0,8.64,2.4,8.64,6.39ZM2594.03,2428.32v-2.62h-4.73c-2.88,0-4.14.56-4.14,2.92,0,1.74.96,2.55,3.25,2.55,2.77,0,4.8-1.11,5.61-2.85ZM2614.2,2418.24c-2.55,0-5.02.89-5.76,4.32v11.86h-4.62v-19.95h4.62v3.58c1.22-3.29,3.62-3.95,5.98-3.95l-.22,4.14ZM2635.18,2420.75v13.67h-4.62v-12.37c0-2.81-.63-4.1-3.44-4.1-2.36,0-4.06.66-4.88,3.18v13.3h-4.62v-19.95h4.62v2.51c1.15-2.07,3.55-2.88,6.28-2.88,5.06,0,6.65,2.44,6.65,6.65ZM2639.79,2408.89c0-2.25.55-2.47,2.62-2.47s2.62.22,2.62,2.47-.55,2.51-2.62,2.51-2.62-.3-2.62-2.51ZM2640.09,2414.47h4.62v19.95h-4.62v-19.95ZM2667.31,2420.75v13.67h-4.62v-12.37c0-2.81-.63-4.1-3.44-4.1-2.36,0-4.06.66-4.88,3.18v13.3h-4.62v-19.95h4.62v2.51c1.15-2.07,3.55-2.88,6.28-2.88,5.06,0,6.65,2.44,6.65,6.65ZM2690.14,2414.47v18.43c0,5.5-2.84,8.9-10.6,8.9-1.77,0-3.91-.22-5.39-.48v-3.73c1.51.37,3.43.56,5.13.56,4.36,0,6.28-1.44,6.28-5.47v-1.4c-.81,1.96-2.51,3.14-6.17,3.14-6.54,0-8.16-4.06-8.16-10.16,0-5.5,1.62-10.16,8.16-10.16,3.77,0,5.39,1.29,6.17,3.29v-2.92h4.58ZM2685.74,2424.26c0-4.06-.89-6.61-5.17-6.61s-4.54,3.18-4.54,6.61c0,3.69.55,6.69,4.54,6.69,4.29,0,5.17-2.48,5.17-6.69ZM2720.79,2420.75v13.67h-4.62v-12.37c0-2.81-.67-4.1-3.44-4.1-2.33,0-4.14.7-4.88,3.29v13.19h-4.62v-28.07h4.62v10.71c1.11-2.11,3.55-2.96,6.28-2.96,5.06,0,6.65,2.44,6.65,6.65ZM2724.7,2424.45c0-8.05,3.51-10.34,9.57-10.34s9.6,2.29,9.6,10.34-3.51,10.34-9.6,10.34-9.57-2.29-9.57-10.34ZM2739.11,2424.45c0-5.17-1.22-6.8-4.84-6.8s-4.8,1.63-4.8,6.8,1.22,6.76,4.8,6.76,4.84-1.59,4.84-6.76ZM2752.85,2418.17v9.6c0,2.59.44,3.21,2.47,3.21.7,0,1.26-.04,1.81-.19v3.66c-.78.11-1.63.18-2.47.18-4.77,0-6.43-1.26-6.43-6.5v-9.97h-2.77v-3.69h2.77v-4.73h4.62v4.73h4.4v3.69h-4.4ZM2590.8,2468.58v-3.88c2.55.59,9.71,2.29,9.71-1.48,0-1.88-.66-2.29-4.06-3.1-4.32-1.03-5.39-2.33-5.39-5.69,0-6.18,8.18-6.52,13-5.1l-.22,3.62c-1.73-.55-8.46-1.98-8.46,1.44,0,1.55.63,1.81,3.73,2.59,4.43,1.07,5.76,2.36,5.76,6.1,0,7.16-9.09,6.62-14.07,5.5ZM2626.22,2449.04v19.95h-4.14l-.41-2.55c-1.15,2.14-3.4,2.92-6.17,2.92-5.02,0-6.69-2.44-6.69-6.61v-13.7h4.62v12.37c0,2.77.63,4.1,3.47,4.1,2.22,0,3.91-.63,4.69-3.18v-13.3h4.62ZM2641.7,2452.81c-2.55,0-5.02.89-5.76,4.32v11.86h-4.62v-19.95h4.62v3.58c1.22-3.29,3.62-3.95,5.98-3.95l-.22,4.14ZM2650.56,2449.04h4.17v3.66h-4.17v16.29h-4.62v-16.29h-3.18v-3.66h3.18c0-7.25,2.92-8.27,7.46-8.27.78,0,1.55.07,2.29.18v3.4c-.52-.07-1.18-.15-1.81-.15-2.73,0-3.32,1-3.32,4.84ZM2674.35,2455.06v13.93h-4.1l-.48-2.55c-.96,1.7-3.47,2.92-6.65,2.92-4.54,0-6.83-2.07-6.83-6.02,0-4.69,2.92-6.35,8.09-6.35h5.36v-.89c0-2.4-.81-3.55-4.51-3.55-1.4,0-2.88.15-4.28.41v-3.95c1.51-.22,3.32-.33,4.77-.33,6.54,0,8.64,2.4,8.64,6.39ZM2669.73,2462.89v-2.62h-4.73c-2.88,0-4.14.56-4.14,2.92,0,1.74.96,2.55,3.25,2.55,2.77,0,4.8-1.11,5.61-2.85ZM2678.44,2459.01c0-10.5,7.77-11.42,14.81-9.68v3.95c-4.74-1.46-10.05-1.72-10.05,5.76s5.42,7.12,10.19,5.65v3.92c-7.07,1.86-14.96.99-14.96-9.6ZM2470.43,2424.63c0-10.5,7.77-11.42,14.81-9.68v3.95c-4.74-1.46-10.05-1.72-10.05,5.76s5.42,7.12,10.19,5.65v3.92c-7.07,1.86-14.96.99-14.96-9.6ZM2713.83,2459.9l-13.08.85c.11,3.32,1.74,4.88,5.72,4.88,2.4,0,5.13-.67,6.5-1.37v3.77c-1.18.66-4.06,1.33-7.31,1.33-6.06,0-9.57-2.29-9.57-10.34s3.51-10.34,9.57-10.34c6.91,0,8.35,3.92,8.35,8.61,0,.96-.07,1.96-.18,2.62ZM2709.73,2456.8c0-2.47-.52-4.58-4.06-4.58-3.73,0-4.77,1.77-4.91,5.24l8.98-.66ZM1046.76,2351.6l57-57.12,57,57.12-57,57.12-57-57.12ZM1115,2363.31h0s-11.26,11.31-11.26,11.31v25.98l48.92-49.01-48.92-49.02.02,22.44-11.36,11.52v26.67l22.58-22.72v22.82ZM57.06,2260.28h11.77c10.82,0,14.16,3.61,14.16,12.25,0,9.28-4.08,12.62-14.16,12.62h-4.82v11.93h-6.95v-36.8ZM67.98,2279.53c5.94,0,7.9-1.54,7.9-6.89,0-5.04-2.01-6.73-7.9-6.73h-3.98v13.63h3.98ZM110.98,2290.98v6.1h-22.06v-36.8h6.95v30.7h15.11ZM137.49,2287.33h-15.38l-3.5,9.76h-7.16l13.79-36.8h9.33l13.68,36.8h-7.37l-3.39-9.76ZM135.42,2281.49l-5.25-15.01h-.64l-5.36,15.01h11.24ZM177.89,2258.69h5.09l-14.32,39.98h-5.09l14.32-39.98ZM202.38,2260.28h11.77c10.82,0,14.16,3.61,14.16,12.25,0,9.28-4.08,12.62-14.16,12.62h-4.82v11.93h-6.95v-36.8ZM213.3,2279.53c5.94,0,7.9-1.54,7.9-6.89,0-5.04-2.01-6.73-7.9-6.73h-3.98v13.63h3.98ZM256.99,2290.98v6.1h-22.75v-36.8h21.79v6.04h-14.85v8.91h13.79v5.78h-13.79v9.97h15.8ZM286.42,2266.38h-10.02v30.7h-6.95v-30.7h-9.97v-6.1h26.94v6.1ZM289.6,2278.68c0-18.75,14.96-21.19,27.94-17.6v6.15c-9.31-2.82-20.47-3.27-20.47,11.45,0,13.06,6.52,13.98,15.48,12.62v-9.12h-6.63v-5.83h13.15v19.67c-13.09,3.27-29.48,3.71-29.48-17.34ZM352.21,2258.69h5.09l-14.32,39.98h-5.09l14.32-39.98ZM376.7,2260.28h11.77c10.82,0,14.16,3.61,14.16,12.25,0,9.28-4.08,12.62-14.16,12.62h-4.82v11.93h-6.95v-36.8ZM387.62,2279.53c5.94,0,7.9-1.54,7.9-6.89,0-5.04-2.01-6.73-7.9-6.73h-3.98v13.63h3.98ZM430.57,2287.33h-15.38l-3.5,9.76h-7.16l13.79-36.8h9.33l13.68,36.8h-7.37l-3.39-9.76ZM428.5,2281.49l-5.25-15.01h-.64l-5.36,15.01h11.24ZM444.14,2278.1h16.07v5.41h-16.07v-5.41ZM504.95,2266.33v9.7h13.79v6.04h-13.79v15.01h-6.95v-36.8h21.79v6.04h-14.85ZM52.97,2369.95c0-16.04,12.81-18.13,23.91-15.07v5.26c-7.97-2.42-17.52-2.85-17.52,9.8,0,11.18,5.58,11.96,13.25,10.8v-7.8h-5.67v-4.99h11.25v16.84c-11.2,2.79-25.23,3.18-25.23-14.84ZM103.11,2380.48v5.22h-18.88v-31.49h5.94v26.27h12.93ZM106.83,2375.35v-21.15h5.94v20.33c0,4.54,1.54,6.49,6.81,6.49s6.85-2.09,6.85-6.49v-20.33h5.9v21.15c0,7.67-4.49,10.8-12.8,10.8s-12.71-2.72-12.71-10.8ZM158.2,2380.48v5.22h-19.47v-31.49h18.65v5.17h-12.71v7.62h11.8v4.95h-11.8v8.53h13.52ZM172.76,2385.01v-5.31c3.23.97,15.16,3.55,15.16-2.95,0-2.9-1.04-3.81-6.22-5.08-6.63-1.59-8.71-3.36-8.71-8.94,0-10.15,12.27-10.07,19.19-7.9v5.04c-3.07-.86-13.39-3.29-13.39,2.72,0,2.36.73,3.13,5.72,4.36,7.35,1.77,9.3,3.9,9.3,9.89,0,10.61-13.52,10.17-21.06,8.17ZM219.28,2359.42h-8.58v26.27h-5.94v-26.27h-8.53v-5.22h23.05v5.22ZM222.86,2354.2h5.94v31.49h-5.94v-31.49ZM234.32,2369.95c0-15.51,11.68-18.15,22.4-15.2v5.22c-7.63-2.39-16.04-1.87-16.04,9.94,0,12.63,8.47,12.15,16.41,9.8v5.13c-10.67,3.19-22.76,1.83-22.76-14.88ZM466.1,2278.68c0-18.06,13.6-21.12,26.07-17.7v6.08c-8.89-2.79-18.67-2.18-18.67,11.57,0,14.7,9.86,14.14,19.1,11.41v5.97c-12.42,3.72-26.49,2.13-26.49-17.33ZM299.83,2369.95c0-15.51,11.68-18.15,22.4-15.2v5.22c-7.63-2.39-16.04-1.87-16.04,9.94,0,12.63,8.47,12.15,16.41,9.8v5.13c-10.67,3.19-22.76,1.83-22.76-14.88ZM286.8,2385.69h-7.31l-9.94-14.11h-1.86v14.11h-5.94v-31.49h5.94v12.43h1.86l9.76-12.43h7.08l-11.98,14.61,12.39,16.88ZM346.02,2377.34h-13.16l-3,8.35h-6.13l11.8-31.49h7.99l11.71,31.49h-6.31l-2.9-8.35ZM344.25,2372.35l-4.49-12.84h-.54l-4.58,12.84h9.62ZM358.27,2354.2h9.12l11.44,23.73h.27v-23.73h5.81v31.49h-8.08l-12.43-25.23h-.27v25.23h-5.85v-31.49ZM427.56,2354.2v31.49h-5.94v-14.38h-13.48v14.38h-5.94v-31.49h5.94v12.16h13.48v-12.16h5.94ZM453.61,2380.48v5.22h-19.47v-31.49h18.65v5.17h-12.71v7.62h11.8v4.95h-11.8v8.53h13.52ZM477.52,2380.48v5.22h-18.88v-31.49h5.94v26.27h12.93ZM481.38,2354.2h10.07c9.26,0,12.12,3.09,12.12,10.48,0,7.94-3.49,10.8-12.12,10.8h-4.13v10.21h-5.94v-31.49ZM490.72,2370.67c5.08,0,6.76-1.32,6.76-5.9,0-4.31-1.72-5.76-6.76-5.76h-3.4v11.66h3.4ZM563.61,2325.01H52.15v3.71h511.45v-3.71ZM1220.63,2344.25h-34.55v-3.68c0-2.66,1.19-3.59,2.71-3.59h31.84v-16.04h-32.65c-10.88,0-19.7,8.82-19.7,19.7v42.86h17.8v-23.3h34.55v-15.96ZM1513.7,2344.25h-34.55v-3.68c0-2.66,1.19-3.59,2.71-3.59h31.84v-16.04h-32.65c-10.88,0-19.7,8.82-19.7,19.7v42.86h17.8v-23.3h34.55v-15.96ZM1246.04,2367.48c-1.52,0-2.71-.93-2.71-3.6v-42.93h-17.8v42.86c0,10.88,8.82,19.7,19.7,19.7h24.99v-16.04h-24.18ZM1457.39,2320.95h-17.64v23.38h-21.95v-23.38h-17.72v62.56h17.72v-23.38h21.95v23.38h17.64v-62.56ZM1553.94,2383.52h-17.9c-10.88,0-19.7-8.82-19.7-19.7v-23.16c0-10.88,8.82-19.7,19.7-19.7h17.9c10.88,0,19.7,8.82,19.7,19.7v23.16c0,10.88-8.82,19.7-19.7,19.7ZM1536.85,2367.48c-1.52,0-2.71-.93-2.71-3.59v-23.31c0-2.66,1.19-3.59,2.71-3.59h16.37c1.52,0,2.71.93,2.71,3.59v23.31c0,2.66-1.19,3.59-2.71,3.59h-16.37ZM1377.32,2367.48h-34v16.04l34.9-.03c10.83,0,19.61-8.79,19.61-19.62h0c0-10.84-8.78-19.62-19.62-19.62h-17.17c-1.54,0-2.74-.94-2.74-3.63s1.2-3.63,2.74-3.63h31.92v-16.04h-32.8c-10.84,0-19.63,8.79-19.63,19.63h0c0,10.84,8.79,19.63,19.63,19.63h17.16c1.54,0,2.74.94,2.74,3.63s-1.2,3.63-2.74,3.63ZM1307.05,2319.67h0c-9.04,0-16.96,6.06-19.31,14.79l-13.25,49.06h18.27l2.48-9.18h23.62l2.47,9.18h18.28l-13.25-49.06c-2.36-8.73-10.27-14.79-19.31-14.79ZM1299.55,2358.3l5.58-20.67c.32-1.27.96-1.92,1.92-1.92.9,0,1.54.64,1.91,1.92l5.59,20.67h-15ZM1721.48,2367.48c-1.52,0-2.71-.93-2.71-3.59v-3.68h34.47v-15.96h-34.47v-3.68c0-2.66,1.19-3.59,2.71-3.59h31.76v-16.04h-32.57c-10.88,0-19.7,8.82-19.7,19.7v23.16c0,10.88,8.82,19.7,19.7,19.7h32.57v-16.04h-31.76ZM1601.26,2348.08v15.96h8.22c1.54,0,2.82,1.19,3.83,3.59l6.78,15.88h17.8l-6.78-15.88c-1.17-2.77-2.5-5.35-3.99-7.74,5.32-3.94,7.98-9.1,7.98-15.48v-3.76c0-10.88-8.82-19.7-19.7-19.7h-37.6v62.56h17.72v-46.53h19.06c1.58,0,2.81.93,2.81,3.59v3.92c0,2.66-1.23,3.59-2.81,3.59h-13.32ZM1659.33,2367.48c-1.52,0-2.71-.93-2.71-3.59v-23.31c0-2.66,1.19-3.59,2.71-3.59h36.79v-16.04h-37.6c-10.88,0-19.7,8.82-19.7,19.7v23.16c0,10.88,8.82,19.7,19.7,19.7h37.6v-39.58h-27.13v16.04h9.42v7.51h-19.07Z" style="fill:#bcbec0; fill-rule:evenodd;"/><path d="M54.46,2403.16h36.07M95.74,2401.19h39.3M99.96,2433.75h30.95M109.19,2425.56h12.42M109.19,2417.71h12.42M72.54,2397.4v20.31M130.92,2437.91v-28.44h-30.95v28.44M185.43,2433.75h32.48M217.91,2437.91v-36.93h-32.48v36.93M109.19,2409.47v23.19M149.89,2421.06h28.18M154.69,2412.38h18.48M189.64,2410.25h24.07M236.26,2406.63h27.55M284.81,2404.78h22.39M240.88,2428.71h17.63M323.79,2434.77h27.64M336.13,2411.79h13.42M353.94,2407.43h14M367.94,2403.1h26.02M367.94,2426.94h26.02M371.8,2415.39h18.16M201.62,2404.17v14.02M231.38,2408.31v29.56M249.54,2397.26v40.61M336.13,2397.26v37.25M361.31,2397.26v41.02M375.53,2397.26v9.83M380.59,2420.78v7.15M385.76,2397.26v9.83M413.74,2401.41v20.04M424.74,2419.66c6.67.96,7.94.17,7.94-5.03v-16.46M460.21,2398.16v23.7M490.25,2401.34v36.84M547.09,2413.17v21.51M425.17,2400.4v15.75M121.61,2409.47v23.19M271.92,2412.41h8.75M274.84,2435.91c4.28.63,5.82.1,5.82-4.54v-29.68h-8.75v20.9h8.75M52.71,2417.71h39.57M56.7,2410.44h31.62M417.34,2422.12v12.98M397.11,2435.1h39.98M401.5,2427.04h31.62M398.45,2401.41h21.63M441.07,2400.93h38.41M483.07,2411.6h14.22M208.92,2418.2h-14.49v9.06h14.49v-9.06ZM389.96,2410.01h-18.16v10.78h18.16v-10.78ZM446.25,2414.92h27.92M474.17,2407.98h-27.92v13.88h27.92v-13.88ZM499.09,2416.15h19.98M503.67,2402.36h13.95M529.58,2413.14h33.71M547.09,2423.53h14.99M508.56,2425.09l3.33,5.71M518.36,2426.16l4.58,9.69M500.22,2426.4l-3.86,9.85M516.26,2402.64l-5.96,7.14M499.09,2422.35h19.98v-12.57h-18.99M314.88,2399.01l6.97,8.6M316.04,2435.77l9.81-8.68M307.23,2417.3l-7.7-9.26M292.32,2408.14l-7.55,9.86M170.4,2425.16l7.73,10.11M146.28,2421l-5.43,16.3M147.46,2415.64l-8.56-6.31M150,2406.1l-8.56-6.31M294.35,2397.38l2.83,7.4M545.83,2397.38l2.17,5.96M562.85,2409.78v-6.39h-32.84v6.39M527.08,2437.32c3.9-4.22,7.28-8.17,7.97-18.64M178.63,2412.76c-4.64-2.87-11.34-9.11-13.64-13.45h-1.89c-2.29,4.33-8.99,10.57-13.64,13.45M483.33,2402.89c4.67-.62,10.69-1.7,13.93-2.55M534.26,2425.74c5.75,10.66,13.31,9.3,32.25,9.3M497.72,2408.91c3.92-3.65,6.57-7.46,8.7-11.57M52.84,2430.7c11.01-4.5,14.98-8.39,17.87-12.75M88.33,2421.83l-8.88,5.5M224.68,2419.66c4.12-6.01,8.29-14.21,10.31-21.87M235.04,2429.78c6.62-7.93,10.44-15.71,11.38-22.94M252.58,2406.84c.93,7.23,4.76,15.02,11.38,22.94M290.04,2416.98c2.67,8.4,7.82,15.56,17.7,19.64M284.25,2436.62c9.88-4.08,15.03-11.24,17.7-19.64M316.04,2435.77c1.72-1.53,2.05-2.23,2.05-6.87v-15.14h-7.49M62.2,2436.87l13.68-4.76M62.2,2436.87c2.07-.72,3.15-1.14,2.92-6.2v-6.53M73.94,2417.71c3.96,10.81,9.65,14.29,18.37,17.29M112.27,2409.47c1.66-2.62,3.12-6.53,3.12-8.28M156.36,2435.73c4.83.62,7.62,1.44,7.62-4.53v-18.71M148.09,2435.85c3.12-3.27,6.04-7.12,8.22-10.74M353.48,2425.93c3.21-4.29,7.49-14.91,7.93-18.23M361.31,2412.02l5.8,7.15M482.32,2429.65c3.21-4.29,7.49-14.91,7.93-18.23M490.14,2415.74l6.32,6.67M398.99,2422.69c3.97-2.95,5.79-7.46,5.79-11.12v-10.16M397.28,2411.57h23.69M367,2436.83c6.6-1.88,11.89-4.73,13.59-9.89M380.59,2426.94c1.7,5.15,6.99,8.01,13.59,9.89M440.78,2437.29c9.84-2.63,19.43-4.58,19.43-15.43M447.55,2425.32c8.33,6.95,15.09,10.05,32.62,11.04M268.29,2438.08c2.59-4.83,3.63-9.37,3.63-15.5M504.33,2426.16v5.79c0,2.87.5,3.97,5.83,3.97s5.56-.5,5.56-6.5" style="fill:none; stroke:#bcbec0; stroke-miterlimit:10; stroke-width:3px;"/><path d="M2328,2370.51l4.55,6.5M2328.69,2399.55l6.52-5.63M2328.69,2399.55c1.37-1.21,1.63-1.77,1.63-5.47v-12.66h-5.64M2449.83,2373.52h20.71M2381.08,2399.18c1.96.24,7.73,1.3,8.58-2,1.14-4.39,1.94-14.65,1.94-22.01h-21.66M2439.68,2377.02h10.08M2449.76,2384.34l-10.64,3.82M2449.83,2392.5h20.71M2452.9,2383.31h14.45M2455.87,2368.88v7.82M2424.97,2368.88v28.92M2459.89,2387.6v5.69M2464.01,2368.88v7.82M2439.57,2399.53c4.29.73,5.41.14,5.41-3.79v-26.36M2335.61,2373.24h20.59M2345.69,2369.06v12.54M2334.45,2381.61h22.86M2336.64,2377.49h18.71M2338.39,2390.74h14.81M2338.39,2394.95h14.81M2467.35,2379.02h-14.45v8.57h14.45v-8.57ZM2430.79,2376.02h-11.63v11.27h11.63v-11.27ZM2409.29,2378.78v19.24M2410.86,2399.68c2.92.58,3.66-.23,3.66-3.4v-17.5h-10.47v12.53c0,4-1.38,8.07-2.02,9.4M2414.52,2385.23h-10.47M2414.52,2391.31h-10.47M2409.67,2379.19l3.43-5.33v-.78h-6.87M2347.14,2399.72c3.84.5,6.06,1.15,6.06-3.6v-9.93h-14.81v15.12M2449.08,2400.36c5.25-1.49,9.46-3.77,10.81-7.87M2459.89,2392.5c1.35,4.1,5.56,6.37,10.81,7.87M2417.2,2398.77l14.56-1.91M2363.73,2383.69c3.18-3.02,7.91-10.25,9.04-14.62M2401.16,2379.68c2.94-3.27,5.38-6.99,6.76-11.05M2363.87,2395.2c5.97-4.35,11.28-9.96,13.2-20.25M2369.65,2400.58c11.76-8.87,13.06-15.34,14.97-25.63M2432.71,2400.75c-.89-3.16-2.06-6.75-3.08-9.49M2592.69,2369.04l2.02,4.35M2577.79,2373.38h31.81M2642.81,2372.11h-14.97v10.54h14.97v-10.54ZM2603.06,2377.93h-18.72v4.58h18.72v-4.58ZM2599.39,2391.46h-11.39v4.72h11.39v-4.72ZM2599.51,2399.99c5.57.71,6.62.35,6.62-3.57v-9.39h-24.82v14.5M2685.46,2379.39h-25.91v7.3c0,9.25-3.14,12.37-4.51,14.38M2705.85,2381.91h13.65M2673.29,2379.39l5.44-6.01v-.37h-15.46M2701.84,2398.94h21.56M2723.53,2382.24c-3.43-2.52-8.38-7.99-10.07-11.79h-1.39c-1.69,3.8-6.64,9.27-10.07,11.79M2621.12,2387.9l-3.73,12.82M2615.61,2378.83l6.67,5.32M2623.61,2375.99l-6.16-4.99M2627.84,2377.17h14.97M2647.87,2399.38h-25.7M2643.97,2399.38v-10.98h-17.17v10.98M2632.42,2388.4l.02,10.98M2638.14,2399.38l-.02-10.98M2654.51,2381.17c3.79-2.5,8.98-7.53,11.5-12.17M2708.23,2395.41l-3.13-10.21M2711.06,2384.7l2.69,9.37M2720.22,2385.2l-4.76,13.74M2696.84,2394.22c2.87.93,7.53-1.81,1.92-11.98l2.42-8.75v-1.27h-6.87v29.52M2671.37,2392.94l1.9.15c5.73.45,5.83-.46,6.18-6.01l.08-1.74h-13.78v10.12c0,3.09,1.11,4.15,4.78,4.15h5.96c4.78,0,6.49-.3,6.7-4.12l.18-2.59" style="fill:none; stroke:#bcbec0; stroke-miterlimit:10; stroke-width:2.8px;"/><path d="M2653.27,2258.01c-9.35,15.76-4.32,23.81.59,31.67,5.04,8.07,10.03,16.07-.59,32.11M2633.21,2321.79c10.61-16.04,5.62-24.04.59-32.11-4.91-7.86-9.94-15.91-.59-31.67M2673.34,2321.79c10.61-16.04,5.62-24.04.59-32.11-4.91-7.86-9.94-15.91-.59-31.67M2615.42,2333.33h78.92" style="fill:none; stroke:#bcbec0; stroke-miterlimit:10; stroke-width:8.58px;"/><path d="M2394.75,2303.76l-.39-1-3.74,2.89-2.18-5.06c-.37-.87-.27-1.87.27-2.65l1.56-2.24-.94-.89-5.14,5.04s-.17,6.03-.17,10.29-4.54,3.65-4.54,3.65v-15.26c0-1.12.36-2.22,1.03-3.12l8.39-11.26c1.69-2.27,4.15-3.83,6.91-4.43,12.91-2.8,21.57-7.48,21.57-7.48l7.75,9.13s-9.44,5.77-13.4,14.28c-.99,2.12-2.62,3.89-4.65,5.05-4.66,2.68-12.96,7.73-18.47,12.71,0,0-2.28-2.39,1.25-5.64,1.99-1.84,4.88-4.01,4.88-4.01M2401.86,2316.72h-25.87v2.82h25.87v-2.82ZM2393.83,2313.18c.23.53,1.1.51,1.49-.03,1.58-2.18.23-3.98.23-3.98l-2.61,1.85.89,2.16ZM2397.23,2310.78c.23.53,1.1.51,1.49-.03,1.58-2.18.23-3.98.23-3.98l-2.61,1.85.89,2.16Z" style="fill:#bcbec0; fill-rule:evenodd;"/><path d="M2652.14,2200.04l81.21,145.3h-162.42l81.21-145.3M2399.48,2200.04l81.21,145.3h-162.42l81.21-145.3M2652.14,2187.99c-3.51,0-7.02,1.76-8.98,5.27l-82.67,147.91c-3.83,6.86,1.12,15.31,8.98,15.31h165.35c7.86,0,12.82-8.45,8.98-15.31l-82.67-147.91c-1.96-3.51-5.47-5.27-8.98-5.27h0ZM2399.48,2187.99c-3.51,0-7.02,1.76-8.98,5.27l-82.67,147.91c-3.83,6.86,1.12,15.31,8.98,15.31h165.35c7.86,0,12.82-8.45,8.98-15.31l-82.67-147.91c-1.96-3.51-5.47-5.27-8.98-5.27h0Z" style="fill:#bcbec0;"/><path d="M2399.48,2260.31c-20.76,0-37.65,16.89-37.65,37.65s16.89,37.65,37.65,37.65,37.65-16.89,37.65-37.65-16.89-37.65-37.65-37.65ZM2426.22,2324.7l-53.35-53.35" style="fill:none; stroke:#bcbec0; stroke-miterlimit:10; stroke-width:6px;"/><rect y="2500" width="2800" height="37.16" style="fill:none; stroke:#bcbec0; stroke-miterlimit:10; stroke-width:.35px;"/></svg>