<?xml version="1.0" encoding="UTF-8"?><svg id="a" xmlns="http://www.w3.org/2000/svg" viewBox="0 0 2200 2200"><path d="M33.02,43.16h11.25c-2.05,6.84-8.04,32.11,6.25,32.11,6.15,0,8.08-2.21,10.77-13.17,3.37-14.04,7.11-18.46,18.94-18.46,21.29,0,21.48,26.38,16.73,40.67h-10.67c1.83-6.51,7.36-28.36-5.77-28.36-5,0-6.63,1.54-9.23,12.11-3.75,15.58-8.27,19.71-20.96,19.71-22.36,0-21.62-28.83-17.31-44.61ZM66.48,175.74H31.58v-12.02h32.21c7.31,0,10.67-2.12,10.67-8.56,0-5.77-1.92-9.62-8.08-11.15H31.58v-12.02h32.21c7.31,0,10.67-2.02,10.67-8.37,0-5.77-1.73-9.23-7.79-10.96H31.58v-12.02h51.92v12.02h-6.15c5.1,2.88,7.11,7.79,7.11,14.71,0,7.98-2.69,12.59-7.69,14.9,5.67,2.98,7.69,9.13,7.69,16.25,0,11.83-6.06,17.21-17.98,17.21ZM57.54,187.85c20.96,0,26.92,9.13,26.92,24.9s-5.96,25-26.92,25-26.92-9.13-26.92-25,5.96-24.9,26.92-24.9ZM57.54,225.35c13.46,0,17.69-3.17,17.69-12.59s-4.23-12.5-17.69-12.5-17.59,3.17-17.59,12.5,4.13,12.59,17.59,12.59ZM57.54,247.37c20.96,0,26.92,9.13,26.92,24.9s-5.96,25-26.92,25-26.92-9.13-26.92-25,5.96-24.9,26.92-24.9ZM57.54,284.86c13.46,0,17.69-3.17,17.69-12.59s-4.23-12.5-17.69-12.5-17.59,3.17-17.59,12.5,4.13,12.59,17.59,12.59ZM73.88,322.55h-25c-6.73,0-8.36,1.15-8.36,6.44,0,1.83.1,3.27.48,4.71h-9.52c-.29-2.02-.48-4.23-.48-6.44,0-12.4,3.27-16.73,16.92-16.73h25.96v-7.21h9.61v7.21h12.31v12.02h-12.31v11.44h-9.61v-11.44ZM67.15,389.08H31.58v-12.02h32.21c7.31,0,10.67-1.73,10.67-8.94,0-6.06-1.83-10.77-8.56-12.69H31.58v-12.02h73.07v12.02h-27.88c5.48,2.88,7.69,9.23,7.69,16.34,0,13.17-6.35,17.31-17.31,17.31ZM98.3,428.98v21.34c0,19.61-6.54,25.67-22.21,25.67-16.83,0-22.88-7.4-22.88-25.67v-8.75h-21.63v-12.6h66.73ZM63.4,448.79c0,10.77,2.79,14.33,12.5,14.33,9.13,0,12.21-3.65,12.21-14.33v-7.21h-24.71v7.21ZM42.64,529.93h-11.06v-41.25h66.73v39.52h-10.96v-26.92h-16.15v25h-10.48v-25h-18.08v28.65ZM98.3,542.53v12.6H31.58v-12.6h66.73ZM98.3,595.6v21.34c0,19.61-6.54,25.67-22.21,25.67-16.83,0-22.88-7.4-22.88-25.67v-8.75h-21.63v-12.6h66.73ZM63.4,615.4c0,10.77,2.79,14.33,12.5,14.33,9.13,0,12.21-3.65,12.21-14.33v-7.21h-24.71v7.21ZM43.69,654.92h60.96v12.02h-58.07c-4.81,0-5.96,1.25-5.96,4.52,0,.96.1,2.02.38,3.17h-9.42c-.38-1.73-.58-3.56-.58-5.77,0-10.19,3.85-13.94,12.69-13.94ZM67.83,727.51H31.58v-10.67l6.63-1.25c-4.42-2.5-7.6-9.04-7.6-17.31,0-11.83,5.38-17.79,15.67-17.79,12.21,0,16.54,7.6,16.54,21.06v13.94h2.31c6.25,0,9.23-2.12,9.23-11.73,0-3.65-.38-7.5-1.06-11.15h10.29c.58,3.94.87,8.65.87,12.4,0,17.02-6.25,22.5-16.63,22.5ZM47.44,715.49h6.83v-12.31c0-7.5-1.44-10.77-7.6-10.77-4.52,0-6.63,2.5-6.63,8.46,0,7.21,2.88,12.5,7.4,14.61ZM73.88,755.77h-25c-6.73,0-8.36,1.15-8.36,6.44,0,1.83.1,3.27.48,4.71h-9.52c-.29-2.02-.48-4.23-.48-6.44,0-12.4,3.27-16.73,16.92-16.73h25.96v-7.21h9.61v7.21h12.31v12.02h-12.31v11.44h-9.61v-11.44ZM55.23,820l-2.21-34.04c-8.65.29-12.69,4.52-12.69,14.9,0,6.25,1.73,13.36,3.56,16.92h-9.81c-1.73-3.08-3.46-10.58-3.46-19.04,0-15.77,5.96-24.9,26.92-24.9s26.92,9.13,26.92,24.9c0,17.98-10.19,21.73-22.4,21.73-2.5,0-5.1-.19-6.83-.48ZM63.31,809.33c6.44,0,11.92-1.35,11.92-10.58,0-9.71-4.61-12.4-13.65-12.79l1.73,23.36ZM51.71,1491.02v4.15l-16.33,3.33,14.15,3.76v4.61l-14.15,3.49,16.33,3.54v4.09l-21.03-4.88v-5l14.09-3.76-14.09-3.7v-4.97l21.03-4.67ZM42.1,1532.41h-11.42v-3.36l2.09-.39c-1.39-.79-2.39-2.85-2.39-5.46,0-3.73,1.7-5.61,4.94-5.61,3.85,0,5.21,2.39,5.21,6.64l-.03,4.39c2.79,0,3.66-.67,3.66-3.7,0-1.15-.12-2.36-.33-3.52h3.24c.18,1.24.27,2.73.27,3.91,0,5.36-1.97,7.09-5.24,7.09ZM35.67,1528.62h2.15v-3.88c0-2.36-.45-3.39-2.39-3.39-1.42,0-2.09.79-2.09,2.67,0,2.27.91,3.94,2.33,4.61ZM43.95,1545.16c0-2.09-.73-4.12-3.55-4.73h-9.73v-3.79h16.36v3.79h-2.94c2.7,1,3.24,2.97,3.24,4.91l-3.39-.18ZM41.89,1562.37h-11.21v-3.79h10.15c2.3,0,3.36-.51,3.36-2.82,0-1.94-.55-3.33-2.61-4h-10.91v-3.79h16.36v3.79h-2.06c1.7.94,2.36,2.91,2.36,5.15,0,4.15-2,5.45-5.45,5.45ZM47.04,1566.4v3.79h-16.36v-3.79h16.36ZM51.61,1566.15c1.85,0,2.03.46,2.03,2.15s-.18,2.15-2.03,2.15-2.06-.46-2.06-2.15.24-2.15,2.06-2.15ZM41.89,1588.73h-11.21v-3.79h10.15c2.3,0,3.36-.51,3.36-2.82,0-1.94-.55-3.33-2.61-4h-10.91v-3.79h16.36v3.79h-2.06c1.7.94,2.36,2.91,2.36,5.15,0,4.15-2,5.45-5.45,5.45ZM47.04,1607.45h-15.12c-4.52,0-7.3-2.33-7.3-8.7,0-1.46.18-3.21.39-4.42h3.06c-.3,1.24-.45,2.82-.45,4.21,0,3.58,1.18,5.15,4.48,5.15h1.15c-1.61-.67-2.58-2.06-2.58-5.06,0-5.36,3.33-6.7,8.33-6.7,4.52,0,8.33,1.33,8.33,6.7,0,3.09-1.06,4.42-2.7,5.06h2.39v3.76ZM39.01,1603.85c3.33,0,5.42-.73,5.42-4.24s-2.61-3.73-5.42-3.73c-3.03,0-5.48.45-5.48,3.73,0,3.52,2.03,4.24,5.48,4.24ZM32.92,1612.81c2.12,0,2.42.39,2.42,2.42s-.3,2.39-2.42,2.39-2.42-.42-2.42-2.39.33-2.42,2.42-2.42ZM44.8,1612.81c2.12,0,2.42.39,2.42,2.42s-.3,2.39-2.42,2.39-2.42-.42-2.42-2.39.33-2.42,2.42-2.42ZM41.89,1644.57h-11.21v-3.79h10.15c2.3,0,3.36-.54,3.36-2.82,0-1.91-.58-3.39-2.7-4h-10.82v-3.79h23.03v3.79h-8.79c1.73.91,2.42,2.91,2.42,5.15,0,4.15-2,5.45-5.45,5.45ZM38.86,1647.78c6.61,0,8.48,2.88,8.48,7.85s-1.88,7.88-8.48,7.88-8.49-2.88-8.49-7.88,1.88-7.85,8.49-7.85ZM38.86,1659.59c4.24,0,5.58-1,5.58-3.97s-1.33-3.94-5.58-3.94-5.55,1-5.55,3.94,1.3,3.97,5.55,3.97ZM44.01,1670.86h-7.88c-2.12,0-2.64.36-2.64,2.03,0,.58.03,1.03.15,1.48h-3c-.09-.64-.15-1.33-.15-2.03,0-3.91,1.03-5.27,5.33-5.27h8.18v-2.27h3.03v2.27h3.88v3.79h-3.88v3.61h-3.03v-3.61ZM31.01,1683.22h3.18c-.48,2.14-1.99,7.92,1.21,7.97,1.55,0,1.88-.55,2.55-3.33.85-3.54,1.91-4.42,4.67-4.42,4.84,0,5.47,7.01,4.18,10.67l-2.97-.18c.45-1.42,1.66-6.94-1.18-6.94-1.27,0-1.48.51-2.12,3.06-.88,3.64-1.94,4.73-5,4.73-5.78,0-5.46-7.57-4.52-11.55ZM47.04,1712.28h-16.36v-3.39l2.09-.33c-1.76-.94-2.39-2.79-2.39-5.06,0-4.12,2-5.49,5.42-5.49h11.24v3.79h-10.15c-2.27,0-3.36.52-3.36,2.85,0,1.82.52,3.21,2.61,3.85h10.91v3.79ZM43.95,1724.98c0-2.09-.73-4.12-3.55-4.73h-9.73v-3.79h16.36v3.79h-2.94c2.7,1,3.24,2.97,3.24,4.91l-3.39-.18ZM47.04,1732.25v3.42h-3v-3.42h-13.36v-3.79h13.36v-2.61h3v2.61h.15c5.67,0,6.64,2.39,6.64,6.12,0,.64-.06,1.27-.15,1.88h-2.79c.06-.42.12-.97.12-1.48,0-2.24-.82-2.73-3.97-2.73ZM42.1,1751.76h-11.42v-3.36l2.09-.39c-1.39-.79-2.39-2.85-2.39-5.46,0-3.73,1.7-5.61,4.94-5.61,3.85,0,5.21,2.39,5.21,6.64v4.39c2.57,0,3.64-.67,3.64-3.7,0-1.15-.12-2.36-.33-3.52h3.24c.18,1.24.27,2.73.27,3.91,0,5.36-1.97,7.09-5.24,7.09ZM35.67,1747.97h2.15v-3.88c0-2.36-.45-3.39-2.39-3.39-1.42,0-2.09.79-2.09,2.67,0,2.27.91,3.94,2.33,4.61ZM38.86,1755.12c8.59,0,9.37,6.38,7.94,12.15h-3.24c1.2-3.89,1.34-8.24-4.73-8.24s-5.84,4.45-4.64,8.36h-3.21c-1.53-5.8-.81-12.27,7.88-12.27ZM38.13,1784.15l-.7-10.73c-2.73.09-4,1.42-4,4.7,0,1.97.55,4.21,1.12,5.33h-3.09c-.55-.97-1.09-3.33-1.09-6,0-4.97,1.88-7.85,8.49-7.85s8.48,2.88,8.48,7.85c0,5.67-3.21,6.85-7.06,6.85-.79,0-1.61-.06-2.15-.15ZM40.68,1780.78c2.03,0,3.76-.42,3.76-3.33,0-3.06-1.45-3.91-4.3-4.03l.55,7.36ZM35.19,1788.87v3.64c-2.58,0-6.58-1.82-8.64-3.33v-3.06c2.45,1.45,6.18,2.76,8.64,2.76ZM47.04,1801.96v4l-12.46,2.85,12.46,3.45v4.33l-12.46,3.33,12.46,3.06v3.91l-16.36-4.51v-4.73l11.94-3.33-11.94-3.18v-4.76l16.36-4.42ZM42.1,1843.05h-11.42v-3.36l2.09-.39c-1.39-.79-2.39-2.85-2.39-5.46,0-3.73,1.7-5.61,4.94-5.61,3.85,0,5.21,2.39,5.21,6.64v4.39h.73c1.97,0,2.91-.67,2.91-3.7,0-1.15-.12-2.36-.33-3.52h3.24c.18,1.24.27,2.73.27,3.91,0,5.36-1.97,7.09-5.24,7.09ZM35.67,1839.26h2.15v-3.88c0-2.36-.45-3.39-2.39-3.39-1.42,0-2.09.79-2.09,2.67,0,2.27.91,3.94,2.33,4.61ZM47.04,1847.23v3.79h-16.36v-3.79h16.36ZM51.61,1846.98c1.85,0,2.03.46,2.03,2.15s-.18,2.15-2.03,2.15-2.06-.46-2.06-2.15.24-2.15,2.06-2.15ZM44.01,1859.23h-7.88c-2.12,0-2.64.36-2.64,2.03,0,.58.03,1.03.15,1.48h-3c-.09-.64-.15-1.33-.15-2.03,0-3.91,1.03-5.27,5.33-5.27h8.18v-2.27h3.03v2.27h3.88v3.79h-3.88v3.61h-3.03v-3.61ZM47.04,1886.52h-16.36v-3.39l2.09-.33c-1.76-.94-2.39-2.79-2.39-5.06,0-4.12,2-5.49,5.42-5.49h11.24v3.79h-10.15c-2.27,0-3.36.52-3.36,2.85,0,1.82.52,3.21,2.61,3.85h10.91v3.79ZM41.89,1905.1h-11.21v-3.79h10.15c2.3,0,3.36-.51,3.36-2.82,0-1.94-.55-3.33-2.61-4h-10.91v-3.79h16.36v3.79h-2.06c1.7.94,2.36,2.91,2.36,5.15,0,4.15-2,5.45-5.45,5.45ZM44.01,1913.25h-7.88c-2.12,0-2.64.36-2.64,2.03,0,.58.03,1.03.15,1.48h-3c-.09-.64-.15-1.33-.15-2.03,0-3.91,1.03-5.27,5.33-5.27h8.18v-2.27h3.03v2.27h3.88v3.79h-3.88v3.61h-3.03v-3.61ZM47.04,1919.15v3.79h-16.36v-3.79h16.36ZM51.61,1918.91c1.85,0,2.03.46,2.03,2.15s-.18,2.15-2.03,2.15-2.06-.46-2.06-2.15.24-2.15,2.06-2.15ZM34.49,1927.06h19.21v3.79h-18.3c-1.52,0-1.88.39-1.88,1.42,0,.3.03.64.12,1h-2.97c-.12-.55-.18-1.12-.18-1.82,0-3.21,1.21-4.39,4-4.39ZM38.86,1941.82c8.71,0,9.37,6.38,7.94,12.15h-3.24c1.2-3.89,1.4-8.24-4.73-8.24s-5.84,4.45-4.64,8.36h-3.21c-1.53-5.8-.81-12.27,7.88-12.27ZM38.86,1956.3c6.61,0,8.48,2.88,8.48,7.85s-1.88,7.88-8.48,7.88-8.49-2.88-8.49-7.88,1.88-7.85,8.49-7.85ZM38.86,1968.12c4.24,0,5.58-1,5.58-3.97s-1.33-3.94-5.58-3.94-5.55,1-5.55,3.94,1.3,3.97,5.55,3.97ZM38.86,1974.44c6.61,0,8.48,2.88,8.48,7.85s-1.88,7.88-8.48,7.88-8.49-2.88-8.49-7.88,1.88-7.85,8.49-7.85ZM38.86,1986.26c4.24,0,5.58-1,5.58-3.97s-1.33-3.94-5.58-3.94-5.55,1-5.55,3.94,1.3,3.97,5.55,3.97ZM34.49,1993.44h19.21v3.79h-18.3c-1.52,0-1.88.39-1.88,1.42,0,.3.03.64.12,1h-2.97c-.12-.55-.18-1.12-.18-1.82,0-3.21,1.21-4.39,4-4.39ZM170.47,2128.16h13.1c12.03,0,15.75,4.01,15.75,13.63,0,10.32-4.54,14.04-15.75,14.04h-5.37v13.27h-7.73v-40.94ZM182.62,2149.57c6.61,0,8.79-1.71,8.79-7.67,0-5.6-2.24-7.49-8.79-7.49h-4.42v15.16h4.42ZM231.64,2162.32v6.78h-24.54v-40.94h7.73v34.16h16.81ZM262.32,2158.24h-17.11l-3.89,10.85h-7.96l15.34-40.94h10.38l15.22,40.94h-8.2l-3.78-10.85ZM260.02,2151.76l-5.84-16.69h-.71l-5.96,16.69h12.51ZM294.47,2126.39h5.66l-15.93,44.48h-5.66l15.93-44.48ZM308.92,2128.16h13.1c12.03,0,15.75,4.01,15.75,13.63,0,10.32-4.54,14.04-15.75,14.04h-5.37v13.27h-7.73v-40.94ZM321.08,2149.57c6.61,0,8.79-1.71,8.79-7.67,0-5.6-2.24-7.49-8.79-7.49h-4.42v15.16h4.42ZM370.87,2162.32v6.78h-25.31v-40.94h24.25v6.72h-16.52v9.91h15.34v6.43h-15.34v11.09h17.58ZM404.79,2134.94h-11.15v34.16h-7.73v-34.16h-11.09v-6.78h29.97v6.78ZM409.51,2148.63c0-20.86,16.65-23.57,31.09-19.58v6.84c-10.36-3.14-22.77-3.79-22.77,12.74,0,14.53,7.26,15.55,17.22,14.04v-10.15h-7.37v-6.49h14.63v21.89c-14.56,3.63-32.8,4.13-32.8-19.29ZM466.38,2126.39h5.66l-15.93,44.48h-5.66l15.93-44.48ZM505.31,2158.24h-17.11l-3.89,10.85h-7.96l15.34-40.94h10.38l15.22,40.94h-8.2l-3.78-10.85ZM503.01,2151.76l-5.84-16.69h-.71l-5.96,16.69h12.51ZM522.42,2128.16h13.15c11.5,0,14.75,3.6,14.75,10.97,0,4.25-1.59,7.2-5.96,8.49v.24c5.07,1.18,7.2,4.42,7.2,9.44,0,7.43-3.24,11.8-14.81,11.8h-14.33v-40.94ZM533.51,2145.39c6.49,0,9.2-1,9.2-5.54,0-4.84-2.65-5.43-9.2-5.43h-3.36v10.97h3.36ZM534.75,2162.79c7.02,0,9.03-1.12,9.03-5.84,0-4.25-2.01-5.84-9.03-5.84h-4.6v11.68h4.6ZM558.47,2168.21v-6.9c4.2,1.26,19.7,4.75,19.7-3.83,0-3.78-1.36-4.96-8.08-6.61-8.61-2.06-11.33-4.37-11.33-11.62,0-12.86,16.18-13.18,24.95-10.26v6.55c-3.99-1.12-17.4-4.31-17.4,3.54,0,3.07.94,4.07,7.43,5.66,9.56,2.3,12.09,5.07,12.09,12.86,0,13.69-17.84,13.32-27.37,10.62ZM608.96,2126.39h5.66l-15.93,44.48h-5.66l15.93-44.48ZM649.61,2134.94h-11.15v34.16h-7.73v-34.16h-11.09v-6.78h29.97v6.78ZM655.45,2128.16h13.1c12.03,0,15.75,4.01,15.75,13.63,0,10.32-4.54,14.04-15.75,14.04h-5.37v13.27h-7.73v-40.94ZM667.6,2149.57c6.61,0,8.79-1.71,8.79-7.67,0-5.6-2.24-7.49-8.79-7.49h-4.42v15.16h4.42ZM691.91,2155.65v-27.49h7.73v26.43c0,5.9,2.01,8.44,8.85,8.44s8.91-2.71,8.91-8.44v-26.43h7.67v27.49c0,9.97-5.84,14.04-16.64,14.04s-16.52-3.54-16.52-14.04ZM888.32,2182.56h-67.35v-67.35h67.35v67.35ZM865.87,2148.88v-22.45h-11.23v22.45h-11.23v-11.23h-11.23v22.45h11.23v11.23h11.23v-11.23h22.45v-11.23h-11.23ZM2199.07,2182.56h-67.35v-67.35h67.35v67.35ZM2176.62,2148.88v-22.45h-11.23v22.45h-11.23v-11.23h-11.23v22.45h11.23v11.23h11.23v-11.23h22.45v-11.23h-11.23ZM1414.05,2148.54l51.35-51.46,51.35,51.46-51.35,51.46-51.35-51.46ZM1475.54,2159.1h0s-10.14,10.19-10.14,10.19v23.41l44.07-44.15-44.07-44.16.02,20.22-10.23,10.38v24.03l20.35-20.47v20.56ZM1570.7,2141.93h-31.13v-3.31c0-2.4,1.07-3.23,2.44-3.23h28.69v-14.45h-29.41c-9.8,0-17.75,7.95-17.75,17.75v38.62h16.03v-20.99h31.13v-14.38ZM1834.73,2141.93h-31.13v-3.31c0-2.4,1.07-3.23,2.44-3.23h28.69v-14.45h-29.41c-9.8,0-17.75,7.95-17.75,17.75v38.62h16.03v-20.99h31.13v-14.38ZM1593.58,2162.85c-1.37,0-2.44-.84-2.44-3.24v-38.68h-16.03v38.62c0,9.8,7.95,17.75,17.75,17.75h22.51v-14.45h-21.79ZM1784,2120.93h-15.89v21.06h-19.77v-21.06h-15.96v56.37h15.96v-21.07h19.77v21.07h15.89v-56.37ZM1870.98,2177.3h-16.13c-9.8,0-17.75-7.95-17.75-17.75v-20.87c0-9.8,7.95-17.75,17.75-17.75h16.13c9.8,0,17.75,7.95,17.75,17.75v20.87c0,9.8-7.95,17.75-17.75,17.75ZM1855.58,2162.85c-1.37,0-2.44-.84-2.44-3.23v-21c0-2.4,1.07-3.23,2.44-3.23h14.74c1.37,0,2.44.84,2.44,3.23v21c0,2.4-1.07,3.23-2.44,3.23h-14.74ZM1711.86,2162.85h-30.63v14.45l31.44-.02c9.76,0,17.66-7.92,17.66-17.68h0c0-9.76-7.91-17.68-17.68-17.68h-15.46c-1.39,0-2.47-.84-2.47-3.27s1.08-3.27,2.47-3.27h28.75v-14.45h-29.55c-9.77,0-17.69,7.92-17.69,17.69h0c0,9.77,7.92,17.69,17.69,17.69h15.46c1.39,0,2.47.85,2.47,3.27s-1.08,3.27-2.47,3.27ZM1648.55,2119.78h0c-8.14,0-15.28,5.46-17.4,13.32l-11.93,44.2h16.46l2.23-8.27h21.28l2.22,8.27h16.47l-11.94-44.2c-2.12-7.86-9.25-13.32-17.4-13.32ZM1641.8,2154.58l5.03-18.62c.29-1.15.86-1.73,1.73-1.73.81,0,1.39.58,1.72,1.73l5.03,18.62h-13.51ZM2021.92,2162.85c-1.37,0-2.44-.84-2.44-3.23v-3.31h31.06v-14.38h-31.06v-3.31c0-2.4,1.07-3.23,2.44-3.23h28.61v-14.45h-29.34c-9.8,0-17.75,7.95-17.75,17.75v20.87c0,9.8,7.95,17.75,17.75,17.75h29.34v-14.45h-28.61ZM1913.62,2145.38v14.38h7.41c1.39,0,2.54,1.08,3.45,3.23l6.11,14.31h16.03l-6.11-14.31c-1.05-2.49-2.25-4.82-3.6-6.97,4.79-3.55,7.19-8.19,7.19-13.95v-3.39c0-9.8-7.95-17.74-17.75-17.74h-33.87v56.37h15.96v-41.92h17.17c1.42,0,2.53.84,2.53,3.23v3.53c0,2.4-1.11,3.23-2.53,3.23h-12ZM1965.93,2162.85c-1.37,0-2.44-.84-2.44-3.23v-21c0-2.4,1.07-3.23,2.44-3.23h33.14v-14.45h-33.87c-9.8,0-17.75,7.95-17.75,17.75v20.87c0,9.8,7.95,17.75,17.75,17.75h33.87v-35.66h-24.44v14.45h8.48v6.76h-17.18Z" style="fill:#bcbec0; fill-rule:evenodd;"/><path d="M75.21,1161.68l.96-.37-2.77-3.58,4.86-2.1c.83-.36,1.79-.26,2.54.26l2.15,1.5.85-.9-4.84-4.93s-5.78-.17-9.87-.17-3.5-4.35-3.5-4.35h14.64c1.08,0,2.13.35,3,.99l10.81,8.05c2.17,1.62,3.68,3.98,4.25,6.63,2.69,12.39,7.18,20.7,7.18,20.7l-8.76,7.43s-5.53-9.06-13.7-12.86c-2.04-.95-3.73-2.51-4.85-4.46-2.57-4.48-7.42-12.43-12.19-17.72,0,0,2.29-2.19,5.42,1.2,1.76,1.91,3.85,4.69,3.85,4.69M62.77,1168.51v-24.82h-2.71v24.82h2.71ZM66.17,1160.8c-.51.22-.49,1.06.03,1.43,2.09,1.52,3.82.22,3.82.22l-1.77-2.51-2.07.86ZM68.48,1164.06c-.51.22-.49,1.06.03,1.43,2.09,1.52,3.82.22,3.82.22l-1.77-2.51-2.07.86Z" style="fill:#bcbec0; fill-rule:evenodd;"/><path d="M119.11,1370.03c-15.12-8.97-22.85-4.15-30.39.56-7.75,4.83-15.42,9.62-30.81-.56M57.9,1350.78c15.4,10.18,23.06,5.4,30.81.56,7.54-4.71,15.27-9.54,30.39-.56M57.9,1389.28c15.4,10.18,23.06,5.4,30.81.56,7.54-4.71,15.27-9.54,30.39-.56M46.84,1333.71v75.73" style="fill:none; stroke:#bcbec0; stroke-miterlimit:10; stroke-width:8.23px;"/><path d="M35.31,1088.3l139.42,77.93-139.42,77.93v-155.85M35.31,1291.01l139.42,77.93-139.42,77.93v-155.85M34.5,1077c-5.16,0-9.89,4.13-9.89,9.89v158.66c0,5.76,4.72,9.89,9.89,9.89,1.6,0,3.25-.4,4.81-1.27l141.93-79.33c6.74-3.77,6.74-13.47,0-17.24l-141.93-79.33c-1.56-.87-3.2-1.27-4.81-1.27h0ZM34.5,1279.72c-5.16,0-9.89,4.14-9.89,9.89v158.66c0,5.76,4.72,9.89,9.89,9.89,1.6,0,3.25-.4,4.81-1.27l141.93-79.33c6.74-3.77,6.74-13.47,0-17.24l-141.93-79.33c-1.56-.87-3.2-1.27-4.81-1.27h0Z" style="fill:#bcbec0;"/><path d="M116.9,1166.22c0-19.92-16.21-36.13-36.13-36.13s-36.13,16.21-36.13,36.13,16.21,36.13,36.13,36.13,36.13-16.21,36.13-36.13ZM55.12,1191.88l51.19-51.19" style="fill:none; stroke:#bcbec0; stroke-miterlimit:10; stroke-width:5.76px;"/><path d="M84.61,1564.15l-6.04,6.28M73.65,1589.04l9.82-6.95M83.7,1557.02h-6.23c-3.09,0-4.27.89-4.27,10.35s.54,9.88,6.99,9.88M117.32,1802.03l-9.79,6.85M73.59,1803.08l8.47,9.82M73.59,1803.08c1.83,2.07,2.67,2.45,8.23,2.45h19.06v-8.49M112.78,1968.07v31.18M74.14,1876.31c-.36,2.95-1.96,11.63,3.02,12.92,6.61,1.71,22.07,2.93,33.15,2.93v-32.63M107.51,1952.77v15.18M90.74,1951.93l5.75,16.03M84.21,1968.07v31.18M98.04,1972.69v21.76M119.77,1977.16h-11.77M119.77,1936.47h-43.56M91.59,1983.22h-8.57M119.77,1989.42h-11.77M73.62,1952.61c-1.1,6.46-.2,8.15,5.7,8.15h39.7M107.51,1767.1v27.18M86.82,1777.47l13.05-7.48M73.95,1773.72c-.95,9.16-.54,11.82,5.37,11.82h39.7M113.22,1813.5v31.01M119.5,1828.68h-18.89M100.61,1811.75v34.43M106.81,1815.05v28.17M86.86,1817.68v22.31M80.51,1817.68v22.31M104.5,1994.45v-21.76h-12.91v21.76h12.91ZM109.03,1945.22v-17.51h-16.97v17.51h16.97ZM104.87,1912.85h-28.97M73.39,1915.21c-.87,4.39.34,5.51,5.11,5.51h26.36v-15.77h-18.88c-6.03,0-12.15-2.09-14.15-3.04M95.15,1920.72v-15.77M85.99,1920.72v-15.77M104.26,1913.43l8.02,5.17h1.18v-10.35M73.34,1830.87c-.75,5.78-1.73,9.13,5.43,9.13h14.95v-22.31h-22.77M72.36,1966.94c2.25,7.91,5.67,14.25,11.85,16.29M84.21,1983.22c-6.18,2.04-9.6,8.37-11.85,16.29M74.76,1924.77l2.87,21.93M97.48,1850.19c4.54,4.79,15.44,11.91,22.02,13.61M103.51,1900.61c4.93,4.43,10.53,8.11,16.65,10.18M80.14,1850.4c6.55,8.99,14.99,16.99,30.5,19.88M72.03,1859.1c13.37,17.71,23.1,19.67,38.6,22.55M71.78,1948.12c4.75-1.33,10.16-3.1,14.29-4.64M119.73,1665.21l-6.55,3.04M113.18,1642.77v47.91M119.61,1565.02l-5.65,3.03M113.96,1556.65l-8.12,2.09M113.96,1576.22l-8.12-2.09M113.96,1545.12v42.29M105.84,1542.35v47.86M119.53,1518.49l-8.15,4.39M108.48,1505.46v32.26M74.57,1503.17v35.79M92.51,1506.63v29.41M115.1,1735.01v-22.55h-15.88v22.55h15.88ZM106.33,1680.83v-28.19h-6.9v28.19h6.9ZM85.95,1675.31v-17.16h-7.1v17.16h7.1ZM73.12,1675.49c-1.07,8.4-.53,9.97,5.38,9.97h14.15v-37.39h-21.84M91.32,1702.34l-19.31-5.62M104.97,1694.03l-8.01,10.05M109.25,1706.09l7.51-9.28M89.83,1501.33l-18.18-7.97M104.03,1491.02l-7.89,10.86M109.97,1503.23l6.55-9.29M107.47,1712.46v22.55M98.81,1581.77v-31.12h-11.39v31.12h11.39ZM93.35,1550.64v31.12M113.22,1761.67v-12.33h-35.97v12.33h35.97ZM96.23,1749.34v12.33M74.03,1742.62v-38.71M74.03,1736.75h16.54v-25.86h-16.54M90.57,1719.35l-16.54.03M108.48,1521.42l-33.91.03M90.57,1727.93l-16.54.03M99.97,1612.63v-4.83M77,1612.63v-4.83M73.5,1543.77c3.05,2.42,5.85,4.38,10.2,6.59" style="fill:none; stroke:#bcbec0; stroke-miterlimit:10; stroke-width:3.6px;"/></svg>