<?xml version="1.0" encoding="UTF-8"?><svg id="a" xmlns="http://www.w3.org/2000/svg" viewBox="0 0 2200 2200"><path d="M1806.76,2142.32c0,8.27-4.17,10.71-10.4,10.71h-6.95v-21.42h6.95c6.23,0,10.4,1.79,10.4,10.71ZM1802.6,2142.32c0-5.96-2.41-7.28-6.42-7.28h-2.72v14.51h2.72c4.14,0,6.42-1.57,6.42-7.22ZM1809.66,2144.69c0-6.73,2.93-8.64,7.99-8.64s8.02,1.91,8.02,8.64-2.93,8.64-8.02,8.64-7.99-1.91-7.99-8.64ZM1821.7,2144.69c0-4.32-1.02-5.68-4.04-5.68s-4.01,1.36-4.01,5.68,1.02,5.65,4.01,5.65,4.04-1.33,4.04-5.65ZM1851.01,2141.61v11.42h-3.86v-10.34c0-2.35-.53-3.43-2.87-3.43-1.98,0-3.39.56-4.07,2.65v11.11h-3.86v-16.67h3.86v2.1c.96-1.73,2.96-2.41,5.25-2.41,4.23,0,5.56,2.04,5.56,5.56ZM1854.28,2144.69c0-6.73,2.93-8.64,7.99-8.64s8.02,1.91,8.02,8.64-2.93,8.64-8.02,8.64-7.99-1.91-7.99-8.64ZM1866.32,2144.69c0-4.32-1.02-5.68-4.04-5.68s-4.01,1.36-4.01,5.68,1.02,5.65,4.01,5.65,4.04-1.33,4.04-5.65ZM1877.8,2139.44v8.02c0,2.16.37,2.69,2.07,2.69.59,0,1.05-.03,1.51-.16v3.06c-.65.09-1.36.15-2.07.15-3.98,0-5.37-1.05-5.37-5.43v-8.33h-2.31v-3.09h2.31v-3.95h3.86v3.95h3.67v3.09h-3.67ZM1895.33,2139.44v8.02c0,2.16.37,2.69,2.07,2.69.59,0,1.05-.03,1.51-.16v3.06c-.65.09-1.36.15-2.07.15-3.98,0-5.37-1.05-5.37-5.43v-8.33h-2.31v-3.09h2.31v-3.95h3.86v3.95h3.67v3.09h-3.67ZM1900.51,2144.69c0-6.73,2.93-8.64,7.99-8.64s8.02,1.91,8.02,8.64-2.93,8.64-8.02,8.64-7.99-1.91-7.99-8.64ZM1912.55,2144.69c0-4.32-1.02-5.68-4.04-5.68s-4.01,1.36-4.01,5.68,1.02,5.65,4.01,5.65,4.04-1.33,4.04-5.65ZM1934.3,2136.36v16.67h-3.46l-.34-2.13c-.96,1.79-2.84,2.44-5.15,2.44-4.2,0-5.59-2.04-5.59-5.52v-11.45h3.86v10.34c0,2.31.52,3.43,2.9,3.43,1.85,0,3.27-.53,3.92-2.66v-11.11h3.86ZM1967.97,2141.61v11.42h-3.86v-10.34c0-2.35-.56-3.43-2.87-3.43-1.94,0-3.46.59-4.07,2.75v11.02h-3.86v-23.46h3.86v8.95c.93-1.76,2.96-2.47,5.25-2.47,4.23,0,5.56,2.04,5.56,5.56ZM2001.18,2131.6h4.23l3.58,16.64,3.64-14.41h4.69l3.73,14.41,3.43-16.64h4.17l-4.97,21.42h-5.09l-3.64-14.35-3.95,14.35h-5.06l-4.75-21.42ZM2043.96,2141.39v11.64h-3.43l-.4-2.13c-.8,1.42-2.9,2.44-5.55,2.44-3.8,0-5.71-1.73-5.71-5.03,0-3.92,2.44-5.31,6.76-5.31h4.47v-.74c0-2.01-.68-2.96-3.76-2.96-1.17,0-2.41.12-3.58.34v-3.3c1.26-.19,2.78-.28,3.98-.28,5.46,0,7.22,2.01,7.22,5.34ZM2040.1,2147.93v-2.19h-3.95c-2.41,0-3.46.46-3.46,2.44,0,1.45.8,2.13,2.72,2.13,2.31,0,4.01-.93,4.69-2.38ZM2056.95,2139.51c-2.13,0-4.2.74-4.82,3.61v9.91h-3.86v-16.67h3.86v2.99c1.02-2.75,3.03-3.3,5-3.3l-.19,3.46ZM2074.48,2141.61v11.42h-3.86v-10.34c0-2.35-.53-3.43-2.87-3.43-1.98,0-3.39.56-4.07,2.65v11.11h-3.86v-16.67h3.86v2.1c.96-1.73,2.96-2.41,5.25-2.41,4.23,0,5.56,2.04,5.56,5.56ZM2078.33,2131.7c0-1.88.46-2.07,2.19-2.07s2.19.19,2.19,2.07-.46,2.1-2.19,2.1-2.19-.25-2.19-2.1ZM2078.58,2136.36h3.86v16.67h-3.86v-16.67ZM2101.33,2141.61v11.42h-3.86v-10.34c0-2.35-.53-3.43-2.87-3.43-1.98,0-3.39.56-4.07,2.65v11.11h-3.86v-16.67h3.86v2.1c.96-1.73,2.96-2.41,5.25-2.41,4.23,0,5.56,2.04,5.56,5.56ZM2120.4,2136.36v15.4c0,4.6-2.38,7.44-8.86,7.44-1.48,0-3.27-.19-4.51-.4v-3.12c1.27.31,2.87.46,4.29.46,3.64,0,5.25-1.2,5.25-4.57v-1.17c-.68,1.64-2.1,2.62-5.15,2.62-5.46,0-6.82-3.4-6.82-8.49,0-4.6,1.36-8.49,6.82-8.49,3.15,0,4.51,1.08,5.15,2.75v-2.44h3.83ZM2116.72,2144.54c0-3.4-.74-5.52-4.32-5.52s-3.8,2.65-3.8,5.52c0,3.09.46,5.59,3.8,5.59,3.58,0,4.32-2.07,4.32-5.59ZM2146.01,2141.61v11.42h-3.86v-10.34c0-2.35-.56-3.43-2.87-3.43-1.94,0-3.46.59-4.07,2.75v11.02h-3.86v-23.46h3.86v8.95c.93-1.76,2.96-2.47,5.25-2.47,4.23,0,5.56,2.04,5.56,5.56ZM2149.28,2144.69c0-6.73,2.93-8.64,7.99-8.64s8.02,1.91,8.02,8.64-2.93,8.64-8.02,8.64-7.99-1.91-7.99-8.64ZM2161.32,2144.69c0-4.32-1.02-5.68-4.04-5.68s-4.01,1.36-4.01,5.68,1.02,5.65,4.01,5.65,4.04-1.33,4.04-5.65ZM2172.79,2139.44v8.02c0,2.16.37,2.69,2.07,2.69.59,0,1.05-.03,1.51-.16v3.06c-.65.09-1.36.15-2.07.15-3.98,0-5.37-1.05-5.37-5.43v-8.33h-2.31v-3.09h2.31v-3.95h3.86v3.95h3.67v3.09h-3.67ZM2037.4,2181.57v-3.24c2.13.49,8.12,1.91,8.12-1.23,0-1.57-.56-1.91-3.4-2.59-3.61-.86-4.51-1.94-4.51-4.75,0-5.16,6.83-5.45,10.86-4.26l-.19,3.02c-1.45-.46-7.07-1.65-7.07,1.2,0,1.3.52,1.51,3.12,2.16,3.7.89,4.82,1.98,4.82,5.09,0,5.98-7.59,5.53-11.76,4.6ZM2066.99,2165.24v16.67h-3.46l-.34-2.13c-.96,1.79-2.84,2.44-5.15,2.44-4.2,0-5.59-2.04-5.59-5.52v-11.45h3.86v10.34c0,2.31.52,3.43,2.9,3.43,1.85,0,3.27-.53,3.92-2.66v-11.11h3.86ZM2079.92,2168.39c-2.13,0-4.2.74-4.82,3.61v9.91h-3.86v-16.67h3.86v2.99c1.02-2.75,3.03-3.3,5-3.3l-.19,3.46ZM2087.33,2165.24h3.49v3.05h-3.49v13.61h-3.86v-13.61h-2.66v-3.05h2.66c0-6.06,2.44-6.91,6.23-6.91.65,0,1.3.06,1.91.15v2.84c-.43-.06-.99-.12-1.51-.12-2.28,0-2.78.83-2.78,4.04ZM2107.2,2170.27v11.64h-3.43l-.4-2.13c-.8,1.42-2.9,2.44-5.55,2.44-3.8,0-5.71-1.73-5.71-5.03,0-3.92,2.44-5.31,6.76-5.31h4.47v-.74c0-2.01-.68-2.96-3.77-2.96-1.17,0-2.41.12-3.58.34v-3.3c1.26-.19,2.78-.28,3.98-.28,5.46,0,7.22,2.01,7.22,5.34ZM2103.34,2176.82v-2.19h-3.95c-2.41,0-3.46.46-3.46,2.44,0,1.45.8,2.13,2.72,2.13,2.31,0,4.01-.93,4.69-2.38ZM2110.63,2173.58c0-8.77,6.5-9.54,12.38-8.09v3.3c-3.96-1.22-8.39-1.44-8.39,4.82s4.53,5.95,8.52,4.72v3.27c-5.91,1.56-12.5.83-12.5-8.02ZM1937.67,2144.85c0-8.77,6.5-9.54,12.38-8.09v3.3c-3.96-1.22-8.39-1.44-8.39,4.82s4.53,5.95,8.52,4.72v3.27c-5.91,1.56-12.5.83-12.5-8.02ZM2140.19,2174.32l-10.93.71c.09,2.78,1.45,4.07,4.78,4.07,2.01,0,4.29-.56,5.43-1.14v3.15c-.99.56-3.4,1.11-6.11,1.11-5.06,0-7.99-1.91-7.99-8.64s2.93-8.64,7.99-8.64c5.77,0,6.97,3.27,6.97,7.19,0,.8-.06,1.64-.15,2.19ZM2136.77,2171.72c0-2.07-.43-3.83-3.4-3.83-3.12,0-3.98,1.48-4.1,4.38l7.5-.56ZM776.02,2095.57l52.28-52.38,52.28,52.38-52.28,52.38-52.28-52.38ZM838.61,2106.31h0s-10.33,10.38-10.33,10.38v23.83l44.87-44.95-44.87-44.96.02,20.58-10.41,10.57v24.46l20.71-20.84v20.93ZM935.49,2088.84h-31.69v-3.37c0-2.44,1.09-3.29,2.49-3.29h29.2v-14.71h-29.94c-9.98,0-18.07,8.09-18.07,18.07v39.31h16.32v-21.37h31.69v-14.64ZM1204.28,2088.84h-31.69v-3.37c0-2.44,1.09-3.29,2.49-3.29h29.2v-14.71h-29.94c-9.98,0-18.07,8.09-18.07,18.07v39.31h16.32v-21.37h31.69v-14.64ZM958.79,2110.14c-1.4,0-2.49-.86-2.49-3.3v-39.37h-16.32v39.31c0,9.98,8.09,18.07,18.07,18.07h22.92v-14.71h-22.18ZM1152.64,2067.46h-16.17v21.44h-20.13v-21.44h-16.25v57.38h16.25v-21.45h20.13v21.45h16.17v-57.38ZM1241.19,2124.85h-16.42c-9.98,0-18.07-8.09-18.07-18.07v-21.25c0-9.98,8.09-18.07,18.07-18.07h16.42c9.98,0,18.07,8.09,18.07,18.07v21.25c0,9.98-8.09,18.07-18.07,18.07ZM1225.51,2110.14c-1.4,0-2.49-.85-2.49-3.29v-21.38c0-2.44,1.09-3.29,2.49-3.29h15.01c1.4,0,2.49.85,2.49,3.29v21.38c0,2.44-1.09,3.29-2.49,3.29h-15.01ZM1079.2,2110.14h-31.18v14.71l32.01-.02c9.93,0,17.98-8.06,17.98-18h0c0-9.94-8.06-18-18-18h-15.74c-1.41,0-2.51-.86-2.51-3.33s1.1-3.33,2.51-3.33h29.27v-14.71h-30.08c-9.94,0-18.01,8.06-18.01,18h0c0,9.94,8.06,18,18,18h15.74c1.41,0,2.52.86,2.52,3.33s-1.1,3.33-2.52,3.33ZM1014.75,2066.29h0c-8.29,0-15.55,5.56-17.71,13.56l-12.15,44.99h16.76l2.27-8.42h21.67l2.26,8.42h16.76l-12.15-44.99c-2.16-8-9.42-13.56-17.71-13.56ZM1007.87,2101.72l5.12-18.95c.3-1.17.88-1.76,1.76-1.76.83,0,1.41.59,1.75,1.76l5.12,18.95h-13.76ZM1394.85,2110.14c-1.4,0-2.49-.85-2.49-3.29v-3.37h31.62v-14.64h-31.62v-3.37c0-2.44,1.09-3.29,2.49-3.29h29.13v-14.71h-29.87c-9.98,0-18.07,8.09-18.07,18.07v21.25c0,9.98,8.09,18.07,18.07,18.07h29.87v-14.71h-29.13ZM1284.59,2092.35v14.64h7.54c1.41,0,2.58,1.1,3.51,3.29l6.22,14.57h16.32l-6.22-14.57c-1.07-2.54-2.29-4.9-3.66-7.1,4.88-3.61,7.32-8.34,7.32-14.2v-3.45c0-9.98-8.09-18.06-18.07-18.06h-34.48v57.38h16.25v-42.67h17.48c1.45,0,2.58.85,2.58,3.29v3.59c0,2.44-1.13,3.29-2.58,3.29h-12.21ZM1337.85,2110.14c-1.4,0-2.49-.85-2.49-3.29v-21.38c0-2.44,1.09-3.29,2.49-3.29h33.74v-14.71h-34.48c-9.98,0-18.07,8.09-18.07,18.07v21.25c0,9.98,8.09,18.07,18.07,18.07h34.48v-36.3h-24.89v14.71h8.64v6.88h-17.49Z" style="fill:#bcbec0; fill-rule:evenodd;"/><path d="M1818.65,2099.62l3.8,5.43M1819.23,2123.89l5.45-4.7M1819.23,2123.89c1.15-1.01,1.36-1.48,1.36-4.57v-10.57h-4.71M1920.45,2102.14h17.3M1863.01,2123.58c1.63.2,6.45,1.09,7.17-1.67.95-3.67,1.62-12.24,1.62-18.39h-18.1M1911.97,2105.07h8.42M1920.39,2111.18l-8.89,3.19M1920.45,2118h17.3M1923.02,2110.32h12.07M1925.5,2098.27v6.53M1899.68,2098.27v24.16M1928.86,2113.9v4.75M1932.3,2098.27v6.53M1911.87,2123.87c3.59.61,4.52.11,4.52-3.16v-22.02M1825.01,2101.9h17.21M1833.44,2098.42v10.48M1824.04,2108.9h19.1M1825.87,2105.46h15.63M1827.34,2116.53h12.38M1827.34,2120.05h12.38M1935.09,2106.74h-12.07v7.16h12.07v-7.16ZM1904.54,2104.23h-9.71v9.42h9.71v-9.42ZM1886.58,2106.54v16.07M1887.89,2124c2.44.48,3.06-.19,3.06-2.84v-14.62h-8.75v10.47c0,3.35-1.16,6.74-1.69,7.85M1890.94,2111.93h-8.75M1890.94,2117.01h-8.75M1886.9,2106.87l2.87-4.45v-.65h-5.74M1834.65,2124.03c3.21.41,5.06.96,5.06-3.01v-8.3h-12.38v12.63M1919.82,2124.57c4.39-1.25,7.9-3.15,9.04-6.57M1928.86,2118c1.13,3.43,4.65,5.33,9.04,6.57M1893.19,2123.24l12.17-1.59M1848.51,2110.63c2.66-2.52,6.61-8.57,7.55-12.22M1879.79,2107.29c2.46-2.73,4.5-5.84,5.65-9.24M1848.63,2120.25c4.99-3.63,9.43-8.32,11.03-16.92M1853.45,2124.75c9.82-7.41,10.91-12.82,12.51-21.42M1906.14,2124.89c-.74-2.64-1.72-5.64-2.57-7.93M2038.97,2098.39l1.68,3.63M2026.52,2102.03h26.58M2080.86,2100.96h-12.51v8.81h12.51v-8.81ZM2047.64,2105.83h-15.64v3.83h15.64v-3.83ZM2044.57,2117.13h-9.52v3.94h9.52v-3.94ZM2044.67,2124.25c4.66.59,5.53.29,5.53-2.98v-7.85h-20.74v12.12M2116.49,2107.04h-21.65v6.1c0,7.73-2.63,10.33-3.77,12.01M2133.53,2109.15h11.41M2106.32,2107.04l4.54-5.02v-.31h-12.91M2130.18,2123.38h18.02M2148.3,2109.43c-2.86-2.11-7-6.68-8.41-9.85h-1.16c-1.41,3.17-5.55,7.75-8.41,9.85M2062.73,2114.15l-3.12,10.71M2058.12,2106.58l5.58,4.45M2064.81,2104.21l-5.15-4.17M2068.35,2105.19h12.51M2085.08,2123.75h-21.48M2081.82,2123.75v-9.18h-14.35v9.18M2072.17,2114.57l.02,9.18M2076.95,2123.75l-.02-9.18M2090.63,2108.53c3.16-2.09,7.5-6.29,9.61-10.17M2135.51,2120.43l-2.61-8.53M2137.88,2111.48l2.25,7.83M2145.54,2111.9l-3.98,11.48M2126,2119.44c2.4.78,6.3-1.51,1.61-10.01l2.03-7.31v-1.06h-5.74v24.66M2104.72,2118.37l1.58.12c4.79.38,4.87-.39,5.17-5.02l.07-1.45h-11.52v8.45c0,2.58.93,3.47,3.99,3.47h4.98c3.99,0,5.42-.25,5.59-3.44l.15-2.16" style="fill:none; stroke:#bcbec0; stroke-miterlimit:10; stroke-width:2.3px;"/><path d="M2089.6,2005.63c-7.81,13.17-3.61,19.9.49,26.46,4.21,6.75,8.38,13.42-.49,26.83M2072.83,2058.92c8.87-13.41,4.7-20.08.49-26.83-4.1-6.56-8.3-13.3-.49-26.46M2106.36,2058.92c8.87-13.41,4.7-20.08.49-26.83-4.1-6.56-8.3-13.3-.49-26.46M2057.97,2068.56h65.94" style="fill:none; stroke:#bcbec0; stroke-miterlimit:10; stroke-width:7.17px;"/><path d="M1874.42,2043.85l-.32-.84-3.12,2.42-1.83-4.23c-.31-.73-.23-1.56.22-2.21l1.31-1.87-.79-.74-4.29,4.21s-.14,5.04-.14,8.6-3.79,3.05-3.79,3.05v-12.75c0-.94.3-1.85.86-2.61l7.01-9.41c1.41-1.89,3.47-3.2,5.77-3.7,10.79-2.34,18.02-6.25,18.02-6.25l6.47,7.63s-7.89,4.82-11.2,11.93c-.83,1.78-2.19,3.25-3.89,4.22-3.9,2.24-10.83,6.46-15.43,10.62,0,0-1.9-2,1.05-4.72,1.66-1.53,4.08-3.35,4.08-3.35M1880.37,2054.68h-21.62v2.36h21.62v-2.36ZM1873.66,2051.73c.19.44.92.43,1.25-.02,1.32-1.82.19-3.32.19-3.32l-2.18,1.54.75,1.8ZM1876.5,2049.71c.19.44.92.43,1.25-.02,1.32-1.82.19-3.32.19-3.32l-2.18,1.54.75,1.8Z" style="fill:#bcbec0; fill-rule:evenodd;"/><path d="M1878.38,1957.19l67.86,121.41h-135.71l67.86-121.41M2088.65,1957.19l67.86,121.4h-135.71l67.86-121.4M2088.65,1947.12c-2.93,0-5.87,1.47-7.51,4.4l-69.08,123.59c-3.2,5.73.94,12.8,7.51,12.8h138.16c6.57,0,10.71-7.06,7.51-12.8l-69.08-123.59c-1.64-2.94-4.57-4.4-7.51-4.4h0ZM1878.38,1947.12c-2.93,0-5.87,1.47-7.51,4.4l-69.08,123.59c-3.2,5.73.94,12.8,7.51,12.8h138.16c6.57,0,10.71-7.06,7.51-12.8l-69.08-123.59c-1.64-2.94-4.57-4.4-7.51-4.4h0Z" style="fill:#bcbec0;"/><path d="M1878.38,2007.54c-17.35,0-31.46,14.11-31.46,31.46s14.11,31.46,31.46,31.46,31.46-14.11,31.46-31.46-14.11-31.46-31.46-31.46ZM1900.73,2061.35l-44.58-44.58" style="fill:none; stroke:#bcbec0; stroke-miterlimit:10; stroke-width:5.02px;"/></svg>