<?xml version="1.0" encoding="UTF-8"?><svg id="a" xmlns="http://www.w3.org/2000/svg" viewBox="0 0 3000 3000"><path d="M2254.67,103.78h-68.75V35.03h68.75v68.75ZM2197.38,92.32h11.46v-11.46h-11.46v11.46ZM2231.75,46.49h-22.92v11.46h-11.46v11.46h11.46v11.46h11.46v11.46h22.92v-11.46h-11.46v-11.46h11.46v-22.92h-11.46ZM1594.02,103.78h-68.75V35.03h68.75v68.75ZM1536.73,92.32h11.46v-11.46h-11.46v11.46ZM1571.11,46.49h-22.92v11.46h-11.46v11.46h11.46v11.46h11.46v11.46h22.92v-11.46h-11.46v-11.46h11.46v-22.92h-11.46ZM96.54,2288.53l52.25,52.15-52.25,52.15-52.25-52.15,52.25-52.15ZM85.82,2350.97h0s-10.34-10.3-10.34-10.3h-23.77l44.84,44.76,44.85-44.76-20.53.02-10.54-10.39h-24.4l20.79,20.66h-20.88ZM103.25,2447.6v-31.61h3.36c2.44,0,3.28,1.09,3.28,2.48v29.13h14.67v-29.87c0-9.95-8.07-18.02-18.02-18.02h-39.22v16.28h21.32v31.61h14.6ZM103.25,2715.73v-31.61h3.36c2.44,0,3.28,1.09,3.28,2.48v29.13h14.67v-29.87c0-9.95-8.07-18.02-18.02-18.02h-39.22v16.28h21.32v31.61h14.6ZM82.01,2470.85c0-1.39.85-2.48,3.29-2.48h39.28v-16.28h-39.22c-9.95,0-18.02,8.07-18.02,18.02v22.86h14.67v-22.12ZM124.57,2664.21v-16.13h-21.39v-20.08h21.39v-16.21h-57.24v16.21h21.39v20.08h-21.39v16.13h57.24ZM67.33,2752.54v-16.38c0-9.95,8.07-18.02,18.02-18.02h21.19c9.95,0,18.02,8.07,18.02,18.02v16.38c0,9.95-8.07,18.02-18.02,18.02h-21.19c-9.95,0-18.02-8.07-18.02-18.02ZM82,2736.91c0-1.39.85-2.48,3.28-2.48h21.33c2.44,0,3.28,1.09,3.28,2.48v14.97c0,1.39-.85,2.48-3.28,2.48h-21.33c-2.44,0-3.28-1.09-3.28-2.48v-14.97ZM82,2590.95v-31.11h-14.67l.02,31.93c0,9.91,8.04,17.94,17.95,17.94h0c9.91,0,17.95-8.04,17.95-17.95v-15.7c0-1.41.86-2.51,3.32-2.51s3.32,1.1,3.32,2.51v29.2h14.67v-30.01c0-9.92-8.04-17.96-17.96-17.96h0c-9.92,0-17.96,8.04-17.96,17.96v15.7c0,1.41-.86,2.51-3.32,2.51s-3.32-1.1-3.32-2.51ZM125.74,2526.66h0c0-8.27-5.55-15.51-13.53-17.67l-44.88-12.12v16.72l8.4,2.26v21.61l-8.4,2.26v16.72l44.88-12.12c7.98-2.16,13.53-9.4,13.53-17.67ZM90.4,2519.8l18.91,5.11c1.17.29,1.75.88,1.75,1.75,0,.83-.59,1.41-1.75,1.75l-18.91,5.11v-13.72ZM82.01,2905.82c0-1.39.85-2.48,3.28-2.48h3.36v31.54h14.6v-31.54h3.36c2.44,0,3.28,1.09,3.28,2.48v29.06h14.67v-29.8c0-9.95-8.07-18.02-18.02-18.02h-21.19c-9.95,0-18.02,8.07-18.02,18.02v29.8h14.67v-29.06ZM99.75,2795.84h-14.6v7.52c0,1.41-1.09,2.58-3.28,3.5l-14.53,6.2v16.28l14.53-6.2c2.53-1.07,4.89-2.29,7.08-3.65,3.6,4.87,8.32,7.3,14.16,7.3h3.44c9.95,0,18.02-8.07,18.02-18.02v-34.4h-57.24v16.21h42.57v17.44c0,1.44-.85,2.57-3.28,2.57h-3.58c-2.44,0-3.28-1.13-3.28-2.57v-12.18ZM82.01,2848.97c0-1.39.85-2.48,3.28-2.48h21.33c2.44,0,3.28,1.09,3.28,2.48v33.66h14.67v-34.4c0-9.95-8.07-18.02-18.02-18.02h-21.19c-9.95,0-18.02,8.07-18.02,18.02v34.4h36.21v-24.82h-14.67v8.62h-6.87v-17.45ZM63.68,573.08v4.21l-16.55,3.38,14.34,3.81v4.67l-14.34,3.53,16.55,3.59v4.15l-21.31-4.94v-5.07l14.28-3.81-14.28-3.75v-5.04l21.31-4.73ZM53.95,615.03h-11.58v-3.41l2.12-.4c-1.41-.8-2.43-2.89-2.43-5.53,0-3.78,1.72-5.68,5.01-5.68,3.9,0,5.28,2.43,5.28,6.73l-.03,4.45c2.83,0,3.71-.68,3.71-3.75,0-1.17-.12-2.4-.34-3.56h3.29c.18,1.26.28,2.76.28,3.96,0,5.44-2,7.19-5.31,7.19ZM47.44,611.19h2.18v-3.93c0-2.4-.46-3.44-2.43-3.44-1.44,0-2.12.8-2.12,2.7,0,2.3.92,3.99,2.36,4.67ZM55.82,627.95c0-2.12-.74-4.18-3.59-4.79h-9.86v-3.84h16.58v3.84h-2.98c2.73,1.01,3.29,3.01,3.29,4.98l-3.44-.18ZM53.73,645.4h-11.36v-3.84h10.29c2.33,0,3.41-.52,3.41-2.86,0-1.97-.55-3.38-2.64-4.05h-11.06v-3.84h16.58v3.84h-2.09c1.72.95,2.4,2.95,2.4,5.22,0,4.21-2.03,5.53-5.53,5.53ZM58.95,649.48v3.84h-16.58v-3.84h16.58ZM63.59,649.23c1.87,0,2.06.46,2.06,2.18s-.18,2.18-2.06,2.18-2.09-.46-2.09-2.18.25-2.18,2.09-2.18ZM53.73,672.11h-11.36v-3.84h10.29c2.33,0,3.41-.52,3.41-2.86,0-1.97-.55-3.38-2.64-4.05h-11.06v-3.84h16.58v3.84h-2.09c1.72.95,2.4,2.95,2.4,5.22,0,4.21-2.03,5.53-5.53,5.53ZM58.95,691.09h-15.32c-4.58,0-7.4-2.37-7.4-8.81,0-1.47.18-3.26.4-4.48h3.1c-.31,1.26-.46,2.86-.46,4.27,0,3.62,1.2,5.22,4.55,5.22h1.17c-1.63-.68-2.61-2.09-2.61-5.13,0-5.44,3.38-6.79,8.45-6.79,4.58,0,8.45,1.35,8.45,6.79,0,3.13-1.07,4.48-2.73,5.13h2.43v3.81ZM50.81,687.43c3.38,0,5.5-.74,5.5-4.3s-2.64-3.78-5.5-3.78c-3.07,0-5.56.46-5.56,3.78,0,3.56,2.06,4.3,5.56,4.3ZM44.64,696.52c2.15,0,2.46.4,2.46,2.46s-.31,2.43-2.46,2.43-2.46-.43-2.46-2.43.34-2.46,2.46-2.46ZM56.68,696.52c2.15,0,2.46.4,2.46,2.46s-.31,2.43-2.46,2.43-2.46-.43-2.46-2.43.34-2.46,2.46-2.46ZM53.73,728.7h-11.36v-3.84h10.29c2.33,0,3.41-.55,3.41-2.86,0-1.93-.58-3.44-2.73-4.05h-10.96v-3.84h23.34v3.84h-8.91c1.75.92,2.46,2.95,2.46,5.22,0,4.21-2.03,5.53-5.53,5.53ZM50.66,731.95c6.69,0,8.6,2.92,8.6,7.95s-1.9,7.98-8.6,7.98-8.6-2.92-8.6-7.98,1.9-7.95,8.6-7.95ZM50.66,743.93c4.3,0,5.65-1.01,5.65-4.02s-1.35-3.99-5.65-3.99-5.62,1.01-5.62,3.99,1.32,4.02,5.62,4.02ZM55.88,755.35h-7.99c-2.15,0-2.67.37-2.67,2.06,0,.58.03,1.04.15,1.5h-3.04c-.09-.64-.15-1.35-.15-2.06,0-3.96,1.04-5.34,5.41-5.34h8.29v-2.3h3.07v2.3h3.93v3.84h-3.93v3.65h-3.07v-3.65ZM42.71,767.88h3.22c-.49,2.17-2.02,8.02,1.23,8.08,1.57,0,1.9-.55,2.58-3.38.86-3.59,1.93-4.48,4.73-4.48,4.91,0,5.54,7.1,4.24,10.81l-3.01-.18c.46-1.44,1.68-7.03-1.2-7.03-1.29,0-1.5.52-2.15,3.1-.89,3.68-1.97,4.79-5.07,4.79-5.86,0-5.53-7.67-4.58-11.7ZM58.95,797.32h-16.58v-3.44l2.12-.34c-1.78-.95-2.43-2.83-2.43-5.13,0-4.18,2.03-5.56,5.5-5.56h11.39v3.84h-10.29c-2.3,0-3.41.52-3.41,2.89,0,1.84.52,3.26,2.64,3.9h11.06v3.84ZM55.82,810.19c0-2.12-.74-4.18-3.59-4.79h-9.86v-3.84h16.58v3.84h-2.98c2.73,1.01,3.29,3.01,3.29,4.98l-3.44-.18ZM58.95,817.56v3.47h-3.04v-3.47h-13.54v-3.84h13.54v-2.64h3.04v2.64h.15c5.74,0,6.73,2.43,6.73,6.2,0,.65-.06,1.29-.15,1.9h-2.83c.06-.43.12-.98.12-1.5,0-2.27-.83-2.76-4.02-2.76ZM53.95,837.33h-11.58v-3.41l2.12-.4c-1.41-.8-2.43-2.89-2.43-5.53,0-3.78,1.72-5.68,5.01-5.68,3.9,0,5.28,2.43,5.28,6.73v4.45c2.6,0,3.69-.68,3.69-3.75,0-1.17-.12-2.4-.34-3.56h3.29c.18,1.26.28,2.76.28,3.96,0,5.44-2,7.19-5.31,7.19ZM47.44,833.49h2.18v-3.93c0-2.4-.46-3.44-2.43-3.44-1.44,0-2.12.8-2.12,2.7,0,2.3.92,3.99,2.36,4.67ZM50.66,840.74c8.71,0,9.49,6.46,8.05,12.31h-3.29c1.22-3.94,1.36-8.35-4.79-8.35s-5.92,4.51-4.7,8.48h-3.26c-1.55-5.88-.82-12.44,7.98-12.44ZM49.92,870.16l-.71-10.87c-2.76.09-4.05,1.44-4.05,4.76,0,2,.55,4.27,1.14,5.41h-3.13c-.55-.98-1.11-3.38-1.11-6.08,0-5.04,1.9-7.95,8.6-7.95s8.6,2.92,8.6,7.95c0,5.74-3.26,6.94-7.16,6.94-.8,0-1.63-.06-2.18-.15ZM52.5,866.75c2.06,0,3.81-.43,3.81-3.38,0-3.1-1.47-3.96-4.36-4.09l.55,7.46ZM46.95,874.94v3.69c-2.61,0-6.66-1.84-8.75-3.38v-3.1c2.49,1.47,6.26,2.79,8.75,2.79ZM58.95,888.21v4.05l-12.62,2.89,12.62,3.5v4.39l-12.62,3.38,12.62,3.1v3.96l-16.58-4.58v-4.79l12.1-3.38-12.1-3.22v-4.82l16.58-4.48ZM53.95,929.85h-11.58v-3.41l2.12-.4c-1.41-.8-2.43-2.89-2.43-5.53,0-3.78,1.72-5.68,5.01-5.68,3.9,0,5.28,2.43,5.28,6.73v4.45h.74c2,0,2.95-.68,2.95-3.75,0-1.17-.12-2.4-.34-3.56h3.29c.18,1.26.28,2.76.28,3.96,0,5.44-2,7.19-5.31,7.19ZM47.44,926.01h2.18v-3.93c0-2.4-.46-3.44-2.43-3.44-1.44,0-2.12.8-2.12,2.7,0,2.3.92,3.99,2.36,4.67ZM58.95,934.08v3.84h-16.58v-3.84h16.58ZM63.59,933.84c1.87,0,2.06.46,2.06,2.18s-.18,2.18-2.06,2.18-2.09-.46-2.09-2.18.25-2.18,2.09-2.18ZM55.88,946.24h-7.99c-2.15,0-2.67.37-2.67,2.06,0,.58.03,1.04.15,1.5h-3.04c-.09-.64-.15-1.35-.15-2.06,0-3.96,1.04-5.34,5.41-5.34h8.29v-2.3h3.07v2.3h3.93v3.84h-3.93v3.65h-3.07v-3.65ZM58.95,973.91h-16.58v-3.44l2.12-.34c-1.78-.95-2.43-2.83-2.43-5.13,0-4.18,2.03-5.56,5.5-5.56h11.39v3.84h-10.29c-2.3,0-3.41.52-3.41,2.89,0,1.84.52,3.26,2.64,3.9h11.06v3.84ZM53.73,992.73h-11.36v-3.84h10.29c2.33,0,3.41-.52,3.41-2.86,0-1.97-.55-3.38-2.64-4.05h-11.06v-3.84h16.58v3.84h-2.09c1.72.95,2.4,2.95,2.4,5.22,0,4.21-2.03,5.53-5.53,5.53ZM55.88,1000.99h-7.99c-2.15,0-2.67.37-2.67,2.06,0,.58.03,1.04.15,1.5h-3.04c-.09-.64-.15-1.35-.15-2.06,0-3.96,1.04-5.34,5.41-5.34h8.29v-2.3h3.07v2.3h3.93v3.84h-3.93v3.65h-3.07v-3.65ZM58.95,1006.97v3.84h-16.58v-3.84h16.58ZM63.59,1006.73c1.87,0,2.06.46,2.06,2.18s-.18,2.18-2.06,2.18-2.09-.46-2.09-2.18.25-2.18,2.09-2.18ZM46.24,1014.99h19.47v3.84h-18.55c-1.54,0-1.9.4-1.9,1.44,0,.31.03.64.12,1.01h-3.01c-.12-.55-.18-1.14-.18-1.84,0-3.26,1.23-4.45,4.05-4.45ZM50.66,1029.94c8.82,0,9.49,6.46,8.05,12.31h-3.29c1.22-3.94,1.42-8.35-4.79-8.35s-5.92,4.51-4.7,8.48h-3.26c-1.55-5.88-.82-12.44,7.98-12.44ZM50.66,1044.62c6.69,0,8.6,2.92,8.6,7.95s-1.9,7.98-8.6,7.98-8.6-2.92-8.6-7.98,1.9-7.95,8.6-7.95ZM50.66,1056.6c4.3,0,5.65-1.01,5.65-4.02s-1.35-3.99-5.65-3.99-5.62,1.01-5.62,3.99,1.32,4.02,5.62,4.02ZM50.66,1063.01c6.69,0,8.6,2.92,8.6,7.95s-1.9,7.98-8.6,7.98-8.6-2.92-8.6-7.98,1.9-7.95,8.6-7.95ZM50.66,1074.99c4.3,0,5.65-1.01,5.65-4.02s-1.35-3.99-5.65-3.99-5.62,1.01-5.62,3.99,1.32,4.02,5.62,4.02ZM46.24,1082.26h19.47v3.84h-18.55c-1.54,0-1.9.4-1.9,1.44,0,.31.03.64.12,1.01h-3.01c-.12-.55-.18-1.14-.18-1.84,0-3.26,1.23-4.45,4.05-4.45Z" style="fill:#bcbec0; fill-rule:evenodd;"/><path d="M87.5,239.32l.97-.38-2.81-3.63,4.92-2.12c.84-.36,1.82-.27,2.57.26l2.18,1.52.86-.91-4.9-5s-5.86-.17-10.01-.17-3.55-4.41-3.55-4.41h14.84c1.09,0,2.16.35,3.04,1.01l10.95,8.16c2.2,1.64,3.73,4.03,4.31,6.72,2.73,12.55,7.28,20.98,7.28,20.98l-8.88,7.53s-5.61-9.18-13.89-13.04c-2.07-.96-3.78-2.55-4.91-4.52-2.61-4.54-7.52-12.6-12.36-17.96,0,0,2.32-2.22,5.49,1.22,1.79,1.94,3.9,4.75,3.9,4.75M74.9,246.24v-25.16h-2.74v25.16h2.74ZM78.34,238.43c-.52.22-.5,1.07.03,1.45,2.12,1.54,3.87.22,3.87.22l-1.8-2.54-2.1.87ZM80.68,241.74c-.52.22-.5,1.07.03,1.45,2.12,1.54,3.87.22,3.87.22l-1.8-2.54-2.1.87Z" style="fill:#bcbec0; fill-rule:evenodd;"/><path d="M131.99,450.47c-15.32-9.09-23.16-4.2-30.8.57-7.85,4.9-15.62,9.75-31.23-.57M69.97,430.96c15.6,10.32,23.37,5.47,31.23.57,7.64-4.77,15.47-9.66,30.8-.57M69.97,469.98c15.6,10.32,23.37,5.47,31.23.57,7.64-4.77,15.47-9.66,30.8-.57M58.75,413.66v76.75" style="fill:none; stroke:#bcbec0; stroke-miterlimit:10; stroke-width:8.34px;"/><path d="M47.07,164.95l141.3,78.97-141.3,78.97v-157.95M47.07,370.39l141.3,78.97-141.3,78.97v-157.95M46.25,153.5c-5.23,0-10.02,4.19-10.02,10.02v160.79c0,5.83,4.79,10.02,10.02,10.02,1.62,0,3.29-.4,4.87-1.29l143.84-80.4c6.83-3.82,6.83-13.65,0-17.47L51.12,154.79c-1.58-.88-3.25-1.29-4.87-1.29h0ZM46.25,358.95c-5.23,0-10.02,4.19-10.02,10.02v160.79c0,5.83,4.79,10.02,10.02,10.02,1.62,0,3.29-.4,4.87-1.29l143.84-80.4c6.83-3.82,6.83-13.65,0-17.47l-143.84-80.4c-1.58-.88-3.25-1.29-4.87-1.29h0Z" style="fill:#bcbec0;"/><path d="M129.76,243.92c0-20.19-16.42-36.61-36.61-36.61s-36.61,16.42-36.61,36.61,16.42,36.61,36.61,36.61,36.61-16.42,36.61-36.61ZM67.14,269.93l51.88-51.88" style="fill:none; stroke:#bcbec0; stroke-miterlimit:10; stroke-width:5.84px;"/><path d="M97.03,647.2l-6.12,6.36M85.93,672.43l9.95-7.05M96.11,639.97h-6.31c-3.13,0-4.33.9-4.33,10.49s.55,10.01,7.08,10.01M130.18,888.28l-9.92,6.94M85.86,889.34l8.59,9.95M85.86,889.34c1.85,2.09,2.71,2.49,8.34,2.49h19.32v-8.61M125.58,1056.55v31.6M86.42,963.56c-.37,2.99-1.99,11.79,3.06,13.1,6.7,1.74,22.36,2.97,33.6,2.97v-33.07M120.24,1041.05v15.39M103.24,1040.19l5.83,16.24M96.62,1056.55v31.6M110.64,1061.23v22.06M132.66,1065.77h-11.93M132.66,1024.52h-44.14M104.1,1071.91h-8.68M132.66,1078.19h-11.93M85.89,1040.88c-1.12,6.55-.21,8.26,5.78,8.26h40.23M120.24,852.88v27.55M99.27,863.39l13.22-7.58M86.23,859.58c-.96,9.28-.54,11.98,5.44,11.98h40.23M126.02,899.9v31.43M132.39,915.29h-19.15M113.24,898.13v34.89M119.52,901.47v28.55M99.31,904.14v22.61M92.88,904.14v22.61M117.19,1083.29v-22.06h-13.09v22.06h13.09ZM121.78,1033.39v-17.74h-17.2v17.74h17.2ZM117.56,1000.58h-29.36M85.66,1002.98c-.88,4.45.34,5.58,5.18,5.58h26.71v-15.98h-19.13c-6.11,0-12.31-2.11-14.34-3.08M107.71,1008.56v-15.98M98.43,1008.56v-15.98M116.94,1001.17l8.13,5.23h1.19v-10.49M85.6,917.5c-.76,5.86-1.75,9.25,5.5,9.25h15.15v-22.61h-23.07M84.61,1055.4c2.28,8.02,5.75,14.44,12.01,16.51M96.62,1071.91c-6.26,2.07-9.73,8.49-12.01,16.51M87.04,1012.66l2.91,22.23M110.07,937.08c4.6,4.85,15.65,12.07,22.32,13.8M116.18,988.18c4.99,4.49,10.67,8.22,16.87,10.32M92.5,937.29c6.63,9.11,15.2,17.22,30.91,20.15M84.28,946.11c13.54,17.95,23.41,19.93,39.12,22.86M84.03,1036.33c4.82-1.35,10.3-3.14,14.48-4.7M132.62,749.62l-6.63,3.08M125.98,726.88v48.55M132.5,648.08l-5.72,3.07M126.77,639.6l-8.22,2.11M126.77,659.43l-8.22-2.11M126.77,627.91v42.86M118.55,625.11v48.5M132.42,600.92l-8.26,4.45M121.22,587.73v32.69M86.85,585.4v36.27M105.04,588.91v29.81M127.92,820.35v-22.85h-16.09v22.85h16.09ZM119.04,765.45v-28.57h-7v28.57h7ZM98.39,759.85v-17.39h-7.2v17.39h7.2ZM85.38,760.03c-1.08,8.51-.54,10.1,5.45,10.1h14.34v-37.89h-22.13M103.83,787.25l-19.57-5.7M117.67,778.83l-8.12,10.18M122,791.05l7.61-9.41M102.32,583.54l-18.42-8.08M116.71,573.08l-7.99,11M122.73,585.46l6.63-9.41M120.2,797.51v22.85M111.42,665.05v-31.54h-11.54v31.54h11.54ZM105.88,633.51v31.54M126.03,847.38v-12.5h-36.45v12.5h36.45ZM108.81,834.88v12.5M86.31,828.07v-39.23M86.31,822.12h16.76v-26.21h-16.76M103.07,804.49l-16.76.03M121.22,603.89l-34.37.03M103.07,813.18l-16.76.03M112.6,696.33v-4.9M89.32,696.33v-4.9M85.77,626.55c3.09,2.45,5.93,4.43,10.34,6.68" style="fill:none; stroke:#bcbec0; stroke-miterlimit:10; stroke-width:3.6px;"/></svg>