<?xml version="1.0" encoding="UTF-8"?><svg id="a" xmlns="http://www.w3.org/2000/svg" viewBox="0 0 1500 1500"><path d="M1179.42,1453.71c0,6.81-3.43,8.81-8.56,8.81h-5.72v-17.63h5.72c5.13,0,8.56,1.47,8.56,8.82ZM1175.99,1453.71c0-4.9-1.98-6-5.28-6h-2.24v11.94h2.24c3.4,0,5.28-1.3,5.28-5.94ZM1181.8,1455.67c0-5.54,2.41-7.11,6.58-7.11s6.6,1.57,6.6,7.11-2.41,7.11-6.6,7.11-6.58-1.57-6.58-7.11ZM1191.71,1455.67c0-3.56-.84-4.67-3.33-4.67s-3.3,1.12-3.3,4.67.84,4.65,3.3,4.65,3.33-1.09,3.33-4.65ZM1215.84,1453.13v9.4h-3.18v-8.51c0-1.93-.43-2.82-2.36-2.82-1.63,0-2.79.46-3.35,2.18v9.15h-3.18v-13.72h3.18v1.73c.79-1.42,2.44-1.98,4.32-1.98,3.48,0,4.57,1.68,4.57,4.57ZM1218.53,1455.67c0-5.54,2.41-7.11,6.58-7.11s6.6,1.57,6.6,7.11-2.41,7.11-6.6,7.11-6.58-1.57-6.58-7.11ZM1228.44,1455.67c0-3.56-.84-4.67-3.33-4.67s-3.3,1.12-3.3,4.67.84,4.65,3.3,4.65,3.33-1.09,3.33-4.65ZM1237.88,1451.35v6.6c0,1.78.31,2.21,1.7,2.21.48,0,.86-.03,1.24-.13v2.52c-.53.08-1.12.13-1.7.13-3.28,0-4.42-.86-4.42-4.47v-6.86h-1.91v-2.54h1.91v-3.25h3.18v3.25h3.02v2.54h-3.02ZM1252.31,1451.35v6.6c0,1.78.31,2.21,1.7,2.21.48,0,.86-.03,1.24-.13v2.52c-.53.08-1.12.13-1.7.13-3.28,0-4.42-.86-4.42-4.47v-6.86h-1.91v-2.54h1.91v-3.25h3.18v3.25h3.02v2.54h-3.02ZM1256.58,1455.67c0-5.54,2.41-7.11,6.58-7.11s6.6,1.57,6.6,7.11-2.41,7.11-6.6,7.11-6.58-1.57-6.58-7.11ZM1266.48,1455.67c0-3.56-.84-4.67-3.33-4.67s-3.3,1.12-3.3,4.67.84,4.65,3.3,4.65,3.33-1.09,3.33-4.65ZM1284.39,1448.81v13.72h-2.85l-.28-1.75c-.79,1.47-2.34,2.01-4.24,2.01-3.45,0-4.6-1.68-4.6-4.55v-9.42h3.18v8.51c0,1.91.43,2.82,2.39,2.82,1.52,0,2.69-.43,3.23-2.19v-9.14h3.18ZM1312.1,1453.13v9.4h-3.18v-8.51c0-1.93-.46-2.82-2.36-2.82-1.6,0-2.85.48-3.35,2.26v9.07h-3.18v-19.31h3.18v7.37c.76-1.45,2.44-2.03,4.32-2.03,3.48,0,4.57,1.68,4.57,4.57ZM1339.43,1444.9h3.48l2.95,13.69,3-11.86h3.86l3.07,11.86,2.82-13.69h3.43l-4.09,17.63h-4.19l-3-11.81-3.25,11.81h-4.17l-3.91-17.63ZM1374.64,1452.95v9.58h-2.82l-.33-1.75c-.66,1.17-2.39,2.01-4.57,2.01-3.12,0-4.7-1.42-4.7-4.14,0-3.23,2.01-4.37,5.56-4.37h3.68v-.61c0-1.65-.56-2.44-3.1-2.44-.97,0-1.98.1-2.95.28v-2.72c1.04-.15,2.29-.23,3.28-.23,4.5,0,5.94,1.65,5.94,4.39ZM1371.46,1458.33v-1.8h-3.25c-1.98,0-2.84.38-2.84,2.01,0,1.19.66,1.75,2.24,1.75,1.91,0,3.3-.76,3.86-1.96ZM1385.33,1451.4c-1.75,0-3.46.61-3.96,2.97v8.15h-3.18v-13.72h3.18v2.46c.84-2.26,2.49-2.72,4.12-2.72l-.15,2.85ZM1399.76,1453.13v9.4h-3.18v-8.51c0-1.93-.43-2.82-2.36-2.82-1.63,0-2.79.46-3.35,2.18v9.15h-3.18v-13.72h3.18v1.73c.79-1.42,2.44-1.98,4.32-1.98,3.48,0,4.57,1.68,4.57,4.57ZM1402.93,1444.97c0-1.55.38-1.7,1.8-1.7s1.8.15,1.8,1.7-.38,1.73-1.8,1.73-1.8-.2-1.8-1.73ZM1403.13,1448.81h3.18v13.72h-3.18v-13.72ZM1421.86,1453.13v9.4h-3.18v-8.51c0-1.93-.43-2.82-2.36-2.82-1.63,0-2.79.46-3.35,2.18v9.15h-3.18v-13.72h3.18v1.73c.79-1.42,2.44-1.98,4.32-1.98,3.48,0,4.57,1.68,4.57,4.57ZM1437.55,1448.81v12.68c0,3.79-1.96,6.12-7.29,6.12-1.22,0-2.69-.15-3.71-.33v-2.57c1.04.25,2.36.38,3.53.38,3,0,4.32-.99,4.32-3.76v-.96c-.56,1.35-1.73,2.16-4.24,2.16-4.5,0-5.61-2.79-5.61-6.99,0-3.79,1.12-6.99,5.61-6.99,2.59,0,3.71.89,4.24,2.26v-2.01h3.15ZM1434.53,1455.54c0-2.79-.61-4.55-3.56-4.55s-3.12,2.18-3.12,4.55c0,2.54.38,4.6,3.12,4.6,2.95,0,3.56-1.7,3.56-4.6ZM1458.63,1453.13v9.4h-3.18v-8.51c0-1.93-.46-2.82-2.36-2.82-1.6,0-2.85.48-3.35,2.26v9.07h-3.18v-19.31h3.18v7.37c.76-1.45,2.44-2.03,4.32-2.03,3.48,0,4.57,1.68,4.57,4.57ZM1461.32,1455.67c0-5.54,2.41-7.11,6.58-7.11s6.6,1.57,6.6,7.11-2.41,7.11-6.6,7.11-6.58-1.57-6.58-7.11ZM1471.23,1455.67c0-3.56-.84-4.67-3.33-4.67s-3.3,1.12-3.3,4.67.84,4.65,3.3,4.65,3.33-1.09,3.33-4.65ZM1480.68,1451.35v6.6c0,1.78.31,2.21,1.7,2.21.48,0,.86-.03,1.24-.13v2.52c-.53.08-1.12.13-1.7.13-3.28,0-4.42-.86-4.42-4.47v-6.86h-1.91v-2.54h1.91v-3.25h3.18v3.25h3.02v2.54h-3.02ZM1369.24,1486.02v-2.67c1.76.4,6.68,1.58,6.68-1.02,0-1.3-.46-1.58-2.79-2.13-2.97-.71-3.71-1.6-3.71-3.91,0-4.25,5.62-4.49,8.94-3.51l-.15,2.49c-1.19-.38-5.82-1.36-5.82.99,0,1.07.43,1.24,2.57,1.78,3.05.74,3.96,1.63,3.96,4.19,0,4.93-6.25,4.55-9.68,3.78ZM1393.6,1472.58v13.72h-2.85l-.28-1.75c-.79,1.47-2.34,2.01-4.24,2.01-3.45,0-4.6-1.68-4.6-4.55v-9.42h3.18v8.51c0,1.91.43,2.82,2.39,2.82,1.52,0,2.69-.43,3.23-2.19v-9.14h3.18ZM1404.24,1475.17c-1.75,0-3.45.61-3.96,2.97v8.15h-3.18v-13.72h3.18v2.46c.84-2.26,2.49-2.72,4.12-2.72l-.15,2.85ZM1410.34,1472.58h2.87v2.51h-2.87v11.2h-3.18v-11.2h-2.19v-2.51h2.19c0-4.99,2.01-5.69,5.13-5.69.53,0,1.07.05,1.57.13v2.34c-.36-.05-.81-.1-1.24-.1-1.88,0-2.29.69-2.29,3.33ZM1426.69,1476.72v9.58h-2.82l-.33-1.75c-.66,1.17-2.39,2.01-4.57,2.01-3.12,0-4.7-1.42-4.7-4.14,0-3.23,2.01-4.37,5.56-4.37h3.68v-.61c0-1.65-.56-2.44-3.1-2.44-.96,0-1.98.1-2.95.28v-2.72c1.04-.15,2.29-.23,3.28-.23,4.5,0,5.94,1.65,5.94,4.39ZM1423.52,1482.11v-1.8h-3.25c-1.98,0-2.84.38-2.84,2.01,0,1.19.66,1.75,2.24,1.75,1.91,0,3.3-.76,3.86-1.96ZM1429.51,1479.44c0-7.22,5.35-7.85,10.19-6.66v2.72c-3.26-1.01-6.91-1.18-6.91,3.96s3.73,4.89,7.01,3.89v2.69c-4.87,1.28-10.29.68-10.29-6.6ZM1287.16,1455.79c0-7.22,5.35-7.85,10.19-6.66v2.72c-3.26-1.01-6.91-1.18-6.91,3.96s3.73,4.89,7.01,3.89v2.69c-4.87,1.28-10.29.68-10.29-6.6ZM1453.84,1480.05l-8.99.58c.08,2.29,1.19,3.35,3.94,3.35,1.65,0,3.53-.46,4.47-.94v2.59c-.81.46-2.79.91-5.03.91-4.17,0-6.58-1.57-6.58-7.11s2.41-7.11,6.58-7.11c4.75,0,5.74,2.69,5.74,5.92,0,.66-.05,1.35-.13,1.8ZM1451.02,1477.91c0-1.7-.36-3.15-2.79-3.15-2.57,0-3.28,1.22-3.38,3.61l6.17-.46ZM483.35,1415.24l43.03-43.11,43.03,43.11-43.03,43.11-43.03-43.11ZM534.87,1424.08h0s-8.5,8.54-8.5,8.54v19.61l36.93-37-36.93-37,.02,16.94-8.57,8.7v20.13l17.05-17.15v17.22ZM614.6,1409.69h-26.08v-2.77c0-2.01.9-2.71,2.05-2.71h24.04v-12.11h-24.64c-8.21,0-14.87,6.66-14.87,14.87v32.36h13.43v-17.59h26.08v-12.05ZM835.83,1409.69h-26.08v-2.77c0-2.01.9-2.71,2.05-2.71h24.04v-12.11h-24.64c-8.21,0-14.87,6.66-14.87,14.87v32.36h13.43v-17.59h26.08v-12.05ZM633.78,1427.22c-1.15,0-2.05-.7-2.05-2.71v-32.41h-13.43v32.36c0,8.21,6.66,14.87,14.87,14.87h18.86v-12.11h-18.25ZM793.32,1392.1h-13.31v17.65h-16.57v-17.65h-13.37v47.23h13.37v-17.65h16.57v17.65h13.31v-47.23ZM866.2,1439.33h-13.51c-8.21,0-14.87-6.66-14.87-14.87v-17.49c0-8.21,6.66-14.87,14.87-14.87h13.51c8.21,0,14.87,6.66,14.87,14.87v17.49c0,8.21-6.66,14.87-14.87,14.87ZM853.3,1427.23c-1.15,0-2.05-.7-2.05-2.71v-17.6c0-2.01.9-2.71,2.05-2.71h12.35c1.15,0,2.05.7,2.05,2.71v17.6c0,2.01-.9,2.71-2.05,2.71h-12.35ZM732.88,1427.23h-25.67v12.11l26.35-.02c8.18,0,14.8-6.64,14.8-14.81h0c0-8.18-6.63-14.81-14.81-14.81h-12.96c-1.16,0-2.07-.71-2.07-2.74s.91-2.74,2.07-2.74h24.09v-12.11h-24.76c-8.18,0-14.82,6.63-14.82,14.82h0c0,8.18,6.63,14.82,14.82,14.82h12.95c1.16,0,2.07.71,2.07,2.74s-.91,2.74-2.07,2.74ZM679.83,1391.14h0c-6.82,0-12.8,4.58-14.58,11.16l-10,37.03h13.79l1.87-6.93h17.83l1.86,6.93h13.8l-10-37.03c-1.78-6.59-7.75-11.16-14.58-11.16ZM674.17,1420.3l4.21-15.6c.24-.96.72-1.45,1.45-1.45.68,0,1.16.49,1.44,1.45l4.22,15.6h-11.32ZM992.67,1427.22c-1.15,0-2.05-.7-2.05-2.71v-2.77h26.02v-12.05h-26.02v-2.77c0-2.01.9-2.71,2.05-2.71h23.98v-12.11h-24.58c-8.21,0-14.87,6.66-14.87,14.87v17.49c0,8.21,6.66,14.87,14.87,14.87h24.58v-12.11h-23.98ZM901.93,1412.59v12.05h6.21c1.16,0,2.13.9,2.89,2.71l5.12,11.99h13.43l-5.12-11.99c-.88-2.09-1.89-4.04-3.01-5.84,4.02-2.97,6.03-6.87,6.03-11.69v-2.84c0-8.21-6.66-14.87-14.87-14.87h-28.38v47.23h13.37v-35.12h14.39c1.19,0,2.12.7,2.12,2.71v2.96c0,2.01-.93,2.71-2.12,2.71h-10.05ZM945.76,1427.23c-1.15,0-2.05-.7-2.05-2.71v-17.6c0-2.01.9-2.71,2.05-2.71h27.77v-12.11h-28.38c-8.21,0-14.87,6.66-14.87,14.87v17.49c0,8.21,6.66,14.87,14.87,14.87h28.38v-29.88h-20.48v12.11h7.11v5.67h-14.4Z" style="fill:#bcbec0; fill-rule:evenodd;"/><path d="M1189.2,1418.57l3.13,4.47M1189.68,1438.54l4.49-3.87M1189.68,1438.54c.94-.84,1.12-1.22,1.12-3.76v-8.7h-3.88M1272.99,1420.65h14.24M1225.71,1438.29c1.35.17,5.31.9,5.9-1.38.78-3.02,1.34-10.08,1.34-15.14h-14.9M1266,1423.05h6.93M1272.94,1428.09l-7.32,2.63M1272.99,1433.69h14.24M1275.1,1427.38h9.94M1277.14,1417.46v5.38M1255.89,1417.46v19.89M1279.91,1430.33v3.91M1282.74,1417.46v5.38M1265.93,1438.53c2.95.5,3.72.09,3.72-2.6v-18.13M1194.44,1420.45h14.16M1201.37,1417.58v8.63M1193.64,1426.21h15.72M1195.15,1423.38h12.86M1196.35,1432.48h10.19M1196.35,1435.38h10.19M1285.04,1424.43h-9.94v5.9h9.94v-5.9ZM1259.89,1422.36h-7.99v7.75h7.99v-7.75ZM1245.11,1424.26v13.23M1246.19,1438.63c2.01.4,2.51-.15,2.51-2.34v-12.04h-7.2v8.62c0,2.75-.95,5.55-1.39,6.46M1248.7,1428.7h-7.2M1248.7,1432.88h-7.2M1245.37,1424.54l2.36-3.66v-.54h-4.73M1202.37,1438.66c2.64.34,4.17.79,4.17-2.48v-6.83h-10.19v10.4M1272.47,1439.11c3.61-1.03,6.51-2.59,7.44-5.41M1279.91,1433.69c.93,2.82,3.82,4.38,7.44,5.41M1250.55,1438.01l10.02-1.31M1213.78,1427.64c2.19-2.07,5.44-7.05,6.22-10.06M1239.52,1424.88c2.03-2.25,3.7-4.81,4.65-7.6M1213.87,1435.55c4.1-2.99,7.76-6.85,9.08-13.93M1217.85,1439.25c8.09-6.1,8.98-10.55,10.3-17.63M1261.21,1439.37c-.61-2.17-1.41-4.64-2.12-6.52M1370.54,1417.56l1.39,2.99M1360.29,1420.55h21.88M1405.01,1419.68h-10.29v7.25h10.29v-7.25ZM1377.67,1423.68h-12.87v3.15h12.87v-3.15ZM1375.15,1432.98h-7.83v3.24h7.83v-3.24ZM1375.23,1438.85c3.83.49,4.55.24,4.55-2.46v-6.46h-17.07v9.97M1434.34,1424.68h-17.82v5.02c0,6.36-2.16,8.5-3.1,9.89M1448.36,1426.41h9.39M1425.97,1424.68l3.74-4.14v-.26h-10.63M1445.6,1438.13h14.83M1460.52,1426.64c-2.36-1.73-5.76-5.5-6.92-8.11h-.96c-1.16,2.61-4.57,6.38-6.92,8.11M1390.09,1430.53l-2.57,8.82M1386.3,1424.3l4.59,3.66M1391.8,1422.35l-4.24-3.43M1394.71,1423.16h10.29M1408.48,1438.43h-17.68M1405.8,1438.43v-7.55h-11.81v7.55M1397.86,1430.88l.02,7.55M1401.79,1438.43l-.02-7.55M1413.05,1425.9c2.6-1.72,6.17-5.18,7.91-8.37M1449.99,1435.7l-2.15-7.02M1451.94,1428.33l1.85,6.44M1458.24,1428.68l-3.27,9.45M1442.16,1434.88c1.97.64,5.18-1.24,1.32-8.24l1.67-6.02v-.87h-4.73v20.3M1424.65,1434l1.3.1c3.94.31,4.01-.32,4.25-4.14l.05-1.2h-9.48v6.96c0,2.12.77,2.86,3.29,2.86h4.1c3.28,0,4.46-.21,4.6-2.83l.13-1.78" style="fill:none; stroke:#bcbec0; stroke-miterlimit:10; stroke-width:1.9px;"/><path d="M1412.2,1341.21c-6.43,10.84-2.97,16.38.4,21.78,3.46,5.55,6.89,11.05-.4,22.08M1398.41,1385.07c7.3-11.03,3.87-16.53.4-22.08-3.37-5.4-6.83-10.94-.4-21.78M1426,1385.07c7.3-11.03,3.87-16.53.4-22.08-3.37-5.4-6.83-10.94-.4-21.78M1386.17,1393h54.28" style="fill:none; stroke:#bcbec0; stroke-miterlimit:10; stroke-width:5.9px;"/><path d="M1235.11,1372.67l-.27-.69-2.57,1.99-1.5-3.48c-.26-.6-.19-1.29.18-1.82l1.08-1.54-.65-.61-3.53,3.47s-.12,4.15-.12,7.08-3.12,2.51-3.12,2.51v-10.49c0-.77.25-1.53.71-2.15l5.77-7.75c1.16-1.56,2.85-2.63,4.75-3.05,8.88-1.93,14.83-5.15,14.83-5.15l5.33,6.28s-6.49,3.97-9.22,9.82c-.68,1.46-1.8,2.67-3.2,3.48-3.21,1.84-8.91,5.32-12.7,8.74,0,0-1.57-1.64.86-3.88,1.37-1.26,3.36-2.76,3.36-2.76M1240,1381.58h-17.79v1.94h17.79v-1.94ZM1234.48,1379.15c.16.37.76.35,1.03-.02,1.09-1.5.16-2.73.16-2.73l-1.8,1.27.61,1.48ZM1236.82,1377.5c.16.37.76.35,1.03-.02,1.09-1.5.16-2.73.16-2.73l-1.8,1.27.61,1.48Z" style="fill:#bcbec0; fill-rule:evenodd;"/><path d="M1238.36,1301.34l55.85,99.92h-111.7l55.85-99.92M1411.42,1301.34l55.85,99.92h-111.7l55.85-99.92M1411.42,1293.05c-2.41,0-4.83,1.21-6.18,3.62l-56.85,101.72c-2.64,4.72.77,10.53,6.18,10.53h113.71c5.41,0,8.82-5.81,6.18-10.53l-56.85-101.72c-1.35-2.42-3.76-3.62-6.18-3.62h0ZM1238.36,1293.05c-2.41,0-4.83,1.21-6.18,3.62l-56.85,101.72c-2.64,4.72.77,10.53,6.18,10.53h113.71c5.41,0,8.82-5.81,6.18-10.53l-56.85-101.72c-1.35-2.42-3.76-3.62-6.18-3.62h0Z" style="fill:#bcbec0;"/><path d="M1238.36,1342.79c-14.28,0-25.89,11.61-25.89,25.89s11.61,25.89,25.89,25.89,25.89-11.61,25.89-25.89-11.61-25.89-25.89-25.89ZM1256.75,1387.07l-36.69-36.69" style="fill:none; stroke:#bcbec0; stroke-miterlimit:10; stroke-width:4.13px;"/></svg>