<?xml version="1.0" encoding="UTF-8"?><svg id="a" xmlns="http://www.w3.org/2000/svg" viewBox="0 0 3000 3300"><path d="M2479.04,3213.35c0,10.61-5.34,13.73-13.34,13.73h-8.91v-27.47h8.91c7.99,0,13.34,2.3,13.34,13.73ZM2473.69,3213.35c0-7.64-3.09-9.34-8.23-9.34h-3.48v18.6h3.48c5.3,0,8.23-2.02,8.23-9.26ZM2482.75,3216.39c0-8.63,3.76-11.08,10.25-11.08s10.29,2.45,10.29,11.08-3.76,11.08-10.29,11.08-10.25-2.45-10.25-11.08ZM2498.19,3216.39c0-5.54-1.31-7.28-5.18-7.28s-5.14,1.74-5.14,7.28,1.31,7.24,5.14,7.24,5.18-1.7,5.18-7.24ZM2535.78,3212.44v14.64h-4.95v-13.26c0-3.01-.67-4.39-3.68-4.39-2.53,0-4.35.71-5.22,3.4v14.25h-4.95v-21.37h4.95v2.69c1.23-2.22,3.8-3.09,6.73-3.09,5.42,0,7.12,2.61,7.12,7.12ZM2539.97,3216.39c0-8.63,3.76-11.08,10.25-11.08s10.29,2.45,10.29,11.08-3.76,11.08-10.29,11.08-10.25-2.45-10.25-11.08ZM2555.41,3216.39c0-5.54-1.31-7.28-5.18-7.28s-5.14,1.74-5.14,7.28,1.31,7.24,5.14,7.24,5.18-1.7,5.18-7.24ZM2570.13,3209.67v10.29c0,2.77.48,3.44,2.65,3.44.75,0,1.35-.04,1.94-.2v3.92c-.83.12-1.74.2-2.65.2-5.11,0-6.89-1.34-6.89-6.97v-10.69h-2.97v-3.96h2.97v-5.07h4.95v5.07h4.71v3.96h-4.71ZM2592.6,3209.67v10.29c0,2.77.48,3.44,2.65,3.44.75,0,1.35-.04,1.94-.2v3.92c-.83.12-1.74.2-2.65.2-5.11,0-6.89-1.34-6.89-6.97v-10.69h-2.97v-3.96h2.97v-5.07h4.95v5.07h4.71v3.96h-4.71ZM2599.25,3216.39c0-8.63,3.76-11.08,10.25-11.08s10.29,2.45,10.29,11.08-3.76,11.08-10.29,11.08-10.25-2.45-10.25-11.08ZM2614.68,3216.39c0-5.54-1.31-7.28-5.18-7.28s-5.14,1.74-5.14,7.28,1.31,7.24,5.14,7.24,5.18-1.7,5.18-7.24ZM2642.58,3205.71v21.37h-4.43l-.44-2.73c-1.23,2.3-3.64,3.13-6.61,3.13-5.38,0-7.16-2.61-7.16-7.08v-14.68h4.95v13.26c0,2.97.67,4.39,3.72,4.39,2.37,0,4.19-.67,5.03-3.4v-14.25h4.95ZM2685.76,3212.44v14.64h-4.95v-13.26c0-3.01-.71-4.39-3.68-4.39-2.49,0-4.43.75-5.22,3.52v14.13h-4.95v-30.08h4.95v11.48c1.19-2.26,3.8-3.17,6.73-3.17,5.42,0,7.12,2.61,7.12,7.12ZM2729.42,3199.61h5.42l4.59,21.33,4.67-18.48h6.02l4.79,18.48,4.39-21.33h5.34l-6.37,27.47h-6.53l-4.67-18.4-5.07,18.4h-6.49l-6.1-27.47ZM2784.27,3212.16v14.92h-4.39l-.52-2.73c-1.03,1.82-3.72,3.13-7.12,3.13-4.87,0-7.32-2.22-7.32-6.45,0-5.03,3.13-6.81,8.67-6.81h5.74v-.95c0-2.57-.87-3.8-4.83-3.8-1.5,0-3.09.16-4.59.44v-4.23c1.62-.24,3.56-.36,5.11-.36,7,0,9.26,2.57,9.26,6.85ZM2779.32,3220.55v-2.81h-5.07c-3.09,0-4.43.59-4.43,3.13,0,1.86,1.03,2.73,3.48,2.73,2.97,0,5.14-1.19,6.02-3.05ZM2800.93,3209.75c-2.73,0-5.38.95-6.17,4.63v12.7h-4.95v-21.37h4.95v3.84c1.31-3.52,3.88-4.24,6.41-4.24l-.24,4.43ZM2823.41,3212.44v14.64h-4.95v-13.26c0-3.01-.67-4.39-3.68-4.39-2.53,0-4.35.71-5.22,3.4v14.25h-4.95v-21.37h4.95v2.69c1.23-2.22,3.8-3.09,6.73-3.09,5.42,0,7.12,2.61,7.12,7.12ZM2828.35,3199.73c0-2.41.59-2.65,2.81-2.65s2.81.24,2.81,2.65-.59,2.69-2.81,2.69-2.81-.32-2.81-2.69ZM2828.67,3205.71h4.95v21.37h-4.95v-21.37ZM2857.84,3212.44v14.64h-4.95v-13.26c0-3.01-.67-4.39-3.68-4.39-2.53,0-4.35.71-5.22,3.4v14.25h-4.95v-21.37h4.95v2.69c1.23-2.22,3.8-3.09,6.73-3.09,5.42,0,7.12,2.61,7.12,7.12ZM2882.29,3205.71v19.75c0,5.9-3.05,9.54-11.36,9.54-1.9,0-4.19-.24-5.78-.51v-4c1.62.4,3.68.59,5.5.59,4.67,0,6.73-1.54,6.73-5.86v-1.5c-.87,2.1-2.69,3.36-6.61,3.36-7.01,0-8.75-4.35-8.75-10.88,0-5.9,1.74-10.88,8.75-10.88,4.04,0,5.78,1.39,6.61,3.52v-3.13h4.91ZM2877.58,3216.2c0-4.35-.95-7.08-5.54-7.08s-4.87,3.4-4.87,7.08c0,3.96.59,7.16,4.87,7.16,4.59,0,5.54-2.65,5.54-7.16ZM2915.13,3212.44v14.64h-4.95v-13.26c0-3.01-.71-4.39-3.68-4.39-2.49,0-4.43.75-5.22,3.52v14.13h-4.95v-30.08h4.95v11.48c1.19-2.26,3.8-3.17,6.73-3.17,5.42,0,7.12,2.61,7.12,7.12ZM2919.33,3216.39c0-8.63,3.76-11.08,10.25-11.08s10.29,2.45,10.29,11.08-3.76,11.08-10.29,11.08-10.25-2.45-10.25-11.08ZM2934.76,3216.39c0-5.54-1.31-7.28-5.18-7.28s-5.14,1.74-5.14,7.28,1.31,7.24,5.14,7.24,5.18-1.7,5.18-7.24ZM2949.48,3209.67v10.29c0,2.77.48,3.44,2.65,3.44.75,0,1.35-.04,1.94-.2v3.92c-.83.12-1.74.2-2.65.2-5.11,0-6.89-1.34-6.89-6.97v-10.69h-2.97v-3.96h2.97v-5.07h4.95v5.07h4.71v3.96h-4.71ZM2775.86,3263.68v-4.16c2.74.63,10.41,2.45,10.41-1.58,0-2.02-.71-2.45-4.35-3.33-4.63-1.11-5.78-2.49-5.78-6.09,0-6.62,8.76-6.99,13.93-5.46l-.24,3.88c-1.85-.59-9.06-2.12-9.06,1.54,0,1.66.67,1.94,4,2.77,4.75,1.15,6.17,2.53,6.17,6.53,0,7.67-9.73,7.09-15.08,5.9ZM2813.81,3242.75v21.37h-4.43l-.44-2.73c-1.23,2.3-3.64,3.13-6.61,3.13-5.38,0-7.16-2.61-7.16-7.08v-14.68h4.95v13.26c0,2.97.67,4.39,3.72,4.39,2.37,0,4.19-.67,5.03-3.4v-14.25h4.95ZM2830.39,3246.78c-2.73,0-5.38.95-6.17,4.63v12.7h-4.95v-21.37h4.95v3.84c1.31-3.52,3.88-4.24,6.41-4.24l-.24,4.43ZM2839.89,3242.75h4.47v3.92h-4.47v17.45h-4.95v-17.45h-3.4v-3.92h3.4c0-7.77,3.13-8.87,7.99-8.87.83,0,1.66.08,2.45.2v3.64c-.56-.08-1.27-.16-1.94-.16-2.93,0-3.56,1.07-3.56,5.18ZM2865.37,3249.2v14.92h-4.39l-.52-2.73c-1.03,1.82-3.72,3.13-7.12,3.13-4.87,0-7.32-2.22-7.32-6.45,0-5.03,3.13-6.81,8.67-6.81h5.74v-.95c0-2.57-.87-3.8-4.83-3.8-1.5,0-3.09.16-4.59.44v-4.23c1.62-.24,3.56-.36,5.11-.36,7,0,9.26,2.57,9.26,6.85ZM2860.42,3257.59v-2.81h-5.07c-3.09,0-4.43.59-4.43,3.13,0,1.86,1.03,2.73,3.48,2.73,2.97,0,5.14-1.19,6.02-3.05ZM2869.76,3253.43c0-11.25,8.33-12.24,15.87-10.37v4.23c-5.08-1.57-10.76-1.84-10.76,6.17s5.81,7.62,10.92,6.05v4.2c-7.58,2-16.03,1.06-16.03-10.29ZM2646.89,3216.59c0-11.25,8.33-12.24,15.87-10.37v4.23c-5.08-1.57-10.76-1.84-10.76,6.17s5.81,7.62,10.92,6.05v4.2c-7.58,2-16.03,1.06-16.03-10.29ZM2907.67,3254.38l-14.01.91c.12,3.56,1.86,5.22,6.13,5.22,2.57,0,5.5-.71,6.97-1.46v4.04c-1.27.71-4.35,1.42-7.84,1.42-6.49,0-10.25-2.45-10.25-11.08s3.76-11.08,10.25-11.08c7.4,0,8.94,4.2,8.94,9.22,0,1.03-.08,2.1-.2,2.81ZM2903.28,3251.06c0-2.65-.56-4.91-4.35-4.91-4,0-5.11,1.9-5.26,5.62l9.62-.71ZM1121.53,3138.34l61.07-61.2,61.07,61.2-61.07,61.2-61.07-61.2ZM1194.65,3150.89h0s-12.06,12.12-12.06,12.12v27.84l52.42-52.51-52.42-52.52.03,24.04-12.17,12.35v28.58l24.2-24.35v24.45ZM61.14,3040.51h12.61c11.59,0,15.17,3.86,15.17,13.12,0,9.94-4.37,13.52-15.17,13.52h-5.17v12.78h-7.44v-39.43ZM72.84,3061.13c6.36,0,8.46-1.65,8.46-7.39,0-5.4-2.16-7.21-8.46-7.21h-4.26v14.6h4.26ZM118.91,3073.4v6.53h-23.63v-39.43h7.44v32.89h16.19ZM147.31,3069.48h-16.47l-3.75,10.45h-7.67l14.77-39.43h10l14.66,39.43h-7.9l-3.64-10.45ZM145.1,3063.23l-5.62-16.08h-.68l-5.74,16.08h12.04ZM190.59,3038.8h5.45l-15.34,42.83h-5.45l15.34-42.83ZM216.84,3040.51h12.61c11.59,0,15.17,3.86,15.17,13.12,0,9.94-4.37,13.52-15.17,13.52h-5.17v12.78h-7.44v-39.43ZM228.54,3061.13c6.36,0,8.46-1.65,8.46-7.39,0-5.4-2.16-7.21-8.46-7.21h-4.26v14.6h4.26ZM275.35,3073.4v6.53h-24.37v-39.43h23.35v6.48h-15.91v9.54h14.77v6.19h-14.77v10.68h16.93ZM306.87,3047.04h-10.74v32.89h-7.44v-32.89h-10.68v-6.53h28.86v6.53ZM310.28,3060.22c0-20.09,16.03-22.7,29.94-18.86v6.59c-9.98-3.02-21.93-3.5-21.93,12.27,0,13.99,6.99,14.98,16.59,13.52v-9.77h-7.1v-6.25h14.09v21.08c-14.02,3.5-31.59,3.98-31.59-18.58ZM377.37,3038.8h5.45l-15.34,42.83h-5.45l15.34-42.83ZM403.61,3040.51h12.61c11.59,0,15.17,3.86,15.17,13.12,0,9.94-4.37,13.52-15.17,13.52h-5.17v12.78h-7.44v-39.43ZM415.31,3061.13c6.36,0,8.46-1.65,8.46-7.39,0-5.4-2.16-7.21-8.46-7.21h-4.26v14.6h4.26ZM461.33,3069.48h-16.48l-3.75,10.45h-7.67l14.77-39.43h10l14.66,39.43h-7.9l-3.64-10.45ZM459.11,3063.23l-5.62-16.08h-.68l-5.74,16.08h12.04ZM475.86,3059.6h17.21v5.79h-17.21v-5.79ZM541.02,3046.98v10.4h14.77v6.48h-14.77v16.08h-7.44v-39.43h23.35v6.48h-15.91ZM56.75,3158c0-17.19,13.72-19.43,25.62-16.14v5.64c-8.54-2.59-18.77-3.06-18.77,10.5,0,11.98,5.98,12.82,14.2,11.57v-8.36h-6.08v-5.35h12.06v18.04c-12,2.99-27.03,3.4-27.03-15.9ZM110.48,3169.28v5.59h-20.23v-33.74h6.37v28.15h13.86ZM114.46,3163.79v-22.66h6.37v21.78c0,4.86,1.65,6.95,7.29,6.95s7.34-2.24,7.34-6.95v-21.78h6.32v22.66c0,8.22-4.81,11.57-13.71,11.57s-13.61-2.92-13.61-11.57ZM169.5,3169.28v5.59h-20.86v-33.74h19.98v5.54h-13.61v8.17h12.64v5.3h-12.64v9.14h14.49ZM185.1,3174.14v-5.69c3.46,1.04,16.24,3.81,16.24-3.16,0-3.11-1.12-4.08-6.66-5.45-7.1-1.7-9.34-3.6-9.34-9.58,0-10.87,13.15-10.79,20.57-8.46v5.4c-3.29-.93-14.34-3.53-14.34,2.92,0,2.53.78,3.36,6.13,4.67,7.88,1.9,9.97,4.18,9.97,10.6,0,11.36-14.49,10.89-22.56,8.75ZM234.94,3146.72h-9.19v28.15h-6.37v-28.15h-9.14v-5.59h24.7v5.59ZM238.78,3141.13h6.37v33.74h-6.37v-33.74ZM251.05,3158c0-16.62,12.52-19.44,24-16.29v5.59c-8.18-2.57-17.19-2-17.19,10.65,0,13.53,9.08,13.02,17.58,10.5v5.49c-11.43,3.42-24.38,1.96-24.38-15.95ZM499.39,3060.22c0-19.35,14.57-22.63,27.93-18.96v6.51c-9.52-2.99-20.01-2.33-20.01,12.39,0,15.75,10.57,15.15,20.46,12.22v6.4c-13.31,3.98-28.39,2.28-28.39-18.56ZM321.25,3158c0-16.62,12.52-19.44,24-16.29v5.59c-8.18-2.57-17.19-2-17.19,10.65,0,13.53,9.08,13.02,17.58,10.5v5.49c-11.43,3.42-24.38,1.96-24.38-15.95ZM307.28,3174.87h-7.83l-10.65-15.12h-1.99v15.12h-6.37v-33.74h6.37v13.32h1.99l10.45-13.32h7.58l-12.84,15.66,13.27,18.09ZM370.73,3165.93h-14.1l-3.21,8.95h-6.56l12.64-33.74h8.56l12.54,33.74h-6.76l-3.11-8.95ZM368.84,3160.58l-4.81-13.76h-.58l-4.91,13.76h10.31ZM383.86,3141.13h9.77l12.25,25.43h.29v-25.43h6.22v33.74h-8.65l-13.32-27.03h-.29v27.03h-6.27v-33.74ZM458.1,3141.13v33.74h-6.37v-15.41h-14.44v15.41h-6.37v-33.74h6.37v13.03h14.44v-13.03h6.37ZM486.01,3169.28v5.59h-20.86v-33.74h19.98v5.54h-13.61v8.17h12.64v5.3h-12.64v9.14h14.49ZM511.63,3169.28v5.59h-20.23v-33.74h6.37v28.15h13.86ZM515.76,3141.13h10.79c9.92,0,12.98,3.31,12.98,11.23,0,8.51-3.74,11.57-12.98,11.57h-4.42v10.94h-6.37v-33.74ZM525.78,3158.78c5.44,0,7.24-1.41,7.24-6.32,0-4.62-1.85-6.17-7.24-6.17h-3.65v12.5h3.65ZM603.86,3109.85H55.88v3.97h547.98v-3.97ZM1307.82,3130.47h-37.02v-3.94c0-2.85,1.27-3.85,2.9-3.85h34.12v-17.18h-34.98c-11.66,0-21.11,9.45-21.11,21.11v45.93h19.07v-24.97h37.02v-17.1ZM1621.82,3130.47h-37.02v-3.94c0-2.85,1.27-3.85,2.9-3.85h34.12v-17.18h-34.98c-11.66,0-21.11,9.45-21.11,21.11v45.93h19.07v-24.97h37.02v-17.1ZM1335.04,3155.36c-1.63,0-2.9-1-2.9-3.85v-46h-19.07v45.93c0,11.66,9.45,21.11,21.11,21.11h26.77v-17.18h-25.91ZM1561.49,3105.51h-18.89v25.05h-23.52v-25.05h-18.98v67.03h18.98v-25.05h23.52v25.05h18.89v-67.03ZM1664.94,3172.54h-19.18c-11.66,0-21.11-9.45-21.11-21.11v-24.82c0-11.66,9.45-21.11,21.11-21.11h19.18c11.66,0,21.11,9.45,21.11,21.11v24.82c0,11.66-9.45,21.11-21.11,21.11ZM1646.62,3155.36c-1.63,0-2.9-.99-2.9-3.85v-24.97c0-2.85,1.27-3.85,2.9-3.85h17.54c1.63,0,2.9.99,2.9,3.85v24.97c0,2.85-1.27,3.85-2.9,3.85h-17.54ZM1475.7,3155.36h-36.43v17.18l37.39-.03c11.6,0,21.01-9.42,21.01-21.02h0c0-11.61-9.41-21.02-21.02-21.02h-18.39c-1.65,0-2.94-1-2.94-3.89s1.29-3.89,2.94-3.89h34.2v-17.18h-35.14c-11.62,0-21.03,9.42-21.03,21.03h0c0,11.62,9.42,21.03,21.03,21.03h18.39c1.65,0,2.94,1.01,2.94,3.89s-1.29,3.89-2.94,3.89ZM1400.41,3104.14h0c-9.68,0-18.17,6.5-20.69,15.85l-14.19,52.56h19.58l2.65-9.84h25.31l2.65,9.84h19.58l-14.2-52.56c-2.53-9.35-11.01-15.84-20.69-15.84ZM1392.37,3145.52l5.98-22.14c.34-1.37,1.03-2.05,2.06-2.05.97,0,1.65.69,2.05,2.05l5.99,22.14h-16.07ZM1844.44,3155.36c-1.63,0-2.9-.99-2.9-3.85v-3.94h36.93v-17.1h-36.93v-3.94c0-2.85,1.27-3.85,2.9-3.85h34.03v-17.18h-34.89c-11.66,0-21.11,9.45-21.11,21.11v24.82c0,11.66,9.45,21.11,21.11,21.11h34.89v-17.18h-34.03ZM1715.64,3134.58v17.1h8.81c1.65,0,3.02,1.28,4.1,3.85l7.27,17.02h19.07l-7.27-17.02c-1.25-2.96-2.68-5.73-4.28-8.29,5.7-4.22,8.55-9.75,8.55-16.59v-4.03c0-11.66-9.45-21.1-21.11-21.1h-40.28v67.03h18.98v-49.85h20.42c1.69,0,3.01.99,3.01,3.85v4.2c0,2.85-1.32,3.85-3.01,3.85h-14.27ZM1777.86,3155.36c-1.63,0-2.9-.99-2.9-3.85v-24.97c0-2.85,1.27-3.85,2.9-3.85h39.41v-17.18h-40.28c-11.66,0-21.11,9.45-21.11,21.11v24.82c0,11.66,9.45,21.11,21.11,21.11h40.28v-42.41h-29.07v17.18h10.09v8.04h-20.43Z" style="fill:#bcbec0; fill-rule:evenodd;"/><path d="M58.35,3193.59h38.65M102.58,3191.48h42.11M107.1,3226.37h33.16M116.99,3217.59h13.31M116.99,3209.18h13.31M77.72,3187.42v21.76M140.27,3230.82v-30.47h-33.16v30.47M198.68,3226.37h34.8M233.48,3230.82v-39.57h-34.8v39.57M116.99,3200.35v24.84M160.6,3212.77h30.19M165.74,3203.47h19.81M203.19,3201.19h25.79M253.14,3197.31h29.52M305.15,3195.33h23.99M258.09,3220.97h18.89M346.92,3227.46h29.61M360.14,3202.83h14.38M379.23,3198.17h15M394.22,3193.52h27.88M394.22,3219.06h27.88M398.36,3206.7h19.46M216.02,3194.67v15.02M247.91,3199.11v31.67M267.36,3187.27v43.51M360.14,3187.27v39.92M387.12,3187.27v43.95M402.36,3187.27v10.53M407.77,3212.47v7.66M413.32,3187.27v10.53M443.3,3191.71v21.47M455.07,3211.26c7.14,1.02,8.51.18,8.51-5.39v-17.64M493.08,3188.23v25.39M525.27,3191.64v39.48M586.16,3204.31v23.05M455.54,3190.64v16.87M130.3,3200.35v24.84M291.34,3203.5h9.37M294.48,3228.67c4.59.68,6.23.1,6.23-4.87v-31.8h-9.37v22.4h9.37M56.48,3209.18h42.4M60.76,3201.39h33.88M447.15,3213.9v13.9M425.47,3227.81h42.83M430.18,3219.17h33.88M426.91,3191.71h23.17M472.58,3191.2h41.15M517.57,3202.63h15.24M223.84,3209.7h-15.53v9.7h15.53v-9.7ZM417.81,3200.92h-19.46v11.54h19.46v-11.54ZM478.12,3206.19h29.92M508.04,3198.76h-29.92v14.87h29.92v-14.87ZM534.74,3207.51h21.41M539.64,3192.73h14.95M567.41,3204.28h36.11M586.16,3215.41h16.06M544.88,3217.08l3.57,6.12M555.39,3218.23l4.9,10.38M535.95,3218.49l-4.14,10.55M553.14,3193.04l-6.38,7.65M534.74,3214.15h21.41v-13.46h-20.35M337.37,3189.14l7.47,9.21M338.62,3228.53l10.51-9.3M329.17,3208.74l-8.25-9.92M313.2,3198.92l-8.09,10.56M182.58,3217.16l8.29,10.83M156.73,3212.7l-5.82,17.47M157.99,3206.96l-9.17-6.76M160.72,3196.74l-9.17-6.76M315.37,3187.39l3.03,7.93M584.82,3187.39l2.33,6.38M603.05,3200.68v-6.85h-35.19v6.85M564.73,3230.19c4.18-4.52,7.8-8.76,8.54-19.97M191.39,3203.88c-4.97-3.08-12.15-9.77-14.61-14.41h-2.02c-2.46,4.64-9.64,11.33-14.61,14.41M517.86,3193.3c5-.66,11.45-1.82,14.92-2.73M572.42,3217.78c6.16,11.42,14.26,9.97,34.55,9.97M533.28,3199.74c4.2-3.91,7.04-7.99,9.32-12.4M56.62,3223.09c11.8-4.82,16.05-8.99,19.14-13.66M94.64,3213.59l-9.51,5.89M240.73,3211.27c4.42-6.44,8.89-15.22,11.04-23.43M251.83,3222.11c7.1-8.49,11.19-16.83,12.19-24.58M270.63,3197.53c1,7.75,5.1,16.09,12.19,24.58M310.76,3208.39c2.86,9,8.38,16.67,18.96,21.04M304.56,3229.44c10.58-4.37,16.1-12.04,18.96-21.04M338.62,3228.53c1.85-1.64,2.19-2.39,2.19-7.36v-16.22h-8.02M66.64,3229.71l14.66-5.1M66.64,3229.71c2.22-.77,3.37-1.22,3.13-6.65v-7M79.22,3209.18c4.25,11.58,10.34,15.31,19.68,18.52M120.29,3200.35c1.77-2.81,3.34-7,3.34-8.87M167.53,3228.48c5.17.67,8.16,1.55,8.16-4.85v-20.04M158.67,3228.62c3.34-3.5,6.47-7.63,8.81-11.51M378.73,3217.99c3.43-4.59,8.02-15.98,8.5-19.54M387.12,3203.08l6.21,7.67M516.77,3221.97c3.43-4.59,8.02-15.98,8.5-19.54M525.15,3207.07l6.77,7.15M427.49,3214.51c4.25-3.16,6.21-7.99,6.21-11.91v-10.89M425.66,3202.59h25.38M393.21,3229.66c7.07-2.01,12.74-5.07,14.56-10.59M407.77,3219.06c1.82,5.52,7.49,8.58,14.56,10.59M472.26,3230.16c10.54-2.82,20.82-4.91,20.82-16.53M479.51,3217.33c8.93,7.44,16.17,10.76,34.95,11.83M287.45,3231.01c2.77-5.18,3.89-10.04,3.89-16.6M540.35,3218.23v6.2c0,3.08.54,4.25,6.25,4.25s5.96-.54,5.96-6.96" style="fill:none; stroke:#bcbec0; stroke-miterlimit:10; stroke-width:3.2px;"/><path d="M2494.28,3158.6l4.87,6.96M2495.03,3189.72l6.99-6.03M2495.03,3189.72c1.47-1.3,1.75-1.9,1.75-5.86v-13.56h-6.04M2624.82,3161.84h22.19M2551.16,3189.33c2.1.26,8.28,1.39,9.19-2.15,1.22-4.71,2.08-15.7,2.08-23.59h-23.21M2613.94,3165.59h10.8M2624.74,3173.43l-11.4,4.09M2624.82,3182.16h22.19M2628.11,3172.32h15.48M2631.29,3156.86v8.38M2598.18,3156.86v30.99M2635.6,3176.91v6.1M2640.01,3156.86v8.38M2613.82,3189.7c4.6.78,5.8.14,5.8-4.06v-28.24M2502.44,3161.53h22.06M2513.24,3157.05v13.44M2501.2,3170.5h24.49M2503.54,3166.09h20.04M2505.42,3180.28h15.87M2505.42,3184.79h15.87M2643.59,3167.73h-15.48v9.19h15.48v-9.19ZM2604.41,3164.51h-12.46v12.07h12.46v-12.07ZM2581.38,3167.47v20.61M2583.06,3189.86c3.13.62,3.92-.24,3.92-3.64v-18.75h-11.22v13.43c0,4.29-1.48,8.64-2.16,10.07M2586.98,3174.38h-11.22M2586.98,3180.9h-11.22M2581.79,3167.9l3.67-5.71v-.84h-7.36M2514.8,3189.9c4.11.53,6.49,1.23,6.49-3.86v-10.64h-15.87v16.2M2624.02,3190.59c5.63-1.6,10.14-4.04,11.59-8.43M2635.6,3182.16c1.45,4.39,5.96,6.83,11.59,8.43M2589.86,3188.89l15.6-2.04M2532.57,3172.72c3.41-3.23,8.47-10.98,9.69-15.67M2572.67,3168.43c3.16-3.51,5.77-7.49,7.25-11.84M2532.72,3185.06c6.4-4.66,12.09-10.67,14.14-21.7M2538.91,3190.82c12.6-9.51,13.99-16.43,16.04-27.46M2606.47,3191c-.95-3.38-2.2-7.23-3.3-10.16M2777.88,3157.03l2.16,4.66M2761.92,3161.69h34.08M2831.59,3160.32h-16.04v11.3h16.04v-11.3ZM2788.99,3166.56h-20.05v4.91h20.05v-4.91ZM2785.06,3181.05h-12.2v5.05h12.2v-5.05ZM2785.19,3190.19c5.97.76,7.09.38,7.09-3.82v-10.07h-26.6v15.54M2877.28,3168.12h-27.76v7.82c0,9.91-3.37,13.25-4.83,15.4M2899.13,3170.82h14.62M2864.24,3168.12l5.83-6.44v-.4h-16.56M2894.83,3189.07h23.1M2918.07,3171.17c-3.67-2.7-8.97-8.56-10.79-12.63h-1.49c-1.81,4.07-7.12,9.93-10.79,12.63M2808.35,3177.24l-4,13.74M2802.43,3167.52l7.15,5.7M2811.01,3164.48l-6.61-5.34M2815.55,3165.75h16.04M2837,3189.54h-27.54M2832.82,3189.54v-11.77h-18.4v11.77M2820.45,3177.77l.02,11.77M2826.58,3189.54l-.02-11.77M2844.11,3170.03c4.06-2.68,9.62-8.07,12.32-13.04M2901.68,3185.28l-3.35-10.94M2904.71,3173.81l2.88,10.03M2914.53,3174.34l-5.1,14.72M2889.47,3184.01c3.08,1,8.07-1.94,2.06-12.84l2.6-9.37v-1.36h-7.36v31.63M2862.19,3182.64l2.03.16c6.14.48,6.24-.5,6.62-6.44l.08-1.87h-14.77v10.84c0,3.31,1.19,4.45,5.12,4.45h6.38c5.12,0,6.95-.32,7.17-4.42l.2-2.77" style="fill:none; stroke:#bcbec0; stroke-miterlimit:10; stroke-width:3px;"/><path d="M2842.79,3038.07c-10.02,16.88-4.63,25.51.63,33.93,5.4,8.65,10.74,17.21-.63,34.4M2821.3,3106.41c11.37-17.19,6.03-25.75.63-34.4-5.26-8.42-10.65-17.05-.63-33.93M2864.29,3106.41c11.37-17.19,6.03-25.75.63-34.4-5.26-8.42-10.65-17.05-.63-33.93M2802.23,3118.77h84.56" style="fill:none; stroke:#bcbec0; stroke-miterlimit:10; stroke-width:9.19px;"/><path d="M2565.8,3087.09l-.42-1.07-4,3.1-2.34-5.42c-.4-.93-.29-2,.29-2.83l1.68-2.4-1.01-.95-5.51,5.4s-.19,6.46-.19,11.02-4.86,3.91-4.86,3.91v-16.35c0-1.21.39-2.38,1.11-3.34l8.99-12.07c1.81-2.43,4.44-4.11,7.4-4.75,13.83-3.01,23.11-8.02,23.11-8.02l8.3,9.78s-10.12,6.18-14.36,15.3c-1.06,2.28-2.81,4.16-4.98,5.41-5,2.87-13.88,8.28-19.79,13.61,0,0-2.44-2.56,1.34-6.05,2.13-1.97,5.23-4.29,5.23-4.29M2573.43,3100.97h-27.72v3.02h27.72v-3.02ZM2564.82,3097.18c.24.57,1.18.55,1.6-.03,1.69-2.33.24-4.26.24-4.26l-2.8,1.98.96,2.31ZM2568.46,3094.61c.24.57,1.18.55,1.6-.03,1.69-2.33.24-4.26.24-4.26l-2.8,1.98.96,2.31Z" style="fill:#bcbec0; fill-rule:evenodd;"/><path d="M2570.87,2975.96l87.01,155.68h-174.02l87.01-155.68M2841.58,2975.96l87.01,155.68h-174.02l87.01-155.68M2841.58,2963.05c-3.76,0-7.52,1.88-9.63,5.65l-88.58,158.48c-4.11,7.35,1.21,16.41,9.63,16.41h177.16c8.42,0,13.73-9.06,9.63-16.41l-88.58-158.48c-2.1-3.77-5.87-5.65-9.63-5.65h0ZM2570.87,2963.05c-3.76,0-7.52,1.88-9.63,5.65l-88.58,158.48c-4.11,7.35,1.21,16.41,9.63,16.41h177.16c8.42,0,13.73-9.06,9.63-16.41l-88.58-158.48c-2.1-3.77-5.87-5.65-9.63-5.65h0Z" style="fill:#bcbec0;"/><path d="M2570.87,3040.53c-22.24,0-40.34,18.1-40.34,40.34s18.1,40.34,40.34,40.34,40.34-18.1,40.34-40.34-18.1-40.34-40.34-40.34ZM2599.53,3109.52l-57.16-57.16" style="fill:none; stroke:#bcbec0; stroke-miterlimit:10; stroke-width:6.43px;"/></svg>