<?xml version="1.0" encoding="UTF-8"?><svg id="a" xmlns="http://www.w3.org/2000/svg" viewBox="0 0 1900 1950"><path d="M1494.43,1891.1c0,8.61-4.34,11.15-10.83,11.15h-7.23v-22.3h7.23c6.49,0,10.83,1.86,10.83,11.15ZM1490.1,1891.1c0-6.2-2.51-7.58-6.68-7.58h-2.83v15.1h2.83c4.31,0,6.68-1.64,6.68-7.52ZM1497.45,1893.57c0-7.01,3.05-9,8.32-9s8.35,1.99,8.35,9-3.05,9-8.35,9-8.32-1.99-8.32-9ZM1509.98,1893.57c0-4.5-1.06-5.91-4.21-5.91s-4.18,1.41-4.18,5.91,1.06,5.88,4.18,5.88,4.21-1.38,4.21-5.88ZM1540.51,1890.36v11.89h-4.02v-10.76c0-2.44-.55-3.57-2.99-3.57-2.06,0-3.53.58-4.24,2.76v11.57h-4.02v-17.35h4.02v2.19c1-1.8,3.09-2.51,5.46-2.51,4.4,0,5.78,2.12,5.78,5.78ZM1543.91,1893.57c0-7.01,3.05-9,8.32-9s8.35,1.99,8.35,9-3.05,9-8.35,9-8.32-1.99-8.32-9ZM1556.44,1893.57c0-4.5-1.06-5.91-4.21-5.91s-4.18,1.41-4.18,5.91,1.06,5.88,4.18,5.88,4.21-1.38,4.21-5.88ZM1568.39,1888.11v8.35c0,2.25.39,2.8,2.15,2.8.61,0,1.09-.03,1.57-.16v3.18c-.67.1-1.41.16-2.15.16-4.15,0-5.59-1.09-5.59-5.66v-8.68h-2.41v-3.21h2.41v-4.11h4.02v4.11h3.82v3.21h-3.82ZM1586.64,1888.11v8.35c0,2.25.39,2.8,2.15,2.8.61,0,1.09-.03,1.57-.16v3.18c-.67.1-1.41.16-2.15.16-4.15,0-5.59-1.09-5.59-5.66v-8.68h-2.41v-3.21h2.41v-4.11h4.02v4.11h3.82v3.21h-3.82ZM1592.04,1893.57c0-7.01,3.05-9,8.32-9s8.35,1.99,8.35,9-3.05,9-8.35,9-8.32-1.99-8.32-9ZM1604.57,1893.57c0-4.5-1.06-5.91-4.21-5.91s-4.18,1.41-4.18,5.91,1.06,5.88,4.18,5.88,4.21-1.38,4.21-5.88ZM1627.23,1884.9v17.35h-3.6l-.35-2.22c-1,1.86-2.96,2.54-5.37,2.54-4.37,0-5.82-2.12-5.82-5.75v-11.92h4.02v10.76c0,2.41.55,3.57,3.02,3.57,1.93,0,3.41-.55,4.08-2.76v-11.57h4.02ZM1662.28,1890.36v11.89h-4.02v-10.76c0-2.44-.58-3.57-2.99-3.57-2.02,0-3.6.61-4.24,2.86v11.47h-4.02v-24.42h4.02v9.32c.96-1.83,3.09-2.57,5.46-2.57,4.4,0,5.78,2.12,5.78,5.78ZM1696.86,1879.95h4.4l3.73,17.32,3.79-15.01h4.89l3.89,15.01,3.57-17.32h4.34l-5.17,22.3h-5.3l-3.79-14.94-4.11,14.94h-5.27l-4.95-22.3ZM1741.39,1890.14v12.11h-3.57l-.42-2.22c-.83,1.48-3.02,2.54-5.78,2.54-3.95,0-5.94-1.8-5.94-5.24,0-4.08,2.54-5.53,7.04-5.53h4.66v-.77c0-2.09-.71-3.09-3.92-3.09-1.22,0-2.51.13-3.73.35v-3.44c1.32-.19,2.89-.29,4.15-.29,5.69,0,7.52,2.09,7.52,5.56ZM1737.37,1896.95v-2.28h-4.11c-2.51,0-3.6.48-3.6,2.54,0,1.51.83,2.22,2.83,2.22,2.41,0,4.18-.96,4.88-2.48ZM1754.92,1888.17c-2.22,0-4.37.77-5.01,3.76v10.32h-4.02v-17.35h4.02v3.12c1.06-2.86,3.15-3.44,5.21-3.44l-.19,3.6ZM1773.17,1890.36v11.89h-4.02v-10.76c0-2.44-.55-3.57-2.99-3.57-2.06,0-3.53.58-4.24,2.76v11.57h-4.02v-17.35h4.02v2.19c1-1.8,3.09-2.51,5.46-2.51,4.4,0,5.78,2.12,5.78,5.78ZM1777.18,1880.04c0-1.96.48-2.15,2.28-2.15s2.28.19,2.28,2.15-.48,2.19-2.28,2.19-2.28-.26-2.28-2.19ZM1777.44,1884.9h4.02v17.35h-4.02v-17.35ZM1801.12,1890.36v11.89h-4.02v-10.76c0-2.44-.55-3.57-2.99-3.57-2.06,0-3.53.58-4.24,2.76v11.57h-4.02v-17.35h4.02v2.19c1-1.8,3.09-2.51,5.46-2.51,4.4,0,5.78,2.12,5.78,5.78ZM1820.98,1884.9v16.03c0,4.79-2.47,7.74-9.22,7.74-1.54,0-3.41-.19-4.69-.42v-3.25c1.32.32,2.99.48,4.47.48,3.79,0,5.46-1.25,5.46-4.76v-1.22c-.71,1.7-2.19,2.73-5.37,2.73-5.69,0-7.1-3.54-7.1-8.84,0-4.79,1.41-8.84,7.1-8.84,3.28,0,4.69,1.13,5.37,2.86v-2.54h3.98ZM1817.15,1893.41c0-3.54-.77-5.75-4.5-5.75s-3.95,2.76-3.95,5.75c0,3.21.48,5.82,3.95,5.82,3.73,0,4.5-2.15,4.5-5.82ZM1847.64,1890.36v11.89h-4.02v-10.76c0-2.44-.58-3.57-2.99-3.57-2.02,0-3.6.61-4.24,2.86v11.47h-4.02v-24.42h4.02v9.32c.96-1.83,3.09-2.57,5.46-2.57,4.4,0,5.78,2.12,5.78,5.78ZM1851.05,1893.57c0-7.01,3.05-9,8.32-9s8.35,1.99,8.35,9-3.05,9-8.35,9-8.32-1.99-8.32-9ZM1863.58,1893.57c0-4.5-1.06-5.91-4.21-5.91s-4.18,1.41-4.18,5.91,1.06,5.88,4.18,5.88,4.21-1.38,4.21-5.88ZM1875.53,1888.11v8.35c0,2.25.39,2.8,2.15,2.8.61,0,1.09-.03,1.57-.16v3.18c-.67.1-1.41.16-2.15.16-4.15,0-5.59-1.09-5.59-5.66v-8.68h-2.41v-3.21h2.41v-4.11h4.02v4.11h3.82v3.21h-3.82ZM1734.56,1931.97v-3.37c2.22.51,8.45,1.99,8.45-1.28,0-1.64-.58-1.99-3.54-2.7-3.76-.9-4.69-2.02-4.69-4.95,0-5.38,7.11-5.68,11.31-4.43l-.19,3.15c-1.51-.48-7.36-1.72-7.36,1.25,0,1.35.55,1.57,3.24,2.25,3.86.93,5.01,2.06,5.01,5.3,0,6.23-7.9,5.76-12.24,4.79ZM1765.38,1914.97v17.35h-3.6l-.35-2.22c-1,1.86-2.96,2.54-5.37,2.54-4.37,0-5.82-2.12-5.82-5.75v-11.92h4.02v10.76c0,2.41.55,3.57,3.02,3.57,1.93,0,3.41-.55,4.08-2.76v-11.57h4.02ZM1778.84,1918.25c-2.22,0-4.37.77-5.01,3.76v10.32h-4.02v-17.35h4.02v3.12c1.06-2.86,3.15-3.44,5.21-3.44l-.19,3.6ZM1786.55,1914.97h3.63v3.18h-3.63v14.17h-4.02v-14.17h-2.76v-3.18h2.76c0-6.31,2.54-7.2,6.49-7.2.67,0,1.35.06,1.99.16v2.96c-.45-.06-1.03-.13-1.57-.13-2.38,0-2.89.87-2.89,4.21ZM1807.24,1920.21v12.11h-3.57l-.42-2.22c-.83,1.48-3.02,2.54-5.78,2.54-3.95,0-5.94-1.8-5.94-5.24,0-4.08,2.54-5.53,7.04-5.53h4.66v-.77c0-2.09-.71-3.09-3.92-3.09-1.22,0-2.51.13-3.73.35v-3.44c1.32-.19,2.89-.29,4.15-.29,5.69,0,7.52,2.09,7.52,5.56ZM1803.22,1927.02v-2.28h-4.11c-2.51,0-3.6.48-3.6,2.54,0,1.51.83,2.22,2.83,2.22,2.41,0,4.18-.96,4.88-2.48ZM1810.8,1923.65c0-9.13,6.76-9.94,12.89-8.42v3.44c-4.13-1.27-8.74-1.5-8.74,5.01s4.72,6.19,8.87,4.92v3.41c-6.15,1.62-13.01.86-13.01-8.35ZM1630.72,1893.73c0-9.13,6.76-9.94,12.89-8.42v3.44c-4.13-1.27-8.74-1.5-8.74,5.01s4.72,6.19,8.87,4.92v3.41c-6.15,1.62-13.01.86-13.01-8.35ZM1841.59,1924.42l-11.37.74c.1,2.89,1.51,4.24,4.98,4.24,2.09,0,4.47-.58,5.66-1.19v3.28c-1.03.58-3.54,1.16-6.36,1.16-5.27,0-8.32-1.99-8.32-9s3.05-9,8.32-9c6.01,0,7.26,3.41,7.26,7.49,0,.83-.06,1.7-.16,2.28ZM1838.02,1921.72c0-2.15-.45-3.98-3.54-3.98-3.25,0-4.15,1.54-4.27,4.56l7.81-.58ZM612.78,1842.43l54.43-54.54,54.43,54.54-54.43,54.54-54.43-54.54ZM677.95,1853.62h0s-10.75,10.8-10.75,10.8v24.81l46.71-46.8-46.71-46.81.02,21.43-10.84,11v25.47l21.57-21.7v21.79ZM778.81,1835.42h-32.99v-3.51c0-2.54,1.13-3.43,2.59-3.43h30.41v-15.32h-31.18c-10.39,0-18.81,8.42-18.81,18.81v40.93h16.99v-22.25h32.99v-15.24ZM1058.66,1835.42h-32.99v-3.51c0-2.54,1.13-3.43,2.59-3.43h30.41v-15.32h-31.18c-10.39,0-18.81,8.42-18.81,18.81v40.93h16.99v-22.25h32.99v-15.24ZM803.07,1857.6c-1.45,0-2.59-.89-2.59-3.43v-40.99h-16.99v40.93c0,10.39,8.42,18.81,18.81,18.81h23.86v-15.32h-23.09ZM1004.89,1813.17h-16.84v22.32h-20.96v-22.32h-16.92v59.74h16.92v-22.33h20.96v22.33h16.84v-59.74ZM1097.09,1872.91h-17.09c-10.39,0-18.81-8.42-18.81-18.81v-22.12c0-10.39,8.42-18.81,18.81-18.81h17.09c10.39,0,18.81,8.42,18.81,18.81v22.12c0,10.39-8.42,18.81-18.81,18.81ZM1080.77,1857.6c-1.45,0-2.59-.89-2.59-3.43v-22.26c0-2.54,1.13-3.43,2.59-3.43h15.63c1.45,0,2.59.89,2.59,3.43v22.26c0,2.54-1.13,3.43-2.59,3.43h-15.63ZM928.43,1857.6h-32.47v15.32l33.33-.02c10.34,0,18.72-8.39,18.72-18.74h0c0-10.35-8.39-18.74-18.74-18.74h-16.39c-1.47,0-2.62-.9-2.62-3.47s1.15-3.47,2.62-3.47h30.48v-15.32h-31.32c-10.35,0-18.75,8.39-18.75,18.74h0c0,10.35,8.39,18.75,18.75,18.75h16.39c1.47,0,2.62.9,2.62,3.47s-1.15,3.47-2.62,3.47ZM861.33,1811.95h0c-8.63,0-16.19,5.79-18.44,14.12l-12.65,46.84h17.45l2.36-8.77h22.56l2.36,8.77h17.45l-12.65-46.85c-2.25-8.33-9.81-14.12-18.44-14.12ZM854.17,1848.83l5.33-19.73c.31-1.22.92-1.83,1.83-1.83.86,0,1.47.61,1.83,1.83l5.34,19.73h-14.32ZM1257.07,1857.6c-1.45,0-2.59-.89-2.59-3.43v-3.51h32.92v-15.24h-32.92v-3.51c0-2.54,1.13-3.43,2.59-3.43h30.33v-15.32h-31.1c-10.39,0-18.81,8.42-18.81,18.81v22.12c0,10.39,8.42,18.81,18.81,18.81h31.1v-15.32h-30.33ZM1142.28,1839.08v15.24h7.85c1.47,0,2.69,1.14,3.66,3.43l6.48,15.17h16.99l-6.48-15.17c-1.12-2.64-2.39-5.11-3.81-7.39,5.08-3.76,7.62-8.69,7.62-14.78v-3.59c0-10.39-8.42-18.81-18.81-18.81h-35.9v59.74h16.92v-44.43h18.2c1.51,0,2.68.89,2.68,3.43v3.74c0,2.54-1.18,3.43-2.68,3.43h-12.72ZM1197.73,1857.6c-1.45,0-2.59-.89-2.59-3.43v-22.26c0-2.54,1.13-3.43,2.59-3.43h35.13v-15.32h-35.9c-10.39,0-18.81,8.42-18.81,18.81v22.12c0,10.39,8.42,18.81,18.81,18.81h35.9v-37.8h-25.91v15.32h8.99v7.17h-18.21Z" style="fill:#bcbec0; fill-rule:evenodd;"/><path d="M1506.81,1846.65l3.96,5.65M1507.42,1871.91l5.67-4.89M1507.42,1871.91c1.19-1.06,1.42-1.54,1.42-4.76v-11.01h-4.91M1612.8,1849.28h18.01M1552.99,1871.59c1.7.21,6.72,1.13,7.47-1.74.99-3.82,1.69-12.75,1.69-19.15h-18.85M1603.97,1852.32h8.77M1612.74,1858.69l-9.26,3.32M1612.8,1865.78h18.01M1615.47,1857.79h12.57M1618.06,1845.24v6.8M1591.18,1845.24v25.16M1621.56,1861.52v4.95M1625.14,1845.24v6.8M1603.87,1871.9c3.73.64,4.71.12,4.71-3.29v-22.93M1513.44,1849.02h17.92M1522.21,1845.39v10.91M1512.43,1856.31h19.89M1514.33,1852.73h16.27M1515.85,1864.25h12.89M1515.85,1867.91h12.89M1628.04,1854.06h-12.57v7.46h12.57v-7.46ZM1596.23,1851.44h-10.11v9.8h10.11v-9.8ZM1577.53,1853.85v16.73M1578.9,1872.03c2.54.5,3.18-.2,3.18-2.95v-15.22h-9.11v10.9c0,3.48-1.2,7.02-1.76,8.17M1582.08,1859.46h-9.11M1582.08,1864.75h-9.11M1577.87,1854.2l2.98-4.63v-.68h-5.98M1523.47,1872.06c3.34.43,5.27,1,5.27-3.14v-8.64h-12.89v13.15M1612.15,1872.62c4.57-1.3,8.23-3.28,9.41-6.84M1621.56,1865.78c1.18,3.57,4.84,5.55,9.41,6.84M1584.42,1871.24l12.67-1.66M1537.9,1858.11c2.77-2.62,6.88-8.92,7.86-12.72M1570.46,1854.63c2.56-2.85,4.68-6.08,5.88-9.62M1538.02,1868.13c5.19-3.78,9.82-8.66,11.48-17.62M1543.05,1872.81c10.23-7.72,11.36-13.34,13.03-22.3M1597.91,1872.96c-.77-2.75-1.79-5.87-2.68-8.25M1736.2,1845.37l1.75,3.78M1723.24,1849.15h27.67M1779.81,1848.05h-13.02v9.17h13.02v-9.17ZM1745.22,1853.11h-16.28v3.99h16.28v-3.99ZM1742.03,1864.88h-9.91v4.1h9.91v-4.1ZM1742.14,1872.29c4.85.62,5.76.3,5.76-3.11v-8.17h-21.59v12.62M1816.91,1854.37h-22.54v6.35c0,8.05-2.73,10.76-3.92,12.51M1834.65,1856.57h11.87M1806.32,1854.37l4.73-5.23v-.32h-13.45M1831.16,1871.39h18.76M1850.03,1856.86c-2.98-2.19-7.29-6.95-8.76-10.26h-1.21c-1.47,3.3-5.78,8.07-8.76,10.26M1760.94,1861.78l-3.25,11.15M1756.14,1853.89l5.8,4.63M1763.1,1851.42l-5.36-4.34M1766.78,1852.45h13.02M1784.2,1871.77h-22.36M1780.81,1871.77v-9.55h-14.94v9.55M1770.76,1862.21l.02,9.55M1775.74,1871.77l-.02-9.55M1789.98,1855.92c3.29-2.18,7.81-6.55,10-10.59M1836.72,1868.31l-2.72-8.88M1839.18,1858.99l2.34,8.15M1847.15,1859.43l-4.14,11.95M1826.8,1867.28c2.5.81,6.55-1.57,1.67-10.42l2.11-7.61v-1.11h-5.98v25.68M1804.65,1866.17l1.65.13c4.99.39,5.07-.4,5.38-5.23l.07-1.51h-11.99v8.8c0,2.69.97,3.61,4.16,3.61h5.18c4.15,0,5.64-.26,5.82-3.59l.16-2.25" style="fill:none; stroke:#bcbec0; stroke-miterlimit:10; stroke-width:2.4px;"/><path d="M1788.91,1748.79c-8.14,13.71-3.76,20.72.51,27.55,4.38,7.02,8.72,13.98-.51,27.93M1771.46,1804.27c9.23-13.96,4.89-20.91.51-27.93-4.27-6.83-8.65-13.84-.51-27.55M1806.36,1804.27c9.23-13.96,4.89-20.91.51-27.93-4.27-6.83-8.65-13.84-.51-27.55M1755.98,1814.3h68.66" style="fill:none; stroke:#bcbec0; stroke-miterlimit:10; stroke-width:7.46px;"/><path d="M1564.88,1788.58l-.34-.87-3.25,2.52-1.9-4.4c-.33-.76-.24-1.63.23-2.3l1.36-1.95-.82-.77-4.47,4.38s-.15,5.24-.15,8.95-3.95,3.18-3.95,3.18v-13.27c0-.98.32-1.93.9-2.72l7.3-9.8c1.47-1.97,3.61-3.33,6.01-3.85,11.23-2.44,18.77-6.51,18.77-6.51l6.74,7.94s-8.21,5.02-11.66,12.42c-.86,1.85-2.28,3.38-4.05,4.4-4.06,2.33-11.27,6.73-16.06,11.05,0,0-1.98-2.08,1.09-4.91,1.73-1.6,4.25-3.49,4.25-3.49M1571.07,1799.86h-22.51v2.46h22.51v-2.46ZM1564.08,1796.78c.2.46.96.45,1.3-.02,1.38-1.89.2-3.46.2-3.46l-2.27,1.61.78,1.88ZM1567.04,1794.69c.2.46.96.45,1.3-.02,1.38-1.89.2-3.46.2-3.46l-2.27,1.61.78,1.88Z" style="fill:#bcbec0; fill-rule:evenodd;"/><path d="M1569,1698.35l70.65,126.4h-141.3l70.65-126.4M1787.92,1698.35l70.65,126.4h-141.3l70.65-126.4M1787.92,1687.87c-3.05,0-6.11,1.53-7.82,4.59l-71.92,128.68c-3.34,5.97.98,13.32,7.82,13.32h143.84c6.84,0,11.15-7.35,7.82-13.32l-71.92-128.68c-1.71-3.06-4.76-4.59-7.82-4.59h0ZM1569,1687.87c-3.05,0-6.11,1.53-7.82,4.59l-71.92,128.68c-3.34,5.97.98,13.32,7.82,13.32h143.84c6.84,0,11.15-7.35,7.82-13.32l-71.92-128.68c-1.71-3.06-4.76-4.59-7.82-4.59h0Z" style="fill:#bcbec0;"/><path d="M1569,1750.78c-18.06,0-32.75,14.69-32.75,32.75s14.69,32.75,32.75,32.75,32.75-14.69,32.75-32.75-14.69-32.75-32.75-32.75ZM1592.26,1806.8l-46.41-46.41" style="fill:none; stroke:#bcbec0; stroke-miterlimit:10; stroke-width:5.22px;"/></svg>