<?xml version="1.0" encoding="UTF-8"?><svg id="a" xmlns="http://www.w3.org/2000/svg" viewBox="0 0 350 350"><path d="M205.27,348.85h-60.54l2.87-7.18c.3-.74,1.01-1.23,1.81-1.23h51.17c.8,0,1.51.49,1.81,1.23l2.87,7.18ZM258.53,347.8l-.64,1.6H92.11l-.64-1.6H22.35l-.88,2.2h307.05l-.88-2.2h-69.11ZM347.59,347.56l-5.84-11.68c-.1-.19-.37-.19-.46,0l-5.84,11.68c-.09.17.04.37.23.37h11.68c.19,0,.32-.2.23-.37ZM8.71,335.88c-.09-.19-.37-.19-.46,0l-5.84,11.68c-.09.17.04.37.23.37h11.68c.19,0,.32-.2.23-.37l-5.84-11.68Z" style="fill:#bcbec0;"/><path d="M333.52,347.62l6.75-13.5c.51-1.02,1.97-1.02,2.49,0l6.75,13.5c.46.92-.21,2.01-1.24,2.01h-13.5c-1.03,0-1.7-1.09-1.24-2.01ZM1.74,349.63h13.5c1.03,0,1.7-1.09,1.24-2.01l-6.75-13.5c-.51-1.02-1.97-1.02-2.49,0l-6.75,13.5c-.46.92.21,2.01,1.24,2.01Z" style="fill:none; stroke:#bcbec0; stroke-miterlimit:10; stroke-width:.69px;"/><path d="M342.93,339.86c-.7.5-.73,1.18-.09,2.06.63.86.57,1.49-.16,1.88M341.6,339.86c-.7.5-.73,1.18-.09,2.06.63.86.57,1.49-.16,1.88M340.29,339.86c-.7.5-.73,1.18-.09,2.06.63.86.57,1.49-.16,1.88M337.27,346.83h8.42M344.85,345.71h-6.63M339.03,344.68h5.02M9.9,339.86c-.7.5-.73,1.18-.09,2.06.63.86.57,1.49-.16,1.88M8.57,339.86c-.7.5-.73,1.18-.09,2.06.63.86.57,1.49-.16,1.88M7.26,339.86c-.7.5-.73,1.18-.09,2.06.63.86.57,1.49-.16,1.88M4.24,346.83h8.42M11.81,345.71h-6.63M6,344.68h5.02" style="fill:none; stroke:#393939; stroke-linecap:round; stroke-linejoin:round; stroke-width:.46px;"/><path d="M158.09,343.04s-.02.04-.04.04h-3.32c-.98.01-1.77.82-1.76,1.8.01.97.82,1.74,1.79,1.74h3.3s.04.02.04.04v1.04s-.02.04-.04.04h-3.29c-1.63,0-2.96-1.34-2.91-2.97.05-1.52,1.27-2.74,2.78-2.79h3.42s.04,0,.04.02v1.04ZM164.97,347.74h-1.47s-.02,0-.03-.01l-3.37-3.38s0-.07.03-.07h2.96c.34,0,.61-.28.6-.63-.01-.33-.29-.58-.62-.58h-3.1s-.04.02-.04.04v4.58s-.02.04-.04.04h-1.04s-.04-.02-.04-.04v-5.71s.02-.04.04-.04h4.21c.94,0,1.73.75,1.75,1.7.01.96-.76,1.75-1.72,1.75h-.35s2.27,2.27,2.27,2.27c.02.02,0,.07-.03.07ZM171.53,343.04s-.02.04-.04.04h-3.24c-.78,0-1.44.51-1.68,1.21h4.92s.04.02.04.04v1.04s-.02.04-.04.04h-4.92c.24.7.9,1.21,1.68,1.21h3.24s.04.02.04.04v1.04s-.02.04-.04.04h-3.24c-1.6,0-2.89-1.3-2.89-2.89s1.3-2.89,2.89-2.89h3.24s.04.02.04.04v1.05ZM178.8,347.74c-.47,0-3.35,0-4.33,0-.01-.03-.02-.03-.03-.06l.6-1.04s.02-.01.03-.02h1.79s.02-.03.03-.06l-1.37-2.38h-.07l-2.04,3.54s-.02.01-.03.02h-1.2s-.02-.03-.03-.06l3.28-5.68c.03-.05.1-.05.13,0,0,0,2.92,5.07,3.27,5.68.01.03,0,.06-.03.06ZM184.11,347.7s-.02.04-.04.04h-4.15c-.36,0-.65-.29-.65-.65v-5.1s.02-.04.04-.04h1.04s.04.02.04.04v4.58s.02.04.04.04h3.63s.04.02.04.04v1.05ZM185.88,347.7s-.02.04-.04.04h-1.04s-.04-.02-.04-.04v-5.7s.02-.04.04-.04h1.04s.04.02.04.04v5.7ZM195.28,345.43s0,.02,0,.03v2.24s-.02.04-.04.04h-1.04s-.04-.02-.04-.04v-2.24s0-.02,0-.03l-1.96-2.34s-.02-.01-.03-.01h-2.26s-.04.02-.04.04v4.58s-.02.04-.04.04h-1.04s-.04-.02-.04-.04v-4.58s-.02-.04-.04-.04h-2.25s-.04-.02-.04-.04v-1.04s.02-.04.04-.04h6.23s.02,0,.03.01l1.98,2.36s.04.02.06,0l1.98-2.36s.02-.01.03-.01h1.36s.05.04.03.06l-2.86,3.41Z" style="fill:#393939;"/></svg>