<?xml version="1.0" encoding="UTF-8"?><svg id="a" xmlns="http://www.w3.org/2000/svg" viewBox="0 0 350 350"><path d="M129.45,331.19c.06,0,.11.05.11.1v2.81c0,.06-.05.1-.1.1l-8.93.04c-2.63,0-4.77,2.16-4.73,4.81.04,2.6,2.21,4.67,4.81,4.67h8.86c.06,0,.1.05.1.1v2.81c0,.06-.05.1-.1.1h-8.84c-4.39,0-7.96-3.6-7.83-7.99.12-4.08,3.41-7.38,7.48-7.51l9.19-.04ZM142.96,340.45c2.57,0,4.66-2.11,4.62-4.7-.04-2.54-2.16-4.56-4.69-4.56h-11.3c-.06,0-.1.05-.1.1v15.33c0,.06.05.1.1.1h2.8c.06,0,.1-.05.1-.1v-12.32c0-.06.05-.1.1-.1h8.33c.87,0,1.62.68,1.65,1.56.03.92-.7,1.67-1.61,1.67h-7.96c-.09,0-.14.12-.07.18l9.07,9.08s.05.03.07.03h3.96c.09,0,.14-.11.07-.18l-6.09-6.1s0,0,0,0h.95ZM189.41,331.2h-2.8c-.06,0-.1.05-.1.1v13.7c0,.96.78,1.74,1.73,1.74h11.15c.06,0,.1-.05.1-.1v-2.81c0-.06-.05-.1-.1-.1h-9.77c-.06,0-.1-.05-.1-.1v-12.32c0-.06-.05-.1-.1-.1M176.52,331.3c-.08-.14-.28-.14-.36,0l-8.81,15.27c.04.07.05.09.09.16h3.23s.06-.03.09-.05l5.48-9.51h.18l3.68,6.39c-.04.07-.05.09-.09.16h-4.8s-.06.03-.09.05l-1.61,2.8c.04.07.04.09.08.16,2.61,0,10.36,0,11.63,0,.08,0,.13-.09.09-.16-.95-1.65-8.8-15.28-8.8-15.28M237.12,331.2h-3.66s-.06.01-.08.04l-5.32,6.35s-.12.05-.16,0l-5.32-6.35s-.05-.04-.08-.04c-.81,0-12.32,0-16.76,0-.06,0-.1.05-.1.1v2.81c0,.06.05.1.1.1h6.06c.06,0,.1.05.1.1v12.32c0,.06.05.1.1.1h2.8c.06,0,.1-.05.1-.1v-12.32c0-.06.05-.1.1-.1h6.08s.06.01.08.04l5.28,6.3s.02.04.02.07v6.02c0,.06.05.1.1.1h2.8c.06,0,.1-.05.1-.1v-6.02s0-.05.02-.07l7.69-9.17c.06-.07,0-.17-.08-.17M201.34,346.73h2.8c.06,0,.1-.05.1-.1v-15.33c0-.06-.05-.1-.1-.1h-2.8c-.06,0-.1.05-.1.1v15.33c0,.06.05.1.1.1M165.67,334.1v-2.81c0-.06-.05-.1-.1-.1h-8.71c-4.29,0-7.78,3.49-7.78,7.77s3.49,7.77,7.78,7.77h8.71c.06,0,.1-.05.1-.1v-2.81c0-.06-.05-.1-.1-.1h-8.71c-2.1,0-3.88-1.36-4.51-3.25h13.22c.06,0,.1-.05.1-.1v-2.81c0-.06-.05-.1-.1-.1h-13.22c.63-1.89,2.42-3.25,4.51-3.25h8.71c.06,0,.1-.05.1-.1" style="fill:#bcbec0;"/></svg>