<?xml version="1.0" encoding="UTF-8"?><svg id="a" xmlns="http://www.w3.org/2000/svg" viewBox="0 0 300 300"><path d="M110.96,283.88s.09.04.09.09v2.41s-.04.09-.09.09l-7.66.03c-2.26,0-4.09,1.86-4.05,4.12.03,2.23,1.89,4,4.12,4h7.59s.09.04.09.09v2.41s-.04.09-.09.09h-7.58c-3.76,0-6.82-3.08-6.71-6.85.11-3.5,2.92-6.32,6.41-6.44l7.88-.03ZM122.54,291.82c2.2,0,3.99-1.81,3.96-4.03-.03-2.18-1.85-3.91-4.02-3.91h-9.69s-.09.04-.09.09v13.14s.04.09.09.09h2.4s.09-.04.09-.09v-10.56s.04-.09.09-.09h7.14c.75,0,1.39.58,1.42,1.33.03.79-.6,1.43-1.38,1.43h-6.82c-.08,0-.12.1-.06.16l7.77,7.79s.04.03.06.03h3.4c.08,0,.12-.09.06-.15l-5.22-5.23s0,0,0,0h.81ZM162.35,283.88h-2.4s-.09.04-.09.09v11.74c0,.82.67,1.49,1.49,1.49h9.55s.09-.04.09-.09v-2.41s-.04-.09-.09-.09h-8.37s-.09-.04-.09-.09v-10.56s-.04-.09-.09-.09M151.3,283.97c-.07-.12-.24-.12-.31,0l-7.55,13.09c.03.06.04.08.08.14h2.77s.05-.03.08-.05l4.7-8.15h.16l3.15,5.48c-.04.06-.04.08-.08.14h-4.12s-.05.03-.08.04l-1.38,2.4c.03.06.04.07.07.14,2.24,0,8.88,0,9.97,0,.07,0,.11-.07.08-.13-.81-1.41-7.54-13.1-7.54-13.1M203.24,283.88h-3.14s-.05.01-.07.03l-4.56,5.44s-.1.04-.14,0l-4.56-5.44s-.04-.03-.07-.03c-.69,0-10.56,0-14.36,0-.05,0-.09.04-.09.09v2.4s.04.09.09.09h5.19s.09.04.09.09v10.56s.04.09.09.09h2.4s.09-.04.09-.09v-10.56s.04-.09.09-.09h5.21s.05.01.07.03l4.52,5.4s.02.04.02.06v5.16s.04.09.09.09h2.4s.09-.04.09-.09v-5.16s0-.04.02-.06l6.59-7.86c.05-.06,0-.15-.07-.15M172.58,297.2h2.4s.09-.04.09-.09v-13.14s-.04-.09-.09-.09h-2.4s-.09.04-.09.09v13.14s.04.09.09.09M142,286.38v-2.41s-.04-.09-.09-.09h-7.47c-3.68,0-6.67,2.99-6.67,6.66s2.99,6.66,6.67,6.66h7.47s.09-.04.09-.09v-2.41s-.04-.09-.09-.09h-7.47c-1.8,0-3.33-1.17-3.87-2.79h11.33s.09-.04.09-.09v-2.41s-.04-.09-.09-.09h-11.33c.54-1.62,2.07-2.79,3.87-2.79h7.47s.09-.04.09-.09" style="fill:#bcbec0;"/></svg>