<?xml version="1.0" encoding="UTF-8"?><svg id="a" xmlns="http://www.w3.org/2000/svg" viewBox="0 0 175 175"><path d="M59.89,164.54s.06.03.06.06v1.7s-.03.06-.06.06l-5.42.02c-1.6,0-2.89,1.31-2.87,2.92.02,1.58,1.34,2.83,2.91,2.83h5.37s.06.03.06.06v1.7s-.03.06-.06.06h-5.36c-2.66,0-4.82-2.18-4.74-4.84.07-2.47,2.07-4.47,4.53-4.55l5.57-.02ZM68.08,170.15c1.56,0,2.82-1.28,2.8-2.85-.02-1.54-1.31-2.77-2.85-2.77h-6.85s-.06.03-.06.06v9.3s.03.06.06.06h1.7s.06-.03.06-.06v-7.47s.03-.06.06-.06h5.05c.53,0,.98.41,1,.94.02.56-.43,1.01-.98,1.01h-4.83c-.06,0-.08.07-.04.11l5.5,5.51s.03.02.04.02h2.4c.06,0,.08-.07.04-.11l-3.69-3.7s0,0,0,0h.57ZM96.24,164.54h-1.7s-.06.03-.06.06v8.3c0,.58.47,1.05,1.05,1.05h6.76s.06-.03.06-.06v-1.7s-.03-.06-.06-.06h-5.92s-.06-.03-.06-.06v-7.47s-.03-.06-.06-.06M88.42,164.61c-.05-.08-.17-.08-.22,0l-5.34,9.26s.03.05.06.1h1.96s.04-.02.05-.03l3.32-5.76h.11l2.23,3.87s-.03.05-.06.1h-2.91s-.04.02-.05.03l-.98,1.7s.03.05.05.1c1.58,0,6.28,0,7.05,0,.05,0,.08-.05.05-.09-.58-1-5.33-9.26-5.33-9.26M125.16,164.54h-2.22s-.04,0-.05.02l-3.22,3.85s-.07.03-.1,0l-3.23-3.85s-.03-.02-.05-.02c-.49,0-7.47,0-10.16,0-.04,0-.06.03-.06.06v1.7s.03.06.06.06h3.67s.06.03.06.06v7.47s.03.06.06.06h1.7s.06-.03.06-.06v-7.47s.03-.06.06-.06h3.69s.04,0,.05.02l3.2,3.82s.02.03.02.04v3.65s.03.06.06.06h1.7s.06-.03.06-.06v-3.65s0-.03.02-.04l4.66-5.56s0-.1-.05-.1M103.47,173.96h1.7s.06-.03.06-.06v-9.29s-.03-.06-.06-.06h-1.7s-.06.03-.06.06v9.29s.03.06.06.06M81.84,166.31v-1.7s-.03-.06-.06-.06h-5.28c-2.6,0-4.71,2.11-4.71,4.71s2.11,4.71,4.71,4.71h5.28s.06-.03.06-.06v-1.7s-.03-.06-.06-.06h-5.28c-1.27,0-2.35-.83-2.74-1.97h8.02s.06-.03.06-.06v-1.7s-.03-.06-.06-.06h-8.02c.38-1.14,1.46-1.97,2.74-1.97h5.28s.06-.03.06-.06" style="fill:#bcbec0;"/></svg>