<?xml version="1.0" encoding="UTF-8"?><svg id="a" xmlns="http://www.w3.org/2000/svg" viewBox="0 0 220 220"><path d="M220,0v2.2h-48.15l-1.6-1.6H49.75l-1.6,1.6H0V0h220ZM134.44,212.44c-.26-.66-.9-1.09-1.61-1.09h-45.65c-.71,0-1.35.43-1.61,1.09l-2.56,6.41h54l-2.56-6.41ZM196.5,220H23.5l.88-2.2h14.08l.64,1.6h141.8l.64-1.6h14.08l.88,2.2ZM217.56,217.56l-5.84-11.68c-.09-.19-.37-.19-.46,0l-5.84,11.68c-.09.17.04.37.23.37h11.68c.19,0,.32-.2.23-.37ZM14.35,217.94H2.67c-.19,0-.32-.2-.23-.37l5.84-11.68c.09-.19.37-.19.46,0l5.84,11.68c.09.17-.04.37-.23.37Z" style="fill:#595959;"/><path d="M2.52,1.82H.52V.4h2v1.42ZM4.03.4h-1v1.42h1V.4ZM49.37.4h-1l-1.42,1.42h1l1.42-1.42ZM217.48,1.82h2s0-1.42,0-1.42h-2s0,1.42,0,1.42ZM215.97,1.82h1s0-1.42,0-1.42h-1s0,1.42,0,1.42ZM172.05,1.82h1s-1.42-1.42-1.42-1.42h-1s1.42,1.42,1.42,1.42ZM94.4,213.43s-.02.04-.04.04h-3.07c-.9.01-1.64.76-1.62,1.66.01.89.76,1.6,1.65,1.6h3.04s.04.02.04.04v.96s-.02.04-.04.04h-3.04c-1.51,0-2.73-1.23-2.69-2.74.04-1.4,1.17-2.53,2.57-2.58h3.16s.04,0,.04.02v.96ZM100.74,217.76h-1.36s-.02,0-.03-.01l-3.11-3.12s0-.06.03-.06h2.73c.31,0,.56-.26.55-.58-.01-.3-.27-.53-.57-.53h-2.86s-.04.02-.04.04v4.23s-.02.04-.04.04h-.96s-.04-.02-.04-.04v-5.26s.02-.04.04-.04h3.88c.87,0,1.6.69,1.61,1.57.01.89-.7,1.61-1.59,1.61h-.33s2.09,2.1,2.09,2.1c.02.02,0,.06-.03.06ZM106.8,213.43s-.02.03-.03.03h-2.99c-.72,0-1.33.47-1.55,1.12h4.54s.03.02.03.04v.96s-.02.04-.03.04h-4.54c.22.65.83,1.12,1.55,1.12h2.99s.03.02.03.04v.96s-.02.04-.03.04h-2.99c-1.47,0-2.67-1.2-2.67-2.67s1.2-2.67,2.67-2.67h2.99s.03.02.03.04v.96ZM113.51,217.76c-.44,0-3.1,0-3.99,0-.01-.03-.01-.03-.03-.06l.55-.96s.02-.01.03-.02h1.65s.02-.03.03-.06l-1.26-2.19h-.06l-1.88,3.26s-.02.01-.03.02h-1.11s-.02-.03-.03-.05l3.02-5.24s.1-.05.12,0c0,0,2.7,4.68,3.02,5.25.01.02,0,.05-.03.05ZM118.41,217.73s-.02.04-.04.04h-3.83c-.33,0-.6-.27-.6-.6v-4.7s.02-.04.04-.04h.96s.03.02.03.04v4.23s.02.03.04.03h3.35s.04.02.04.04v.96ZM120.04,217.73s-.02.04-.04.04h-.96s-.04-.02-.04-.04v-5.26s.02-.04.04-.04h.96s.04.02.04.04v5.26ZM128.71,215.64s0,.01,0,.02v2.07s-.02.04-.04.04h-.96s-.04-.02-.04-.04v-2.07s0-.02,0-.02l-1.81-2.16s-.02-.01-.03-.01h-2.09s-.04.02-.04.04v4.23s-.02.04-.03.04h-.96s-.04-.02-.04-.04v-4.23s-.02-.04-.04-.04h-2.08s-.04-.02-.04-.04v-.96s.02-.03.04-.03h5.75s.02,0,.03.01l1.83,2.18s.04.02.05,0l1.83-2.18s.02-.01.03-.01h1.26s.05.04.03.06l-2.64,3.15Z" style="fill:#393939;"/><path d="M203.5,217.62l6.75-13.5c.51-1.02,1.97-1.02,2.49,0l6.75,13.5c.46.92-.21,2.01-1.24,2.01h-13.5c-1.03,0-1.7-1.09-1.24-2.01ZM1.76,219.63h13.5c1.03,0,1.7-1.09,1.24-2.01l-6.75-13.5c-.51-1.02-1.97-1.02-2.49,0l-6.75,13.5c-.46.92.21,2.01,1.24,2.01Z" style="fill:none; stroke:#595959; stroke-miterlimit:10; stroke-width:.69px;"/><path d="M212.91,209.86c-.7.5-.73,1.18-.09,2.06.63.86.57,1.49-.16,1.88M211.58,209.86c-.7.5-.73,1.18-.09,2.06.63.86.57,1.49-.16,1.88M210.26,209.86c-.7.5-.73,1.18-.09,2.06.63.86.57,1.49-.16,1.88M207.25,216.83h8.42M214.82,215.71h-6.63M209.01,214.68h5.02M9.92,209.86c-.7.5-.73,1.18-.09,2.06.63.86.57,1.49-.16,1.88M8.59,209.86c-.7.5-.73,1.18-.09,2.06.63.86.57,1.49-.16,1.88M7.28,209.86c-.7.5-.73,1.18-.09,2.06.63.86.57,1.49-.16,1.88M4.27,216.83h8.42M11.84,215.71h-6.63M6.02,214.68h5.02" style="fill:none; stroke:#393939; stroke-linecap:round; stroke-linejoin:round; stroke-width:.46px;"/></svg>