<?xml version="1.0" encoding="UTF-8"?><svg id="a" xmlns="http://www.w3.org/2000/svg" viewBox="0 0 260 260"><path d="M178.3,260h-96.6l.41-.5h21.52l5.02-6.14c.19-.23.47-.36.76-.36h41.17c.3,0,.58.13.76.36l5.02,6.14h21.52l.41.5ZM6.25,259.5l-1-1H1.5v-3.75l-1-1v-8.75h-.5v15h35v-.5H6.25ZM259.5,245v8.75l-1,1v3.75h-3.75l-1,1h-28.75v.5h35v-15h-.5ZM225,0v.5h28.75l1,1h3.75v3.75l1,1v8.75h.5V0h-35ZM0,0v15h.5V6.25l1-1V1.5h3.75l1-1h28.75v-.5H0Z" style="fill:#bcbec0;"/><path d="M115.3,254.93s-.02.03-.03.03h-2.89c-.85.01-1.54.71-1.53,1.57.01.84.71,1.51,1.55,1.51h2.86s.03.01.03.03v.91s-.02.03-.03.03h-2.86c-1.42,0-2.57-1.16-2.53-2.58.04-1.32,1.1-2.39,2.42-2.43h2.97s.03,0,.03.02v.91ZM121.28,259.01h-1.28s-.02,0-.02,0l-2.93-2.94s0-.06.02-.06h2.57c.29,0,.53-.25.52-.54-.01-.28-.25-.5-.54-.5h-2.69s-.03.02-.03.03v3.99s-.02.03-.03.03h-.91s-.03-.01-.03-.03v-4.96s.02-.03.03-.03h3.66c.82,0,1.51.65,1.52,1.48.01.84-.66,1.52-1.49,1.52h-.31s1.97,1.97,1.97,1.97c.02.02,0,.06-.02.06ZM126.98,254.93s-.01.03-.03.03h-2.82c-.68,0-1.26.44-1.46,1.05h4.28s.03.01.03.03v.91s-.01.03-.03.03h-4.28c.2.61.78,1.05,1.46,1.05h2.82s.03.01.03.03v.91s-.01.03-.03.03h-2.82c-1.39,0-2.52-1.13-2.52-2.51s1.13-2.51,2.52-2.51h2.82s.03.01.03.03v.91ZM133.31,259.01c-.41,0-2.92,0-3.76,0-.01-.02-.01-.03-.03-.05l.52-.9s.02-.01.03-.02h1.55s.02-.03.03-.05l-1.19-2.07h-.06l-1.77,3.08s-.02.01-.03.02h-1.04s-.02-.03-.03-.05l2.85-4.94s.09-.04.12,0c0,0,2.54,4.41,2.85,4.94.01.02,0,.05-.03.05ZM137.92,258.98s-.02.03-.03.03h-3.61c-.31,0-.56-.25-.56-.56v-4.43s.02-.03.03-.03h.91s.03.01.03.03v3.98s.02.03.03.03h3.16s.03.02.03.03v.91ZM139.46,258.98s-.02.03-.03.03h-.91s-.03-.02-.03-.03v-4.96s.01-.03.03-.03h.91s.03.02.03.03v4.96ZM147.63,257.01s0,.01,0,.02v1.95s-.01.03-.03.03h-.91s-.03-.01-.03-.03v-1.95s0-.02,0-.02l-1.71-2.04s-.02-.01-.03-.01h-1.97s-.03.02-.03.03v3.99s-.01.03-.03.03h-.91s-.03-.01-.03-.03v-3.99s-.01-.03-.03-.03h-1.96s-.03-.01-.03-.03v-.91s.01-.03.03-.03h5.42s.02,0,.03.01l1.72,2.05s.04.02.05,0l1.72-2.05s.02-.01.03-.01h1.18s.04.03.03.06l-2.49,2.97Z" style="fill:#393939;"/></svg>