<?xml version="1.0" encoding="UTF-8"?><svg id="a" xmlns="http://www.w3.org/2000/svg" viewBox="0 0 300 300"><path d="M1.58,201.57h3.12v3.33h1.22v1.78h-1.16l-1.24,1.3h-.59l-1.24-1.3H.34v-1.78h1.24v-3.33ZM.82,210.66l4.06.16-4.53.97,4.91.7c.4.06.62.26.67.6v63.93l-5.56,8.93v5.41M2.19,208.8l1.38.17-1.99.64,2.75.19M4.12,275.69l-3.76,6.06M4.12,272.26l-3.76,6.06" style="fill:none; stroke:#bcbec0; stroke-linecap:round; stroke-linejoin:round; stroke-width:.68px;"/><path d="M177,298.85h-54l2.56-6.41c.26-.66.9-1.09,1.61-1.09h45.65c.71,0,1.35.43,1.61,1.09l2.56,6.41ZM273.64,297.8h-54.11l-.64,1.6H81.1l-.64-1.6H26.36l-.88,2.2h249.05l-.88-2.2ZM295.36,297.94h-11.68c-.19,0-.32-.2-.23-.37l5.84-11.68c.09-.19.37-.19.46,0l5.84,11.68c.09.17-.04.37-.23.37ZM16.56,297.56l-5.84-11.68c-.09-.19-.37-.19-.46,0l-5.84,11.68c-.09.17.04.37.23.37h11.68c.19,0,.32-.2.23-.37Z" style="fill:#bcbec0;"/><path d="M134.4,293.43s-.02.04-.04.04h-3.07c-.9.01-1.64.76-1.62,1.66.01.89.76,1.6,1.65,1.6h3.04s.04.02.04.04v.96s-.02.04-.04.04h-3.04c-1.51,0-2.73-1.23-2.69-2.74.04-1.4,1.17-2.53,2.57-2.58h3.16s.04,0,.04.02v.96ZM140.74,297.76h-1.36s-.02,0-.03-.01l-3.11-3.12s0-.06.03-.06h2.73c.31,0,.56-.26.55-.58-.01-.3-.27-.53-.57-.53h-2.86s-.04.02-.04.04v4.23s-.02.04-.04.04h-.96s-.04-.02-.04-.04v-5.26s.02-.04.04-.04h3.88c.87,0,1.6.69,1.61,1.57.01.89-.7,1.61-1.59,1.61h-.33s2.09,2.1,2.09,2.1c.02.02,0,.06-.03.06ZM146.8,293.43s-.02.03-.03.03h-2.99c-.72,0-1.33.47-1.55,1.12h4.54s.03.02.03.04v.96s-.02.04-.03.04h-4.54c.22.65.83,1.12,1.55,1.12h2.99s.03.02.03.04v.96s-.02.04-.03.04h-2.99c-1.47,0-2.67-1.2-2.67-2.67s1.2-2.67,2.67-2.67h2.99s.03.02.03.04v.96ZM153.51,297.76c-.44,0-3.1,0-3.99,0-.01-.03-.01-.03-.03-.06l.55-.96s.02-.01.03-.02h1.65s.02-.03.03-.06l-1.26-2.19h-.06l-1.88,3.26s-.02.01-.03.02h-1.11s-.02-.03-.03-.05l3.02-5.24s.1-.05.12,0c0,0,2.7,4.68,3.02,5.25.01.02,0,.05-.03.05ZM158.41,297.73s-.02.04-.04.04h-3.83c-.33,0-.6-.27-.6-.6v-4.7s.02-.04.04-.04h.96s.03.02.03.04v4.23s.02.03.04.03h3.35s.04.02.04.04v.96ZM160.04,297.73s-.02.04-.04.04h-.96s-.04-.02-.04-.04v-5.26s.02-.04.04-.04h.96s.04.02.04.04v5.26ZM168.71,295.64s0,.01,0,.02v2.07s-.02.04-.04.04h-.96s-.04-.02-.04-.04v-2.07s0-.02,0-.02l-1.81-2.16s-.02-.01-.03-.01h-2.09s-.04.02-.04.04v4.23s-.02.04-.03.04h-.96s-.04-.02-.04-.04v-4.23s-.02-.04-.04-.04h-2.08s-.04-.02-.04-.04v-.96s.02-.03.04-.03h5.75s.02,0,.03.01l1.83,2.18s.04.02.05,0l1.83-2.18s.02-.01.03-.01h1.26s.05.04.03.06l-2.64,3.15Z" style="fill:#393939;"/><path d="M281.52,297.62l6.75-13.5c.51-1.02,1.97-1.02,2.49,0l6.75,13.5c.46.92-.21,2.01-1.24,2.01h-13.5c-1.03,0-1.7-1.09-1.24-2.01ZM3.74,299.63h13.5c1.03,0,1.7-1.09,1.24-2.01l-6.75-13.5c-.51-1.02-1.97-1.02-2.49,0l-6.75,13.5c-.46.92.21,2.01,1.24,2.01Z" style="fill:none; stroke:#bcbec0; stroke-miterlimit:10; stroke-width:.65px;"/><path d="M290.93,289.86c-.7.5-.73,1.18-.09,2.06.63.86.57,1.49-.16,1.88M289.6,289.86c-.7.5-.73,1.18-.09,2.06.63.86.57,1.49-.16,1.88M288.29,289.86c-.7.5-.73,1.18-.09,2.06.63.86.57,1.49-.16,1.88M285.27,296.83h8.42M292.85,295.71h-6.63M287.03,294.68h5.02M11.9,289.86c-.7.5-.73,1.18-.09,2.06.63.86.57,1.49-.16,1.88M10.57,289.86c-.7.5-.73,1.18-.09,2.06.63.86.57,1.49-.16,1.88M9.26,289.86c-.7.5-.73,1.18-.09,2.06.63.86.57,1.49-.16,1.88M6.24,296.83h8.42M13.82,295.71h-6.63M8,294.68h5.02" style="fill:none; stroke:#393939; stroke-linecap:round; stroke-linejoin:round; stroke-width:.46px;"/></svg>