<?xml version="1.0" encoding="UTF-8"?><svg id="a" xmlns="http://www.w3.org/2000/svg" viewBox="0 0 225 235"><path d="M81.28,222.25s.07.03.07.07v1.92s-.03.07-.07.07l-6.12.03c-1.8,0-3.27,1.48-3.24,3.3.03,1.78,1.51,3.2,3.29,3.2h6.07s.07.03.07.07v1.92s-.03.07-.07.07h-6.06c-3.01,0-5.45-2.46-5.36-5.47.08-2.8,2.34-5.06,5.12-5.15l6.3-.03ZM90.54,228.59c1.76,0,3.19-1.45,3.17-3.22-.03-1.74-1.48-3.13-3.22-3.13h-7.75s-.07.03-.07.07v10.51s.03.07.07.07h1.92s.07-.03.07-.07v-8.44s.03-.07.07-.07h5.71c.6,0,1.11.47,1.13,1.07.02.63-.48,1.15-1.11,1.15h-5.45c-.06,0-.09.08-.05.13l6.21,6.23s.03.02.05.02h2.72c.06,0,.1-.08.05-.12l-4.17-4.18s0,0,0,0h.65ZM122.38,222.25h-1.92s-.07.03-.07.07v9.39c0,.66.53,1.19,1.19,1.19h7.64s.07-.03.07-.07v-1.92s-.03-.07-.07-.07h-6.7s-.07-.03-.07-.07v-8.44s-.03-.07-.07-.07M113.54,222.32c-.05-.09-.19-.09-.24,0l-6.04,10.47s.04.06.06.11h2.21s.04-.02.06-.04l3.76-6.52h.13l2.52,4.38s-.04.06-.06.11h-3.29s-.04.02-.06.04l-1.11,1.92s.03.06.05.11c1.79,0,7.1,0,7.97,0,.06,0,.09-.06.06-.11-.65-1.13-6.03-10.47-6.03-10.47M155.07,222.25h-2.51s-.04,0-.05.03l-3.64,4.35s-.08.03-.11,0l-3.65-4.35s-.03-.03-.05-.03c-.55,0-8.44,0-11.48,0-.04,0-.07.03-.07.07v1.92s.03.07.07.07h4.15s.07.03.07.07v8.44s.03.07.07.07h1.92s.07-.03.07-.07v-8.44s.03-.07.07-.07h4.17s.04,0,.05.03l3.62,4.32s.02.03.02.05v4.13s.03.07.07.07h1.92s.07-.03.07-.07v-4.13s0-.03.02-.05l5.27-6.29s0-.12-.05-.12M130.55,232.9h1.92s.07-.03.07-.07v-10.51s-.03-.07-.07-.07h-1.92s-.07.03-.07.07v10.51s.03.07.07.07M106.1,224.24v-1.92s-.03-.07-.07-.07h-5.97c-2.94,0-5.33,2.39-5.33,5.33s2.39,5.33,5.33,5.33h5.97s.07-.03.07-.07v-1.92s-.03-.07-.07-.07h-5.97c-1.44,0-2.66-.93-3.09-2.23h9.06s.07-.03.07-.07v-1.92s-.03-.07-.07-.07h-9.06c.43-1.29,1.66-2.23,3.09-2.23h5.97s.07-.03.07-.07" style="fill:#bcbec0;"/></svg>