<?xml version="1.0" encoding="UTF-8"?><svg id="a" xmlns="http://www.w3.org/2000/svg" viewBox="0 0 400 400"><path d="M154.2,382.83c-1.09.08-1.93.67-2.52,1.78l-5.56,13.43h107.76l-5.33-13.51c-.54-1.2-1.82-1.77-3.86-1.71h-90.49ZM93.75,398.04H24.9l-.97,1.96h352.14l-.99-1.96h-68.83l-.56.95H94.32l-.56-.95ZM397.66,398.23h-13.7c-.18,0-.3-.2-.21-.36l6.85-12.25c.09-.16.33-.16.42,0l6.85,12.25c.09.16-.03.36-.21.36ZM16.04,398.23H2.34c-.18,0-.3-.2-.21-.36l6.85-12.25c.09-.16.33-.16.42,0l6.85,12.25c.09.16-.03.36-.21.36Z" style="fill:#bcbec0;"/><path d="M1.59,280.87h3.12v3.33h1.22v1.78h-1.16l-1.24,1.3h-.59l-1.24-1.3H.35v-1.78h1.24v-3.33ZM.83,289.96l4.06.16-4.53.97,4.91.7c.4.06.62.26.67.6v86.94l-5.56,8.93v5.41M2.19,288.1l1.38.17-1.99.64,2.75.19M.49,312.07h3.55v46.94H.49v-46.94ZM4.13,378l-3.76,6.06M4.13,374.57l-3.76,6.06" style="fill:none; stroke:#bcbec0; stroke-linecap:round; stroke-linejoin:round; stroke-width:.68px;"/><path d="M172.75,387.52s-.03.06-.06.06l-5.36.02c-1.58,0-2.86,1.3-2.84,2.88.02,1.56,1.32,2.8,2.88,2.8h5.31s.06.03.06.06v1.68s-.03.06-.06.06h-5.3c-2.63,0-4.77-2.16-4.69-4.79.07-2.45,2.04-4.42,4.48-4.5l5.51-.02s.06.03.06.06v1.68ZM183.83,395.09h-2.38s-.03,0-.04-.02l-5.44-5.45s-.01-.11.04-.11h4.77c.55,0,.99-.46.97-1.01-.02-.52-.47-.93-.99-.93h-4.99s-.06.03-.06.06v7.39s-.03.06-.06.06h-1.68s-.06-.03-.06-.06v-9.19s.03-.06.06-.06h6.78c1.52,0,2.79,1.21,2.81,2.73.02,1.55-1.23,2.82-2.77,2.82h-.57s3.65,3.66,3.65,3.66c.04.04.01.11-.04.11ZM194.4,387.52s-.03.06-.06.06h-5.22c-1.26,0-2.33.82-2.71,1.95h7.93s.06.03.06.06v1.68s-.03.06-.06.06h-7.93c.38,1.13,1.45,1.95,2.71,1.95h5.22s.06.03.06.06v1.68s-.03.06-.06.06h-5.22c-2.57,0-4.66-2.09-4.66-4.66s2.09-4.66,4.66-4.66h5.22s.06.03.06.06v1.68ZM206.13,395.09c-.76,0-5.41,0-6.97,0-.02-.04-.03-.05-.05-.1l.97-1.68s.03-.02.05-.03h2.88s.03-.05.06-.1l-2.21-3.83h-.11l-3.29,5.7s-.03.02-.05.03h-1.93s-.03-.05-.06-.1l5.28-9.16c.05-.08.17-.08.21,0,0,0,4.71,8.17,5.28,9.16.02.04,0,.09-.05.09ZM214.69,395.03s-.03.06-.06.06h-6.68c-.57,0-1.04-.47-1.04-1.04v-8.21s.03-.06.06-.06h1.68s.06.03.06.06v7.39s.03.06.06.06h5.86s.06.03.06.06v1.68ZM217.54,395.03s-.03.06-.06.06h-1.68s-.06-.03-.06-.06v-9.19s.03-.06.06-.06h1.68s.06.03.06.06v9.19ZM232.68,391.38s-.01.03-.01.04v3.61s-.03.06-.06.06h-1.68s-.06-.03-.06-.06v-3.61s0-.03-.02-.04l-3.16-3.78s-.03-.02-.05-.02h-3.65s-.06.03-.06.06v7.39s-.03.06-.06.06h-1.68s-.06-.03-.06-.06v-7.39s-.03-.06-.06-.06h-3.63s-.06-.03-.06-.06v-1.68s.03-.06.06-.06h10.05s.04,0,.05.02l3.19,3.81s.07.03.09,0l3.19-3.81s.03-.02.05-.02h2.19c.05,0,.08.06.05.1l-4.61,5.5Z" style="fill:#393939;"/><path d="M392.34,389.37c-.76.54-.79,1.29-.1,2.24.68.94.62,1.62-.17,2.04M390.9,389.37c-.76.54-.79,1.29-.1,2.24.68.94.62,1.62-.17,2.04M389.47,389.37c-.76.54-.79,1.29-.1,2.24.68.94.62,1.62-.17,2.04M386.2,396.94h9.16M394.43,395.73h-7.21M388.1,394.61h5.46" style="fill:none; stroke:#393939; stroke-linecap:round; stroke-linejoin:round; stroke-width:.5px;"/><path d="M390.81,383.98c.14,0,.49.04.69.41l7.64,13.67c.2.36.06.67,0,.79-.07.12-.27.39-.69.39h-15.29c-.41,0-.62-.28-.69-.39-.07-.12-.21-.43,0-.79l7.64-13.67c.21-.37.55-.41.69-.41M9.19,383.98c.14,0,.49.04.69.41l7.64,13.67c.2.36.06.67,0,.79-.07.12-.28.39-.69.39H1.55c-.41,0-.62-.27-.69-.39-.07-.12-.21-.43,0-.79l7.64-13.67c.21-.37.55-.41.69-.41M390.81,383.23c-.53,0-1.05.26-1.35.79l-7.64,13.67c-.58,1.03.17,2.3,1.35,2.3h15.29c1.18,0,1.93-1.27,1.35-2.3l-7.64-13.67c-.29-.53-.82-.79-1.35-.79h0ZM9.19,383.23c-.53,0-1.05.26-1.35.79l-7.64,13.67c-.58,1.03.17,2.3,1.35,2.3h15.29c1.18,0,1.93-1.27,1.35-2.3l-7.64-13.67c-.29-.53-.82-.79-1.35-.79h0Z" style="fill:#bcbec0;"/><path d="M10.73,389.37c-.76.54-.79,1.29-.1,2.24.68.94.62,1.62-.17,2.04M9.28,389.37c-.76.54-.79,1.29-.1,2.24.68.94.62,1.62-.17,2.04M7.86,389.37c-.76.54-.79,1.29-.1,2.24.68.94.62,1.62-.17,2.04M4.58,396.94h9.16M12.81,395.73h-7.21M6.49,394.61h5.46" style="fill:none; stroke:#393939; stroke-linecap:round; stroke-linejoin:round; stroke-width:.5px;"/></svg>