<?xml version="1.0" encoding="UTF-8"?><svg id="a" xmlns="http://www.w3.org/2000/svg" viewBox="0 0 390 390"><path d="M144.25,371.05c.06,0,.12.05.12.11v3.13c0,.06-.05.12-.12.12l-9.95.04c-2.93,0-5.31,2.41-5.27,5.36.04,2.9,2.46,5.2,5.35,5.2h9.87c.06,0,.12.05.12.11v3.13c0,.06-.05.11-.12.11h-9.85c-4.89,0-8.87-4.01-8.72-8.9.14-4.55,3.8-8.22,8.33-8.37l10.24-.04ZM159.3,381.36c2.86,0,5.19-2.36,5.15-5.24-.04-2.83-2.4-5.08-5.23-5.08h-12.59c-.06,0-.12.05-.12.12v17.09c0,.06.05.11.12.11h3.12c.06,0,.11-.05.11-.11v-13.73c0-.06.05-.12.11-.12h9.28c.97,0,1.81.76,1.84,1.73.04,1.02-.78,1.87-1.8,1.87h-8.87c-.1,0-.15.13-.08.2l10.1,10.12s.05.03.08.03h4.42c.1,0,.15-.12.08-.2l-6.78-6.8s0,0,0,0h1.05ZM211.06,371.05h-3.12c-.06,0-.12.05-.12.11v15.26c0,1.07.87,1.94,1.93,1.94h12.42c.06,0,.12-.05.12-.12v-3.13c0-.06-.05-.11-.12-.11h-10.89c-.06,0-.12-.05-.12-.11v-13.72c0-.06-.05-.11-.11-.11M196.69,371.16c-.09-.15-.31-.15-.4,0l-9.81,17.02c.05.08.06.1.1.18h3.6s.07-.04.1-.06l6.11-10.59h.2l4.1,7.12c-.05.08-.06.1-.1.18h-5.35s-.07.04-.1.06l-1.8,3.12c.04.08.05.1.09.18,2.91,0,11.55,0,12.96,0,.09,0,.14-.1.1-.17-1.06-1.84-9.8-17.02-9.8-17.02M264.21,371.05h-4.08s-.07.01-.09.04l-5.93,7.07c-.05.05-.13.05-.18,0l-5.93-7.07s-.05-.04-.09-.04c-.9,0-13.73,0-18.67,0-.07,0-.12.05-.12.11v3.13c0,.06.05.11.12.11h6.75c.06,0,.11.05.11.12v13.73c0,.06.05.12.12.12h3.12c.06,0,.11-.05.11-.12v-13.73c0-.06.05-.12.11-.12h6.77s.07.01.09.04l5.88,7.02s.03.05.03.08v6.71c0,.06.05.12.11.12h3.12c.06,0,.11-.05.11-.12v-6.71s0-.05.03-.08l8.56-10.22c.06-.08,0-.19-.09-.19M224.35,388.36h3.12c.06,0,.12-.05.12-.11v-17.08c0-.06-.05-.12-.12-.12h-3.12c-.06,0-.11.05-.11.12v17.08c0,.06.05.11.11.11M184.6,374.29v-3.13c0-.06-.05-.12-.11-.12h-9.7c-4.78,0-8.66,3.89-8.66,8.66s3.89,8.66,8.66,8.66h9.7c.06,0,.11-.05.11-.11v-3.13c0-.06-.05-.11-.11-.11h-9.7c-2.34,0-4.33-1.52-5.03-3.62h14.74c.06,0,.11-.05.11-.11v-3.13c0-.06-.05-.11-.11-.11h-14.74c.7-2.1,2.69-3.62,5.03-3.62h9.7c.06,0,.11-.05.11-.11" style="fill:#bcbec0;"/></svg>