<?xml version="1.0" encoding="UTF-8"?><svg id="a" xmlns="http://www.w3.org/2000/svg" viewBox="0 0 450 450"><path d="M166.44,425.82c.07,0,.14.06.14.13v3.61c0,.07-.06.13-.13.13l-11.49.05c-3.38,0-6.13,2.78-6.08,6.18.05,3.35,2.84,6,6.18,6h11.39c.07,0,.13.06.13.13v3.61c0,.07-.06.13-.13.13h-11.37c-5.64,0-10.23-4.62-10.06-10.27.16-5.25,4.38-9.49,9.61-9.66l11.82-.05ZM183.81,437.72c3.31,0,5.99-2.72,5.94-6.04-.05-3.27-2.77-5.86-6.04-5.86h-14.53c-.07,0-.13.06-.13.13v19.71c0,.07.06.13.13.13h3.6c.07,0,.13-.06.13-.13v-15.84c0-.07.06-.13.13-.13h10.71c1.12,0,2.08.87,2.13,2,.04,1.18-.9,2.15-2.07,2.15h-10.23c-.12,0-.18.15-.09.24l11.66,11.68s.06.04.09.04h5.09c.12,0,.18-.14.09-.23l-7.83-7.84s0,0,0,0h1.22ZM243.53,425.83h-3.6c-.07,0-.13.06-.13.13v17.61c0,1.23,1,2.23,2.23,2.23h14.33c.07,0,.13-.06.13-.13v-3.61c0-.07-.06-.13-.13-.13h-12.56c-.07,0-.13-.06-.13-.13v-15.84c0-.07-.06-.13-.13-.13M226.95,425.96c-.1-.18-.36-.18-.46,0l-11.32,19.64c.05.09.07.11.12.21h4.15s.08-.04.12-.07l7.05-12.22h.24l4.73,8.21c-.05.09-.07.11-.12.21h-6.17s-.08.04-.12.07l-2.07,3.6c.05.09.05.11.1.21,3.36,0,13.32,0,14.96,0,.1,0,.17-.11.12-.2-1.22-2.12-11.31-19.64-11.31-19.64M304.86,425.83h-4.71s-.08.02-.1.05l-6.84,8.16c-.05.06-.15.06-.2,0l-6.84-8.16s-.06-.05-.1-.05c-1.04,0-15.84,0-21.54,0-.08,0-.13.06-.13.13v3.61c0,.07.06.13.13.13h7.79c.07,0,.13.06.13.13v15.84c0,.07.06.13.13.13h3.6c.07,0,.13-.06.13-.13v-15.84c0-.07.06-.13.13-.13h7.82s.08.02.1.05l6.78,8.1s.03.05.03.09v7.74c0,.07.06.13.13.13h3.6c.07,0,.13-.06.13-.13v-7.74s.01-.06.03-.09l9.88-11.79c.07-.09.01-.22-.1-.22M258.87,445.8h3.6c.07,0,.13-.06.13-.13v-19.71c0-.07-.06-.13-.13-.13h-3.6c-.07,0-.13.06-.13.13v19.71c0,.07.06.13.13.13M213,429.56v-3.61c0-.07-.06-.13-.13-.13h-11.2c-5.51,0-10,4.48-10,9.99s4.48,9.99,10,9.99h11.2c.07,0,.13-.06.13-.13v-3.61c0-.07-.06-.13-.13-.13h-11.2c-2.7,0-4.99-1.75-5.8-4.18h17c.07,0,.13-.06.13-.13v-3.61c0-.07-.06-.13-.13-.13h-17c.81-2.43,3.11-4.18,5.8-4.18h11.2c.07,0,.13-.06.13-.13" style="fill:#bcbec0;"/></svg>