<?xml version="1.0" encoding="UTF-8"?><svg id="a" xmlns="http://www.w3.org/2000/svg" viewBox="0 0 220 220"><path d="M81.37,208.18s.07.03.07.06v1.76s-.03.07-.07.07l-5.62.02c-1.65,0-3,1.36-2.97,3.02.02,1.64,1.39,2.93,3.02,2.93h5.57s.07.03.07.06v1.77s-.03.06-.07.06h-5.56c-2.76,0-5-2.26-4.92-5.02.08-2.56,2.14-4.64,4.7-4.72l5.78-.02ZM89.86,214c1.62,0,2.93-1.33,2.9-2.95-.02-1.6-1.35-2.87-2.95-2.87h-7.1s-.07.03-.07.07v9.64s.03.06.07.06h1.76s.06-.03.06-.06v-7.74s.03-.07.06-.07h5.23c.55,0,1.02.43,1.04.98.02.58-.44,1.05-1.01,1.05h-5c-.06,0-.09.07-.05.11l5.7,5.71s.03.02.05.02h2.49c.06,0,.09-.07.05-.11l-3.83-3.83s0,0,0,0h.6ZM119.06,208.18h-1.76s-.07.03-.07.06v8.61c0,.6.49,1.09,1.09,1.09h7.01s.07-.03.07-.07v-1.77s-.03-.06-.07-.06h-6.14s-.07-.03-.07-.06v-7.74s-.03-.06-.06-.06M110.95,208.25c-.05-.09-.17-.09-.22,0l-5.53,9.6s.03.06.06.1h2.03s.04-.02.06-.03l3.45-5.97h.12l2.31,4.02s-.03.06-.06.1h-3.02s-.04.02-.06.03l-1.01,1.76s.03.05.05.1c1.64,0,6.51,0,7.31,0,.05,0,.08-.05.06-.1-.6-1.04-5.53-9.6-5.53-9.6M149.04,208.18h-2.3s-.04,0-.05.02l-3.34,3.99s-.07.03-.1,0l-3.34-3.99s-.03-.02-.05-.02c-.51,0-7.74,0-10.53,0-.04,0-.07.03-.07.06v1.76s.03.06.07.06h3.81s.06.03.06.07v7.74s.03.07.07.07h1.76s.06-.03.06-.07v-7.74s.03-.07.06-.07h3.82s.04,0,.05.02l3.32,3.96s.02.03.02.04v3.78s.03.07.06.07h1.76s.06-.03.06-.07v-3.78s0-.03.02-.04l4.83-5.77s0-.11-.05-.11M126.56,217.95h1.76s.07-.03.07-.06v-9.64s-.03-.07-.07-.07h-1.76s-.06.03-.06.07v9.64s.03.06.06.06M104.13,210.01v-1.77s-.03-.07-.06-.07h-5.47c-2.7,0-4.89,2.19-4.89,4.88s2.19,4.88,4.89,4.88h5.47s.06-.03.06-.06v-1.77s-.03-.06-.06-.06h-5.47c-1.32,0-2.44-.86-2.84-2.04h8.31s.06-.03.06-.06v-1.77s-.03-.06-.06-.06h-8.31c.4-1.19,1.52-2.04,2.84-2.04h5.47s.06-.03.06-.06" style="fill:#bcbec0;"/></svg>