<?xml version="1.0" encoding="UTF-8"?><svg id="a" xmlns="http://www.w3.org/2000/svg" viewBox="0 0 250 250"><path d="M92.47,236.57s.08.03.08.07v2s-.03.07-.07.07l-6.38.03c-1.88,0-3.41,1.55-3.38,3.43.03,1.86,1.58,3.33,3.43,3.33h6.33s.07.03.07.07v2.01s-.03.07-.07.07h-6.32c-3.13,0-5.68-2.57-5.59-5.7.09-2.91,2.43-5.27,5.34-5.37l6.56-.03ZM102.12,243.18c1.84,0,3.33-1.51,3.3-3.36-.03-1.82-1.54-3.26-3.35-3.26h-8.07s-.07.03-.07.07v10.95s.03.07.07.07h2s.07-.03.07-.07v-8.8s.03-.07.07-.07h5.95c.62,0,1.16.49,1.18,1.11.02.66-.5,1.2-1.15,1.2h-5.68c-.07,0-.1.08-.05.13l6.48,6.49s.03.02.05.02h2.83c.07,0,.1-.08.05-.13l-4.35-4.36s0,0,0,0h.68ZM135.29,236.57h-2s-.07.03-.07.07v9.78c0,.69.56,1.24,1.24,1.24h7.96s.07-.03.07-.07v-2.01s-.03-.07-.07-.07h-6.98s-.07-.03-.07-.07v-8.8s-.03-.07-.07-.07M126.09,236.64c-.06-.1-.2-.1-.25,0l-6.29,10.91c.03.05.04.06.07.11h2.31s.04-.02.06-.04l3.92-6.79h.13l2.63,4.56s-.04.06-.07.11h-3.43s-.04.02-.06.04l-1.15,2c.03.05.03.06.06.11,1.87,0,7.4,0,8.31,0,.06,0,.09-.06.06-.11-.68-1.18-6.28-10.91-6.28-10.91M169.37,236.57h-2.61s-.04,0-.06.03l-3.8,4.54s-.08.03-.11,0l-3.8-4.54s-.03-.03-.06-.03c-.58,0-8.8,0-11.97,0-.04,0-.07.03-.07.07v2s.03.07.07.07h4.33s.07.03.07.07v8.8s.03.07.07.07h2s.07-.03.07-.07v-8.8s.03-.07.07-.07h4.34s.04,0,.06.03l3.77,4.5s.02.03.02.05v4.3s.03.07.07.07h2s.07-.03.07-.07v-4.3s0-.03.02-.05l5.49-6.55s0-.12-.06-.12M143.81,247.67h2s.07-.03.07-.07v-10.95s-.03-.07-.07-.07h-2s-.07.03-.07.07v10.95s.03.07.07.07M118.33,238.65v-2.01s-.03-.07-.07-.07h-6.22c-3.06,0-5.55,2.49-5.55,5.55s2.49,5.55,5.55,5.55h6.22s.07-.03.07-.07v-2.01s-.03-.07-.07-.07h-6.22c-1.5,0-2.77-.97-3.22-2.32h9.45s.07-.03.07-.07v-2.01s-.03-.07-.07-.07h-9.45c.45-1.35,1.73-2.32,3.22-2.32h6.22s.07-.03.07-.07" style="fill:#bcbec0;"/></svg>