<?xml version="1.0" encoding="UTF-8"?><svg id="a" xmlns="http://www.w3.org/2000/svg" viewBox="0 0 300 300"><path d="M298.54,300h-74.09c-.98,0-1.41-1.25-.62-1.85l12.39-9.46c.64-.49,1.41-.75,2.21-.75h60.11c.81,0,1.46.65,1.46,1.46v9.13c0,.81-.65,1.46-1.46,1.46ZM60.57,288.53c.67,0,1.33.22,1.86.63l12.39,9.46c.24.18.18.43.15.5-.02.07-.13.31-.43.31H18.89c-.49,0-.95-.27-1.19-.69l-5.37-9.4c-.14-.24-.04-.46,0-.54.05-.08.19-.27.47-.27h47.78M61.57,287.95H11.79c-.86,0-1.39.93-.97,1.67l5.37,9.4c.35.61.99.98,1.7.98h57.66c.98,0,1.41-1.25.62-1.85l-12.39-9.46c-.64-.49-1.41-.75-2.21-.75h0Z" style="fill:#bcbec0;"/><path d="M246.02,291.67s-.02.05-.05.05l-4.24.02c-1.25,0-2.26,1.03-2.25,2.28.02,1.24,1.05,2.22,2.28,2.22h4.21s.05.02.05.05v1.33s-.02.05-.05.05h-4.2c-2.08,0-3.78-1.71-3.72-3.79.06-1.94,1.62-3.51,3.55-3.57l4.37-.02s.05.02.05.05v1.33ZM254.8,297.67h-1.88s-.03,0-.03-.01l-4.31-4.32s0-.08.03-.08h3.78c.43,0,.78-.36.77-.8-.02-.42-.37-.74-.79-.74h-3.96s-.05.02-.05.05v5.85s-.02.05-.05.05h-1.33s-.05-.02-.05-.05v-7.29s.02-.05.05-.05h5.37c1.21,0,2.21.96,2.23,2.17.02,1.23-.97,2.23-2.19,2.23h-.45s2.89,2.9,2.89,2.9c.03.03,0,.08-.03.08ZM263.18,291.67s-.02.05-.05.05h-4.14c-1,0-1.84.65-2.15,1.54h6.28s.05.02.05.05v1.33s-.02.05-.05.05h-6.28c.3.9,1.15,1.54,2.15,1.54h4.14s.05.02.05.05v1.33s-.02.05-.05.05h-4.14c-2.04,0-3.7-1.66-3.7-3.69s1.66-3.69,3.7-3.69h4.14s.05.02.05.05v1.33ZM272.48,297.67c-.6,0-4.28,0-5.53,0-.02-.03-.02-.04-.04-.08l.77-1.33s.03-.02.04-.02h2.28s.02-.04.04-.08l-1.75-3.04h-.09l-2.61,4.52s-.03.02-.04.03h-1.53s-.02-.04-.04-.08l4.18-7.26c.04-.06.13-.06.17,0,0,0,3.73,6.48,4.18,7.26.02.03,0,.07-.04.07ZM279.25,297.62s-.02.05-.05.05h-5.3c-.45,0-.82-.37-.82-.83v-6.51s.02-.05.05-.05h1.33s.05.02.05.05v5.85s.02.05.05.05h4.64s.05.02.05.05v1.33ZM281.51,297.62s-.02.05-.05.05h-1.33s-.05-.02-.05-.05v-7.28s.02-.05.05-.05h1.33s.05.02.05.05v7.28ZM293.52,294.72s-.01.02-.01.03v2.86s-.02.05-.05.05h-1.33s-.05-.02-.05-.05v-2.86s0-.02-.01-.03l-2.51-2.99s-.02-.02-.04-.02h-2.89s-.05.02-.05.05v5.85s-.02.05-.05.05h-1.33s-.05-.02-.05-.05v-5.85s-.02-.05-.05-.05h-2.88s-.05-.02-.05-.05v-1.33s.02-.05.05-.05h7.96s.03,0,.04.02l2.53,3.02s.05.02.07,0l2.53-3.02s.02-.02.04-.02h1.74s.06.05.04.08l-3.65,4.36Z" style="fill:#393939;"/><path d="M6.64,288.53c.44,0,.84.23,1.06.62l4.83,8.44c.22.38.22.84,0,1.22s-.62.61-1.06.61H1.81c-.44,0-.84-.23-1.06-.61s-.22-.84,0-1.22l4.83-8.44c.22-.39.62-.62,1.06-.62M6.64,287.95c-.61,0-1.22.3-1.57.91l-4.83,8.44c-.69,1.2.18,2.7,1.57,2.7h9.67c1.39,0,2.25-1.5,1.57-2.7l-4.83-8.44c-.35-.61-.96-.91-1.57-.91h0Z" style="fill:#bcbec0;"/><path d="M8.03,291.42c-.67.48-.7,1.14-.09,1.98.6.83.55,1.43-.15,1.81M6.75,291.42c-.67.48-.7,1.14-.09,1.98.6.83.55,1.43-.15,1.81M5.49,291.42c-.67.48-.7,1.14-.09,1.98.6.83.55,1.43-.15,1.81M2.59,298.11h8.09M9.87,297.04H3.5M4.28,296.05h4.82" style="fill:none; stroke:#bcbec0; stroke-linecap:round; stroke-miterlimit:10; stroke-width:.61px;"/></svg>