<?xml version="1.0" encoding="UTF-8"?><svg id="a" xmlns="http://www.w3.org/2000/svg" viewBox="0 0 450 450"><path d="M100.74,448.04H33.89l-.97,1.96h384.16l-.99-1.96h-66.83l-.56.95H101.31l-.56-.95ZM179.2,432.83c-1.09.08-1.93.67-2.52,1.78l-5.56,13.43h107.76l-5.33-13.51c-.54-1.2-1.82-1.77-3.86-1.71h-90.49ZM447.37,447.99h-15.54c-.21,0-.34-.22-.24-.41l7.77-13.9c.1-.19.37-.19.48,0l7.77,13.9c.1.18-.03.41-.24.41ZM18.19,447.99H2.65c-.21,0-.34-.22-.24-.41l7.77-13.9c.1-.19.37-.19.48,0l7.77,13.9c.1.18-.03.41-.24.41Z" style="fill:#bcbec0;"/><path d="M197.75,437.52s-.03.06-.06.06l-5.36.02c-1.58,0-2.86,1.3-2.84,2.88.02,1.56,1.32,2.8,2.88,2.8h5.31s.06.03.06.06v1.68s-.03.06-.06.06h-5.3c-2.63,0-4.77-2.16-4.69-4.79.07-2.45,2.04-4.42,4.48-4.5l5.51-.02s.06.03.06.06v1.68ZM208.83,445.09h-2.38s-.03,0-.04-.02l-5.44-5.45s-.01-.11.04-.11h4.77c.55,0,.99-.46.97-1.01-.02-.52-.47-.93-.99-.93h-4.99s-.06.03-.06.06v7.39s-.03.06-.06.06h-1.68s-.06-.03-.06-.06v-9.19s.03-.06.06-.06h6.78c1.52,0,2.79,1.21,2.81,2.73.02,1.55-1.23,2.82-2.77,2.82h-.57s3.65,3.66,3.65,3.66c.04.04.01.11-.04.11ZM219.4,437.52s-.03.06-.06.06h-5.22c-1.26,0-2.33.82-2.71,1.95h7.93s.06.03.06.06v1.68s-.03.06-.06.06h-7.93c.38,1.13,1.45,1.95,2.71,1.95h5.22s.06.03.06.06v1.68s-.03.06-.06.06h-5.22c-2.57,0-4.66-2.09-4.66-4.66s2.09-4.66,4.66-4.66h5.22s.06.03.06.06v1.68ZM231.13,445.09c-.76,0-5.41,0-6.97,0-.02-.04-.03-.05-.05-.1l.97-1.68s.03-.02.05-.03h2.88s.03-.05.06-.1l-2.21-3.83h-.11l-3.29,5.7s-.03.02-.05.03h-1.93s-.03-.05-.06-.1l5.28-9.16c.05-.08.17-.08.21,0,0,0,4.71,8.17,5.28,9.16.02.04,0,.09-.05.09ZM239.69,445.03s-.03.06-.06.06h-6.68c-.57,0-1.04-.47-1.04-1.04v-8.21s.03-.06.06-.06h1.68s.06.03.06.06v7.39s.03.06.06.06h5.86s.06.03.06.06v1.68ZM242.54,445.03s-.03.06-.06.06h-1.68s-.06-.03-.06-.06v-9.19s.03-.06.06-.06h1.68s.06.03.06.06v9.19ZM257.68,441.38s-.01.03-.01.04v3.61s-.03.06-.06.06h-1.68s-.06-.03-.06-.06v-3.61s0-.03-.02-.04l-3.16-3.78s-.03-.02-.05-.02h-3.65s-.06.03-.06.06v7.39s-.03.06-.06.06h-1.68s-.06-.03-.06-.06v-7.39s-.03-.06-.06-.06h-3.63s-.06-.03-.06-.06v-1.68s.03-.06.06-.06h10.05s.04,0,.05.02l3.19,3.81s.07.03.09,0l3.19-3.81s.03-.02.05-.02h2.19c.05,0,.08.06.05.1l-4.61,5.5Z" style="fill:#393939;"/><path d="M439.6,431.73c.37,0,.7.19.88.51l8.67,15.52c.18.32.17.68-.01,1-.18.32-.5.5-.87.5h-17.35c-.37,0-.68-.18-.87-.5s-.19-.68-.01-1l8.67-15.52c.18-.32.51-.51.88-.51M10.42,431.73c.37,0,.7.19.88.51l8.67,15.52c.18.32.17.68-.01,1s-.5.5-.87.5H1.75c-.37,0-.68-.18-.87-.5-.19-.32-.19-.68-.01-1l8.67-15.52c.18-.32.51-.51.88-.51M439.6,430.98c-.6,0-1.2.3-1.53.9l-8.67,15.52c-.65,1.17.19,2.61,1.53,2.61h17.35c1.34,0,2.18-1.44,1.53-2.61l-8.67-15.52c-.33-.6-.93-.9-1.53-.9h0ZM10.42,430.98c-.6,0-1.2.3-1.53.9L.22,447.39c-.65,1.17.19,2.61,1.53,2.61h17.35c1.34,0,2.19-1.44,1.53-2.61l-8.67-15.52c-.33-.6-.93-.9-1.53-.9h0Z" style="fill:#bcbec0;"/><path d="M441.34,437.94c-.86.61-.9,1.46-.11,2.54.77,1.06.71,1.84-.2,2.32M439.7,437.94c-.86.61-.9,1.46-.11,2.54.77,1.06.71,1.84-.2,2.32M438.09,437.94c-.86.61-.9,1.46-.11,2.54.77,1.06.71,1.84-.2,2.32M434.37,446.53h10.39M443.71,445.15h-8.18M436.53,443.89h6.19M12.17,437.94c-.86.61-.9,1.46-.11,2.54.77,1.06.71,1.84-.2,2.32M10.53,437.94c-.86.61-.9,1.46-.11,2.54.77,1.06.71,1.84-.2,2.32M8.91,437.94c-.86.61-.9,1.46-.11,2.54.77,1.06.71,1.84-.2,2.32M5.19,446.53h10.39M14.53,445.15H6.35M7.36,443.89h6.19" style="fill:none; stroke:#393939; stroke-linecap:round; stroke-linejoin:round; stroke-width:.5px;"/></svg>