<?xml version="1.0" encoding="UTF-8"?><svg id="a" xmlns="http://www.w3.org/2000/svg" viewBox="0 0 3000 3000"><path d="M1478.76,2858.64v15.56l35.17.03v24.35l-35.17-.03v14.21l48.7.05v25.02l-73.4-.07v-102.23h73.4v23.16l-48.7-.05ZM1627.57,2835.53v102.39l-24.02-.03v-58.06l-18.81,18.82h-5.68s-18.46-18.48-18.46-18.48v57.68l-24.36-.02v-102.31h24.36v10.83l20.97,20.97,21.98-21.98v-9.81h24.02ZM1634.34,2835.53v102.39l25.02.03v-39.23l29.09.02v39.24l23.68.02v-102.47h-77.79,0ZM1688.46,2874.39l-29.09-.03v-15.56l29.09.03v15.56ZM1766.55,2883.93l31.49.03v54.11l-21.65-.02v-25.03l-31.79-.02v25.02l-25.02-.02v-102.48h25.02v35.17l35.18-35.17h18.26v16.91l-31.49,31.49ZM1829.84,2858.96v15.56l35.17.02v24.36l-35.17-.03v14.2l48.7.05v25.03l-73.73-.07v-102.55h73.73v23.47l-48.7-.04ZM1446.29,2835.53v102.22l-23.68-.02v-9.19l-22.32-22.32-20.29,20.63v10.85l-24.69-.02v-102.15h24.69v55.47l20.12-20.13,22.49,22.49v-57.83h23.68ZM1213.54,2774.72l96.59,46.64c9.08,4.35,13.43,11.57,13.42,21.54-.02,32.88-.09,65.77,0,98.65,0,2.99-.99,4.4-3.67,5.66-29.01,13.7-57.96,27.52-86.89,41.39-7.08,3.39-13.94,3.42-21.02.02-29.43-14.14-58.9-28.22-88.38-42.25-1.64-.78-2.12-1.73-2.12-3.47.07-33.54.06-67.1.09-100.64,0-9.16,4.17-15.77,12.08-20.4,22.95-13.45,79.9-47.13,79.9-47.13ZM1131.54,2937.29c0,.81.84,1.34,1.56.99,5.94-2.85,27.3-13.11,38.23-18.41.91-.44,1.73-1.45,2.2-2.39l11.61-23.64c.28-.58,1.15-.4,1.18.25l.81,18.3,32.01-15.35c2.33-1.14,4.26-1.46,6.57-.06l7.05,3.39c.02-27.67.03-54.86.05-82.48,6.02,2.88,11.5,5.65,17.11,8.12,2.25.99,2.94,2.23,2.93,4.68-.11,25.49-.07,50.99-.14,76.49,0,2.43.95,3.22,3.6,4.47l16.74,8.03c.02-27.55.25-54.89.27-82.41,5.58,2.67,10.69,5.37,16,7.56,3.13,1.29,3.93,3.05,3.91,6.36-.19,25.02-.08,50.05-.2,75.06,0,2.37.75,3.48,2.87,4.41,0,0,13.24,6.24,16.49,7.82.55.27,1.18-.13,1.18-.74,0-9.36,0-95.39,0-95.39,0-5.83-2.72-9.81-7.99-12.3l-35.03-16.68-.79,16.75c-.05,1.01-1.4,1.3-1.84.39-2.73-5.6-8.11-16.62-10.71-21.79-.66-1.31-1.93-2.61-3.24-3.25l-41.54-19.85-.14,89.69c0,.93-.19,2.42-.76,2.71-6.22,3.14-12.53,6.11-19.32,9.36.02-27.74.03-54.93.05-82.51-6.24,2.98-12,5.81-17.86,8.44-1.95.88-2.5,2.01-2.49,4.1.06,25.68-.02,51.37.05,77.06,0,2.04-.7,2.98-2.46,3.78l-17.72,8.42c.02-27.58.03-54.96.05-82.48-4.32,2.03-8.21,3.94-12.16,5.71-5.55,2.48-8.12,6.6-8.11,12.74.06,27.83,0,84.06-.02,94.64ZM1303.78,2943.5c-6.99-3.33-13.33-6.28-19.6-9.39-1.54-.76-2.7-.66-4.21.06-18.42,8.84-36.89,17.59-55.31,26.44-1.61.77-2.84.77-4.46,0-18.49-8.92-37.02-17.78-55.58-26.57-1-.47-2.58-.44-3.61,0l-19.84,9.44s50.22,23.88,74.31,35.55c4.87,2.35,9.21,2.32,14.05-.04,0,0,69.44-34.1,74.23-35.49M1272.34,2928.63c-1.24-.68-2.03-1.15-2.87-1.55-14.76-7.07-29.55-14.08-44.27-21.24-2.02-.99-3.6-.88-5.54.06-14.83,7.15-29.7,14.2-44.56,21.3-.72.34-1.38.79-2.2,1.26.4.35.56.58.8.7,15.78,7.57,31.56,15.16,47.37,22.65.77.37,2.05.29,2.85-.08,14.8-6.99,29.56-14.05,44.33-21.1,1.24-.59,2.48-1.21,4.07-1.99M98.18,2804.21h5.18v37.6h-5.64v-31.29l-9.58,6.84v-5.99l10.04-7.16ZM128.39,2824.47c3.28-3.1,5.02-6.64,5.02-10.22,0-6.52-4.78-10.56-12.48-10.56s-12.69,4.19-12.69,11.5h5.64c0-5.31,3.83-6.43,7.05-6.43,4.29,0,6.84,2.09,6.84,5.6,0,2.24-1.16,4.61-3.27,6.67l-16.26,16.1v4.68h25.79v-5.07h-17.91l12.27-12.27ZM164.7,2815.91v14.2c0,7.65-4.94,12.22-13.21,12.22s-13.1-4.57-13.1-12.22v-14.2c0-7.65,4.94-12.22,13.21-12.22s13.1,4.57,13.1,12.22ZM159.07,2830.11v-14.2c0-4.55-2.72-7.15-7.47-7.15s-7.57,2.61-7.57,7.15v14.2c0,4.55,2.72,7.15,7.47,7.15s7.57-2.61,7.57-7.15ZM182.73,2811.4c0,4.57-3.17,7.77-7.71,7.77s-7.77-3.19-7.77-7.77,3.19-7.71,7.77-7.71,7.71,3.17,7.71,7.71ZM178.7,2811.4c0-2.23-1.48-3.73-3.68-3.73s-3.74,1.5-3.74,3.73,1.5,3.74,3.74,3.74,3.68-1.47,3.68-3.74ZM213.66,2816.32c0-7.91-5.32-12.64-14.24-12.64s-14.66,5.11-14.66,13.67v11.29c0,8.56,5.46,13.67,14.6,13.67s14.29-4.74,14.29-12.69h-5.64c0,4.84-3.16,7.62-8.66,7.62s-8.97-3.14-8.97-8.61v-11.29c0-5.47,3.29-8.61,9.02-8.61,5.39,0,8.61,2.83,8.61,7.57h5.64Z" style="fill:#bcbec0;"/><path d="M161.66,2212.95l-3.25,62.82c0,4.15-3.36,7.51-7.51,7.51s-7.51-3.36-7.51-7.51l-3.25-62.82c-.26-5.94,4.34-10.97,10.29-11.24,5.94-.26,10.97,4.34,11.24,10.29.01.32.01.63,0,.95ZM150.9,2294.13c-5.78,0-10.47,4.69-10.47,10.47s4.69,10.47,10.47,10.47,10.47-4.69,10.47-10.47c0-5.78-4.69-10.47-10.47-10.47h0,0ZM234.35,2336.21c5.86,0,11.33-3.15,14.26-8.23,2.93-5.08,2.94-11.38.01-16.46l-83.44-144.86c-2.93-5.09-8.4-8.25-14.27-8.25s-11.34,3.16-14.27,8.25l-83.44,144.86c-2.93,5.08-2.92,11.39.01,16.46,2.93,5.08,8.4,8.23,14.26,8.23h166.89ZM238.71,2317.23l-83.44-144.86c-1.94-3.37-6.8-3.37-8.74,0l-83.44,144.86c-1.94,3.36.49,7.56,4.37,7.56h166.89c3.88,0,6.3-4.2,4.37-7.56ZM234.35,2564.93c5.86,0,11.33-3.15,14.26-8.23,2.93-5.08,2.94-11.38.01-16.46l-83.44-144.86c-2.93-5.09-8.4-8.25-14.27-8.25s-11.34,3.16-14.27,8.25l-83.44,144.86c-2.93,5.08-2.92,11.39.01,16.46,2.93,5.08,8.4,8.23,14.26,8.23h166.89ZM238.71,2545.94l-83.44-144.86c-1.94-3.37-6.8-3.37-8.74,0l-83.44,144.86c-1.94,3.36.49,7.56,4.37,7.56h166.89c3.88,0,6.3-4.2,4.37-7.56ZM234.35,2793.65c5.86,0,11.33-3.15,14.26-8.23,2.93-5.08,2.94-11.38.01-16.46l-83.44-144.86c-2.93-5.09-8.4-8.25-14.27-8.25s-11.34,3.16-14.27,8.25l-83.44,144.86c-2.93,5.08-2.92,11.39.01,16.46,2.93,5.08,8.4,8.23,14.26,8.23h166.89ZM238.71,2774.66l-83.44-144.86c-1.94-3.37-6.8-3.37-8.74,0l-83.44,144.86c-1.94,3.36.49,7.56,4.37,7.56h166.89c3.88,0,6.3-4.2,4.37-7.56ZM196.33,2770.76v-4.84c0-1.03-.84-1.87-1.87-1.87h-87.12c-1.03,0-1.87.84-1.87,1.87v4.84c0,1.03.84,1.87,1.87,1.87h87.12c1.03,0,1.87-.84,1.87-1.87ZM128.11,2754.68h-5.47c4.76-8.64,8.7-19.23,3.83-28.19-5.11-9.02-9.96-18.75-.81-37.2,0,0,4.97.15,4.97.15-15.32,30.6,17.93,27.76-2.52,65.24ZM155.02,2720.5c-4.76-8.44-8.99-15.72-1.33-31.06,0,0-4.97-.15-4.97-.15-8.72,16.92-4.46,27.93-.3,35.21,6.33,9.3,2.53,20.86-2.72,30.18,0,0,5.47,0,5.47,0,5.85-10.63,9.79-23.23,3.85-34.18ZM178.07,2720.5c-4.76-8.44-8.99-15.72-1.33-31.06,0,0-4.97-.15-4.97-.15-8.72,16.92-4.46,27.93-.3,35.21,6.33,9.3,2.53,20.86-2.72,30.18,0,0,5.47,0,5.47,0,5.85-10.63,9.79-23.23,3.85-34.18ZM179.63,2471.96l-4.92,71.29h-14.56c.66-8.96,1.33-24.57,4.48-66.36.91-12.08-13.73-11.34-13.73-11.34,0,0-14.64-.74-13.73,11.34,3.14,41.79,3.82,56.8,4.48,66.36h-14.56l-4.92-71.29s-.59-20.28,28.73-20.28,28.73,20.28,28.73,20.28ZM117.59,2541.04l-1.54-22.25M110.32,2541.04l-1.54-22.25M185.75,2518.78l-1.54,22.25M191.49,2541.04l1.54-22.25M125.48,2519.94h14.73M161.61,2519.94h14.68" style="fill:none; stroke:#bcbec0; stroke-miterlimit:10; stroke-width:3px;"/></svg>