<?xml version="1.0" encoding="UTF-8"?><svg id="a" xmlns="http://www.w3.org/2000/svg" viewBox="0 0 2100 2100"><path d="M1035.13,2001.05v10.89l24.62.02v17.04l-24.62-.02v9.94l34.09.03v17.52l-51.38-.05v-71.56h51.38v16.21l-34.09-.03ZM1139.3,1984.87v71.67l-16.81-.02v-40.64l-13.17,13.17h-3.97s-12.92-12.94-12.92-12.94v40.38h-17.05v-71.63h17.05v7.58l14.68,14.68,15.39-15.39v-6.87h16.81ZM1144.04,1984.87v71.67l17.52.02v-27.46h20.36v27.48h16.57s0-71.71,0-71.71h-54.45,0ZM1181.92,2012.07l-20.36-.02v-10.89l20.36.02v10.89ZM1236.59,2018.75l22.04.02v37.88h-15.16v-17.54h-22.25s0,17.5,0,17.5h-17.52v-71.75h17.52v24.62l24.63-24.62h12.78v11.84l-22.04,22.04ZM1280.88,2001.27v10.89h24.62v17.06l-24.62-.02v9.94l34.09.03v17.52l-51.61-.05v-71.79h51.61v16.43l-34.09-.03ZM1012.4,1984.87v71.56h-16.57v-6.45l-15.63-15.63-14.2,14.44v7.59h-17.29v-71.52h17.29v38.83l14.08-14.09,15.74,15.74v-40.48h16.57ZM849.48,1942.31l67.61,32.65c6.35,3.04,9.4,8.1,9.39,15.08-.01,23.02-.07,46.04,0,69.06,0,2.1-.69,3.08-2.57,3.96-20.3,9.59-40.58,19.26-60.82,28.97-4.96,2.37-9.76,2.39-14.72.01-20.6-9.9-41.23-19.75-61.87-29.58-1.15-.55-1.48-1.21-1.48-2.43.05-23.48.04-46.97.07-70.45,0-6.41,2.92-11.04,8.46-14.28,16.07-9.42,55.93-32.99,55.93-32.99ZM792.08,2056.1c0,.57.58.94,1.09.69,4.16-2,19.11-9.17,26.76-12.88.64-.31,1.21-1.01,1.54-1.67l8.13-16.54c.2-.41.81-.28.83.17l.56,12.81,22.41-10.74c1.63-.8,2.99-1.02,4.6-.04l4.94,2.37c.01-19.37.02-38.4.03-57.74,4.21,2.02,8.05,3.95,11.97,5.69,1.58.69,2.06,1.56,2.05,3.28-.08,17.85-.05,35.69-.1,53.54,0,1.7.66,2.26,2.52,3.13l11.72,5.62c.01-19.28.17-38.42.19-57.69,3.91,1.87,7.49,3.76,11.2,5.29,2.19.9,2.75,2.14,2.73,4.45-.13,17.52-.06,35.03-.14,52.54,0,1.66.53,2.44,2.01,3.08,0,0,9.27,4.37,11.54,5.48.38.19.83-.09.83-.52,0-6.55,0-66.78,0-66.78,0-4.08-1.9-6.87-5.59-8.61l-24.52-11.68-.55,11.73c-.03.7-.98.91-1.29.27-1.91-3.92-5.68-11.63-7.5-15.25-.46-.92-1.35-1.83-2.27-2.27l-29.08-13.89-.1,62.78c0,.65-.13,1.69-.53,1.9-4.36,2.2-8.77,4.28-13.52,6.55.01-19.41.02-38.45.03-57.76-4.37,2.08-8.4,4.07-12.5,5.91-1.36.61-1.75,1.4-1.75,2.87.04,17.98-.01,35.96.03,53.94,0,1.43-.49,2.09-1.72,2.64l-12.4,5.89c.01-19.31.02-38.47.03-57.74-3.02,1.42-5.75,2.76-8.51,3.99-3.88,1.73-5.69,4.62-5.67,8.92.04,19.48,0,58.84-.01,66.25ZM912.65,2060.45c-4.89-2.33-9.33-4.4-13.72-6.57-1.08-.53-1.89-.46-2.95.04-12.9,6.19-25.82,12.31-38.72,18.51-1.13.54-1.99.54-3.12,0-12.94-6.25-25.91-12.45-38.91-18.6-.7-.33-1.81-.31-2.52,0l-13.89,6.61s35.15,16.72,52.02,24.88c3.41,1.65,6.45,1.62,9.83-.03,0,0,48.61-23.87,51.96-24.84M890.64,2050.04c-.87-.47-1.42-.8-2.01-1.09-10.33-4.95-20.69-9.86-30.99-14.87-1.42-.69-2.52-.61-3.88.04-10.38,5-20.79,9.94-31.19,14.91-.5.24-.97.55-1.54.88.28.24.4.41.56.49,11.05,5.3,22.09,10.61,33.16,15.86.54.26,1.44.2,2-.06,10.36-4.89,20.69-9.83,31.03-14.77.87-.42,1.73-.84,2.85-1.39M68.73,1962.94h3.63v26.32h-3.95v-21.9l-6.71,4.79v-4.2l7.03-5.01ZM89.87,1977.13c2.3-2.17,3.51-4.65,3.51-7.15,0-4.56-3.35-7.39-8.74-7.39s-8.88,2.93-8.88,8.05h3.95c0-3.72,2.68-4.5,4.94-4.5,3,0,4.79,1.47,4.79,3.92,0,1.57-.81,3.23-2.29,4.67l-11.38,11.27v3.27h18.05v-3.55h-12.54l8.59-8.59ZM115.29,1971.14v9.94c0,5.36-3.46,8.55-9.24,8.55s-9.17-3.2-9.17-8.55v-9.94c0-5.36,3.46-8.55,9.24-8.55s9.17,3.2,9.17,8.55ZM111.35,1981.07v-9.94c0-3.18-1.9-5.01-5.23-5.01s-5.3,1.83-5.3,5.01v9.94c0,3.18,1.9,5.01,5.23,5.01s5.3-1.82,5.3-5.01ZM127.91,1967.98c0,3.2-2.22,5.44-5.4,5.44s-5.44-2.24-5.44-5.44,2.24-5.4,5.44-5.4,5.4,2.22,5.4,5.4ZM125.09,1967.98c0-1.56-1.04-2.61-2.58-2.61s-2.61,1.05-2.61,2.61,1.05,2.62,2.61,2.62,2.58-1.03,2.58-2.62ZM149.56,1971.43c0-5.54-3.73-8.85-9.97-8.85s-10.26,3.58-10.26,9.57v7.91c0,5.99,3.82,9.57,10.22,9.57s10.01-3.32,10.01-8.88h-3.95c0,3.39-2.21,5.33-6.06,5.33s-6.28-2.2-6.28-6.02v-7.91c0-3.83,2.3-6.02,6.31-6.02,3.77,0,6.02,1.98,6.02,5.3h3.95Z" style="fill:#bcbec0;"/><path d="M113.16,1549.07l-2.27,43.97c0,2.91-2.35,5.26-5.26,5.26s-5.26-2.35-5.26-5.26l-2.27-43.97c-.18-4.16,3.04-7.68,7.2-7.87,4.16-.18,7.68,3.04,7.87,7.2,0,.22,0,.44,0,.67ZM105.63,1605.89c-4.05,0-7.33,3.28-7.33,7.33s3.28,7.33,7.33,7.33,7.33-3.28,7.33-7.33c0-4.05-3.28-7.33-7.33-7.33h0,0ZM164.04,1635.35c4.1,0,7.93-2.21,9.98-5.76,2.05-3.55,2.06-7.97,0-11.52l-58.41-101.4c-2.05-3.56-5.88-5.77-9.99-5.77s-7.94,2.21-9.99,5.77l-58.41,101.4c-2.05,3.56-2.04,7.97,0,11.52s5.88,5.76,9.98,5.76h116.82ZM167.1,1622.06l-58.41-101.4c-1.36-2.36-4.76-2.36-6.12,0l-58.41,101.4c-1.36,2.35.34,5.29,3.06,5.29h116.82c2.72,0,4.41-2.94,3.06-5.29ZM164.04,1795.45c4.1,0,7.93-2.21,9.98-5.76,2.05-3.55,2.06-7.97,0-11.52l-58.41-101.4c-2.05-3.56-5.88-5.77-9.99-5.77s-7.94,2.21-9.99,5.77l-58.41,101.4c-2.05,3.56-2.04,7.97,0,11.52s5.88,5.76,9.98,5.76h116.82ZM167.1,1782.16l-58.41-101.4c-1.36-2.36-4.76-2.36-6.12,0l-58.41,101.4c-1.36,2.35.34,5.29,3.06,5.29h116.82c2.72,0,4.41-2.94,3.06-5.29ZM164.04,1955.55c4.1,0,7.93-2.21,9.98-5.76,2.05-3.55,2.06-7.97,0-11.52l-58.41-101.4c-2.05-3.56-5.88-5.77-9.99-5.77s-7.94,2.21-9.99,5.77l-58.41,101.4c-2.05,3.56-2.04,7.97,0,11.52s5.88,5.76,9.98,5.76h116.82ZM167.1,1942.26l-58.41-101.4c-1.36-2.36-4.76-2.36-6.12,0l-58.41,101.4c-1.36,2.35.34,5.29,3.06,5.29h116.82c2.72,0,4.41-2.94,3.06-5.29ZM137.43,1939.53v-3.39c0-.72-.59-1.31-1.31-1.31h-60.99c-.72,0-1.31.59-1.31,1.31v3.39c0,.72.59,1.31,1.31,1.31h60.99c.72,0,1.31-.59,1.31-1.31ZM89.68,1928.27h-3.83c3.33-6.05,6.09-13.46,2.68-19.73-3.58-6.31-6.97-13.13-.57-26.04,0,0,3.48.1,3.48.1-10.73,21.42,12.55,19.43-1.76,45.67ZM108.51,1904.35c-3.33-5.91-6.3-11-.93-21.74,0,0-3.48-.1-3.48-.1-6.11,11.85-3.12,19.55-.21,24.65,4.43,6.51,1.77,14.6-1.9,21.13,0,0,3.83,0,3.83,0,4.09-7.44,6.86-16.26,2.7-23.93ZM124.65,1904.35c-3.33-5.91-6.3-11-.93-21.74,0,0-3.48-.1-3.48-.1-6.11,11.85-3.12,19.55-.21,24.65,4.43,6.51,1.77,14.6-1.9,21.13,0,0,3.83,0,3.83,0,4.09-7.44,6.86-16.26,2.7-23.93ZM125.74,1730.37l-3.44,49.9h-10.19c.46-6.27.93-17.2,3.13-46.45.64-8.45-9.61-7.94-9.61-7.94,0,0-10.24-.52-9.61,7.94,2.2,29.25,2.67,39.76,3.13,46.45h-10.19l-3.44-49.9s-.41-14.19,20.11-14.19,20.11,14.19,20.11,14.19ZM82.31,1778.73l-1.07-15.58M77.22,1778.73l-1.07-15.58M130.03,1763.15l-1.07,15.58M134.04,1778.73l1.07-15.58M87.84,1763.96h10.31M113.13,1763.96h10.27" style="fill:none; stroke:#bcbec0; stroke-miterlimit:10; stroke-width:2px;"/></svg>