<?xml version="1.0" encoding="UTF-8"?><svg id="a" xmlns="http://www.w3.org/2000/svg" xmlns:xlink="http://www.w3.org/1999/xlink" viewBox="0 0 511.99 511.99"><defs><linearGradient id="b" x1="3541.97" y1="4176.37" x2="3642.9" y2="4345.53" gradientTransform="translate(-854.06 -901.93) scale(.32)" gradientUnits="userSpaceOnUse"><stop offset=".03" stop-color="#00a2e4"/><stop offset=".08" stop-color="#00a5d4"/><stop offset=".18" stop-color="#48a9a3"/><stop offset=".33" stop-color="#89ac4a"/><stop offset=".4" stop-color="#9aaa00"/><stop offset=".48" stop-color="#9a0"/><stop offset=".56" stop-color="#96ab14"/><stop offset=".63" stop-color="#90ac33"/><stop offset=".7" stop-color="#86ac4f"/><stop offset=".78" stop-color="#76ab6e"/><stop offset=".85" stop-color="#5baa92"/><stop offset=".92" stop-color="#15a8b9"/><stop offset=".99" stop-color="#00a3e1"/><stop offset="1" stop-color="#00a2e4"/></linearGradient></defs><path d="M511.14,502.64c0,4.7-3.81,8.5-8.5,8.5h-10.07v.85h19.42v-19.42h-.85v10.07ZM9.35,511.14c-4.7,0-8.5-3.81-8.5-8.5v-10.07H0v19.42h19.42v-.85h-10.07ZM.85,9.35C.85,4.65,4.65.85,9.35.85h10.07v-.85H0v19.42h.85v-10.07ZM502.64.85c4.7,0,8.5,3.81,8.5,8.5v10.07h.85V0h-19.42v.85h10.07Z" style="fill:#009789;"/><path d="M217.99,475.84c-.57.28-1.85.59-3.52.59-4.74,0-7.18-2.95-7.18-6.85,0-4.68,3.34-7.28,7.49-7.28,1.61,0,2.83.33,3.38.61l-.63,2.46c-.63-.27-1.51-.51-2.6-.51-2.46,0-4.37,1.48-4.37,4.54,0,2.74,1.63,4.48,4.39,4.48.93,0,1.97-.2,2.58-.45l.46,2.42h0ZM223.11,462.52v7.89c0,2.36.89,3.56,2.48,3.56s2.52-1.14,2.52-3.56v-7.89h3.09v7.69c0,4.23-2.14,6.24-5.71,6.24s-5.49-1.91-5.49-6.29v-7.65h3.11ZM233.89,462.7c.81-.16,2.46-.28,4.01-.28,1.89,0,3.05.18,4.05.77.96.51,1.65,1.44,1.65,2.68s-.71,2.36-2.26,2.93v.04c1.57.43,2.73,1.61,2.73,3.38,0,1.24-.57,2.22-1.42,2.91-1,.79-2.67,1.24-5.39,1.24-1.53,0-2.67-.1-3.35-.2v-13.47h-.02ZM236.96,467.95h1.02c1.63,0,2.5-.67,2.5-1.69s-.79-1.59-2.2-1.59c-.67,0-1.06.04-1.32.08v3.19h0ZM236.96,474.03c.31.04.67.04,1.2.04,1.4,0,2.64-.53,2.64-1.97s-1.24-1.93-2.79-1.93h-1.06v3.87h0ZM249.29,462.52v13.71h-3.11v-13.71h3.11ZM261.75,475.78c-.65.33-1.95.65-3.62.65-3.86,0-6.77-2.44-6.77-6.94s2.91-7.2,7.16-7.2c1.71,0,2.79.37,3.25.61l-.43,1.44c-.67-.33-1.63-.57-2.77-.57-3.21,0-5.35,2.05-5.35,5.65,0,3.35,1.93,5.51,5.27,5.51,1.08,0,2.18-.22,2.89-.57l.37,1.4v.02ZM275.26,469.23c0,4.72-2.87,7.22-6.36,7.22s-6.16-2.81-6.16-6.96,2.7-7.2,6.36-7.2,6.16,2.86,6.16,6.93h0ZM264.62,469.45c0,2.93,1.59,5.55,4.37,5.55s4.39-2.58,4.39-5.69c0-2.73-1.42-5.57-4.37-5.57s-4.39,2.7-4.39,5.71h0ZM277.56,476.23v-13.71h1.93l6.69,11.07v-11.07h1.67v13.71h-1.79l-6.83-11.26v11.25h-1.67Z" style="fill:#bcbec0;"/><path id="c" d="M279.28,439.92l20.27,3.53c3.05.56,5.3,3.19,5.31,6.3l.05,30.4c0,2.35-1.29,4.37-3.59,4.83l-8.28,1.56c-.06.01-.11-.05-.08-.11h0c1.42-.83,2.29-2.36,2.29-4.01v-31.02c0-2.94-1.09-5.23-3.9-5.8l-22.15-3.82c-.12-.02-.12-.19,0-.21l8.69-1.65c.46-.09.94-.09,1.4-.01h-.01Z" style="fill:url(#b);"/><path d="M275.83,444.05l-6.02-1.06c-2.3-.41-3.71,1.47-3.71,3.8v12.13l9.71-1.9.02-12.98h0ZM294.34,482.55l-14.84-2.62-9.27,1.82c-.08.02-.08.14,0,.15l20.46,3.61c1.59.28,3.12-.73,3.49-2.3l.16-.66Z" style="fill:#00a2e4;"/></svg>