<?xml version="1.0" encoding="UTF-8"?><svg id="a" xmlns="http://www.w3.org/2000/svg" viewBox="0 0 590 760"><path d="M562.74,713.24c.45.45.7,1.11.7,1.83,0,.95-.36,1.83-1,2.48-.8.8-1.73,1.14-3.1,1.14h-1.1l1.46-6.28h.58c1.07,0,1.9.28,2.45.83M545.98,716.01c0-.56-.36-.88-1.05-.88s-1.27.49-1.54,1.27h2.54c.04-.14.05-.27.05-.39M579.99,699.51v33.46l-28.98,16.73-28.98-16.73v-33.46l28.98-16.73,28.98,16.73ZM528.77,700.6l7.58,4.37,14.75-8.51,14.75,8.51,7.54-4.35-22.33-12.89-22.29,12.87ZM558.38,712.55l-1.36,5.85h-.92l-.29,1.29h3.35c1.7,0,3.17-.45,4.22-1.5.9-.9,1.34-1.91,1.34-3.25,0-.96-.31-1.86-.95-2.5-.7-.7-1.78-1.18-3.33-1.18h-2.81l-.29,1.28h1.03ZM538.49,714.97l-1.15,4.86h1.45l.65-2.88c.29-1.16.95-1.91,1.37-2.03.07.34.44.68.92.65.46-.03.82-.42.84-.87.01-.58-.46-.97-.95-.97-.68,0-1.36.56-2.02,1.77l.37-1.67h-2.22l-.3,1.14h1.04ZM549.01,733.99l-14.71-8.49v-17.01l-7.85-4.53v26.22l22.56,13.02v-9.21ZM549.03,718.69c.54.01,1.01-.43,1.02-.98.01-.56-.44-1.02-1-1.02-.4,0-.71.24-.78.32-.64.53-2.28,1.92-3.63,1.88-1.08-.03-1.48-.85-1.48-1.49h3.9c.14-.45.21-.87.21-1.23,0-1.41-1-2.19-2.44-2.19-1.7,0-3.07,1.52-3.07,3.45,0,1.57,1.54,2.66,2.63,2.66,2.27,0,2.86-1.59,3.91-1.75.18.21.44.35.73.36M549.88,715.76c1.08.24.58,3.81,3.5,3.89,1.78.04,2.48-1.06,2.48-2.37,0-.71-.41-1.43-1.46-1.85,1.57-.22,2.17-1.14,2.17-1.99,0-1.2-1.06-2.04-2.62-2.04s-2.51.82-2.51,1.71c0,.63.43.85.8.85.43,0,.77-.34.77-.78,0-.16-.05-.33-.14-.45.16-.11.41-.2,1-.2.76,0,1.3.34,1.3.95,0,.88-.97,1.34-2.14,1.34h-.3l-.28,1.14h.37c1.13,0,1.74.57,1.74,1.34,0,.69-.29,1.3-1.28,1.36-1.67.1-1.96-3.96-3.74-4.66-.09-.04-.29-.04-.3-.04-.54,0-.98.45-.98.99s.45.99.99.99c.4,0,.62-.2.62-.2M575.57,704.02l-4.94,2.85-2.77,1.6v17.01l-14.85,8.57v9.15l22.56-13.02v-26.16ZM568.7,741.98c-2.21,0-4.01,1.8-4.01,4.01s1.8,4,4.01,4,4-1.79,4-4-1.76-4.01-4-4.01M568.7,749.25c-1.8,0-3.26-1.46-3.26-3.26s1.46-3.26,3.26-3.26,3.26,1.46,3.26,3.26-1.46,3.26-3.26,3.26M570.62,745.06c0-.89-.78-1.41-1.54-1.41h-1.87v4.56h.76v-1.78h.62l1.12,1.78h1.03l-1.19-1.78c.35-.07,1.08-.43,1.08-1.37M567.97,744.41h1.14c.38,0,.78.3.78.78,0,.44-.41.74-.78.74h-1.14v-1.52Z" style="fill:#e6e7e8; opacity:.75;"/><path d="M98.95,733.1h-1.06c-.63,0-1.14-.51-1.14-1.14v-12.23h-13.37v12.23c0,.63-.51,1.14-1.14,1.14h-1.06c-.63,0-1.14-.51-1.14-1.14v-31.14c0-.63.51-1.14,1.14-1.14h11.88c3.89,0,7.04,3.15,7.04,7.04v25.25c0,.63-.51,1.14-1.14,1.14M83.38,716.39h13.37v-9.85c0-1.94-1.58-3.52-3.52-3.52h-6.33c-1.94,0-3.52,1.58-3.52,3.52v9.85ZM39.04,733.1c3.89,0,7.04-3.15,7.04-7.04v-8.53c0-.63-.51-1.14-1.14-1.14h-7.74c-.63,0-1.14.51-1.14,1.14v1.06c0,.63.51,1.14,1.14,1.14h4.4c.63,0,1.14.51,1.14,1.14v5.72c0,1.75-1.42,3.17-3.17,3.17h-7.04c-1.75,0-3.17-1.42-3.17-3.17v-20.41c0-1.75,1.42-3.17,3.17-3.17h8.01c1.21,0,2.2.98,2.2,2.2,0,.63.51,1.14,1.14,1.14h1.06c.63,0,1.14-.51,1.14-1.14v-4.4c0-.63-.51-1.14-1.14-1.14h-11.88c-3.89,0-7.04,3.15-7.04,7.04v25.25c0,.63.51,1.14,1.14,1.14h11.88M69.48,733.1c3.89,0,7.04-3.15,7.04-7.04v-8.53c0-.63-.51-1.14-1.14-1.14h-7.74c-.63,0-1.14.51-1.14,1.14v1.06c0,.63.51,1.14,1.14,1.14h4.4c.63,0,1.14.51,1.14,1.14v5.72c0,1.75-1.42,3.17-3.17,3.17h-7.04c-1.75,0-3.17-1.42-3.17-3.17v-20.41c0-1.75,1.42-3.17,3.17-3.17h8.01c1.21,0,2.2.98,2.2,2.2,0,.63.51,1.14,1.14,1.14h1.06c.63,0,1.14-.51,1.14-1.14v-4.4c0-.63-.51-1.14-1.14-1.14h-11.88c-3.89,0-7.04,3.15-7.04,7.04v25.25c0,.63.51,1.14,1.14,1.14h11.88M51.79,733.1c.63,0,1.14-.51,1.14-1.14v-31.14c0-.63-.51-1.14-1.14-1.14h-1.06c-.63,0-1.14.51-1.14,1.14v31.14c0,.63.51,1.14,1.14,1.14h1.06M140.21,733.1h-5.98c-3.89,0-7.04-3.15-7.04-7.04v-19.35c0-3.89,3.15-7.04,7.04-7.04h11.88c.63,0,1.14.51,1.14,1.14v25.25c0,3.89-3.15,7.04-7.04,7.04M134.05,729.76h6.33c1.94,0,3.52-1.58,3.52-3.52v-19.71c0-1.94-1.58-3.52-3.52-3.52h-6.33c-1.94,0-3.52,1.58-3.52,3.52v19.71c0,1.94,1.58,3.52,3.52,3.52M161.32,733.1c.63,0,1.14-.51,1.14-1.14v-28.94h7.21c.63,0,1.14-.51,1.14-1.14v-1.06c0-.63-.51-1.14-1.14-1.14h-17.77c-.63,0-1.14.51-1.14,1.14v1.06c0,.63.51,1.14,1.14,1.14h7.21v28.94c0,.63.51,1.14,1.14,1.14h1.06M214.03,733.1c.63,0,1.14-.51,1.14-1.14v-31.14c0-.63-.51-1.14-1.14-1.14h-1.06c-.63,0-1.14.51-1.14,1.14v13.9h-9.85c-1.94,0-3.52-1.58-3.52-3.52v-10.38c0-.63-.51-1.14-1.14-1.14h-1.06c-.63,0-1.14.51-1.14,1.14v16.1c0,.63.51,1.14,1.14,1.14h15.57v13.9c0,.63.51,1.14,1.14,1.14h1.06M123.7,711.03v-4.32c0-3.89-3.15-7.04-7.04-7.04h-11.88c-.63,0-1.14.51-1.14,1.14v31.16c0,.63.51,1.14,1.14,1.14h17.77c.63,0,1.14-.51,1.14-1.14v-10.22c0-2.15-.98-4.07-2.5-5.36,1.52-1.29,2.5-3.21,2.5-5.36ZM106.98,714.72v-11.72h9.85c1.94,0,3.52,1.58,3.52,3.52v4.68c0,1.94-1.58,3.52-3.52,3.52h-9.85ZM120.35,726.25c0,1.94-1.58,3.52-3.52,3.52h-9.85v-11.72h9.85c1.94,0,3.52,1.58,3.52,3.52v4.68ZM181.03,702.94c0-1.81-1.45-3.26-3.34-3.26s-3.36,1.45-3.36,3.26,1.49,3.3,3.36,3.3,3.34-1.45,3.34-3.3M175.18,702.94c0-1.43,1.07-2.6,2.52-2.6s2.5,1.17,2.5,2.62-1.05,2.58-2.48,2.58-2.54-1.15-2.54-2.6M178.45,703c.4-.12.67-.4.67-.75,0-.32-.14-.58-.32-.71-.24-.14-.52-.24-1.13-.24-.54,0-.95.04-1.25.1v3.26h.75v-1.31h.36c.42,0,.62.16.68.52.1.38.16.68.26.79h.81c-.08-.12-.14-.32-.24-.81-.1-.44-.28-.71-.6-.83ZM177.2,701.87c.08-.02.22-.04.42-.04.48,0,.7.2.7.5,0,.34-.34.48-.75.48h-.36v-.93Z" style="fill:#fed402; opacity:.75;"/></svg>