<?xml version="1.0" encoding="UTF-8"?><svg id="a" xmlns="http://www.w3.org/2000/svg" viewBox="0 0 1000 1024"><path d="M750.83,947.16h22.68c4.54,0,3.03,4.53,0,4.53h-22.68v16.61h7.57v-10.57h15.11l10.59,15.1h7.56l-10.59-15.1c3.02,0,4.54,0,4.54-4.53v-9.06c0-3.02-3.02-4.53-7.56-4.53h-27.22v7.55h0ZM838.57,945.65v22.65h7.57v-19.63l16.64,19.63s3.04,1.52,4.54,1.52h1.52c3.04,0,7.57-4.53,7.57-7.55v-22.66h-9.09v21.14c-6.05-4.53-15.13-21.14-21.18-21.14h-1.52c-3.02,0-6.04,3.02-6.04,6.04h0ZM896.05,951.69l-15.13,16.61h10.59l10.59-10.57,9.08,10.57h9.07l-12.1-15.1,12.1-13.59h-10.59l-7.57,7.55-9.07-7.55h-10.59l13.61,12.08ZM926.31,950.18c0,3.02,4.54,7.55,7.56,7.55h18.15c4.54,0,10.59-3.02,10.59-7.55v-10.57h-10.59v7.55c0,3.02-1.51,4.53-4.54,4.53h-9.08c-3.02,0-4.54-1.51-4.54-4.53v-7.55h-7.56v10.57ZM793.19,950.18v10.57c0,3.02,4.54,7.55,7.56,7.55h21.18c7.56,0,10.6-3.02,10.6-10.57v-9.06c0-4.53-6.05-9.06-12.1-9.06h-18.16c-4.54,0-9.07,4.53-9.07,10.57h0ZM800.75,951.7c0-3.02,1.51-4.53,4.54-4.53h13.61c3.02,0,4.54,1.51,4.54,4.53v6.04c0,3.02-1.51,4.53-4.54,4.53h-12.1c-3.03,0-6.05-3.02-6.05-6.04v-4.53h0ZM699.4,947.16h13.61v21.14h7.57v-28.7h-21.18v7.55ZM723.6,968.3h7.56v-21.14h13.62v-7.55h-21.18v28.7ZM943.88,962.02h0c4.16,0,7.54,1.69,7.54,3.77h0c0,2.08-3.37,3.77-7.54,3.77h0c-4.16,0-7.54-1.69-7.54-3.77h0c0-2.08,3.37-3.77,7.54-3.77Z" style="fill:#0057a6;"/></svg>