<?xml version="1.0" encoding="UTF-8"?><svg id="a" xmlns="http://www.w3.org/2000/svg" viewBox="0 0 2250 2250"><path d="M1099.04,2164.07c-16.01,0-29,12.01-29,26.82s12.99,26.81,29,26.81,29-12,29-26.81-12.98-26.82-29-26.82M1099.04,2211.2c-9.17,0-16.61-9.09-16.61-20.32s7.44-20.32,16.61-20.32,16.61,9.09,16.61,20.32-7.44,20.32-16.61,20.32M1250.02,2191.41v6.72h-.05c-3.44,11.48-14.78,19.91-28.29,19.91-16.23,0-29.38-12.16-29.38-27.16s13.15-27.16,29.38-27.16c12.27,0,22.77,6.96,27.17,16.84h-12.63c-2.91-6.13-8.33-10.26-14.54-10.26-9.29,0-16.83,9.22-16.83,20.58s7.54,20.59,16.83,20.59c7.2,0,13.33-5.55,15.73-13.33h-15.73v-6.72h28.34ZM1068.74,2209.7v7.25h-32.57v-52.43h11.9v45.17h20.67ZM1270.55,2171.78v16h25.05v5.91h-25.05v16h28.41v7.25h-40.31v-52.43h40.31v7.26h-28.41ZM1184.99,2217.43h-8.41v.03l-.03-.03h-.05v-.05l-33.13-33.55v33.6h-8.5v-52.77h8.5v.08l33.13,33.38v-33.46h8.5v52.77ZM1341.95,2194.22c7.03-2.81,10.27-8.91,10.27-14.49,0-6.97-5.12-15.18-19.98-15.16-3.17,0-18.86-.05-24.41,0v52.46h11.85v-21.16h12.13l12.2,21.08h10.92s-4.55-7.6-5.95-10.06M1329.66,2190.1h-9.98v-20.49h9.8c7.03,0,11.22,4.67,11.22,10.26s-4.95,10.22-11.04,10.22M944.88,2147.32c1.68-.45,3.39-.68,5.11-.68s3.44.23,5.12.68l7.08,1.92c1.73.47,1.78,2.91.07,3.44l-42.79,13.39c-3.37,1.06-5.65,4.17-5.65,7.7v35.51c.02,3.59,2.15,6.84,5.44,8.27l25.76,11.24c3.17,1.38,6.78,1.38,9.95-.02l26.72-11.78c2.75-1.22,4.53-3.94,4.53-6.95v-18.91c0-1.95-2-3.27-3.79-2.5l-10.39,4.46c-2.18.93-3.59,3.07-3.59,5.43v4.8c0,2.48-1.48,4.71-3.75,5.69l-9.48,4.07c-1.22.53-2.51.85-3.8.97v-25.59c0-3.24,1.94-6.09,4.95-7.27l46.43-18.32c.99,1.53,1.55,3.35,1.55,5.27v48.15c0,5.25-3.07,10.02-7.85,12.2l-39.54,18c-4.42,2.02-9.49,2.02-13.92,0l-41.41-18.81c-3.72-1.69-6.12-5.4-6.12-9.49v-51.84c0-3.35,2.25-6.28,5.49-7.16l43.88-11.88M981.32,2157.27c1.65-.59,3.37-.89,5.11-.89,1.35,0,2.69.18,4,.53l6.78,1.86c1.34.36,2.55,1,3.57,1.84l-45.45,17.93c-4.1,1.62-6.74,5.5-6.74,9.91v25.53c-1.28-.17-2.54-.52-3.73-1.08l-9.35-4.37c-2.18-1.02-3.57-3.21-3.57-5.62v-22.63c0-3.21,2.02-6.07,5.04-7.15l44.34-15.87M495.5,2194.62h364.81v5.39h-364.81v-5.39ZM1389.69,2200.02h364.81v-5.39h-364.81v5.39Z" style="fill:#bcbec0;"/></svg>