<?xml version="1.0" encoding="UTF-8"?><svg id="a" xmlns="http://www.w3.org/2000/svg" viewBox="0 0 491.52 491.52"><path id="b" d="M343.14,484.67v-2.04l13.12-13.39h-11.81v-3.35h18.83v1.86l-13.3,13.39h13.3v3.53h-20.14ZM367.26,476.85v-3.75h8.47v3.75h-8.47ZM382.11,484.67v-18.77h16.07c2.81,0,4.22,1.21,4.22,3.64v2.29c0,1.84-1.08,2.9-3.24,3.17,2.25.29,3.38,1.49,3.38,3.6v2.4c0,2.45-1.84,3.67-5.53,3.67h-14.9ZM396.36,468.95h-9.96v4.48h9.96c1.33,0,2-.45,2-1.35v-1.78c0-.9-.67-1.35-2-1.35h0ZM396.36,476.52h-9.96v4.77h9.96c1.33,0,2-.48,2-1.43v-1.9c0-.96-.67-1.43-2-1.43h0ZM414.74,481.14h14.39v-11.9h-14.39v11.9ZM410.38,470.34c.06-3.61,1.07-4.37,4.65-4.44,0,0,13.81,0,13.81,0,3.58.07,4.6.82,4.65,4.44,0,0,0,9.9,0,9.9-.06,3.61-1.07,4.37-4.65,4.44,0,0-13.81,0-13.81,0-3.58-.07-4.6-.82-4.65-4.44,0,0,0-9.9,0-9.9ZM442.5,484.67v-18.77h4.36v15.24h14.07v3.53h-18.43ZM475.85,469.24v15.43h-4.36v-15.43h-8.61v-3.35h21.63v3.35h-8.65Z" style="fill:#bcbec0; fill-rule:evenodd;"/></svg>