<?xml version="1.0" encoding="UTF-8"?><svg id="a" xmlns="http://www.w3.org/2000/svg" viewBox="0 0 936.72 936"><g style="opacity:.25;"><rect width="936.72" height="936.72" style="fill:#d6d6d6;"/><path d="M937.22,937.22H-.5V-.5h937.72v937.72ZM.5,936.22h935.72V.5H.5v935.72Z" style="fill:#d6d6d6;"/></g><path d="M67.99,854.31c-2.65-1.18-5.85-1.77-9.6-1.77h-16.69v42.81h6.12v-12.96c5.55-.13,15.47.71,20.18-1.8,11.07-4.57,11.07-21.7,0-26.27ZM67.11,874.55c-2.02,1.67-4.98,2.51-8.9,2.51h-10.4v-19.2h10.4c3.91,0,6.88.84,8.9,2.51,4.04,3.02,4.04,11.17,0,14.19ZM111.53,880.55c2.65-1.18,4.69-2.88,6.12-5.11,3.6-5.46,2.66-15.03-2.63-18.96-3.18-2.63-7.54-3.94-13.09-3.94h-16.69v42.81h6.12v-13.03c2.08-.03,11.42.1,13.3-.11,0,0,9.21,13.14,9.21,13.14h6.67l-10.18-14.36c.4-.14.81-.27,1.19-.44ZM101.75,877.12h-10.4v-19.26h10.4c6.92-.01,11.85,2.7,11.92,9.6-.07,6.9-4.99,9.68-11.92,9.66ZM170.03,865.23c-5.7-14.47-26.65-17.43-37.33-6.91-6.4,5.95-8.23,16.35-4.77,24.31,3.49,8.34,12.05,13.33,21.1,13.21,16.55.26,27.06-15.4,21.01-30.61ZM164.34,880.48c-4.13,10.73-19.34,13.18-27.24,5.23-10.26-10.41-3.09-28.49,11.86-28.22,12.14-.29,19.87,12.04,15.38,22.99ZM786.93,889.69c-3.17,4.63-8.61,6.14-14.8,6.15-5.64.04-12.48-1.79-16.39-5.38,0,0,2.26-4.77,2.26-4.77,3.53,3.08,9.2,5.02,14.13,4.95,4.97.03,10.41-1.27,10.58-6.6.02-3.18-2.39-4.65-5.17-5.72-7.72-2.76-20.99-2.89-20.76-14.03.29-14.24,20.86-14.68,30.15-8.44,0,0-2.02,4.89-2.02,4.89-4.92-3.38-12.35-4.47-17.67-2.57-4.1,1.24-6.02,6.48-3.03,9.48,2.26,2.1,5.62,2.75,8.77,3.58,3.51.87,7.49,1.73,10.61,3.52,5.34,2.66,6.6,10.01,3.33,14.95ZM792.31,852.54h15.72v42.81h-6.05v-37.49h-9.66v-5.32ZM845.02,854.62c-8.48-5.45-20.11-2.01-24.12,7.46-3.06,6.18-3.06,17.55,0,23.73,4.02,9.47,15.64,12.92,24.13,7.46,6.22-4.17,8.5-11.32,8.5-19.32,0-8-2.28-15.16-8.5-19.32ZM845.97,883.05c-2.29,6.81-10.05,9.5-15.81,5.5-6.38-4.69-6.44-16.84-4-23.73,3.4-9.78,16.43-9.82,19.81,0,1.92,4.6,1.92,13.63,0,18.22ZM893.27,862.08c-3.97-9.48-15.71-12.91-24.13-7.46-6.18,4.18-8.54,11.33-8.53,19.32-.01,7.99,2.35,15.15,8.53,19.32,5.1,3.42,12.76,3.43,17.89,0,9.37-5.91,10.36-21.78,6.24-31.19ZM887.98,883.05c-2.29,6.81-10.05,9.5-15.81,5.5-6.39-4.69-6.44-16.84-4.01-23.73,3.4-9.78,16.43-9.82,19.81,0,1.92,4.6,1.91,13.63,0,18.22ZM578.01,25.53h9.64v26.25h-3.71v-22.99h-5.93v-3.26ZM611.84,26.81c-5.11-3.34-12.42-1.2-14.8,4.58-1.88,3.79-1.88,10.76,0,14.55,2.37,5.78,9.69,7.92,14.8,4.58,7.04-4.49,7.04-19.21,0-23.7ZM612.42,44.25c-1.32,4.15-6.25,5.82-9.7,3.38-3.91-2.88-3.95-10.33-2.46-14.55,2-5.97,10.16-6,12.15,0,1.18,2.82,1.18,8.36,0,11.18ZM639.11,26.81c-5.11-3.34-12.42-1.2-14.8,4.58-1.88,3.79-1.88,10.76,0,14.55,2.37,5.78,9.69,7.92,14.8,4.58,7.04-4.49,7.04-19.21,0-23.7ZM639.69,44.25c-1.32,4.15-6.25,5.82-9.7,3.38-3.91-2.88-3.95-10.33-2.46-14.55,2-5.97,10.16-6,12.15,0,1.18,2.82,1.18,8.36,0,11.18ZM666.38,26.81c-5.11-3.34-12.42-1.2-14.8,4.58-1.88,3.79-1.88,10.76,0,14.55,2.37,5.78,9.69,7.92,14.8,4.58,7.04-4.49,7.04-19.21,0-23.7ZM666.96,44.25c-1.32,4.15-6.25,5.82-9.7,3.38-3.91-2.88-3.95-10.33-2.46-14.55,2-5.97,10.16-6,12.15,0,1.18,2.82,1.18,8.36,0,11.18ZM700.25,41.62l7.9,10.17h-4.09l-5.75-7.62-5.8,7.62h-4.01l7.83-10.16-7.45-9.72h4.01l5.46,7.17,5.46-7.17h3.94l-7.49,9.71ZM723.57,25.53h9.64v26.25h-3.71v-22.99h-5.93v-3.26ZM757.4,26.81c-5.11-3.34-12.42-1.2-14.8,4.58-1.88,3.79-1.88,10.76,0,14.55,2.37,5.78,9.69,7.92,14.8,4.58,7.04-4.49,7.04-19.21,0-23.7ZM757.98,44.25c-1.32,4.15-6.25,5.82-9.7,3.38-3.91-2.88-3.95-10.33-2.46-14.55,2-5.97,10.16-6,12.15,0,1.18,2.82,1.18,8.36,0,11.18ZM784.67,26.81c-5.11-3.34-12.42-1.2-14.8,4.58-1.88,3.79-1.88,10.76,0,14.55,2.37,5.78,9.69,7.92,14.8,4.58,7.04-4.49,7.04-19.21,0-23.7ZM785.25,44.25c-1.32,4.15-6.25,5.82-9.7,3.38-3.91-2.88-3.95-10.33-2.46-14.55,2-5.97,10.16-6,12.15,0,1.18,2.82,1.18,8.36,0,11.18ZM811.94,26.81c-5.11-3.34-12.42-1.2-14.8,4.58-1.88,3.79-1.88,10.76,0,14.55,2.37,5.78,9.69,7.92,14.8,4.58,7.04-4.49,7.04-19.21,0-23.7ZM812.52,44.25c-1.32,4.15-6.25,5.82-9.7,3.38-3.91-2.88-3.95-10.33-2.46-14.55,2-5.97,10.16-6,12.15,0,1.18,2.82,1.18,8.36,0,11.18ZM866.21,40.35v11.44h-3.6v-11.03c0-1.92-.45-3.38-1.35-4.35-2.31-2.48-7.6-1.75-9.02,1.5-.49.98-.73,2.19-.73,3.64v10.24h-3.6s0-11.03,0-11.03c.01-3.57-1.59-5.8-5.14-5.81-3.75-.1-6.12,2.88-5.96,6.6v10.24h-3.6v-19.88h3.45s0,2.98,0,2.98c2.98-4.31,11.3-4.37,13.75.53,2.35-3.67,8.1-4.67,11.9-2.76,2.84,1.5,3.9,4.28,3.9,7.69ZM905.1,40.35v11.44h-3.6v-11.03c0-1.92-.45-3.38-1.35-4.35-2.31-2.48-7.6-1.75-9.02,1.5-.49.98-.73,2.19-.73,3.64v10.24h-3.6s0-11.03,0-11.03c.01-3.57-1.59-5.8-5.14-5.81-3.75-.1-6.12,2.88-5.96,6.6v10.24h-3.6v-19.88h3.45v2.98c.59-.85,1.37-1.54,2.33-2.08,3.56-1.97,9.5-1.39,11.42,2.61,3.06-4.72,11.98-5.24,14.77.09.69,1.27,1.03,2.89,1.03,4.84ZM156.36,499.3v-120.22h30.3c8.65,0,15.04.47,19.18,1.4,8.97,1.97,15.38,7.17,19.21,15.36,4.29,8.89,4.33,22.89-1.35,30.75-2.96,4.3-7.25,7.3-12.89,8.99,14.82,2.25,22.71,14.62,22.58,29.57.11,14.12-7.82,28.35-22.01,32.11-9.44,3.07-42.34,1.81-55.02,2.05ZM175.49,429.83h7.47c9.31,0,15.89-1.27,19.75-3.82s5.79-6.83,5.79-12.85c0-6.57-1.78-11.18-5.34-13.84-3.56-2.66-10.29-3.98-20.2-3.98h-7.47v34.49ZM175.49,482.96h6.73c6.84,0,11.96-.27,15.36-.82,3.39-.55,6.08-1.5,8.04-2.87,10.77-7.03,9.94-26.18-1.64-31.94-5.11-2.41-9.25-2.63-15.85-2.71-3.13,0-9.5,0-12.65,0,0,0,0,38.35,0,38.35ZM316.49,499.3v-17.49h-43.69v-102.73h-19.54v120.22h63.23ZM582.14,388.44c-33.15-23.71-82.51-12.69-98.09,25.99-16.7,43.41,11.94,88.52,59.58,87.91,13.86,0,26.26-3.35,37.28-11.25,0,0,0-22.09,0-22.09-18.7,17.12-51.02,22.2-69.18,2.54-8.02-8.43-12.03-19.13-12.03-32.11-.42-26.12,18.23-45.8,44.42-45.41,13.96,0,26.19,4.96,36.95,14.12,0,0,1.07-19.71,1.07-19.71ZM624.84,499.3v-61.42l47.54,61.42h25.21l-53.29-66.76,47.63-53.46h-23.9l-43.19,49.76v-49.76h-19.54v120.22h19.54ZM702.68,475c2.03,8.76,6.31,15.49,12.85,20.2,13.65,10.38,42.34,9.29,54.24-3,11.81-10.15,15.02-34.32,4.1-46.72-4.3-5.44-15.38-12.12-26.94-17.2-13.57-6.24-20.36-12.98-20.36-20.2,0-4.6,1.54-8.27,4.64-11.01,5.1-4.81,16.18-5.52,22.42-1.47,2.88,1.75,5.52,4.52,7.92,8.29l15.27-7.88c-5.31-14.43-18.97-19.85-34.65-19.87-10.79,0-19.5,3.04-26.16,9.12-6.65,6.08-9.98,14.02-9.98,23.82.49,19.87,12.7,26.1,33.09,36.71,11.53,4.89,21.75,12.23,21.35,20.69.09,11.11-7.89,17.96-18.97,17.82-6.13,0-11.16-1.41-15.11-4.23-3.94-2.82-6.65-6.92-8.13-12.28l-15.6,7.23M461.76,501.98h-121.56v-125.57h121.56v125.57ZM361.22,480.95h79.52v-83.52h-79.52v83.52Z" style="fill:#bcbec0;"/></svg>