<?xml version="1.0" encoding="UTF-8"?><svg id="a" xmlns="http://www.w3.org/2000/svg" viewBox="0 0 936.72 936"><g style="opacity:.25;"><rect width="936.72" height="936.72" style="fill:#d6d6d6;"/><path d="M937.22,937.22H-.5V-.5h937.72v937.72ZM.5,936.22h935.72V.5H.5v935.72Z" style="fill:#d6d6d6;"/></g><path d="M67.99,880.55c2.65-1.18,4.69-2.88,6.12-5.11,3.6-5.46,2.66-15.03-2.63-18.96-3.18-2.63-7.54-3.94-13.09-3.94h-16.69v42.81h6.12v-13.03c2.08-.03,11.42.1,13.3-.11,0,0,9.21,13.14,9.21,13.14h6.67l-10.18-14.36c.4-.14.81-.27,1.19-.44ZM58.21,877.12h-10.4v-19.26h10.4c6.92-.01,11.85,2.7,11.92,9.6-.07,6.9-4.99,9.68-11.92,9.66ZM116.27,855.23c-3.49-1.79-7.51-2.69-12.08-2.69h-18.04v42.81h18.04c4.57,0,8.59-.9,12.08-2.69,14.75-7.15,14.75-30.28,0-37.42ZM119.05,882.35c-3.18,5.33-8.79,7.7-15.23,7.67,0,0-11.56,0-11.56,0v-32.17h11.56c9.64-.28,17.61,6.25,17.37,16.08,0,3.18-.71,5.98-2.14,8.41ZM161.43,889.2c-5.69,9.44-22.54,7.94-30.15,1.44,0,0,2.81-4.83,2.81-4.83,4.69,4.47,15.07,6.43,20.36,2.51,2.94-2.11,3.4-6.82,1.47-9.72-2.65-3.37-6.78-3.52-11.8-3.67h-9.72l2.26-22.38h24.16v5.32h-19.01s-1.18,11.74-1.18,11.74c4.74-.09,11.65-.04,15.12,1.65,7.39,2.69,9.34,11.64,5.69,17.95ZM200.94,862.08c-3.97-9.48-15.71-12.91-24.13-7.46-6.18,4.18-8.54,11.33-8.53,19.32-.01,7.99,2.35,15.15,8.53,19.32,5.1,3.42,12.76,3.43,17.89,0,9.37-5.91,10.36-21.78,6.24-31.19ZM195.65,883.05c-2.29,6.81-10.05,9.5-15.81,5.5-6.38-4.69-6.44-16.84-4-23.73,3.4-9.78,16.43-9.82,19.81,0,1.92,4.6,1.92,13.63,0,18.22ZM634.31,50.98c-4.32,2.09-11.52,1.16-15.21-2.08,0,0,1.72-2.96,1.72-2.96,2.87,2.74,9.24,3.95,12.49,1.54,2.67-2.07,1.98-6.77-1.56-7.63-2.2-.86-8.06-.51-10.75-.58l1.39-13.73h14.82v3.26h-11.66s-.72,7.2-.72,7.2c2.88-.06,7.19-.02,9.27,1.01,6.17,2.22,5.96,11.4.21,13.97ZM660.24,26.81c-5.11-3.34-12.42-1.2-14.8,4.58-1.88,3.79-1.88,10.76,0,14.55,2.37,5.78,9.69,7.92,14.8,4.58,7.04-4.49,7.04-19.21,0-23.7ZM660.83,44.25c-1.32,4.15-6.25,5.82-9.7,3.38-3.92-2.88-3.95-10.33-2.46-14.55,2-5.97,10.16-6,12.15,0,1.17,2.82,1.17,8.36,0,11.18ZM687.51,26.81c-5.11-3.34-12.42-1.2-14.8,4.58-1.88,3.79-1.88,10.76,0,14.55,2.37,5.78,9.69,7.92,14.8,4.58,7.04-4.49,7.04-19.21,0-23.7ZM688.09,44.25c-1.32,4.15-6.25,5.82-9.7,3.38-3.91-2.88-3.95-10.33-2.46-14.55,2-5.97,10.16-6,12.15,0,1.18,2.82,1.18,8.36,0,11.18ZM721.39,41.62l7.9,10.17h-4.09l-5.75-7.62-5.8,7.62h-4.01l7.83-10.16-7.45-9.72h4.01l5.46,7.17,5.46-7.17h3.94l-7.49,9.7ZM760.25,50.98c-4.32,2.09-11.52,1.16-15.21-2.08,0,0,1.73-2.96,1.73-2.96,2.87,2.75,9.24,3.94,12.49,1.54,2.67-2.07,1.98-6.77-1.56-7.63-2.2-.86-8.06-.51-10.75-.58l1.39-13.73h14.82v3.26h-11.66s-.72,7.2-.72,7.2c2.88-.06,7.19-.02,9.27,1.01,6.17,2.22,5.96,11.4.21,13.97ZM786.19,26.81c-5.11-3.34-12.42-1.2-14.8,4.58-1.88,3.79-1.88,10.76,0,14.55,2.37,5.78,9.69,7.92,14.8,4.58,7.04-4.49,7.04-19.21,0-23.7ZM786.77,44.25c-1.32,4.15-6.25,5.82-9.7,3.38-3.91-2.88-3.95-10.33-2.46-14.55,2-5.97,10.16-6,12.15,0,1.18,2.82,1.18,8.36,0,11.18ZM813.45,26.81c-5.11-3.34-12.42-1.2-14.8,4.58-1.88,3.79-1.88,10.76,0,14.55,2.37,5.78,9.69,7.92,14.8,4.58,7.04-4.49,7.04-19.21,0-23.7ZM814.04,44.25c-1.32,4.15-6.25,5.82-9.7,3.38-3.91-2.88-3.95-10.33-2.46-14.55,2-5.97,10.16-6,12.15,0,1.18,2.82,1.18,8.36,0,11.18ZM867.72,40.35v11.44h-3.6v-11.03c0-1.92-.45-3.38-1.35-4.35-2.31-2.48-7.6-1.75-9.02,1.5-.49.98-.73,2.19-.73,3.64v10.24h-3.6s0-11.03,0-11.03c.01-3.57-1.59-5.8-5.14-5.81-3.75-.1-6.12,2.88-5.96,6.6v10.24h-3.6v-19.88h3.45s0,2.98,0,2.98c2.98-4.31,11.3-4.37,13.75.53,2.35-3.67,8.1-4.67,11.9-2.76,2.84,1.5,3.9,4.28,3.9,7.69ZM906.62,40.35v11.44h-3.6v-11.03c0-1.92-.45-3.38-1.35-4.35-2.31-2.48-7.6-1.75-9.02,1.5-.49.98-.73,2.19-.73,3.64v10.24h-3.6s0-11.03,0-11.03c.01-3.57-1.59-5.8-5.14-5.81-3.75-.1-6.12,2.88-5.96,6.6v10.24h-3.6v-19.88h3.45v2.98c.59-.85,1.37-1.54,2.33-2.08,3.56-1.97,9.5-1.39,11.42,2.61,3.06-4.72,11.98-5.24,14.77.09.69,1.27,1.03,2.89,1.03,4.84ZM156.36,499.3v-120.22h30.3c8.65,0,15.04.47,19.18,1.4,8.97,1.97,15.38,7.17,19.21,15.36,4.29,8.89,4.33,22.89-1.35,30.75-2.96,4.3-7.25,7.3-12.89,8.99,14.82,2.25,22.71,14.62,22.58,29.57.11,14.12-7.82,28.35-22.01,32.11-9.44,3.07-42.34,1.81-55.02,2.05ZM175.49,429.83h7.47c9.31,0,15.89-1.27,19.75-3.82s5.79-6.83,5.79-12.85c0-6.57-1.78-11.18-5.34-13.84-3.56-2.66-10.29-3.98-20.2-3.98h-7.47v34.49ZM175.49,482.96h6.73c6.84,0,11.96-.27,15.36-.82,3.39-.55,6.08-1.5,8.04-2.87,10.77-7.03,9.94-26.18-1.64-31.94-5.11-2.41-9.25-2.63-15.85-2.71-3.13,0-9.5,0-12.65,0,0,0,0,38.35,0,38.35ZM316.49,499.3v-17.49h-43.69v-102.73h-19.54v120.22h63.23ZM582.14,388.44c-33.15-23.71-82.51-12.69-98.09,25.99-16.7,43.41,11.94,88.52,59.58,87.91,13.86,0,26.26-3.35,37.28-11.25,0,0,0-22.09,0-22.09-18.7,17.12-51.02,22.2-69.18,2.54-8.02-8.43-12.03-19.13-12.03-32.11-.42-26.12,18.23-45.8,44.42-45.41,13.96,0,26.19,4.96,36.95,14.12l1.07-19.71ZM624.84,499.3v-61.42l47.54,61.42h25.21l-53.29-66.76,47.63-53.46h-23.9l-43.19,49.76v-49.76h-19.54v120.22h19.54ZM702.68,475c2.03,8.76,6.31,15.49,12.85,20.2,13.65,10.38,42.34,9.29,54.24-3,11.81-10.15,15.02-34.32,4.1-46.72-4.3-5.44-15.38-12.12-26.94-17.2-13.57-6.24-20.36-12.98-20.36-20.2,0-4.6,1.54-8.27,4.64-11.01,5.1-4.81,16.18-5.52,22.42-1.47,2.88,1.75,5.52,4.52,7.92,8.29l15.27-7.88c-5.31-14.43-18.97-19.85-34.65-19.87-10.79,0-19.5,3.04-26.16,9.12-6.65,6.08-9.98,14.02-9.98,23.82.49,19.87,12.7,26.1,33.09,36.71,11.53,4.89,21.75,12.23,21.35,20.69.09,11.11-7.89,17.96-18.97,17.82-6.13,0-11.16-1.41-15.11-4.23-3.94-2.82-6.65-6.92-8.13-12.28l-15.6,7.23M461.76,501.98h-121.56v-125.57h121.56v125.57ZM361.22,480.95h79.52v-83.52h-79.52v83.52Z" style="fill:#bcbec0;"/></svg>