<?xml version="1.0" encoding="UTF-8"?><svg id="a" xmlns="http://www.w3.org/2000/svg" viewBox="0 0 936.72 936"><g style="opacity:.25;"><rect width="936.72" height="936.72" style="fill:#d6d6d6;"/><path d="M937.22,937.22H-.5V-.5h937.72v937.72ZM.5,936.22h935.72V.5H.5v935.72Z" style="fill:#d6d6d6;"/></g><path d="M634.31,50.98c-4.32,2.09-11.52,1.16-15.21-2.08,0,0,1.73-2.96,1.73-2.96,2.87,2.75,9.24,3.94,12.49,1.54,2.67-2.07,1.98-6.77-1.56-7.63-2.2-.86-8.06-.51-10.75-.58l1.39-13.73h14.82v3.26h-11.66s-.72,7.2-.72,7.2c2.88-.06,7.19-.02,9.27,1.01,6.17,2.22,5.96,11.4.21,13.97ZM660.25,50.51c-5.11,3.35-12.42,1.2-14.8-4.58-1.88-3.79-1.88-10.76,0-14.55,2.38-5.78,9.69-7.92,14.8-4.58,7.04,4.49,7.04,19.21,0,23.7ZM660.83,33.07c-1.99-6-10.15-5.97-12.15,0-1.49,4.23-1.46,11.67,2.46,14.55,3.45,2.45,8.38.77,9.7-3.38,1.18-2.82,1.18-8.36,0-11.18ZM687.51,50.51c-5.11,3.35-12.42,1.2-14.8-4.58-1.88-3.79-1.88-10.76,0-14.55,2.37-5.78,9.69-7.92,14.8-4.58,7.04,4.49,7.04,19.21,0,23.7ZM688.09,33.07c-1.99-6-10.15-5.97-12.15,0-1.49,4.23-1.46,11.67,2.46,14.55,3.45,2.45,8.38.77,9.7-3.38,1.17-2.82,1.17-8.36,0-11.18ZM728.88,31.91h-3.94l-5.46,7.17-5.46-7.17h-4.01l7.45,9.72-7.83,10.16h4.01l5.8-7.62,5.75,7.62h4.09l-7.9-10.17,7.49-9.71ZM760.05,37.01c-2.08-1.03-6.4-1.07-9.27-1.01,0,0,.72-7.2.72-7.2h11.66v-3.26h-14.81l-1.39,13.73c2.68.07,8.54-.28,10.75.58,3.54.86,4.23,5.56,1.56,7.63-3.25,2.41-9.62,1.21-12.49-1.54,0,0-1.73,2.96-1.73,2.96,3.69,3.24,10.89,4.17,15.21,2.08,5.75-2.57,5.96-11.75-.21-13.97ZM786.19,50.51c-5.11,3.35-12.42,1.2-14.8-4.58-1.88-3.79-1.88-10.76,0-14.55,2.37-5.78,9.69-7.92,14.8-4.58,7.04,4.49,7.04,19.21,0,23.7ZM786.77,33.07c-1.99-6-10.15-5.97-12.15,0-1.49,4.23-1.46,11.67,2.46,14.55,3.45,2.45,8.38.77,9.7-3.38,1.18-2.82,1.18-8.36,0-11.18ZM813.45,50.51c-5.11,3.35-12.42,1.2-14.8-4.58-1.88-3.79-1.88-10.76,0-14.55,2.37-5.78,9.69-7.92,14.79-4.58,7.04,4.49,7.04,19.21,0,23.7ZM814.04,33.07c-1.99-6-10.15-5.97-12.15,0-1.49,4.23-1.46,11.68,2.46,14.55,3.45,2.45,8.38.77,9.7-3.38,1.17-2.82,1.17-8.36,0-11.18ZM863.83,32.66c-3.8-1.91-9.56-.91-11.91,2.76-2.45-4.9-10.77-4.85-13.75-.53,0,0,0-2.98,0-2.98h-3.45v19.88h3.6v-10.24c-.16-3.72,2.21-6.7,5.96-6.6,3.55.01,5.15,2.24,5.14,5.81,0,0,0,11.03,0,11.03h3.6v-10.24c0-1.45.24-2.66.73-3.64,1.42-3.25,6.72-3.98,9.02-1.5.9.98,1.35,2.43,1.35,4.35v11.03h3.6v-11.44c0-3.41-1.06-6.18-3.9-7.69ZM905.59,35.51c-2.79-5.34-11.71-4.81-14.77-.09-1.93-4-7.86-4.58-11.42-2.61-.96.54-1.73,1.23-2.32,2.08v-2.98h-3.45v19.88h3.6v-10.24c-.16-3.72,2.21-6.7,5.96-6.6,3.55.01,5.15,2.24,5.14,5.81,0,0,0,11.03,0,11.03h3.6v-10.24c0-1.45.24-2.66.73-3.64,1.42-3.25,6.72-3.98,9.02-1.5.9.98,1.35,2.43,1.35,4.35v11.03h3.6v-11.44c0-1.95-.34-3.56-1.03-4.84ZM66.81,880.99l10.18,14.36h-6.67l-9.21-13.14c-.87.07-1.78.11-2.72.11h-10.58v13.03h-6.12v-42.81h16.7c5.54,0,9.91,1.31,13.09,3.94s4.77,6.29,4.77,10.98c0,3.1-.71,5.76-2.14,7.98-1.43,2.22-3.47,3.92-6.12,5.11-.38.17-.79.3-1.19.44ZM67.11,874.58c2.02-1.69,3.03-4.07,3.03-7.12s-1.01-5.42-3.03-7.09c-2.02-1.67-4.98-2.51-8.9-2.51h-10.4v19.26h10.4c3.91,0,6.88-.85,8.9-2.54ZM86.16,895.34h6.12v-17.31h21.46v-5.26h-21.46v-14.92h24.09v-5.32h-30.21v42.81ZM142.84,871.25c-2.61-1.1-6.05-1.65-10.33-1.65h-4.78l1.18-11.74h19.01v-5.32h-24.16l-2.26,22.38h9.72c3.3,0,5.9.32,7.8.95,1.9.63,3.23,1.54,4.01,2.72.77,1.18,1.16,2.57,1.16,4.16,0,2.32-.88,4.18-2.63,5.56-1.75,1.39-4.26,2.08-7.52,2.08-2.57,0-4.99-.43-7.28-1.28-2.28-.86-4.14-1.96-5.56-3.3l-2.81,4.83c1.79,1.59,4.11,2.85,6.94,3.79,2.83.94,5.76,1.41,8.78,1.41,3.67,0,6.7-.6,9.08-1.8,2.38-1.2,4.17-2.81,5.35-4.83,1.18-2.02,1.77-4.25,1.77-6.7s-.59-4.76-1.77-6.7c-1.18-1.94-3.08-3.46-5.69-4.56ZM190.3,873.94c0,4.65-.75,8.6-2.26,11.86-1.51,3.26-3.59,5.75-6.24,7.46-2.65,1.71-5.63,2.57-8.93,2.57s-6.33-.86-8.96-2.57-4.71-4.2-6.24-7.46c-1.53-3.26-2.29-7.22-2.29-11.86s.76-8.6,2.29-11.86c1.53-3.26,3.61-5.75,6.24-7.46,2.63-1.71,5.62-2.57,8.96-2.57s6.28.86,8.93,2.57c2.65,1.71,4.73,4.2,6.24,7.46,1.51,3.26,2.26,7.22,2.26,11.86ZM184.18,873.94c0-3.63-.48-6.67-1.44-9.11-.96-2.45-2.28-4.28-3.97-5.5-1.69-1.22-3.66-1.83-5.9-1.83s-4.22.61-5.93,1.83c-1.71,1.22-3.05,3.06-4.01,5.5-.96,2.45-1.44,5.48-1.44,9.11s.48,6.67,1.44,9.11c.96,2.45,2.29,4.28,4.01,5.5,1.71,1.22,3.69,1.83,5.93,1.83s4.21-.61,5.9-1.83c1.69-1.22,3.02-3.06,3.97-5.5.96-2.45,1.44-5.48,1.44-9.11ZM156.36,499.3v-120.22h30.3c8.65,0,15.04.47,19.18,1.4,8.97,1.97,15.38,7.17,19.21,15.36,4.29,8.89,4.33,22.89-1.35,30.75-2.96,4.3-7.25,7.3-12.89,8.99,14.82,2.25,22.71,14.62,22.58,29.57.11,14.12-7.82,28.35-22.01,32.11-9.44,3.07-42.34,1.81-55.02,2.05ZM175.49,429.83h7.47c9.31,0,15.89-1.27,19.75-3.82,3.86-2.55,5.79-6.83,5.79-12.85,0-6.57-1.78-11.18-5.34-13.84-3.56-2.66-10.29-3.98-20.2-3.98h-7.47v34.49ZM175.49,482.96h6.73c6.84,0,11.96-.27,15.36-.82,3.39-.55,6.08-1.5,8.04-2.87,10.77-7.03,9.94-26.18-1.64-31.94-5.11-2.41-9.25-2.63-15.85-2.71-3.13,0-9.5,0-12.65,0,0,0,0,38.35,0,38.35ZM316.49,499.3v-17.49h-43.69v-102.73h-19.54v120.22h63.23ZM582.14,388.44c-33.15-23.71-82.51-12.69-98.09,25.99-16.7,43.41,11.94,88.52,59.58,87.91,13.86,0,26.26-3.35,37.28-11.25,0,0,0-22.09,0-22.09-18.7,17.12-51.02,22.2-69.18,2.54-8.02-8.43-12.03-19.13-12.03-32.11-.42-26.12,18.23-45.8,44.42-45.41,13.96,0,26.19,4.96,36.95,14.12l1.07-19.71ZM624.84,499.3v-61.42l47.54,61.42h25.21l-53.29-66.76,47.63-53.46h-23.9l-43.19,49.76v-49.76h-19.54v120.22h19.54ZM702.68,475c2.03,8.76,6.31,15.49,12.85,20.2,13.65,10.38,42.34,9.29,54.24-3,11.81-10.15,15.02-34.32,4.1-46.72-4.3-5.44-15.38-12.12-26.94-17.2-13.57-6.24-20.36-12.98-20.36-20.2,0-4.6,1.54-8.27,4.64-11.01,5.1-4.81,16.18-5.52,22.42-1.47,2.88,1.75,5.52,4.52,7.92,8.29l15.27-7.88c-5.31-14.43-18.97-19.85-34.65-19.87-10.79,0-19.5,3.04-26.16,9.12-6.65,6.08-9.98,14.02-9.98,23.82.49,19.87,12.7,26.1,33.09,36.71,11.53,4.89,21.75,12.23,21.35,20.69.09,11.11-7.89,17.96-18.97,17.82-6.13,0-11.16-1.41-15.11-4.23-3.94-2.82-6.65-6.92-8.13-12.28l-15.6,7.23M461.76,501.98h-121.56v-125.57h121.56v125.57ZM361.22,480.95h79.52v-83.52h-79.52v83.52Z" style="fill:#bcbec0;"/></svg>