<?xml version="1.0" encoding="UTF-8"?><svg id="a" xmlns="http://www.w3.org/2000/svg" viewBox="0 0 3000 3000"><path d="M1425.13,2889.28c-.97-6.25-6.96-11.01-13.74-11.01-12.42,0-17.09,10.57-17.09,21.59s4.67,21.06,17.09,21.06c8.46,0,13.22-5.72,14.27-14.09h13.39c-1.41,15.77-12.16,25.73-27.67,25.73-19.38,0-30.92-14.54-30.92-32.69s11.54-33.21,30.92-33.21c13.74,0,25.46,8.11,27.14,22.64h-13.39ZM1472.75,2866.64c19.38,0,30.92,14.53,30.92,33.21s-11.54,32.69-30.92,32.69-30.92-14.54-30.92-32.69,11.54-33.21,30.92-33.21ZM1472.75,2920.91c12.42,0,17.09-10.57,17.09-21.06,0-11.01-4.67-21.59-17.09-21.59s-17.09,10.57-17.09,21.59,4.67,21.06,17.09,21.06ZM1509.64,2868.14h33.92c11.28,0,18.41,7.84,18.41,17.36,0,7.4-2.91,12.95-9.95,15.77v.18c6.78,1.85,8.72,8.28,9.16,14.71.26,3.97.09,11.45,2.64,14.89h-13.83c-1.59-3.97-1.5-10.04-2.2-15.07-.97-6.61-3.52-9.51-10.48-9.51h-13.83v24.58h-13.83v-62.9ZM1523.47,2896.6h15.15c6.26,0,9.51-2.65,9.51-8.99s-3.26-8.72-9.51-8.72h-15.15v17.71ZM1569.81,2868.14h47.05v11.63h-33.21v13.48h30.48v10.75h-30.48v15.42h33.92v11.63h-47.75v-62.9Z" style="fill:#ed6c21;"/><path d="M1177.25,2901.5v-.18c7.06-2.82,9.97-8.38,9.97-15.79,0-9.53-7.15-17.38-18.44-17.38h-33.97v63h13.86v-24.62h13.85c6.97,0,9.53,2.91,10.5,9.53.71,5.03.62,11.12,2.21,15.09h13.85c-2.56-3.44-2.38-10.94-2.65-14.91-.44-6.44-2.38-12.89-9.18-14.74ZM1163.84,2896.65h-15.18v-17.74h15.18c6.27,0,9.53,2.65,9.53,8.73s-3.26,9-9.53,9ZM1233.92,2868.14h13.85v39.18c0,17.03-10.06,25.33-26.91,25.33s-26.82-8.12-26.82-25.33v-39.18h13.85v39.18c0,6.88,1.76,13.68,12.97,13.68,9.88,0,13.06-4.23,13.06-13.68v-39.18ZM1906.63,2853.27h-260.67c-6.89,0-12.48,5.59-12.48,12.48v67.85c0,6.89,5.59,12.48,12.48,12.48h260.67c6.89,0,12.48-5.59,12.48-12.48v-67.85c0-6.89-5.59-12.48-12.48-12.48ZM1680.15,2932.54c-19.38,0-30.92-14.54-30.92-32.69s11.54-33.21,30.92-33.21,30.92,14.53,30.92,33.21-11.54,32.69-30.92,32.69ZM1770.18,2931.04h-13.83l-26.17-42.11h-.18v42.11h-12.95v-62.9h13.74l26.25,42.2h.18v-42.2h12.95v62.9ZM1826.94,2931.04h-47.75v-62.9h47.05v11.63h-33.21v13.48h30.48v10.75h-30.48v15.42h33.92v11.63ZM1912.61,2933.61c0,3.3-2.68,5.98-5.98,5.98h-57.95c-3.3,0-5.98-2.68-5.98-5.98v-67.85c0-3.3,2.68-5.98,5.98-5.98h57.95c3.3,0,5.98,2.68,5.98,5.98v67.85ZM1109.3,2868.14h-28.42v63h13.86v-22.59h14.56c15.79,0,21.8-9.97,21.8-20.21s-6-20.21-21.8-20.21ZM1105.51,2897.79h-10.77v-18.88h10.77c6.35,0,12.18,1.41,12.18,9.44s-5.82,9.44-12.18,9.44ZM1326.9,2868.14l-23.91,63h14.03l4.94-14.03h23.56l4.76,14.03h14.38l-23.56-63h-14.21ZM1325.58,2906.79l8.21-23.12h.18l7.94,23.12h-16.32ZM1305.28,2912.44c0,11.56-9,20.21-26.21,20.21-13.94,0-27.09-6.88-26.83-22.41h13.41c0,8.38,6.53,11.65,13.94,11.65,4.85,0,12.27-1.41,12.27-7.85,0-6.88-9.53-7.85-18.71-10.41-9.35-2.3-18.8-6.26-18.8-17.91,0-12.97,12.18-19.06,23.56-19.06,13.15,0,25.24,5.73,25.24,20.29h-13.41c-.44-7.5-5.74-9.53-12.44-9.53-4.41,0-9.53,1.85-9.53,7.15,0,4.85,3,5.56,18.8,9.53,4.68,1.06,18.71,4.15,18.71,18.35ZM1697.24,2899.86c0,10.48-4.67,21.06-17.09,21.06s-17.09-10.57-17.09-21.06c0-11.01,4.67-21.58,17.09-21.58s17.09,10.57,17.09,21.58ZM1869.16,2919.41h31.15v11.63h-44.28v-62.9h13.13v51.27Z" style="fill:#bcbec0;"/></svg>