<?xml version="1.0" encoding="UTF-8"?><svg id="a" xmlns="http://www.w3.org/2000/svg" viewBox="0 0 2500 2200"><path d="M869.53,2068.48h28.42c15.79,0,21.8,9.97,21.8,20.21s-6,20.21-21.8,20.21h-14.56v22.59h-13.86v-63ZM883.38,2098.13h10.77c6.35,0,12.18-1.41,12.18-9.44s-5.82-9.44-12.18-9.44h-10.77v18.88ZM923.44,2068.48h33.97c11.3,0,18.44,7.85,18.44,17.38,0,7.41-2.91,12.97-9.97,15.79v.18c6.79,1.85,8.74,8.29,9.18,14.74.26,3.97.09,11.47,2.65,14.91h-13.85c-1.59-3.97-1.5-10.06-2.21-15.09-.97-6.62-3.53-9.53-10.5-9.53h-13.85v24.62h-13.86v-63ZM937.3,2096.99h15.18c6.27,0,9.53-2.65,9.53-9s-3.26-8.73-9.53-8.73h-15.18v17.74ZM1036.42,2107.66c0,17.03-10.06,25.33-26.91,25.33s-26.83-8.12-26.83-25.33v-39.18h13.85v39.18c0,6.88,1.76,13.68,12.97,13.68,9.88,0,13.06-4.23,13.06-13.68v-39.18h13.85v39.18ZM1054.3,2110.57c0,8.38,6.53,11.65,13.94,11.65,4.85,0,12.27-1.41,12.27-7.85,0-6.88-9.53-7.85-18.71-10.41-9.35-2.3-18.8-6.26-18.8-17.91,0-12.97,12.18-19.06,23.56-19.06,13.15,0,25.24,5.73,25.24,20.29h-13.41c-.44-7.5-5.74-9.53-12.44-9.53-4.41,0-9.53,1.85-9.53,7.15,0,4.85,3,5.56,18.8,9.53,4.68,1.06,18.71,4.15,18.71,18.35,0,11.56-9,20.21-26.21,20.21-13.94,0-27.09-6.88-26.83-22.41h13.41ZM1115.54,2068.48h14.21l23.56,63h-14.38l-4.76-14.03h-23.56l-4.94,14.03h-14.03l23.91-63ZM1114.22,2107.13h16.32l-7.94-23.12h-.18l-8.21,23.12ZM1468.79,2066.98c19.38,0,30.92,14.53,30.92,33.21s-11.54,32.69-30.92,32.69-30.92-14.54-30.92-32.69,11.54-33.21,30.92-33.21ZM1468.79,2121.25c12.42,0,17.09-10.57,17.09-21.06,0-11.01-4.67-21.59-17.09-21.59s-17.09,10.57-17.09,21.59,4.67,21.06,17.09,21.06ZM1505.7,2068.48h13.74l26.25,42.2h.18v-42.2h12.95v62.9h-13.83l-26.17-42.11h-.18v42.11h-12.95v-62.9ZM1567.83,2068.48h47.05v11.63h-33.21v13.48h30.48v10.75h-30.48v15.42h33.92v11.63h-47.75v-62.9ZM1631.28,2133.95v-67.85c0-6.89-5.59-12.48-12.48-12.48h-184.2c-6.89,0-12.48,5.59-12.48,12.48v67.85c0,6.89,5.59,12.48,12.48,12.48h184.2c6.89,0,12.48-5.59,12.48-12.48Z" style="fill:#bcbec0;"/><path d="M1213.77,2089.62c-.97-6.25-6.96-11.01-13.74-11.01-12.42,0-17.09,10.57-17.09,21.59s4.67,21.06,17.09,21.06c8.46,0,13.22-5.72,14.27-14.09h13.39c-1.41,15.77-12.16,25.73-27.67,25.73-19.38,0-30.92-14.54-30.92-32.69s11.54-33.21,30.92-33.21c13.74,0,25.46,8.11,27.14,22.64h-13.39ZM1261.39,2066.98c19.38,0,30.92,14.53,30.92,33.21s-11.54,32.69-30.92,32.69-30.92-14.54-30.92-32.69,11.54-33.21,30.92-33.21ZM1261.39,2121.25c12.42,0,17.09-10.57,17.09-21.06,0-11.01-4.67-21.59-17.09-21.59s-17.09,10.57-17.09,21.59,4.67,21.06,17.09,21.06ZM1298.28,2068.48h33.92c11.28,0,18.41,7.84,18.41,17.36,0,7.4-2.91,12.95-9.95,15.77v.18c6.78,1.85,8.72,8.28,9.16,14.71.26,3.97.09,11.45,2.64,14.89h-13.83c-1.59-3.97-1.5-10.04-2.2-15.07-.97-6.61-3.52-9.51-10.48-9.51h-13.83v24.58h-13.83v-62.9ZM1312.11,2096.94h15.15c6.26,0,9.51-2.65,9.51-8.99s-3.26-8.72-9.51-8.72h-15.15v17.71ZM1358.45,2068.48h47.05v11.63h-33.21v13.48h30.48v10.75h-30.48v15.42h33.92v11.63h-47.75v-62.9Z" style="fill:#ed6c21;"/></svg>