<?xml version="1.0" encoding="UTF-8"?><svg id="a" xmlns="http://www.w3.org/2000/svg" viewBox="0 0 1800 1800"><rect y="0" width="1800" height="1800" style="fill:none; stroke:#fff; stroke-width:6px;"/><path d="M1048.99,1720.58c16.01,0,25.54,12,25.54,27.43s-9.53,26.99-25.54,26.99-25.53-12-25.53-26.99,9.53-27.43,25.53-27.43ZM1048.99,1765.39c10.26,0,14.11-8.73,14.11-17.39,0-9.09-3.86-17.82-14.11-17.82s-14.11,8.73-14.11,17.82,3.86,17.39,14.11,17.39ZM1079.39,1721.82h28.01c9.31,0,15.2,6.47,15.2,14.33,0,6.11-2.4,10.69-8.22,13.02v.15c5.6,1.53,7.2,6.84,7.57,12.15.22,3.27.07,9.46,2.18,12.29h-11.42c-1.31-3.27-1.24-8.29-1.82-12.44-.8-5.46-2.91-7.86-8.66-7.86h-11.42v20.3h-11.42v-51.94ZM1090.81,1745.32h12.51c5.17,0,7.86-2.18,7.86-7.42s-2.69-7.2-7.86-7.2h-12.51v14.62ZM1129,1721.82h11.42v51.94h-11.42v-51.94ZM1185.09,1767.87c-4.07,5.24-9.24,7.13-14.26,7.13-16,0-25.53-12-25.53-26.99s9.53-27.43,25.53-27.43c10.62,0,20.73,6.47,21.9,18.33h-10.91c-1.38-5.82-5.53-8.73-10.99-8.73-10.26,0-14.11,8.73-14.11,17.82s3.86,17.39,14.11,17.39c7.49,0,11.71-3.93,12.37-11.2h-11.49v-8.51h21.82v28.08h-7.27l-1.16-5.89ZM1199.84,1721.82h11.42v51.94h-11.42v-51.94ZM1218.39,1721.82h11.35l21.68,34.84h.15v-34.84h10.69v51.94h-11.42l-21.61-34.77h-.14v34.77h-10.7v-51.94ZM1283.57,1721.82h11.71l19.42,51.94h-11.86l-3.93-11.57h-19.42l-4.07,11.57h-11.57l19.71-51.94ZM1282.48,1753.68h13.46l-6.55-19.06h-.15l-6.77,19.06ZM1316.3,1721.82h11.42v42.34h25.32v9.6h-36.74v-51.94Z" style="fill:#939598;"/><path d="M1691.98,1721.82h11.42v51.94h-11.42v-51.94ZM1761.2,1721.82h11.42v51.94h-11.42v-51.94ZM1710.53,1721.82h11.35l21.68,34.84h.15v-34.84h10.69v51.94h-11.42l-21.61-34.77h-.14v34.77h-10.7v-51.94ZM1629.09,1721.79h16.08l12.15,35.72h.14l11.5-35.72h16.08v51.94h-10.7v-36.81h-.14l-12.73,36.81h-8.8l-12.73-36.45h-.14v36.45h-10.7v-51.94Z" style="fill:#ed6c21;"/><path d="M1455.33,1749.29v-.15c5.82-2.33,8.22-6.91,8.22-13.02,0-7.86-5.89-14.33-15.2-14.33h-28.01v51.94h11.42v-20.3h11.42c5.75,0,7.86,2.4,8.66,7.86.58,4.15.51,9.17,1.82,12.44h11.42c-2.11-2.84-1.96-9.02-2.18-12.29-.36-5.31-1.96-10.62-7.57-12.15ZM1444.27,1745.29h-12.51v-14.62h12.51c5.17,0,7.86,2.18,7.86,7.2s-2.69,7.42-7.86,7.42ZM1502.05,1721.79h11.42v32.3c0,14.04-8.29,20.88-22.19,20.88s-22.12-6.69-22.12-20.88v-32.3h11.42v32.3c0,5.67,1.45,11.28,10.69,11.28,8.15,0,10.77-3.49,10.77-11.28v-32.3ZM1399.31,1721.79h-23.43v51.94h11.42v-18.62h12c13.02,0,17.97-8.22,17.97-16.66s-4.95-16.66-17.97-16.66ZM1396.18,1746.23h-8.88v-15.57h8.88c5.24,0,10.04,1.16,10.04,7.78s-4.8,7.79-10.04,7.79ZM1578.71,1721.79l-19.71,51.94h11.57l4.07-11.57h19.42l3.93,11.57h11.86l-19.42-51.94h-11.71ZM1577.62,1753.65l6.77-19.06h.15l6.55,19.06h-13.46ZM1560.88,1758.31c0,9.53-7.42,16.66-21.61,16.66-11.49,0-22.33-5.67-22.12-18.48h11.06c0,6.91,5.38,9.6,11.5,9.6,4,0,10.11-1.17,10.11-6.47,0-5.67-7.86-6.47-15.42-8.59-7.71-1.89-15.5-5.16-15.5-14.77,0-10.69,10.04-15.71,19.43-15.71,10.84,0,20.81,4.73,20.81,16.73h-11.06c-.36-6.18-4.73-7.86-10.26-7.86-3.64,0-7.86,1.53-7.86,5.89,0,4,2.47,4.58,15.5,7.86,3.86.87,15.42,3.42,15.42,15.13Z" style="fill:#bcbec0;"/></svg>