<?xml version="1.0" encoding="UTF-8"?><svg id="a" xmlns="http://www.w3.org/2000/svg" viewBox="0 0 2500 2100"><path d="M1941.58,1920.44h9.37v17.16h.13c2.31-3.5,6.53-5.08,10.76-5.08,6.8,0,14.12,5.48,14.12,17.95s-7.32,18.02-14.12,18.02c-5.02,0-9.17-1.52-11.22-5.28h-.13v4.36h-8.91v-47.11ZM1958.61,1939.57c-5.54,0-7.99,5.15-7.99,10.95s2.44,10.89,7.99,10.89,7.98-5.21,7.98-10.89-2.44-10.95-7.98-10.95ZM1996.56,1971.84c-2.04,5.48-5.34,7.72-11.74,7.72-1.91,0-3.83-.13-5.74-.33v-7.72c1.78.2,3.63.4,5.48.33,2.44-.26,3.63-2.18,3.63-4.29,0-.73-.13-1.45-.4-2.11l-12.01-32h10.03l7.72,23.36h.13l7.46-23.36h9.7l-14.25,38.4ZM2056.56,1952.71c0,6.07-1.65,15.97-15.71,15.97-7.85,0-15.51-4.29-15.51-14.58v-4.09h9.37v2.11c0,4.55,1.12,7.85,6,7.85,5.48,0,5.48-4.35,5.48-7.72v-31.8h10.36v32.27ZM2079.08,1932.52c10.76,0,17.68,7.13,17.68,18.01s-6.93,17.95-17.68,17.95-17.62-7.13-17.62-17.95,6.93-18.01,17.62-18.01ZM2079.08,1961.42c6.4,0,8.31-5.41,8.31-10.89s-1.91-10.95-8.31-10.95-8.25,5.48-8.25,10.95,1.91,10.89,8.25,10.89ZM2107.93,1956.47c0,4.03,3.56,5.74,7.19,5.74,2.64,0,6.14-1.05,6.14-4.35,0-2.84-3.96-3.89-10.62-5.28-5.48-1.25-10.82-3.04-10.82-9.11,0-8.71,7.52-10.95,14.85-10.95s14.32,2.51,15.04,10.89h-8.91c-.26-3.63-3.04-4.62-6.4-4.62-2.11,0-5.21.33-5.21,3.17,0,3.36,5.34,3.83,10.62,5.08,5.48,1.25,10.82,3.23,10.82,9.57,0,8.97-7.85,11.88-15.57,11.88s-15.7-2.97-16.03-12.01h8.91ZM2141.66,1952.77c.26,6.01,3.1,8.64,8.38,8.64,3.76,0,6.8-2.31,7.39-4.42h8.25c-2.64,8.11-8.25,11.48-15.97,11.48-10.76,0-17.42-7.39-17.42-17.95s7.06-18.01,17.42-18.01c11.61,0,17.29,9.76,16.56,20.26h-24.61ZM2156.9,1946.84c-.86-4.75-2.9-7.26-7.46-7.26-6.07,0-7.59,4.62-7.79,7.26h15.24ZM2171.69,1939.71h-5.61v-6.27h5.61v-2.64c0-6.07,3.76-10.36,11.42-10.36,1.65,0,3.37.2,4.95.26v7c-1.12-.13-2.31-.2-3.43-.2-2.57,0-3.56,1.05-3.56,3.89v2.05h6.47v6.27h-6.47v27.84h-9.37v-27.84ZM2206.61,1920.44h21.25c11.81,0,16.3,7.46,16.3,15.11s-4.49,15.11-16.3,15.11h-10.89v16.89h-10.36v-47.11ZM2216.97,1942.61h8.05c4.75,0,9.11-1.06,9.11-7.06s-4.35-7.06-9.11-7.06h-8.05v14.12ZM2247.47,1933.44h8.91v6.33h.13c1.78-4.29,6.2-7.26,10.89-7.26.73,0,1.39.13,2.05.33v8.71c-.86-.2-2.24-.33-3.37-.33-6.93,0-9.24,4.88-9.24,10.95v15.37h-9.37v-34.11ZM2302.97,1967.55h-8.91v-4.75h-.2c-2.38,3.89-6.47,5.68-10.43,5.68-9.96,0-12.47-5.61-12.47-14.06v-20.98h9.37v19.27c0,5.61,1.58,8.38,6,8.38,5.08,0,7.26-2.84,7.26-9.76v-17.88h9.37v34.11ZM2315.19,1956.47c0,4.03,3.56,5.74,7.19,5.74,2.64,0,6.14-1.05,6.14-4.35,0-2.84-3.96-3.89-10.62-5.28-5.48-1.25-10.82-3.04-10.82-9.11,0-8.71,7.52-10.95,14.85-10.95s14.32,2.51,15.04,10.89h-8.91c-.26-3.63-3.04-4.62-6.4-4.62-2.11,0-5.21.33-5.21,3.17,0,3.36,5.34,3.83,10.62,5.08,5.48,1.25,10.82,3.23,10.82,9.57,0,8.97-7.85,11.88-15.57,11.88s-15.7-2.97-16.03-12.01h8.91ZM2340.81,1943.93c.53-8.71,8.38-11.42,16.04-11.42,6.8,0,14.98,1.52,14.98,9.7v17.75c0,3.1.33,6.2,1.19,7.59h-9.5c-.33-1.05-.59-2.18-.66-3.3-2.97,3.1-7.26,4.22-11.48,4.22-6.53,0-11.61-3.23-11.61-10.23.13-15.51,23.09-7.19,22.7-14.85,0-3.96-2.77-4.62-6.07-4.62-3.63,0-5.87,1.45-6.2,5.15h-9.37ZM2362.45,1950.86c-1.58,1.38-4.88,1.45-7.79,1.98-2.9.53-5.54,1.58-5.54,5.01s2.71,4.35,5.74,4.35c7.32,0,7.59-5.74,7.59-7.85v-3.5Z" style="fill:#bcbec0;"/><path d="M1423.53,1816.58c19.67,0,31.38,14.75,31.38,33.7s-11.71,33.17-31.38,33.17-31.38-14.75-31.38-33.17,11.71-33.7,31.38-33.7ZM1423.53,1871.65c12.61,0,17.34-10.73,17.34-21.37,0-11.17-4.74-21.9-17.34-21.9s-17.34,10.73-17.34,21.9,4.74,21.37,17.34,21.37ZM1460.89,1818.1h34.42c11.44,0,18.68,7.96,18.68,17.61,0,7.51-2.95,13.14-10.1,16v.18c6.88,1.88,8.85,8.4,9.3,14.93.27,4.02.09,11.62,2.68,15.11h-14.04c-1.61-4.02-1.52-10.19-2.23-15.29-.98-6.7-3.58-9.65-10.64-9.65h-14.04v24.94h-14.04v-63.83ZM1474.92,1846.98h15.38c6.35,0,9.65-2.68,9.65-9.12s-3.31-8.85-9.65-8.85h-15.38v17.97ZM1521.85,1818.1h14.04v63.83h-14.04v-63.83ZM1590.77,1874.69c-5.01,6.44-11.35,8.76-17.52,8.76-19.67,0-31.38-14.75-31.38-33.17s11.71-33.7,31.38-33.7c13.05,0,25.48,7.96,26.91,22.53h-13.41c-1.7-7.15-6.8-10.73-13.5-10.73-12.6,0-17.34,10.73-17.34,21.9s4.74,21.37,17.34,21.37c9.21,0,14.39-4.83,15.2-13.77h-14.12v-10.46h26.82v34.51h-8.94l-1.43-7.24ZM1608.9,1818.1h14.04v63.83h-14.04v-63.83ZM1631.7,1818.1h13.95l26.64,42.82h.18v-42.82h13.14v63.83h-14.04l-26.55-42.73h-.18v42.73h-13.14v-63.83ZM1711.79,1818.1h14.39l23.87,63.83h-14.57l-4.83-14.21h-23.87l-5.01,14.21h-14.21l24.23-63.83ZM1710.45,1857.26h16.54l-8.05-23.42h-.18l-8.31,23.42ZM1752.01,1818.1h14.04v52.03h31.11v11.8h-45.15v-63.83Z" style="fill:#939598;"/><path d="M1922.86,1851.86v-.18c7.15-2.86,10.1-8.49,10.1-16,0-9.65-7.24-17.61-18.68-17.61h-34.42v63.83h14.04v-24.94h14.04c7.06,0,9.65,2.95,10.64,9.65.71,5.1.63,11.27,2.23,15.29h14.04c-2.59-3.49-2.41-11.08-2.68-15.11-.45-6.53-2.41-13.05-9.3-14.93ZM1909.27,1846.94h-15.38v-17.97h15.38c6.35,0,9.65,2.68,9.65,8.85s-3.31,9.12-9.65,9.12ZM1980.27,1818.07h14.04v39.69c0,17.26-10.19,25.66-27.27,25.66s-27.18-8.22-27.18-25.66v-39.69h14.04v39.69c0,6.97,1.79,13.86,13.14,13.86,10.01,0,13.23-4.29,13.23-13.86v-39.69ZM1854.02,1818.07h-28.79v63.83h14.04v-22.89h14.75c16,0,22.08-10.1,22.08-20.47s-6.08-20.47-22.08-20.47ZM1850.17,1848.1h-10.91v-19.13h10.91c6.44,0,12.34,1.43,12.34,9.56s-5.9,9.57-12.34,9.57ZM2074.47,1818.07l-24.23,63.83h14.21l5.01-14.21h23.87l4.83,14.21h14.57l-23.87-63.83h-14.39ZM2073.13,1857.22l8.31-23.42h.18l8.05,23.42h-16.54ZM2052.56,1862.94c0,11.71-9.12,20.47-26.55,20.47-14.12,0-27.44-6.97-27.18-22.71h13.59c0,8.49,6.62,11.8,14.13,11.8,4.92,0,12.43-1.43,12.43-7.96,0-6.97-9.65-7.96-18.95-10.55-9.48-2.33-19.04-6.35-19.04-18.15,0-13.14,12.34-19.31,23.87-19.31,13.32,0,25.57,5.81,25.57,20.56h-13.59c-.45-7.6-5.81-9.65-12.6-9.65-4.47,0-9.66,1.88-9.66,7.24,0,4.92,3.04,5.63,19.04,9.65,4.74,1.07,18.95,4.2,18.95,18.59Z" style="fill:#bcbec0;"/><path d="M2294.9,1867.1h-26.96v-11.84l27.69-37.16h11.57v38.34h8.47v10.66h-8.47v14.76h-12.3v-14.76ZM2294.9,1834.32h-.27l-16.49,22.13h16.76v-22.13ZM2136.38,1818.1h19.73l14.91,43.84h.18l14.11-43.84h19.73v63.75h-13.12v-45.18h-.18l-15.63,45.18h-10.8l-15.63-44.73h-.18v44.73h-13.13v-63.75ZM2214.63,1818.1h14.02v26.43l24.91-26.43h17.5l-24.91,25.18,27.32,38.57h-17.59l-19.2-28.66-8.04,8.12v20.54h-14.02v-63.75ZM2373.01,1862.94c0,11.71-9.12,20.47-26.55,20.47-14.12,0-27.44-6.97-27.18-22.71h13.59c0,8.49,6.62,11.8,14.13,11.8,4.92,0,12.43-1.43,12.43-7.96,0-6.97-9.65-7.96-18.95-10.55-9.48-2.33-19.04-6.35-19.04-18.15,0-13.14,12.34-19.31,23.87-19.31,13.32,0,25.57,5.81,25.57,20.56h-13.59c-.45-7.6-5.81-9.65-12.6-9.65-4.47,0-9.66,1.88-9.66,7.24,0,4.92,3.04,5.63,19.04,9.65,4.74,1.07,18.95,4.2,18.95,18.59Z" style="fill:#ed6b21;"/></svg>