<?xml version="1.0" encoding="UTF-8"?><svg id="a" xmlns="http://www.w3.org/2000/svg" viewBox="0 0 3600 3600"><path d="M3252.27,3399.03l-28.95-42.8h22.91l17.62,28.7,18.25-28.7h21.65l-28.83,42.93,31.35,46.96h-23.54l-19.64-31.09-20.02,31.09h-22.28l31.47-47.08ZM3310.05,3356.23h19.76v73.27h43.81v16.62h-63.57v-89.88Z" style="fill:#ed6c21;"/><path d="M2178.45,3354.15c27.7,0,44.19,20.77,44.19,47.46s-16.49,46.71-44.19,46.71-44.19-20.77-44.19-46.71,16.49-47.46,44.19-47.46ZM2178.45,3431.69c17.75,0,24.42-15.11,24.42-30.09,0-15.74-6.67-30.84-24.42-30.84s-24.42,15.11-24.42,30.84,6.67,30.09,24.42,30.09ZM2231.06,3356.29h48.47c16.11,0,26.31,11.2,26.31,24.8,0,10.58-4.15,18.5-14.22,22.53v.26c9.69,2.64,12.46,11.83,13.09,21.02.38,5.67.13,16.36,3.78,21.27h-19.76c-2.27-5.67-2.14-14.35-3.15-21.53-1.38-9.44-5.03-13.6-14.98-13.6h-19.76v35.12h-19.77v-89.88ZM2250.83,3396.95h21.65c8.94,0,13.6-3.78,13.6-12.84s-4.66-12.46-13.6-12.46h-21.65v25.3ZM2316.9,3356.29h19.77v89.88h-19.77v-89.88ZM2413.96,3435.97c-7.05,9.06-15.99,12.34-24.68,12.34-27.69,0-44.19-20.77-44.19-46.71s16.49-47.46,44.19-47.46c18.38,0,35.88,11.2,37.89,31.72h-18.88c-2.39-10.07-9.57-15.11-19.01-15.11-17.75,0-24.42,15.11-24.42,30.84s6.67,30.09,24.42,30.09c12.97,0,20.27-6.8,21.4-19.38h-19.89v-14.73h37.77v48.59h-12.59l-2.01-10.2ZM2439.5,3356.29h19.77v89.88h-19.77v-89.88ZM2471.59,3356.29h19.64l37.52,60.3h.25v-60.3h18.5v89.88h-19.76l-37.39-60.17h-.25v60.17h-18.51v-89.88ZM2584.38,3356.29h20.27l33.61,89.88h-20.52l-6.8-20.02h-33.61l-7.05,20.02h-20.02l34.12-89.88ZM2582.49,3411.42h23.29l-11.33-32.98h-.25l-11.71,32.98ZM2641.01,3356.29h19.77v73.26h43.81v16.62h-63.57v-89.88Z" style="fill:#939598;"/><path d="M2903.61,3403.82v-.26c10.07-4.03,14.22-11.96,14.22-22.53,0-13.59-10.19-24.8-26.31-24.8h-48.47v89.88h19.77v-35.12h19.76c9.94,0,13.6,4.15,14.98,13.59,1.01,7.18.88,15.86,3.15,21.53h19.76c-3.65-4.91-3.4-15.61-3.78-21.27-.63-9.19-3.4-18.38-13.09-21.02ZM2884.47,3396.89h-21.65v-25.3h21.65c8.94,0,13.6,3.78,13.6,12.46s-4.66,12.84-13.6,12.84ZM2984.46,3356.23h19.76v55.89c0,24.3-14.35,36.13-38.4,36.13s-38.27-11.58-38.27-36.13v-55.89h19.76v55.89c0,9.82,2.52,19.51,18.5,19.51,14.1,0,18.63-6.04,18.63-19.51v-55.89ZM2806.67,3356.23h-40.54v89.88h19.77v-32.23h20.77c22.53,0,31.09-14.22,31.09-28.83s-8.56-28.82-31.09-28.82ZM2801.26,3398.53h-15.36v-26.94h15.36c9.06,0,17.37,2.01,17.37,13.47s-8.31,13.47-17.37,13.47ZM3117.11,3356.23l-34.12,89.88h20.02l7.05-20.02h33.61l6.8,20.02h20.52l-33.61-89.88h-20.27ZM3115.22,3411.37l11.71-32.98h.25l11.33,32.98h-23.29ZM3086.26,3419.43c0,16.49-12.84,28.83-37.39,28.83-19.89,0-38.65-9.82-38.27-31.98h19.13c0,11.96,9.32,16.62,19.89,16.62,6.92,0,17.5-2.02,17.5-11.2,0-9.82-13.59-11.2-26.69-14.86-13.34-3.27-26.81-8.94-26.81-25.56,0-18.5,17.37-27.19,33.61-27.19,18.76,0,36,8.18,36,28.95h-19.14c-.63-10.7-8.18-13.59-17.75-13.59-6.29,0-13.6,2.64-13.6,10.2,0,6.92,4.28,7.93,26.81,13.59,6.67,1.51,26.69,5.92,26.69,26.18Z" style="fill:#bcbec0;"/></svg>