<?xml version="1.0" encoding="UTF-8"?><svg id="a" xmlns="http://www.w3.org/2000/svg" viewBox="0 0 2100 1500"><path d="M34.69,1327.1s5.26,4.07,10.5,10.53c3.23,3.97,8.09,11.83,8.09,11.83v116.7h-18.59v-139.06M194.43,1327.1s-5.26,4.07-10.5,10.53c-3.23,3.97-8.09,11.83-8.09,11.83v116.7h18.59v-139.06M38.45,1266.04s4.43,8.32,5.01,16.59c.58,8.03-1.31,18.51-4.22,24.4-3.06,6.2-6.37,10.75-6.37,10.75,0,0,8.6-.42,15.64.58,7.09,1,14.48,3.22,14.48,3.22,0,0,1.22-5.07.74-12.56-.5-7.78-4.79-20.43-11.66-30.35-6.46-9.33-13.62-12.63-13.62-12.63M21.05,1237.81s1.69,10.46,8.84,16.21c6.46,5.18,15.31,6.45,22.06,14.12,5.81,6.58,8.38,15.65,8.38,15.65,0,0,3.96-14.02-2.32-24.64-5.52-9.32-15.73-12.96-25.48-15.87-6.49-1.96-11.49-5.46-11.49-5.46M190.68,1266.04s-7.16,3.29-13.61,12.63c-6.88,9.92-11.17,22.57-11.67,30.35-.47,7.5.75,12.56.75,12.56,0,0,7.39-2.22,14.48-3.22,7.02-1,15.62-.58,15.62-.58,0,0-3.31-4.56-6.37-10.75-2.9-5.89-4.8-16.37-4.22-24.4.6-8.27,5.01-16.59,5.01-16.59M208.07,1237.81s-5.01,3.51-11.5,5.46c-9.75,2.91-19.96,6.56-25.48,15.87-6.27,10.62-2.32,24.64-2.32,24.64,0,0,2.58-9.07,8.38-15.65,6.76-7.67,15.61-8.93,22.06-14.12,7.15-5.75,8.85-16.21,8.85-16.21M164.36,1325.43c22.33-6.13,31.34-4.14,31.34-4.14,0,0-11.07,8.25-16.7,16.21-4.22,5.95-7.31,11.88-11.75,17.2-3.53,4.25-14.02,9.61-18.61,12.69-2.42,1.62-5.24,3.57-7.19,5.92-1.12,1.34-1.63,3.61-1.63,3.61,0,0,3.32-3.05,6.26-5.02,4.26-2.84,8.19-4.13,8.19-4.13,0,0-3.48,4.42-6.78,9.68-1.44,2.29-1.95,6.89-2.64,13.15-.05.37.7,4.18-2.07,11.04-1.6,3.99-4.17,5.99-4.17,5.99,0,0,.66-1.96.66-2.65s-.37-1.31-.37-1.31c0,0-1.32,2.15-2.98,4.46-1.65,2.32-5.08,4.51-5.08,4.51,0,0,.74.22,1.7,0,.37-.09,1.73-.25,1.73-.25,0,0-.84,3.32-3.06,7.57-3.71,7.11-3.89,11.33-3.89,11.33,0,0-.73-.49-.82-1.57-.08-1.09-.65-1.54-.65-1.54,0,0-.34.35-1.17.31-.83-.05-1.28.11-1.28.11,0,0,3.32,3.17,3.21,13.4-.05,4.68-.78,7.42-2.34,11.43-2.19,5.63-6.52,5.78-9.19,5.78-2.93,0-6.89-.5-9.18-5.78-1.7-3.94-2.29-6.74-2.34-11.43-.11-10.23,3.21-13.4,3.21-13.4,0,0-.46-.15-1.28-.11-.83.04-1.18-.31-1.18-.31,0,0-.56.45-.64,1.55-.08,1.09-.83,1.57-.83,1.57,0,0-.17-4.22-3.89-11.33-2.22-4.24-3.06-7.57-3.06-7.57,0,0,1.37.16,1.74.25.95.22,1.69,0,1.69,0,0,0-3.42-2.19-5.08-4.51-1.65-2.32-2.98-4.46-2.98-4.46,0,0-.36.62-.36,1.31s.66,2.65.66,2.65c0,0-2.57-2.01-4.17-6-2.77-6.86-2.03-10.67-2.08-11.04-.7-6.26-1.21-10.86-2.64-13.15-3.3-5.27-6.78-9.68-6.78-9.68,0,0,3.92,1.29,8.18,4.13,2.95,1.97,6.26,5.02,6.26,5.02,0,0-.51-2.27-1.62-3.61-1.95-2.36-4.78-4.3-7.2-5.93-4.59-3.07-15.08-8.44-18.6-12.68-4.43-5.33-7.47-11.3-11.75-17.2-8.1-11.17-16.7-16.21-16.7-16.21,0,0,9.02-1.99,31.34,4.13,8.11,2.22,17.18,6.19,25.97,11.25,8.93,5.14,17.54,11.43,22.33,20.84,0,0,.54.93.99.93s.99-.93.99-.93c4.79-9.42,13.41-15.71,22.33-20.84,8.78-5.06,17.85-9.03,25.96-11.24M93.84,1401.62c2.26,2.97,6.24,2.15,6.24,2.15,0,0-2.75-1.97-4.57-3.8-1.71-1.71-3.42-3.65-3.42-3.65,0,0-.5,2.32,1.76,5.3M107.38,1444.77c.25,2.38,1.04,2.11,1.04,2.11,0,0-.19-1.05-.24-2.34-.04-1.28.11-2.03.02-3.84-.08-1.88-.66-2.84-.66-2.84,0,0-.28,1.49-.28,2.4s-.15,1.86.12,4.51M113.06,1455.11s-.28-2.21-.11-4.13c.18-1.93.53-3.53.33-5.43-.18-1.9-1.73-3.5-1.73-3.5,0,0-1.96,2.05-2.35,4.91-.47,3.42.94,5.24,1.82,6.45.88,1.22,2.04,1.71,2.04,1.71M114.36,1433.31c.16-2.56-.07-5.07-.07-5.07,0,0-1.65,1.65-1.77,4.78-.15,3.55,1.26,7.48,1.26,7.48,0,0,.41-4.63.58-7.19M114.75,1415.49s2.68-22.76,2.68-26.28c0-4.03-1.95-6.69-2.68-10.88-1.11,3.97-2.81,5.76-2.81,10.69s2.81,26.47,2.81,26.47M115.79,1433.31c.17,2.56.59,7.19.59,7.19,0,0,1.4-3.93,1.26-7.48-.13-3.12-1.78-4.77-1.78-4.77,0,0-.23,2.5-.07,5.06M119.13,1453.4c.88-1.21,2.29-3.03,1.81-6.45-.39-2.86-2.34-4.91-2.34-4.91,0,0-1.55,1.6-1.74,3.5-.19,1.9.17,3.5.33,5.43.16,1.93-.11,4.13-.11,4.13,0,0,1.17-.5,2.05-1.71M122.77,1444.77c.28-2.65.12-3.6.12-4.51s-.29-2.4-.29-2.4c0,0-.57.96-.66,2.84-.08,1.82.07,2.56.02,3.84-.04,1.28-.23,2.34-.23,2.34,0,0,.79.27,1.04-2.11M136.31,1401.62c2.25-2.97,1.76-5.29,1.76-5.29,0,0-1.7,1.93-3.42,3.64-1.83,1.83-4.57,3.8-4.57,3.8,0,0,3.97.83,6.23-2.15M259.06,1361.56c1.63-7.59,7.06-15.72,22.12-15.72s20.63,7.22,20.63,16.36c0,10.09-5.85,14.52-22.82,14.52h-8.86v26.87h12.05c16.99,0,25.33,6.17,25.33,18.94s-9.31,19.39-23.72,19.39c-16.99,0-24.99-7.41-27.6-17.99h-34.86c3.47,24.05,21.09,44.95,60.55,44.95s61.12-19.49,61.12-45.19c0-22.92-15.49-31.38-25.49-34.84v-.43c6.3-2.2,19.8-9.38,19.8-28.33,0-22.58-18.06-40.67-54.98-40.67-40.78,0-55.1,24.23-57.67,42.14h34.41ZM358.04,1466.17h64.37c41.93,0,75.84-28.43,75.84-74.54,0-38-26.56-69.51-75.1-69.51h-65.11v144.05ZM393,1349.03h25.25c29.03.36,42.96,16.89,42.96,43.54,0,30.62-15.23,46.5-43.41,46.5h-24.8v-90.04Z" style="fill:#bcbec0;"/></svg>