<?xml version="1.0" encoding="UTF-8"?><svg id="a" xmlns="http://www.w3.org/2000/svg" viewBox="0 0 2000 2000"><path d="M990.09,1819.02v15.29h-50.61v11.7h39.21v15.3h-39.21v11.7h50.61v15.29h-65.23v-69.28h65.23ZM1075.1,1819.02h-18.67l-9.91,14.16,9.33,13.33,19.25-27.49ZM1055.91,1860.89l-9.34,13.33,9.89,14.12h18.67l-19.22-27.45ZM1050.86,1853.67l-24.27-34.66h-18.67l24.25,34.64-24.15,34.49h18.67l14.81-21.16v.02s9.35-13.33,9.35-13.33ZM2000,1991.06H0v8.94h2000v-8.94ZM837.61,1932.79v35.89c0,.42-.34.76-.76.76h-9.91c-.42,0-.76-.34-.76-.76v-35.89c0-.42.34-.76.76-.76h9.91c.42,0,.76.34.76.76ZM956.6,1932.03h-9.91c-.42,0-.76.34-.76.76v35.89c0,.42.34.76.76.76h9.91c.42,0,.76-.34.76-.76v-35.89c0-.42-.34-.76-.76-.76ZM1173.06,1932.03h-10.03c-.42,0-.76.34-.76.76v12.77c0,.42-.34.76-.76.76h-22.23c-.42,0-.76-.34-.76-.76v-12.77c0-.42-.34-.76-.76-.76h-10.03c-.42,0-.76.34-.76.76v35.9c0,.42.34.76.76.76h10.03c.42,0,.76-.34.76-.76v-12.39c0-.42.34-.76.76-.76h22.23c.42,0,.76.34.76.76v12.39c0,.42.34.76.76.76h10.03c.42,0,.76-.34.76-.76v-35.9c0-.42-.34-.76-.76-.76ZM894.34,1932.03h-10.22c-.42,0-.76.34-.76.76v22.06l-26.43-22.28c-.41-.34-.92-.53-1.45-.53h-6.04c-2.98,0-5.39,2.41-5.39,5.39v31.26c0,.42.34.76.76.76h10.67c.42,0,.76-.34.76-.76v-22.11l26.49,22.34c.41.34.92.53,1.45.53h10.15c.42,0,.76-.34.76-.76v-35.9c0-.42-.34-.76-.76-.76ZM939.09,1932.03h-27.83c-4.95,0-9.07,3.6-9.86,8.32-.06.35.23.67.59.67h37.1c.42,0,.76-.34.76-.76v-7.49c0-.42-.34-.76-.76-.76ZM939.85,1946.71v7.73c0,.42-.34.76-.76.76h-25.53c-.42,0-.76.34-.76.76v12.74c0,.42-.34.76-.76.76h-10.04c-.42,0-.76-.34-.76-.76v-21.98c0-.42.34-.76.76-.76h37.08c.42,0,.76.34.76.76ZM1025.86,1932.03h-7.04c-.15,0-.3.04-.42.13l-21.09,14.18c-.31.21-.72.21-1.03,0l-21.09-14.18c-.12-.08-.27-.13-.42-.13h-7.04c-2.43,0-4.39,1.97-4.39,4.39v32.26c0,.42.34.76.76.76h10.08c.42,0,.76-.34.76-.76v-21.48l14.75,9.57c.55.36,1.19.54,1.84.54h10.54c.65,0,1.29-.19,1.84-.54l14.75-9.57v21.48c0,.42.34.76.76.76h10.08c.42,0,.76-.34.76-.76v-32.26c0-2.43-1.97-4.39-4.39-4.39ZM1075.18,1945.95h-38.19c-.42,0-.76.34-.76.76v12.73c0,5.53,4.48,10.01,10.01,10.01h28.94c.42,0,.76-.34.76-.76v-7.92c0-.42-.34-.76-.76-.76h-26.64c-.42,0-.76-.34-.76-.76v-3.31c0-.42.34-.76.76-.76h26.64c.42,0,.76-.34.76-.76v-7.73c0-.42-.34-.76-.76-.76ZM1075.18,1932.03h-28.94c-4.95,0-9.07,3.6-9.86,8.32-.06.35.23.67.59.67h38.21c.42,0,.76-.34.76-.76v-7.49c0-.42-.34-.76-.76-.76ZM1098.86,1941.03h21.29c.42,0,.76-.34.76-.76v-7.49c0-.42-.34-.76-.76-.76h-28.21c-5.53,0-10.01,4.48-10.01,10.01v17.4c0,5.53,4.48,10.01,10.01,10.01h28.2c.42,0,.76-.34.76-.76v-7.49c0-.42-.34-.76-.76-.76h-21.29c-2.92,0-5.28-2.36-5.28-5.28v-8.85c0-2.92,2.36-5.28,5.28-5.28Z" style="fill:#bcbec0;"/></svg>