<?xml version="1.0" encoding="UTF-8"?><svg id="a" xmlns="http://www.w3.org/2000/svg" viewBox="0 0 2600 2600"><path d="M75.59,178.3c5.4-2.22,7.96-8.41,5.71-13.78-1.07-2.6-3.12-4.64-5.71-5.71l-59.71-25.92v10.56l18.52,8.03v34.13l-18.52,8.03v10.56l59.71-25.92M43.78,155.53l27,11.73c.69.31,1.04,1.11.73,1.83-.14.31-.38.59-.73.73l-27,11.73v-26.03h0ZM82.09,303.59h-9.38v-20.59H15.88v-9.93h56.83v-19.73h9.38v50.25ZM44.3,491.61v-38.56h-12.01c-3.81-.07-6.96,2.98-7.03,6.78h0v31.77h-9.38v-34.96c.14-7.58,6.4-13.64,13.98-13.53h38.25c7.58-.14,13.84,5.92,13.98,13.53v34.96h-9.38v-31.77c-.07-3.81-3.22-6.85-6.99-6.78h-12.05v38.56h-9.38,0ZM15.88,316.65h66.21v9.93H15.88v-9.93ZM15.88,577h26.2l39.98-23.22v12.53l-27,15.68,27,15.68v12.53l-40.01-23.22H15.85v-9.97h.03,0ZM15.91,233.13l31.84-24.92c.62-.48,1.38-.76,2.18-.8,2.01-.07,3.7,1.52,3.77,3.53v15.09c.17,4.98,4.19,8.96,9.17,9.17,5.26.21,9.69-3.91,9.86-9.17v-32.54h9.35v33.4c-.35,9.93-8.31,17.93-18.28,18.28-10.42.35-19.18-7.82-19.52-18.28v-3.95l-28.42,22.22v-12.08l.03.03.02.02ZM15.91,540.24l31.84-24.92c.62-.48,1.38-.76,2.18-.8,2.01-.07,3.7,1.52,3.77,3.53v15.09c.17,4.98,4.19,8.96,9.17,9.17,5.26.21,9.69-3.91,9.86-9.17v-32.54h9.35v33.4c-.35,9.93-8.31,17.93-18.28,18.28-10.42.35-19.18-7.82-19.52-18.28v-3.95l-28.42,22.26v-12.05l.03-.03h.02ZM15.88,358.87c.14-7.58,6.37-13.67,13.98-13.53h52.23v9.93h-49.84c-3.81-.07-6.96,2.98-6.99,6.78v22.88h-9.38v-26.06ZM15.88,408.92c.14-7.58,6.37-13.67,13.98-13.53h52.23v9.97h-49.84c-3.81-.07-6.96,2.98-6.99,6.78v22.88h-9.38v-26.1ZM82.58,658.82v49.29h-8.65v-19.94H15.89v-9.52h58.04v-19.83s8.65,0,8.65,0ZM61.4,735.7c-1.9,3.01-4.64,5.4-7.82,6.96-3.46,1.7-10.69,2.79-16.17,2.01v-32.09c-3.98,0-7.79,1.56-10.7,4.22-5.49,5.47-4.88,16.34,2.6,19.77,0,0-4.08,6.78-4.08,6.78-3.29-1.18-6.02-3.57-7.61-6.68-5.65-10.44-2.28-25.14,8.68-30.56,11.47-5.81,28.35-3.76,35.17,8.1,3.69,6.51,4.03,15.03,0,21.46M53.12,717.07c-2.28-2.35-5.33-3.84-8.62-4.19v22.74c3.15,0,6.16-1.18,8.51-3.25,4.24-3.95,3.91-11.16.11-15.3M61.4,947.43c-1.9,3.01-4.64,5.4-7.82,6.96-3.46,1.7-10.69,2.79-16.17,2.01v-32.09c-3.98,0-7.79,1.56-10.7,4.22-5.49,5.47-4.88,16.34,2.6,19.77,0,0-4.08,6.78-4.08,6.78-3.29-1.18-6.02-3.57-7.61-6.68-5.65-10.44-2.28-25.14,8.68-30.56,11.47-5.81,28.35-3.76,35.17,8.1,3.69,6.51,4.03,15.03,0,21.46M53.12,928.8c-2.28-2.35-5.33-3.84-8.62-4.19v22.74c3.15,0,6.16-1.18,8.51-3.25,4.24-3.95,3.91-11.16.11-15.3M61.4,1404.82c-1.9,3.01-4.64,5.4-7.82,6.96-3.46,1.7-10.69,2.79-16.17,2.01v-32.09c-3.98,0-7.79,1.56-10.7,4.22-5.49,5.47-4.88,16.34,2.6,19.77,0,0-4.08,6.78-4.08,6.78-3.29-1.18-6.02-3.57-7.61-6.68-5.65-10.44-2.28-25.14,8.68-30.56,11.47-5.81,28.35-3.76,35.17,8.1,3.69,6.51,4.03,15.03,0,21.46M53.12,1386.19c-2.28-2.35-5.33-3.84-8.62-4.19v22.74c3.15,0,6.16-1.18,8.51-3.25,4.24-3.95,3.91-11.16.11-15.3M46.79,770l16.41,11.28v10.14l-23.5-16.65-23.78,16.65v-10.76l16.41-11.11-16.41-11.28v-10.31l23.43,16.75,23.88-16.75v10.94s-16.42,11.17-16.44,11.1ZM17.78,826.93c-4.17-6.13-4.13-15.24.83-20.94,2.49-2.73,6.92-4.08,13.29-4.08h23.22v-7.75h8.03v7.75h13.67v9h-13.67v13.5h-8.03v-13.5h-21.94c-6.58,0-9.83,2.35-9.83,7.06,0,2.11.59,4.15,1.73,5.92,0-.04-7.37,3.19-7.3,3.04ZM63.2,863.69v9.07H15.92v-8.03c3.05-.1,5.61-.31,7.65-.62-5.58-2.56-8.79-8.73-8.66-14.74-.47-10.71,9.7-16.91,19.49-16.2,0,0,28.8,0,28.8,0v9h-26.06c-3.53-.21-7.03.62-10.07,2.39-5.35,3.48-4.33,11.76.03,15.64,2.84,2.46,6.54,3.74,10.31,3.5,0,0,25.81.02,25.79,0ZM61.92,914.02l-7.37-3.43c2.61-4.17-.24-15.79-15.23-15.79H15.89v-9.07h47.28v8.03l-7.65.52c6.74,2.77,10.98,12.11,6.4,19.74ZM85.24,998.13v9H15.88v-7.93c4.12-.31,6.71-.48,7.75-.62-8.95-4.61-11.26-16.86-5.85-25.02,7.15-11.1,23.68-12.79,34.92-7.48,9.54,4.36,14.67,16.13,9.55,25.69-1.38,2.6-3.43,4.81-5.92,6.4.01-.04,28.97.08,28.91-.04ZM27.27,994.32c3.46,2.8,7.86,4.19,12.32,3.84,4.4.35,8.72-1,12.11-3.84,5.14-4.7,5.4-13.88-.28-18.24-8.58-6.47-28.34-4.34-28.18,9.03-.03,3.5,1.42,6.85,4.02,9.21M82.58,1075.38c.11,7.93-3.07,16.36-10.11,20.59-9.99,6.1-24.44,2.6-29.45-8.27-1.83-3.84-2.73-8.06-2.63-12.29v-11.18H15.88v-9.45h66.7v20.63s0-.03,0-.03ZM48.87,1074.2c-.55,7.42,4.58,15.09,12.57,14.64,3.5.14,6.85-1.25,9.21-3.84,2.46-3.05,3.7-6.89,3.46-10.8v-10.04h-25.23s.02,10.06,0,10.04ZM45.85,1145.44v-27.69h-21.32v31.91h-8.65v-41.33h66.8v40.39h-8.65v-30.94h-19.59v27.69s-8.64.06-8.59-.03ZM15.88,1161.22h66.7v9.41H15.88v-9.41ZM82.58,1238.89c.11,7.93-3.07,16.36-10.11,20.59-9.99,6.1-24.44,2.6-29.45-8.27-1.83-3.84-2.73-8.06-2.63-12.29v-11.18H15.88v-9.41h66.7v20.63s0-.07,0-.07ZM48.87,1237.75c-.55,7.42,4.58,15.09,12.57,14.64,3.5.14,6.85-1.25,9.21-3.84,2.46-3.05,3.7-6.89,3.46-10.8v-10.04h-25.23s.02,10.06,0,10.04ZM15.88,1270.87h69.33v9.07H15.88v-9.07ZM59.25,1324.28c-3.91,3.6-8.62,5.05-14.4,5.05H15.88v-7.86c2.73-.1,4.67-.28,5.81-.45-4.6-2.91-6.85-8.13-6.85-13.57,0-7.5,4.73-16.82,14.68-16.82s15.19,8.89,15.19,19.73c0,3.99-1.35,9.97-1.35,9.97,3.36.28,6.88-.59,9.69-2.46,3.98-3.4,3.86-9.84,1.28-14.06-1.32-1.9-3.08-3.46-5.16-4.53l4.02-6.68c11.72,5.04,14.9,22.64,6.02,31.67M35.57,1302.89c-2.46-3.67-8.37-3.98-11.14-.52-5.11,6.68.17,17.96,11.87,17.96,0,0,2.57-12.22-.73-17.44ZM17.78,1368.58c-4.17-6.13-4.13-15.24.83-20.94,2.49-2.73,6.92-4.08,13.29-4.08h23.22v-7.75h8.03v7.75h13.67v9h-13.67v13.5h-8.03v-13.5h-21.94c-6.58,0-9.83,2.35-9.83,7.06,0,2.11.59,4.15,1.73,5.92,0-.04-7.37,3.19-7.3,3.04Z" style="fill:#bcbec0;"/></svg>