<?xml version="1.0" encoding="UTF-8"?><svg id="a" xmlns="http://www.w3.org/2000/svg" viewBox="0 0 3000 3000"><path d="M2555.32,2593.95v212.1c0,3.62,2.13,6.89,5.44,8.35l78.58,34.72c5.06,2.24,8.33,7.25,8.33,12.79v31.48l-109.06-48.19c-12.41-5.48-20.41-17.77-20.41-31.34v-227.73c0-13.57,8.01-25.85,20.41-31.34l109.06-48.19v31.48c0,5.54-3.27,10.55-8.33,12.79l-78.58,34.72c-3.31,1.46-5.44,4.74-5.44,8.35ZM2609.34,2597.08v36.39c0,2.55,1.5,4.85,3.83,5.88l29.05,12.83c2.44,1.08,4.02,3.5,4.02,6.16v83.29c0,2.67-1.57,5.09-4.02,6.16l-29.05,12.83c-2.33,1.03-3.83,3.34-3.83,5.88v36.39l65.29-28.85c5.31-2.35,8.73-7.6,8.73-13.4v-121.34c0-5.8-3.42-11.06-8.73-13.4l-65.29-28.85ZM2844.68,2593.95v212.1c0,3.62-2.13,6.89-5.44,8.35l-78.58,34.72c-5.06,2.24-8.33,7.25-8.33,12.79v31.48s109.06-48.19,109.06-48.19c12.41-5.48,20.41-17.77,20.41-31.34v-227.73c0-13.57-8.01-25.85-20.41-31.34l-109.06-48.19v31.48c0,5.54,3.27,10.55,8.33,12.79l78.58,34.72c3.31,1.46,5.44,4.74,5.44,8.35ZM2725.37,2625.93c-5.31,2.35-8.73,7.6-8.73,13.4v121.34c0,5.8,3.42,11.06,8.73,13.4l65.29,28.85v-36.39c0-2.55-1.5-4.85-3.83-5.88l-29.05-12.83c-2.44-1.08-4.02-3.5-4.02-6.16v-83.29c0-2.67,1.57-5.09,4.02-6.16l29.05-12.83c2.33-1.03,3.83-3.34,3.83-5.88v-36.39s-65.29,28.85-65.29,28.85Z" style="fill:#bcbec0;"/></svg>