<?xml version="1.0" encoding="UTF-8"?><svg id="a" xmlns="http://www.w3.org/2000/svg" viewBox="0 0 2300 2300"><path d="M1991.91,2020.77v158.46c0,2.7,1.59,5.15,4.07,6.24l58.71,25.94c3.78,1.67,6.22,5.42,6.22,9.55v23.52l-81.48-36c-9.27-4.1-15.25-13.28-15.25-23.41v-170.14c0-10.14,5.98-19.32,15.25-23.41l81.48-36v23.52c0,4.14-2.44,7.88-6.22,9.55l-58.71,25.94c-2.47,1.09-4.07,3.54-4.07,6.24ZM2032.27,2023.11v27.19c0,1.9,1.12,3.63,2.86,4.4l21.7,9.59c1.82.81,3,2.61,3,4.6v62.22c0,1.99-1.18,3.8-3,4.6l-21.7,9.59c-1.74.77-2.86,2.49-2.86,4.4v27.19l48.78-21.55c3.97-1.75,6.52-5.68,6.52-10.01v-90.65c0-4.34-2.56-8.26-6.52-10.01l-48.78-21.55ZM2208.09,2020.77v158.46c0,2.7-1.59,5.15-4.07,6.24l-58.71,25.94c-3.78,1.67-6.22,5.42-6.22,9.55v23.52s81.48-36,81.48-36c9.27-4.1,15.25-13.28,15.25-23.41v-170.14c0-10.14-5.98-19.32-15.25-23.41l-81.48-36v23.52c0,4.14,2.44,7.88,6.22,9.55l58.71,25.94c2.47,1.09,4.07,3.54,4.07,6.24ZM2118.95,2044.66c-3.97,1.75-6.52,5.68-6.52,10.01v90.65c0,4.34,2.56,8.26,6.52,10.01l48.78,21.55v-27.19c0-1.9-1.12-3.63-2.86-4.4l-21.7-9.59c-1.82-.81-3-2.61-3-4.6v-62.22c0-1.99,1.18-3.8,3-4.6l21.7-9.59c1.74-.77,2.86-2.49,2.86-4.4v-27.19s-48.78,21.55-48.78,21.55Z" style="fill:#bcbec0;"/></svg>