<?xml version="1.0" encoding="UTF-8"?><svg id="a" xmlns="http://www.w3.org/2000/svg" viewBox="0 0 4000 3000"><path d="M3900,2985h85v-85h15v100h-100v-15ZM243.66,145.24l-36.64,105.87-38.26-105.87h-41.73v167.01h36.6v-100.59l29.27,86.8h29.04l26.32-86.8v100.59h36.6v-167.01h-41.2ZM346.74,183.27c-9.11,3.27-18.43,8.25-27.98,14.97l13.84,23.61c14.2-9.79,26.89-14.68,38.07-14.68,7.77.1,13.16,1.79,15.57,8.92,1.25,3.4,1.58,10.52,1.47,15.83-22.36.96-40.46,5.43-54.3,13.39-25.9,13.05-28.53,52.57-2.93,66.36,18.55,9.45,43.41,3.85,59.61-9.5l2.89,10.08h30.52v-91.26c0-15.16-3.94-26.05-11.8-32.68-13.6-12.39-46.61-12.1-64.97-5.04ZM349.79,275.1c0-5.18,3.05-9.59,9.15-13.24,6.1-3.64,15.69-5.85,28.78-6.62,0,0,0,25.05,0,25.05-10.45,6.22-26.16,11.56-34.43,4.46-2.33-2.2-3.5-5.42-3.5-9.64ZM645.62,186.01c-6.65,2.5-13.26,5.95-19.82,10.36v-10.74l-35.8-.2v126.81h35.8v-91.4c9.67-6.14,18.09-9.21,25.25-9.21,7.58.12,16.38,3.75,16.38,21.02v79.6h35.8v-91.11c0-12.67-3.11-22.31-9.31-28.93-9.97-11.52-33.37-12.19-48.3-6.19ZM817.88,185.86c-16.37-10.37-45.24-9.82-61.53.72-20.58,12.95-27.34,36.39-27.45,61.75-1.42,55.01,40.69,78.66,89.11,63.62,8.31-2.88,15.65-6.91,22.01-12.09,0,0-12.2-23.61-12.2-23.61-25.32,16.92-59.61,17.1-62.85-20.44h76.38c2.78-28.73,1.18-54.29-23.47-69.96ZM787.98,204.86c5.62,0,10.12,1.92,13.52,5.76,3.4,3.84,5.11,11.04,5.11,19.87h-40.58c1.36-8.83,3.87-15.3,7.53-19.43,3.65-4.12,8.46-6.19,14.42-6.19ZM935.21,280.57c-13.34,6.21-26.69,8.34-26.26-11.23v-55.85h29.44l-.22-30.8h-29.22v-31.14h-35.8v31.14h-21.75v30.8h21.75s0,61.9,0,61.9c-.12,16.13,5.74,29.76,18.89,36.71,16.52,8.1,38.08,3.63,52.98-5.33,0,0-9.81-26.2-9.81-26.2ZM1048.81,309.22c9.81-4.7,17.59-12.19,23.34-22.46,11.02-18.68,11.33-54.86,1.72-75.28-13.75-33.6-56.96-40.37-87.52-26.34-42.37,18.52-43.07,97.64-4.64,121.92,17.59,12.25,48.08,11.58,67.1,2.16ZM1017.51,287.2c-21.18-.23-26.12-19.86-26.39-40.02.39-21.77,4.49-39.45,26.92-39.73,21.2.33,25.28,19.03,25.59,39.73,0,12.28-1.96,22.02-5.86,29.22-3.91,7.2-10.66,10.8-20.26,10.8ZM571.3,322.61c0,20.43-12.94,34.34-32.22,41.46-28.14,10.71-99.12,9.81-98.52-31.09,0-7.1,1.68-13.1,5.04-17.99,3.36-4.89,7.87-9.07,13.53-12.52-7.96-6.8-9.36-17.93-3.85-26.77,2.21-3.64,5.88-7.39,11.01-11.23-7.25-4.03-12.69-9.36-16.31-15.98-8.13-14.13-7.11-37.21,2.78-49.37,5.48-7.1,12.73-12.33,21.75-15.69,17.12-6.67,42.5-7.21,57.63,1.88h35.28v26.07s-9.91,0-9.91,0c13.5,39.56-19.19,61.65-55.68,60.87-4.77,0-9.28-.29-13.52-.86-3.31,5.79-1.42,9.61,5.17,11.08,22.78,4.8,56.29.56,71.87,19.87,3.98,5.09,5.97,11.85,5.97,20.3ZM480.33,225.88c.07,14.29,9.14,18.57,22.96,18.71,13.92,0,21.16-5.2,21.33-18.71-.02-13.5-8.71-19.61-22.14-19.58-14.76,0-22.14,6.53-22.14,19.58ZM532.31,328.36c0-2.69-.74-4.8-2.2-6.33-1.47-1.54-3.97-2.78-7.51-3.74-11.46-3.28-28.32-2.75-41.32-6.05-4.86,8.12-8.38,20.79,1.04,26.49,6.89,4.93,34.36,5.04,42.61,0,4.92-2.5,7.38-5.95,7.38-10.36ZM1229.57,228.35l48.46,83.89h-39.95l-28.49-49.32-28.49,49.32h-39.95l48.46-83.89-48.46-83.89h39.95l28.49,49.32,28.49-49.32h39.95l-48.46,83.89ZM114.69,2865.24v-149.28c0-41.12,24.37-77.31,62.48-92.77,11.11-4.51,22.15.16,26.65,11.27,4.51,11.11-.16,22.15-11.27,26.65-23.72,9.62-37.69,31.07-36.91,56.66v147.46c0,11.31-9.17,20.48-20.48,20.48s-20.48-9.17-20.48-20.48ZM314.91,2715.96c0,58.64-41.47,100.11-100.11,100.11-13.54,0-27.1-2.71-40.04-8.35-10.37-4.53-15.11-16.6-10.59-26.97,4.53-10.37,16.6-15.11,26.97-10.59,7.64,3.33,15.65,4.93,23.65,4.93,27.49,0,49.99-16.63,57.2-44.13,1.93-7.35-2.47-14.87-9.82-16.8-7.35-1.93-14.87,2.47-16.8,9.82-3.86,14.71-15.88,23.59-30.58,23.59-18.52,0-31.61-13.09-31.61-31.61,0-18.52,13.09-31.61,31.61-31.61,11.17,0,21.29,5.44,27.25,15.59,3.85,6.55,12.28,8.74,18.84,4.89,6.55-3.85,8.74-12.28,4.89-18.84-5.77-9.81-14.04-17.58-24.15-22.73-10.08-5.13-14.1-17.47-8.97-27.55,5.13-10.08,17.47-14.1,27.55-8.97,35.32,17.98,54.7,51.49,54.7,89.22ZM1281.45,2686.72c-1.85-1.6-4.14-2.38-6.4-2.38-2.76,0-5.51,1.16-7.45,3.42l-37.67,43.79-37.67-43.79c-1.94-2.26-4.69-3.42-7.45-3.42-2.27,0-4.55.78-6.4,2.38-4.11,3.54-4.58,9.74-1.04,13.86l42.74,49.69v57.14c0,2.45,1.99,4.44,4.44,4.44h10.77c2.45,0,4.44-1.99,4.44-4.44v-57.14l42.74-49.69c3.54-4.11,3.07-10.32-1.04-13.86ZM974.18,2686.46c-37.03,0-67.05,28.68-67.05,64.06s30.02,64.06,67.05,64.06,67.05-28.68,67.05-64.06-30.02-64.06-67.05-64.06ZM974.18,2794.92c-26.13,0-47.4-19.92-47.4-44.41s21.26-44.41,47.4-44.41,47.4,19.92,47.4,44.41-21.26,44.41-47.4,44.41ZM441.72,2686.46h-53.33c-2.45,0-4.44,1.99-4.44,4.44v116.51c0,2.45,1.99,4.44,4.44,4.44h10.77c2.45,0,4.44-1.99,4.44-4.44v-48.43h38.12c17.65,0,31.96-14.31,31.96-31.96v-8.61c0-17.65-14.31-31.96-31.96-31.96ZM456.35,2724.69c0,8.08-6.55,14.64-14.64,14.64h-38.12v-33.22h38.12c8.08,0,14.64,6.55,14.64,14.64v3.94ZM599.93,2690.9v10.77c0,2.45-1.99,4.44-4.44,4.44h-64.2v33.22h46.36c2.45,0,4.44,1.99,4.44,4.44v10.77c0,2.45-1.99,4.44-4.44,4.44h-46.36v33.22h64.2c2.45,0,4.44,1.99,4.44,4.44v10.77c0,2.45-1.99,4.44-4.44,4.44h-79.42c-2.45,0-4.44-1.99-4.44-4.44v-116.51c0-2.45,1.99-4.44,4.44-4.44h79.42c2.45,0,4.44,1.99,4.44,4.44ZM850.23,2686.46h-53.33c-2.45,0-4.44,1.99-4.44,4.44v116.51c0,2.45,1.99,4.44,4.44,4.44h10.77c2.45,0,4.44-1.99,4.44-4.44v-48.43h38.12c17.65,0,31.96-14.31,31.96-31.96v-8.61c0-17.65-14.31-31.96-31.96-31.96ZM864.87,2724.69c0,8.08-6.55,14.64-14.64,14.64h-38.12v-33.22h38.12c8.08,0,14.64,6.55,14.64,14.64v3.94ZM687.15,2685.1c-37.03,0-67.05,28.68-67.05,64.06s30.02,64.06,67.05,64.06,67.05-28.68,67.05-64.06-30.02-64.06-67.05-64.06ZM687.15,2793.56c-26.13,0-47.4-19.92-47.4-44.41s21.26-44.41,47.4-44.41,47.4,19.92,47.4,44.41-21.26,44.41-47.4,44.41ZM1158.39,2796.64v10.77c0,2.45-1.99,4.44-4.44,4.44h-67.81c-2.45,0-4.44-1.99-4.44-4.44v-116.51c0-2.45,1.99-4.44,4.44-4.44h10.77c2.45,0,4.44,1.99,4.44,4.44v101.3h52.59c2.45,0,4.44,1.99,4.44,4.44ZM0,2900v100h100v-15H15v-85H0ZM100,15H15v85H0V0h100v15ZM3985,100V15h-85V0h100v100h-15Z" style="fill:#bcbec0;"/><path d="M3434.84,2703.23c-18.11,0-26.93,20.33-26.93,45.57s8.81,44.78,27.05,44.78,27.05-19.27,27.05-44.78-8.81-45.57-26.93-45.57" style="fill:none; stroke:#bcbec0; stroke-linecap:round; stroke-linejoin:round; stroke-width:15px;"/><path d="M3518.17,2703.23c-18.11,0-26.93,20.33-26.93,45.57s8.81,44.78,27.05,44.78,27.05-19.27,27.05-44.78-8.81-45.57-26.93-45.57" style="fill:none; stroke:#bcbec0; stroke-linecap:round; stroke-linejoin:round; stroke-width:15px;"/><path d="M3623.52,2793.58l-45.9-73.74M3574.56,2793.58l47.49-73.74" style="fill:none; stroke:#bcbec0; stroke-linecap:round; stroke-linejoin:round; stroke-width:15px;"/><path d="M3674.84,2745.75c16.4,0,24.11-10.23,24.11-22.19,0-10.9-6.61-20.46-21.17-20.46-11.75,0-18.85,6.38-22.4,13.42M3653.54,2777.1c2.33,9.83,11.14,16.48,23.01,16.48,14.44,0,23.62-9.83,23.62-23.38,0-11.83-6.85-24.45-25.34-24.45h-3.79" style="fill:none; stroke:#bcbec0; stroke-linecap:round; stroke-linejoin:round; stroke-width:15px;"/><polyline points="3365.23 2792.92 3365.23 2703.89 3364 2703.89 3326.06 2771.13 3326.06 2771.66 3380.41 2771.66" style="fill:none; stroke:#bcbec0; stroke-linecap:round; stroke-linejoin:round; stroke-width:15px;"/><path d="M3758.95,2703.23c-18.11,0-26.93,20.33-26.93,45.57s8.81,44.78,27.05,44.78,27.05-19.27,27.05-44.78-8.81-45.57-26.93-45.57" style="fill:none; stroke:#bcbec0; stroke-linecap:round; stroke-linejoin:round; stroke-width:15px;"/><path d="M3842.28,2703.23c-18.11,0-26.93,20.33-26.93,45.57s8.81,44.78,27.05,44.78,27.05-19.27,27.05-44.78-8.81-45.57-26.93-45.57" style="fill:none; stroke:#bcbec0; stroke-linecap:round; stroke-linejoin:round; stroke-width:15px;"/></svg>