<?xml version="1.0" encoding="UTF-8"?><svg id="a" xmlns="http://www.w3.org/2000/svg" viewBox="0 0 3000 4000"><path d="M2350.91,3746.88c16.4,0,24.11-10.23,24.11-22.19,0-10.9-6.61-20.46-21.17-20.46-11.75,0-18.85,6.38-22.4,13.42M2329.61,3778.24c2.33,9.83,11.14,16.48,23.01,16.48,14.44,0,23.62-9.83,23.62-23.38,0-11.83-6.85-24.45-25.34-24.45h-3.79" style="fill:none; stroke:#bcbec0; stroke-linecap:round; stroke-linejoin:round; stroke-width:15px;"/><path d="M2434.84,3704.23c-18.11,0-26.93,20.33-26.93,45.57s8.81,44.78,27.05,44.78,27.05-19.27,27.05-44.78-8.81-45.57-26.93-45.57" style="fill:none; stroke:#bcbec0; stroke-linecap:round; stroke-linejoin:round; stroke-width:15px;"/><path d="M2518.17,3704.23c-18.11,0-26.93,20.33-26.93,45.57s8.81,44.78,27.05,44.78,27.05-19.27,27.05-44.78-8.81-45.57-26.93-45.57" style="fill:none; stroke:#bcbec0; stroke-linecap:round; stroke-linejoin:round; stroke-width:15px;"/><path d="M2623.52,3794.58l-45.9-73.74M2574.56,3794.58l47.49-73.74" style="fill:none; stroke:#bcbec0; stroke-linecap:round; stroke-linejoin:round; stroke-width:15px;"/><polyline points="2688.85 3794.58 2688.85 3705.56 2687.63 3705.56 2649.68 3772.79 2649.68 3773.32 2704.03 3773.32" style="fill:none; stroke:#bcbec0; stroke-linecap:round; stroke-linejoin:round; stroke-width:15px;"/><path d="M2758.95,3704.23c-18.11,0-26.93,20.33-26.93,45.57s8.81,44.78,27.05,44.78,27.05-19.27,27.05-44.78-8.81-45.57-26.93-45.57" style="fill:none; stroke:#bcbec0; stroke-linecap:round; stroke-linejoin:round; stroke-width:15px;"/><path d="M2842.28,3704.23c-18.11,0-26.93,20.33-26.93,45.57s8.81,44.78,27.05,44.78,27.05-19.27,27.05-44.78-8.81-45.57-26.93-45.57" style="fill:none; stroke:#bcbec0; stroke-linecap:round; stroke-linejoin:round; stroke-width:15px;"/><path d="M284.86,145.24v167.01h-36.6v-100.59l-26.32,86.8h-29.04l-29.27-86.8v100.59h-36.6v-167.01h41.73l38.26,105.87,36.64-105.87h41.2ZM411.72,188.31c7.87,6.62,11.8,17.52,11.8,32.68v91.26h-30.52l-2.89-10.08c-16.2,13.35-41.06,18.95-59.61,9.5-25.6-13.78-22.97-53.31,2.93-66.36,13.84-7.96,31.94-12.43,54.3-13.39.11-5.31-.22-12.44-1.47-15.83-2.42-7.14-7.8-8.82-15.57-8.92-11.18,0-23.87,4.89-38.07,14.68l-13.84-23.61c9.55-6.72,18.87-11.7,27.98-14.97,18.36-7.06,51.37-7.35,64.97,5.04ZM353.29,284.75c8.27,7.09,23.98,1.76,34.43-4.46,0,0,0-25.05,0-25.05-13.09.77-22.68,2.98-28.78,6.62-6.1,3.65-9.15,8.06-9.15,13.24,0,4.22,1.16,7.44,3.5,9.64ZM693.92,192.2c6.21,6.62,9.31,16.27,9.31,28.93v91.11h-35.8v-79.6c0-17.27-8.81-20.9-16.38-21.02-7.16,0-15.58,3.07-25.25,9.21v91.4h-35.8v-126.81l35.8.2v10.74c6.56-4.41,13.17-7.87,19.82-10.36,14.93-6,38.33-5.33,48.3,6.19ZM841.35,255.82h-76.38c3.24,37.54,37.54,37.36,62.85,20.44,0,0,12.2,23.61,12.2,23.61-6.36,5.18-13.7,9.21-22.01,12.09-48.42,15.03-90.53-8.61-89.11-63.62.11-25.37,6.87-48.8,27.45-61.75,16.29-10.54,45.15-11.09,61.53-.72,24.65,15.67,26.25,41.23,23.47,69.96ZM773.57,211.05c-3.66,4.13-6.17,10.61-7.53,19.43h40.58c0-8.83-1.7-16.02-5.11-19.87-3.4-3.84-7.91-5.76-13.52-5.76-5.96,0-10.76,2.06-14.42,6.19ZM945.02,306.77c-14.9,8.96-36.46,13.42-52.98,5.33-13.15-6.95-19.02-20.57-18.89-36.71,0,0,0-61.9,0-61.9h-21.75v-30.8h21.75v-31.14h35.8v31.14h29.22l.22,30.8h-29.44v55.85c-.44,19.57,12.92,17.44,26.26,11.23,0,0,9.81,26.2,9.81,26.2ZM981.71,307.06c-38.42-24.28-37.73-103.4,4.64-121.92,30.56-14.03,73.77-7.26,87.52,26.34,9.61,20.42,9.3,56.61-1.72,75.28-5.75,10.27-13.52,17.75-23.34,22.46-19.02,9.42-49.51,10.09-67.1-2.16ZM1037.77,276.4c3.91-7.2,5.86-16.94,5.86-29.22-.31-20.7-4.39-39.4-25.59-39.73-22.43.28-26.53,17.96-26.92,39.73.27,20.15,5.21,39.78,26.39,40.02,9.6,0,16.35-3.6,20.26-10.8ZM565.33,302.31c-15.58-19.31-49.09-15.06-71.87-19.87-6.6-1.47-8.48-5.3-5.17-11.08,4.24.58,8.75.86,13.52.86,36.49.78,69.18-21.31,55.68-60.87,0,0,9.91,0,9.91,0v-26.07h-35.28c-15.13-9.09-40.51-8.54-57.63-1.88-9.02,3.36-16.27,8.59-21.75,15.69-9.89,12.16-10.91,35.25-2.78,49.37,3.62,6.62,9.06,11.95,16.31,15.98-5.13,3.84-8.8,7.58-11.01,11.23-5.51,8.84-4.11,19.97,3.85,26.77-5.66,3.45-10.17,7.63-13.53,12.52-3.36,4.89-5.04,10.89-5.04,17.99-.59,40.9,70.38,41.8,98.52,31.09,19.28-7.12,32.23-21.02,32.22-41.46,0-8.45-1.99-15.21-5.97-20.3ZM502.48,206.3c13.44-.04,22.12,6.08,22.14,19.58-.17,13.52-7.41,18.71-21.33,18.71-13.82-.14-22.89-4.42-22.96-18.71,0-13.05,7.38-19.58,22.14-19.58ZM524.93,338.73c-8.26,5.04-35.72,4.93-42.61,0-9.41-5.69-5.9-18.37-1.04-26.49,12.99,3.3,29.86,2.77,41.32,6.05,3.54.96,6.05,2.2,7.51,3.74,1.47,1.53,2.2,3.64,2.2,6.33,0,4.41-2.46,7.87-7.38,10.36ZM1278.03,144.46h-39.95l-28.49,49.32-28.49-49.32h-39.95l48.46,83.89-48.46,83.89h39.95l28.49-49.32,28.49,49.32h39.95l-48.46-83.89,48.46-83.89ZM135.17,3885.72c11.31,0,20.48-9.17,20.48-20.48v-147.46c-.79-25.59,13.19-47.04,36.91-56.66,11.11-4.51,15.78-15.55,11.27-26.65-4.51-11.11-15.55-15.78-26.65-11.27-38.11,15.46-62.48,51.64-62.48,92.77v149.28c0,11.31,9.17,20.48,20.48,20.48ZM260.21,3626.74c-10.08-5.13-22.42-1.12-27.55,8.97-5.13,10.08-1.12,22.42,8.97,27.55,10.11,5.14,18.39,12.92,24.15,22.73,3.85,6.55,1.66,14.98-4.89,18.84-6.55,3.85-14.98,1.66-18.84-4.89-5.97-10.15-16.08-15.59-27.25-15.59-18.52,0-31.61,13.09-31.61,31.61,0,18.52,13.09,31.61,31.61,31.61,14.7,0,26.72-8.89,30.58-23.59,1.93-7.35,9.45-11.75,16.8-9.82,7.35,1.93,11.75,9.45,9.82,16.8-7.21,27.51-29.71,44.13-57.2,44.13-8,0-16.01-1.6-23.65-4.93-10.37-4.53-22.45.21-26.97,10.59-4.53,10.37.21,22.45,10.59,26.97,12.93,5.64,26.5,8.35,40.04,8.35,58.64,0,100.11-41.47,100.11-100.11,0-37.72-19.38-71.24-54.7-89.22ZM1282.49,3700.58l-42.74,49.69v57.14c0,2.45-1.99,4.44-4.44,4.44h-10.77c-2.45,0-4.44-1.99-4.44-4.44v-57.14l-42.74-49.69c-3.54-4.11-3.07-10.32,1.04-13.86,1.86-1.6,4.13-2.38,6.4-2.38,2.76,0,5.51,1.16,7.45,3.42l37.67,43.79,37.67-43.79c1.94-2.26,4.69-3.42,7.45-3.42,2.27,0,4.55.78,6.4,2.38,4.11,3.54,4.58,9.74,1.04,13.86ZM1041.23,3750.52c0,35.38-30.02,64.06-67.05,64.06s-67.05-28.68-67.05-64.06,30.02-64.06,67.05-64.06,67.05,28.68,67.05,64.06ZM1021.57,3750.52c0-24.49-21.26-44.41-47.4-44.41s-47.4,19.92-47.4,44.41,21.26,44.41,47.4,44.41,47.4-19.92,47.4-44.41ZM473.67,3718.42v8.61c0,17.65-14.31,31.96-31.96,31.96h-38.12v48.43c0,2.45-1.99,4.44-4.44,4.44h-10.77c-2.45,0-4.44-1.99-4.44-4.44v-116.51c0-2.45,1.99-4.44,4.44-4.44h53.33c17.65,0,31.96,14.31,31.96,31.96ZM456.35,3720.75c0-8.08-6.55-14.64-14.64-14.64h-38.12v33.22h38.12c8.08,0,14.64-6.55,14.64-14.64v-3.94ZM595.49,3686.46h-79.42c-2.45,0-4.44,1.99-4.44,4.44v116.51c0,2.45,1.99,4.44,4.44,4.44h79.42c2.45,0,4.44-1.99,4.44-4.44v-10.77c0-2.45-1.99-4.44-4.44-4.44h-64.2v-33.22h46.36c2.45,0,4.44-1.99,4.44-4.44v-10.77c0-2.45-1.99-4.44-4.44-4.44h-46.36v-33.22h64.2c2.45,0,4.44-1.99,4.44-4.44v-10.77c0-2.45-1.99-4.44-4.44-4.44ZM882.19,3718.42v8.61c0,17.65-14.31,31.96-31.96,31.96h-38.12v48.43c0,2.45-1.99,4.44-4.44,4.44h-10.77c-2.45,0-4.44-1.99-4.44-4.44v-116.51c0-2.45,1.99-4.44,4.44-4.44h15.21s38.12,0,38.12,0c17.65,0,31.96,14.31,31.96,31.96ZM864.87,3720.75c0-8.08-6.55-14.64-14.64-14.64h-38.12v33.22h38.12c8.08,0,14.64-6.55,14.64-14.64v-3.94ZM754.2,3749.16c0,35.38-30.02,64.06-67.05,64.06s-67.05-28.68-67.05-64.06,30.02-64.06,67.05-64.06,67.05,28.68,67.05,64.06ZM734.55,3749.16c0-24.49-21.26-44.41-47.4-44.41s-47.4,19.92-47.4,44.41,21.26,44.41,47.4,44.41,47.4-19.92,47.4-44.41ZM1153.94,3792.2h-52.59v-101.3c0-2.45-1.99-4.44-4.44-4.44h-10.77c-2.45,0-4.44,1.99-4.44,4.44v116.51c0,2.45,1.99,4.44,4.44,4.44h67.81c2.45,0,4.44-1.99,4.44-4.44v-10.77c0-2.45-1.99-4.44-4.44-4.44ZM2900,4000h100v-100h-15v85h-85v15ZM15,3900v85h85v15H0v-100h15ZM100,0H0v100h15V15h85V0ZM3000,100V0h-100v15h85v85h15Z" style="fill:#bcbec0;"/></svg>