<?xml version="1.0" encoding="UTF-8"?><svg id="a" xmlns="http://www.w3.org/2000/svg" viewBox="0 0 3000 3000"><path d="M2474.82,2746.7l-32.31,85.06h25.38l4.76-12.53h26.49l4.76,12.53h25.38l-32.31-85.06h-22.14ZM2480.44,2798.72l5.44-14.33,5.44,14.33h-10.89ZM2415.29,2746.7h24.04v33.1l-23.41,52.02h-19.89l-11.39-25.31-11.39,25.31h-19.89l-23.41-52.02v-33.1h24.04v33.1l10.51,22.67,8.12-22.67v-33.1h24.04v33.1l8.12,22.67,10.51-22.67v-33.1ZM2684.23,2746.7h24.04v85.12h-24.04v-33.36h-32.07v33.36h-24.04v-85.12h24.04v31.23h32.07v-31.23ZM2590.87,2746.7h24.04v85.12h-24.04l-32.21-45.42v45.42h-24.04v-85.12h24.04v.04l32.21,45.42v-45.46ZM2746.71,2746.7l-32.31,85.06h25.38l4.76-12.53h26.49l4.76,12.53h25.38l-32.31-85.06h-22.14ZM2752.34,2798.72l5.44-14.33,5.44,14.33h-10.89ZM2848.3,2744.31c-24.07,0-43.59,20.11-43.59,44.92s19.51,44.92,43.59,44.92,43.59-20.11,43.59-44.92-19.51-44.92-43.59-44.92ZM2848.3,2811.15c-11.35,0-20.58-9.83-20.58-21.92s9.23-21.92,20.58-21.92,20.58,9.83,20.58,21.92-9.23,21.92-20.58,21.92ZM2736.64,2483.55c5.15-.39,19.3-1.03,20.01,6.08.26,2.59-11.41,22.21-13.36,27.26-14.64,37.86,21.42,84.99,11.86,112.87-2.27,6.63-9.38,8.69-15.16,11.54-15.59,7.7-54.75,23.96-71.09,24.21-14.05.22-46.82-8.39-60.04-14.24-5.59-2.48-8.81-2.62-9.56-9.38-2-18.03-4.35-27.85-8.56-41.01-4.73-14.78-13.85-39.42-11.62-62.4.87-8.96,4.87-15.73,6.62-24.27,1.41-6.87,1.84-21.71,6.84-22.64,10.79-2.02,42.82,9.08,57.74,9.08,30.22-.01,58.79-15.01,86.32-17.11ZM2520.15,2516.67c-8.34,4.64-15.65,10.84-23.98,15.49-9.39,5.24-27.19,7.67-28.84,18.76-5.81,38.9,4.86,67.34,27.2,88.57,16.4,15.58,29.87-6.4,48.14,3.69,15.22,8.4,21.43,22.72,42.93,13.24,9.11-4.02,8.97-7.83,8.47-17.04-1.75-32.41-23-67.88-19.6-98.58.92-8.26,9.22-28.56,9.73-40.43.16-3.72-2.32-7.04-5.92-7.99h0c-1.96-.52-4.03-.25-5.82.69-16.91,8.88-35.66,14.35-52.3,23.62ZM2888.38,2539.64c8.43,1.93,20.9-.19,21.07-1,.1-.52-3.78-3.56-6.94-6.34-4.27-3.77-4.92-7.48-11.58-8.98-3.61-.81-8.21-.22-10.09-.89-4.73-1.68-11.98-3.75-19.35-3.95-10.26-.29-17.56,3.63-29,.88-10.3-2.47-9.87-8.23-16.64-13.55-6.71-5.27-18.86-6.9-27.33-9.82-10.92-3.78-22.07-14.69-30.45-.31-3.56,6.1-13.39,24.95-14.01,34.36-2.46,37.27,23.72,71.38,13.81,104.76.17,2.83,12.65,11.13,15.8,13.04,4.98,3.02,11.6,6.34,16.98,8.56,4.86,2,20.06,8.46,23.96,4.98,7.97-12.28,16.18-25.83,26.14-36.58,3.7-3.99,10.03-6.11,11-12.22,2.32-14.61-5.56-19.67-9.53-32.14-5.15-16.22-4.58-34.23-12.47-49.64,11.71,1.89,40.43-7.07,49.59.33,2.06,1.66,4.97,7.57,9.03,8.5ZM2441.96,2558.06c-2.24.93-17.03,6.38-17.99,6.36-3.14-.09-12.51-9.69-17.94-9.32-.49.03-.87.45-.84.94l.79,14.24c-5.41-3.19-10.88-5.2-17.16-4.78-.82.05-1.51.71-1.6,1.53-1.16,10.26,4.98,16.83,11.67,23.81-3.84,11.38.07,23.44-2.33,35.59-1.11,3.43-11.64,1.85-14.72,1.1-5.57-1.35-9.78-5.3-13.7-9.21-.73-.73-2-.38-2.25.63-2.8,11.33,2.43,21.01,6.44,31.43-7.59-.39-16.21-5.12-22.07-9.85-2.03-1.64-10.48-12.24-12.75-9.88.55,22.29,12.88,38.92,28.41,53.43,1.63,1.52,8.22,5.57,8.48,6.02,1.32,2.37-.6,7.09,3.09,11.43.72.85,13.65,10.74,14.52,11.02,6.17,1.98,28.36-2.92,32.41-8.35,2.18-2.93,1.97-7.23,5.35-9.74s10.05-3.31,14.47-6.42c9.75-6.86,21.25-22.24,31.95-28.43,4.85-2.8,14.05-.73,16.38-8.01,2.12-6.63-5.22-11-8.75-15.76-7.82-10.57-15.27-21.32-19.43-33.98-5.73-17.43-3.73-33.27-2.78-51.2-1.91-3.25-16.27,6-19.64,7.4ZM2854.9,2713.08c1.39,0,2.63-.9,3.04-2.24.92-2.98,3.63-5.25,4.91-8.22,1.83-4.24,2.4-9.03,4.22-13.2,4.45-10.21,15.93-20.88,14.95-31.49-1.02-11.06-7.63-10.2-13.53-16.09-2.95-2.95-14.29-21.63-17.25-21.63-9.66,11.53-29.17,30.08-33.39,44.46-1.5,5.12,9.89,11.43,9.61,16.36-.08,1.39-4.96,13.58-5.99,15.04-1.85,2.61-4.3,3.21-6.15,5.46-2.28,2.77-3.77,6.19-5.37,9.43-.48.98.22,2.12,1.31,2.12h43.64ZM2754.75,2713.08c.9,0,1.52-.9,1.21-1.74-6.09-17.06,5.8-9.49,15.82-11.55,10.82-2.23,18.37-11.26,26.72-16.23,7.45-4.43,12.9-2.18,13.39-15.24-.23-1.43-1.61-1.98-2.72-2.57-6.98-3.77-19.93-5.69-28.59-9.73-2.58-1.2-5.17-2.54-7.62-3.99-13.01-7.72-16.45-18.07-33.62-7.31-2.81,4.45,11.25,16.53,8.09,21.11-.93,1.35-8.81,4.81-11.14,6.61-11.34,8.77-8.85,13.97-14.46,22.39-1.05,1.58-5.86,3.5-8.17,6.06s-4.46,6.61-5.42,10.31c-.25.95.5,1.88,1.48,1.88h45.03ZM2551.67,2713.1c.94-.01,1.69-.77,1.72-1.71.23-7.52,6.13-12.12,9.53-18.43,5.15-9.57,7.62-20.01,6.72-30.91-14.8,1.62-23.92-17.53-36.52-17.56-6.39-.01-12.35,3.65-18.7,4.61-3.33.51-12.09-1.23-13.14,2.02-2.68,8.35,22.03,26.09,23.14,34.76.15,1.14-1.29,13.18-1.69,14.49-1.55,5.06-12,7.89-12.13,10.18-.16,2.86,2.03,2.52,4.73,2.52,13.14,0,23.46.17,36.34.02ZM2572.42,2679.24c-1.15,4.47-7.71,14.73-5.7,17.64,3.11,4.5,30.74,7.15,36.72,8.58,4.87,1.17,27.5,16.61,27.68,1.26.09-7.48-15.66-33.71-23.05-36.09-6.8-2.19-7.04,3.43-11.03,3.04-4.24-.42-15.41-15.98-22.43-9.07-1.04,1.02-1.43,11.7-2.18,14.64Z" style="fill:#f1f2f2; opacity:.75;"/><path d="M2100,3000v-80M2200,3000v-80M2110,3000v-39.02M2120,3000v-39.02M2130,3000v-39.02M2140,3000v-39.02M2150,3000v-59.51M2160,3000v-39.02M2170,3000v-39.02M2180,3000v-39.02M2190,3000v-39.02M2300,3000v-80M2210,3000v-39.02M2220,3000v-39.02M2230,3000v-39.02M2240,3000v-39.02M2250,3000v-59.51M2260,3000v-39.02M2270,3000v-39.02M2280,3000v-39.02M2290,3000v-39.02M2400,3000v-80M2310,3000v-39.02M2320,3000v-39.02M2330,3000v-39.02M2340,3000v-39.02M2350,3000v-59.51M2360,3000v-39.02M2370,3000v-39.02M2380,3000v-39.02M2390,3000v-39.02M2500,3000v-80M2410,3000v-39.02M2420,3000v-39.02M2430,3000v-39.02M2440,3000v-39.02M2450,3000v-59.51M2460,3000v-39.02M2470,3000v-39.02M2480,3000v-39.02M2490,3000v-39.02M2600,3000v-80M2510,3000v-39.02M2520,3000v-39.02M2530,3000v-39.02M2540,3000v-39.02M2550,3000v-59.51M2560,3000v-39.02M2570,3000v-39.02M2580,3000v-39.02M2590,3000v-39.02M2700,3000v-80M2610,3000v-39.02M2620,3000v-39.02M2630,3000v-39.02M2640,3000v-39.02M2650,3000v-59.51M2660,3000v-39.02M2670,3000v-39.02M2680,3000v-39.02M2690,3000v-39.02M2800,3000v-80M2710,3000v-39.02M2720,3000v-39.02M2730,3000v-39.02M2740,3000v-39.02M2750,3000v-59.51M2760,3000v-39.02M2770,3000v-39.02M2780,3000v-39.02M2790,3000v-39.02M2900,3000v-80M2810,3000v-39.02M2820,3000v-39.02M2830,3000v-39.02M2840,3000v-39.02M2850,3000v-59.51M2860,3000v-39.02M2870,3000v-39.02M2880,3000v-39.02M2890,3000v-39.02M3000,3000v-80M2910,3000v-39.02M2920,3000v-39.02M2930,3000v-39.02M2940,3000v-39.02M2950,3000v-59.51M2960,3000v-39.02M2970,3000v-39.02M2980,3000v-39.02M2990,3000v-39.02M2000,3000v-80M2010,3000v-39.02M2020,3000v-39.02M2030,3000v-39.02M2040,3000v-39.02M2050,3000v-59.51M2060,3000v-39.02M2070,3000v-39.02M2080,3000v-39.02M2090,3000v-39.02M1900,3000v-80M1910,3000v-39.02M1920,3000v-39.02M1930,3000v-39.02M1940,3000v-39.02M1950,3000v-59.51M1960,3000v-39.02M1970,3000v-39.02M1980,3000v-39.02M1990,3000v-39.02M1800,3000v-80M1810,3000v-39.02M1820,3000v-39.02M1830,3000v-39.02M1840,3000v-39.02M1850,3000v-59.51M1860,3000v-39.02M1870,3000v-39.02M1880,3000v-39.02M1890,3000v-39.02M1700,3000v-80M1710,3000v-39.02M1720,3000v-39.02M1730,3000v-39.02M1740,3000v-39.02M1750,3000v-59.51M1760,3000v-39.02M1770,3000v-39.02M1780,3000v-39.02M1790,3000v-39.02M1600,3000v-80M1610,3000v-39.02M1620,3000v-39.02M1630,3000v-39.02M1640,3000v-39.02M1650,3000v-59.51M1660,3000v-39.02M1670,3000v-39.02M1680,3000v-39.02M1690,3000v-39.02M1500,3000v-80M1510,3000v-39.02M1520,3000v-39.02M1530,3000v-39.02M1540,3000v-39.02M1550,3000v-59.51M1560,3000v-39.02M1570,3000v-39.02M1580,3000v-39.02M1590,3000v-39.02M1400,3000v-80M1410,3000v-39.02M1420,3000v-39.02M1430,3000v-39.02M1440,3000v-39.02M1450,3000v-59.51M1460,3000v-39.02M1470,3000v-39.02M1480,3000v-39.02M1490,3000v-39.02M1300,3000v-80M1310,3000v-39.02M1320,3000v-39.02M1330,3000v-39.02M1340,3000v-39.02M1350,3000v-59.51M1360,3000v-39.02M1370,3000v-39.02M1380,3000v-39.02M1390,3000v-39.02M1200,3000v-80M1210,3000v-39.02M1220,3000v-39.02M1230,3000v-39.02M1240,3000v-39.02M1250,3000v-59.51M1260,3000v-39.02M1270,3000v-39.02M1280,3000v-39.02M1290,3000v-39.02M1100,3000v-80M1110,3000v-39.02M1120,3000v-39.02M1130,3000v-39.02M1140,3000v-39.02M1150,3000v-59.51M1160,3000v-39.02M1170,3000v-39.02M1180,3000v-39.02M1190,3000v-39.02M1000,3000v-80M1010,3000v-39.02M1020,3000v-39.02M1030,3000v-39.02M1040,3000v-39.02M1050,3000v-59.51M1060,3000v-39.02M1070,3000v-39.02M1080,3000v-39.02M1090,3000v-39.02M900,3000v-80M910,3000v-39.02M920,3000v-39.02M930,3000v-39.02M940,3000v-39.02M950,3000v-59.51M960,3000v-39.02M970,3000v-39.02M980,3000v-39.02M990,3000v-39.02M800,3000v-80M810,3000v-39.02M820,3000v-39.02M830,3000v-39.02M840,3000v-39.02M850,3000v-59.51M860,3000v-39.02M870,3000v-39.02M880,3000v-39.02M890,3000v-39.02M700,3000v-80M710,3000v-39.02M720,3000v-39.02M730,3000v-39.02M740,3000v-39.02M750,3000v-59.51M760,3000v-39.02M770,3000v-39.02M780,3000v-39.02M790,3000v-39.02M600,3000v-80M610,3000v-39.02M620,3000v-39.02M630,3000v-39.02M640,3000v-39.02M650,3000v-59.51M660,3000v-39.02M670,3000v-39.02M680,3000v-39.02M690,3000v-39.02M500,3000v-80M510,3000v-39.02M520,3000v-39.02M530,3000v-39.02M540,3000v-39.02M550,3000v-59.51M560,3000v-39.02M570,3000v-39.02M580,3000v-39.02M590,3000v-39.02M400,3000v-80M410,3000v-39.02M420,3000v-39.02M430,3000v-39.02M440,3000v-39.02M450,3000v-59.51M460,3000v-39.02M470,3000v-39.02M480,3000v-39.02M490,3000v-39.02M300,3000v-80M310,3000v-39.02M320,3000v-39.02M330,3000v-39.02M340,3000v-39.02M350,3000v-59.51M360,3000v-39.02M370,3000v-39.02M380,3000v-39.02M390,3000v-39.02M200,3000v-80M210,3000v-39.02M220,3000v-39.02M230,3000v-39.02M240,3000v-39.02M250,3000v-59.51M260,3000v-39.02M270,3000v-39.02M280,3000v-39.02M290,3000v-39.02M100,3000v-80M110,3000v-39.02M120,3000v-39.02M130,3000v-39.02M140,3000v-39.02M150,3000v-59.51M160,3000v-39.02M170,3000v-39.02M180,3000v-39.02M190,3000v-39.02M0,2000h80M0,2100h80M0,2010h39.02M0,2020h39.02M0,2030h39.02M0,2040h39.02M0,2050h59.51M0,2060h39.02M0,2070h39.02M0,2080h39.02M0,2090h39.02M0,2200h80M0,2110h39.02M0,2120h39.02M39.02,2130H0M0,2140h39.02M0,2150h59.51M0,2160h39.02M0,2170h39.02M0,2180h39.02M0,2190h39.02M0,2300h80M0,2210h39.02M0,2220h39.02M39.02,2230H0M39.02,2240H0M0,2250h59.51M0,2260h39.02M39.02,2270H0M0,2280h39.02M0,2290h39.02M0,2400h80M0,2310h39.02M0,2320h39.02M0,2330h39.02M0,2340h39.02M0,2350h59.51M0,2360h39.02M39.02,2370H0M0,2380h39.02M0,2390h39.02M0,2500h80M39.02,2410H0M0,2420h39.02M0,2430h39.02M0,2440h39.02M0,2450h59.51M0,2460h39.02M0,2470h39.02M0,2480h39.02M0,2490h39.02M0,2600h80M0,2510h39.02M0,2520h39.02M0,2530h39.02M0,2540h39.02M0,2550h59.51M0,2560h39.02M39.02,2570H0M39.02,2580H0M0,2590h39.02M0,2700h80M0,2610h39.02M39.02,2620H0M0,2630h39.02M0,2640h39.02M0,2650h59.51M0,2660h39.02M0,2670h39.02M0,2680h39.02M0,2690h39.02M0,2800h80M0,2710h39.02M0,2720h39.02M0,2730h39.02M39.02,2740H0M0,2750h59.51M39.02,2760H0M0,2770h39.02M39.02,2780H0M39.02,2790H0M0,2900h80M0,2810h39.02M0,2820h39.02M0,2830h39.02M0,2840h39.02M59.51,2850H0M0,2860h39.02M0,2870h39.02M0,2880h39.02M0,2890h39.02M80,1900H0M0,1910h39.02M0,1920h39.02M0,1930h39.02M0,1940h39.02M0,1950h59.51M0,1960h39.02M0,1970h39.02M0,1980h39.02M39.02,1990H0M0,1800h80M0,1810h39.02M0,1820h39.02M0,1830h39.02M0,1840h39.02M0,1850h59.51M0,1860h39.02M0,1870h39.02M0,1880h39.02M0,1890h39.02M80,1700H0M0,1710h39.02M0,1720h39.02M0,1730h39.02M0,1740h39.02M59.51,1750H0M0,1760h39.02M0,1770h39.02M0,1780h39.02M0,1790h39.02M0,1600h80M0,1610h39.02M0,1620h39.02M0,1630h39.02M0,1640h39.02M0,1650h59.51M0,1660h39.02M39.02,1670H0M0,1680h39.02M0,1690h39.02M0,1500h80M0,1510h39.02M0,1520h39.02M0,1530h39.02M39.02,1540H0M0,1550h59.51M0,1560h39.02M0,1570h39.02M0,1580h39.02M0,1590h39.02M0,1400h80M0,1410h39.02M0,1420h39.02M0,1430h39.02M0,1440h39.02M0,1450h59.51M0,1460h39.02M0,1470h39.02M0,1480h39.02M0,1490h39.02M0,1300h80M0,1310h39.02M0,1320h39.02M0,1330h39.02M0,1340h39.02M0,1350h59.51M0,1360h39.02M0,1370h39.02M0,1380h39.02M39.02,1390H0M0,1200h80M0,1210h39.02M0,1220h39.02M0,1230h39.02M0,1240h39.02M59.51,1250H0M39.02,1260H0M0,1270h39.02M0,1280h39.02M0,1290h39.02M0,1100h80M0,1110h39.02M0,1120h39.02M0,1130h39.02M0,1140h39.02M0,1150h59.51M0,1160h39.02M0,1170h39.02M0,1180h39.02M0,1190h39.02M0,1000h80M0,1010h39.02M0,1020h39.02M0,1030h39.02M0,1040h39.02M0,1050h59.51M0,1060h39.02M0,1070h39.02M0,1080h39.02M0,1090h39.02M0,900h80M0,910h39.02M0,920h39.02M39.02,930H0M0,940h39.02M0,950h59.51M0,960h39.02M0,970h39.02M0,980h39.02M0,990h39.02M0,800h80M0,810h39.02M0,820h39.02M0,830h39.02M0,840h39.02M59.51,850H0M0,860h39.02M0,870h39.02M0,880h39.02M0,890h39.02M0,700h80M0,710h39.02M0,720h39.02M0,730h39.02M0,740h39.02M59.51,750H0M0,760h39.02M39.02,770H0M0,780h39.02M0,790h39.02M0,600h80M0,610h39.02M0,620h39.02M0,630h39.02M0,640h39.02M59.51,650H0M39.02,660H0M0,670h39.02M0,680h39.02M0,690h39.02M0,500h80M0,510h39.02M0,520h39.02M0,530h39.02M0,540h39.02M59.51,550H0M0,560h39.02M0,570h39.02M39.02,580H0M0,590h39.02M0,400h80M0,410h39.02M0,420h39.02M0,430h39.02M0,440h39.02M59.51,450H0M0,460h39.02M0,470h39.02M0,480h39.02M0,490h39.02M80,300H0M0,310h39.02M0,320h39.02M0,330h39.02M39.02,340H0M0,350h59.51M0,360h39.02M0,370h39.02M0,380h39.02M0,390h39.02M0,200h80M0,210h39.02M0,220h39.02M0,230h39.02M0,240h39.02M0,250h59.51M0,260h39.02M0,270h39.02M0,280h39.02M0,290h39.02M0,100h80M0,110h39.02M0,120h39.02M0,130h39.02M0,140h39.02M0,150h59.51M0,160h39.02M0,170h39.02M0,180h39.02M0,190h39.02M0,0h80M0,10h39.02M0,20h39.02M0,30h39.02M0,40h39.02M0,50h59.51M0,60h39.02M0,70h39.02M0,80h39.02M0,90h39.02M0,3000l80-80" style="fill:none; stroke:#f88968; stroke-miterlimit:10; stroke-width:2.02px;"/></svg>