<?xml version="1.0" encoding="UTF-8"?><svg id="a" xmlns="http://www.w3.org/2000/svg" viewBox="0 0 2000 2000"><path d="M1508.15,1891.07c-1.9-1.06-1.9-2.82-.03-3.9l32.31-18.65c1.88-1.08,4.96-1.08,6.84,0l32.57,18.81c1.88,1.08,1.89,2.87.02,3.98l-11,6.49c-1.87,1.11-4.16,3.62-5.09,5.58l-17.48,37.07c-.93,1.96-1.87,3.57-2.1,3.57s-1.15-1.62-2.05-3.6l-16.76-37.02c-.9-1.98-3.18-4.46-5.07-5.52l-12.17-6.81ZM1504.13,1899.23c-.95-1.95-1.73-1.77-1.73.4v34.74c0,2.17,1.54,4.83,3.42,5.92l22.12,12.77c1.88,1.08,2.64.38,1.69-1.58l-25.5-52.26ZM1558.07,1951.49c-.95,1.95-.19,2.66,1.69,1.58l22.12-12.77c1.88-1.09,3.42-3.75,3.42-5.92v-34.74c0-2.17-.78-2.35-1.73-.4l-25.5,52.26ZM1667.31,1879.35h-13.23l-16.15,44.38-16.16-44.38h-13.23l22.77,62.55h0s0,0,0,0h13.22s22.77-62.56,22.77-62.56ZM1761.26,1895.96h-13.23l-8.82,13.14-8.83-13.14h-13.22l15.43,22.98-15.43,22.98h13.22l8.83-13.14,8.82,13.14h13.23l-15.44-22.98,15.44-22.98ZM1689.29,1896.14c13.04,0,23.61,10.57,23.61,23.61s-10.57,23.61-23.61,23.61-23.61-10.57-23.61-23.61,10.57-23.61,23.61-23.61M1689.29,1932.76c7.18,0,13.01-5.83,13.01-13.01s-5.82-13.01-13.01-13.01-13.01,5.82-13.01,13.01,5.83,13.01,13.01,13.01M1893.19,1943.24h-10v-4.34c-3.85,2.72-8.54,4.34-13.61,4.34-13.04,0-23.61-10.57-23.61-23.61s10.57-23.61,23.61-23.61c5.07,0,9.76,1.61,13.61,4.34v-4.34h10v23.61h0v23.61ZM1869.58,1932.63c7.18,0,13.01-5.83,13.01-13.01s-5.83-13.01-13.01-13.01-13.01,5.82-13.01,13.01,5.82,13.01,13.01,13.01M1928.98,1896.14c13.04,0,23.61,10.57,23.61,23.61s-10.57,23.61-23.61,23.61c-5.07,0-9.76-1.61-13.61-4.34v4.34h-10v-64.01h10v21.13c3.85-2.72,8.54-4.34,13.61-4.34M1928.98,1932.76c7.18,0,13.01-5.83,13.01-13.01s-5.83-13.01-13.01-13.01-13.01,5.82-13.01,13.01,5.82,13.01,13.01,13.01M1811.28,1924.49h-35.25c1.9,4.84,6.6,8.28,12.11,8.28,4.22,0,7.95-2.01,10.33-5.12l9.05,5.6c-4.27,6.12-11.35,10.13-19.37,10.13-13.04,0-23.61-10.57-23.61-23.61s10.57-23.61,23.61-23.61c11.42,0,20.94,8.11,23.14,18.88h0v.04c.3,1.51.47,3.08.47,4.69s-.17,3.17-.47,4.69v.04ZM1788.14,1906.75c-5.51,0-10.21,3.43-12.11,8.28h24.21c-1.89-4.85-6.59-8.28-12.1-8.28M1834.87,1878.47h-11.63v63.45h11.63v-63.45Z" style="fill:#bcbec0;"/></svg>