<?xml version="1.0" encoding="UTF-8"?><svg id="a" xmlns="http://www.w3.org/2000/svg" viewBox="0 0 3900 3900"><path d="M2218.26,3820.34v34.15c0,7.56-6.13,13.69-13.69,13.69h-173.9c-7.56,0-13.69-6.13-13.69-13.69v-34.15c0-7.56,6.13-13.69,13.69-13.69h173.9c7.56,0,13.69,6.13,13.69,13.69ZM2054.73,3844.42l-8.69-29.42h-11.33v43.64h7.82v-30.41l8.41,25.55h7.59l8.41-26.13v30.99h7.82v-43.64h-11.33l-8.69,29.42ZM2098.29,3815.01l-17.45,43.64h9.26l2.56-6.99h16.72l2.56,6.99h9.26l-17.45-43.64h-5.46ZM2095.56,3843.73l5.46-14.89,5.46,14.89h-10.91ZM2162.38,3815.01h-9.07l-8.58,14.03-8.68-14.03h-9.07l13.25,21.39-13.63,22.25h9.07l9.12-14.89,9.21,14.89h9.07l-13.79-22.23,13.1-21.41ZM2200.07,3844.03h-3.58v-11.05h-8.6v11.05h-8.32l13.68-29h-9.73l-14.06,29.36v7.56h18.42v6.72h8.6v-6.72h3.58v-7.92ZM1883.28,3829.09h-9.01c-1.36,0-2.47,1.11-2.47,2.47v34.19c0,1.36,1.11,2.47,2.47,2.47h9.01c1.36,0,2.47-1.11,2.47-2.47v-34.19c0-1.36-1.11-2.47-2.47-2.47ZM1986.61,3829.09h-9.01c-1.36,0-2.47,1.11-2.47,2.47v34.19c0,1.36,1.11,2.47,2.47,2.47h9.01c1.36,0,2.47-1.11,2.47-2.47v-34.19c0-1.36-1.11-2.47-2.47-2.47ZM1983.64,3820.7h-3.09c-2.96,0-5.43-2.47-5.43-5.43v-3.09c0-2.96,2.47-5.43,5.43-5.43h3.09c2.96,0,5.43,2.47,5.43,5.43v3.09c0,2.96-2.47,5.43-5.43,5.43ZM1880.32,3820.7h-3.09c-2.96,0-5.43-2.47-5.43-5.43v-3.09c0-2.96,2.47-5.43,5.43-5.43h3.09c2.96,0,5.43,2.47,5.43,5.43v3.09c0,2.96-2.47,5.43-5.43,5.43ZM1938.09,3806.75h-36.05c-1.36,0-2.47,1.11-2.47,2.47v9.01c0,1.36,1.11,2.47,2.47,2.47h35.43c5.43,0,9.75,4.32,9.75,9.75v14.07c0,5.43-4.32,9.75-9.75,9.75h-21.36c-1.36,0-2.47-1.11-2.47-2.47v-11.85c0-1.36-1.11-2.47-2.47-2.47h-9.13c-1.36,0-2.47,1.11-2.47,2.47v25.8c0,1.36,1.11,2.47,2.47,2.47h36.05c12.71,0,23.08-10.25,23.08-22.96v-15.43c0-12.71-10.37-23.08-23.08-23.08ZM1834.77,3806.75h-15.43c-12.71,0-23.08,10.37-23.08,23.08v15.31c0,12.71,10.37,23.08,23.08,23.08h5.31c1.36,0,2.47-1.11,2.47-2.47v-9.01c0-1.36-1.11-2.47-2.47-2.47h-4.57c-5.43,0-9.75-4.32-9.75-9.75v-14.07c0-5.43,4.32-9.75,9.75-9.75h14.07c5.43,0,9.75,4.32,9.75,9.75v4.57c0,1.36,1.11,2.47,2.47,2.47h9.01c1.36,0,2.47-1.11,2.47-2.47v-5.18c-.12-12.84-10.37-23.08-23.08-23.08ZM1857.11,3857.73l-19.5-19.5c-.49-.49-1.11-.74-1.73-.74h-12.84c-2.22,0-3.21,2.59-1.73,4.2l25.92,25.92c.99.99,2.47.99,3.46,0l6.42-6.42c.86-.99.86-2.59,0-3.46ZM1739.12,3876.74v-29.07c0-1.35.77-2.61,1.94-3.29l24.38-14.13v-12.38c0-2.71-1.45-5.22-3.87-6.58l-34.16-19.74c-2.32-1.35-5.32-1.35-7.64,0l-34.16,19.74c-2.32,1.35-3.87,3.87-3.87,6.58v39.38c0,2.71,1.45,5.22,3.87,6.58l34.16,19.74c2.32,1.35,5.32,1.35,7.64,0l11.71-6.83ZM1727.41,3831.03c-2.32,1.35-3.77,3.87-3.77,6.58v32.7c0,2.9-3.19,4.74-5.71,3.29l-26.41-15.29c-1.16-.68-1.94-1.94-1.94-3.29v-34.93c0-1.35.77-2.61,1.94-3.29l30.28-17.51c1.16-.68,2.61-.68,3.87,0l22.45,13.06c2.52,1.45,2.52,5.13,0,6.58l-20.71,12.09ZM1770.66,3827.26l-5.22,3v29.26c0,1.35-.77,2.61-1.94,3.19l-24.38,14.03v5.9c0,2.85,3.1,4.64,5.61,3.39l29.7-17.22c1.16-.68,1.93-1.94,1.93-3.29v-34.97c0-2.9-3.19-4.74-5.71-3.29Z" style="fill:#bcbec0;"/></svg>