<?xml version="1.0" encoding="UTF-8"?><svg id="a" xmlns="http://www.w3.org/2000/svg" viewBox="0 0 2700 2000"><path d="M305,107.51h-9.23c-1.39,0-2.53,1.14-2.53,2.53v35.04c0,1.39,1.14,2.53,2.53,2.53h9.23c1.39,0,2.53-1.14,2.53-2.53v-35.04c0-1.39-1.14-2.53-2.53-2.53ZM410.87,107.51h-9.23c-1.39,0-2.53,1.14-2.53,2.53v35.04c0,1.39,1.14,2.53,2.53,2.53h9.23c1.39,0,2.53-1.14,2.53-2.53v-35.04c0-1.39-1.14-2.53-2.53-2.53ZM407.83,98.91h-3.16c-3.04,0-5.57-2.53-5.57-5.57v-3.16c0-3.04,2.53-5.57,5.57-5.57h3.16c3.04,0,5.57,2.53,5.57,5.57v3.16c0,3.04-2.53,5.57-5.57,5.57ZM301.97,98.91h-3.16c-3.04,0-5.57-2.53-5.57-5.57v-3.16c0-3.04,2.53-5.57,5.57-5.57h3.16c3.04,0,5.57,2.53,5.57,5.57v3.16c0,3.04-2.53,5.57-5.57,5.57ZM361.16,84.62h-36.93c-1.39,0-2.53,1.14-2.53,2.53v9.23c0,1.39,1.14,2.53,2.53,2.53h36.3c5.57,0,9.99,4.43,9.99,9.99v14.42c0,5.57-4.43,9.99-9.99,9.99h-21.88c-1.39,0-2.53-1.14-2.53-2.53v-12.14c0-1.39-1.14-2.53-2.53-2.53h-9.36c-1.39,0-2.53,1.14-2.53,2.53v26.43c0,1.39,1.14,2.53,2.53,2.53h36.93c13.03,0,23.65-10.5,23.65-23.53v-15.81c0-13.03-10.62-23.65-23.65-23.65ZM255.3,84.62h-15.81c-13.03,0-23.65,10.62-23.65,23.65v15.68c0,13.03,10.62,23.65,23.65,23.65h5.44c1.39,0,2.53-1.14,2.53-2.53v-9.23c0-1.39-1.14-2.53-2.53-2.53h-4.68c-5.57,0-9.99-4.43-9.99-9.99v-14.42c0-5.57,4.43-9.99,9.99-9.99h14.42c5.57,0,9.99,4.43,9.99,9.99v4.68c0,1.39,1.14,2.53,2.53,2.53h9.23c1.39,0,2.53-1.14,2.53-2.53v-5.31c-.13-13.15-10.62-23.65-23.65-23.65ZM278.19,136.85l-19.98-19.98c-.51-.51-1.14-.76-1.77-.76h-13.15c-2.28,0-3.29,2.66-1.77,4.3l26.56,26.56c1.01,1.01,2.53,1.01,3.54,0l6.58-6.58c.89-1.01.89-2.66,0-3.54ZM132.86,167.26v-38c0-1.77,1.01-3.41,2.53-4.3l31.87-18.47v-16.19c0-3.54-1.9-6.83-5.06-8.6l-44.65-25.8c-3.04-1.77-6.96-1.77-9.99,0l-44.65,25.8c-3.04,1.77-5.06,5.06-5.06,8.6v51.48c0,3.54,1.9,6.83,5.06,8.6l44.65,25.8c3.04,1.77,6.96,1.77,9.99,0l15.3-8.93ZM117.56,107.51c-3.04,1.77-4.93,5.06-4.93,8.6v42.75c0,3.79-4.17,6.2-7.46,4.3l-34.53-19.98c-1.52-.89-2.53-2.53-2.53-4.3v-45.66c0-1.77,1.01-3.41,2.53-4.3l39.59-22.89c1.52-.89,3.41-.89,5.06,0l29.34,17.07c3.29,1.9,3.29,6.7,0,8.6l-27.07,15.81ZM174.1,102.58l-6.83,3.92v38.25c0,1.77-1.01,3.42-2.53,4.17l-31.87,18.34v7.72c0,3.73,4.05,6.07,7.34,4.43l38.83-22.51c1.52-.89,2.53-2.53,2.53-4.3v-45.71c0-3.79-4.17-6.2-7.46-4.3Z" style="fill:#bcbec0;"/><path d="M2319.43,1909.45v-30.56c0-3.31,2.69-6,6-6h25.46c3.4,0,6.15,2.75,6.15,6.15v30.25c0,3.4-2.75,6.15-6.15,6.15h-25.46c-3.31,0-6-2.69-6-6ZM2200.53,1872.89h31.61c3.31,0,6,2.69,6,6v8.37c0,3.14-2.42,5.75-5.55,5.98l-26.52,2.01c-3.13.24-5.55,2.85-5.55,5.98v14.2s42.11,0,42.11,0M2278.78,1919.95v-22.27c0-2.17,1.17-4.16,3.05-5.23l12.76-7.2c1.89-1.06,3.05-3.06,3.05-5.23v-1.13c0-3.31-2.69-6-6-6h-36.17M2583.3,1915.45h25.46c3.4,0,6.15-2.75,6.15-6.15v-30.25c0-3.4-2.75-6.15-6.15-6.15h-25.46c-3.31,0-6,2.69-6,6v30.56c0,3.31,2.69,6,6,6ZM2523.79,1915.45h25.46c3.4,0,6.15-2.75,6.15-6.15v-30.25c0-3.4-2.75-6.15-6.15-6.15h-25.46c-3.31,0-6,2.69-6,6v30.56c0,3.31,2.69,6,6,6ZM2458.4,1872.89h31.61c3.31,0,6,2.69,6,6v8.37c0,3.14-2.42,5.75-5.55,5.98l-26.52,2.01c-3.13.24-5.55,2.85-5.55,5.98v14.2s42.11,0,42.11,0M2388.88,1919.95v-2.23c0-1.46.53-2.88,1.5-3.97l34.6-39.15c.97-1.1,1.5-2.51,1.5-3.97v-2.23M2388.88,1868.39v2.23c0,1.46.53,2.88,1.5,3.97l34.6,39.15c.97,1.1,1.5,2.51,1.5,3.97v2.23" style="fill:none; stroke:#bcbec0; stroke-miterlimit:10; stroke-width:9px;"/><path d="M2460,1994.97h19.96M2499.96,1994.97h40M2559.96,1994.97h40M2619.96,1994.97h40M2694.96,1760.02v19.96M2694.96,1799.98v40M2694.96,1859.98v40M2694.96,1919.98v40M2680,1994.97h14.96v-14.98M2694.96,239.96v-19.96M2694.96,200v-40M2694.96,140v-40M2694.96,80v-40M2460,5h19.96M2499.96,5h40M2559.96,5h40M2619.96,5h40M2694.96,19.96V5h-14.98M239.96,5h-19.96M200,5h-40M140,5h-40M80,5h-40M5,239.96v-19.96M5,200v-40M5,140v-40M5,80v-40M19.96,5H5v14.98M5,1760.01v19.96M5,1799.97v40M5,1859.97v40M5,1919.97v40M239.96,1994.97h-19.96M200,1994.97h-40M140,1994.97h-40M80,1994.97h-40M5,1980.01v14.96h14.98" style="fill:none; stroke:#bcbec0; stroke-miterlimit:10; stroke-width:10px;"/></svg>