<?xml version="1.0" encoding="UTF-8"?><svg id="a" xmlns="http://www.w3.org/2000/svg" viewBox="0 0 2700 2700"><path d="M1500.83,2608.87h-14.08c-1.26,0-2.28,1.02-2.28,2.28v20.29c0,1.26,1.02,2.28,2.28,2.28h4.73l-3.59-6.22h10.76l3.39,5.87c.64-.4,1.07-1.11,1.07-1.93v-20.29c0-1.26-1.02-2.28-2.28-2.28ZM1578.23,2604.7v34.15c0,7.56-6.13,13.69-13.69,13.69h-93.85c-7.56,0-13.69-6.13-13.69-13.69v-34.15c0-7.56,6.13-13.69,13.69-13.69h93.85c7.56,0,13.69,6.13,13.69,13.69ZM1512.43,2604.11c0-2.52-2.04-4.56-4.56-4.56h-28.16c-2.52,0-4.56,2.04-4.56,4.56v34.37c0,2.52,2.04,4.56,4.56,4.56h17.15l1.79,3.11h10.76l-1.79-3.11h.25c2.52,0,4.56-2.04,4.56-4.56v-34.37ZM1528.01,2633.62v-3.81c0-2.1,1.7-3.81,3.81-3.81h14.26c7.31,0,13.23-5.92,13.23-13.23h0c0-7.31-5.92-13.23-13.23-13.23h-24.59v9.42h24.59c2.1,0,3.81,1.71,3.81,3.81h0c0,2.1-1.71,3.81-3.81,3.81h-14.2c-7.31,0-13.23,5.92-13.23,13.23v13.23h40.66v-9.42h-31.29ZM1323.31,2613.46h-9.01c-1.36,0-2.47,1.11-2.47,2.47v34.19c0,1.36,1.11,2.47,2.47,2.47h9.01c1.36,0,2.47-1.11,2.47-2.47v-34.19c0-1.36-1.11-2.47-2.47-2.47ZM1426.63,2613.46h-9.01c-1.36,0-2.47,1.11-2.47,2.47v34.19c0,1.36,1.11,2.47,2.47,2.47h9.01c1.36,0,2.47-1.11,2.47-2.47v-34.19c0-1.36-1.11-2.47-2.47-2.47ZM1423.67,2605.06h-3.09c-2.96,0-5.43-2.47-5.43-5.43v-3.09c0-2.96,2.47-5.43,5.43-5.43h3.09c2.96,0,5.43,2.47,5.43,5.43v3.09c0,2.96-2.47,5.43-5.43,5.43ZM1320.34,2605.06h-3.09c-2.96,0-5.43-2.47-5.43-5.43v-3.09c0-2.96,2.47-5.43,5.43-5.43h3.09c2.96,0,5.43,2.47,5.43,5.43v3.09c0,2.96-2.47,5.43-5.43,5.43ZM1378.12,2591.11h-36.05c-1.36,0-2.47,1.11-2.47,2.47v9.01c0,1.36,1.11,2.47,2.47,2.47h35.43c5.43,0,9.75,4.32,9.75,9.75v14.07c0,5.43-4.32,9.75-9.75,9.75h-21.36c-1.36,0-2.47-1.11-2.47-2.47v-11.85c0-1.36-1.11-2.47-2.47-2.47h-9.13c-1.36,0-2.47,1.11-2.47,2.47v25.8c0,1.36,1.11,2.47,2.47,2.47h36.05c12.71,0,23.08-10.25,23.08-22.96v-15.43c0-12.71-10.37-23.08-23.08-23.08ZM1274.79,2591.11h-15.43c-12.71,0-23.08,10.37-23.08,23.08v15.31c0,12.71,10.37,23.08,23.08,23.08h5.31c1.36,0,2.47-1.11,2.47-2.47v-9.01c0-1.36-1.11-2.47-2.47-2.47h-4.57c-5.43,0-9.75-4.32-9.75-9.75v-14.07c0-5.43,4.32-9.75,9.75-9.75h14.07c5.43,0,9.75,4.32,9.75,9.75v4.57c0,1.36,1.11,2.47,2.47,2.47h9.01c1.36,0,2.47-1.11,2.47-2.47v-5.18c-.12-12.84-10.37-23.08-23.08-23.08ZM1297.14,2642.09l-19.5-19.5c-.49-.49-1.11-.74-1.73-.74h-12.84c-2.22,0-3.21,2.59-1.73,4.2l25.92,25.92c.99.99,2.47.99,3.46,0l6.42-6.42c.86-.99.86-2.59,0-3.46ZM1179.14,2661.1v-29.07c0-1.35.77-2.61,1.94-3.29l24.38-14.13v-12.38c0-2.71-1.45-5.22-3.87-6.58l-34.16-19.74c-2.32-1.35-5.32-1.35-7.64,0l-34.16,19.74c-2.32,1.35-3.87,3.87-3.87,6.58v39.38c0,2.71,1.45,5.22,3.87,6.58l34.16,19.74c2.32,1.35,5.32,1.35,7.64,0l11.71-6.83ZM1167.44,2615.39c-2.32,1.35-3.77,3.87-3.77,6.58v32.7c0,2.9-3.19,4.74-5.71,3.29l-26.41-15.29c-1.16-.68-1.94-1.94-1.94-3.29v-34.93c0-1.35.77-2.61,1.94-3.29l30.28-17.51c1.16-.68,2.61-.68,3.87,0l22.45,13.06c2.52,1.45,2.52,5.13,0,6.58l-20.71,12.09ZM1210.69,2611.62l-5.22,3v29.26c0,1.35-.77,2.61-1.94,3.19l-24.38,14.03v5.9c0,2.85,3.1,4.64,5.61,3.39l29.7-17.22c1.16-.68,1.93-1.94,1.93-3.29v-34.97c0-2.9-3.19-4.74-5.71-3.29Z" style="fill:#bcbec0;"/></svg>