<?xml version="1.0" encoding="UTF-8"?><svg id="a" xmlns="http://www.w3.org/2000/svg" viewBox="0 0 3000 2500"><path d="M305,106.42h-9.23c-1.39,0-2.53,1.14-2.53,2.53v35.04c0,1.39,1.14,2.53,2.53,2.53h9.23c1.39,0,2.53-1.14,2.53-2.53v-35.04c0-1.39-1.14-2.53-2.53-2.53ZM410.87,106.42h-9.23c-1.39,0-2.53,1.14-2.53,2.53v35.04c0,1.39,1.14,2.53,2.53,2.53h9.23c1.39,0,2.53-1.14,2.53-2.53v-35.04c0-1.39-1.14-2.53-2.53-2.53ZM407.83,97.82h-3.16c-3.04,0-5.57-2.53-5.57-5.57v-3.16c0-3.04,2.53-5.57,5.57-5.57h3.16c3.04,0,5.57,2.53,5.57,5.57v3.16c0,3.04-2.53,5.57-5.57,5.57ZM301.97,97.82h-3.16c-3.04,0-5.57-2.53-5.57-5.57v-3.16c0-3.04,2.53-5.57,5.57-5.57h3.16c3.04,0,5.57,2.53,5.57,5.57v3.16c0,3.04-2.53,5.57-5.57,5.57ZM361.16,83.53h-36.93c-1.39,0-2.53,1.14-2.53,2.53v9.23c0,1.39,1.14,2.53,2.53,2.53h36.3c5.57,0,9.99,4.43,9.99,9.99v14.42c0,5.57-4.43,9.99-9.99,9.99h-21.88c-1.39,0-2.53-1.14-2.53-2.53v-12.14c0-1.39-1.14-2.53-2.53-2.53h-9.36c-1.39,0-2.53,1.14-2.53,2.53v26.43c0,1.39,1.14,2.53,2.53,2.53h36.93c13.03,0,23.65-10.5,23.65-23.53v-15.81c0-13.03-10.62-23.65-23.65-23.65ZM255.3,83.53h-15.81c-13.03,0-23.65,10.62-23.65,23.65v15.68c0,13.03,10.62,23.65,23.65,23.65h5.44c1.39,0,2.53-1.14,2.53-2.53v-9.23c0-1.39-1.14-2.53-2.53-2.53h-4.68c-5.57,0-9.99-4.43-9.99-9.99v-14.42c0-5.57,4.43-9.99,9.99-9.99h14.42c5.57,0,9.99,4.43,9.99,9.99v4.68c0,1.39,1.14,2.53,2.53,2.53h9.23c1.39,0,2.53-1.14,2.53-2.53v-5.31c-.13-13.15-10.62-23.65-23.65-23.65ZM278.19,135.77l-19.98-19.98c-.51-.51-1.14-.76-1.77-.76h-13.15c-2.28,0-3.29,2.66-1.77,4.3l26.56,26.56c1.01,1.01,2.53,1.01,3.54,0l6.58-6.58c.89-1.01.89-2.66,0-3.54ZM132.86,166.17v-38c0-1.77,1.01-3.41,2.53-4.3l31.87-18.47v-16.19c0-3.54-1.9-6.83-5.06-8.6l-44.65-25.8c-3.04-1.77-6.96-1.77-9.99,0l-44.65,25.8c-3.04,1.77-5.06,5.06-5.06,8.6v51.48c0,3.54,1.9,6.83,5.06,8.6l44.65,25.8c3.04,1.77,6.96,1.77,9.99,0l15.3-8.93ZM117.56,106.42c-3.04,1.77-4.93,5.06-4.93,8.6v42.75c0,3.79-4.17,6.2-7.46,4.3l-34.53-19.98c-1.52-.89-2.53-2.53-2.53-4.3v-45.66c0-1.77,1.01-3.41,2.53-4.3l39.59-22.89c1.52-.89,3.41-.89,5.06,0l29.34,17.07c3.29,1.9,3.29,6.7,0,8.6l-27.07,15.81ZM174.1,101.49l-6.83,3.92v38.25c0,1.77-1.01,3.42-2.53,4.17l-31.87,18.34v7.72c0,3.73,4.05,6.07,7.34,4.43l38.83-22.51c1.52-.89,2.53-2.53,2.53-4.3v-45.71c0-3.79-4.17-6.2-7.46-4.3Z" style="fill:#bcbec0;"/><path d="M2505.08,2394.17h27.12c3.31,0,6,2.69,6,6v9.28c0,3.31-2.69,6-6,6h-36.12M2505.08,2394.17h27.12c3.31,0,6-2.69,6-6v-9.28c0-3.31-2.69-6-6-6h-36.12M2566.04,2415.45h25.46c3.4,0,6.15-2.75,6.15-6.15v-30.25c0-3.4-2.75-6.15-6.15-6.15h-25.46c-3.31,0-6,2.69-6,6v30.56c0,3.31,2.69,6,6,6ZM2625.48,2415.45h25.46c3.4,0,6.15-2.75,6.15-6.15v-30.25c0-3.4-2.75-6.15-6.15-6.15h-25.46c-3.31,0-6,2.69-6,6v30.56c0,3.31,2.69,6,6,6ZM2883.3,2415.45h25.46c3.4,0,6.15-2.75,6.15-6.15v-30.25c0-3.4-2.75-6.15-6.15-6.15h-25.46c-3.31,0-6,2.69-6,6v30.56c0,3.31,2.69,6,6,6ZM2813.35,2415.45h36.11c3.31,0,6-2.69,6-6v-9.28c0-3.31-2.69-6-6-6h-31.55v-21.28h37.57M2758.4,2372.89h31.61c3.31,0,6,2.69,6,6v8.37c0,3.14-2.42,5.75-5.55,5.98l-26.52,2.01c-3.13.24-5.55,2.85-5.55,5.98v14.2s42.11,0,42.11,0M2726.55,2368.39v2.23c0,1.46-.53,2.88-1.5,3.97l-34.6,39.15c-.97,1.1-1.5,2.51-1.5,3.97v2.23M2726.55,2419.95v-2.23c0-1.46-.53-2.88-1.5-3.97l-34.6-39.15c-.97-1.1-1.5-2.51-1.5-3.97v-2.23" style="fill:none; stroke:#bcbec0; stroke-miterlimit:10; stroke-width:9px;"/><path d="M2760,2494.98h19.96M2799.96,2494.98h40M2859.96,2494.98h40M2919.96,2494.98h40M2994.96,2260.02v19.96M2994.96,2299.98v40M2994.96,2359.98v40M2994.96,2419.98v40M2980,2494.98h14.96v-14.98M2994.96,239.96v-19.96M2994.96,200v-40M2994.96,140v-40M2994.96,80v-40M2760,5h19.96M2799.96,5h40M2859.96,5h40M2919.96,5h40M2994.96,19.96V5h-14.98M239.96,5h-19.96M200,5h-40M140,5h-40M80,5h-40M5,239.96v-19.96M5,200v-40M5,140v-40M5,80v-40M19.96,5H5v14.98M5,2260.02v19.96M5,2299.98v40M5,2359.98v40M5,2419.98v40M239.96,2494.98h-19.96M200,2494.98h-40M140,2494.98h-40M80,2494.98h-40M5,2480.02v14.96h14.98" style="fill:none; stroke:#bcbec0; stroke-miterlimit:10; stroke-width:10px;"/></svg>