<?xml version="1.0" encoding="UTF-8"?><svg id="a" xmlns="http://www.w3.org/2000/svg" viewBox="0 0 3898 3898"><path d="M2115.68,150.41c6.62,0,12.08,5.46,12.08,12.08s-5.46,12.08-12.08,12.08-12.08-5.46-12.08-12.08,5.46-12.08,12.08-12.08M2125.78,264.41h-20.19v-71.64h20.19v71.64ZM2233,258.95c-9.76,5.79-19.19,7.94-31.44,7.94-34.75,0-58.9-23.83-58.9-57.58s24.16-57.75,58.9-57.75,58.9,24.16,58.9,57.75c0,20.68-8.6,32.6-14.56,39.22l17.87,18.04-21.68,2.15-9.1-9.76ZM2231.01,233.14c3.48-4.63,7.28-11.58,7.28-23.83,0-22.34-15.22-38.22-36.73-38.22s-36.73,15.88-36.73,38.22,15.06,38.06,37.23,38.06c7.44,0,12.41-1.66,16.38-3.64l-22.5-21.84,22.34-1.82,12.74,13.07ZM1863.59,3616.31c6.18,0,11.27,5.1,11.27,11.27s-5.09,11.27-11.27,11.27-11.27-5.1-11.27-11.27,5.1-11.27,11.27-11.27M1873.01,3722.68h-18.84v-66.85h18.84v66.85ZM1973.05,3717.59c-9.11,5.4-17.91,7.41-29.33,7.41-32.42,0-54.96-22.23-54.96-53.73s22.54-53.88,54.96-53.88,54.96,22.54,54.96,53.88c0,19.3-8.03,30.42-13.59,36.59l16.67,16.83-20.23,2-8.49-9.11ZM1971.2,3693.5c3.24-4.32,6.79-10.81,6.79-22.23,0-20.84-14.2-35.66-34.28-35.66s-34.28,14.82-34.28,35.66,14.05,35.51,34.74,35.51c6.95,0,11.58-1.54,15.28-3.4l-21-20.38,20.84-1.7,11.89,12.2Z" style="fill:#00a696;"/><path d="M1634.23,168.97c0-3.86,2.81-6.49,6.31-6.49s6.32,2.63,6.32,6.49-2.81,6.49-6.32,6.49-6.31-2.63-6.31-6.49M1644.05,264.41h-7.02v-71.58h7.02v71.58ZM1669.31,264.41h7.02v-37.19c0-7.02.7-13.69,3.86-19.3,2.63-4.74,7.72-10,17.55-10,8.6,0,12.46,4.39,14.03,7.02,2.63,4.03,2.81,9.47,2.81,14.38v45.09h7.02v-45.09c0-6.31-.35-12.98-3.51-18.07-1.58-2.46-7.02-10-19.83-10-12.11,0-18.6,6.84-21.93,12.81v-11.23h-7.02v71.58ZM1746.86,264.41h7.02v-37.19c0-7.02.7-13.69,3.86-19.3,2.63-4.74,7.72-10,17.55-10,8.6,0,12.46,4.39,14.03,7.02,2.63,4.03,2.81,9.47,2.81,14.38v45.09h7.02v-45.09c0-6.31-.35-12.98-3.51-18.07-1.58-2.46-7.02-10-19.83-10-12.11,0-18.6,6.84-21.93,12.81v-11.23h-7.02v71.58ZM1894.93,228.8c0,21.23-16.32,37.54-37.55,37.54s-37.55-16.31-37.55-37.54,16.32-37.54,37.55-37.54,37.55,16.31,37.55,37.54M1887.56,228.8c0-17.37-12.98-30.88-30.18-30.88s-30.18,13.51-30.18,30.88,12.98,30.88,30.18,30.88,30.18-13.51,30.18-30.88M1904.4,192.83l32.98,75.97,32.63-75.97h-7.72l-24.91,59.48-25.26-59.48h-7.72ZM2042.3,192.83h7.02v71.58h-7.02v-12.81c-7.19,11.05-18.6,14.74-27.89,14.74-18.78,0-34.92-14.21-34.92-37.72,0-22.1,14.04-37.37,34.92-37.37,11.22,0,21.05,4.38,27.89,14.03v-12.46ZM1986.86,228.1c0,16.14,10,31.58,28.07,31.58s27.72-15.09,27.72-31.58c0-21.23-15.61-30.18-27.89-30.18-14.21,0-27.9,10.7-27.9,30.18M2094.58,199.5v-6.67h-12.46v-25.61h-7.02v25.61h-7.9v6.67h7.9v64.91h7.02v-64.91h12.46ZM1822.12,3636.64v85.66h-20.06v-85.66h-23.15v-17.29h66.37v17.29h-23.15ZM2065.43,3688.62c1.85-2.16,13.88-15.88,17.58-21.44,2.78-4.16,6.01-10.49,6.01-16.5,0-9.25-6.63-15.58-15.27-15.58-10.49,0-16.04,8.33-16.35,17.12h-20.67c.93-20.97,15.73-34.39,36.09-34.39,23.9,0,36.24,16.35,36.24,32.7s-10.64,27.3-18.66,35.93l-17.74,19.28h37.17v17.27h-74.64l30.23-34.39Z" style="fill:#bcbec0;"/></svg>