<?xml version="1.0" encoding="UTF-8"?><svg id="a" xmlns="http://www.w3.org/2000/svg" viewBox="0 0 5906 4724"><path d="M2797.61,4462.15v104.91h-24.57v-104.91h-28.35v-21.17h81.28v21.17h-28.35ZM3152.63,4533.55c0,20.78-16.62,37.21-43.82,37.21s-43.82-16.43-43.82-37.21c0-14.54,8.5-26.82,22.48-31.35-9.63-4.72-18.13-13.98-18.13-27.95,0-18.32,13.22-35.13,39.47-35.13s39.47,16.81,39.47,35.13c0,13.98-8.5,23.23-18.13,27.95,13.98,4.53,22.48,16.81,22.48,31.35ZM3128.08,4531.85c0-11.52-8.31-19.64-19.27-19.64s-19.26,8.12-19.26,19.64,8.31,19.64,19.26,19.64,19.27-8.12,19.27-19.64ZM3126.38,4474.44c0-10.39-7.18-17.57-17.57-17.57s-17.56,7.18-17.56,17.57,7.18,17.57,17.56,17.57,17.57-7.18,17.57-17.57ZM2568.56,173.49c0-4.71,3.43-7.93,7.71-7.93s7.72,3.22,7.72,7.93-3.43,7.93-7.72,7.93-7.71-3.22-7.71-7.93M2580.56,290.05h-8.57v-87.43h8.57v87.43ZM2611.41,290.06h8.57v-45.43c0-8.57.86-16.71,4.71-23.57,3.22-5.79,9.43-12.22,21.43-12.22,10.5,0,15.21,5.36,17.14,8.57,3.22,4.93,3.43,11.57,3.43,17.57v55.07h8.57v-55.07c0-7.71-.43-15.86-4.29-22.07-1.93-3-8.57-12.21-24.22-12.21-14.79,0-22.72,8.35-26.78,15.64v-13.71h-8.57v87.43ZM2706.12,290.06h8.57v-45.43c0-8.57.86-16.71,4.71-23.57,3.22-5.79,9.43-12.22,21.43-12.22,10.5,0,15.21,5.36,17.14,8.57,3.22,4.93,3.43,11.57,3.43,17.57v55.07h8.57v-55.07c0-7.71-.43-15.86-4.29-22.07-1.93-3-8.57-12.21-24.22-12.21-14.79,0-22.72,8.35-26.78,15.64v-13.71h-8.57v87.43ZM2886.96,246.56c0,25.93-19.93,45.85-45.86,45.85s-45.86-19.93-45.86-45.85,19.93-45.85,45.86-45.85,45.86,19.93,45.86,45.85M2877.96,246.56c0-21.21-15.86-37.71-36.86-37.71s-36.86,16.5-36.86,37.71,15.86,37.71,36.86,37.71,36.86-16.5,36.86-37.71M2898.53,202.63l40.28,92.78,39.86-92.78h-9.43l-30.43,72.64-30.85-72.64h-9.43ZM3066.95,202.63h8.57v87.43h-8.57v-15.64c-8.79,13.5-22.72,18-34.07,18-22.93,0-42.65-17.36-42.65-46.07,0-27,17.15-45.64,42.65-45.64,13.71,0,25.71,5.35,34.07,17.14v-15.21ZM2999.24,245.7c0,19.71,12.21,38.57,34.28,38.57s33.86-18.43,33.86-38.57c0-25.93-19.07-36.86-34.07-36.86-17.36,0-34.07,13.07-34.07,36.86M3130.8,210.77v-8.14h-15.21v-31.28h-8.57v31.28h-9.64v8.14h9.64v79.28h8.57v-79.28h15.21Z" style="fill:#bcbec0;"/><path d="M2848.4,4437.25c7.57,0,13.8,6.24,13.8,13.8s-6.24,13.81-13.8,13.81-13.8-6.24-13.8-13.81,6.24-13.8,13.8-13.8M2859.93,4567.52h-23.07v-81.87h23.07v81.87ZM2982.46,4561.29c-11.16,6.62-21.93,9.08-35.93,9.08-39.71,0-67.31-27.23-67.31-65.8s27.6-65.99,67.31-65.99,67.31,27.61,67.31,65.99c0,23.64-9.83,37.25-16.64,44.81l20.42,20.61-24.77,2.45-10.4-11.15ZM2980.19,4531.79c3.97-5.3,8.32-13.23,8.32-27.23,0-25.52-17.4-43.68-41.98-43.68s-41.98,18.15-41.98,43.68,17.21,43.49,42.55,43.49c8.51,0,14.18-1.89,18.72-4.16l-25.72-24.96,25.53-2.08,14.56,14.94ZM3156.58,150.82c8.09,0,14.75,6.67,14.75,14.75s-6.67,14.76-14.75,14.76-14.75-6.67-14.75-14.76,6.67-14.75,14.75-14.75M3168.91,290.05h-24.66v-87.5h24.66v87.5ZM3299.86,283.39c-11.93,7.07-23.44,9.7-38.4,9.7-42.44,0-71.94-29.1-71.94-70.33s29.5-70.53,71.94-70.53,71.94,29.51,71.94,70.53c0,25.26-10.51,39.81-17.78,47.9l21.83,22.03-26.47,2.62-11.11-11.92ZM3297.43,251.86c4.24-5.66,8.89-14.14,8.89-29.1,0-27.28-18.59-46.68-44.86-46.68s-44.86,19.4-44.86,46.68,18.39,46.48,45.47,46.48c9.09,0,15.16-2.02,20.01-4.45l-27.49-26.67,27.28-2.22,15.56,15.96Z" style="fill:#00a696;"/></svg>