<?xml version="1.0" encoding="UTF-8"?><svg id="a" xmlns="http://www.w3.org/2000/svg" viewBox="0 0 2000 2000"><path d="M1814.84,1952h131.14v5.25h-131.14v-5.25ZM1932.89,1878c-8.33,7.96-20.26,22.35-26.19,25.86-4.67,2.78-4.67-5.99-.02-10.99,6.69-7.17,11.94-13.95,7.75-12.98-4.16.95-16.63,0-24.24-1.34-7.61-1.34-8.79-1.25-10.99-.09-2.75,1.46-13.74,6.71-16.93,10.48-3.12,3.7-8.17,9.62-10.64,12.58-7.1,8.49-13.49,4.6-10.85,1.27,2.64-3.33,14.6-19.04,14.6-19.04,0,0-1.53.83-9.02,4.49-7.5,3.66-14.69-.81-9.81-3.68,4.86-2.87,24.24-14.13,24.24-14.13,0,0-5.51,1.13-17.3,2.52s-12.19-5.02-9.35-5.69c2.85-.67,32.29-7.73,36.16-8.1,3.86-.39,20.66-1.78,29.66-3.05,11.52-1.83,12.74-4.88,16.84-11.71,0,0-101.95,0-101.95,0v101.95h131.14v-86.42c-5.53,8.45-11.1,16.1-13.09,18.07ZM1857.76,1933.98c-.1,3.85-2.96,7.16-6.64,8.12,3.34-1.9,2.92-6.28,1.5-9.3-.05-.12-.05-.03-.06.03-.08.58-.17,1.17-.45,1.68-.08.2-.53.71-.67.56,0-.19-.04-.34-.06-.52-.27-1.72-1.13-3.35-2.48-4.49-1.19-1.06-1.38-2.85-.93-4.32,0-.01,0-.08,0-.07-.06,0-.11.03-.17.05-1.48.57-2.35,1.71-2.55,3.29-.02,1.37.07,2.73-.64,3.97-.15.19-.46.93-.6.47-.26-.47-.59-.89-1.05-1.18-.16-.09-.87-.48-.66-.09.47,1.15-.49,2.23-.69,3.36-.68,2.47.09,5.44,2.47,6.71.24.13-.01.08-.13.03-4.48-1.27-7.23-5.8-6.59-10.37.14-1.38.5-2.68,1.02-3.98.54-1.2.89-2.52.31-3.69,1.46.22,2.51,1.5,3.12,2.73.06.08.07,0,.1-.02.17-.22.36-.44.52-.69,1.17-1.78,1.4-4,1.24-6.09-.02-1.78.6-3.53,1.87-4.82.75-.8,1.74-1.33,2.77-1.69,0,.1-.03.17-.05.26-.8,2.62-.24,5.71,2,7.46,2.23,2.06,3.59,5.11,3.79,8.11,1.52-.46,1.66-2.58,1.85-3.89,1.23,2.02,2.06,6.21,1.85,8.41ZM1898.77,1927.36c-.22,5-2.79,9.78-7.1,12.4-1.52.96-3.12,1.72-4.83,2.22.46-.35.93-.65,1.36-.99,4.68-3.87,3.53-10.81,1.32-15.73,0-.05-.05-.09-.07-.14h-.05c-.24,1.51-.37,3.59-1.99,4.26-.1-1.46-.45-2.9-1.02-4.26-.74-1.76-1.76-3.28-3.12-4.56-2.3-2.02-3.05-5.27-2.08-8.12,0-.02,0-.07.02-.12h-.09c-2.73,1.02-4.35,2.96-4.79,5.85-.13,2.43.18,4.92-1.09,7.15-.18.26-.89,1.73-1.09,1.18-.69-1.25-1.73-2.6-3.26-2.78.52.98.42,2.04.05,3.03-2.69,5.98-2.03,12.18,3.35,15.5-13.32-4.32-14.55-16.96-9.41-28.38.45-1.42.34-2.89-.37-4.21,2.65.33,4.48,2.64,5.62,4.88,1.56-1.28,2.53-3.98,3.01-6.06.78-2.92-.05-5.92.58-8.84.7-4.04,3.78-7.48,7.45-8.81.19-.07.39-.14.62-.23,0,.07,0,.12-.05.16-1.11,3.54-.99,7.22.79,11.03.35.76.97,1.34,1.64,1.83,4.76,3.66,7.46,9.55,7.89,15.43,2.68-.86,3-4.6,3.31-6.99.07-.53.5.95.62,1.11,1.9,4.46,2.95,9.43,2.78,14.18h0ZM1923.48,1933.98c-.1,3.85-2.96,7.16-6.64,8.12,3.34-1.9,2.92-6.28,1.5-9.3-.05-.12-.05-.03-.06.03-.08.58-.17,1.17-.45,1.68-.08.2-.53.71-.67.56,0-.19-.04-.34-.06-.52-.27-1.72-1.13-3.35-2.48-4.49-1.19-1.06-1.38-2.85-.93-4.32,0-.01,0-.08,0-.07-.06,0-.11.03-.17.05-1.48.57-2.35,1.71-2.55,3.29-.02,1.37.07,2.73-.64,3.97-.15.19-.46.93-.6.47-.26-.47-.59-.89-1.05-1.18-.16-.09-.87-.48-.66-.09.47,1.15-.49,2.23-.69,3.36-.68,2.47.09,5.44,2.47,6.71.24.13-.01.08-.13.03-4.48-1.27-7.23-5.8-6.59-10.37.14-1.38.5-2.68,1.02-3.98.54-1.2.89-2.52.31-3.69,1.46.22,2.51,1.5,3.12,2.73.06.08.07,0,.1-.02.17-.22.36-.44.52-.69,1.17-1.78,1.4-4,1.24-6.09-.02-1.78.6-3.53,1.87-4.82.75-.8,1.74-1.33,2.77-1.69,0,.1-.03.17-.05.26-.8,2.62-.24,5.71,2,7.46,2.23,2.06,3.59,5.11,3.79,8.11,1.52-.46,1.66-2.58,1.85-3.89,1.23,2.02,2.06,6.21,1.85,8.41ZM1905.09,1787.85l-14.74-25.54c-2.08-3.59-5.78-5.74-9.92-5.74s-7.87,2.15-9.92,5.74l-14.74,25.54c-4.49,7.45,1.24,17.35,9.92,17.21,0,0,29.49,0,29.49,0,4.14,0,7.87-2.15,9.92-5.74,2.07-3.57,2.11-7.95-.02-11.47ZM1902.54,1797.86c-1.55,2.68-4.3,4.28-7.4,4.28h-29.49c-3.08,0-5.85-1.6-7.4-4.28s-1.55-5.88,0-8.54l14.74-25.54c1.55-2.68,4.3-4.28,7.4-4.28s5.85,1.6,7.4,4.28l14.74,25.54c1.58,2.68,1.49,5.92.02,8.54ZM1884.43,1765.73c-1.64-3.08-6.39-3.01-8.05,0,0,0-14.74,25.54-14.74,25.54-.83,1.46-.83,3.19,0,4.63.83,1.46,2.34,2.31,4,2.31h29.49c3.45.13,5.86-4.01,4.03-6.94,0,0-14.74-25.54-14.74-25.54ZM1882.62,1794.46h-4.44v-3.33h4.44v3.33ZM1882.28,1788.63h-3.7l-1.46-16.61h6.64s-1.42,16.66-1.48,16.61ZM1831.34,1817.5c-1.85-2.23-4.07-2.84-7.24-2.87,0,0-9.28,0-9.28,0v20.22h9.28c2.11-.05,4.79-.48,6.55-2.15,3.68-3.2,3.69-11.32.69-15.2ZM1826.71,1828.31c-.86,2.29-3.34,1.94-5.6,1.97,0,0,0-11.06,0-11.06,1.69-.07,4.16,0,5.02,1.18,1.23,1.04,1.29,6.39.58,7.91ZM1841.63,1814.64l-7.61,20.22h6.38l.99-3.33h7.1l1.02,3.33h6.55l-7.59-20.22h-6.85ZM1842.77,1827.13l2.2-7.26,2.22,7.26h-4.44.02ZM1871.73,1825.81l-7.61-11.17s-5.83,0-5.83,0v20.22s5.85,0,5.85,0v-11.1l7.59,11.1h5.88v-20.22h-5.88s0,11.17,0,11.17ZM1891.9,1827.52h4.19v1.9c-.81.49-1.55.83-2.17,1.04-4.17,1.23-6.88-1.17-6.66-5.81,0-2.06.42-3.56,1.23-4.51,1.66-2.11,6.04-1.98,6.82.93,0,0,6.04-1.09,6.04-1.09-1.29-4.59-4.53-5.83-9.42-5.71-4.3-.04-7.54,1.22-9.53,4.7-2.56,4.67-1.63,12.38,3.4,14.99,4.93,2.32,11.24,1.37,15.85-2.04,0,0,0-8.63,0-8.63h-9.65v4.21s-.09,0-.09,0v.02ZM1911.66,1826.3h9.74v-4.14h-9.74v-3.22h10.48v-4.3h-16.73v20.22h17.03v-4.58h-10.78s0-3.98,0-3.98ZM1942.95,1828.98c-.2-.48-1.46-2.02-1.87-2.31-.35-.25-.88-.49-1.62-.74.93-.21,1.67-.49,2.2-.81,3.83-2.04,3.53-8.75-.74-10.04-2.43-.87-11.97-.36-14.83-.49,0,0,0,20.22,0,20.22h6.27v-8.21c1.61-.09,2.41.39,3.22,2.01,0,0,3.33,6.18,3.33,6.18h7.06s-3.12-6.04-3.01-5.81ZM1937.68,1821.92c-.25.35-.6.56-1.02.62-1.48.42-2.95.25-4.3.28,0,0,0-4.12,0-4.12,1.22.05,4.33-.24,5.09.53.73.57.84,1.93.23,2.68ZM964.15,1898.32c-2.43-2.45-5.87-3.99-9.4-3.98,0,0-16.17,0-16.17,0v6.99s2.57,0,2.57,0v37.43s6.98,0,6.98,0c0,0,0-17.07,0-17.07h6.6c1.82,0,3.57-.68,5.19-1.38,8.49-3.77,10.95-15.4,4.23-21.98M960.99,1910.35c-1.08,2.45-3.53,4.28-6.25,4.34,0,0-6.6,0-6.6,0,0,0,0-13.37,0-13.37,0,0,6.61,0,6.61,0,.93,0,1.81-.01,2.62.33,3.41,1.22,5.09,5.41,3.62,8.69M1010.97,1895.37c1.77-.76,3.76-1.04,5.77-1.01,0,0,0,6.63,0,6.63-3.87-.26-7.4,3.06-7.17,6.97,0,0,0,13.47,0,13.47h-7.28s0-13.47,0-13.47c.1-5.5,3.67-10.47,8.68-12.59M1043.44,1897.86c-6.92-7.17-19.31-4.69-23.06,4.51-4.95,11.59,6.93,23.59,18.56,18.61,9.17-3.87,11.65-16.12,4.49-23.12M1040.11,1910.71c-1.87,4.67-8.32,5.91-11.8,2.29-4.56-4.4-1.19-12.45,5.16-12.31,5.01-.15,8.69,5.48,6.63,10.03M1049.76,1894.37h27.72s0,6.47,0,6.47l-16.52,13.43h16.51v7.17h-27.71v-7.11l16.68-13.33h-16.67v-6.64ZM1137.28,1898.35c2.55,2.55,4.03,6.04,4,9.72,0,0,0,13.41,0,13.41h-6.63s0-13.41,0-13.41c-.13-7.48-10.48-9.7-13.44-2.73-.36.84-.47,1.76-.47,2.73,0,0,0,13.4,0,13.4,0,0-7.27,0-7.27,0v-20.44s-2.56,0-2.56,0v-6.63s9.85,0,9.85,0v1.85c4.97-3.26,12.46-2.17,16.54,2.1M1103.8,1896.56c-2.94-2.32-6.69-2.81-9.25-2.81-13.55,0-14.28,11.34-14.28,13.62,0,9.77,4.95,14.72,14.76,14.73,2.45.05,10.63-.63,13.12-8.63,0,0-8.29,0-8.29,0-.68,1.9-2.85,3.16-4.85,3.14-5.92,0-6.49-4.5-6.72-5.86h20.44c.28-5.91-1.03-11.22-4.94-14.19M1088.53,1905.77c.49-4.19,2.51-5.28,5.83-5.28,1.21,0,5.18.42,5.78,5.28h-11.61ZM994.28,1898.49c2.46,2.4,4.02,5.75,4.05,9.26,0,0,0,13.67,0,13.67h-6.63s0-13.67,0-13.67c0-3.52-3.18-6.54-6.73-6.12,0,0-6.53,0-6.53,0,0,0,0,19.8,0,19.8,0,0-6.53,0-6.53,0v-39.59s-2.66,0-2.66,0v-5.89s9.2,0,9.2,0c0,0,0,18.4,0,18.4,0,0,6.53,0,6.53,0,3.52.04,6.92,1.68,9.32,4.15M925.56,1896.49c0-1.26-1.02-2.28-2.28-2.28h-9.98c2.29-2.73,7.7-9.19,9.58-11.43.82-1.02.09-2.57-1.23-2.57h-32.62c-2.15,0-5.36,1.77-7.16,3.92-19.14,22.85-20.39,24.32-20.39,24.32-.71.94-.12,2.4,1.16,2.4h7.74s-11.19,13.3-11.19,13.3c-1.05,1.44-.05,3.47,1.73,3.53h10.14l-8.35,9.96c-1.29,1.42-1.33,1.64-1.37,1.74-.39.98.29,2.06,1.35,2.11h32.74c2.15,0,5.35-1.7,7.16-3.86,0,0,20.16-24.03,20.42-24.39.6-.78.22-2.01-.79-2.33-.4-.13-.18-.04-8.04-.07.23-.28,10.43-12.42,10.73-12.78.42-.44.64-1,.64-1.59M864.75,1908.74c-.32-.04-.43-.43-.22-.63l18.96-22.62c1.55-1.85,4.21-3.16,5.54-3.16h31c.2,0,.28.22.2.34,0,.01-9.67,11.54-9.67,11.54h-21.52c-1.29,0-2.86.46-4.42,1.28-1.52.81-2.91,1.9-3.89,3.08l-8.57,10.18c-7.9,0-7.37,0-7.4,0M888.87,1908.75c1.51-1.54,3.99-2.93,5.58-2.93h6.36c-1.63,1.81-4.15,2.93-5.38,2.93h-6.56ZM908.47,1912.97c-.18.22-3.19,4.12-6.51,4.12h-19.27s3.45-4.12,3.45-4.12h22.32ZM894.44,1902.8h0c-2.75.01-6.32,2.11-8.3,4.46-1.22,1.53-1.18,1.48-1.18,1.48h-8.87l6.93-8.23c1.68-2,4.51-3.29,6-3.29h18.99l-4.67,5.58h-8.91ZM863.17,1924.67c-.2,0-.3-.25-.15-.39l.83-.98,10.46-12.44h8.87l-11.58,13.81h-8.44ZM920.03,1912.97c.14,0,.34.16.15.4,1.04-1.23-19.21,22.92-19.21,22.92-1.58,1.88-4.25,3.1-5.54,3.1h-30.98c-.17-.02-.25-.21-.16-.35,0,0,14.44-17.22,15.88-18.94h21.8c3.08,0,6.52-2.45,8.19-4.44l2.26-2.69h7.62ZM921.32,1897.67h0c-7.87,9.37-7.57,9.01-11.08,13.18h-10.02c1.37-.79,2.61-1.8,3.52-2.89l9.01-10.74s8.46,0,8.47,0c.06,0,.4.08.11.45" style="fill:#bcbec0;"/></svg>