<?xml version="1.0" encoding="UTF-8"?><svg id="a" xmlns="http://www.w3.org/2000/svg" viewBox="0 0 2000 2000"><polygon points="1427.41 1794.38 1482.76 1890.24 1372.07 1890.24 1427.41 1794.38" style="fill:#040404;"/><path d="M1448.49,1846.12l46.29,51.06-67.36-14.55-67.36,14.55,46.29-51.06,21.08-65.61,21.08,65.61M1612.32,1827.56c-.23-7.13-12.73-9.24-19.5-9.2h-16.3c-1.65,0-2.47.67-2.47,2s.82,2,2.47,2h16.27c3.07,0,5.98.6,8.73,1.8,2.98,1.38,4.47,3,4.47,4.87v18.4s-13.2,0-13.2,0c-4.91-.09-11.94-.88-13.07-5.57-.15-2.25.58-4.32,2.47-5.3,1.98-1.39,8.66-1.82,12.6-1.66,1.36,0,1.78,0,2.13,0,1.69,0,2.53-.67,2.53-2s-.84-2-2.53-2c-8.21-.22-22.91.12-23.53,9.27-.37,4.16,1.56,6.78,6.6,8.93,3.64,1.56,7.91,2.33,12.8,2.33h16.33c2.13,0,3.2-.67,3.2-2,0,0,0-21.87,0-21.87ZM1659.99,1820.29c0-1.29-1.07-1.93-3.2-1.93,0,0-16.4,0-16.4,0-7.69-.07-18.86,2.08-19.33,9.2v12.47c.27,2.89,2.16,5.11,5.67,6.67,3.07,1.38,6.98,2.07,11.73,2.07h5.47c1.69,0,2.53-.67,2.53-2s-.84-2-2.53-2c-6.5.05-14.96.58-16.53-5.38,0,0,0-10.7,0-10.7.45-4.62,8.17-6.39,13.07-6.31h13.2s0,28.28,0,28.28c-.55,4.61-8.42,6.48-13.33,6.39h-16.13c-1.64,0-2.47.68-2.47,2.03s.82,2.03,2.47,2.03l16.27-.07c6.22-.04,11.18-1.09,14.87-3.13,3.11-1.78,4.67-3.82,4.67-6.13v-31.47ZM1675.91,1810.64c0-1.7-1.07-2.55-3.2-2.55s-3.13.85-3.13,2.55v4.83c0,1.7,1.04,2.55,3.13,2.55s3.2-.85,3.2-2.55v-4.83ZM1675.91,1826.09c0-1.69-1.07-2.53-3.2-2.53s-3.13.84-3.13,2.53v23.47c0,1.69,1.04,2.53,3.13,2.53s3.2-.84,3.2-2.53v-23.47ZM1726.95,1841.04c.22-3.28-6.52-4.02-6.33-.55,0,0,0,1.87,0,1.87-.46,4.22-8.61,5.37-13.33,5.4-4.41.15-11.58-2.08-12.93-6.27,0,0,0-13.13,0-13.13.95-7.15,16.17-7.56,21.73-5,3.02,1.2,4.53,2.76,4.53,4.67-.58,4.1,7.04,3.19,6.27-.62-2.08-11.58-27.09-11.07-34.4-6.44-2.98,1.7-4.47,3.79-4.47,6.29,0,0,0,15.46,0,15.46,1.69,12.27,38.19,12.04,38.93-.34,0,0,0-1.34,0-1.34ZM1789.45,1820.16c0-1.29-1.07-1.94-3.2-1.94h-5.47c-1.07,0-1.96.33-2.67,1l-15.2,11.67-15.8-11.87c-.71-.53-1.58-.8-2.6-.8h-5.47c-2.09,0-3.13.67-3.13,2v29c0,1.69,1.04,2.53,3.13,2.53s3.2-.84,3.2-2.54v-27.77l17.97,13.99c1.63,1.82,3.54,1.69,5.23-.03l17.67-14.57v28.57c0,1.69,1.04,2.54,3.13,2.54s3.2-.85,3.2-2.54v-29.25ZM1565.66,1820.16c0-1.29-1.07-1.94-3.2-1.94h-5.47c-1.07,0-1.96.33-2.67,1l-15.2,11.67-15.8-11.87c-.71-.53-1.58-.8-2.6-.8h-5.47c-2.09,0-3.13.67-3.13,2v29c0,1.69,1.04,2.53,3.13,2.53s3.2-.84,3.2-2.54v-27.77l17.97,13.99c1.63,1.82,3.54,1.69,5.23-.03l17.67-14.57v28.57c0,1.69,1.04,2.54,3.13,2.54s3.2-.85,3.2-2.54v-29.25ZM1835.81,1827.56c-.23-7.13-12.73-9.24-19.5-9.2h-16.3c-1.65,0-2.47.67-2.47,2s.82,2,2.47,2h16.27c3.07,0,5.98.6,8.73,1.8,2.98,1.38,4.47,3,4.47,4.87v18.4s-13.2,0-13.2,0c-4.91-.09-11.94-.88-13.07-5.57-.15-2.25.58-4.32,2.47-5.3,1.98-1.39,8.66-1.82,12.6-1.66,1.36,0,1.78,0,2.13,0,1.69,0,2.53-.67,2.53-2s-.84-2-2.53-2c-8.21-.22-22.91.12-23.53,9.27-.37,4.16,1.56,6.78,6.6,8.93,3.64,1.56,7.91,2.33,12.8,2.33h16.33c2.13,0,3.2-.67,3.2-2,0,0,0-21.87,0-21.87ZM1851.47,1810.62c0-1.69-1.07-2.53-3.2-2.53s-3.13.84-3.13,2.53v38.8c0,1.69,1.04,2.53,3.13,2.53s3.2-.84,3.2-2.53v-38.8ZM1880.07,1843.49c-.09-.98-.55-1.96-1.38-2.93-.83-.98-2.44-2.4-4.82-4.27,4.13-2.84,6.2-5.18,6.2-7v-9c0-1.69-1.07-2.53-3.2-2.53s-3.13.84-3.13,2.53v7.93c0,1.07-.67,2.16-2,3.27-3.13,2.49-6.7,2.88-11.13,3-4.39-.08-3.22,4.13.13,4,3.87.04,6.61.35,9.8,2.47,1.96,1.29,3.02,2.67,3.2,4.13v4.33c0,1.69,1.07,2.53,3.2,2.53s3.13-.84,3.13-2.53v-5.93ZM1924.99,1840.36c-2.09,0-3.13.84-3.13,2.53.14,1.46-.8,2.04-3.4,3.2-4.65,1.88-12.96,2.37-18,.47-2.76-.98-4.38-2.31-4.87-4,0,0,0-15.2,0-15.2.25-6.23,17.5-6.53,21.73-3.8,3.02,1.51,4.53,3.91,4.53,7.2h-17.27c-1.69,0-2.53.67-2.53,2s.84,2,2.53,2h20.4c2.13,0,3.2-.67,3.2-2.01v-5.49c-.04-2.94-2.23-5.31-6.54-7.09-7.35-3.36-21.73-2.93-27.92.8-2.98,1.74-4.47,3.86-4.47,6.36,0,0,0,15.4,0,15.4.97,6.98,12.51,9.13,19.4,9.04,7.92-.13,19.19-1.16,19.53-8.32.17-1.93-.78-3.12-3.2-3.08ZM1965.06,1820.36c0-1.33-.82-2-2.47-2h-5.47c-6.31,0-11.24,1-14.8,3-3.07,1.73-4.6,3.82-4.6,6.27v21.8c0,1.69,1.04,2.53,3.13,2.53s3.2-.84,3.2-2.53v-20.69c0-1.6,1.11-3.02,3.33-4.26,2.53-1.46,5.8-2.17,9.8-2.13h5.4c1.64,0,2.47-.67,2.47-2ZM1954.6,1872.31c1.69,0,2.53-1.07,2.53-3.2s-.84-3.13-2.53-3.13h-444.64c-1.69,0-2.53,1.04-2.53,3.13s.84,3.2,2.53,3.2h444.64ZM1951.55,1886.84c1.69,0,2.53-1.07,2.53-3.2s-.84-3.13-2.53-3.13h-219.4c-1.69,0-2.53,1.04-2.53,3.13s.84,3.2,2.53,3.2h219.4Z" style="fill:#bcbec0;"/><path d="M1427.41,1834.71v23.58M1447.83,1870.08l-20.42-11.79M1407,1870.08l20.42-11.79" style="fill:none; stroke:#e6e7e8; stroke-miterlimit:10; stroke-width:.75px;"/><path d="M1427.41,1834.81l20.33,11.74v23.48l-20.33,11.74-20.33-11.74v-23.48l20.33-11.74M1427.41,1833.95l-21.08,12.17v24.34l21.08,12.17,21.08-12.17v-24.34l-21.08-12.17h0Z" style="fill:#e6e7e8;"/></svg>