<?xml version="1.0" encoding="UTF-8"?><svg id="a" xmlns="http://www.w3.org/2000/svg" viewBox="0 0 3000 3000"><path d="M1150.71,2960.22h64.57c11.26,0,17.42-1.06,21.03-3.4,4.46-2.76,7.01-7.43,7.01-12.96,0-6.59-3.4-12.32-9.13-15.08-2.97-1.7-8.5-2.55-15.29-2.55h-26.13c-16.99,0-28.04-2.97-35.47-9.35-8.5-7.43-13.38-18.9-13.38-31.01,0-18.27,9.77-33.99,24.64-39.08,6.37-2.34,13.81-2.97,30.38-2.97h70.1v25.28h-63.3c-13.38.21-14.44.21-18.9,1.27-5.95,1.49-9.56,7.01-9.56,14.45,0,6.37,2.97,11.47,8.07,13.81,4.25,1.91,7.65,2.34,17.84,2.34h22.73c20.82,0,32.08,3.19,40.36,11.68,6.37,6.37,10.62,18.91,10.62,31.01,0,15.29-7.01,29.31-18.06,36.11-7.01,4.46-15.93,5.73-36.96,5.73h-71.16v-25.28ZM1529.01,2985.5h-30.16l-59.69-141.68h33.99l41.64,106.63,42.27-106.63h33.99l-62.03,141.68ZM1789.18,2843.82v79.44c1.06,24.64,1.49,25.92,7.01,30.8,5.52,4.89,11.9,6.16,31.01,6.16h28.89v25.28h-32.08c-19.97,0-24.64-.43-31.86-2.34-14.44-3.82-25.28-13.59-29.74-27.19-2.12-6.37-3.4-18.06-3.4-32.71v-79.44h30.16ZM1356.7,2962.33c-21.94-1.95-31.9-17.13-31.9-47.99,0-15.08,2.12-26.34,6.58-33.35,5.06-8.05,14.08-12.96,25.32-14.01v-24.1c-18.2.8-33.53,5.56-43.58,13.67-14.02,11.05-21.45,31.65-21.45,58.63,0,19.12,4.04,34.62,12.32,46.31,10.08,14.54,28.85,23.22,52.72,24.62v-23.8ZM1417.63,2864.63c-9.8-13.01-28.66-20.92-51.23-21.79v24.14c21.94,1.9,31.9,16.69,31.9,47.14s-9.88,46.44-31.9,48.25v23.93c42.82-.97,65.04-24.91,65.04-70.26,0-21.24-5.1-40.15-13.81-51.41ZM1664.01,2962.32c-21.94-1.95-31.9-17.13-31.9-47.99,0-15.08,2.12-26.34,6.58-33.35,5.06-8.05,14.08-12.96,25.31-14.01v-24.1c-18.2.8-33.53,5.56-43.58,13.67-14.02,11.05-21.45,31.65-21.45,58.63,0,19.12,4.04,34.62,12.32,46.31,10.08,14.54,28.85,23.22,52.72,24.62v-23.8ZM1724.94,2864.63c-9.8-13.01-28.66-20.92-51.23-21.79v24.14c21.94,1.9,31.9,16.69,31.9,47.14s-9.88,46.44-31.9,48.25v23.93c42.82-.97,65.04-24.91,65.04-70.26,0-21.24-5.1-40.15-13.81-51.41Z" style="fill:#bcbec0;"/></svg>