<?xml version="1.0" encoding="UTF-8"?><svg id="a" xmlns="http://www.w3.org/2000/svg" viewBox="0 0 3000 3000"><path d="M1273.09,2844.09s0,42.29,0,42.29h-3.34c-1.08-8.12-3.02-14.58-5.82-19.39-7.87-14.16-30.96-21.63-43.51-9.96-4.09,3.82-6.13,8.16-6.13,13.03.06,12.05,13.87,18.78,30.48,28.22,16.56,9.41,26.44,13.35,33.05,25.7,6.5,12.83,3.5,28.07-7.39,37.92-8.93,8.99-24.62,11.67-37.74,9.24-1.86-.3-5.72-1.4-11.58-3.29-5.86-1.89-9.57-2.84-11.14-2.84s-2.69.45-3.56,1.35c-.87.9-1.52,2.77-1.94,5.59,0,0-3.34,0-3.34,0,0,0,0-41.93,0-41.93h3.34c3.15,15.63,5.51,23.36,18.44,30.57,10.17,5.68,27.3,6.39,35.71-1.63,10.65-9.48,7.39-23.86-3.65-31.74-5-3.95-36.42-20.63-41.52-25.52-4.42-3.49-7.77-7.33-10.05-11.54-6.42-11.95-3.71-27.22,6.67-36.56,11.96-11.43,30.68-11.94,46.35-4.73,3.37,1.5,5.74,2.25,7.12,2.25,4.19-.19,5.14-2.45,6.22-7.03,0,0,3.33,0,3.33,0ZM1358.66,2844.09c15.87,0,29.62,6.03,41.25,18.08,23.59,22.92,23,68.58-.14,91.38-22.01,24.43-63.05,24.5-84.98.45-11.45-11.96-17.18-27.44-17.18-46.43-.89-34.84,26.52-63.96,61.04-63.48ZM1356.95,2850.67c-29,.56-38.53,27.24-38.68,56.54.14,29.11,9.62,57.85,38.77,58.34,29.13-.98,39.84-24.79,39.67-55.81-.29-31.4-8.84-58.6-39.76-59.06ZM1555.59,2846.88s0,3.34,0,3.34c-4.33.78-7.61,2.16-9.83,4.15-3.19,2.95-6.01,7.46-8.48,13.53,0,0-42.65,104.05-42.65,104.05h-3.34c-2.96-5.96-48.06-112.5-50.77-115.32-3.78-4.51-7.95-5.82-14.43-6.4,0,0,0-3.34,0-3.34,0,0,49.95,0,49.95,0v3.34c-5.65.54-9.32,1.5-11,2.89-1.68,1.38-2.52,3.15-2.52,5.32,0,3.01,1.38,7.69,4.15,14.07l31.11,71.68,28.85-70.78c2.82-6.97,4.24-11.81,4.24-14.52,0-1.74-.87-3.41-2.62-5.01-1.82-1.85-6.25-3.08-10.37-3.65,0,0,0-3.34,0-3.34h37.69ZM1625.38,2844.09c15.87,0,29.62,6.03,41.25,18.08,23.59,22.92,23,68.58-.14,91.38-22.01,24.43-63.05,24.5-84.98.45-11.45-11.96-17.18-27.44-17.18-46.43-.89-34.84,26.52-63.96,61.04-63.48ZM1623.66,2850.67c-29,.56-38.53,27.24-38.68,56.54.14,29.11,9.62,57.85,38.77,58.34,29.13-.98,39.84-24.79,39.67-55.81-.29-31.4-8.84-58.6-39.76-59.06ZM1797.06,2935.34s2.97.63,2.97.63l-10.46,33.18h-94.67v-3.34h4.6c5.17,0,8.87-1.68,11.09-5.05,1.26-1.92,1.89-6.37,1.89-13.34v-78.9c0-7.63-.84-12.41-2.52-14.34-2.34-2.64-5.83-3.97-10.46-3.97h-4.6v-3.34h55.36v3.34c-6.49-.06-11.04.54-13.66,1.8-7.27,3.64-6.46,7.8-6.81,18.57,0,0,0,76.82,0,76.82.23,6.71.02,11.09,4.78,13.08,1.43,1.09,17.59.89,22.99.9,9.38,0,15.96-.69,19.75-2.08,10.46-4.33,14.46-11.82,19.75-23.98ZM83.43,2956.26l79.87-159.73c1.43-2.86,5.52-2.86,6.95,0l79.87,159.73c1.29,2.58-.59,5.62-3.47,5.62H86.9c-2.89,0-4.76-3.04-3.47-5.62ZM2753.37,2961.88h159.73c2.89,0,4.76-3.04,3.47-5.62l-79.87-159.73c-1.43-2.86-5.52-2.86-6.95,0l-79.87,159.73c-1.29,2.58.59,5.62,3.47,5.62Z" style="fill:#bcbec0;"/><path d="M2833.24,2769.17c7.48,0,13.94,3.99,17.29,10.69l86.94,173.88c3.02,6.04,2.7,13.07-.85,18.81-3.55,5.74-9.69,9.17-16.44,9.17h-173.88c-6.75,0-12.9-3.43-16.44-9.17-3.55-5.74-3.86-12.77-.85-18.81l86.94-173.88c3.35-6.69,9.81-10.69,17.29-10.69M166.76,2769.17c7.48,0,13.94,3.99,17.29,10.69l86.94,173.88c3.02,6.04,2.7,13.07-.85,18.81-3.55,5.74-9.69,9.17-16.44,9.17H79.83c-6.75,0-12.89-3.43-16.44-9.17-3.55-5.74-3.86-12.77-.85-18.81l86.94-173.88c3.35-6.69,9.81-10.69,17.29-10.69M2833.24,2761.17c-9.7,0-19.41,5.04-24.44,15.11l-86.94,173.88c-9.09,18.17,4.13,39.55,24.44,39.55h173.88c20.32,0,33.53-21.38,24.44-39.55l-86.94-173.88c-5.04-10.07-14.74-15.11-24.44-15.11h0ZM166.76,2761.17c-9.7,0-19.41,5.04-24.44,15.11l-86.94,173.88c-9.09,18.17,4.13,39.55,24.44,39.55h173.88c20.32,0,33.53-21.38,24.44-39.55l-86.94-173.88c-5.04-10.07-14.74-15.11-24.44-15.11h0Z" style="fill:#bcbec0;"/><path d="M130.44,2917.75h72.65M117.52,2933.34h98.5M101.61,2948.93h130.31M151.82,2844.85c-6.22,7.55-6.22,19.8,0,27.36h0c6.22,7.55,6.22,19.8,0,27.36M167.1,2899.56c6.22-7.55,6.22-19.8,0-27.36h0c-6.22-7.55-6.22-19.8,0-27.36M182.37,2844.85c-6.22,7.55-6.22,19.8,0,27.36h0c6.22,7.55,6.22,19.8,0,27.36M2796.91,2917.75h72.65M2783.99,2933.34h98.5M2768.08,2948.93h130.31M2818.29,2844.85c-6.22,7.55-6.22,19.8,0,27.36h0c6.22,7.55,6.22,19.8,0,27.36M2833.57,2844.85c-6.22,7.55-6.22,19.8,0,27.36h0c6.22,7.55,6.22,19.8,0,27.36M2848.84,2844.85c-6.22,7.55-6.22,19.8,0,27.36h0c6.22,7.55,6.22,19.8,0,27.36" style="fill:none; stroke:#414042; stroke-linecap:round; stroke-miterlimit:10; stroke-width:5px;"/></svg>