<?xml version="1.0" encoding="UTF-8"?><svg id="a" xmlns="http://www.w3.org/2000/svg" viewBox="0 0 5000 5000"><path d="M2166.33,4775.81s0,62.18,0,62.18h-4.9c-1.59-11.93-4.44-21.43-8.55-28.51-11.57-20.82-45.52-31.81-63.98-14.65-6.01,5.61-9.02,12-9.02,19.16,0,17.59,20.47,27.7,44.82,41.5,24.35,13.84,38.87,19.63,48.59,37.79,9.56,18.87,5.15,41.28-10.87,55.76-13.29,13.25-36.06,17.15-55.49,13.59-2.74-.44-8.42-2.05-17.04-4.84-10.45-3.04-17.46-6.35-21.61-2.19-1.28,1.32-2.23,4.07-2.85,8.22,0,0-4.9,0-4.9,0v-61.65s4.9,0,4.9,0c4.63,22.98,8.1,34.35,27.12,44.95,14.95,8.36,40.15,9.4,52.51-2.39,15.68-14.08,10.9-34.96-5.37-46.67-7.35-5.81-53.56-30.34-61.06-37.52-12.35-9.82-19.82-21.77-19.82-37.39-.23-27.34,24.83-48.16,52.64-47.33,9.55,0,19.67,2.34,30.36,7.03,4.95,2.21,8.44,3.31,10.48,3.31,6.16-.28,7.55-3.61,9.15-10.34,0,0,4.9,0,4.9,0ZM2292.17,4775.81c23.34,0,43.55,8.86,60.66,26.58,34.69,33.71,33.83,100.84-.2,134.38-32.36,35.92-92.72,36.03-124.97.66-16.84-17.59-25.26-40.35-25.26-68.28-1.32-51.24,39-94.06,89.77-93.35ZM2289.64,4785.48c-42.65.82-56.66,40.05-56.88,83.14.21,42.8,14.14,85.07,57.01,85.79,42.84-1.44,58.58-36.45,58.34-82.07-.43-46.17-13-86.17-58.47-86.85ZM2581.74,4779.91s0,4.91,0,4.91c-6.36,1.15-11.18,3.18-14.45,6.1-4.69,4.33-8.84,10.96-12.47,19.89,0,0-62.71,153.01-62.71,153.01,0,0-4.9,0-4.9,0,0,0-67.36-155-67.36-155-3.45-7.96-5.88-12.82-7.29-14.59-5.56-6.63-11.69-8.56-21.21-9.41,0,0,0-4.91,0-4.91h73.46s0,4.91,0,4.91c-11.63,1.35-19.36,2.54-19.89,12.06,0,4.42,2.03,11.31,6.1,20.68l45.75,105.41,42.43-104.08c4.15-10.25,6.23-17.37,6.23-21.35,0-2.56-1.28-5.02-3.85-7.36-2.56-2.34-6.89-4-12.99-4.97-.45-.09-1.2-.22-2.26-.4v-4.91h55.42ZM2684.37,4775.81c23.34,0,43.55,8.86,60.66,26.58,34.69,33.71,33.83,100.84-.2,134.38-32.36,35.92-92.72,36.03-124.97.66-16.84-17.59-25.26-40.35-25.26-68.28-1.32-51.24,39-94.06,89.77-93.35ZM2681.85,4785.48c-42.65.82-56.66,40.05-56.88,83.14.21,42.8,14.14,85.07,57.01,85.79,42.84-1.44,58.58-36.45,58.34-82.07-.43-46.17-13-86.17-58.47-86.85ZM2936.83,4909.99s4.37.93,4.37.93l-15.38,48.79h-139.22s0-4.91,0-4.91h6.76c7.6,0,13.04-2.47,16.31-7.43,1.86-2.83,2.79-9.37,2.79-19.62v-116.02c0-11.23-1.24-18.25-3.71-21.08-3.45-3.89-8.57-5.83-15.38-5.83,0,0-6.76,0-6.76,0s0-4.91,0-4.91h81.41s0,4.91,0,4.91c-9.55-.09-16.24.79-20.09,2.65-10.61,5.23-9.55,11.55-10.01,27.31,0,0,0,112.97,0,112.97,0,7.34.71,12.38,2.12,15.12,1.06,1.85,2.69,3.22,4.91,4.11,2.21.88,9.1,1.33,20.68,1.33,0,0,13.12,0,13.12,0,13.79,0,23.47-1.01,29.04-3.05,15.27-6.25,21.35-17.5,29.04-35.27ZM4616.97,4934.15h270.4c4.89,0,8.07-5.14,5.88-9.51l-135.2-270.4c-2.42-4.85-9.34-4.85-11.76,0l-135.2,270.4c-2.19,4.37.99,9.51,5.88,9.51ZM112.9,4934.15h270.4c4.89,0,8.07-5.14,5.88-9.51l-135.2-270.4c-2.42-4.85-9.34-4.85-11.76,0l-135.2,270.4c-2.19,4.37.99,9.51,5.88,9.51Z" style="fill:#bcbec0;"/><path d="M4690.67,4859.43h122.99M4668.79,4885.83h166.75M4641.87,4912.22h220.6M4726.87,4736.02c-10.53,12.79-10.53,33.52,0,46.31h0c10.53,12.79,10.53,33.52,0,46.31M4752.73,4736.02c-10.53,12.79-10.53,33.52,0,46.31h0c10.53,12.79,10.53,33.52,0,46.31M4778.59,4736.02c-10.53,12.79-10.53,33.52,0,46.31h0c10.53,12.79,10.53,33.52,0,46.31" style="fill:none; stroke:#414042; stroke-linecap:round; stroke-miterlimit:10; stroke-width:9px;"/><path d="M4752.17,4608.36c12.49,0,23.27,6.67,28.86,17.84l147.18,294.35c5.04,10.08,4.51,21.81-1.41,31.39s-16.18,15.3-27.45,15.3h-294.35c-11.26,0-21.52-5.72-27.45-15.3-5.92-9.58-6.45-21.32-1.41-31.39l147.18-294.35c5.58-11.17,16.37-17.84,28.86-17.84M248.1,4608.36c12.49,0,23.27,6.67,28.86,17.84l147.17,294.35c5.04,10.07,4.51,21.81-1.41,31.39-5.92,9.58-16.18,15.3-27.45,15.3H100.92c-11.26,0-21.52-5.72-27.45-15.3-5.92-9.58-6.45-21.32-1.41-31.39l147.18-294.35c5.58-11.17,16.37-17.84,28.86-17.84M4752.17,4594.36c-16.43,0-32.86,8.52-41.38,25.57l-147.18,294.35c-15.38,30.76,6.99,66.96,41.38,66.96h294.35c34.39,0,56.76-36.19,41.38-66.96l-147.18-294.35c-8.52-17.05-24.95-25.57-41.38-25.57h0ZM248.1,4594.36c-16.43,0-32.86,8.52-41.38,25.57l-147.18,294.35c-15.38,30.76,6.99,66.96,41.38,66.96h294.35c34.39,0,56.76-36.19,41.38-66.96l-147.17-294.35c-8.53-17.05-24.95-25.57-41.38-25.57h0Z" style="fill:#bcbec0;"/><path d="M186.6,4859.43h122.99M164.72,4885.83h166.75M137.8,4912.22h220.6M222.8,4736.02c-10.53,12.79-10.53,33.52,0,46.31h0c10.53,12.79,10.53,33.52,0,46.31M248.66,4736.02c-10.53,12.79-10.53,33.52,0,46.31h0c10.53,12.79,10.53,33.52,0,46.31M274.52,4736.02c-10.53,12.79-10.53,33.52,0,46.31h0c10.53,12.79,10.53,33.52,0,46.31" style="fill:none; stroke:#414042; stroke-linecap:round; stroke-miterlimit:10; stroke-width:9px;"/></svg>