<?xml version="1.0" encoding="UTF-8"?><svg id="a" xmlns="http://www.w3.org/2000/svg" viewBox="0 0 3000 3000"><path d="M1499.75,1523.2l-60.06-23.54,123.91-90.63,42.47,37.06-76.56,47.34,60.33,38.42-195.91,59.11,105.82-67.77ZM2393.58,2809.84c-1.11,4.71-2.1,7.05-6.41,7.24-1.43,0-3.87-.77-7.34-2.32-16.14-7.43-35.43-6.9-47.75,4.88-10.7,9.62-13.49,25.36-6.87,37.67,2.35,4.34,5.81,8.3,10.36,11.89,5.2,5,37.69,22.25,42.78,26.29,11.37,8.11,14.74,22.95,3.76,32.7-8.67,8.26-26.31,7.53-36.79,1.67-13.33-7.43-15.75-15.39-19-31.5,0,0-3.44,0-3.44,0v43.2h3.44c.43-2.91,1.1-4.83,2-5.76,2.96-2.92,7.78-.61,15.14,1.53,6.04,1.95,10.02,3.08,11.94,3.39,13.52,2.49,29.67-.26,38.88-9.52,11.22-10.14,14.32-25.85,7.62-39.07-6.81-12.72-16.99-16.78-34.05-26.48-17.11-9.73-31.34-16.65-31.41-29.08,0-5.02,2.11-9.49,6.32-13.43,8.39-8.05,22.47-7.18,32.52-1.53,12.35,7.01,16.12,16.88,18.3,31.77,0,0,3.44,0,3.44,0v-43.57h-3.44ZM2442.73,2826.28c-13.63,12.64-20.44,28.96-20.44,48.96-.87,36.45,25.39,66.71,61.41,66.33,35.36.5,62.93-30.94,61.97-66.61.77-55.86-61.74-86.17-102.94-48.68ZM2511.67,2829.25c15.87,16.92,17.64,74.33,1.16,91.88-7.71,9.23-17.48,13.84-29.31,13.84-30.04-.5-39.8-30.12-39.95-60.11.15-30.19,9.98-57.68,39.86-58.25,12.02,0,21.43,4.21,28.24,12.64ZM2649.26,2812.72v3.44c6.49.94,12.87,2.86,13.38,8.92,0,2.78-1.46,7.77-4.37,14.96l-29.73,72.93s-32.05-73.86-32.05-73.86c-2.85-6.57-4.27-11.4-4.27-14.49,0-2.23.87-4.06,2.6-5.48,1.73-1.42,5.51-2.42,11.33-2.97v-3.44h-51.47v3.44c6.67.6,10.97,1.95,14.86,6.6,2.6,2.47,49.46,113.15,52.31,118.83,0,0,3.44,0,3.44,0l43.94-107.21c2.54-6.26,5.45-10.9,8.74-13.94,2.29-2.04,5.67-3.47,10.13-4.27,0,0,0-3.44,0-3.44h-38.83ZM2717.55,2826.28c-13.63,12.64-20.44,28.96-20.44,48.96-.87,36.45,25.39,66.71,61.41,66.33,35.36.5,62.93-30.94,61.97-66.61.77-55.86-61.74-86.17-102.94-48.68ZM2786.48,2829.25c15.87,16.92,17.64,74.33,1.16,91.88-7.71,9.23-17.48,13.84-29.31,13.84-30.04-.5-39.8-30.12-39.95-60.11.15-30.19,9.98-57.68,39.86-58.25,12.02,0,21.43,4.21,28.24,12.64ZM2927.24,2921c-9.03,9.59-15.23,9.29-31.03,9.71,0,0-9.2,0-9.2,0-8.12,0-12.95-.31-14.49-.93-1.55-.62-2.7-1.58-3.44-2.88-.99-1.92-1.49-5.45-1.49-10.59v-79.16c0-7.49.5-12.23,1.49-14.21,3.83-6.3,10.04-6.69,19.6-6.78,0,0,0-3.44,0-3.44h-57.04v3.44h4.74c4.77,0,8.36,1.36,10.78,4.09,1.73,1.98,2.6,6.9,2.6,14.77v81.29c0,7.19-.65,11.77-1.95,13.75-2.29,3.47-6.1,5.2-11.43,5.2,0,0-4.74,0-4.74,0,0,0,0,3.44,0,3.44h97.55s10.78-34.19,10.78-34.19l-3.06-.65c-3.22,7.8-6.44,13.52-9.66,17.14Z" style="fill:#cecaaa; opacity:.5;"/></svg>