<?xml version="1.0" encoding="UTF-8"?><svg id="a" xmlns="http://www.w3.org/2000/svg" viewBox="0 0 3500 3500"><path d="M3281.26,3231.5c8.85,0,16.49,4.72,20.45,12.64l101.36,202.72c3.57,7.14,3.2,15.46-1,22.25-4.2,6.79-11.47,10.84-19.45,10.84h-202.72c-7.98,0-15.25-4.05-19.45-10.84-4.2-6.79-4.57-15.11-1-22.24l101.36-202.72c3.96-7.91,11.6-12.64,20.45-12.64M218.92,3231.5c8.85,0,16.49,4.72,20.45,12.64l101.36,202.72c3.57,7.14,3.2,15.46-1,22.24-4.2,6.79-11.47,10.84-19.45,10.84H117.56c-7.98,0-15.25-4.05-19.45-10.84-4.2-6.79-4.57-15.11-1-22.25l101.36-202.72c3.96-7.91,11.6-12.64,20.45-12.64M3281.26,3222.5c-11.31,0-22.63,5.87-28.5,17.61l-101.36,202.72c-10.59,21.19,4.81,46.11,28.5,46.11h202.72c23.69,0,39.09-24.93,28.5-46.11l-101.36-202.72c-5.87-11.74-17.19-17.61-28.5-17.61h0ZM218.92,3222.5c-11.31,0-22.63,5.87-28.5,17.61l-101.36,202.72c-10.59,21.19,4.81,46.11,28.5,46.11h202.72c23.69,0,39.09-24.93,28.5-46.11l-101.36-202.72c-5.87-11.74-17.19-17.61-28.5-17.61h0Z" style="fill:#bcbec0;"/><path d="M1485.45,3319.16v49.3h-3.89c-1.26-9.46-3.52-16.99-6.78-22.6-9.17-16.51-36.09-25.22-50.72-11.61-4.77,4.45-7.15,9.51-7.15,15.19.03,13.99,16.2,21.93,35.54,32.9,19.31,10.98,30.82,15.56,38.53,29.96,7.58,14.96,4.08,32.73-8.62,44.21-10.42,10.48-28.71,13.6-44,10.78-2.17-.35-6.67-1.63-13.51-3.84-8.31-2.41-13.8-5.04-17.14-1.73-1.01,1.05-1.77,3.22-2.26,6.52h-3.89v-48.88h3.89c3.67,18.22,6.42,27.24,21.5,35.64,11.85,6.63,31.83,7.45,41.63-1.9,12.43-11.11,8.63-27.76-4.26-37-5.83-4.61-42.47-24.05-48.41-29.75-5.15-4.06-9.06-8.55-11.72-13.46-7.48-13.94-4.33-31.74,7.78-42.63,13.95-13.33,35.77-13.92,54.03-5.52,3.92,1.75,6.69,2.63,8.31,2.63,4.88-.22,5.99-2.86,7.25-8.2,0,0,3.89,0,3.89,0ZM1585.22,3319.16c18.5,0,34.53,7.03,48.09,21.08,27.5,26.73,26.82,79.95-.16,106.54-25.66,28.48-73.51,28.56-99.08.53-13.35-13.95-20.03-31.99-20.03-54.14-1.04-40.63,30.92-74.57,71.17-74.01ZM1583.22,3326.83c-33.82.65-44.93,31.75-45.1,65.92.17,33.94,11.21,67.44,45.2,68.02,33.97-1.14,46.45-28.9,46.26-65.07-.34-36.6-10.3-68.32-46.36-68.86ZM1814.81,3322.42v3.89c-5.05.91-8.87,2.52-11.46,4.83-3.72,3.44-7.01,8.69-9.88,15.77,0,0-49.72,121.31-49.72,121.31h-3.89c-3.45-6.95-56.03-131.16-59.19-134.46-4.41-5.25-9.27-6.79-16.82-7.46,0,0,0-3.89,0-3.89h58.24v3.89c-6.59.63-10.86,1.75-12.83,3.36-5.83,4.68-1.78,13.46,1.89,22.6,0,0,36.27,83.57,36.27,83.57l33.64-82.52c3.29-8.13,4.94-13.77,4.94-16.92-.57-6.17-6.25-8.6-13.35-9.78-.35-.07-.95-.17-1.79-.31v-3.89s43.94,0,43.94,0ZM1896.18,3319.16c18.5,0,34.53,7.03,48.09,21.08,27.5,26.73,26.82,79.95-.16,106.54-25.66,28.48-73.51,28.56-99.08.53-13.35-13.95-20.03-31.99-20.03-54.14-1.04-40.63,30.92-74.57,71.17-74.01ZM1894.18,3326.83c-33.82.65-44.93,31.75-45.1,65.92.17,33.94,11.21,67.44,45.2,68.02,33.97-1.14,46.45-28.9,46.26-65.07-.34-36.6-10.3-68.32-46.36-68.86ZM2096.34,3425.55l3.47.73s-12.19,38.69-12.19,38.69h-110.38s0-3.89,0-3.89h5.36c6.03,0,10.34-1.96,12.93-5.89,1.47-2.24,2.21-7.43,2.21-15.56v-91.98c0-8.9-.98-14.47-2.94-16.71-2.73-3.08-6.8-4.63-12.19-4.63h-5.36s0-3.89,0-3.89c0,0,64.54,0,64.54,0,0,0,0,3.89,0,3.89-7.57-.07-12.88.63-15.93,2.1-8.46,4.21-7.55,9.12-7.94,21.65,0,0,0,89.57,0,89.57,0,5.82.56,9.81,1.68,11.99.84,1.47,2.14,2.56,3.89,3.26,1.75.7,7.22,1.05,16.4,1.05,0,0,10.41,0,10.41,0,10.93,0,18.61-.8,23.02-2.42,12.13-4.98,16.9-13.85,23.02-27.96ZM125.81,3456.51h186.23c3.37,0,5.55-3.54,4.05-6.55l-93.11-186.23c-1.67-3.34-6.43-3.34-8.1,0l-93.11,186.23c-1.51,3.01.68,6.55,4.05,6.55ZM3188.14,3456.51h186.23c3.37,0,5.55-3.54,4.05-6.55l-93.11-186.23c-1.67-3.34-6.43-3.34-8.1,0l-93.11,186.23c-1.51,3.01.68,6.55,4.05,6.55Z" style="fill:#bcbec0;"/><path d="M176.57,3405.06h84.7M161.5,3423.23h114.84M142.96,3441.41h151.93M201.5,3320.06c-7.25,8.81-7.25,23.09,0,31.89h0c7.25,8.81,7.25,23.09,0,31.89M219.31,3320.06c-7.25,8.81-7.25,23.09,0,31.89h0c7.25,8.81,7.25,23.09,0,31.89M237.12,3320.06c-7.25,8.81-7.25,23.09,0,31.89h0c7.25,8.81,7.25,23.09,0,31.89M3238.91,3405.06h84.7M3223.84,3423.23h114.84M3205.29,3441.41h151.93M3263.84,3383.85c7.25-8.81,7.25-23.09,0-31.89h0c-7.25-8.81-7.25-23.09,0-31.89M3281.65,3320.06c-7.25,8.81-7.25,23.09,0,31.89h0c7.25,8.81,7.25,23.09,0,31.89M3299.46,3320.06c-7.25,8.81-7.25,23.09,0,31.89h0c7.25,8.81,7.25,23.09,0,31.89" style="fill:none; stroke:#414042; stroke-linecap:round; stroke-miterlimit:10; stroke-width:6px;"/></svg>