<?xml version="1.0" encoding="UTF-8"?><svg id="a" xmlns="http://www.w3.org/2000/svg" viewBox="0 0 2200 2200"><path d="M1099.82,1117.01l-44.04-17.26,90.86-66.46,31.15,27.18-56.15,34.72,44.24,28.17-143.66,43.35,77.6-49.7ZM1749.29,2054.94c-1.14,6.29-4.59,6.22-10.08,3.61-11.83-5.45-25.99-5.06-35.02,3.58-7.85,7.05-9.89,18.6-5.04,27.63,5.07,11.07,30.05,21.34,38.97,28,8.33,5.9,10.8,16.88,2.76,23.98-9.78,8.73-29.68,4.03-36.14-6.98-2-3.29-3.59-8.26-4.77-14.89h-2.52s0,31.68,0,31.68c0,0,2.52,0,2.52,0,.32-2.13.81-3.54,1.46-4.22,2.3-2.16,5.62-.44,11.11,1.12,4.43,1.43,7.35,2.26,8.75,2.49,9.91,1.83,21.76-.19,28.51-6.98,8.23-7.44,10.5-18.95,5.59-28.65-1.7-3.36-4.13-6.28-7.29-8.75-3.16-2.48-9.05-6.03-17.68-10.66-12.59-7.18-22.93-12.14-23.03-21.32,0-3.68,1.54-6.96,4.63-9.85,9.49-8.82,26.93-3.17,32.87,7.53,2.11,3.64,3.58,8.52,4.4,14.65,0,0,2.52,0,2.52,0v-31.95h-2.52ZM1785.33,2067c-9.99,9.27-14.99,21.24-14.99,35.91-.64,26.73,18.62,48.92,45.04,48.64,25.93.37,46.15-22.69,45.44-48.85.56-40.97-45.28-63.19-75.49-35.7ZM1835.89,2069.18c11.64,12.41,12.93,54.51.85,67.38-5.66,6.77-12.82,10.15-21.5,10.15-22.03-.37-29.18-22.09-29.29-44.08.11-22.14,7.32-42.3,29.23-42.72,8.81,0,15.72,3.09,20.71,9.27ZM1936.79,2057.05v2.52c4.76.69,9.44,2.1,9.81,6.54,0,2.04-1.07,5.7-3.2,10.97l-21.8,53.48s-23.51-54.16-23.51-54.16c-2.38-6.01-5.02-11.5-1.23-14.65,1.27-1.04,4.04-1.77,8.31-2.18v-2.52h-37.74s0,2.52,0,2.52c4.89.44,8.04,1.43,10.9,4.84,1.91,1.81,36.27,82.98,38.36,87.14,0,0,2.52,0,2.52,0,0,0,32.23-78.62,32.23-78.62,1.86-4.59,4-7.99,6.41-10.22,1.68-1.5,4.16-2.54,7.43-3.13v-2.52h-28.48ZM1986.86,2067c-9.99,9.27-14.99,21.24-14.99,35.91-.64,26.73,18.62,48.92,45.04,48.64,25.93.37,46.15-22.69,45.44-48.85.56-40.97-45.28-63.19-75.49-35.7ZM2037.42,2069.18c11.64,12.41,12.93,54.51.85,67.38-5.66,6.77-12.82,10.15-21.5,10.15-22.03-.37-29.18-22.09-29.29-44.08.11-22.14,7.32-42.3,29.23-42.72,8.81,0,15.72,3.09,20.71,9.27ZM2140.64,2136.46c-6.68,7.06-11.12,6.8-22.76,7.12,0,0-6.74,0-6.74,0-5.95,0-9.49-.23-10.63-.68-1.14-.45-1.98-1.16-2.52-2.11-.73-1.41-1.09-4-1.09-7.77v-58.05c0-5.49.36-8.97,1.09-10.42,2.93-4.68,7.25-4.87,14.37-4.97,0,0,0-2.52,0-2.52,0,0-41.83,0-41.83,0v2.52s3.47,0,3.47,0c3.5,0,6.13,1,7.9,3,1.27,1.45,1.91,5.06,1.91,10.83v59.61c0,5.27-.48,8.63-1.43,10.08-1.68,2.55-4.47,3.82-8.38,3.82,0,0-3.47,0-3.47,0v2.52h71.54l7.9-25.07-2.25-.48c-2.36,5.72-4.72,9.91-7.09,12.57Z" style="fill:#cecaaa; opacity:.5;"/></svg>