<?xml version="1.0" encoding="UTF-8"?><svg id="a" xmlns="http://www.w3.org/2000/svg" viewBox="0 0 2200 2200"><path d="M908.22,2069.48v35.74s-2.82,0-2.82,0c-.91-6.86-2.55-12.32-4.92-16.39-6.65-11.97-26.16-18.29-36.77-8.42-3.45,3.23-5.18,6.9-5.18,11.01.11,10.26,11.68,15.82,25.76,23.85,14.05,8,22.28,11.22,27.93,21.72,5.49,10.85,2.96,23.73-6.25,32.05-7.55,7.6-20.81,9.86-31.89,7.81-1.57-.25-4.84-1.18-9.79-2.78-6.09-1.75-9.91-3.67-12.42-1.26-.74.76-1.28,2.34-1.64,4.72,0,0-2.82,0-2.82,0v-35.44s2.82,0,2.82,0c1.32,7.42,3.1,12.97,5.33,16.65,7.23,12.31,29.5,17.59,40.43,7.81,9-7.96,6.23-20.21-3.09-26.83-4.22-3.34-30.78-17.44-35.09-21.57-3.73-2.95-6.57-6.2-8.5-9.75-5.43-10.1-3.14-23.01,5.64-30.9,10.11-9.66,25.93-10.09,39.17-4,6.17,2.91,9.98,3.02,11.28-4.04,0,0,2.82,0,2.82,0ZM980.54,2069.48c13.41,0,25.03,5.09,34.87,15.28,19.94,19.38,19.44,57.96-.11,77.24-18.6,20.65-53.29,20.71-71.83.38-9.68-10.11-14.52-23.19-14.52-39.25-.76-29.45,22.42-54.06,51.59-53.65ZM979.1,2075.05c-24.51.47-32.57,23.02-32.69,47.78.12,24.6,8.13,48.89,32.77,49.31,24.62-.83,33.67-20.95,33.53-47.17-.25-26.53-7.47-49.53-33.61-49.92ZM1146.98,2071.85v2.82c-3.66.66-6.43,1.83-8.31,3.5-2.69,2.49-5.08,6.3-7.17,11.43l-36.05,87.94s-2.82,0-2.82,0c-2.5-5.04-40.62-95.08-42.91-97.47-3.2-3.81-6.72-4.92-12.19-5.41,0,0,0-2.82,0-2.82h42.22v2.82c-14.38,1.04-12.88,6.96-7.93,18.82,0,0,26.29,60.59,26.29,60.59l24.39-59.82c2.39-5.89,3.58-9.98,3.58-12.27-.42-4.97-5.65-6.54-10.97-7.32,0,0,0-2.82,0-2.82h31.86ZM1205.97,2069.48c13.41,0,25.03,5.09,34.87,15.28,19.94,19.38,19.44,57.96-.11,77.24-18.6,20.65-53.29,20.71-71.83.38-9.68-10.11-14.52-23.19-14.52-39.25-.76-29.45,22.42-54.06,51.59-53.65ZM1204.52,2075.05c-24.51.47-32.57,23.02-32.69,47.78.12,24.6,8.13,48.89,32.77,49.31,24.62-.83,33.67-20.95,33.53-47.17-.25-26.53-7.47-49.53-33.61-49.92ZM1351.07,2146.61l2.51.53-8.84,28.04h-80.02s0-2.82,0-2.82h3.89c4.37,0,7.49-1.42,9.37-4.27,1.07-1.62,1.6-5.38,1.6-11.28v-66.68c0-6.45-.71-10.49-2.13-12.12-1.98-2.24-4.93-3.35-8.84-3.35,0,0-3.89,0-3.89,0v-2.82h46.79s0,2.82,0,2.82c-5.49-.05-9.33.46-11.55,1.52-6.16,3.09-5.46,6.58-5.75,15.7,0,0,0,64.93,0,64.93.22,5.73-.03,9.3,4.04,11.05,1.21.92,14.87.75,19.43.76,7.93,0,13.49-.58,16.69-1.75,8.85-3.7,12.22-9.96,16.69-20.27Z" style="fill:#bcbec0;"/><path d="M2072.81,2027.4c5.51,0,10.28,2.94,12.74,7.87l64.4,128.81c2.22,4.45,1.99,9.63-.62,13.86s-7.14,6.76-12.12,6.76h-128.8c-4.97,0-9.5-2.53-12.12-6.76-2.61-4.23-2.85-9.41-.62-13.86l64.4-128.81c2.47-4.93,7.23-7.87,12.74-7.87M127.19,2027.4c5.51,0,10.28,2.94,12.74,7.87l64.4,128.81c2.22,4.45,1.99,9.63-.62,13.86-2.61,4.23-7.14,6.76-12.12,6.76H62.79c-4.97,0-9.5-2.53-12.12-6.76-2.61-4.23-2.85-9.41-.62-13.86l64.4-128.81c2.47-4.93,7.23-7.87,12.74-7.87M2072.81,2021.4c-7.19,0-14.38,3.73-18.11,11.19l-64.4,128.8c-6.73,13.46,3.06,29.3,18.11,29.3h128.8c15.05,0,24.84-15.84,18.11-29.3l-64.4-128.8c-3.73-7.46-10.92-11.19-18.11-11.19h0ZM127.19,2021.4c-7.19,0-14.38,3.73-18.11,11.19l-64.4,128.8c-6.73,13.46,3.06,29.3,18.11,29.3h128.8c15.05,0,24.84-15.84,18.11-29.3l-64.4-128.8c-3.73-7.46-10.92-11.19-18.11-11.19h0Z" style="fill:#bcbec0;"/><path d="M65.45,2165.93l59.16-118.33c1.06-2.12,4.09-2.12,5.15,0l59.16,118.33c.96,1.91-.43,4.16-2.57,4.16h-118.33c-2.14,0-3.53-2.25-2.57-4.16ZM2013.65,2170.09h118.33c2.14,0,3.53-2.25,2.57-4.16l-59.16-118.33c-1.06-2.12-4.09-2.12-5.15,0l-59.16,118.33c-.96,1.91.43,4.16,2.57,4.16Z" style="fill:#bcbec0;"/><path d="M100.28,2137.4h53.82M90.71,2148.95h72.97M78.92,2160.5h96.53M116.12,2083.39c-4.61,5.6-4.61,14.67,0,20.26h0c4.61,5.6,4.61,14.67,0,20.26M127.44,2083.39c-4.61,5.6-4.61,14.67,0,20.26h0c4.61,5.6,4.61,14.67,0,20.26M138.75,2083.39c-4.61,5.6-4.61,14.67,0,20.26h0c4.61,5.6,4.61,14.67,0,20.26M2045.9,2137.4h53.82M2036.33,2148.95h72.97M2024.54,2160.5h96.53M2061.74,2083.39c-4.61,5.6-4.61,14.67,0,20.26h0c4.61,5.6,4.61,14.67,0,20.26M2073.06,2083.39c-4.61,5.6-4.61,14.67,0,20.26h0c4.61,5.6,4.61,14.67,0,20.26M2084.37,2083.39c-4.61,5.6-4.61,14.67,0,20.26h0c4.61,5.6,4.61,14.67,0,20.26" style="fill:none; stroke:#414042; stroke-linecap:round; stroke-miterlimit:10; stroke-width:4px;"/></svg>