<?xml version="1.0" encoding="UTF-8"?><svg id="a" xmlns="http://www.w3.org/2000/svg" viewBox="0 0 2200 2200"><path d="M788.99,2169.28h57.5c10.02,0,15.51-.95,18.72-3.03,3.97-2.46,6.24-6.62,6.24-11.54,0-5.86-3.02-10.97-8.13-13.43-2.65-1.51-7.56-2.27-13.62-2.27h-23.26c-15.13,0-24.97-2.65-31.59-8.32-7.56-6.62-11.92-16.83-11.92-27.61,0-16.27,8.7-30.26,21.94-34.8,5.67-2.08,12.29-2.65,27.05-2.65h62.41v22.51h-56.36c-11.92.19-12.86.19-16.83,1.13-5.3,1.32-8.51,6.24-8.51,12.86,0,5.67,2.65,10.21,7.19,12.29,3.78,1.7,6.81,2.08,15.89,2.08h20.24c18.53,0,28.56,2.84,35.94,10.4,5.67,5.67,9.46,16.83,9.46,27.61,0,13.62-6.24,26.1-16.08,32.15-6.24,3.97-14.18,5.11-32.91,5.11h-63.36v-22.51ZM1125.83,2191.78h-26.86l-53.15-126.15h30.26l37.07,94.94,37.64-94.94h30.26l-55.23,126.15ZM1357.48,2065.63v70.74c.95,21.94,1.32,23.07,6.24,27.43,4.92,4.35,10.59,5.49,27.61,5.49h25.72v22.51h-28.56c-17.78,0-21.94-.38-28.37-2.08-12.86-3.41-22.51-12.1-26.48-24.21-1.89-5.67-3.03-16.08-3.03-29.13v-70.74h26.86ZM972.41,2171.15c-19.54-1.74-28.4-15.26-28.4-42.73,0-13.43,1.89-23.45,5.86-29.69,4.5-7.17,12.54-11.54,22.54-12.47v-21.46c-16.21.71-29.86,4.95-38.81,12.18-12.48,9.84-19.1,28.18-19.1,52.2,0,17.02,3.59,30.83,10.97,41.23,8.98,12.95,25.69,20.67,46.94,21.93v-21.19ZM1026.66,2084.16c-8.73-11.58-25.52-18.62-45.61-19.4v21.5c19.54,1.69,28.4,14.86,28.4,41.97s-8.8,41.35-28.4,42.96v21.31c38.12-.86,57.91-22.18,57.91-62.56,0-18.91-4.54-35.75-12.29-45.77ZM1246.03,2171.15c-19.54-1.74-28.4-15.26-28.4-42.73,0-13.43,1.89-23.45,5.86-29.69,4.5-7.17,12.54-11.54,22.54-12.47v-21.46c-16.21.71-29.86,4.95-38.81,12.18-12.48,9.84-19.1,28.18-19.1,52.2,0,17.02,3.59,30.83,10.97,41.23,8.98,12.95,25.69,20.67,46.94,21.93v-21.19ZM1300.28,2084.16c-8.73-11.58-25.52-18.62-45.61-19.4v21.5c19.54,1.69,28.4,14.86,28.4,41.97s-8.8,41.35-28.4,42.96v21.31c38.12-.86,57.91-22.18,57.91-62.56,0-18.91-4.54-35.75-12.29-45.77Z" style="fill:#bcbec0;"/></svg>