<?xml version="1.0" encoding="UTF-8"?><svg id="a" xmlns="http://www.w3.org/2000/svg" viewBox="0 0 1524 1524"><path d="M633.46,1432.02v23.96h-1.89c-1.2-8.18-3.27-13.62-10.06-17.47-5.52-3.11-13.27-3.58-17.88.84-2.32,2.16-3.47,4.62-3.47,7.38.11,6.94,7.79,10.56,17.27,15.99,6.47,3.47,10.89,6.14,13.26,7.99,2.37,1.86,4.19,4.04,5.46,6.56,6.78,13.6-5.09,27.73-19.9,27.17-5.22-.13-6.12-.38-12.23-2.32-3.32-1.07-5.42-1.61-6.31-1.61s-1.52.25-2.02.77c-.49.51-.86,1.57-1.1,3.17h-1.89s0-23.75,0-23.75h1.89c1.78,8.85,3.12,13.23,10.45,17.32,5.76,3.22,15.47,3.62,20.23-.92,3.92-3.51,4.8-8.58,2.3-13.13-.94-1.74-2.39-3.35-4.37-4.85-1.33-1.02-4.95-3.19-10.88-6.51-5.93-3.32-10.14-5.97-12.64-7.94-2.5-1.98-4.4-4.15-5.7-6.54-6.61-12.73,4.24-26.58,18.34-26.1,3.68,0,7.58.9,11.7,2.71,4.09,1.97,6.73,1.97,7.56-2.71,0,0,1.89,0,1.89,0ZM681.93,1432.02c8.99,0,16.78,3.41,23.37,10.24,13.36,12.99,13.03,38.85-.08,51.77-12.47,13.84-35.72,13.88-48.14.26-6.49-6.78-9.73-15.54-9.73-26.31-.51-19.74,15.03-36.24,34.58-35.96ZM680.96,1435.74c-16.43.32-21.83,15.43-21.91,32.03.08,16.49,5.45,32.77,21.96,33.05,16.5-.55,22.57-14.04,22.48-31.62-.17-17.79-5.01-33.2-22.53-33.46ZM793.49,1433.6s0,1.89,0,1.89c-2.45.44-4.31,1.23-5.57,2.35-1.81,1.67-3.41,4.22-4.8,7.66l-24.16,58.95s-1.89,0-1.89,0c-1.67-3.4-27.23-63.7-28.76-65.33-2.14-2.55-4.5-3.3-8.17-3.63,0,0,0-1.89,0-1.89h28.3v1.89c-4.59.59-7.35.86-7.66,4.65,0,1.7.78,4.36,2.35,7.97l17.62,40.61,16.35-40.1c1.6-3.95,2.4-6.69,2.4-8.22-.28-3.33-3.78-4.39-7.36-4.9,0,0,0-1.89,0-1.89h21.35ZM833.03,1432.02c8.99,0,16.78,3.41,23.37,10.24,13.36,12.99,13.03,38.85-.08,51.77-12.47,13.84-35.72,13.88-48.14.26-6.49-6.78-9.73-15.54-9.73-26.31-.51-19.74,15.03-36.24,34.58-35.96ZM832.06,1435.74c-16.43.32-21.83,15.43-21.91,32.03.08,16.49,5.45,32.77,21.96,33.05,16.5-.55,22.57-14.04,22.48-31.62-.17-17.79-5.01-33.2-22.53-33.46ZM930.28,1483.71s1.68.36,1.68.36l-5.93,18.8h-53.63v-1.89h2.6c2.93,0,5.02-.95,6.28-2.86.72-1.09,1.07-3.61,1.07-7.56v-44.69c-.08-7.47-.81-10-7.36-10.37,0,0-2.6,0-2.6,0,0,0,0-1.89,0-1.89h31.36s0,1.89,0,1.89c-5.42.1-8.49.17-10.78,3.73-.54,1.09-.82,3.7-.82,7.81v43.52c-.04,8.31,1.91,7.84,10.68,7.92,4.72.06,13.8.02,16.24-1.18,5.93-2.48,8.19-6.68,11.19-13.59ZM114.65,1495.73h84.64c1.53,0,2.52-1.61,1.84-2.98l-42.32-84.64c-.76-1.52-2.92-1.52-3.68,0l-42.32,84.64c-.68,1.37.31,2.98,1.84,2.98ZM1322.22,1495.73h84.64c1.53,0,2.52-1.61,1.84-2.98l-42.32-84.64c-.76-1.52-2.92-1.52-3.68,0l-42.32,84.64c-.68,1.37.31,2.98,1.84,2.98Z" style="fill:#bcbec0;"/><path d="M1517,7v1510H7V7h1510M1524,0H0v1524h1524V0h0Z" style="fill:#bcbec0;"/><path d="M1364.54,1393.57c3.98,0,7.42,2.12,9.2,5.68l46.07,92.14c1.6,3.21,1.44,6.95-.45,10-1.89,3.05-5.16,4.88-8.75,4.88h-92.14c-3.59,0-6.86-1.82-8.75-4.88-1.89-3.05-2.06-6.79-.45-10l46.07-92.14c1.78-3.56,5.22-5.68,9.2-5.68M156.97,1393.57c3.98,0,7.42,2.12,9.2,5.68l46.07,92.14c1.6,3.21,1.44,6.95-.45,10-1.89,3.05-5.16,4.88-8.75,4.88h-92.14c-3.59,0-6.86-1.82-8.75-4.88-1.89-3.05-2.06-6.79-.45-10l46.07-92.14c1.78-3.56,5.22-5.68,9.2-5.68M1364.54,1389.37c-5.14,0-10.28,2.67-12.95,8l-46.07,92.14c-4.81,9.63,2.19,20.96,12.95,20.96h92.14c10.77,0,17.77-11.33,12.95-20.96l-46.07-92.14c-2.67-5.34-7.81-8-12.95-8h0ZM156.97,1389.37c-5.14,0-10.28,2.67-12.95,8l-46.07,92.14c-4.81,9.63,2.19,20.96,12.95,20.96h92.14c10.77,0,17.77-11.33,12.95-20.96l-46.07-92.14c-2.67-5.34-7.81-8-12.95-8h0Z" style="fill:#bcbec0;"/><path d="M137.72,1472.35h38.5M130.87,1480.61h52.19M122.45,1488.87h69.05M149.05,1433.72c-3.3,4-3.3,10.49,0,14.5h0c3.3,4,3.3,10.49,0,14.5M157.15,1433.72c-3.3,4-3.3,10.49,0,14.5h0c3.3,4,3.3,10.49,0,14.5M165.24,1433.72c-3.3,4-3.3,10.49,0,14.5h0c3.3,4,3.3,10.49,0,14.5M1345.3,1472.35h38.5M1338.45,1480.61h52.19M1330.02,1488.87h69.05M1356.63,1433.72c-3.3,4-3.3,10.49,0,14.5h0c3.3,4,3.3,10.49,0,14.5M1364.72,1433.72c-3.3,4-3.3,10.49,0,14.5h0c3.3,4,3.3,10.49,0,14.5M1372.82,1433.72c-3.3,4-3.3,10.49,0,14.5h0c3.3,4,3.3,10.49,0,14.5" style="fill:none; stroke:#414042; stroke-linecap:round; stroke-miterlimit:10; stroke-width:2.6px;"/></svg>