<?xml version="1.0" encoding="UTF-8"?><svg id="a" xmlns="http://www.w3.org/2000/svg" viewBox="0 0 3400 3000"><path d="M2991.67,2887.26h0c-4.32,0-7.83-3.51-7.83-7.83v-58.8c0-4.32,3.51-7.83,7.83-7.83h0c4.32,0,7.83,3.51,7.83,7.83v58.8c0,4.32-3.51,7.83-7.83,7.83ZM2975.53,2876.18l-26.89-58.84c-2.75-6.03-11.31-6.03-14.07,0l-26.89,58.84c-1.8,3.93-.07,8.58,3.87,10.38h0c3.93,1.8,8.58.07,10.38-3.87l19.68-43.06,19.68,43.06c1.8,3.93,6.44,5.66,10.38,3.87h0c3.93-1.8,5.66-6.44,3.87-10.38ZM3147.64,2871.8h-44.87v-43.52h44.87c4.27,0,7.73-3.46,7.73-7.73s-3.46-7.73-7.73-7.73l-52.7-.02c-4.32,0-7.83,3.51-7.83,7.83v58.8c0,4.32,3.51,7.83,7.83,7.83h52.7c4.27,0,7.73-3.46,7.73-7.73h0c0-4.27-3.46-7.73-7.73-7.73ZM3113.96,2842.3c-4.27,0-7.73,3.46-7.73,7.73s3.46,7.73,7.73,7.73h30.39c4.27,0,7.73-3.46,7.73-7.73s-3.46-7.73-7.73-7.73h-30.39ZM2896.88,2873.66l-17.17-17.17c11.05-1.11,19.67-10.44,19.67-21.78h0c0-12.09-9.8-21.89-21.89-21.89h-30.73l-7.54-.02c-4.48,0-8.12,3.64-8.12,8.12v58.27c0,3.92,2.78,7.43,6.67,7.99,4.84.7,8.99-3.04,8.99-7.75v-52.7h29.55c4.25,0,7.96,3.21,8.23,7.44.3,4.65-3.38,8.51-7.96,8.51h-15.27c-3.97,0-7.29,3.25-7.17,7.22.06,2.14.9,4.15,2.38,5.54l29.52,29.52c3.11,3.11,8.2,3.06,11.24-.17s2.63-8.1-.4-11.13ZM3072.58,2826.74c3.84,0,6.96-3.11,6.96-6.96h0c0-3.84-3.11-6.96-6.96-6.96h-43.37c-12.2,0-22.08,9.89-22.08,22.08h0c0,12.2,9.89,22.08,22.08,22.08h27.32c4.52,0,8.18,3.66,8.18,8.18h0c0,4.52-3.66,8.18-8.18,8.18h-42.16c-3.81,0-7.13,2.94-7.25,6.74-.12,3.94,3.04,7.17,6.95,7.17h43.36c12.2,0,22.09-9.89,22.09-22.09h0c0-12.2-9.89-22.09-22.09-22.09h-27.32c-4.51,0-8.17-3.66-8.17-8.17h0c0-4.51,3.66-8.17,8.17-8.17h42.46ZM3218.07,2833.94h0c0-11.68-9.46-21.14-21.14-21.14h-21.25c-2.79,0-5.05,2.26-5.05,5.05s2.26,5.05,5.05,5.05h21.25c6.1,0,11.04,4.94,11.04,11.04s-4.94,11.04-11.04,11.04h-21.25c-2.79,0-5.05,2.26-5.05,5.05s2.26,5.05,5.05,5.05h21.25c6.1,0,11.04,4.94,11.04,11.04s-4.94,11.04-11.04,11.04h-21.25c-2.79,0-5.05,2.26-5.05,5.05s2.26,5.05,5.05,5.05h21.25c11.68,0,21.14-9.46,21.14-21.14,0-6.45-2.9-12.21-7.45-16.09,4.55-3.88,7.45-9.64,7.45-16.09ZM3250.02,2812.8h-19.11c-2.92,0-5.29,2.37-5.29,5.29v63.88c0,2.92,2.37,5.29,5.29,5.29h19.11c15.31,0,27.83-12.52,27.83-27.83v-22.81c0-13.16-14.67-23.83-27.83-23.83ZM3235.72,2822.9h14.33c7.58,0,17.72,6.14,17.72,13.72v26.83c0,7.58-10.14,13.72-17.72,13.72h-14.33v-54.27Z" style="fill:#bcbec0;"/><path d="M2758.6,2866.75l-25.35-55.48c-2.6-5.68-10.67-5.68-13.26,0l-25.35,55.48c-1.69,3.71-.06,8.09,3.65,9.78h0c3.71,1.69,8.09.06,9.78-3.65l18.55-40.6,18.55,40.6c1.69,3.71,6.07,5.34,9.78,3.65h0c3.71-1.69,5.34-6.07,3.65-9.78ZM2769.09,2881.21l-36.69,21.19c-3.59,2.07-8,2.07-11.59,0l-36.69-21.19c-3.59-2.07-5.79-5.9-5.79-10.04v-42.37c0-4.14,2.21-7.97,5.79-10.04l36.69-21.19c3.59-2.07,8-2.07,11.59,0l36.69,21.19c3.59,2.07,5.79,5.9,5.79,10.04v42.37c0,4.14-2.21,7.97-5.79,10.04ZM2790.64,2878.14v-56.29c0-5.5-2.93-10.58-7.7-13.33l-48.75-28.14c-4.76-2.75-10.63-2.75-15.4,0l-48.75,28.14c-4.76,2.75-7.7,7.83-7.7,13.33v56.29c0,5.5,2.93,10.58,7.7,13.33l48.75,28.14c4.76,2.75,10.63,2.75,15.4,0l48.75-28.14c4.76-2.75,7.7-7.83,7.7-13.33Z" style="fill:#b2292e;"/></svg>