<?xml version="1.0" encoding="UTF-8"?><svg id="a" xmlns="http://www.w3.org/2000/svg" viewBox="0 0 1000 1000"><path d="M940.75,947.34h10.47v5.52h-10.47c-5.34,0-6.19,7.05-6.19,10.06,0,5.22.85,10.06,6.19,10.06h10.47v5.52h-10.47c-8.27,0-12.69-5.1-12.69-15.59,0-7.58,2.4-15.59,12.69-15.59ZM901.58,962.93c0,10.48,4.42,15.59,12.69,15.59h10.47v-5.52h-10.47c-4.45,0-5.78-3.36-6.1-7.5h16.57v-5.52h-16.43c.51-3.23,2-7.11,5.96-7.11h10.47v-5.52h-10.47c-10.29,0-12.69,8.01-12.69,15.59ZM850.91,962.93c0,10.48,4.42,15.59,12.69,15.59h10.47v-5.52h-10.47c-4.45,0-5.78-3.36-6.1-7.5h16.57v-5.52h-16.43c.51-3.23,2-7.11,5.96-7.11h10.47v-5.52h-10.47c-10.29,0-12.69,8.01-12.69,15.59ZM824.23,962.93c0,10.48,4.42,15.59,12.69,15.59h10.47v-5.52h-10.47c-4.45,0-5.78-3.36-6.1-7.5h16.57v-5.52h-16.43c.51-3.23,2-7.11,5.96-7.11h10.47v-5.52h-10.47c-10.29,0-12.69,8.01-12.69,15.59ZM797.55,962.93c0,10.48,4.42,15.59,12.69,15.59h10.47v-5.52h-10.47c-4.45,0-5.78-3.36-6.1-7.5h16.57v-5.52h-16.43c.51-3.23,2-7.11,5.96-7.11h10.47v-5.52h-10.47c-10.29,0-12.69,8.01-12.69,15.59ZM794.77,959.97h-13.87v5.52h8v7.5h-7.4c-5.34,0-6.19-4.85-6.19-10.06,0-3.02.85-10.06,6.19-10.06h13.27v-5.52h-13.27c-10.29,0-12.69,8.01-12.69,15.59,0,10.48,4.42,15.59,12.69,15.59h13.27s0,0,0,0v-18.54ZM876.49,952.86h9.12v25.65h5.87v-25.65h9.09v-5.52h-24.08v5.52ZM972.24,947.34v12.63h-10.78v-12.63h-5.87v31.17h5.87v-13.02h10.78v13.02h5.87v-31.17h-5.87Z" style="fill:#bcbec0; fill-rule:evenodd;"/></svg>