<?xml version="1.0" encoding="UTF-8"?><svg id="a" xmlns="http://www.w3.org/2000/svg" viewBox="0 0 2000 2000"><path d="M681.14,1815.27c-2.78,1.74-6.38-.26-6.37-3.55.09-21.81.31-81.15.23-104-.01-2.83.94-4.44,2.99-5.67,4.11-2.46,28.36-17.32,29.42-17.85,2.41-1.2,5.3.95,5.31,3.97.03,6.52.01,13.03.01,19.55,0,0-.05,67.47.05,84.72.01,2.38-.97,3.68-2.59,4.69-3.71,2.32-19.67,12.26-29.06,18.14ZM805.97,1656.39c.01-1.86-.52-3.25-2.12-4.14-1.81-1-52.17-32.87-60.69-38.31-1.46-.93-2.73-.85-4.14.11-2.3,1.56-21.1,13.48-28.11,18.02-2.32,1.5-2.38,4.7-.13,6.24,5.29,3.59,51.91,33.76,58.84,38.17,1.11.71,1.48,1.5,1.47,2.89-.06,7.46,0,14.93-.04,22.4-.02,4.74,3.32,5.12,5.83,3.73,4.98-2.76,22.7-13.21,26.71-15.39,1.83-.99,2.41-2.49,2.38-4.59-.05-4.82-.05-24.23-.01-29.12ZM805.97,1699.3c.22-4.71-3.42-6.01-6.32-4.31-3.04,1.78-56.18,32.6-60.24,34.84-.51.28-1.35.33-1.83.05-1.9-1.1-12.85-8.83-16.84-11.36-2.32-1.47-5.17.32-5.14,3.24.14,11.94-.27,23.89,0,35.83.02.94.62,2.18,1.31,2.72,1.38,1.07,18.25,9.75,20.94,10.87,1.14.48,2.8.52,3.88-.03,4.44-2.32,58.58-33.83,62.43-36.04,1.28-.73,1.86-1.8,1.84-3.43-.06-5.5-.28-27.1-.03-32.39ZM736.96,1659.3c-.51-.83-1.01-1.68-1.71-2.16-4.97-3.39-24.61-16.06-29.4-19.11-1.78-1.13-3.61-1.18-5.39.11-1.94,1.41-17.35,12.33-23.13,16.34-1.72,1.19-2.56,2.83-2.57,5-.02,5.66-.16,26.74.05,31.59.07,1.75-.44,3.87,1.26,5.26,1.66,1.36,3.45,1.18,5.07.23,6.87-4.05,49.02-29.4,53.89-32.26,1.58-.86,3.05-3.2,1.93-5M841.37,1710.29c0,27.19,20.82,46.84,48.66,46.84,13.9,0,25.89-4.6,34.3-13.18,1.06-1.09,1.03-2.84-.07-3.88l-7.04-6.71c-1.05-1-2.71-1-3.77,0-6.3,6.02-13.87,8.94-22.51,8.94-18.86,0-32.53-13.27-32.53-32.01s13.66-32.01,32.53-32.01c8.65,0,16.23,2.92,22.52,8.85,1.05.99,2.69.99,3.74,0l7.03-6.61c1.11-1.05,1.16-2.81.09-3.9-8.41-8.57-20.39-13.17-34.16-13.17-27.97,0-48.79,19.64-48.79,46.84M983.47,1721.08c0,13.27-8.85,21.73-20.69,21.73s-20.56-8.46-20.56-21.73,8.85-21.72,20.56-21.72,20.69,8.46,20.69,21.72M925.83,1721.08c0,20.82,15.61,35.65,36.95,35.65s37.08-14.83,37.08-35.65-15.48-35.52-37.08-35.52-36.95,14.7-36.95,35.52M1098.65,1697.14c0,11.45-7.68,18.08-22.51,18.08h-17.05c-1.51,0-2.73-1.22-2.73-2.73v-30.72c0-1.51,1.22-2.73,2.73-2.73h17.05c14.83,0,22.51,6.64,22.51,18.08M1115.69,1697.14c0-20.17-14.83-32.39-38.77-32.39h-34.75c-1.51,0-2.72,1.22-2.72,2.73v85.62c0,1.51,1.22,2.73,2.72,2.73h11.46c1.51,0,2.73-1.22,2.73-2.73v-20.83c0-1.51,1.22-2.73,2.73-2.73h17.83c23.94,0,38.77-12.36,38.77-32.4M1163.86,1697.96v-9.59c0-1.56-1.31-2.82-2.87-2.73-7.22.4-13.09,2.36-17.41,5.88-1.78,1.45-4.44,1.44-4.44-2.45,0-1.51-1.22-2.73-2.73-2.73h-10.03c-1.51,0-2.73,1.22-2.73,2.73v64.02c0,1.51,1.22,2.73,2.73,2.73h10.81c1.51,0,2.73-1.22,2.73-2.73v-30.97c0-14.18,7.69-21.44,21.08-21.44,1.86,0,2.86-1.17,2.86-2.72ZM1173.63,1686.35c-1.51,0-2.73,1.22-2.73,2.73v64.02c0,1.51,1.22,2.73,2.73,2.73h10.81c1.51,0,2.73-1.22,2.73-2.73v-64.02c0-1.51-1.22-2.73-2.73-2.73h-10.81M1168.69,1665.14c0,5.46,4.42,9.76,10.41,9.76s10.41-4.42,10.41-10.14c0-5.34-4.43-9.37-10.41-9.37s-10.41,4.29-10.41,9.76M1270.18,1716.01c0-20.95-12.36-30.44-29.01-30.44-7.72,0-14.46,1.96-19.59,5.7-1.81,1.32-4.35.05-4.35-2.19,0-1.51-1.22-2.73-2.73-2.73h-10.03c-1.51,0-2.73,1.22-2.73,2.73v64.02c0,1.51,1.22,2.73,2.73,2.73h10.81c1.51,0,2.73-1.22,2.73-2.73v-32.4c0-13.92,7.81-20.95,19.38-20.95,10.41,0,16.52,5.99,16.52,18.35v35c0,1.51,1.22,2.73,2.73,2.73h10.8c1.51,0,2.73-1.22,2.73-2.73v-37.08M1322.51,1743.45c-.57-1.47-2.26-2.1-3.7-1.45-1.99.9-4.25,1.33-6.58,1.33-6.25,0-9.63-3.64-9.63-10.41v-30.32c0-1.51,1.22-2.73,2.73-2.73h13.15c1.5,0,2.73-1.22,2.73-2.73v-7.55c0-1.51-1.22-2.73-2.73-2.73h-13.15c-1.51,0-2.73-1.22-2.73-2.73v-10.42c0-1.51-1.22-2.73-2.72-2.73h-10.81c-1.51,0-2.72,1.22-2.72,2.73v10.42c0,1.51-1.22,2.73-2.73,2.73h-6c-1.51,0-2.73,1.22-2.73,2.73v7.55c0,1.51,1.22,2.73,2.73,2.73h6c1.51,0,2.73,1.22,2.73,2.73v30.71c0,15.35,8.71,23.42,23.93,23.42,4.96,0,9.92-1.12,13.69-3.36,1.14-.68,1.62-2.1,1.13-3.34l-2.59-6.59Z" style="fill:#bcbec0; fill-rule:evenodd;"/></svg>