<?xml version="1.0" encoding="UTF-8"?><svg id="a" xmlns="http://www.w3.org/2000/svg" viewBox="0 0 370 370"><path d="M159.71,354.3l3.93.37-5.28-4.65-5.2-2.07,6.55,6.35ZM159.3,354.54l-6.82-6.61-4.23,7.6,4.7,7.01,6.35-8ZM159.71,354.76l-6.21,7.83,5.31-1.93,4.94-5.52-4.04-.38ZM184.09,354.42l-1.92-2.71h1.85l1.01,1.43-.94,1.28ZM186.14,358.88v-3.21l2.89-3.96h-1.87l-2.53,3.47v3.7h1.51ZM181.77,359.01v-7.3h-1.51v3.96l-4.69-4.15v2l6.21,5.48ZM177.07,358.86v-2.81l-1.51-1.33v4.14h1.51ZM174.73,358.86l-3.79-7.35-.85,1.64,1.59,3.06h-.59l-.76,1.47h2.1l.61,1.18h1.7ZM168.85,358.86l1.62-3.15-.84-1.65-2.47,4.8h1.69ZM213.25,358.86v-7.15h-1.51v7.15h1.51ZM206.36,358.86v-7.15h-1.51v7.15h1.51ZM192.34,357.34c-1.02-.2-1.78-1.1-1.78-2.18s.77-1.97,1.78-2.18v-1.52c-1.86.22-3.3,1.78-3.3,3.7s1.45,3.48,3.3,3.7v-1.52ZM195.73,357.42c-.6.77-1.48,1.31-2.5,1.43v-1.52c.54-.11,1-.42,1.32-.85l1.18.93ZM193.23,352.98v-1.52c1.02.12,1.91.66,2.5,1.43l-1.18.93c-.32-.42-.78-.73-1.32-.84ZM218.35,357.34c-1.02-.2-1.78-1.1-1.78-2.18s.77-1.97,1.78-2.18v-1.52c-1.86.22-3.3,1.78-3.3,3.7s1.45,3.48,3.3,3.7v-1.52ZM221.75,357.42c-.6.77-1.48,1.31-2.5,1.43v-1.52c.54-.11,1-.42,1.32-.85l1.18.93ZM219.24,352.98v-1.52c1.02.12,1.91.66,2.5,1.43l-1.18.93c-.32-.42-.78-.73-1.32-.84ZM199.63,357.32c-.56-.19-.98-.71-.98-1.33v-4.27h-1.51v4.27c0,1.47,1.08,2.68,2.49,2.89v-1.56ZM201.5,351.71v4.27c0,.63-.41,1.15-.98,1.33v1.56c1.41-.22,2.49-1.42,2.49-2.89v-4.27h-1.51ZM208.15,351.71h-.85v1.49h.85c.35,0,.64.29.64.64s-.28.64-.64.64h-.85v1.49h.85c1.18,0,2.13-.95,2.13-2.13s-.95-2.13-2.13-2.13ZM208.76,356.59c.01.05.03.1.03.15,0,.35-.28.64-.64.64h-.85v1.49h.85c1.18,0,2.13-.95,2.13-2.13,0-.31-.07-.6-.19-.87-.37.35-.82.6-1.33.72Z" style="fill:#b3b3b3;"/><path d="M185,35c82.84,0,150,67.16,150,150s-67.16,150-150,150S35,267.84,35,185,102.16,35,185,35ZM185,85c55.23,0,100,44.77,100,100s-44.77,100-100,100-100-44.77-100-100,44.77-100,100-100ZM185,135c27.61,0,50,22.39,50,50s-22.39,50-50,50-50-22.39-50-50,22.39-50,50-50ZM185,0v346.87M0,185h370" style="fill:none; stroke:#e6e6e6; stroke-miterlimit:10; stroke-width:.1px;"/></svg>