<?xml version="1.0" encoding="UTF-8"?><svg id="a" xmlns="http://www.w3.org/2000/svg" viewBox="0 0 400 400"><path d="M318.35,384.71l4.86.46-6.53-5.74-6.43-2.56,8.09,7.85ZM317.84,385.01l-8.42-8.17-5.22,9.4,5.8,8.66,7.84-9.89ZM318.35,385.29l-7.68,9.68,6.56-2.38,6.11-6.83-4.99-.47ZM348.47,384.86l-2.37-3.35h2.29l1.25,1.77-1.16,1.58ZM351,390.38v-3.96l3.57-4.89h-2.31l-3.13,4.28v4.57h1.87ZM345.6,390.54v-9.01h-1.87v4.9l-5.8-5.13v2.48l7.67,6.77ZM339.81,390.36v-3.48l-1.87-1.64v5.11h1.87ZM336.91,390.36l-4.68-9.08-1.05,2.03,1.96,3.78h-.73l-.93,1.82h2.59l.76,1.45h2.09ZM329.65,390.36l2.01-3.9-1.04-2.04-3.05,5.93h2.09ZM384.51,390.36v-8.83h-1.87v8.83h1.87ZM375.99,390.36v-8.83h-1.87v8.83h1.87ZM358.67,388.47c-1.26-.25-2.2-1.36-2.2-2.69s.95-2.44,2.2-2.69v-1.88c-2.29.27-4.08,2.2-4.08,4.57s1.79,4.3,4.08,4.57v-1.88ZM362.86,388.57c-.74.95-1.83,1.62-3.09,1.77v-1.88c.67-.14,1.24-.52,1.63-1.04l1.46,1.15ZM359.77,383.09v-1.88c1.26.15,2.35.82,3.09,1.77l-1.46,1.15c-.39-.52-.97-.91-1.63-1.04ZM390.81,388.47c-1.26-.25-2.2-1.36-2.2-2.69s.95-2.44,2.2-2.69v-1.88c-2.29.27-4.08,2.2-4.08,4.57s1.79,4.3,4.08,4.57v-1.88ZM395,388.57c-.74.95-1.83,1.62-3.09,1.77v-1.88c.67-.14,1.24-.52,1.63-1.04l1.46,1.15ZM391.91,383.09v-1.88c1.26.15,2.35.82,3.09,1.77l-1.46,1.15c-.39-.52-.97-.91-1.63-1.04ZM367.67,388.45c-.7-.23-1.21-.87-1.21-1.65v-5.28h-1.87v5.28c0,1.82,1.34,3.31,3.08,3.57v-1.93ZM369.98,381.52v5.28c0,.78-.51,1.42-1.21,1.65v1.93c1.74-.27,3.08-1.76,3.08-3.57v-5.28h-1.87ZM378.2,381.52h-1.06v1.84h1.06c.44,0,.79.35.79.79s-.35.79-.79.79h-1.06v1.84h1.06c1.45,0,2.63-1.18,2.63-2.63s-1.18-2.63-2.63-2.63ZM378.95,387.54c.02.06.04.12.04.19,0,.43-.35.79-.79.79h-1.06v1.84h1.06c1.45,0,2.63-1.18,2.63-2.63,0-.38-.09-.74-.23-1.07-.45.43-1.02.74-1.65.88Z" style="fill:#b3b3b3;"/></svg>