<?xml version="1.0" encoding="UTF-8"?><svg id="a" xmlns="http://www.w3.org/2000/svg" viewBox="0 0 300 300"><path d="M232.11,286.23l3.92.37-5.27-4.64-5.19-2.07,6.53,6.33ZM231.69,286.47l-6.8-6.59-4.22,7.59,4.68,6.99,6.33-7.98ZM232.11,286.7l-6.2,7.81,5.3-1.92,4.93-5.51-4.03-.38ZM256.42,286.35l-1.91-2.7h1.84l1.01,1.43-.94,1.28ZM258.47,290.8v-3.2l2.88-3.95h-1.87l-2.53,3.46v3.69h1.51ZM254.11,290.93v-7.28h-1.51v3.95l-4.68-4.14v2l6.19,5.46ZM249.43,290.79v-2.81l-1.51-1.32v4.13h1.51ZM247.09,290.79l-3.78-7.33-.85,1.64,1.58,3.05h-.59l-.75,1.47h2.09l.61,1.17h1.69ZM241.22,290.79l1.62-3.14-.84-1.64-2.46,4.79h1.69ZM285.51,290.79v-7.13h-1.51v7.13h1.51ZM278.63,290.79v-7.13h-1.51v7.13h1.51ZM264.65,289.26c-1.01-.2-1.78-1.1-1.78-2.17s.76-1.97,1.78-2.17v-1.51c-1.85.22-3.29,1.78-3.29,3.69s1.44,3.47,3.29,3.69v-1.51ZM268.04,289.34c-.6.77-1.48,1.31-2.5,1.43v-1.52c.54-.11,1-.42,1.32-.84l1.18.93ZM265.54,284.92v-1.52c1.02.12,1.9.66,2.5,1.43l-1.18.93c-.32-.42-.78-.73-1.32-.84ZM290.6,289.26c-1.01-.2-1.78-1.1-1.78-2.17s.76-1.97,1.78-2.17v-1.51c-1.85.22-3.29,1.78-3.29,3.69s1.44,3.47,3.29,3.69v-1.51ZM293.98,289.34c-.6.77-1.48,1.31-2.5,1.43v-1.52c.54-.11,1-.42,1.32-.84l1.18.93ZM291.48,284.92v-1.52c1.02.12,1.9.66,2.5,1.43l-1.18.93c-.32-.42-.78-.73-1.32-.84ZM271.92,289.25c-.56-.19-.98-.7-.98-1.33v-4.26h-1.51v4.26c0,1.47,1.08,2.67,2.49,2.89v-1.56ZM273.78,283.65v4.26c0,.63-.41,1.14-.98,1.33v1.56c1.41-.21,2.49-1.42,2.49-2.89v-4.26h-1.51ZM280.42,283.65h-.85v1.49h.85c.35,0,.64.28.64.64s-.28.64-.64.64h-.85v1.49h.85c1.17,0,2.12-.95,2.12-2.12s-.95-2.12-2.12-2.12ZM281.02,288.51s.03.1.03.15c0,.35-.28.64-.64.64h-.85v1.49h.85c1.17,0,2.12-.95,2.12-2.12,0-.31-.07-.6-.19-.86-.36.35-.82.6-1.33.71Z" style="fill:#b3b3b3;"/></svg>