<?xml version="1.0" encoding="UTF-8"?><svg id="a" xmlns="http://www.w3.org/2000/svg" viewBox="0 0 250 250"><path d="M243.02,229.65s.12,0,.17.1l5.32,9.22c.05.09.02.17,0,.2-.02.03-.07.1-.18.1h-10.65c-.1,0-.16-.07-.17-.1s-.05-.11,0-.2l5.32-9.22c.05-.09.14-.1.17-.1M243.02,229.36c-.16,0-.33.08-.42.24l-5.32,9.22c-.19.32.05.73.42.73h10.65c.37,0,.61-.41.42-.73l-5.32-9.22c-.09-.16-.26-.24-.42-.24h0Z" style="fill:#b3b3b3;"/><path d="M4.7,4.07v42.05M4.7,145.29v100.79" style="fill:none; stroke:#b3b3b3; stroke-miterlimit:10; stroke-width:.85px;"/><path d="M2.27,54.85c0,1.58.62,2.61,2.69,2.61,2.24,0,2.69-1.04,2.69-2.62v-1.72H2.27v1.73ZM4.96,56.43c-1.42,0-1.81-.59-1.81-1.62v-.69h3.64v.69c0,1.01-.33,1.62-1.83,1.62ZM4.36,58.34c1.69,0,2.17.74,2.17,2.01s-.48,2.01-2.17,2.01-2.17-.73-2.17-2.01.47-2.01,2.17-2.01ZM4.36,61.37c1.09,0,1.43-.25,1.43-1.02s-.34-1.01-1.43-1.01-1.42.25-1.42,1.01.33,1.02,1.42,1.02ZM2.27,66.98h4.18v-.97h-2.78c-.44-.11-.73-.53-.67-.98,0-.6.28-.73.86-.73h2.59v-.97h-2.88c-.86,0-1.38.35-1.38,1.4,0,.58.17,1.05.61,1.29l-.53.08v.87ZM4.36,72.16c-1.18,0-2.17-.32-2.17-1.69,0-.8.28-1.15.71-1.31l-.63-.08v-.87h5.9v.97h-2.3c.37.17.67.53.67,1.29,0,1.37-.86,1.69-2.17,1.69ZM4.36,71.16c.81,0,1.43-.12,1.43-.95s-.53-1.08-1.43-1.08-1.42.23-1.42,1.08.66.95,1.42.95ZM8.17,73.15H3.25c-.71,0-1.02.29-1.02,1.13,0,.16.01.31.05.47h.76c-.02-.09-.03-.17-.03-.26,0-.26.09-.37.48-.37h4.69v-.98ZM3.29,81.79h-.91c-.13.52-.2,1.05-.2,1.58,0,1.4.57,2.01,1.59,2.01s1.39-.33,1.69-1.59c.21-.85.34-.98.74-.98.54,0,.67.3.67.95,0,.45-.07.91-.2,1.34h.86c.14-.44.2-.91.2-1.38,0-1.24-.45-1.91-1.54-1.91-.95,0-1.26.36-1.53,1.49-.22.88-.33,1.06-.87,1.06s-.73-.29-.73-1.03c0-.52.08-1.05.22-1.55h0ZM6.45,86.41v.97H2.27v-.97h4.18ZM7.62,86.35c.47,0,.52.12.52.55s-.05.55-.52.55-.53-.11-.53-.55.07-.55.53-.55ZM2.27,92.32h5.9v-.96h-2.32c.42-.17.69-.51.69-1.29,0-1.37-.99-1.7-2.17-1.7-1.31,0-2.17.32-2.17,1.7,0,.75.29,1.14.69,1.3l-.61.09v.86h0ZM5.81,90.33c0,.85-.58,1.07-1.43,1.07h-.02c-.9,0-1.39-.23-1.39-1.07s.61-.95,1.42-.95c.74,0,1.43.1,1.43.95ZM2.27,101.79h5.9v-.96h-2.32c.42-.17.69-.51.69-1.29,0-1.35-.99-1.7-2.17-1.7-1.31,0-2.17.32-2.17,1.7,0,.75.29,1.14.69,1.3l-.61.09v.86h0ZM5.81,99.8c0,.84-.58,1.07-1.43,1.07h-.02c-.9,0-1.39-.23-1.39-1.07s.61-.95,1.42-.95c.74,0,1.43.11,1.43.95ZM7.65,104.99v1.86c0,1.61-.53,2.11-1.83,2.11-1.4,0-1.89-.6-1.89-2.11v-.69h-1.66v-1.18h5.38ZM4.88,106.67c0,.8.21,1.07.92,1.07s.92-.28.92-1.07v-.52h-1.85v.52ZM2.26,113.29h1.03v-2.21h1.24v1.96h.98v-1.96h1.1v2.11h1.03v-3.29H2.26v3.39ZM7.65,114.25v1.18H2.27v-1.18h5.38ZM3.29,118.44h-.91c-.13.52-.2,1.05-.2,1.58,0,1.4.57,2.01,1.59,2.01s1.39-.33,1.69-1.59c.21-.85.34-.97.74-.97.54,0,.67.29.67.94,0,.45-.07.91-.2,1.34h.86c.14-.44.2-.91.2-1.38,0-1.24-.45-1.9-1.54-1.9-.95,0-1.26.35-1.53,1.49-.22.88-.33,1.06-.87,1.06s-.73-.29-.73-1.03c0-.53.08-1.05.22-1.55ZM5.14,126.76h-2.87v-.98h2.6c.59,0,.86-.14.86-.72.07-.47-.23-.92-.69-1.03h-2.75v-.97h5.88v1h-2.26c.44.23.62.74.62,1.32,0,1.05-.51,1.38-1.39,1.38ZM4.18,135.97h0s-.18-2.75-.18-2.75c-.69.02-1.03.37-1.03,1.2,0,.48.1.94.29,1.38h-.79c-.2-.49-.3-1.01-.28-1.53,0-1.27.48-2.01,2.17-2.01s2.17.74,2.17,2.01c0,1.45-1.07,1.93-2.35,1.71h0ZM4.83,135.11c.52,0,.96-.11.96-.85s-.37-1-1.1-1.03l.14,1.88ZM4.18,131.49h0s-.18-2.75-.18-2.75c-.69.02-1.03.37-1.03,1.2,0,.48.1.94.29,1.38h-.79c-.2-.49-.3-1.01-.28-1.53,0-1.27.48-2.01,2.17-2.01s2.17.74,2.17,2.01c0,1.45-1.07,1.93-2.35,1.71h0ZM4.83,130.63c.52,0,.96-.11.96-.85s-.37-1-1.1-1.03l.14,1.88ZM4.18,97.07h0s-.18-2.75-.18-2.75c-.69.02-1.03.37-1.03,1.2,0,.48.1.94.29,1.38h-.79c-.2-.49-.3-1.01-.28-1.53,0-1.27.48-2.01,2.17-2.01s2.17.74,2.17,2.01c0,1.45-1.07,1.93-2.35,1.71h0ZM4.83,96.21c.52,0,.96-.11.96-.85s-.37-1-1.1-1.03l.14,1.88ZM4.18,78.98h0s-.18-2.75-.18-2.75c-.69.02-1.03.37-1.03,1.2,0,.48.1.94.29,1.38h-.79c-.2-.49-.3-1.01-.28-1.53,0-1.27.48-2.01,2.17-2.01s2.17.74,2.17,2.01c0,1.45-1.07,1.93-2.35,1.71h0ZM4.83,78.12c.52,0,.96-.11.96-.85s-.37-1-1.1-1.03l.14,1.88ZM3.67,138.03h2.01v.92h.77v-.92h1v-.97h-1v-.58h-.75v.58h-2.09c-1.11,0-1.38.35-1.38,1.35,0,.18.01.35.04.52h.75c-.03-.12-.04-.25-.04-.38,0-.43.14-.52.69-.52h0ZM215.12,244.59l-.88-1.24h.85l.46.65-.43.59ZM216.06,246.63v-1.47l1.32-1.81h-.86l-1.16,1.59v1.69h.69ZM214.06,246.69v-3.34h-.69v1.81l-2.15-1.9v.92l2.84,2.51ZM211.91,246.62v-1.29l-.69-.61v1.89h.69ZM210.84,246.62l-1.73-3.36-.39.75.73,1.4h-.27l-.35.67h.96l.28.54h.78ZM208.15,246.62l.74-1.44-.39-.75-1.13,2.2h.77ZM228.47,246.62v-3.27h-.69v3.27h.69ZM225.31,246.62v-3.27h-.69v3.27h.69ZM218.9,245.92c-.47-.09-.82-.5-.82-1s.35-.9.82-1v-.69c-.85.1-1.51.81-1.51,1.69s.66,1.59,1.51,1.69v-.69ZM220.45,245.96c-.27.35-.68.6-1.15.66v-.7c.25-.05.46-.19.6-.39l.54.43ZM219.31,243.93v-.7c.47.06.87.3,1.15.66l-.54.43c-.15-.19-.36-.34-.6-.39ZM230.8,245.92c-.47-.09-.82-.5-.82-1s.35-.9.82-1v-.69c-.85.1-1.51.81-1.51,1.69s.66,1.59,1.51,1.69v-.69ZM232.35,245.96c-.27.35-.68.6-1.15.66v-.7c.25-.05.46-.19.6-.39l.54.43ZM231.21,243.93v-.7c.47.06.87.3,1.15.66l-.54.43c-.15-.19-.36-.34-.6-.39ZM222.23,245.92c-.26-.09-.45-.32-.45-.61v-1.95h-.69v1.95c0,.67.5,1.23,1.14,1.32v-.71ZM223.09,243.35v1.95c0,.29-.19.52-.45.61v.71c.65-.1,1.14-.65,1.14-1.32v-1.95h-.69ZM226.13,243.35h-.39v.68h.39c.16,0,.29.13.29.29s-.13.29-.29.29h-.39v.68h.39c.54,0,.97-.44.97-.97s-.44-.97-.97-.97ZM226.41,245.58s.01.04.01.07c0,.16-.13.29-.29.29h-.39v.68h.39c.54,0,.97-.44.97-.97,0-.14-.03-.28-.09-.4-.17.16-.38.28-.61.33ZM248.39,248.87h-10.74c-.27,0-.49-.22-.49-.49v-6.83c0-.27.22-.49.49-.49h10.74c.27,0,.49.22.49.49v6.83c0,.27-.22.49-.49.49ZM174.46,242.98l-1.14,4.02h.42l1.14-4.02h-.43ZM162.82,242.97l-1.14,4.02h.42l1.14-4.02h-.42ZM167.87,244.73v-.89h.42c.43,0,.64.15.64.44s-.19.45-.65.45h-.41ZM159.01,245.26l.42-1.42.4,1.42h-.82ZM153.71,244.97v-1.11h.4c.48,0,.73.13.73.53s-.23.58-.72.58h-.41ZM165.11,245.26h.82l-.4-1.42-.42,1.42ZM167.87,245.1v1.03h.48c.47,0,.74-.17.74-.54s-.26-.5-.74-.5h-.48ZM176.76,244.97v-1.11h.4c.48,0,.73.13.73.53s-.23.58-.71.58h-.41ZM184.21,244.99c0,.99.57,1.56,1.38,1.56.36.01.71-.11.98-.35v-1.31h-1.03v.39h.6v.71c-.14.1-.31.15-.48.15-.61,0-.95-.45-.95-1.16s.37-1.14.93-1.14c.24,0,.46.09.63.27l.26-.3c-.23-.25-.56-.39-.9-.38-.8,0-1.41.59-1.41,1.58h0ZM182.39,243.87v2.62h.48v-2.62h.9v-.4h-2.26v.4h.88ZM179.13,243.47v3.02h1.83v-.42h-1.35v-.98h1.11v-.39h-1.11v-.84h1.31v-.4h-1.79ZM176.29,243.47v3.02h.48v-1.15h.46c.65,0,1.14-.28,1.14-.96s-.46-.91-1.15-.91h-.92ZM171.11,246.54c.66,0,1.06-.39,1.06-.87,0-.38-.31-.68-.88-.94-.34-.19-.63-.28-.63-.51s.2-.39.51-.39c.25,0,.49.1.66.27l.25-.3c-.24-.24-.57-.38-.92-.38-.36,0-1,.21-1,.82.02.37.21.63.82.89.47.21.69.31.69.57s-.2.43-.57.43c-.3,0-.59-.13-.8-.34l-.28.33c.23.2.61.44,1.08.44ZM168.96,244.86c.27-.11.44-.37.43-.65,0-.55-.45-.74-1.07-.74h-.94,0v3.02h1.01c.67,0,1.16-.29,1.16-.89.02-.36-.24-.69-.6-.74ZM165.25,243.47l-1,3.02h.49l.26-.86h1.05l.25.86h.5l-1-3.02h-.55,0ZM159.15,243.47l-1,3.02h.49l.26-.86h1.05l.25.86h.5l-1-3.02h-.55,0ZM156.08,243.47v3.02h1.75v-.4h-1.28v-2.62h-.48ZM153.24,243.47v3.02h.48v-1.15h.46c.65,0,1.14-.28,1.14-.96s-.48-.91-1.15-.91h-.92,0ZM243.02,230.28l4.94,8.57h-9.89l4.94-8.57ZM245.13,237.8h-3.89v-.39h3.89v.39ZM242.42,235.31c-.23-.37-.42-.67-.03-1.33l-.38-.23c-.53.89-.22,1.39.03,1.79.24.39.42.67-.03,1.34l.36.25c.6-.91.29-1.42.03-1.82ZM243.34,235.31c-.23-.37-.42-.67-.03-1.33l-.38-.23c-.53.89-.22,1.39.03,1.79.24.39.42.67-.03,1.34l.36.25c.6-.91.29-1.42.03-1.82ZM244.17,235.25c-.23-.37-.42-.67-.03-1.33l-.38-.23c-.53.89-.22,1.39.03,1.79.24.39.42.67-.03,1.34l.36.25c.6-.91.29-1.42.03-1.82ZM145.51,248.87h89.86c.27,0,.49-.22.49-.49v-6.83c0-.27-.22-.49-.49-.49h-86.59c-.13,0-.25.05-.35.14l-5.05,5.06c-.19.19-.19.5,0,.69l1.78,1.78c.09.09.22.14.35.14Z" style="fill:#b3b3b3; fill-rule:evenodd;"/><path d="M144.01,248.67l-1.36-1.36c-.08-.08-.21-.08-.29,0l-1.36,1.36c-.07.07-.02.19.08.19h2.84c.1,0,.15-.12.08-.19Z" style="fill:#9f9fa0; fill-rule:evenodd;"/></svg>