<?xml version="1.0" encoding="UTF-8"?><svg id="a" xmlns="http://www.w3.org/2000/svg" viewBox="0 0 420 420"><path d="M324.93,400.79l5.49.52-7.38-6.49-7.27-2.9,9.15,8.87ZM324.35,401.13l-9.52-9.23-5.9,10.62,6.56,9.79,8.87-11.18ZM324.93,401.44l-8.68,10.94,7.42-2.69,6.9-7.71-5.64-.53ZM358.98,400.96l-2.68-3.79h2.58l1.41,2-1.31,1.79ZM361.84,407.19v-4.48l4.04-5.53h-2.61l-3.54,4.84v5.17h2.12ZM355.74,407.37v-10.19h-2.12v5.54l-6.55-5.8v2.8l8.67,7.65ZM349.18,407.17v-3.93l-2.12-1.85v5.78h2.12ZM345.91,407.17l-5.29-10.27-1.19,2.29,2.22,4.27h-.83l-1.06,2.06h2.93l.85,1.64h2.37ZM337.7,407.17l2.27-4.4-1.18-2.3-3.45,6.7h2.36ZM399.71,407.17v-9.99h-2.12v9.99h2.12ZM390.08,407.17v-9.99h-2.12v9.99h2.12ZM370.51,405.04c-1.42-.28-2.49-1.54-2.49-3.04s1.07-2.76,2.49-3.04v-2.12c-2.59.31-4.61,2.49-4.61,5.16s2.02,4.86,4.61,5.16v-2.12ZM375.24,405.15c-.83,1.08-2.07,1.83-3.5,2v-2.12c.75-.15,1.4-.59,1.84-1.18l1.65,1.3ZM371.75,398.96v-2.12c1.43.17,2.66.93,3.5,2l-1.65,1.3c-.45-.59-1.09-1.03-1.84-1.18ZM406.84,405.04c-1.42-.28-2.49-1.54-2.49-3.04s1.07-2.76,2.49-3.04v-2.12c-2.59.31-4.61,2.49-4.61,5.16s2.02,4.86,4.61,5.16v-2.12ZM411.57,405.15c-.83,1.08-2.07,1.83-3.5,2v-2.12c.75-.15,1.4-.59,1.84-1.18l1.65,1.3ZM408.08,398.96v-2.12c1.43.17,2.66.93,3.5,2l-1.65,1.3c-.45-.59-1.09-1.03-1.84-1.18ZM380.68,405.01c-.79-.26-1.37-.99-1.37-1.86v-5.97h-2.12v5.97c0,2.05,1.51,3.74,3.48,4.04v-2.18ZM383.29,397.18v5.97c0,.88-.58,1.6-1.37,1.86v2.18c1.97-.3,3.48-1.99,3.48-4.04v-5.97h-2.12ZM392.58,397.18h-1.19v2.08h1.19c.49,0,.89.4.89.89s-.4.89-.89.89h-1.19v2.08h1.19c1.64,0,2.97-1.33,2.97-2.97s-1.33-2.97-2.97-2.97ZM393.43,403.99c.02.07.04.14.04.21,0,.49-.4.89-.89.89h-1.19v2.08h1.19c1.64,0,2.97-1.33,2.97-2.97,0-.43-.1-.84-.26-1.21-.51.49-1.15.84-1.86,1Z" style="fill:#b3b3b3;"/></svg>