<?xml version="1.0" encoding="UTF-8"?><svg id="a" xmlns="http://www.w3.org/2000/svg" viewBox="0 0 320 320"><path d="M247.57,305.37l4.19.4-5.62-4.95-5.54-2.21,6.97,6.76ZM247.13,305.62l-7.26-7.03-4.5,8.09,5,7.46,6.76-8.52ZM247.57,305.86l-6.61,8.34,5.65-2.05,5.26-5.88-4.3-.41ZM273.51,305.5l-2.04-2.88h1.97l1.07,1.52-1,1.36ZM275.69,310.24v-3.41l3.07-4.22h-1.99l-2.7,3.69v3.94h1.61ZM271.04,310.38v-7.76h-1.61v4.22l-4.99-4.42v2.13l6.61,5.83ZM266.04,310.23v-2.99l-1.61-1.41v4.4h1.61ZM263.55,310.23l-4.03-7.82-.91,1.75,1.69,3.26h-.63l-.8,1.57h2.23l.65,1.25h1.8ZM257.3,310.23l1.73-3.36-.9-1.75-2.63,5.11h1.8ZM304.54,310.23v-7.61h-1.61v7.61h1.61ZM297.21,310.23v-7.61h-1.61v7.61h1.61ZM282.29,308.6c-1.08-.22-1.9-1.17-1.9-2.32s.82-2.1,1.9-2.32v-1.62c-1.98.23-3.51,1.89-3.51,3.93s1.54,3.7,3.51,3.93v-1.62ZM285.9,308.69c-.64.82-1.58,1.39-2.66,1.53v-1.62c.57-.12,1.07-.45,1.41-.9l1.26.99ZM283.23,303.97v-1.62c1.09.13,2.03.71,2.66,1.53l-1.26.99c-.34-.45-.83-.78-1.41-.9ZM309.97,308.6c-1.08-.22-1.9-1.17-1.9-2.32s.82-2.1,1.9-2.32v-1.62c-1.98.23-3.51,1.89-3.51,3.93s1.54,3.7,3.51,3.93v-1.62ZM313.58,308.69c-.64.82-1.58,1.39-2.66,1.53v-1.62c.57-.12,1.07-.45,1.41-.9l1.26.99ZM310.92,303.97v-1.62c1.09.13,2.03.71,2.66,1.53l-1.26.99c-.34-.45-.83-.78-1.41-.9ZM290.05,308.58c-.6-.2-1.04-.75-1.04-1.42v-4.55h-1.61v4.55c0,1.57,1.15,2.85,2.65,3.08v-1.66ZM292.03,302.62v4.55c0,.67-.44,1.22-1.04,1.42v1.66c1.5-.23,2.65-1.51,2.65-3.08v-4.55h-1.61ZM299.11,302.62h-.91v1.59h.91c.37,0,.68.3.68.68s-.3.68-.68.68h-.91v1.59h.91c1.25,0,2.26-1.01,2.26-2.26s-1.01-2.26-2.26-2.26ZM299.76,307.8c.01.05.03.1.03.16,0,.37-.3.68-.68.68h-.91v1.59h.91c1.25,0,2.26-1.01,2.26-2.26,0-.33-.07-.64-.2-.92-.39.37-.88.64-1.42.76Z" style="fill:#b3b3b3;"/></svg>