<?xml version="1.0" encoding="UTF-8"?><svg id="a" xmlns="http://www.w3.org/2000/svg" viewBox="0 0 212 212"><path d="M158.88,200.59l3.05.29-4.1-3.6-4.03-1.61,5.08,4.92ZM158.56,200.78l-5.29-5.12-3.28,5.9,3.64,5.43,4.92-6.2ZM158.88,200.95l-4.82,6.07,4.12-1.49,3.83-4.28-3.13-.3ZM177.78,200.68l-1.49-2.1h1.43l.78,1.11-.73.99ZM179.37,204.14v-2.49l2.24-3.07h-1.45l-1.96,2.69v2.87h1.17ZM175.98,204.24v-5.66h-1.17v3.07l-3.64-3.22v1.55l4.81,4.25ZM172.34,204.13v-2.18l-1.17-1.03v3.21h1.17ZM170.53,204.13l-2.94-5.7-.66,1.27,1.23,2.37h-.46l-.59,1.14h1.63l.47.91h1.31ZM165.97,204.13l1.26-2.44-.65-1.28-1.91,3.72h1.31ZM200.39,204.13v-5.54h-1.17v5.54h1.17ZM195.05,204.13v-5.54h-1.17v5.54h1.17ZM184.18,202.94c-.79-.16-1.38-.85-1.38-1.69s.59-1.53,1.38-1.69v-1.18c-1.44.17-2.56,1.38-2.56,2.86s1.12,2.7,2.56,2.86v-1.18ZM186.81,203.01c-.46.6-1.15,1.02-1.94,1.11v-1.18c.42-.09.78-.33,1.02-.66l.92.72ZM184.87,199.57v-1.18c.79.1,1.48.51,1.94,1.11l-.92.72c-.25-.33-.61-.57-1.02-.66ZM204.35,202.94c-.79-.16-1.38-.85-1.38-1.69s.59-1.53,1.38-1.69v-1.18c-1.44.17-2.56,1.38-2.56,2.86s1.12,2.7,2.56,2.86v-1.18ZM206.97,203.01c-.46.6-1.15,1.02-1.94,1.11v-1.18c.42-.09.78-.33,1.02-.66l.92.72ZM205.03,199.57v-1.18c.79.1,1.48.51,1.94,1.11l-.92.72c-.25-.33-.61-.57-1.02-.66ZM189.83,202.93c-.44-.15-.76-.55-.76-1.03v-3.31h-1.17v3.31c0,1.14.84,2.08,1.93,2.24v-1.21ZM191.28,198.59v3.31c0,.49-.32.89-.76,1.03v1.21c1.09-.17,1.93-1.1,1.93-2.24v-3.31h-1.17ZM196.43,198.59h-.66v1.16h.66c.27,0,.49.22.49.49s-.22.49-.49.49h-.66v1.16h.66c.91,0,1.65-.74,1.65-1.65s-.74-1.65-1.65-1.65ZM196.9,202.36s.02.08.02.12c0,.27-.22.49-.49.49h-.66v1.16h.66c.91,0,1.65-.74,1.65-1.65,0-.24-.05-.47-.15-.67-.28.27-.64.47-1.03.55Z" style="fill:#b3b3b3;"/></svg>