<?xml version="1.0" encoding="UTF-8"?><svg id="a" xmlns="http://www.w3.org/2000/svg" viewBox="0 0 220 220"><path d="M212.98,201.4s.11,0,.15.09l4.69,8.12c.05.08.02.15,0,.18-.02.03-.06.09-.15.09h-9.37c-.09,0-.14-.06-.15-.09-.02-.03-.05-.1,0-.18l4.69-8.12c.05-.08.12-.09.15-.09M212.98,201.15c-.14,0-.29.07-.37.21l-4.69,8.12c-.16.28.04.64.37.64h9.37c.33,0,.53-.36.37-.64l-4.69-8.12c-.08-.14-.23-.21-.37-.21h0Z" style="fill:#b3b3b3;"/><path d="M4.79,4.22v36.36M4.79,127.85v87.9" style="fill:none; stroke:#b3b3b3; stroke-miterlimit:10; stroke-width:.75px;"/><path d="M2.65,48.27c0,1.39.55,2.3,2.37,2.3,1.97,0,2.37-.92,2.37-2.3v-1.52H2.65v1.52ZM5.02,49.66c-1.25,0-1.6-.52-1.6-1.42v-.61h3.21v.61c0,.89-.29,1.42-1.61,1.42ZM4.49,51.34c1.49,0,1.91.65,1.91,1.77s-.42,1.77-1.91,1.77-1.91-.65-1.91-1.77.41-1.77,1.91-1.77ZM4.49,54c.96,0,1.26-.22,1.26-.89s-.3-.88-1.26-.88-1.25.22-1.25.88.29.89,1.25.89ZM2.65,58.95h3.68v-.85h-2.45c-.39-.09-.64-.47-.59-.87,0-.52.25-.64.76-.64h2.28v-.85h-2.53c-.76,0-1.21.31-1.21,1.24,0,.51.15.93.54,1.14l-.47.07v.76ZM4.49,63.5c-1.04,0-1.91-.28-1.91-1.48,0-.7.25-1.01.63-1.15l-.56-.07v-.77h5.19v.85h-2.03c.33.15.59.47.59,1.14,0,1.21-.76,1.48-1.91,1.48ZM4.49,62.62c.71,0,1.26-.11,1.26-.84s-.46-.95-1.26-.95-1.25.21-1.25.95.58.84,1.25.84ZM7.84,64.37H3.51c-.63,0-.9.25-.9,1,0,.14.01.28.04.41h.67c-.02-.08-.03-.15-.03-.23,0-.23.08-.32.42-.32h4.13v-.86ZM3.55,71.98h-.8c-.12.45-.18.92-.17,1.39,0,1.23.5,1.77,1.4,1.77s1.22-.29,1.48-1.4c.18-.75.3-.86.65-.86.47,0,.59.26.59.83,0,.4-.06.8-.18,1.18h.76c.12-.39.18-.8.17-1.21,0-1.09-.4-1.68-1.36-1.68-.84,0-1.11.32-1.35,1.31-.19.78-.29.94-.76.94s-.64-.25-.64-.91c0-.46.07-.92.2-1.36h0ZM6.33,76.04v.85h-3.68v-.85h3.68ZM7.36,75.99c.41,0,.45.1.45.48s-.04.48-.46.48-.46-.1-.46-.48.06-.48.47-.48ZM2.65,81.24h5.19v-.85h-2.04c.37-.15.61-.45.61-1.14,0-1.21-.87-1.49-1.91-1.49-1.15,0-1.91.28-1.91,1.49,0,.66.25,1,.61,1.15l-.54.08v.76h0ZM5.77,79.49c0,.75-.51.94-1.26.94h-.02c-.79,0-1.23-.21-1.23-.94s.54-.84,1.25-.84c.65,0,1.26.09,1.26.84ZM2.65,89.57h5.19v-.85h-2.04c.37-.15.61-.45.61-1.14,0-1.19-.87-1.49-1.91-1.49-1.15,0-1.91.28-1.91,1.49,0,.66.25,1,.61,1.15l-.54.08v.76h0ZM5.77,87.82c0,.74-.51.94-1.26.94h-.02c-.79,0-1.23-.2-1.23-.94s.54-.84,1.25-.84c.65,0,1.26.1,1.26.84ZM7.38,92.39v1.63c0,1.42-.46,1.86-1.61,1.86-1.24,0-1.67-.53-1.67-1.86v-.61h-1.46v-1.04h4.73ZM4.94,93.87c0,.7.18.94.81.94s.81-.25.81-.94v-.45h-1.62v.45ZM2.64,99.7h.91v-1.95h1.09v1.73h.87v-1.73h.97v1.85h.91v-2.89H2.64v2.98ZM7.38,100.54v1.04H2.65v-1.04h4.73ZM3.55,104.23h-.8c-.12.45-.18.92-.17,1.39,0,1.23.5,1.77,1.4,1.77s1.22-.29,1.48-1.4c.18-.75.3-.86.65-.86.47,0,.59.26.59.83,0,.4-.06.8-.18,1.18h.76c.12-.39.18-.8.17-1.21,0-1.09-.4-1.68-1.36-1.68-.84,0-1.11.31-1.35,1.31-.19.78-.29.93-.76.93s-.64-.25-.64-.91c0-.46.07-.92.2-1.37ZM5.18,111.55h-2.52v-.86h2.28c.52,0,.76-.12.76-.64.06-.42-.2-.81-.61-.91h-2.42v-.85h5.18v.88h-1.98c.39.21.55.65.55,1.16,0,.92-.45,1.22-1.23,1.22ZM4.33,119.66h0s-.15-2.42-.15-2.42c-.61.02-.91.32-.91,1.06,0,.42.08.83.25,1.21h-.7c-.18-.43-.26-.89-.25-1.35,0-1.12.42-1.77,1.91-1.77s1.91.65,1.91,1.77c0,1.28-.94,1.7-2.07,1.5h0ZM4.9,118.9c.45,0,.85-.09.85-.75s-.33-.88-.97-.91l.12,1.66ZM4.33,115.71h0s-.15-2.42-.15-2.42c-.61.02-.91.32-.91,1.06,0,.42.08.83.25,1.21h-.7c-.18-.43-.26-.89-.25-1.35,0-1.12.42-1.77,1.91-1.77s1.91.65,1.91,1.77c0,1.28-.94,1.7-2.07,1.5h0ZM4.9,114.96c.45,0,.85-.09.85-.75s-.33-.88-.97-.91l.12,1.66ZM4.33,85.42h0s-.15-2.42-.15-2.42c-.61.02-.91.32-.91,1.06,0,.42.08.83.25,1.21h-.7c-.18-.43-.26-.89-.25-1.35,0-1.12.42-1.77,1.91-1.77s1.91.65,1.91,1.77c0,1.28-.94,1.7-2.07,1.5h0ZM4.9,84.66c.45,0,.85-.09.85-.75s-.33-.88-.97-.91l.12,1.66ZM4.33,69.5h0s-.15-2.42-.15-2.42c-.61.02-.91.32-.91,1.06,0,.42.08.83.25,1.21h-.7c-.18-.43-.26-.89-.25-1.35,0-1.12.42-1.77,1.91-1.77s1.91.65,1.91,1.77c0,1.28-.94,1.7-2.07,1.5h0ZM4.9,68.74c.45,0,.85-.09.85-.75s-.33-.88-.97-.91l.12,1.66ZM3.88,121.47h1.77v.81h.68v-.81h.88v-.85h-.88v-.51h-.66v.51h-1.84c-.98,0-1.21.31-1.21,1.19,0,.15.01.31.04.46h.66c-.03-.11-.04-.22-.03-.34,0-.38.13-.46.61-.46h0ZM188.43,214.46l-.77-1.09h.74l.41.58-.38.52ZM189.25,216.26v-1.29l1.16-1.6h-.75l-1.02,1.4v1.49h.61ZM187.49,216.31v-2.94h-.61v1.6l-1.89-1.67v.81l2.5,2.21ZM185.6,216.25v-1.13l-.61-.53v1.67h.61ZM184.66,216.25l-1.53-2.96-.34.66.64,1.23h-.24l-.3.59h.85l.25.47h.68ZM182.29,216.25l.65-1.27-.34-.66-.99,1.93h.68ZM200.17,216.25v-2.88h-.61v2.88h.61ZM197.39,216.25v-2.88h-.61v2.88h.61ZM191.75,215.64c-.41-.08-.72-.44-.72-.88s.31-.79.72-.88v-.61c-.75.09-1.33.72-1.33,1.49s.58,1.4,1.33,1.49v-.61ZM193.12,215.67c-.24.31-.6.53-1.01.58v-.61c.22-.04.4-.17.53-.34l.48.37ZM192.11,213.89v-.61c.41.05.77.27,1.01.58l-.48.37c-.13-.17-.31-.3-.53-.34ZM202.23,215.64c-.41-.08-.72-.44-.72-.88s.31-.79.72-.88v-.61c-.75.09-1.33.72-1.33,1.49s.58,1.4,1.33,1.49v-.61ZM203.59,215.67c-.24.31-.6.53-1.01.58v-.61c.22-.04.4-.17.53-.34l.48.37ZM202.58,213.89v-.61c.41.05.77.27,1.01.58l-.48.37c-.13-.17-.31-.3-.53-.34ZM194.69,215.63c-.23-.08-.39-.28-.39-.54v-1.72h-.61v1.72c0,.59.44,1.08,1,1.16v-.63ZM195.44,213.38v1.72c0,.25-.17.46-.39.54v.63c.57-.09,1-.57,1-1.16v-1.72h-.61ZM198.12,213.38h-.34v.6h.34c.14,0,.26.11.26.26s-.11.26-.26.26h-.34v.6h.34c.47,0,.86-.38.86-.86s-.38-.86-.86-.86ZM198.36,215.34s.01.04.01.06c0,.14-.11.26-.26.26h-.34v.6h.34c.47,0,.86-.38.86-.86,0-.12-.03-.24-.08-.35-.15.14-.33.24-.54.29ZM217.7,218.23h-9.45c-.24,0-.43-.19-.43-.43v-6.01c0-.24.19-.43.43-.43h9.45c.24,0,.43.19.43.43v6.01c0,.24-.19.43-.43.43ZM146.16,213.05l-1,3.53h.37l1.01-3.53h-.38ZM135.92,213.04l-1.01,3.53h.37l1-3.53h-.37ZM140.36,214.59v-.78h.37c.38,0,.56.14.56.38s-.17.4-.58.4h-.36ZM132.56,215.05l.37-1.25.35,1.25h-.72ZM127.9,214.8v-.98h.35c.42,0,.64.12.64.47s-.2.51-.63.51h-.36ZM137.93,215.05h.72l-.35-1.25-.37,1.25ZM140.36,214.92v.91h.42c.42,0,.65-.15.65-.47s-.23-.44-.65-.44h-.42ZM148.19,214.8v-.98h.35c.42,0,.64.12.64.47s-.2.51-.63.51h-.36ZM154.74,214.82c0,.87.5,1.37,1.21,1.37.32.01.62-.1.86-.31v-1.15h-.91v.34h.53v.63c-.12.09-.27.14-.42.13-.54,0-.84-.4-.84-1.02s.33-1.01.82-1.01c.21,0,.41.08.55.24l.23-.27c-.2-.22-.49-.34-.79-.34-.71,0-1.24.52-1.24,1.39h0ZM153.14,213.83v2.31h.42v-2.31h.79v-.35h-1.98v.35h.78ZM150.27,213.48v2.66h1.61v-.37h-1.19v-.86h.98v-.34h-.98v-.74h1.15v-.35h-1.57ZM147.77,213.48v2.66h.42v-1.01h.4c.58,0,1-.25,1-.85s-.41-.8-1.02-.8h-.81ZM143.21,216.18c.58,0,.94-.34.94-.77,0-.33-.27-.6-.78-.82-.3-.17-.56-.25-.56-.45s.18-.34.45-.34c.22,0,.43.08.58.24l.22-.27c-.21-.22-.5-.34-.81-.34-.32,0-.88.18-.88.72.02.32.18.55.72.79.42.19.61.27.61.5s-.18.38-.5.38c-.27,0-.52-.12-.71-.3l-.25.29c.21.18.54.39.95.39ZM141.32,214.71c.23-.09.38-.32.38-.57,0-.48-.39-.65-.94-.65h-.82,0v2.66h.89c.59,0,1.02-.25,1.02-.78.02-.32-.21-.61-.52-.65ZM138.06,213.48l-.88,2.66h.43l.23-.76h.93l.22.76h.44l-.88-2.66h-.48,0ZM132.69,213.48l-.88,2.66h.43l.23-.76h.93l.22.76h.44l-.88-2.66h-.48,0ZM129.99,213.48v2.66h1.54v-.35h-1.12v-2.31h-.42ZM127.49,213.48v2.66h.42v-1.01h.4c.58,0,1-.25,1-.85s-.42-.8-1.02-.8h-.81,0ZM120.69,218.23h85.56c.24,0,.43-.19.43-.43v-6.01c0-.24-.19-.43-.43-.43h-82.68c-.11,0-.22.05-.3.13l-4.45,4.45c-.17.17-.17.44,0,.61l1.56,1.56c.08.08.19.13.3.13ZM212.98,201.96l4.35,7.54h-8.7l4.35-7.54ZM214.83,208.58h-3.42v-.35h3.42v.35ZM212.45,206.38c-.21-.33-.37-.59-.02-1.17l-.33-.2c-.47.79-.19,1.23.03,1.58.21.34.37.59-.02,1.18l.32.22c.53-.8.25-1.25.03-1.61ZM213.26,206.38c-.21-.33-.37-.59-.02-1.17l-.33-.2c-.47.79-.19,1.23.03,1.58.21.34.37.59-.02,1.18l.32.22c.53-.8.25-1.25.03-1.61ZM213.99,206.33c-.21-.33-.37-.59-.02-1.17l-.33-.2c-.47.79-.19,1.23.03,1.58.21.34.37.59-.02,1.18l.32.22c.53-.8.25-1.25.03-1.61ZM119.29,218.25h-2.39c-.09,0-.14-.11-.07-.18l1.15-1.15c.06-.06.16-.06.22,0l1.15,1.15c.06.06.02.17-.07.17Z" style="fill:#b3b3b3; fill-rule:evenodd;"/></svg>