<?xml version="1.0" encoding="UTF-8"?><svg id="a" xmlns="http://www.w3.org/2000/svg" viewBox="0 0 400 400"><path d="M326.04,385.03l4.25.4-5.7-5.02-5.61-2.24,7.07,6.85ZM325.6,385.29l-7.36-7.13-4.56,8.21,5.07,7.56,6.85-8.64ZM326.04,385.53l-6.71,8.45,5.73-2.08,5.33-5.96-4.36-.41ZM352.36,385.16l-2.07-2.93h2l1.09,1.54-1.01,1.38ZM354.57,389.97v-3.46l3.12-4.28h-2.02l-2.73,3.74v4h1.63ZM349.85,390.11v-7.87h-1.63v4.28l-5.07-4.48v2.16l6.7,5.91ZM344.78,389.96v-3.04l-1.63-1.43v4.47h1.63ZM342.26,389.96l-4.09-7.94-.92,1.77,1.71,3.3h-.64l-.82,1.59h2.27l.66,1.27h1.83ZM335.91,389.96l1.75-3.4-.91-1.78-2.66,5.18h1.82ZM383.83,389.96v-7.72h-1.63v7.72h1.63ZM376.39,389.96v-7.72h-1.63v7.72h1.63ZM361.26,388.31c-1.1-.22-1.93-1.19-1.93-2.35s.83-2.13,1.93-2.35v-1.64c-2,.24-3.56,1.92-3.56,3.99s1.56,3.75,3.56,3.99v-1.64ZM364.92,388.4c-.65.83-1.6,1.41-2.7,1.55v-1.64c.58-.12,1.08-.45,1.43-.91l1.28,1ZM362.22,383.61v-1.64c1.1.13,2.06.72,2.7,1.55l-1.28,1c-.34-.46-.84-.79-1.43-.91ZM389.34,388.31c-1.1-.22-1.93-1.19-1.93-2.35s.83-2.13,1.93-2.35v-1.64c-2,.24-3.56,1.92-3.56,3.99s1.56,3.75,3.56,3.99v-1.64ZM393,388.4c-.65.83-1.6,1.41-2.7,1.55v-1.64c.58-.12,1.08-.45,1.43-.91l1.28,1ZM390.3,383.61v-1.64c1.1.13,2.06.72,2.7,1.55l-1.28,1c-.34-.46-.84-.79-1.43-.91ZM369.13,388.29c-.61-.2-1.06-.76-1.06-1.44v-4.61h-1.63v4.61c0,1.59,1.17,2.89,2.69,3.12v-1.68ZM371.14,382.24v4.61c0,.68-.45,1.24-1.06,1.44v1.68c1.52-.23,2.69-1.54,2.69-3.12v-4.61h-1.63ZM378.32,382.24h-.92v1.61h.92c.38,0,.69.31.69.69s-.31.69-.69.69h-.92v1.61h.92c1.27,0,2.3-1.03,2.3-2.3s-1.03-2.3-2.3-2.3ZM378.98,387.5c.01.05.03.11.03.16,0,.38-.31.69-.69.69h-.92v1.61h.92c1.27,0,2.3-1.03,2.3-2.3,0-.33-.07-.65-.2-.94-.39.38-.89.65-1.44.77Z" style="fill:#b3b3b3;"/></svg>