<?xml version="1.0" encoding="UTF-8"?><svg id="a" xmlns="http://www.w3.org/2000/svg" viewBox="0 0 220 220"><path d="M164.89,208.63l3.05.29-4.1-3.6-4.03-1.61,5.08,4.92ZM164.57,208.81l-5.29-5.12-3.28,5.9,3.64,5.43,4.92-6.2ZM164.89,208.99l-4.82,6.07,4.12-1.49,3.83-4.28-3.13-.3ZM183.79,208.72l-1.49-2.1h1.43l.78,1.11-.73.99ZM185.38,212.18v-2.49l2.24-3.07h-1.45l-1.96,2.69v2.87h1.17ZM181.99,212.28v-5.66h-1.17v3.07l-3.64-3.22v1.55l4.81,4.25ZM178.35,212.17v-2.18l-1.17-1.03v3.21h1.17ZM176.54,212.17l-2.94-5.7-.66,1.27,1.23,2.37h-.46l-.59,1.14h1.63l.47.91h1.31ZM171.98,212.17l1.26-2.44-.65-1.28-1.91,3.72h1.31ZM206.4,212.17v-5.54h-1.17v5.54h1.17ZM201.05,212.17v-5.54h-1.17v5.54h1.17ZM190.19,210.98c-.79-.16-1.38-.85-1.38-1.69s.59-1.53,1.38-1.69v-1.18c-1.44.17-2.56,1.38-2.56,2.86s1.12,2.7,2.56,2.86v-1.18ZM192.82,211.05c-.46.6-1.15,1.02-1.94,1.11v-1.18c.42-.09.78-.33,1.02-.66l.92.72ZM190.88,207.61v-1.18c.79.1,1.48.51,1.94,1.11l-.92.72c-.25-.33-.61-.57-1.02-.66ZM210.35,210.98c-.79-.16-1.38-.85-1.38-1.69s.59-1.53,1.38-1.69v-1.18c-1.44.17-2.56,1.38-2.56,2.86s1.12,2.7,2.56,2.86v-1.18ZM212.98,211.05c-.46.6-1.15,1.02-1.94,1.11v-1.18c.42-.09.78-.33,1.02-.66l.92.72ZM211.04,207.61v-1.18c.79.1,1.48.51,1.94,1.11l-.92.72c-.25-.33-.61-.57-1.02-.66ZM195.84,210.97c-.44-.15-.76-.55-.76-1.03v-3.31h-1.17v3.31c0,1.14.84,2.08,1.93,2.24v-1.21ZM197.29,206.62v3.31c0,.49-.32.89-.76,1.03v1.21c1.09-.17,1.93-1.1,1.93-2.24v-3.31h-1.17ZM202.44,206.62h-.66v1.16h.66c.27,0,.49.22.49.49s-.22.49-.49.49h-.66v1.16h.66c.91,0,1.65-.74,1.65-1.65s-.74-1.65-1.65-1.65ZM202.91,210.4s.02.08.02.12c0,.27-.22.49-.49.49h-.66v1.16h.66c.91,0,1.65-.74,1.65-1.65,0-.24-.05-.47-.15-.67-.28.27-.64.47-1.03.55Z" style="fill:#b3b3b3;"/></svg>