<?xml version="1.0" encoding="UTF-8"?><svg id="a" xmlns="http://www.w3.org/2000/svg" viewBox="0 0 250 255"><path d="M187.86,241.66l3.5.33-4.69-4.13-4.62-1.84,5.82,5.64ZM187.49,241.87l-6.06-5.87-3.76,6.76,4.17,6.23,5.64-7.11ZM187.86,242.07l-5.52,6.96,4.72-1.71,4.39-4.91-3.59-.34ZM209.52,241.76l-1.7-2.41h1.64l.9,1.27-.83,1.14ZM211.34,245.73v-2.85l2.57-3.52h-1.66l-2.25,3.08v3.29h1.35ZM207.46,245.84v-6.48h-1.35v3.52l-4.17-3.69v1.78l5.52,4.87ZM203.29,245.71v-2.5l-1.35-1.18v3.68h1.35ZM201.21,245.71l-3.37-6.53-.76,1.46,1.41,2.72h-.53l-.67,1.31h1.87l.54,1.05h1.51ZM195.98,245.71l1.44-2.8-.75-1.46-2.19,4.27h1.5ZM235.44,245.71v-6.35h-1.35v6.35h1.35ZM229.31,245.71v-6.35h-1.35v6.35h1.35ZM216.85,244.35c-.9-.18-1.58-.98-1.58-1.93s.68-1.75,1.58-1.93v-1.35c-1.65.19-2.93,1.58-2.93,3.28s1.28,3.09,2.93,3.28v-1.35ZM219.87,244.43c-.53.69-1.32,1.16-2.22,1.27v-1.35c.48-.1.89-.37,1.17-.75l1.05.83ZM217.64,240.49v-1.35c.91.11,1.69.59,2.22,1.27l-1.05.83c-.28-.38-.69-.65-1.17-.75ZM239.97,244.35c-.9-.18-1.58-.98-1.58-1.93s.68-1.75,1.58-1.93v-1.35c-1.65.19-2.93,1.58-2.93,3.28s1.28,3.09,2.93,3.28v-1.35ZM242.98,244.43c-.53.69-1.32,1.16-2.22,1.27v-1.35c.48-.1.89-.37,1.17-.75l1.05.83ZM240.76,240.49v-1.35c.91.11,1.69.59,2.22,1.27l-1.05.83c-.28-.38-.69-.65-1.17-.75ZM223.33,244.34c-.5-.17-.87-.63-.87-1.19v-3.8h-1.35v3.8c0,1.31.96,2.38,2.22,2.57v-1.39ZM224.99,239.36v3.8c0,.56-.37,1.02-.87,1.19v1.39c1.25-.19,2.22-1.26,2.22-2.57v-3.8h-1.35ZM230.9,239.36h-.76v1.33h.76c.31,0,.57.25.57.57s-.25.57-.57.57h-.76v1.33h.76c1.04,0,1.89-.85,1.89-1.89s-.85-1.89-1.89-1.89ZM231.44,243.69s.03.09.03.13c0,.31-.25.57-.57.57h-.76v1.33h.76c1.04,0,1.89-.85,1.89-1.89,0-.28-.06-.53-.17-.77-.32.31-.73.54-1.19.64Z" style="fill:#b3b3b3;"/></svg>