<?xml version="1.0" encoding="UTF-8"?><svg id="a" xmlns="http://www.w3.org/2000/svg" viewBox="0 0 256 256"><path d="M253.34,199.76c.61,0,1.11.5,1.11,1.11v51.81c0,.61-.5,1.11-1.11,1.11h-2.94c-.61,0-1.11-.5-1.11-1.11v-51.81c0-.61.5-1.11,1.11-1.11h2.94M253.34,199.36h-2.94c-.83,0-1.51.68-1.51,1.51v51.81c0,.83.68,1.51,1.51,1.51h2.94c.83,0,1.51-.68,1.51-1.51v-51.81c0-.83-.68-1.51-1.51-1.51h0Z" style="fill:#bcbec0;"/><polygon points="253.89 248.28 249.86 251.28 249.86 205.26 253.89 202.26 253.89 248.28" style="fill:#bcbec0;"/><path d="M4.8,183.76v9.14c0,.37.19.71.52.89.32.18.71.18,1.03-.01l7.66-4.57c.31-.19.5-.51.5-.88s-.19-.69-.5-.88l-7.66-4.57c-.32-.19-.7-.2-1.03-.01-.32.18-.52.52-.52.89ZM6.1,183.31l7.66,4.57c.17.1.25.28.25.45s-.08.35-.25.45l-7.66,4.57c-.35.21-.79-.04-.79-.45v-9.14c0-.41.44-.66.79-.45ZM2.11,254.6c-.34,0-.61-.28-.61-.61s.28-.61.61-.61c.27,0,.5.18.58.43h3.16l4.82-4.82v-44.81l-8.39-8.39v-104.12c-.25-.08-.43-.3-.43-.58,0-.34.28-.61.61-.61s.61.28.61.61c0,.28-.18.5-.44.58v103.97l8.39,8.39v45.11l-5.04,5.04h-3.3c-.08.25-.3.44-.58.44ZM4.91,144.94v-.5h4.78v.5h-4.78ZM7.9,244.31l-6.01,5.65v-1.42l6.01-5.65v1.42ZM7.9,240.27l-6.01,5.65v-1.42l6.01-5.65v1.42ZM7.9,236.23l-6.01,5.65v-1.42l6.01-5.65v1.42ZM7.9,232.2l-6.01,5.65v-1.42l6.01-5.65v1.42ZM7.9,228.16l-6.01,5.65v-1.42l6.01-5.65v1.42ZM7.9,224.13l-6.01,5.65v-1.42l6.01-5.65v1.42ZM7.9,220.09l-6.01,5.65v-1.42l6.01-5.65v1.42ZM7.9,216.06l-6.01,5.65v-1.42l6.01-5.65v1.42ZM7.9,212.02l-6.01,5.65v-1.42l6.01-5.65v1.42ZM7.9,207.98l-6.01,5.65v-1.42l6.01-5.65v1.42ZM7.9,248.38l-2.6,2.44h-1.51l4.11-3.86v1.42ZM7.51,204.31l-5.63,5.29v-1.42l4.89-4.6.73.73ZM5.43,202.23l-3.55,3.33v-1.42l2.81-2.65.73.73ZM3.35,200.15l-1.47,1.38v-2.85s1.47,1.47,1.47,1.47ZM8.95,253.92l1.82-1.82.39,2.21-2.21-.39ZM4.93,153.04c0,.84.59,1.39,1.47,1.39s1.46-.56,1.46-1.39-.58-1.4-1.46-1.4-1.47.56-1.47,1.4ZM7.17,153.04c0,.37-.29.59-.78.59s-.79-.22-.79-.59.29-.6.79-.6.78.22.78.6ZM5.01,166.83v-.79h2.76v.79h-.45c.33.18.51.46.51.72v.18h-.81v-.18c0-.41-.23-.73-.55-.73h-1.45ZM6.02,162.71h1.75v.79h-1.58c-.39,0-.55.2-.55.51,0,.29.22.51.52.51h1.61v.79h-2.76v-.79h.4c-.31-.2-.49-.52-.49-.82,0-.57.39-.98,1.1-.98ZM6.68,171.99l-.04-.69c-.03-.55-.31-.85-.82-.85s-.87.39-.87.92c0,.4.19.71.51.88-.17.02-.33.05-.44.09v.8c.18-.07.51-.11.87-.11h.9c.63,0,1.07-.51,1.07-1.25s-.38-1.26-.97-1.3v.81c.25.03.38.2.38.49,0,.25-.17.46-.37.46h-.01c-.13,0-.19-.07-.2-.24ZM6.12,172.24c-.31,0-.55-.24-.55-.56,0-.25.13-.42.32-.42.18,0,.28.12.29.34l.04.64h-.1ZM7.13,155.29v-.44h.63v.44h.72v.79h-.72v.44h-.63v-.44h-1.15c-.23,0-.31.09-.31.25v.19h-.67v-.3c0-.55.29-.93.87-.93h1.25ZM4.97,178.48c0,.77.32,1.25.97,1.36v-.84c-.22-.04-.35-.22-.35-.51,0-.34.21-.54.62-.59v1.97h.18c.84,0,1.44-.6,1.44-1.42s-.54-1.37-1.42-1.37-1.43.54-1.43,1.4ZM7.25,178.45c0,.32-.21.54-.53.57v-1.11c.36.06.53.25.53.54ZM6.61,185.75v5.16c0,.14.08.27.2.34.12.07.27.07.39,0l.82-.49c.12-.07.19-.2.19-.33v-4.18c0-.14-.07-.26-.19-.33l-.82-.49c-.12-.07-.27-.07-.39,0-.12.07-.2.2-.2.34ZM7.83,186.24v4.18l-.82.49v-5.16l.82.49ZM8.5,186.7c.08-.07.21-.06.27.02.1.12.28.33.36.34.04,0,.1-.03.17-.09.45-.4.94-.09,1.26.12.09.06.12.18.06.27-.06.09-.18.12-.27.06-.43-.28-.61-.31-.79-.15-.1.09-.26.21-.46.19-.23-.02-.41-.21-.63-.48-.03-.04-.05-.08-.05-.12,0-.06.02-.11.07-.15ZM8.5,187.85c.08-.07.21-.06.27.02.11.13.28.33.36.34.04,0,.1-.03.17-.09.45-.4.94-.09,1.26.12.09.06.12.18.06.27-.06.09-.18.12-.27.06-.43-.28-.61-.31-.79-.15-.1.09-.26.21-.46.19-.23-.02-.41-.21-.63-.48-.03-.04-.05-.08-.05-.12,0-.06.02-.11.07-.15ZM8.5,188.99c.08-.07.21-.06.27.02.11.13.28.33.36.34.04,0,.1-.03.17-.09.45-.4.94-.09,1.26.12.09.06.12.18.06.27-.06.09-.18.12-.27.06-.43-.28-.61-.31-.79-.15-.1.09-.26.21-.46.19-.23-.02-.41-.21-.63-.48-.03-.04-.05-.08-.05-.12,0-.06.02-.11.07-.15ZM5.01,148.73v-.79h3.59v.79h-1.36v1.43h1.36v.79h-3.59v-.79h1.48v-1.43h-1.48ZM7.13,168.7v-.41h.63v.41h.23c.58,0,.87.37.87.93v.33h-.67v-.22c0-.16-.08-.25-.31-.25h-.13v.46h-.63v-.46h-2.12v-.79h2.12ZM6.04,161.23c.2,0,.33-.16.36-.48l.05-.56c.08-.69.42-1.08,1.09-1.08.67,0,1.09.57,1.09,1.4s-.43,1.37-1.13,1.45v-.81c.34-.05.5-.26.5-.65,0-.35-.17-.59-.42-.59-.2,0-.31.14-.35.42l-.05.51c-.09.8-.46,1.19-1.13,1.19s-1.09-.55-1.09-1.39c0-.89.44-1.47,1.15-1.55v.82c-.35.06-.51.3-.51.74,0,.35.17.59.43.59ZM4.96,131v-.79h2.76v.79h-.41c.29.18.5.5.5.77,0,.43-.22.75-.63.89h0c.36.16.62.54.62.85,0,.58-.4.97-1.13.97h-1.73v-.79h1.56c.4,0,.57-.16.57-.48,0-.3-.23-.48-.54-.48h-1.59v-.79h1.56c.4,0,.57-.16.57-.48,0-.3-.23-.48-.54-.48h-1.6ZM4.96,136.02v-.79h2.76v.79h-.41c.29.18.5.5.5.77,0,.43-.22.75-.63.89h0c.36.16.62.54.62.85,0,.58-.4.97-1.13.97h-1.73v-.79h1.56c.4,0,.57-.16.57-.48,0-.3-.23-.48-.54-.48h-1.59v-.79h1.56c.4,0,.57-.16.57-.48,0-.3-.23-.48-.54-.48h-1.6ZM4.96,116.27l1.79.98,1.79-.98v.9l-1.4.74,1.4.72v.9l-1.8-.97-1.79.97v-.9l1.39-.74-1.39-.72v-.91ZM4.96,95.58v-2.67h.15c1.14,0,1.47.72,1.74,1.3.15.29.28.58.59.58.29,0,.46-.2.46-.51s-.21-.53-.55-.55v-.82c.76.04,1.22.59,1.22,1.36s-.46,1.33-1.15,1.33-.98-.6-1.2-1.06c-.18-.36-.32-.65-.56-.65v1.69h-.72ZM6.18,98.09c.38,0,.6-.21.6-.58,0-.25-.1-.44-.28-.54v-.8l2.05.2v2.4h-.68v-1.68l-.78-.08c.18.2.28.45.28.79,0,.66-.49,1.1-1.19,1.1-.78,0-1.27-.53-1.27-1.34s.45-1.34,1.13-1.39v.82c-.27.01-.44.22-.44.55,0,.35.2.55.57.55ZM4.91,101.07c0,.77.51,1.31,1.23,1.31.68,0,1.17-.47,1.17-1.12,0-.4-.2-.75-.51-.9.03,0,.07,0,.1,0,.72,0,1.04.25,1.04.67,0,.28-.13.44-.37.49v.82c.64-.12,1.02-.61,1.02-1.31,0-.93-.62-1.48-1.81-1.48s-1.87.6-1.87,1.54ZM6.67,101.04c0,.32-.22.53-.56.53s-.55-.21-.55-.52c0-.33.24-.57.56-.57s.55.22.55.56ZM4.96,108.93v-2.67h.15c1.14,0,1.47.72,1.74,1.3.15.29.28.58.59.58.29,0,.46-.2.46-.51s-.21-.53-.55-.55v-.82c.76.04,1.22.59,1.22,1.36s-.46,1.33-1.15,1.33-.98-.6-1.2-1.06c-.18-.36-.32-.65-.56-.65v1.69h-.72ZM6.18,111.45c.38,0,.6-.21.6-.58,0-.25-.1-.44-.28-.54v-.8l2.05.2v2.4h-.68v-1.68l-.78-.08c.18.2.28.45.28.79,0,.66-.49,1.1-1.19,1.1-.78,0-1.27-.53-1.27-1.34s.45-1.34,1.13-1.39v.82c-.27.01-.44.22-.44.55,0,.35.2.55.57.55ZM4.91,114.43c0,.77.51,1.31,1.23,1.31.68,0,1.17-.47,1.17-1.12,0-.4-.2-.75-.51-.9.03,0,.07,0,.1,0,.72,0,1.04.25,1.04.67,0,.28-.13.44-.37.49v.82c.64-.12,1.02-.61,1.02-1.31,0-.93-.62-1.48-1.81-1.48s-1.87.6-1.87,1.54ZM6.67,114.39c0,.32-.22.53-.56.53s-.55-.21-.55-.52c0-.33.24-.56.56-.56s.55.22.55.56ZM4.96,122.73v-2.67h.15c1.14,0,1.47.72,1.74,1.3.15.29.28.58.59.58.29,0,.46-.2.46-.51s-.21-.53-.55-.55v-.82c.76.04,1.22.59,1.22,1.36s-.46,1.33-1.15,1.33-.98-.6-1.2-1.06c-.18-.36-.32-.65-.56-.65v1.69h-.72ZM6.18,125.24c.38,0,.6-.21.6-.58,0-.25-.1-.44-.28-.54v-.8l2.05.2v2.4h-.68v-1.68l-.78-.08c.18.2.28.45.28.79,0,.66-.49,1.1-1.19,1.1-.78,0-1.27-.53-1.27-1.34s.45-1.34,1.13-1.39v.82c-.27.01-.44.22-.44.55,0,.35.2.55.57.55ZM4.91,128.23c0,.77.51,1.31,1.23,1.31.68,0,1.17-.47,1.17-1.12,0-.4-.2-.75-.51-.9.03,0,.07,0,.1,0,.72,0,1.04.25,1.04.67,0,.28-.13.44-.37.49v.82c.64-.12,1.02-.61,1.02-1.31,0-.93-.62-1.48-1.81-1.48s-1.87.6-1.87,1.54ZM6.67,128.19c0,.32-.22.53-.56.53s-.55-.21-.55-.52c0-.33.24-.56.56-.56s.55.22.55.56ZM7.22,141.02c.15,0,.23-.09.23-.26v-.19h.33v.19c0,.15.08.23.22.23.16,0,.26-.1.26-.27,0-.16-.1-.26-.26-.26v-.45c.37.03.61.32.61.72s-.24.7-.57.7c-.18,0-.33-.09-.42-.25-.09.18-.25.28-.45.28-.34,0-.56-.28-.56-.71s.25-.75.62-.78v.45c-.17.01-.27.13-.27.3s.09.29.26.29ZM4.96,102.95l1.38.76,1.38-.76v.85l-.97.53.97.52v.85l-1.38-.76-1.38.76v-.85l.97-.53-.97-.52v-.85ZM6.4,173.7c.88,0,1.46.56,1.46,1.4,0,.76-.45,1.35-1.2,1.36v-.82c.35-.01.52-.22.52-.54,0-.37-.28-.59-.77-.59s-.78.22-.78.59c0,.31.14.53.47.54v.82c-.73-.04-1.15-.61-1.15-1.36,0-.84.59-1.4,1.47-1.4Z" style="fill:#bcbec0;"/></svg>