<?xml version="1.0" encoding="UTF-8"?><svg id="a" xmlns="http://www.w3.org/2000/svg" viewBox="0 0 680 680"><path d="M87.56,667.48h-3.83v-2.24h6.46v7.23h-2.2v-1.64c-.88,1.24-2.24,1.7-3.79,1.79-1.61.09-3.22-.51-4.41-1.57-1.39-1.24-2.09-2.95-2.09-4.8,0-3.83,2.51-6.82,6.43-6.82,1.56,0,3.02.48,4.22,1.49.45.39,1,.98,1.28,1.52l.05.1-2.2,1.41-.07-.13c-1.07-2.15-4.08-2.58-5.77-.91-.76.75-1.26,1.93-1.26,3,0,.9.27,1.92.76,2.68.7,1.08,1.75,1.57,3.02,1.57,1.74,0,2.93-1.09,3.39-2.68h0ZM59.5,670.04h6.58v2.42h-9.17v-12.86h2.59v10.44ZM48.15,664.74h5.68v2.42h-5.68v2.88h6.99v2.42h-9.58v-12.86h9.58v2.42h-6.99v2.72ZM69.97,664.74h5.68v2.42h-5.68v2.88h6.99v2.42h-9.58v-12.86h9.58v2.42h-6.99v2.72ZM109.5,659.38c-1.97,0-3.68.78-4.86,2.05.51.78.86,1.37,1.28,2.15.59-.64,1.43-1.22,2.32-1.51,2.68-.88,5.12,1.18,5.12,3.93,0,2.18-1.63,4.15-3.87,4.15-1.42,0-2.65-.8-3.33-2.05-1.04-1.72-1.07-3.91-2.22-5.75-1.19-1.91-3.33-2.99-5.55-2.99-3.74,0-6.58,2.91-6.58,6.62s2.79,6.62,6.58,6.62c1.97,0,3.68-.78,4.86-2.05-.51-.78-.86-1.37-1.28-2.15-.61.67-1.49,1.25-2.42,1.54-2.64.82-5.03-1.26-5.03-3.97,0-2.18,1.63-4.15,3.87-4.15,1.42,0,2.65.8,3.33,2.05,1.06,1.76,1.09,3.95,2.22,5.75,1.19,1.91,3.32,2.99,5.55,2.99,3.74,0,6.58-2.91,6.58-6.62s-2.79-6.62-6.58-6.62" style="fill:#bcbec0; fill-rule:evenodd;"/><path d="M157.9,538.64h-11.7c-4.11,0-7.44-3.33-7.44-7.44v-41.52c0-4.11,3.33-7.44,7.44-7.44h11.7c4.11,0,7.44,3.33,7.44,7.44v41.52c0,4.11-3.33,7.44-7.44,7.44ZM200.37,531.2v-41.52c0-4.11-3.33-7.44-7.44-7.44h-11.7c-4.11,0-7.44,3.33-7.44,7.44v41.52c0,4.11,3.33,7.44,7.44,7.44h11.7c4.11,0,7.44-3.33,7.44-7.44ZM157.9,197.76h-11.7c-4.11,0-7.44-3.33-7.44-7.44v-41.52c0-4.11,3.33-7.44,7.44-7.44h11.7c4.11,0,7.44,3.33,7.44,7.44v41.52c0,4.11-3.33,7.44-7.44,7.44ZM181.23,169.56h11.7c4.11,0,7.44-3.33,7.44-7.44v-13.32c0-4.11-3.33-7.44-7.44-7.44h-11.7c-4.11,0-7.44,3.33-7.44,7.44M173.79,190.32c0,4.11,3.33,7.44,7.44,7.44h11.7c4.11,0,7.44-3.33,7.44-7.44v-13.32c0-4.11-3.33-7.44-7.44-7.44M498.77,197.76h-11.7c-4.11,0-7.44-3.33-7.44-7.44v-41.52c0-4.11,3.33-7.44,7.44-7.44h11.7c4.11,0,7.44,3.33,7.44,7.44v41.52c0,4.11-3.33,7.44-7.44,7.44ZM541.24,197.76h-26.58v-11.03c0-2.48.98-4.86,2.74-6.61l21.1-21.1c1.75-1.75,2.74-4.13,2.74-6.61v-3.6c0-4.11-3.33-7.44-7.44-7.44h-11.7c-4.11,0-7.44,3.33-7.44,7.44M498.77,538.64h-11.7c-4.11,0-7.44-3.33-7.44-7.44v-41.52c0-4.11,3.33-7.44,7.44-7.44h11.7c4.11,0,7.44,3.33,7.44,7.44v41.52c0,4.11-3.33,7.44-7.44,7.44ZM531.67,538.64v-56.4c0,4.11-3.33,7.44-7.44,7.44M539.11,538.64h-14.88" style="fill:none; opacity:.5; stroke:#ffb957; stroke-linecap:round; stroke-linejoin:round; stroke-width:3px;"/><path d="M5.44,674.53v-5.37h3.64M5.44,671.84h2.68M13.25,671.84c.74,0,1.34-.6,1.34-1.34s-.6-1.34-1.34-1.34h0s-2.3,0-2.3,0v5.37M14.6,674.53v-1.34c0-.74-.6-1.34-1.34-1.34h-2.3M20.1,673.18v-2.69c0-.74-.6-1.34-1.34-1.34h-.95c-.74,0-1.34.6-1.34,1.34v2.69c0,.74.6,1.34,1.34,1.34h.95c.74,0,1.34-.6,1.34-1.34ZM29.3,674.53v-5.37M27.48,669.15h3.64M21.97,674.53v-5.37l3.64,5.37v-5.37M5.44,666.04h25.68l-12.84-8.61-12.84,8.61ZM649.32,674.53v-5.37h3.64M649.32,671.84h2.68M657.13,671.84c.74,0,1.34-.6,1.34-1.34s-.6-1.34-1.34-1.34h0s-2.3,0-2.3,0v5.37M658.47,674.53v-1.34c0-.74-.6-1.34-1.34-1.34h-2.3M663.98,673.18v-2.69c0-.74-.6-1.34-1.34-1.34h-.95c-.74,0-1.34.6-1.34,1.34v2.69c0,.74.6,1.34,1.34,1.34h.95c.74,0,1.34-.6,1.34-1.34ZM673.18,674.53v-5.37M671.35,669.15h3.64M665.85,674.53v-5.37l3.64,5.37v-5.37M649.32,666.04h25.68l-12.84-8.61-12.84,8.61Z" style="fill:none; opacity:.5; stroke:#ffb957; stroke-linecap:round; stroke-linejoin:round;"/><path d="M340,0v680M340,0v680M680,340H0" style="fill:none; stroke:#000; stroke-linecap:round; stroke-linejoin:round;"/><path d="M382.41,660.02l1.96-1.2h.04v5.31M389.28,661.72h3.52c0-.89-.34-1.98-1.67-1.98-1.14,0-1.87.82-1.87,2.22,0,1.26.59,2.18,1.9,2.18.86,0,1.34-.4,1.57-.87M397.65,664.14l-3.43-4.4M393.99,664.14l3.55-4.4M398.57,660.17h2.41M399.48,658.91v4.3c0,.65.32.93.89.93.31,0,.57-.09.73-.21M404.57,659.74c-.56,0-1.16.46-1.81,1.11M402.75,659.74v4.4M409.04,659.74v4.4M406.04,659.74v3.21c0,.77.46,1.19,1.16,1.19.82,0,1.47-.57,1.84-1.11M414.48,663.05c-.39.67-.99,1.09-1.77,1.09-1.25,0-1.74-1.05-1.74-2.21,0-1.33.61-2.19,1.73-2.19.67,0,1.28.3,1.78,1.06M414.48,664.14v-5.9M416.42,661.72h3.52c0-.89-.34-1.98-1.67-1.98-1.14,0-1.87.82-1.87,2.22,0,1.26.59,2.18,1.9,2.18.86,0,1.34-.4,1.57-.87M423.62,659.74c-.56,0-1.16.46-1.81,1.11M421.81,659.74v4.4M376.71,672.42h-3.66v-.03l2.04-1.94c.7-.67,1.39-1.29,1.39-2.14s-.72-1.28-1.52-1.28-1.47.41-1.74,1.09M377.94,670.22h1.99M384.19,672.42v-5.31h-.09l-2.84,4.01v.03h4.07M389.28,670h3.52c0-.89-.34-1.98-1.67-1.98-1.14,0-1.87.82-1.87,2.22,0,1.26.59,2.18,1.9,2.18.86,0,1.34-.4,1.57-.87M397.65,672.42l-3.43-4.4M393.99,672.42l3.55-4.4M398.57,668.45h2.41M399.48,667.19v4.3c0,.65.32.93.89.93.31,0,.57-.09.73-.21M404.57,668.02c-.56,0-1.16.46-1.81,1.11M402.75,668.02v4.4M409.04,668.02v4.4M406.04,668.02v3.21c0,.77.46,1.19,1.16,1.19.82,0,1.47-.57,1.84-1.11M414.47,671.33c-.39.67-.99,1.09-1.77,1.09-1.25,0-1.74-1.05-1.74-2.21,0-1.33.61-2.19,1.73-2.19.67,0,1.28.3,1.78,1.06M414.47,672.42v-5.9M416.42,670h3.52c0-.89-.34-1.98-1.67-1.98-1.14,0-1.87.82-1.87,2.22,0,1.26.59,2.18,1.9,2.18.86,0,1.34-.4,1.57-.87M423.62,668.02c-.56,0-1.16.46-1.81,1.11M421.81,668.02v4.4M424.59,671.49c.22.59.87.94,1.65.94s1.52-.32,1.52-1.07c0-1.47-2.99-.96-2.99-2.34,0-.7.77-.99,1.43-.99s1.14.28,1.37.74M438.13,658.75c-1.73,0-2.4,1.42-2.4,2.69,0,1.06.48,2.7,2.41,2.7s2.41-1.64,2.41-2.7c0-1.27-.67-2.69-2.4-2.69M442.51,660.85c.56-.55,1.16-1.11,1.98-1.11.71,0,1.07.42,1.07,1.11v3.29M442.51,659.74v4.4M447.85,658.23v5.06c0,.57.27.85.79.85.12,0,.22-.02.28-.03M453.68,659.74l-1.94,4.53c-.35.9-.62,1.37-1.16,1.37-.16,0-.31-.04-.46-.12M451.77,664.14l-1.93-4.4M457.25,660.17h2.41M458.16,658.91v4.3c0,.65.32.93.89.93.31,0,.57-.09.73-.21M461.43,660.85c.56-.55,1.16-1.11,1.98-1.11.71,0,1.07.42,1.07,1.11v3.29M461.43,664.14v-5.9M466.38,661.72h3.52c0-.89-.34-1.98-1.67-1.98-1.14,0-1.87.82-1.87,2.22,0,1.26.59,2.18,1.9,2.18.86,0,1.34-.4,1.57-.87M474.5,660.8c.49-.76,1.11-1.06,1.78-1.06,1.12,0,1.73.86,1.73,2.19,0,1.17-.49,2.21-1.74,2.21-.78,0-1.37-.41-1.77-1.09M474.5,664.14v-5.9M479.49,661.72h3.52c0-.89-.34-1.98-1.67-1.98-1.14,0-1.87.82-1.87,2.22,0,1.26.59,2.18,1.9,2.18.86,0,1.34-.4,1.57-.87M487.94,663.05c-.39.67-.99,1.09-1.77,1.09-1.25,0-1.74-1.05-1.74-2.21,0-1.33.61-2.19,1.73-2.19.67,0,1.28.3,1.78,1.06M487.94,664.14v-5.9M496.02,659.74v4.4M493.02,659.74v3.21c0,.77.46,1.19,1.16,1.19.82,0,1.47-.57,1.84-1.11M498.4,660.85c.56-.55,1.16-1.11,1.98-1.11.71,0,1.07.42,1.07,1.11v3.29M498.4,659.74v4.4M506.84,663.05c-.39.67-.99,1.09-1.77,1.09-1.25,0-1.74-1.05-1.74-2.21,0-1.33.61-2.19,1.73-2.19.67,0,1.28.3,1.78,1.06M506.84,664.14v-5.9M508.78,661.72h3.52c0-.89-.34-1.98-1.67-1.98-1.14,0-1.87.82-1.87,2.22,0,1.26.59,2.18,1.9,2.18.86,0,1.34-.4,1.57-.87M515.99,659.74c-.56,0-1.16.46-1.81,1.11M514.17,659.74v4.4M519.52,660.17h2.41M520.44,658.91v4.3c0,.65.32.93.89.93.31,0,.57-.09.73-.21M523.71,660.85c.56-.55,1.16-1.11,1.98-1.11.71,0,1.07.42,1.07,1.11v3.29M523.71,664.14v-5.9M528.65,661.72h3.52c0-.89-.34-1.98-1.67-1.98-1.14,0-1.87.82-1.87,2.22,0,1.26.59,2.18,1.9,2.18.86,0,1.34-.4,1.57-.87M539.84,660.85c.56-.55,1.16-1.11,1.98-1.11.71,0,1.07.42,1.07,1.11v3.29M536.79,660.85c.56-.55,1.16-1.11,1.98-1.11.71,0,1.07.42,1.07,1.11v3.29M536.79,659.74v4.4M546.65,659.74c-1.5,0-1.88,1.36-1.88,2.22,0,1.07.57,2.18,1.89,2.18s1.89-1.11,1.89-2.18c0-.86-.38-2.22-1.88-2.22M553.52,663.05c-.39.67-.99,1.09-1.77,1.09-1.25,0-1.74-1.05-1.74-2.21,0-1.33.61-2.19,1.73-2.19.67,0,1.28.3,1.78,1.06M553.52,664.14v-5.9M555.46,661.72h3.52c0-.89-.34-1.98-1.67-1.98-1.14,0-1.87.82-1.87,2.22,0,1.26.59,2.18,1.9,2.18.86,0,1.34-.4,1.57-.87M560.81,658.23v5.06c0,.57.27.85.79.85.12,0,.22-.02.28-.03M566.23,660.85c.56-.55,1.16-1.11,1.98-1.11.71,0,1.07.42,1.07,1.11v3.29M566.23,664.14v-5.9M571.17,661.72h3.52c0-.89-.34-1.98-1.67-1.98-1.14,0-1.87.82-1.87,2.22,0,1.26.59,2.18,1.9,2.18.86,0,1.34-.4,1.57-.87M576.33,660.65c.3-.6.76-.91,1.54-.91,1.06,0,1.42.63,1.42,1.4v1.9c0,.33,0,.8.04,1.09M579.29,663.11c-.5.58-1.12,1.03-1.9,1.03-.87,0-1.27-.54-1.27-1.12,0-.9.77-1.32,2.62-1.32h.56M580.7,660.17h2.41M581.61,658.91v4.3c0,.65.32.93.89.93.31,0,.57-.09.73-.21M584.42,663.2c.22.59.87.94,1.65.94s1.52-.32,1.52-1.07c0-1.47-2.99-.96-2.99-2.34,0-.7.77-.99,1.43-.99s1.14.28,1.37.74M595.18,659.74v4.4M592.17,659.74v3.21c0,.77.46,1.19,1.16,1.19.82,0,1.47-.57,1.84-1.11M597.56,660.8c.49-.76,1.11-1.06,1.78-1.06,1.12,0,1.73.86,1.73,2.19,0,1.17-.49,2.21-1.74,2.21-.78,0-1.37-.41-1.77-1.09M597.56,659.74v5.9M437.7,667.03c-1.36,0-2.01,1.21-2.01,2.72s.66,2.67,2.02,2.67,2.02-1.15,2.02-2.67-.66-2.72-2.01-2.72M443.03,667.03c-1.36,0-2.01,1.21-2.01,2.72s.66,2.67,2.02,2.67,2.02-1.15,2.02-2.67-.66-2.72-2.01-2.72M446.62,670.22h1.99M452.18,667.03c-1.36,0-2.01,1.21-2.01,2.72s.66,2.67,2.02,2.67,2.02-1.15,2.02-2.67-.66-2.72-2.01-2.72M457.3,672.42v-5.31h-.04l-1.96,1.2M462.38,668.93c.3-.6.76-.91,1.54-.91,1.06,0,1.42.63,1.42,1.4v1.9c0,.33,0,.8.04,1.09M465.34,671.39c-.5.58-1.12,1.03-1.9,1.03-.87,0-1.27-.54-1.27-1.12,0-.9.77-1.32,2.62-1.32h.56M467.57,669.13c.56-.55,1.16-1.11,1.98-1.11.71,0,1.07.42,1.07,1.11v3.29M467.57,668.02v4.4M476.01,671.33c-.39.67-.99,1.09-1.77,1.09-1.25,0-1.74-1.05-1.74-2.21,0-1.33.61-2.19,1.73-2.19.67,0,1.28.3,1.78,1.06M476.01,672.42v-5.9M482.69,667.03c-1.36,0-2.01,1.21-2.01,2.72s.66,2.67,2.02,2.67,2.02-1.15,2.02-2.67-.66-2.72-2.01-2.72M489.53,672.42h-3.66v-.03l2.04-1.94c.7-.67,1.39-1.29,1.39-2.14s-.72-1.28-1.52-1.28-1.47.41-1.74,1.09M490.77,670.22h1.99M496.33,667.03c-1.36,0-2.01,1.21-2.01,2.72s.66,2.67,2.02,2.67,2.02-1.15,2.02-2.67-.66-2.72-2.01-2.72M499.64,667.83c.27-.42.8-.8,1.68-.8,1.09,0,1.58.57,1.58,1.22,0,.71-.58,1.32-1.8,1.32M500.81,669.58h.28c1.38,0,1.9.75,1.9,1.46,0,.81-.69,1.39-1.77,1.39-.89,0-1.55-.4-1.72-.98M507.83,669.08c.49-.76,1.11-1.06,1.78-1.06,1.12,0,1.73.86,1.73,2.19,0,1.17-.49,2.21-1.74,2.21-.78,0-1.37-.41-1.77-1.09M507.83,672.42v-5.9M512.82,670h3.52c0-.89-.34-1.98-1.67-1.98-1.14,0-1.87.82-1.87,2.22,0,1.26.59,2.18,1.9,2.18.86,0,1.34-.4,1.57-.87M521.26,671.33c-.39.67-.99,1.09-1.77,1.09-1.25,0-1.74-1.05-1.74-2.21,0-1.33.61-2.19,1.73-2.19.67,0,1.28.3,1.78,1.06M521.26,672.42v-5.9M523.19,671.49c.22.59.87.94,1.65.94s1.52-.32,1.52-1.07c0-1.47-2.99-.96-2.99-2.34,0-.7.77-.99,1.43-.99s1.14.28,1.37.74M530.98,669.13c.56-.55,1.16-1.11,1.98-1.11.71,0,1.07.42,1.07,1.11v3.29M530.98,672.42v-5.9M535.92,670h3.52c0-.89-.34-1.98-1.67-1.98-1.14,0-1.87.82-1.87,2.22,0,1.26.59,2.18,1.9,2.18.86,0,1.34-.4,1.57-.87M541.08,668.93c.3-.6.76-.91,1.54-.91,1.06,0,1.42.63,1.42,1.4v1.9c0,.33,0,.8.04,1.09M544.04,671.39c-.5.58-1.12,1.03-1.9,1.03-.87,0-1.27-.54-1.27-1.12,0-.9.77-1.32,2.62-1.32h.56M545.45,668.45h2.41M546.36,667.19v4.3c0,.65.32.93.89.93.31,0,.57-.09.73-.21M549.18,671.49c.22.59.87.94,1.65.94s1.52-.32,1.52-1.07c0-1.47-2.99-.96-2.99-2.34,0-.7.77-.99,1.43-.99s1.14.28,1.37.74M556.15,668.45h2.41M557.06,667.19v4.3c0,.65.32.93.89.93.31,0,.57-.09.73-.21M561.75,668.02c-1.5,0-1.88,1.36-1.88,2.22,0,1.07.57,2.18,1.89,2.18s1.89-1.11,1.89-2.18c0-.86-.38-2.22-1.88-2.22M568.62,668.02v4.41c0,.98-.6,1.49-1.66,1.49-.68,0-1.2-.21-1.51-.66M568.62,671.26c-.39.63-.99,1.01-1.77,1.01-1.25,0-1.74-1.01-1.74-2.13,0-1.25.61-2.11,1.74-2.11.66,0,1.27.3,1.77,1.06M570.51,670h3.52c0-.89-.34-1.98-1.67-1.98-1.14,0-1.87.82-1.87,2.22,0,1.26.59,2.18,1.9,2.18.86,0,1.34-.4,1.57-.87M575.08,668.45h2.41M576,667.19v4.3c0,.65.32.93.89.93.31,0,.57-.09.73-.21M579.27,669.13c.56-.55,1.16-1.11,1.98-1.11.71,0,1.07.42,1.07,1.11v3.29M579.27,672.42v-5.9M584.21,670h3.52c0-.89-.34-1.98-1.67-1.98-1.14,0-1.87.82-1.87,2.22,0,1.26.59,2.18,1.9,2.18.86,0,1.34-.4,1.57-.87M591.42,668.02c-.56,0-1.16.46-1.81,1.11M589.61,668.02v4.4M431.96,660.2h.05M431.96,668.51h.05M431.96,671.85h.05M431.96,663.56h.05M366.34,674.53h-17.96c-.8,0-1.29-.87-.88-1.55l8.98-15.05c.4-.67,1.36-.67,1.76,0l8.98,15.05c.41.68-.08,1.55-.88,1.55ZM352.98,669.52l-1.03,1.73h10.81l-1.03-1.73h-8.76ZM354.45,668.01c.77-.64,1.07-.97.52-1.59s-.24-1.23.26-2.02M356.7,668.01c.77-.64,1.07-.97.52-1.59s-.24-1.23.26-2.02M358.96,668.01c.77-.64,1.07-.97.52-1.59s-.24-1.23.26-2.02" style="fill:none; stroke:#bcbec0; stroke-linecap:round; stroke-linejoin:round; stroke-width:.75px;"/></svg>