<?xml version="1.0" encoding="UTF-8"?><svg id="a" xmlns="http://www.w3.org/2000/svg" viewBox="0 0 225 225"><path d="M203.83,218.72h-2.44v-1.43h4.12v4.61h-1.4v-1.04c-.56.79-1.43,1.09-2.41,1.14-1.02.06-2.05-.33-2.81-1-.88-.79-1.33-1.88-1.33-3.06,0-2.44,1.6-4.35,4.1-4.35.99,0,1.92.31,2.69.95.29.25.64.62.82.97l.03.07-1.4.9-.04-.08c-.68-1.37-2.6-1.64-3.68-.58-.48.48-.8,1.23-.8,1.91,0,.57.17,1.22.49,1.71.44.69,1.11,1,1.92,1,1.11,0,1.86-.69,2.16-1.71h0ZM185.95,220.35h4.19v1.54h-5.84v-8.19h1.65v6.65ZM178.72,216.97h3.62v1.54h-3.62v1.84h4.45v1.54h-6.11v-8.19h6.11v1.54h-4.45v1.73ZM192.62,216.97h3.62v1.54h-3.62v1.84h4.45v1.54h-6.11v-8.19h6.11v1.54h-4.45v1.73ZM217.8,213.56c-1.26,0-2.34.49-3.1,1.31.32.49.55.87.82,1.37.37-.41.91-.78,1.48-.96,1.71-.56,3.26.75,3.26,2.51,0,1.39-1.04,2.64-2.47,2.64-.91,0-1.69-.51-2.12-1.3-.66-1.1-.68-2.49-1.42-3.66-.76-1.22-2.12-1.9-3.54-1.9-2.38,0-4.2,1.85-4.2,4.22s1.78,4.22,4.2,4.22c1.26,0,2.34-.49,3.1-1.31-.32-.49-.55-.87-.82-1.37-.39.43-.95.8-1.54.98-1.68.52-3.2-.8-3.2-2.53,0-1.39,1.04-2.64,2.47-2.64.91,0,1.69.51,2.12,1.3.67,1.12.7,2.51,1.42,3.66.76,1.22,2.12,1.9,3.54,1.9,2.38,0,4.2-1.85,4.2-4.22s-1.78-4.22-4.2-4.22" style="fill:#bcbec0; fill-rule:evenodd;"/></svg>