<?xml version="1.0" encoding="UTF-8"?><svg id="a" xmlns="http://www.w3.org/2000/svg" viewBox="0 0 220 220"><path d="M114.29,213.72h-2.44v-1.43h4.12v4.61h-1.4v-1.04c-.56.79-1.43,1.09-2.41,1.14-1.02.06-2.05-.33-2.81-1-.88-.79-1.33-1.88-1.33-3.06,0-2.44,1.6-4.35,4.1-4.35.99,0,1.92.31,2.69.95.29.25.64.62.82.97l.03.07-1.4.9-.04-.08c-.68-1.37-2.6-1.64-3.68-.58-.48.48-.8,1.23-.8,1.91,0,.57.17,1.22.49,1.71.44.69,1.11,1,1.92,1,1.11,0,1.86-.69,2.16-1.71h0ZM96.42,215.35h4.19v1.54h-5.84v-8.19h1.65v6.65ZM89.19,211.97h3.62v1.54h-3.62v1.84h4.45v1.54h-6.11v-8.19h6.11v1.54h-4.45v1.73ZM103.09,211.97h3.62v1.54h-3.62v1.84h4.45v1.54h-6.11v-8.19h6.11v1.54h-4.45v1.73ZM128.27,208.56c-1.26,0-2.34.49-3.1,1.31.32.49.55.87.82,1.37.37-.41.91-.78,1.48-.96,1.71-.56,3.26.75,3.26,2.51,0,1.39-1.04,2.64-2.47,2.64-.91,0-1.69-.51-2.12-1.3-.66-1.1-.68-2.49-1.42-3.66-.76-1.22-2.12-1.9-3.54-1.9-2.38,0-4.2,1.85-4.2,4.22s1.78,4.22,4.2,4.22c1.26,0,2.34-.49,3.1-1.31-.32-.49-.55-.87-.82-1.37-.39.43-.95.8-1.54.98-1.68.52-3.2-.8-3.2-2.53,0-1.39,1.04-2.64,2.47-2.64.91,0,1.69.51,2.12,1.3.67,1.12.7,2.51,1.42,3.66.76,1.22,2.12,1.9,3.54,1.9,2.38,0,4.2-1.85,4.2-4.22s-1.78-4.22-4.2-4.22" style="fill:#bcbec0; fill-rule:evenodd;"/><path d="M74.63,68.79c0-2.68,2.18-4.86,4.86-4.86s4.86,2.18,4.86,4.86-2.18,4.86-4.86,4.86-4.86-2.18-4.86-4.86ZM147.76,77.19c2.19,0,3.96-1.77,3.96-3.96s-1.77-3.96-3.96-3.96-3.96,1.77-3.96,3.96,1.77,3.96,3.96,3.96ZM52.77,100.24c-1.39,0-2.53,1.13-2.53,2.53s1.13,2.52,2.53,2.52,2.52-1.13,2.52-2.52-1.13-2.53-2.52-2.53ZM82.69,144.82c-1.39,0-2.53,1.13-2.53,2.52s1.13,2.52,2.53,2.52,2.52-1.13,2.52-2.52-1.13-2.52-2.52-2.52ZM129.35,95.83c1.39,0,2.52-1.13,2.52-2.52s-1.13-2.53-2.52-2.53-2.52,1.13-2.52,2.53,1.13,2.52,2.52,2.52ZM149.68,115.67c.18-1.29.3-2.61.36-3.94,7.88-3.78,10.95-6.3,12.1-7.54-.97-.26-2.75-.55-5.87-.55h0c-2.32,0-4.97.16-7.89.45.3,1.94.45,3.93.45,5.95,0,12.61-6.01,23.82-15.31,30.93.38.61.6,1.32.6,2.09,0,2.19-1.77,3.96-3.96,3.96-1.43,0-2.69-.77-3.38-1.91-5.09,2.45-10.8,3.82-16.83,3.82-11.86,0-22.47-5.31-29.61-13.67-3.81.45-7.2.68-10.05.68-5.72,0-9.29-.92-9.84-2.84-.7-2.46,3.69-6.13,11.49-10.19.37,1.09.78,2.15,1.24,3.2-5.45,2.86-7.78,4.82-8.76,5.86.97.26,2.75.55,5.87.55,2.25,0,4.81-.14,7.63-.42-4.32-6.27-6.86-13.87-6.86-22.06,0-21.48,17.41-38.89,38.89-38.89,18.27,0,33.6,12.6,37.77,29.59,3.2-.34,6.08-.51,8.56-.51,5.72,0,9.29.92,9.84,2.84.83,2.94-5.6,7.61-16.43,12.6ZM142.83,104.78c-9.09,1.31-20.02,3.71-31.36,6.93-11.47,3.26-22.34,7.09-31,10.91-.45-1.04-.84-2.12-1.17-3.21,8.5-3.73,19.31-7.59,31.25-10.98,11.61-3.3,22.54-5.67,31.59-6.98-3.79-14.22-16.76-24.7-32.18-24.7-18.39,0-33.3,14.91-33.3,33.3,0,8.08,2.88,15.49,7.67,21.26,4.53-.67,9.51-1.61,14.76-2.78-.57-.69-.92-1.57-.92-2.54,0-2.19,1.77-3.96,3.96-3.96s3.96,1.77,3.96,3.96c0,.31-.04.61-.11.9,2.99-.75,6.04-1.56,9.13-2.44,9.54-2.71,18.67-5.82,26.45-8.98-.24,1.39-.57,2.74-.98,4.06-7.21,2.83-15.55,5.65-24.54,8.2-10.48,2.98-20.4,5.2-28.89,6.57,5.96,5.61,13.98,9.04,22.81,9.04,18.39,0,33.3-14.91,33.3-33.3,0-1.79-.14-3.55-.42-5.26Z" style="fill:#dbdbdb; opacity:.2;"/></svg>